<?xml version="1.0" encoding="UTF-8"?>
<svg version="1.1" viewBox="100 90 1230 1230" width="1280" height="1280" xmlns="http://www.w3.org/2000/svg">
<path transform="translate(705,93)" d="m0 0 14 1 35 5 15 5 15 8 10 8 7 7 6 10 4 15v28l5 1 9 5 12 11 9 11 7 15 4 16v22l-4 16-8 16-8 10-7 6h14l20-5 24-10 18-6 22-5 16-2h25l19 3 16 5 17 8 14 10 17 17 10 14 8 14 8 19 5 21 1 7v32l-5 25-7 21-9 20-3 6 2 4 21 21 7 8 13 15 15 20 10 14 14 22 10 18 11 21 13 30 13 38 9 36 5 27 4 36 1 19v31l-2 30-4 31-6 30-8 30-11 32-11 26-10 21-13 23-13 21-13 18-12 16-12 14-11 12-9 10-12 12-8 7-11 10-14 11-17 13-24 16-15 9-22 12-23 11-33 13-28 9-33 8-36 6-33 3h-52l-33-3-36-6-26-6-29-9-25-9-25-11-26-13-17-10-22-14-16-12-13-10-13-11-8-7-12-11-19-19-7-8-12-14-13-17-12-17-11-17-11-19-12-23-12-27-10-27-9-30-6-26-6-36-3-36v-43l3-36 6-37 9-36 12-36 12-29 15-30 13-22 16-24 9-12 11-14 12-14 12-13 18-18-10-23-7-19-5-18-3-21v-18l3-21 5-18 8-18 10-16 8-10 11-12 14-11 14-8 16-6 18-4 8-1h25l22 3 23 6 19 7 20 8 18 4h10l5-12 7-12 9-11 4-4-16 4-19 5 1-12 6-38 4-15 5-12 8-13 12-14 13-11 16-10 5-3h2z" fill="#002856"/>
<path transform="translate(705,93)" d="m0 0 14 1 35 5 15 5 15 8 10 8 7 7 6 10 4 15v28l5 1 9 5 12 11 9 11 7 15 4 16v22l-4 16-8 16-8 10-7 6h14l20-5 24-10 18-6 22-5 16-2h25l19 3 16 5 17 8 14 10 17 17 10 14 8 14 8 19 5 21 1 7v32l-5 25-7 21-9 20-3 6 2 4 21 21 7 8 13 15 15 20 10 14 14 22 10 18 11 21 13 30 13 38 9 36 5 27 4 36 1 19v31l-2 30-4 31-6 30-8 30-11 32-11 26-10 21-13 23-13 21-13 18-12 16-12 14-11 12-9 10-12 12-8 7-11 10-14 11-17 13-24 16-15 9-22 12-23 11-33 13-28 9-33 8-36 6-33 3h-52l-33-3-36-6-26-6-29-9-25-9-25-11-26-13-17-10-22-14-16-12-13-10-13-11-8-7-12-11-19-19-7-8-12-14-13-17-12-17-11-17-11-19-12-23-12-27-10-27-9-30-6-26-6-36-3-36v-43l3-36 6-37 9-36 12-36 12-29 15-30 13-22 16-24 9-12 11-14 12-14 12-13 18-18-10-23-7-19-5-18-3-21v-18l3-21 5-18 8-18 10-16 8-10 11-12 14-11 14-8 16-6 18-4 8-1h25l22 3 23 6 19 7 20 8 18 4h10l5-12 7-12 9-11 4-4-16 4-19 5 1-12 6-38 4-15 5-12 8-13 12-14 13-11 16-10 5-3h2zm25 28v46l-9 3-17 9-11 8-12 11-9 13-5 11-4 19 1 4 36-10-3 22v21l-9 7-10 10-7 11-5 11-3 12-1 8v9l2 13 4 12 7 13 10 12 3 2-2 7-17 2-11 2v-14l-3-12-6-12-1-4 6-7 4-9 3-16-27-1-17-3-16-5-20-8-21-7-19-4-8-1h-29l-18 4-15 6-11 7-12 11-8 9-10 15-8 18-5 19-1 8v24l4 20 5 16 6 15 8 16 8 14-1 3-8 7-12 11-14 14-7 8-13 15-13 17-12 17-12 19-12 22-8 16-10 22-11 30-8 28-6 27-5 33-2 23v54l3 32 6 35 7 28 12 36 12 29 13 26 16 27 13 19 9 12 8 10 11 13 11 12 26 26 11 9 13 11 19 14 15 10 15 9 18 10 22 11 32 13 27 9 32 8 27 5 25 3 13 1h58l30-3 30-5 26-6 29-9 27-10 26-12 23-12 23-14 20-14 14-11 11-9 11-10 8-7 22-22 7-8 11-13 15-20 18-27 12-21 8-15 13-29 10-28 7-23 7-30 5-31 2-19 1-16v-41l-2-27-4-29-7-33-9-31-10-27-12-27-13-25-12-20-13-19-16-21-12-14-9-10-15-16-8-7-12-11 1-4 13-24 8-20 6-20 3-20v-13l-2-17-5-18-8-17-8-12-12-14-12-10-17-9-13-4-11-2h-30l-23 4-20 6-24 10-16 5-17 3-27 1 2 13 4 11 7 9-7 14-3 10-1 8v9l-24-4-3-1-2-3 1-4 8-8 9-14 5-13 2-10v-21l-4-16-6-12v-3l8-6 7-6 8-11 5-12 2-12-1-13-4-13-6-10-10-10-13-8-12-5h-2l1-3v-38l-4-10-8-9-12-7-14-4-12-2z" fill="#FDFDFD"/>
<path transform="translate(636,530)" d="m0 0h204v247l-4 16-8 16-8 10-14 14-17 12-23 12-21 8-4 1h-7l-22-8-22-11-12-8-10-8-10-9-11-14-8-17-3-12-1-10v-238z" fill="#002856"/>
<path transform="translate(568,485)" d="m0 0h69l49 19 41 16 11 4 98-38 3-1h69l-7 11-7 14-4 13-1 6-1 260-3 16-6 16-9 15-11 14-11 12-8 7-13 11-18 13-28 17-31 16-9 4h-6l-25-12-19-10-21-13-17-12-16-13-13-12-11-12-10-14-9-17-5-16-1-6-1-261-3-15-5-13-8-14-3-3zm68 45-1 1v238l2 15 4 12 8 15 11 13 11 10 16 11 23 12 21 8 3 1h7l20-7 23-11 15-10 10-8 14-14 9-14 5-12 3-13v-247z" fill="#FDC329"/>
<path transform="translate(898,751)" d="m0 0 3 4 6 11 14 14 2 1 2-6 8-16 2-2v280l-16 16-11 9-19 14-24 14-21 10-28 10-24 6-18 3h-8v-190l16-9 21-12 22-15 13-10 14-12 13-13 11-14 8-13 8-17 4-15 1-7z" fill="#CD0E2D"/>
<path transform="translate(577,750)" d="m0 0h1l1 45 4 17 7 16 9 15 11 14 20 20 14 11 15 11 19 12 25 14 6 3v191l-14-1-24-5-17-5-22-8-25-12-17-10-17-12-16-13-15-14-1-1v-280l2 2 4 9 6 11 4-2 9-9 7-11z" fill="#CD0E2D"/>
<path transform="translate(507,316)" d="m0 0h24l19 3 21 6 20 8 13 5 21 5 6 1 17 1-1 6-5 8-6 5-4 2 2 4 8 9 5 12 1 6v14l-6-2-16-8 2 13v15l-3 8-4-2-14-11-4-3-4 16-6 11-8 9-14 8-14 4-14 1-4 5-2 6v15l5 16-7-1-8-5-5-6-3-7-1-5v-18l-9-7-5-5-6-7-6-12-2-9v-15l2-9 5-9 8-8 12-7 5-1v15l4 10 7 7 8 4 12 1 10-3 6-4 7-8 4-11 1-4v-11l-4-11-6-8-10-9-12-6-14-3h-17l-16 4-16 8-12 11-9 12-7 14-4 13-2 14v12l3 20 7 21 8 16 15 23 12 20 14 22 15 24 15 29 10 21 10 26 7 24 4 21 1 9v20l-3 17-5 12-8 12h-2l-4-10-2-9v-35l-10-2-5-6-2-6-1-12-9-4-4-6-2-9 1-15 1-7v-20l-4-20-6-16-8-14-15-24-16-26-15-24-12-22-9-22-5-19-2-13v-18l2-14 5-16 8-16 9-13 10-11 14-10 11-5 15-4z" fill="#FDC229"/>
<path transform="translate(944,316)" d="m0 0h25l16 3 13 5 11 7 10 9 9 10 9 14 7 16 4 15 1 6v27l-3 16-7 21-9 20-11 19-15 24-32 52-8 16-5 18-2 16 1 18 1 6v16l-3 8-6 5-6 1v10l-3 10-7 6-8 1 1 9v22l-3 15-4 8-5-4-8-15-4-17v-30l3-19 6-22 8-23 12-27 13-26 10-17 12-19 15-24 12-19 15-24 8-19 5-19 1-7v-24l-4-17-6-14-9-13-8-9-10-7-10-5-13-4-6-1h-17l-16 4-11 6-10 9-6 10-2 6-1 8 3 14 5 9 4 5 9 5 8 2 11-1 10-5 6-7 4-11v-13l6 2 9 5 9 8 5 9 2 6v23l-5 13-8 11-11 10-3 2-1 21-4 10-4 5-6 4-9 2 3-10 2-9v-10l-3-9-4-4-18-2-14-5-10-7-7-7-7-14-2-9v-6l-14 11-9 6-3-6-1-13 3-17-19 9-4 1v-11l3-14 6-11 8-8-10-7-6-10-1-5 17-1 20-4 21-7 19-8 21-6z" fill="#FDC229"/>
<path transform="translate(458,526)" d="m0 0 3 3 3 6-13 12-21 21-9 11-8 9-12 16-16 24-12 21-11 21-13 31-10 30-7 28-5 28-3 26-1 16v36l3 36 5 30 9 36 11 32 11 25 12 24 10 17 16 24 13 17 11 13 7 8 12 13 10 10 8 7 15 13 20 15 24 16 21 12 26 13 27 11 31 10 24 6 28 5 26 3 15 1h40l34-3 30-5 32-8 33-11 28-12 22-11 22-13 15-10 19-14 11-9 14-12 30-30 9-11 13-16 12-17 12-19 10-18 9-17 12-28 12-36 7-28 6-36 2-21 1-36-2-35-4-30-6-28-8-29-9-25-12-27-14-27-13-21-12-17-10-13-9-11-11-12-7-8-15-15-8-7v-4l3-5 4 1 7 7 8 7 14 14 7 8 13 15 15 20 16 24 14 24 12 24 11 27 10 30 8 32 5 29 3 30v56l-3 30-5 29-6 25-8 26-8 22-13 29-14 26-12 19-11 16-10 13-9 11-12 14-30 30-11 9-12 10-18 13-15 10-20 12-23 12-24 11-28 10-23 7-26 6-30 5-36 3h-36l-27-2-29-4-28-6-29-8-25-9-23-10-16-8-19-10-19-12-16-11-17-13-13-11-20-18-12-12-7-8-13-15-15-20-18-27-12-21-13-26-11-27-11-34-7-30-5-31-2-20-1-18v-29l2-30 4-29 6-28 7-26 11-31 13-29 11-21 12-20 13-19 9-12 8-10 11-13 12-13 20-20z" fill="#F8F8F8"/>
<path transform="translate(515,689)" d="m0 0 5 2 2 2 3 13 6 9 8 4v21l2 14v282l-7-6-12-14-13-18-9-15-12-23-8-20-8-26-5-25-2-16-1-16v-19l2-25 4-24 7-26 8-21 12-25 8-14 8-12z" fill="#CD0E2D"/>
<path transform="translate(959,689)" d="m0 0 3 1 11 17 12 22 9 21 8 24 6 27 3 25v43l-3 24-5 24-10 30-8 18-12 23-10 15-12 16-13 15-3 2-1-280 2-11 1-26 8-5 6-9 3-13z" fill="#CD0E2D"/>
<path transform="translate(577,750)" d="m0 0h1l1 45 4 17 7 16 7 12v241l-5-2-15-10-14-11-10-9-8-7-4-4v-280l2 2 4 9 6 11 4-2 9-9 7-11z" fill="#FEFEFE"/>
<path transform="translate(898,751)" d="m0 0 3 4 6 11 14 14 2 1 2-6 8-16 2-2v280l-16 16-11 9-19 14-8 5h-2v-242l6-10 7-15 4-15 1-7z" fill="#FDFDFD"/>
<path transform="translate(969,653)" d="m0 0 5 5 14 19 13 21 12 23 10 25 8 26 6 29 2 16 1 14v33l-3 29-5 26-8 27-10 25-8 17-13 22-11 16-11 14-9 10-7 8-12 12-8 7-15 12-17 12-22 13-27 13-28 10-28 7-26 4-10 1h-48l-25-3-25-5-26-8-25-10-16-8-18-10-12-8-19-14-10-9-8-7-18-18-9-11-13-17-11-17-9-16-12-25-10-28-7-28-4-27-1-11v-44l3-26 5-24 6-21 8-22 11-24 12-21 11-16 10-13 3-4 2 1-1 16-9 12-13 21-9 17-10 24-7 21-6 25-4 27-1 13v33l2 21 4 24 7 26 7 20 9 20 11 21 16 24 13 16 9 10 10 11 8 7 10 9 16 12 17 11 16 9 23 11 25 9 21 6 28 5 20 2h37l28-3 24-5 24-7 21-8 25-12 20-12 18-13 13-11 10-9 17-17 9-11 12-16 12-19 10-18 10-23 10-30 5-22 3-19 2-27v-17l-2-27-4-25-8-30-10-26-12-25-11-18-12-17-1-1z" fill="#F8F8F8"/>
<path transform="translate(724,561)" d="m0 0h28l17 4 14 6 10 7 11 11 6 12 2 10-1 12-4 10-6 9-8 8-13 8-12 5-12 3-7 1h-22l-16-3-13-5-11-6-10-9-7-8-5-11-1-5v-13l4-12 8-11 10-9 15-8 17-5z" fill="#3FAD2B"/>
<path transform="translate(821,896)" d="m0 0h1v212l-21 6-20 4-7 1h-8v-190l16-9 21-12z" fill="#FEFEFE"/>
<path transform="translate(654,896)" d="m0 0 11 7 20 12 22 12 2 1v191l-14-1-24-5-17-5z" fill="#FEFEFE"/>
<path transform="translate(709,929)" d="m0 0 6 2 17 8 6 2 28-12v190l-1 1-14 1h-27l-13-1-2-1z" fill="#CD0E2D"/>
<path transform="translate(943,349)" d="m0 0h11l14 3 10 4 10 7 9 9 9 14 5 12 3 15v19l-4 20-6 16-8 14h-4l-18-12 6-7 7-9 6-14 2-11-1-20-4-11-6-9-7-7-10-6-15-6-12-4 5 22-1 8-4 7-8 5h-13l-6-4-6-7-3-9v-11l5-10 9-9 14-7z" fill="#FBFBFB"/>
<path transform="translate(521,349)" d="m0 0h11l15 3 10 6 9 8 5 9 1 4v7l-4 12-6 7-6 3h-13l-8-6-4-8v-9l4-19-20 7-14 7-10 9-6 10-4 13v21l4 13 5 10 9 11 2 4-16 10-2 2h-3l-8-14-7-19-3-14v-27l4-15 7-14 7-9 6-7 10-7 11-5z" fill="#FBFBFB"/>
<path transform="translate(830,683)" d="m0 0h3l1 10-3 7-4 7-1 8 3 15v17l-4 12v9l-3 8 1 11-7 8-11 11h-18l2-4 1-1 11-2 3-2 2-12-5-6-1-5-12 3-9 7-2 1h-7l-23-15v-7l5 1 13 10 6 1 16-10v-3l-7-6-3-5-1-5-10-1-6-8-7-6-6-2v-12l4 1 11 12 3 3h7l2-1-6-2-12-14-9-5v-14l4 1 8 13 6 7 7 4h6l-1-5-5-5 2-4 6 1 2-1v-6l-5-1-6 3-3-6v-2l27-11 6-1 5 8 6 4 2 4v8l-1 4 1 4-1 4v2l-2 1-1 3-5 5h-3l6 12 7 8 4 1 3-11v-32l3-11v-9z" fill="#FCBE29"/>
<path transform="translate(643,683)" d="m0 0 5 2 3 4v11l2 6 1 12-1 17 3 14 1 2 5-1 7-9 5-10-5-1v-3l-4-1-2-4v-5l-1-3 1-5-1-1v-9l5-6 5-2 2-6 4-1 28 11 2 2-3 7-6-3h-5l-1 5 2 3 7-1 1 5-5 5-1 5 9-2 8-7 6-8 6-10h3v15l-8 4-7 7-7 9-5 1 2 1h7l15-16h3v11l-11 6-9 11h-10l-1 7-6 8-5 4 18 11 6-1 14-11h4v6l-11 8-12 8h-7l-6-4-5-4-6-2-7-1v5l-4 5h-2l3 13 6 3 9 2 2 4h-18l-19-19 1-7 1-3-3-7v-11l-4-10v-21l2-8v-11l-3-8-4-6v-10z" fill="#FCBF29"/>
<path transform="translate(737,309)" d="m0 0 5 2 10 7 17 8 16 5 18 3v20l-3 6h-25l-18 4-20 7-15-6-15-4-6-1h-26l-2-5-1-6v-15l18-3 17-5 16-8 11-7z" fill="#AFB1B1"/>
<path transform="translate(739,131)" d="m0 0 9 1 12 4 10 6 6 8 2 7v28l-2 10-4 6-7 6-16 5-71 20h-4l2-9 7-13 9-10 10-9 16-10 18-8h3z" fill="#F6F6F6"/>
<path transform="translate(690,427)" d="m0 0 8 1 12 5 14 8 13 9 5-2 11-8 19-10 8-3h6l10 9 6 7 5 11-1 3-23 11-21 7-14 3h-20l-18-4-17-6-20-9-4-2 1-7 6-10 7-8z" fill="#AFB1B1"/>
<path transform="translate(782,203)" d="m0 0 9 2 11 6 10 8 7 10 4 11v7l-16 4-12 5-11 8-8 9-1 2-5-1-15-5-14-2 1-8 7-16 8-14 9-11 7-8z" fill="#AFB1B1"/>
<path transform="translate(491,1081)" d="m0 0 11 1 12 6 8 9 4 11v11l-4 10-5 6-10 6-4 1h-13l-9-4-8-6-6-9-2-7v-11l3-8 4-6 7-6 7-3z" fill="#F8F9F9"/>
<path transform="translate(738,1177)" d="m0 0h15l9 4 7 5 5 8 2 7v10l-4 11-6 7-12 6-13 1-11-3-9-7-6-10-1-4v-11l4-11 4-5 9-6z" fill="#F8F8F8"/>
<path transform="translate(653,470)" d="m0 0h16l13 4 15 6 21 6 16 3h8l24-5 21-7 14-6 6-1h16l10 3v2l-82 33-12 5-9-3-35-14-52-21v-2z" fill="#AFB1B1"/>
<path transform="translate(998,1060)" d="m0 0h10l10 4 8 7 5 9 1 5v8l-3 9-6 9-7 7-7 8-4 1-8-8-8-7-15-14-10-9 6-8 8-8 4-5 9-6z" fill="#F9F9F9"/>
<path transform="translate(991,746)" d="m0 0 2 1 9 27 6 27 3 25v43l-3 24-5 24-10 30-2 2z" fill="#F6F7F7"/>
<path transform="translate(415,925)" d="m0 0h2l8 24 1 5v9l-3 9-6 8-10 6-4 1h-13l-9-4-6-5-6-10-7-22v-4z" fill="#F8F8F8"/>
<path transform="translate(731,670)" d="m0 0h14l1 111 5 16 8 18 1 3-12 6-4 1h-12l-11-4-5-3 2-6 8-18 4-14z" fill="#CD0E2D"/>
<path transform="translate(483,747)" d="m0 0h1v201l-2-2-9-28-6-29-2-16-1-16v-19l2-25 4-24 7-26z" fill="#FCFCFC"/>
<path transform="translate(729,279)" d="m0 0h18l14 3 16 8 10 9 8 10 5 11v1l-12-1-16-5-16-8-11-7-7-5-9 6-11 7-17 8-13 4-12 1 3-9 7-10 5-6 11-8 10-5 10-3z" fill="#AFB1B1"/>
<path transform="translate(391,844)" d="m0 0h17l1 7 1 21-2 10-3 5-5 3h-10l-5-3-2-3-6 8-5 2h-8l-6-3-5-7-2-9-1-28 4-1z" fill="#F8F9F9"/>
<path transform="translate(680,369)" d="m0 0h14l17 3 14 5 11 7h4l9-6 12-5 13-3 8-1h13l-2 5-8 10-12 9-16 8-14 4-6 1-15-4-12-5-12-7-12-11-6-9z" fill="#AFB1B1"/>
<path transform="translate(544,1115)" d="m0 0 11 6 15 10 6 7 2 6-1 10-6 9-6 4-10 1v22l-10-5-1-1v-20l-10-6-3 1-7 11-4-1-6-4 2-5 16-26z" fill="#F9F9F9"/>
<path transform="translate(1107,733)" d="m0 0h2l3 12-13 13 1 9 1 6 16-4 3 9-1 3-55 13-3-9-4-17v-12l4-8 7-5 4-1h12l9 6 10-10z" fill="#F9F9F9"/>
<path transform="translate(769,166)" d="m0 0h2v23l-4 8-9 6-71 20-3-1 5-9 9-10 9-8 17-10 15-6 19-7z" fill="#CD0E2D"/>
<path transform="translate(462,1030)" d="m0 0 5 5 13 17 3 7v11l-4 6-7 6-5 2h-10l-9-5-11-14-9 6-5 3-6-8 1-3 19-14 18-14z" fill="#FAFAFA"/>
<path transform="translate(940,1107)" d="m0 0 16 8 24 14 16 9-5 5-4 3-5-2-5-3-5 1-16 12-3 1 3 14-9 7-2-2-14-60z" fill="#F8F9F9"/>
<path transform="translate(1117,912)" d="m0 0h4l-2 11-4 2-10 1-2 11-4 17 4 2 6 4-2 11-2 1-13-10-18-14-13-10-5-4 2-11 5-2z" fill="#F8F8F8"/>
<path transform="translate(1020,1018)" d="m0 0 17 2 45 7-2 5-4 6-13-1-14 22 7 12-6 9-5-5-23-34-8-12 2-6z" fill="#F9F9F9"/>
<path transform="translate(1122,795)" d="m0 0h1l1 12-6 4-5 2v28l10 3 3 2v11l-10-3-48-18-1-1-1-12z" fill="#F8F8F8"/>
<path transform="translate(1080,664)" d="m0 0 2 2 3 7-1 4-6 7 1 6 8 18v2h14l4 9v2h-63l-5-10 6-8 11-11 7-8 16-17z" fill="#FAFAFA"/>
<path transform="translate(435,984)" d="m0 0h3l14 27 5 10-8 5-3-3-12-23-12 4 12 24-1 3-6 3-3-1-11-21v-2l-12 6 8 16 6 11v2l-7 4-3-1-18-34-1-4 23-12 22-12z" fill="#F8F8F8"/>
<path transform="translate(841,1161)" d="m0 0 11 1 5 2-1 6-2 4-6-1h-11l-8 4-4 5-2 4v10l4 8 6 4 3 1h10l8-4 2-2-1-7-2-9 10-2 6 19-2 5-9 7-9 4-4 1h-11l-9-3-10-9-4-8-1-4v-11l4-10 6-7 8-5 6-2z" fill="#F8F8F8"/>
<path transform="translate(907,1131)" d="m0 0h3l16 31 2 8-1 10-5 8-8 6-7 3-10 1-9-3-6-5-13-24-5-10 1-4 9-4 17 33 5 4 7 1 7-3 4-4 1-2v-8l-16-32v-2z" fill="#F8F8F8"/>
<path transform="translate(374,777)" d="m0 0 14 1 24 3 2 1-1 11-15-1-16-2h-9l-5 3-3 4-1 3v7l3 6 6 3 36 5v8l-1 4-35-4-11-4-7-8-2-5v-15l4-10 5-5 4-3z" fill="#F8F8F8"/>
<path transform="translate(405,671)" d="m0 0h13l8 3 7 5 5 7 3 10-1 13-5 10-4 5-9 6h-3l-4-8v-2l9-5 4-7 1-3v-8l-4-8-8-5h-12l-7 4-5 10v13l-9 3-2-4v-17l5-10 4-5 10-6z" fill="#F9F9F9"/>
<path transform="translate(751,218)" d="m0 0 3 1-7 10-8 16-6 16-2 6-14 3-10 3-1-1v-15l3-18 3-8 10-4z" fill="#AFB1B1"/>
<path transform="translate(656,1168)" d="m0 0 12 2 3 12 6 30 1 3 14-24 8-14 1-1 12 1-2 5-19 32-10 16-5 1-8-2-7-30-6-28z" fill="#F8F8F8"/>
<path transform="translate(699,404)" d="m0 0 4 1 13 6 16 4h11l16-4 12-5 3-2 4 1 3 4v7l-9 4-22 10-11 7-5-2-23-12-16-6-1-1 1-7z" fill="#AFB1B1"/>
<path transform="translate(662,332)" d="m0 0h1v14l2 13 4 12 7 13 9 11 4 3-2 5-1 2-17 3-11 1-1-14-3-12-6-12-1-4 6-7 4-9 3-15z" fill="#F9F9F9"/>
<path transform="translate(813,335)" d="m0 0h2l5 20 6 10 3 4-6 10-4 13-2 17-17-2-10-2-3-4 1-4 8-8 9-14 5-13 2-10z" fill="#F9F9F9"/>
<path transform="translate(490,1093)" d="m0 0h11l8 5 4 5 2 7-1 8-5 8-6 4-4 1h-7l-7-3-5-4-4-10 1-9 4-6 6-5z" fill="#002856"/>
<path transform="translate(741,1187)" d="m0 0h8l8 4 6 7 1 3v10l-4 8-7 5-3 1h-10l-6-3-7-8-1-3v-10l5-8 5-4z" fill="#002856"/>
<path transform="translate(1067,863)" d="m0 0 27 2 17 2 8 4 4 6 1 3v10l-5 10-5 4-4-2-4-3 2-4 4-7-1-7-4-2-31-3v9l-1 10h-10l-1-4z" fill="#F7F7F7"/>
<path transform="translate(588,1143)" d="m0 0 6 1 38 16-1 5-2 5-5-1-13-5-3 10-14 33-5-1-6-3 1-5 16-38-2-2-12-5-1-4z" fill="#F8F8F8"/>
<path transform="translate(1e3 1071)" d="m0 0 10 2 8 7 3 8-1 9-4 6-8 9-4-2-17-16-7-6 2-4 7-8 4-3z" fill="#002856"/>
<path transform="translate(409,939)" d="m0 0h2l4 13v10l-3 6-6 5-9 3-10-2-5-4-4-8-3-9v-3z" fill="#002856"/>
<path transform="translate(1092,977)" d="m0 0 10 3-1 6-12 28-6-1-46-20-2-1 1-5 3-6 9 3 32 14h3z" fill="#F8F8F8"/>
<path transform="translate(370,725)" d="m0 0 12 3 44 13-2 9-1 2-7-1-38-11-3 8-4 14-3 1-8-3 4-16z" fill="#F8F8F8"/>
<path transform="translate(816,256)" d="m0 0h7l-1 8-6 12-10 11-8 6-4-1-12-12 8-10 11-8 8-4z" fill="#AFB1B1"/>
<path transform="translate(639,1162)" d="m0 0 11 3-2 10-13 44-1 2-9-2-2-1 2-9 13-45z" fill="#F8F8F8"/>
<path transform="translate(842,788)" d="m0 0h10l5 7 4-5 2-2h10l-2 4-7 10 1 4 8 11v2h-11l-4-6v-2h-2l-2 5-2 3h-11l2-4 8-11-7-11-2-2z" fill="#CD0E2D"/>
<path transform="translate(848,495)" d="m0 0h11l4 6v2l4-4 3-4h10l-2 4-7 10 1 4 8 11v2h-11l-4-6v-2l-3 3-3 5h-11l2-4 7-10-1-4-8-11z" fill="#CD0E2D"/>
<path transform="translate(596,642)" d="m0 0h11l4 7 4-5 1-2h12l-6 9-4 5 2 4 8 11v2h-10l-4-5-2-3-6 8h-10l1-4 8-11-2-5-7-10z" fill="#CD0E2D"/>
<path transform="translate(596,495)" d="m0 0h10l5 7 4-4 2-3h11l-4 7-6 9 10 14v1h-11l-4-6v-2l-3 3-3 5h-12l6-9 4-5-1-4-8-11z" fill="#CD0E2D"/>
<path transform="translate(848,642)" d="m0 0h11l5 7 5-7h11l-7 11-2 2 1 5 8 11v2h-10l-4-5-2-3-6 8h-10l2-5 7-9-1-5-8-11z" fill="#CD0E2D"/>
<path transform="translate(603,788)" d="m0 0h10l5 7 4-5 2-2h10l-2 5-7 10 7 11 3 5h-11l-5-8-6 8h-11l7-11 3-4-2-4-7-10z" fill="#CD0E2D"/>
<path transform="translate(722,878)" d="m0 0h11l5 7 5-7h10l-2 4-7 11 10 14v1h-12l-4-7-5 7h-11l4-7 6-9-10-13z" fill="#CD0E2D"/>
<path transform="translate(548,1130)" d="m0 0 5 2 10 7 3 4 1 4-3 7-4 3h-7l-14-8v-4z" fill="#002856"/>
<path transform="translate(1074,753)" d="m0 0h8l5 6 4 16-9 3-11 2-3-9-1-11 3-5z" fill="#002856"/>
<path transform="translate(461,1045)" d="m0 0 5 5 5 7 1 3v7l-5 5-2 1h-7l-6-5-7-10 4-4z" fill="#002856"/>
<path transform="translate(746,139)" d="m0 0 10 3 9 5 4 4-1 5-10 7-12 5z" fill="#CD0E2D"/>
<path transform="translate(667,427)" d="m0 0h7l-6 7-3 4-30 7h-3l2-5 3-6 5-2z" fill="#F5F5F5"/>
<path transform="translate(802,427)" d="m0 0 12 1 24 5 6 12-11-2-23-5-7-9z" fill="#F5F5F5"/>
<path transform="translate(366,857)" d="m0 0h9l1 3v17l-5 5-6-1-3-4-1-4v-15z" fill="#002856"/>
<path transform="translate(385,856)" d="m0 0h14v19l-3 3-5 1-5-5z" fill="#002856"/>
<path transform="translate(577,626)" d="m0 0h1v44l-2-2-8-26-2-5 1-4z" fill="#EDEDED"/>
<path transform="translate(576,592)" d="m0 0h2v11l-16 12-4 2-4-10 18-13z" fill="#F5F5F5"/>
<path transform="translate(898,591)" d="m0 0 11 7 11 8 1 4-4 7-9-6-10-7z" fill="#F8F8F8"/>
<path transform="translate(898,626)" d="m0 0 12 8-3 10-8 26h-1z" fill="#F8F8F8"/>
<path transform="translate(1068,693)" d="m0 0 3 4 5 11v3h-24l6-8z" fill="#002856"/>
<path transform="translate(1028,1030)" d="m0 0 14 2 10 2-6 11-3 5-3-1-12-18z" fill="#002856"/>
<path transform="translate(1101,818)" d="m0 0h1l1 9v10l-10-3-12-4-1-2z" fill="#002856"/>
<path transform="translate(1088,928)" d="m0 0h6l-1 7-3 11-7-4-13-10v-1z" fill="#002856"/>
<path transform="translate(944,1122)" d="m0 0 5 2 16 9-5 5-9 7-2-1-5-19z" fill="#002856"/>
<path transform="translate(967,489)" d="m0 0 9 5 8 6-4 8-4-1-11-8z" fill="#F6F6F6"/>
<path transform="translate(507,489)" d="m0 0 2 1 2 9-13 9-3-1-3-5 2-4z" fill="#F6F6F6"/>
<path transform="translate(609,441)" d="m0 0 6 1 6 5-1 2-16 5-3-1 6-11z" fill="#F2F2F2"/>
<path transform="translate(862,441)" d="m0 0 6 1 6 10v2l-9-2-10-4 5-5z" fill="#F2F2F2"/>
</svg>
