<?xml version="1.0" encoding="UTF-8"?>
<svg version="1.1" viewBox="260 270 950 950" width="1280" height="1280" xmlns="http://www.w3.org/2000/svg">
<path transform="translate(722,292)" d="m0 0h51l33 3 36 6 26 6 29 9 22 8 23 10 19 9 23 13 24 15 28 21 13 11 8 7 10 9 24 24 7 8 11 13 15 20 13 19 13 21 15 28 12 27 10 27 9 29 6 26 6 36 3 33v51l-3 33-6 36-6 25-8 27-9 25-11 25-14 28-15 25-13 19-12 16-13 16-10 11-7 8-23 23-8 7-13 11-13 10-18 13-22 14-21 12-26 13-24 10-28 10-29 8-28 6-35 5-26 2h-45l-35-3-36-6-26-6-30-9-29-11-26-12-25-13-23-14-20-14-13-10-11-9-13-11-16-15-14-14-7-8-13-15-13-17-13-18-12-19-14-25-14-29-11-28-9-27-8-32-5-27-3-23-2-26v-45l3-35 6-37 9-36 11-33 10-24 12-25 10-19 15-24 12-17 12-16 12-14 7-8 11-12 20-20 8-7 13-11 17-13 17-12 19-12 21-12 28-14 27-11 36-12 28-7 27-5 33-4z" fill="#172341"/>
<path transform="translate(722,292)" d="m0 0h51l33 3 36 6 26 6 29 9 22 8 23 10 19 9 23 13 24 15 28 21 13 11 8 7 10 9 24 24 7 8 11 13 15 20 13 19 13 21 15 28 12 27 10 27 9 29 6 26 6 36 3 33v51l-3 33-6 36-6 25-8 27-9 25-11 25-14 28-15 25-13 19-12 16-13 16-10 11-7 8-23 23-8 7-13 11-13 10-18 13-22 14-21 12-26 13-24 10-28 10-29 8-28 6-35 5-26 2h-45l-35-3-36-6-26-6-30-9-29-11-26-12-25-13-23-14-20-14-13-10-11-9-13-11-16-15-14-14-7-8-13-15-13-17-13-18-12-19-14-25-14-29-11-28-9-27-8-32-5-27-3-23-2-26v-45l3-35 6-37 9-36 11-33 10-24 12-25 10-19 15-24 12-17 12-16 12-14 7-8 11-12 20-20 8-7 13-11 17-13 17-12 19-12 21-12 28-14 27-11 36-12 28-7 27-5 33-4zm4 31-34 3-35 6-28 7-36 12-26 11-28 14-25 15-16 11-16 12-11 9-14 12-17 16-16 17-9 11-10 12-13 18-10 15-13 22-13 25-12 28-12 36-8 32-5 29-3 29-1 32 1 28 4 36 7 36 8 28 9 26 11 26 12 24 13 22 14 21 12 16 13 16 11 12 9 10 13 13 8 7 15 13 13 10 18 13 21 13 16 9 19 10 28 12 28 10 29 8 30 6 32 4 14 1h49l32-3 30-5 26-6 29-9 26-10 26-12 19-10 23-14 20-14 13-10 13-11 8-7 12-11 16-16 7-8 12-14 15-20 9-13 12-19 12-22 14-29 11-29 8-26 7-30 5-31 2-21 1-19v-25l-2-32-5-35-7-31-9-30-10-26-9-20-11-22-15-25-11-16-12-16-13-16-11-12-9-10-12-12-8-7-10-9-14-11-16-12-23-15-21-12-17-9-25-11-28-10-23-7-26-6-30-5-33-3z" fill="#EDE99D"/>
<path transform="translate(735,356)" d="m0 0h25l30 2 28 4 28 6 27 8 27 10 24 11 21 11 21 13 17 12 13 10 13 11 9 8-2 4-65 65-7-1-25-9-26-8-2-7-4-10-3-3-2-7-3-3-4-14h-11l-2-1v-13l-2-6-8-3-4-3h-6l-4 1-2 5-6 12v14l-1 6 2 4 6 4 7 6 10 3 5 1 3 5 2 9 3 5 2 5-1 9-2 5h-2l-2 6-3 2h-10l-3 3v5l1 3 9 1 4 2 8 20 4 5 3 2h3l-1-9 4 4h4l1-2v-8l-4-18 1-5 2 1 5 13 4-1 7-8 11 3 25 9 7 18 9 27 4 16-15 15-11 14-10 14-14 24-10 21-9 24-7 22-6 24-6 32-4 36-2 42h82v-14l1-22h17l-2 12-8 30-11 33-5 12-30 11-30 9h-4l2-4 14-11 4-5 1-6-8-11-22-11-7-7-6-5-2-4-1-13-4-8-12-12-6-10-4-7-3-2-13-3-19-10-13-4-7-1-5 3-5-1-2-3 1-8 5-7-1-8-3-2-7-2v-8l6-9v-5l-3-2-5 1-5 5-9 2-6-3-3-15 1-10 5-13 4-3 7 1 5 3 5-2 8 1 12 6 1 5v8l3 7h4l2-11v-13l5-5 14-8 4-6 2-7 10-11 3-2 7-2 7-6 7-3h4l1 6h6l8-6 7-2 1-3-9-7-1-1v-7l5-6 23-3 4-1 1-2v-9l-4-13-4-7-2-8-2-26v-2l-5 2-4 5-5 1-2-3-3-19-5-11-10-5-1-2-5 1-4 18-3 9v14l-3 6-8 7-2 6-1 8-3 4h-2l-1-2-1-14-1-7-7-9-9-10-4-4-4-3v-10l-1-9 4-11 6-8 14-11 8-7 4-9 1-6 1-27h-6l-2-5v-31l4-6 8-6 4-5 1-7-5-4-7-2-5 3-2 5-2 12-9 22-1 6v7l-12 6v5l-1 1h-10l-6-5-5-10h-8l-4 8-5-2-9-4v-8l-7-6-8-7-5-5-5-3-3-4v-2l-4-1v-2l-7-2h-9l-16 4-6-1-8-6-7-7-4-7-8-4-13-4-6-8-7-6-10-1-9 2-9 5-5 6-10 3 1 8 8 19v2l-5-2-7-4-6 1-2 4v9l4 5 12 3-2 6-2 2-13 3-2 7v12l5 5 2 7-8 4-1 4h6l13-6 10-5h2l2-7 5-4 2 1-1 7 6-1 8-3 3-4h3l5 7 1 8-36 10-35 12-5 2-4-1-67-67 5-6 11-9 16-13 20-14 20-12 22-12 24-11 30-11 25-7 27-6 29-4z" fill="#EDE99D"/>
<path transform="translate(640,540)" d="m0 0h5l6 6-1 14v11l3 9v16l6 11 1 1v7l-9 30-1 5v12l5 29 6 9 5 17v7h-3l3 6 3 4v10l4 9v2h5l-3-14-3-21-2-9 3-4 6 2 2 21 3 8 1 3 1 6 5 11 1 4v9l-1 8 6 9 4 5 10 8 9 6 11-1 11 12 6 9 5 12 1 3 5 1 6-2 1 3v10l-3 7-11 9-5 5-3 6v13l1 5 1 19 4 13 7 10 6 8v7l-9 25-1 1h-20l-32-2-31-4-31-6-28-7-40-13-13-5-9-24-8-25v-3l23-6 20-8 14-8 12-9 10-9 12-12-2-4-11-12-8-8-7-8-9-9-7-8-10-10v-2l-5 5-9 10-10 7-11 5-11 3-15 1-16-3-14-7-12-11-7-10-5-12-2-11v-11l4-16 6-12 11-12 11-7 9-4 8-2h20l13 3 14 7 11 9 8 11 7-6 16-17 14-15 12-13 7-8-4-6-14-14-15-11-14-8-16-7-16-5-10-2 2-10 9-26 4-9 8-4 36-12 29-8z" fill="#EDE99D"/>
<path transform="translate(545,979)" d="m0 0 5 1 31 11 35 10 31 7 31 5 28 3 32 2-2 5-7 17-2 13-6 7-2 5-2 8-6 10-3 12 1 12 4 11 4 6 4 4 3 1h9l1-4-5-14 1-9 6-9 5-5 6-3-1-7-1-5 4-6 11-10 8-4 1-1 11-1 5-3 6-9 10-5 16-15 5-6 21-4 36-8 35-10 34-12 4 2 9 9 8 7 49 49-2 4-12 11-14 11-19 14-21 13-18 10-29 14-24 9-18 6-32 8-29 5-19 2-16 1h-35l-26-2-28-4-27-6-24-7-28-10-24-11-25-13-19-12-20-14-16-13-11-9-5-6z" fill="#EDE99D"/>
<path transform="translate(1042,488)" d="m0 0 4 2 12 14 15 20 12 18 9 15 13 24 11 25 9 25 8 27 6 29 4 29 1 12v54l-3 29-5 28-7 28-9 27-10 24-12 25-11 19-16 24-9 12-8 10-11 13-3 2-69-69 1-5 12-36 9-32 5-23h15l1 14v22h82l-1-29-3-35-5-32-6-27-7-25-9-25-9-20-11-21-11-17-9-12-11-13-17-17-8-7-10-33-8-22 1-4 43-43 8-7z" fill="#EDE99D"/>
<path transform="translate(452,487)" d="m0 0 4 2 15 16 51 51-1 6-12 35-4 13-17 3-20 6-19 9-12 8-11 9-10 9-11 14-9 14-9 19-5 16-3 16-1 11v15l2 18 5 19 6 16 10 18 10 13 11 12 13 11 16 10 19 9 21 6 12 2 9 29 10 29-1 4-24 24-7 8-36 36-4-2-13-15-15-20-12-18-9-15-12-22-12-27-10-28-7-25-6-28-4-31-1-13v-48l3-30 5-29 7-28 10-30 11-26 13-26 12-20 13-19 13-17 11-13z" fill="#EDE99D"/>
<path transform="translate(980,625)" d="m0 0 8 6 10 9 10 10 9 11 10 14 11 18 8 16 7 15 9 25 8 27 7 34 4 30 2 25v14h-52l-3-36h-95l-2 35-1 1h-51l-1-1 1-25 3-29 6-34 7-28 10-30 10-23 12-23 12-18 11-14 12-13 7-7z" fill="#D33440"/>
<path transform="translate(506,624)" d="m0 0h28l20 4 15 5 16 8 12 8 13 11 3 4-10 10-7 8-16 17-3 3-4-2-11-9-15-8-16-4h-22l-15 4-14 7-10 8-7 7-7 11-5 11-3 11-1 8v12l3 15 5 13 8 12 12 12 14 8 10 4 8 2 9 1h9l16-3 13-5 11-7 10-9 4 2 7 8 9 9 7 8 10 10-1 4-7 7-15 11-19 10-18 6-16 3h-32l-19-4-19-7-16-9-12-9-12-11-11-14-8-13-7-15-5-17-2-11-1-11v-13l3-22 5-16 7-16 9-14 8-10 14-14 14-10 19-10 18-6z" fill="#D33440"/>
<path transform="translate(980,703)" d="m0 0 4 4 12 21 9 19 9 25 4 14v3h-75l2-10 8-24 11-25 10-18z" fill="#172341"/>
<path transform="translate(727,385)" d="m0 0h9l5 4 1 2 7 3 3 4 1 6v4l3 1 2 6 5 3 1 5h3l1-3 4 4v3h2v-7l2-3 4-1 2-3 5 1 1 4-4 5-1 3-1 25 6 9-1 4h-4l1 6-2 2h-6l-5-4-3-3-6 2h-13l-3-2-1-8-5-2-3-5 1-5 13 1v-4l-11-3-3-3 2-6-2-4v-7l-4 1-3 5-9 1-3-9-2-3 1-5 7-11 2-3v-8z" fill="#182341"/>
<path transform="translate(980,732)" d="m0 0 4 5 10 23 4 11v3h-35l3-11 9-21z" fill="#EDE99D"/>
</svg>
