<?xml version="1.0" encoding="UTF-8"?>
<svg version="1.1" viewBox="250 215 1010 1010" width="1280" height="1280" xmlns="http://www.w3.org/2000/svg">
<path transform="translate(754,222)" d="m0 0h21l35 2 32 4 31 6 31 8 33 11 27 11 29 14 20 11 21 13 16 11 12 9 14 11 13 11 12 11 13 12 7 7 7 8 12 13 11 14 12 15 22 33 11 19 12 23 10 21 11 28 11 34 9 38 5 30 3 29 1 18v38l-2 30-4 30-6 31-8 31-10 30-11 27-13 28-13 23-12 20-14 20-13 17-9 11-12 14-15 16-14 14-8 7-10 9-14 11-18 14-24 16-15 9-18 10-16 8-19 9-28 11-34 11-28 7-33 6-36 4-18 1h-37l-30-2-31-4-31-6-34-9-32-11-24-10-25-12-19-10-23-14-19-13-12-9-14-11-14-12-10-9-16-15-12-13-11-12-9-11-14-18-14-20-13-21-14-25-14-29-11-28-10-30-10-40-6-36-3-31-1-24v-18l2-36 4-32 7-36 8-30 12-35 11-26 12-25 13-23 12-19 11-16 9-12 11-14 12-14 12-13 26-26 8-7 13-11 13-10 18-13 15-10 15-9 16-9 23-12 28-12 25-9 25-8 29-7 26-5 32-4z" fill="#fff"/>
<path transform="translate(754,222)" d="m0 0h21l35 2 32 4 31 6 31 8 33 11 27 11 29 14 20 11 21 13 16 11 12 9 14 11 13 11 12 11 13 12 7 7 7 8 12 13 11 14 12 15 22 33 11 19 12 23 10 21 11 28 11 34 9 38 5 30 3 29 1 18v38l-2 30-4 30-6 31-8 31-10 30-11 27-13 28-13 23-12 20-14 20-13 17-9 11-12 14-15 16-14 14-8 7-10 9-14 11-18 14-24 16-15 9-18 10-16 8-19 9-28 11-34 11-28 7-33 6-36 4-18 1h-37l-30-2-31-4-31-6-34-9-32-11-24-10-25-12-19-10-23-14-19-13-12-9-14-11-14-12-10-9-16-15-12-13-11-12-9-11-14-18-14-20-13-21-14-25-14-29-11-28-10-30-10-40-6-36-3-31-1-24v-18l2-36 4-32 7-36 8-30 12-35 11-26 12-25 13-23 12-19 11-16 9-12 11-14 12-14 12-13 26-26 8-7 13-11 13-10 18-13 15-10 15-9 16-9 23-12 28-12 25-9 25-8 29-7 26-5 32-4zm-6 130-25 2-32 5-28 7-30 10-23 10-16 8-20 11-15 10-14 10-16 13-11 10-8 7-12 12-7 8-12 14-14 19-13 20-10 18-8 16-10 23-10 30-7 28-5 32-2 26v31l2 25 5 32 8 32 10 29 13 29 12 22 12 19 14 19 9 11 9 10 7 8 17 17 8 7 17 14 20 14 21 13 27 14 27 11 24 8 28 7 23 4 30 3h42l30-3 28-5 30-8 28-10 24-11 21-11 21-13 19-14 11-9 14-12 24-24 9-11 10-12 13-18 11-18 10-18 12-25 10-27 7-24 6-27 4-30 1-13v-42l-3-30-5-28-8-30-9-25-11-25-12-23-12-19-12-17-13-16-9-10-7-8-17-17-8-7-16-13-18-13-21-13-22-12-27-12-36-12-30-7-27-4-25-2z" fill="#001F5F"/>
<path transform="translate(748,352)" d="m0 0h32l25 2 32 5 32 8 29 10 29 13 22 12 19 12 19 14 11 9 10 9 8 7 17 17 7 8 14 17 14 20 13 21 14 27 11 27 8 24 7 28 4 23 3 30v42l-3 30-5 28-8 30-10 28-11 24-11 21-13 21-14 19-9 11-12 14-24 24-11 9-12 10-18 13-18 11-18 10-25 12-27 10-24 7-27 6-30 4-13 1h-42l-30-3-27-5-24-6-27-9-26-11-27-14-19-12-17-12-16-13-10-9-8-7-17-17-7-8-13-16-13-18-13-21-12-22-12-27-12-36-7-30-4-27-2-25v-31l2-26 5-32 7-28 10-30 10-23 8-16 11-20 10-15 13-18 11-13 18-20 11-11 8-7 13-11 16-12 15-10 15-9 20-11 25-11 28-10 26-7 26-5 25-3zm-214 133v459l1 1h459v-460z" fill="#fff"/>
<path transform="translate(534,485)" d="m0 0h460v460h-459l-1-1zm216 40-22 3-20 5-19 7-16 8-12 7-14 10-14 12-10 10-9 11-12 17-12 23-9 25-5 24-1 8v39l4 24 6 20 6 15 11 21 12 17 11 13 13 13 14 11 15 10 21 11 22 8 22 5 16 2h33l21-3 22-6 16-6 23-12 16-11 13-11 17-17 12-16 8-13 9-17 9-25 5-23 2-20v-19l-3-26-5-20-7-19-8-16-8-14-9-12-9-11-16-16-17-13-13-8-17-9-21-8-20-5-23-3z" fill="#DC1C3E"/>
<path transform="translate(714,565)" d="m0 0h100l1 99 99 1v100h-100v99h-100v-99h-100v-100h100z" fill="#001F5F"/>
<path transform="translate(754,222)" d="m0 0h21l35 2 32 4 31 6 31 8 33 11 27 11 29 14 20 11 21 13 16 11 12 9 14 11 13 11 12 11 13 12 7 7 7 8 12 13 11 14 12 15 22 33 11 19 12 23 10 21 11 28 11 34 9 38 5 30 3 29 1 18v38l-2 30-4 30-6 31-8 31-10 30-11 27-13 28-13 23-12 20-14 20-13 17-9 11-12 14-15 16-14 14-8 7-10 9-14 11-18 14-24 16-15 9-18 10-16 8-19 9-28 11-34 11-28 7-33 6-36 4-18 1h-37l-30-2-31-4-31-6-34-9-32-11-24-10-25-12-19-10-23-14-19-13-12-9-14-11-14-12-10-9-16-15-12-13-11-12-9-11-14-18-14-20-13-21-14-25-14-29-11-28-10-30-10-40-6-36-3-31-1-24v-18l2-36 4-32 7-36 8-30 12-35 11-26 12-25 13-23 12-19 11-16 9-12 11-14 12-14 12-13 26-26 8-7 13-11 13-10 18-13 15-10 15-9 16-9 23-12 28-12 25-9 25-8 29-7 26-5 32-4zm-16 17-34 3-36 6-30 7-29 9-27 10-26 12-22 11-17 10-22 14-19 14-14 11-14 12-12 11-27 27-9 11-12 14-14 19-12 18-15 25-14 27-11 24-10 27-9 29-7 30-6 36-3 34v52l3 34 6 37 10 40 12 35 11 26 8 17 12 22 12 20 13 19 14 19 12 14 9 11 9 9 7 8 8 8 8 7 13 12 14 11 18 14 12 8 22 14 18 10 21 11 25 11 30 11 31 9 26 6 31 5 32 3h60l32-3 36-6 36-9 36-12 26-11 25-12 22-12 22-14 17-12 13-10 11-9 14-12 15-14 15-15 7-8 13-15 13-17 13-18 14-22 14-25 15-31 12-31 9-28 7-28 6-33 3-26 1-13v-62l-3-31-6-36-9-36-12-36-11-26-13-27-13-23-15-23-10-14-10-13-9-11-12-14-7-7-7-8-10-10-8-7-12-11-14-11-17-13-27-18-24-14-19-10-27-12-24-9-28-9-24-6-25-5-30-4-25-2z" fill="#fff"/>
<path transform="translate(1139,494)" d="m0 0h10l6 4 5 8 1 3v9l-4 6-10 6-16 9-6 2h-8l-6-4-5-8-1-3v-10l6-7 18-10z" fill="#fff"/>
<path transform="translate(636,288)" d="m0 0h10l7 6 8 25 2 11-3 6-5 4-21 7-2-2-15-49v-2z" fill="#fff"/>
<path transform="translate(500,358)" d="m0 0 8 1 7 8 1 2v7l8 2 7 8 2 5-1 8-7 8-13 10-3-1-10-13-21-27 1-4 14-11z" fill="#fff"/>
<path transform="translate(1092,415)" d="m0 0h3l9 11 6 9v9l-6 7-4 2h-8v8l-4 5-6 4-9 1-6-3-11-12-4-5 1-3 11-9 15-13z" fill="#fff"/>
<path transform="translate(544,1046)" d="m0 0 5 2 16 10 4 6v7l-4 8-4 4-6 1 2 6-8 16-1 5-4-1-9-5 1-5 6-11v-5l-4-2-10 17-6-2-6-4 2-5 15-25 10-16z" fill="#fff"/>
<path transform="translate(947,309)" d="m0 0 6 2 6 3-2 6-16 32 1 5 5-1 18-36 4-1 9 5-2 6-16 32-5 5-3 2h-10l-8-4-6-7-1-8 5-12 14-28z" fill="#fff"/>
<path transform="translate(990,1041)" d="m0 0 4 5 12 19 8 13 1 3v7l-4 6-6 5-8 3-7-1-8-7-15-24-6-9v-2l10-6h2l13 21 10 15 5-1v-5l-11-17-10-16v-3z" fill="#fff"/>
<path transform="translate(434,415)" d="m0 0 5 2 10 9 11 9 9 8 3 6-1 9-6 8-5 4-3 1h-7l-6-3-14-12-13-11-4-3 1-4 6-7 4 2 14 12 13 11 3 2h5v-5l-12-11-11-9-9-8 2-5z" fill="#fff"/>
<path transform="translate(614,1083)" d="m0 0 11 3 1 4-13 36 1 5h5l11-30 4-11 10 3 3 2-13 37-5 8-5 3h-9l-10-4-5-6-1-8 9-27 5-14z" fill="#fff"/>
<path transform="translate(840,1104)" d="m0 0 5 1 18 43 2 5v3l-9 2h-4l-3-10-10 2 1 3v7l-6 2-7 1v-27l1-29 6-2z" fill="#fff"/>
<path transform="translate(349,568)" d="m0 0 9 1 4 2-3 11-4 1h-7v5l10 4 19 6 4-1v-5l-9-4 1-7 2-6 9 2 7 5 2 5v10l-4 9-6 5h-11l-26-8-6-4-3-3-1-3v-10l5-10 5-4z" fill="#fff"/>
<path transform="translate(482 1e3)" d="m0 0 9 1 10 9 3 6-1 8-4 6-4 3-9-8 4-7v-4l-4-1-8 7-14 16v5l7-1 5-5 4 2 6 7-6 7-6 3h-7l-8-4-7-8-1-2v-8l4-7 14-15 4-5 6-4z" fill="#fff"/>
<path transform="translate(734,270)" d="m0 0h3l1 11-1 1-15 1v10l2-1 14-1 1 2v10l-15 1v11l9-1h9l1 11-27 3-4-1-5-51v-3z" fill="#fff"/>
<path transform="translate(689,1105)" d="m0 0 17 2 12 2-1 10-7 11-13 19 1 1 13 2 1 5-2 7-28-4-2-1 1-10 20-30-14-3z" fill="#fff"/>
<path transform="translate(921,1079)" d="m0 0 3 3 2 5v13l-2 25 13-5 3 1 3 9-11 5-16 6-3-1-3-9 2-29v-6l-11 4-3-1-3-9 11-5z" fill="#fff"/>
<path transform="translate(863,281)" d="m0 0 8 1 22 6-2 10-4 1-14-4-2 9 14 3 1 4-2 8-16-4-4 17-2 5-12-3 1-8z" fill="#fff"/>
<path transform="translate(1025,355)" d="m0 0 4 1 15 12 8 6-1 4-5 6-7-5-4 2-10 13-14 18-6-4-5-5 10-12 10-13 6-8-5-5-1-3z" fill="#fff"/>
<path transform="translate(373,501)" d="m0 0 5 2 26 14 5 3h3l6-11h3l7 4-1 5-12 21-14-7-23-13-11-6 2-6z" fill="#fff"/>
<path transform="translate(1034 1e3)" d="m0 0 3 1 7 8 9 9 7 8 4 4 4-2 7-7 4 2 4 5-2 4-10 10-7 6-4-2-11-11-7-8-9-9-7-8v-3z" fill="#fff"/>
<path transform="translate(1185,573)" d="m0 0 3 1 3 12-40 12v4l3 11-8 3h-3l-7-21-1-6 7-3z" fill="#fff"/>
<path transform="translate(949,948)" d="m0 0h9l2 6 1 4 2-5 1-5h9v25h-5l-1-12-3 12h-5l-3-11-1 11h-6z" fill="#001F5F"/>
<path transform="translate(977,948)" d="m0 0h14l2 2v11l1 12h-7l-1-9-3-1v10h-6z" fill="#0F2C68"/>
<path transform="translate(1145,506)" d="m0 0 4 1 1 5-5 4-22 12h-5l-2-2 1-5 14-8z" fill="#001F5F"/>
<path transform="translate(635,299)" d="m0 0 5 1 3 5 6 20v5l-4 3h-3l-9-30v-3z" fill="#001F5F"/>
<path transform="translate(510,388)" d="m0 0h6l4 5-1 5-3 3h-2l-7-9v-2z" fill="#001F5F"/>
<path transform="translate(550,1061)" d="m0 0 5 3 1 4-4 6-5 1-3-2 2-6z" fill="#001F5F"/>
<path transform="translate(1077,445)" d="m0 0 4 3v6l-5 4-5-1-3-4z" fill="#001F5F"/>
<path transform="translate(838,1118)" d="m0 0 2 2 6 18-7 2z" fill="#001F5F"/>
<path transform="translate(497,371)" d="m0 0 6 1 2 3-1 5-4 2-6-7 1-3z" fill="#001F5F"/>
<path transform="translate(1094,431)" d="m0 0 3 3 1 4-4 4h-5l-3-4z" fill="#001F5F"/>
</svg>
