<?xml version="1.0" encoding="utf-8"?>
<!-- Generator: Adobe Illustrator 24.3.0, SVG Export Plug-In . SVG Version: 6.00 Build 0)  -->
<svg version="1.1" id="Layer_1" xmlns="http://www.w3.org/2000/svg" xmlns:xlink="http://www.w3.org/1999/xlink" x="0px" y="0px"
	 viewBox="250 10 650 800" style="enable-background:new 0 0 1144 809.8;" xml:space="preserve">
<style type="text/css">
	.st0{clip-path:url(#SVGID_2_);}
	.st1{clip-path:url(#SVGID_4_);}
	.st2{fill:#FFFFFF;}
	.st3{fill:#EB0029;}
	.st4{fill:#2E2A25;}
</style>
<g id="DC-Logo">
	<g>
		<defs>
			<rect id="SVGID_1_" x="237.4" y="49.6" width="669.2" height="710.5"/>
		</defs>
		<clipPath id="SVGID_2_">
			<use xlink:href="#SVGID_1_"  style="overflow:visible;"/>
		</clipPath>
		<g class="st0">
			<g id="DC-Logo-2">
				<g>
					<defs>
						<rect id="SVGID_3_" x="237.4" y="49.6" width="669.2" height="710.5"/>
					</defs>
					<clipPath id="SVGID_4_">
						<use xlink:href="#SVGID_3_"  style="overflow:visible;"/>
					</clipPath>
					<g class="st1">
						<path class="st2" d="M906.5,183.1c-0.5,21.5-7.9,42.2-21.1,59.1c4,14.7,6,29.9,6,45.2c-0.1,47.1-22.1,72.1-27.7,80.6
							c4.8,31.2-1.2,61.2-13.1,84.7c-14.8,29-34.9,49-66.5,65c0,0-23.9,59.7-55.2,102.5c-66.9,91.7-144,135.6-157.4,140
							c-14.7-4.7-89.4-48-156.6-140c-31.2-42.8-55.2-102.5-55.2-102.5c-31.6-16-51.7-36-66.5-65c-11.9-23.5-17.9-53.5-13.1-84.7
							c-5.6-8.5-27.6-33.5-27.7-80.6c0-15.3,2-30.5,6-45.2c-13.2-16.9-20.5-37.7-21-59.1c-0.4-15.7,1.1-39.1,14.2-64.3
							c1.6-2.9,3.4-5.7,5.3-8.4c2.1,8,5.2,15.7,9.1,22.9c3.7,6.7,7.8,12.7,16.9,20.9c8.7,8,18.9,14,30.1,17.8L313,73.7
							c45.1-10,136.2-24.1,258.7-24.1s212.8,14.1,259.3,24l-0.1,98.3c11.2-3.7,21.5-9.8,30.1-17.8c9-8.2,13.1-14.2,16.9-20.9
							c3.9-7.3,7-15,9.1-22.9c2,2.7,3.7,5.5,5.3,8.4C905.5,143.9,907,167.3,906.5,183.1"/>
						<path class="st3" d="M471.4,436.5l6.2,19h20l-16.2,11.7l6.2,19l-16.2-11.7l-16.2,11.8l6.2-19l-16.2-11.8h20L471.4,436.5z
							 M564.9,455.5H545l16.2,11.7l-6.2,19l16.2-11.7l16.1,11.7l-6.2-19l16.1-11.8h-20l-6.1-19L564.9,455.5z M663.3,455.5h-20
							l16.2,11.7l-6.2,19l16.2-11.7l16.2,11.8l-6.2-19l16.2-11.8h-20l-6.2-19L663.3,455.5z M500.8,628
							c-6.8,12.4-15.3,22.8-19.2,28.5h181.9c-3.9-5.6-12.1-16.3-19.6-28.5c-5.5-9.1-10.5-18-13.7-28.4H513.5
							C510.6,609.3,506,618.6,500.8,628 M693.1,524.9c27.4-8.9,60.1-20,60.1-20H390.4c0,0,33.5,11.8,61.2,20.2
							c23.8,7.2,52.4,17.4,61.2,37.1h118.4C640.8,542.4,669.5,532.5,693.1,524.9"/>
						<path class="st4" d="M600.4,319.3c-2.1-1.4-4.3-2.4-6.7-3.1c-3.2-1-7.2-1.7-16.1-1.4c-5.5,0.2-12.7,0-12.7,0s6.2,8.4,8.9,10.4
							c4.4,3.4,11.8,0.3,17.9-2.2C594.6,321.6,600.4,319.3,600.4,319.3 M682.4,377.9c3-3.8,5.3-10.6,5.4-17.7
							c0.1-12.2-4.4-28.3-13-48.1c-5.3-12.3-14.1-31.9-12.8-50.2c0.9-12.6,10.3-24.3,24.2-31.8c23.2-12.6,55.1-20,55.1-20
							c-50.3-5.1-109.2-9-170-9c-56.7,0.1-113.3,3.1-169.6,8.9c0,0,31.5,7.4,55.1,20c13.9,7.4,23.4,19.2,24.3,31.8
							c1.3,18.3-7.5,37.9-12.8,50.2c-8.6,19.9-13.1,36-13,48.1c0.1,7.1,2.2,13.9,5.1,17.8c3.8,5.2,9.5,10.5,22.2,10.5
							c21.4,0,29.5-19.1,29.5-30.5s-5.9-16.6-10-20.2c-5.3-4.4-11.4-7.7-18-9.8c0,0,24.6-7.9,24.6-22.3c0-11.8-7.1-25.2-16.4-35
							l0.6-0.6c2.5,1.4,11.7,4.9,19.5,6.3c11.5,1.9,23.1,2.9,34.8,2.9c18.9,0,27.5-2.2,41.5-2.2c14.6,0,27.5,6.9,30.7,20.1
							c5.1-0.7,10.3-0.8,15.5-0.3c17.4,1.8,29.2,13.9,29.5,29.8c0.6,31.3-26.2,41.4-31.3,42.1c0.7-2,0.9-4.2,0.5-6.3
							c-0.5-3.7-4-8.8-9.7-8.8c-8.1,0-12.2,6.7-11.9,13.3c0.6,14.5,16.9,20.8,33.4,21.7c2.5,0.1,4.2,0.2,6.6,0.1
							C667.3,388.4,676.8,384.7,682.4,377.9 M906.6,183.1c-0.5,21.5-7.9,42.2-21.1,59.1c4,14.7,6,29.9,6,45.2
							c-0.1,47.1-22.1,72.1-27.7,80.6c4.7,31.2-1.2,61.2-13.1,84.7c-14.8,29-34.9,49-66.5,65c0,0-23.9,59.7-55.2,102.5
							c-66.9,91.7-144,135.5-157.4,140c-14.6-4.7-89.4-48-156.6-140c-31.2-42.8-55.2-102.4-55.2-102.4c-31.6-16-51.7-36-66.5-65
							c-11.9-23.5-17.9-53.5-13.1-84.7c-5.6-8.5-27.6-33.5-27.7-80.6c0-15.3,2-30.4,6-45.2c-13.2-16.9-20.6-37.7-21.1-59.1
							c-0.4-15.7,1.1-39.1,14.2-64.3c1.6-2.9,3.4-5.7,5.4-8.4c2.1,8,5.2,15.7,9.1,22.9c3.8,6.7,7.8,12.7,16.9,20.9
							c8.7,8,18.9,14,30.1,17.8L313,73.7c45.1-10,136.2-24.1,258.7-24.1S784.5,63.7,831,73.7l-0.1,98.3c11.2-3.7,21.5-9.8,30.1-17.8
							c9-8.2,13.1-14.3,16.9-20.9c3.9-7.3,7-15,9.1-22.9c2,2.7,3.7,5.5,5.3,8.4C905.5,143.9,906.9,167.3,906.6,183.1 M888.5,134.3
							c-4.4,11.2-14.1,21.7-23.7,30c-11.5,10-31.4,19.1-43.3,21V80.7c-15.1-3.2-103.6-21.8-249.5-21.8S337.8,77.6,322.6,80.7v104.7
							c-12-2-31.8-11.1-43.4-21c-9.6-8.4-19.3-18.9-23.7-30c-5.9,13.9-8.2,31.5-7.8,46.5c0.8,26.7,9.8,41.8,22.1,59.7
							c0,0-8.9,19-6.9,56.3c1.7,31.6,19.9,57.3,28.3,69c-9.6,55.8,16.2,93.6,32.1,111.8c19.4,22.2,45.6,33.9,45.6,33.9
							c8.3,21.9,29.8,70.2,58.9,107.9c35.2,45.6,86.2,99.1,143.7,129c57.5-29.9,109.5-83.4,144.8-129c29.1-37.6,50.5-86,58.9-107.9
							c0,0,26.2-11.7,45.6-33.9c15.8-18.2,41.6-56,32-111.8c8.4-11.7,26.7-37.4,28.3-69c2-37.3-6.9-56.3-6.9-56.3
							c12.3-17.9,21.2-33,22-59.7C896.6,165.9,894.3,148.3,888.5,134.3 M862.9,252.2c6.5,23.9,3.5,47.6-0.8,62
							c-13.1,44.6-50.5,61-79,77.1c-13.7,7.7-24.3,14.5-31.9,21.1c-26.6,23.3-21.8,40-21.8,40c9.6-19.2,38.5-31.7,63.7-44.4
							c34.4-17.4,45.4-33.2,45.4-33.2c5,29.9-4.2,57.7-16.2,77.2c-25.8,41.7-67.6,52.2-68.8,52.8h-363c-1.2-0.6-43-11.1-68.8-52.8
							c-12-19.4-21.2-47.2-16.2-77.2c0,0,11,15.8,45.4,33.2c25.2,12.7,54.1,25.3,63.7,44.4c0,0,4.9-16.7-21.8-40
							c-7.7-6.7-18.3-13.4-31.9-21.1c-28.6-16.1-66-32.6-79-77.1c-4.2-14.4-7.3-38.1-0.8-62c0,0,6.1,20.6,50.7,42.8
							c32.4,16.1,54.4,31.4,64.1,53.5c0,0,7.5-27.4-22.1-49.6c-8.5-6.4-15.4-10.7-34.3-21c-12.4-6.9-40.7-21.1-60.8-50.4
							C266.2,209,258,187,262,163.5c0,0,4.1,8.8,19.4,18.3c18.5,11.4,38.7,17.2,67.1,24.9c26.8,7.3,72.8,16.3,99.9,31.4
							c12.3,6.8,20.1,16.6,20.2,27.5c0.4,29-25.6,56.5-25.6,94.2c0,23.7,12.2,39.2,38.6,39.2c12.4,0,22.1-4.4,29.3-11
							c8.9-8.1,13.6-19.3,13.6-28.9c0-24-17.1-29.3-21-31.3c9.2-3.8,15.6-9.8,16.5-19c0.7-7.3-0.7-12.4-2.1-15.4
							c-1.4-3.1-3.2-6.1-5.3-8.8c6.3,2.1,12.8,3.4,19.4,4.1c28.4,3,38.4-1.6,52.6-1.6c13.7,0,26.4,6.6,25.8,20.1
							c5.2-1.4,10.6-2.1,16-2c20.7,0,28.2,12.5,28.2,23.7c0,16.8-11.1,24.9-14,25.8c-1.7-7.5-10.7-11.5-17.7-11.5
							c-10,0-22.2,6.5-22.2,22.8c0.1,8.5,3.6,16.5,9.8,22.3c5.7,5,17.3,11.1,40.9,11.1c31.6,0,49.8-15.9,49.8-39.5
							c0-37.7-26.3-65-25.6-94.2c0.2-11,7.8-20.5,20.3-27.5c27.1-15.2,73-24.1,99.8-31.4c28.4-7.7,48.6-13.5,67.1-24.9
							c15.3-9.4,19.4-18.3,19.4-18.3c4,23.4-4.2,45.5-16.9,63.9c-20,29.3-48.3,43.5-60.8,50.4c-18.8,10.4-25.8,14.7-34.2,21
							c-29.6,22.2-22.1,49.6-22.1,49.6c9.7-22.1,31.8-37.4,64.1-53.5C856.9,272.8,863,252.1,862.9,252.2 M481.3,467.3l16.2-11.7h-20
							l-6.2-19l-6.2,19h-20l16.2,11.7l-6.2,19l16.1-11.7l16.2,11.7L481.3,467.3z M581.1,467.3l16.2-11.7h-20l-6.1-19l-6.2,19h-20
							l16.2,11.7l-6.2,19l16.2-11.7l16.2,11.7L581.1,467.3z M598.8,392.3c-1.6-1.5-9.6-11.7-9.9-24.6c-0.5-21.8,14.4-34.8,34-34.8
							c14.5,0,18.8,8.5,18.8,8.5c1.5-1.8,4-8.1,3.1-13.5c-1.6-9.2-9.3-13-21.6-13c-12.8,0-20.8,3.5-20.8,3.5l-1.6,0.6
							c0,0,2.3-11.4-6-18.1c-6.5-5.2-17.6-3.5-27.2-1.8c-12.1,2-30.7,2-40.4-2.8c3.2,5.2,4.6,11.3,4,17.3
							c-0.9,7.3-6.3,12.4-9.2,14.5c5.1,3.8,14.7,10.4,14.7,29.5c0,15.6-10.4,30.5-14.9,34.1c9.1-1.7,19.2-2.2,25.7,0.1
							c15.4,5.6,18,16.5,20,21.9l1.4-0.6c-1.3-7.2-1.8-20.1,5.7-24.1c5.9-3.2,16.9,0.4,24,4.2c0,0,0-1,0.3-0.9 M679.6,467.3
							l16.2-11.7h-20l-6.2-19l-6.2,19h-20l16.2,11.7l-6.2,19l16.2-11.7l16.2,11.7L679.6,467.3z M449.7,541.5
							c-18.2-5.7-38.8-12.4-61.1-21c7.6,19.3,21.6,45.6,32.9,63.1c12.4,19.3,29.2,41.7,47.2,60.5c9-9.3,37.2-42.9,37.2-66.8
							C505.9,558.9,473.1,548.9,449.7,541.5 M638.3,577.2c-2.1,23.8,29.5,58.6,37.5,66.6c18-18.8,34.6-41,47-60.3
							c11.3-17.5,25.3-43.8,32.9-63.1c-22.3,8.6-42.2,14.8-61.1,20.8C671.2,548.6,640,558.3,638.3,577.2 M512.8,562.1
							c2.5,4.3,3.3,10,3.8,16.2c0.6,8.3-2,18.5-3,21.4h116.6c-1-2.8-3.6-13.1-3-21.4c0.5-6.2,1.4-11.9,3.9-16.2H512.8z M571.5,731.1
							c27.1-14.4,70-54.4,92.1-74.6H481.5C503,680.8,546.8,718,571.5,731.1 M395.4,113c0-2.9-0.3-9.5-2.2-12.9
							c-1.5-2.8-3.9-5-6.8-6.2c-2.5-1-6.3-1.5-13.7-0.4c-7,0.9-23.7,3.6-23.7,3.6l0.1,99.1c0,0,10-1.3,13.6-1.8
							c3.8-0.5,15.6-2,18.2-2.5c5.5-1.1,7.6-3.2,9.2-4.7c3.3-3,5.2-7.6,5.2-13.3L395.4,113z M377.6,182c-1.1,0.8-2.5,1.3-3.9,1.4
							l-8,1v-80.7l8.5-1.1c1.9-0.3,3,0.1,3.7,0.9s0.9,2.6,0.9,5.6l0.1,68.5c0,1.5-0.1,3.1-1.3,4.2 M794.5,120.1
							c0-2.3,0.3-10.4-0.9-14c-1.6-4.5-3.7-6.2-6.7-8.1s-8-2.7-15.2-3.8s-23.3-3.1-23.3-3.1v100.1c0,0,10.3,1.3,13.7,1.9
							s15.9,2.3,18.5,2.3c5.5,0.1,7-1.1,8.6-2.1c3.3-2.1,5.2-6.1,5.2-11.9V120.1z M777.9,180.4c0,1.9-0.3,2.9-1,3.4
							c-1,0.8-2.5,0.6-4.2,0.4l-7.7-1.1v-80l8.3,1.2c2.5,0.3,3.2,1,3.8,2.3c0.4,1,0.7,2.4,0.7,5.4L777.9,180.4z M406.8,189.9
							c1.6-0.1,3-0.9,4-2.1c2.1-2.6,1.9-6.4-0.6-8.6c-2.3-2.1-5.8-2-7.9,0.3l-0.3,0.4c-1,1.2-1.5,2.8-1.4,4.4
							c0.1,1.6,0.9,3.1,2.1,4.1C403.7,189.5,405.3,190,406.8,189.9 M477,184c1.6-0.1,3-0.9,4-2.1c2.1-2.6,1.8-6.4-0.7-8.6
							c-1.2-1.1-2.7-1.7-4.3-1.5c-1.6,0.1-3,0.9-4,2.1c-2.1,2.6-1.8,6.3,0.7,8.6c1.1,1.1,2.7,1.6,4.2,1.5 M443.1,85
							c-2.9,0.2-12.2,0.8-17.9,6.6c-5.2,5.3-4.9,12.3-4.9,14.8v63.5c0.1,5.7,2.2,10.3,6.1,13.3c1.8,1.4,5.8,4.5,16.5,3.6
							c9.1-0.8,14.1-3.7,16.9-6.2c3.4-3.1,5.3-7.6,5-12.2v-23.5l-16.4,6.9v16.9c0,5.1-1.8,7.4-5.8,7.9c-2.6,0.3-6.1-0.1-6.1-6.5
							v-68.7c0-3.9,2-6.2,5.4-6.5s6.2,1.1,6.2,5.7v19.7l16.3-7v-9.6c0-5.1-0.5-9.1-2.3-11.9C458.7,86,449.9,84.5,443.1,85
							 M538.4,80.9l-16.8,0.4v84.1c0,5.9-3.4,7-6.8,7c-4.2,0.1-6.5-1.8-6.5-6.3V81.8l-16.6,0.8v82.7c0,8.6,3.5,11.2,5.2,12.7
							c3.2,2.8,10.3,4.7,17.8,4.4c8.8-0.4,13.7-2.2,18-5.4c4-3,5.8-7.6,5.8-13L538.4,80.9 M603,80.9l-16.6-0.2v36.7l-16.7-36.9
							l-15.4,0.1v99.7h16.5v-68.9l16,31.7v37.1l16.2,0.3L603,80.9 M637,81.9l-16.5-0.6V181l16.5,1V81.9z M738.7,178.5l-20.3-2.4v-36
							l10.8,1.1l6-11.5l-16.9-1.8V98l17.6,1.8l0.1-10.4c0,0-11.3-1.2-16.3-1.7C715.6,87.3,702,86,702,86v100c0,0,12.6,1.3,17.3,1.8
							l19.5,2.1L738.7,178.5z M694,85.4c0,0-16.7-1.2-23.5-1.6l-22.4-1.3l-4.9,10l17.9,1V183c0,0,16.8,1.1,16.4,1.1V94.4l16.5,1.2
							L694,85.4z"/>
					</g>
				</g>
			</g>
		</g>
	</g>
</g>
</svg>
