<?xml version="1.0" encoding="utf-8"?>
<!-- Generator: Adobe Illustrator 25.2.0, SVG Export Plug-In . SVG Version: 6.00 Build 0)  -->
<svg width="450" height="450" version="1.0" id="katman_1" xmlns="http://www.w3.org/2000/svg" xmlns:xlink="http://www.w3.org/1999/xlink" x="0px" y="0px"
	viewBox="130 40 310 300" style="enable-background:new 0 0 400 400;" xml:space="preserve">
<style type="text/css">
	.st0{fill-rule:evenodd;clip-rule:evenodd;fill:#E81F3E;}
	.st1{fill-rule:evenodd;clip-rule:evenodd;fill:#FFFFFF;}
	.st2{fill-rule:evenodd;clip-rule:evenodd;fill:#2A4076;}
	.st3{fill-rule:evenodd;clip-rule:evenodd;fill:#CCCBCC;}
</style>
<path class="st0" d="M432.64,67.64c0,0-53.48-22.02-152.64-22.02S127.36,67.64,127.36,67.64C114.71,226.08,192.08,314.45,280,354.38
	C367.92,314.45,445.27,226.08,432.64,67.64z"/>
<path class="st1" d="M280,49.23c86.64,0,138.59,17.11,149.21,20.97c0.78,10.5,1.19,20.79,1.19,30.85
	c0,58.56-13.22,109.75-39.44,152.52c-25.56,41.68-63.91,75.12-110.95,96.82c-47.05-21.7-85.4-55.14-110.96-96.82
	c-26.22-42.76-39.44-93.93-39.44-152.46c0-10.08,0.41-20.39,1.19-30.91C141.41,66.33,193.36,49.23,280,49.23L280,49.23z"/>
<path class="st2" d="M343.84,228.6c0,0-3.15,0.47-4.85,5.06l-9.15-0.16c0,0-3.26-4.56-9.55-4.6c0,0-5.87,3.24-5.36,7.85
	c0,0,1.5-2.55,5.02-2.58c2.32,0.86,3.36,3.42,3.36,3.42s-1.28,5.63-8.18,7.85c0,0-8.32-4.8-14.7-5.09c-6.38-0.3-15.3,7.67-23.68,0.6
	c-8.38-7.08-7.58-18-4.06-25.38c0,0-19.84,13.86-3.49,32.83c0,0-27.36,18.24-39.22,59.77c15.03,11.14,31.73,21.15,50.02,30.47
	c15.32-7.81,29.53-16.07,42.56-25.11c-16.52-11.63-26.48-32.29-12.67-59.3l3.69,1.72l17.4-1.35l2.74-4.4l6.37-0.39
	c0,0,5.96-6.24,6.75-10.81C346.84,239.01,340.82,235.06,343.84,228.6L343.84,228.6z"/>
<path class="st2" d="M424.04,75.09c0,0-53.97-20.72-144.04-20.72c-90.07,0-144.04,20.72-144.04,20.72
	c-0.86,32.49,1.03,61.1,5.51,86.5c40-13.4,49.53,18.7,82.02,19.89l36.18,0.34c6.03-6.11,14.71-9.29,14.71-9.29l30.96,0.23
	c6.44,3.22,12.97,8.18,12.97,8.18s9.8,0.13,21.33-0.81c22.41-1.81,31.28-25.48,78.78-18.05C422.99,136.55,424.9,107.78,424.04,75.09
	L424.04,75.09z"/>
<g>
	<path class="st1" d="M157.21,142.16l10-1.94v-27.23l8.78-1.68v-9.65l-8.78,1.71V91.02l8.78-1.82v-9.92l-18.78,4.3L157.21,142.16
		L157.21,142.16z"/>
	<path class="st1" d="M194.56,75.83c-10.6,1.72-11.33,3.46-11.41,13.71v37.33c0.09,9.6,0.78,10.67,11.41,9.62
		c10.74-1.31,12.28-2.44,12.37-12v-11.74l-10,0.93v11.39c0,1.58-1,2.08-1.87,2.24c-0.81,0.03-1.89-0.1-1.89-1.97V88.4
		c0-1.48,0.83-2.21,1.75-2.32c1.05-0.16,2.01,0.47,2.01,1.92v7.3l10-1.04V86.7C206.84,75.99,205.33,74.45,194.56,75.83L194.56,75.83
		z"/>
	<path class="st1" d="M248.51,70.8l-13.71,1v61.03l14.02-0.81c8.72-0.5,10.12-1.74,10.26-10.26V83.48
		C258.91,71.8,257.23,70.46,248.51,70.8 M249.08,121.25c-0.03,1.37-0.19,1.87-1.52,1.95l-2.75,0.24V82.22l2.75-0.24
		c0.94-0.01,1.48,0.44,1.52,2.62V121.25z"/>
	<path class="st1" d="M271.9,70.12l-6,61.53l9.25-0.11l0.77-10.71l5.47-0.07l0.86,10.59l9.25,0.09l-6.06-61.5L271.9,70.12
		 M276.42,111.47l2.28-24.17l2.19,24.11L276.42,111.47L276.42,111.47z"/>
	<path class="st1" d="M308.94,70.69l-10.02-0.43v61.35l16.94,0.56v-8.86l-6.93-0.21L308.94,70.69L308.94,70.69z"/>
	<path class="st1" d="M333.24,124.32V72.45l-10.02-0.86v61.03l16.74,1.33l-0.01-8.99L333.24,124.32L333.24,124.32z"/>
	<path class="st1" d="M352.59,74.72l-6,59.74l9.25,0.87l0.75-10.94l5.41,0.48l0.76,11.16l9.25,1.03l-6.06-60.6L352.59,74.72
		 M357.1,115.02l2.21-23.28l2.18,23.67L357.1,115.02z"/>
	<path class="st1" d="M402.78,100.06v-5.9c-0.09-9.76-1.77-12.08-12.43-14.18c-10.71-1.8-11.32-0.38-11.42,9.9v8.25
		c0.09,5.13,1.04,8.01,4.32,10.92l7.24,5.8c1.4,1.23,2.25,2.61,2.28,4.46v9.56c0,1.44-1.17,1.64-2.02,1.58
		c-0.83-0.17-1.82-0.88-1.82-2.22l0.03-8.55l-10.02-1.21v8.69c0.1,9.6,1.21,11.04,11.82,12.67c10.77,1.4,11.94,0.88,12.03-8.95
		v-12.21c-0.09-3.95-1.31-7.22-4.39-9.9l-7.61-6.14c-1.25-1.14-1.8-2.14-1.82-4.2v-6.9c0-1.44,0.97-1.8,1.8-1.71
		c0.86,0.2,2.02,1.37,2.02,2.89v5.88L402.78,100.06L402.78,100.06z"/>
	<path class="st1" d="M297.85,288.69h-15.77l-0.81-13.59l-9.45,13.59h-15.7l10.33,9.03l-8.07,14.08l15.06-8.72l10.23,8.58
		l-1.01-14.05L297.85,288.69L297.85,288.69z"/>
</g>
<g>
	<path class="st0" d="M349.21,198.65l-16.27,3.65c-2.82,1.94-7.68,6.11-4.94,9.56l15.84,16.74c-3.02,6.45,3.01,10.4,3.01,10.4
		c-0.8,4.57-6.75,10.81-6.75,10.81l-6.37,0.39l-2.74,4.4l-17.4,1.35l-3.69-1.72c-13.81,27.01-3.85,47.67,12.67,59.3
		c50.22-34.8,83.21-80.56,95.87-151.47C372.08,164.66,371.69,193.28,349.21,198.65L349.21,198.65z"/>
	<path class="st0" d="M217.21,202.94c-37.69-4.76-39.37-40.77-75.74-41.35c6.55,37.09,18.67,67.32,35.88,92.7
		c20.25-24.68,41.98-41,55.16-49.62C226.99,204.09,221.63,203.51,217.21,202.94z"/>
	<path class="st0" d="M314.84,185.94c-3.33-5.12-11.49-5.83-10.12-9.76c-3.73,1.88-3.22,5.2-0.88,7.3c2.89,2.61-2.19,4.75-3.23,1.7
		c-1.28,1.48-1.28,3.92,1.52,6.33c2.79,2.42,8.92,2.47,11.27,9.22C313.04,196.06,319.07,192.45,314.84,185.94L314.84,185.94z"/>
</g>
<g>
	<path class="st2" d="M346.26,188.39c-8.61,0.84-20.32,1.41-20.32,1.41c2.05,2.45,2.82,5.24,2.82,5.24s-9.33,7.32-0.77,16.81
		c-2.74-3.45,2.12-7.62,4.94-9.56l16.27-3.65c22.49-5.37,22.87-33.99,69.22-36.58C369.02,159.76,367.19,186.32,346.26,188.39
		L346.26,188.39z"/>
	<path class="st2" d="M269.33,185.53c2.07,6.06-1.67,8.04-1.67,8.04l-44.83-2.37c-40.97-3.78-39.69-35.95-81.35-29.61
		c36.37,0.58,38.05,36.59,75.74,41.35c4.42,0.57,9.78,1.15,15.3,1.73c3.36,0.34,6.8,0.68,10.12,1.01
		c-8.38,6.3-11.36,15.23-11.36,15.23c26.16-5.04,35.78-12.74,38.77-15.93C278.86,196.4,271.53,186.21,269.33,185.53L269.33,185.53z"
		/>
	<path class="st2" d="M291.03,197.28c0,0-5.53,3.08-8.92,9.62c0,0,16.32-1.4,28.54,5.23C305.15,201.79,299.83,199.63,291.03,197.28z
		"/>
	<path class="st2" d="M369.44,298.26h2.88v8.72h1.05v-8.72h3.05v-1.05h-6.98V298.26z"/>
	<path class="st2" d="M384.51,297.21l-2.51,7.95l-2.51-7.95h-1.68v9.78h1.05v-8.29l2.62,8.29h1.03l2.62-8.29v8.29h1.05v-9.78H384.51
		z"/>
</g>
<path class="st3" d="M270.88,149.07h-8.42c-4.57,0-6.9,0.4-6.9,3.52v1.11c0,2.28,1.01,3.53,6.71,3.53h5.52
	c2.32,0,3.43-0.33,4.4-0.97v1.51c0,1-0.86,1.52-2.89,1.52h-13.88v2.74h13.91c6.33,0,8.45-1.13,8.45-4.97v-3.55
	C277.78,150.23,275.5,149.07,270.88,149.07 M269.16,154.62H264c-2.38,0-2.99-0.33-2.99-1.4c0-1.08,0.64-1.41,2.89-1.41h5.39
	c2.27,0,2.91,0.33,2.91,1.41C272.19,154.29,271.58,154.62,269.16,154.62z"/>
<path class="st3" d="M297.87,153.88h-5.52c-2.32,0-3.43,0.33-4.4,0.95v-1.5c0-1,0.86-1.52,2.88-1.52h13.24v-2.74H290.8
	c-6.31,0-8.45,1.13-8.45,4.97v3.53c0,3.31,2.31,4.46,6.91,4.46h8.41c4.59,0,6.91-0.41,6.91-3.53v-1.1
	C304.58,155.11,303.57,153.88,297.87,153.88 M296.23,159.3h-5.37c-2.27,0-2.91-0.34-2.91-1.42c0-1.07,0.63-1.38,3.01-1.38h5.17
	c2.39,0,3.01,0.31,3.01,1.38C299.14,158.96,298.5,159.3,296.23,159.3L296.23,159.3z"/>
</svg>
