<?xml version="1.0" encoding="utf-8"?>
<!-- Generator: Adobe Illustrator 25.0.1, SVG Export Plug-In . SVG Version: 6.00 Build 0)  -->
<svg width="450" height="450" version="1.0" id="katman_1" xmlns="http://www.w3.org/2000/svg" xmlns:xlink="http://www.w3.org/1999/xlink" x="0px" y="0px"
	viewBox="140 50 310 310" style="enable-background:new 0 0 400 400;" xml:space="preserve">
<style type="text/css">
	.st0{fill-rule:evenodd;clip-rule:evenodd;fill:#E4E5E6;}
	.st1{fill-rule:evenodd;clip-rule:evenodd;fill:#8CD2F4;}
	.st2{fill-rule:evenodd;clip-rule:evenodd;fill:#231F20;}
	.st3{fill-rule:evenodd;clip-rule:evenodd;fill:#E31B23;}
</style>
<path class="st0" d="M312.4,71l-3.6,17.4c-1.1,5.1-2.4,11.4-3.9,18.4l-0.9,0.4c1.7-18.8,1.6-33.7-1.7-40.9
	c-2.8-5.9-7.1-11.4-12.5-15.8c-7.7-6.2-12.6-6.9-12.6-6.9l0.1,76.1l-85.6,39.8C180,165,180,178.7,180,178.7v130.9l100,46.7l100-46.7
	V71.9l-50.6,23.5c-1.9-4.8-4.4-9.4-7.2-13.4c-1.2-1.7-2.4-3.3-3.5-4.8C316.6,74.6,312.4,71,312.4,71"/>
<path class="st0" d="M220.9,102.2l4.6,13.3l4.6-13.3l13.8,2.7l-9.2-10.6l9.2-10.6l-13.8,2.7L225.5,73l-4.6,13.3l-13.8-2.7l9.2,10.6
	l-9.2,10.6L220.9,102.2z"/>
<path class="st1" d="M191.7,223.1c-11.7,5.5-11.7,19.2-11.7,19.2v63.6c0,0,0-13.7,11.7-19.2L380,199.1v-63.6L191.7,223.1
	L191.7,223.1z"/>
<path class="st2" d="M359.5,230.5c5.8-6.9,7-13.4,7-13.4s-49.8,16.2-66.1,21.6c4.1-1.8,7.1-2.8,8.9-3.6c6.7-2.9,50-17.4,54.8-26.5
	c4.7-8.9,4.6-16.1,4.6-16.1s-48.5,28.1-66,38.2c4.1-2.9,7.1-4.7,8.9-6c6.6-4.7,50.3-30.5,53.5-41.5c3.1-10.7,1.2-18.6,1.2-18.6
	s-46.1,41.6-62.8,56.7c3.5-3.8,6.1-6.2,7.7-7.9c6.1-6.6,47.6-44.7,48.5-57.4c0.9-12.4-3-20.5-3-20.5s-41.7,57.4-55.7,76.9
	c3-5,5.3-8.4,6.6-10.6c5.1-8.6,41.4-59.6,39.5-73.6c-1.9-13.6-8-21.6-8-21.6s-31.6,71-42.6,96c2.1-6.4,4-10.8,4.9-13.6
	c3.6-10.5,31.2-74.4,25.9-89.1c-2.3-6.3-4.7-10.2-7.7-14.7c-3-4.5-5.7-7.1-5.7-7.1c-1.5,6.9-12.4,58.7-19.6,92.7l-4.2,24
	c-1.5,8.7-0.1,14.5,0.6,16.5l0.5,1.5c8,23.7,1.8,35.1-1.2,39l-0.1,0.2c-0.6,0.8-2.1,2.5-4.4,3.9c-1.9,1-3.8,1.5-5.7,1.5
	c-1.2,0-2.3-0.2-3.4-0.5c-10.5-3.5-6.7-15.3-6.7-15.4c-0.9,4.9,0.4,8.1,1.6,10c1.8,2.7,4.8,4.4,8,4.4c5.3,0,8.3-3.6,9.2-4.8l0.1-0.2
	c2.9-3.7,8.8-14.7,0.6-38.1l0,0c-0.2-0.7-2.6-8.2-1.1-16.7l5.6-32.5c4.1-25.9,12.5-79.7,5.8-94.2c-3.1-6.7-7.5-11.3-11.7-14.7
	c-4.2-3.4-8-5.1-8-5.1l0.2,128.3c0,6.9,0.2,12.5,0.6,17.1c0,0,0.2,3.2,0.6,6.6c0.4,3.4,1.9,10.3,2.9,13.5l1.1,3.7
	c4.2,14.6,2.2,23.8-1.1,28.1c-0.8,1-2.1,2.8-4.8,2.8c-3,0-6.1-3.5-2.3-12.4c3.8-8.8,5.7-18.2-2.4-26.1c-0.8-0.8-1.6-1.5-2.5-2.2
	c-5.7-4.3-9-6.2-12.5-8.1c-1.8-1-11.9,1.1-11.9,1.1l-24-10.7l0,0.4c0,0,34.4,24.8,40.7,30.1c5.8,4.8,2.7,12.5-2.8,16.8
	c-6.3,5-25.1,15.5-25.1,15.5v1.1c0,12.5,1.8,17.7,10.4,28.1c16.4,20.1,23.9,28.3,23.9,49.3c0.9,0.6,4.2,2.1,4.2,2.1v-35.5
	c0-16.1,4.2-26.9,23.8-26.9l-13.7-12.8c2,1.5,3.3,2.6,4.1,3.3c3.4,2.6,23.6,20.4,29.7,20.2c5.9-0.2,9.6-2.4,9.6-2.4
	s-31.6-18.2-40.4-23.2c2.9,1.3,4.9,2.4,6.1,2.9c4.3,2,30.4,16.7,37,15.1c6.4-1.6,9.9-4.9,9.9-4.9s-39-12.6-49.4-16
	c3.6,0.7,6,1.5,7.5,1.8c5.2,1.2,36.9,11.1,43.7,7.8c6.6-3.2,9.6-7.6,9.6-7.6s-44.4-4.5-57.5-5.9c3.2,0,6.2,0.2,7.7,0.3
	c5.9,0.1,42.7,3.6,49.3-1.6c6.4-5,8.7-10.4,8.7-10.4s-48.2,5.1-62.9,6.7c3.9-0.8,6.8-1.2,8.5-1.5
	C312.7,242.3,353.6,237.6,359.5,230.5"/>
<path class="st3" d="M262.7,209.8c0,0-2,0.5-3.5-0.4c-1.5-0.9-2-3-2-3s2-0.5,3.5,0.4C262.3,207.8,262.7,209.8,262.7,209.8"/>
<g>
	<path class="st2" d="M352.3,295.5c0,0,1.1-0.5,1.1-2.1v-2.4l-12.2,5.7v20.7l3.7-1.8V308l4.2-2c0.3-0.2,1-0.8,1-2.1v-2.1l-5.2,2.5
		V299L352.3,295.5L352.3,295.5z"/>
	<path class="st2" d="M364.8,289.5c0.5-0.2,0.8-0.1,0.8,0.4v1.6h0c0,0.5,0.4,0.9,0.9,0.9c0.1,0,0.2,0,0.3-0.1l2.4-1.1l0-2.6
		c0-1.8-1.5-3.2-3.3-3.1c-0.4,0-0.8,0.1-1.1,0.2l-6.9,3.2c-1.5,0.7-2.5,2.2-2.5,4v13.3c0,1.6,1.3,2.9,2.9,2.9c0.4,0,0.8-0.1,1.2-0.3
		l7.2-3.4c1.4-0.7,2.4-2.2,2.4-3.9v-3.8l-2.8,1.3c-0.1,0-0.7,0.4-0.8,1.3v1c0,0.5-0.4,1-0.8,1.2l-4.8,2.3c-0.5,0.2-0.8,0.1-0.8-0.4
		v-11.2c0-0.5,0.4-1,0.8-1.2L364.8,289.5L364.8,289.5z"/>
	<path class="st2" d="M316.7,322.1l-7.1-10.7l-3.8,1.8v20.7c0,0,1.6-0.7,2.7-1.3c0.2-0.1,1.1-0.7,1.1-2.1V318l7.2,10.6l3.6-1.7
		v-20.7l-2.6,1.2c-0.3,0.2-1.1,0.5-1.1,2.1L316.7,322.1z"/>
	<path class="st2" d="M299.1,335.2v-10.4l-3.6,10.1l-3.2,1.5l-4.2-6.9l0,11c0,1.2-0.6,1.9-1.2,2.2l-2.3,1.1v-20.7l3.4-1.6l5.5,9.7
		l5.2-14.6l4.2-2v20.6l-2,0.9C300,336.5,299.1,336,299.1,335.2"/>
	<path class="st2" d="M323.6,304.9v16.2c0,1.6,1.3,2.8,2.8,2.8c0.4,0,0.8-0.1,1.2-0.3h0l7.8-3.6l0,0c1.5-0.7,2.6-2.2,2.6-4h0l0-17.9
		c0,0-1.8,0.8-2.6,1.2c-1,0.5-1.1,1.5-1.1,2.2v14.3c0,0.5-0.4,1-0.8,1.2l-5.3,2.4c-0.5,0.2-0.8,0-0.8-0.4V305c0-0.9-0.9-1.4-1.6-1.1
		L323.6,304.9L323.6,304.9z"/>
</g>
</svg>
