<?xml version="1.0" encoding="UTF-8"?>
<svg version="1.1" viewBox="90 230 700 600" width="1280" height="1280" xmlns="http://www.w3.org/2000/svg">
<path transform="translate(497,195)" d="m0 0 14 1 33 6 44 11 35 11 28 10 35 15 30 14 33 17 4 3v51l-2 40-4 45-6 42-8 39-9 32-9 27-11 26-10 21-13 23-16 24-12 16-9 11-12 14-16 17-8 8-8 7-12 11-11 9-15 12-19 14-33 22-13 8-9-5-19-13-14-10-16-12-10-8-11-9-10-9-8-7-15-14-12-12-7-8-10-11-11-14-10-13-16-24-11-19-12-23-12-28-12-36-8-30-7-36-5-37-4-49-1-22v-74l33-17 33-15 37-15 25-9 41-12 34-8 32-6z" fill="#fff"/>
<path transform="translate(359,344)" d="m0 0h97l7 2 12 23 24 44 10-17 16-29 12-21 1-1h69l33 1 14 41 18 55 16 49 13 41-35 10-55 15h-4l-15-43-4-12-1-1-16 53-2 3-142-1-7-22-9-31v-4h-2l-1 6-15 42-4 9-16-4-76-22-1-2 17-50 15-43 26-77z" fill="#1A2741"/>
<path transform="translate(435,569)" d="m0 0h55l70 1v79l-1 89-15 12-18 13-20 14-8 5-5-2-12-8-14-10-12-9-13-10-8-7v-88z" fill="#1A2741"/>
<path transform="translate(496,212)" d="m0 0h9l38 7 17 4 2 1v108l-31 1-14 26-13 23-4 7-3-3-15-28-14-26-31-1v-107l9-3 36-7z" fill="#1A2741"/>
<path transform="translate(650,253)" d="m0 0 6 1 32 14 29 14 19 10 1 1v21l-1 34-3 47-5 45-6 36-9 38-2 5-2-4-27-82-16-50-16-49z" fill="#1A2741"/>
<path transform="translate(347,251)" d="m0 0h2v57l-1 25-25 74-14 41-19 56-4 10-2-4-6-26-5-27-5-40-3-37-2-52v-38l18-10 28-13 28-12z" fill="#1A2741"/>
<path transform="translate(497,195)" d="m0 0 14 1 33 6 44 11 35 11 28 10 35 15 30 14 33 17 4 3v51l-2 40-4 45-6 42-8 39-9 32-9 27-11 26-10 21-13 23-16 24-12 16-9 11-12 14-16 17-8 8-8 7-12 11-11 9-15 12-19 14-33 22-13 8-9-5-19-13-14-10-16-12-10-8-11-9-10-9-8-7-15-14-12-12-7-8-10-11-11-14-10-13-16-24-11-19-12-23-12-28-12-36-8-30-7-36-5-37-4-49-1-22v-74l33-17 33-15 37-15 25-9 41-12 34-8 32-6zm-4 6-30 5-36 8-33 9-36 12-31 12-27 12-25 12-22 11-1 1v52l2 48 3 36 5 38 6 32 9 36 11 33 11 26 9 19 13 23 16 24 12 16 9 11 12 14 14 15 15 15 8 7 11 10 11 9 15 12 19 14 23 16 9 6 4-1 16-10 16-11 18-13 13-10 11-9 13-11 24-22 13-13 7-8 9-10 11-14 10-13 12-18 12-20 12-23 10-22 10-27 8-26 9-38 6-36 4-33 3-38 2-49v-34l-26-14-33-16-33-14-35-13-32-10-35-9-34-7-12-2z" fill="#1C2943"/>
<path transform="translate(698,546)" d="m0 0h4l-3 9-9 21-10 20-12 20-14 21-5 7h-1v-84l39-11z" fill="#1A2741"/>
<path transform="translate(295,544)" d="m0 0 7 1 43 12 2 1v51l-1 31-4-4-14-22-12-21-11-22-10-25z" fill="#1A2741"/>
<path transform="translate(721,175)" d="m0 0 2 3 4 13v3h21l-5 5-9 7h-2l6 21-4-2-12-9-5 2-12 9-1-2 6-19-4-2-12-9v-1h21l2-9z" fill="#1D2A43"/>
<path transform="translate(280,172)" d="m0 0 2 2 5 16 20 1v2l-15 11 5 20-7-4-9-7-4 2-11 8h-2l2-9 3-10-14-11-1-2h20l3-11z" fill="#1F2C45"/>
<path transform="translate(390,133)" d="m0 0 2 1 5 16v2h19v3l-14 10 5 17-1 3-14-11-5 2-12 9-1-3 6-18-4-2-12-9v-1h21l2-10z" fill="#1F2C45"/>
<path transform="translate(501,112)" d="m0 0 2 3 4 13v3l21 1-15 12 2 10 3 10-4-2-12-9-4 2-13 9-1-2 6-19-4-2-12-9v-1h21l3-12z" fill="#1D2A43"/>
<path transform="translate(579,782)" d="m0 0 2 3 5 16 20 1-5 5-9 7h-2l5 16v4l-4-2-11-8-5 2-11 8-1-3 4-13-1-5-14-10v-1h21l2-9z" fill="#C59D2A"/>
<path transform="translate(332,708)" d="m0 0 2 4 5 15 20 1-15 12 1 7 3 10-1 3-15-11-9 6-7 5-1-2 5-15-1-4-13-10-1-2h21l2-9z" fill="#C59D2A"/>
<path transform="translate(496,836)" d="m0 0 2 3 5 16 20 1-5 5-10 7 2 9 3 12-9-6-6-5-5 1-12 9-2-1 5-15-1-5-13-10v-1h20l2-9z" fill="#C59D2A"/>
<path transform="translate(414,781)" d="m0 0 2 4 4 13v3h21l-5 5-10 7 1 7 3 10v3l-4-2-11-8-5 2-12 9-1-2 5-16-1-4-14-10v-1h21l2-9z" fill="#C59D2A"/>
<path transform="translate(662,710)" d="m0 0 2 2 5 17 20 1-5 5-10 7 2 9 3 12-9-6-6-5-5 1-12 9-2-1 6-18-12-10-3-3h20l3-12z" fill="#C59D2A"/>
<path transform="translate(611,134)" d="m0 0 2 3 5 16 20 1-5 5-10 7 2 10 2 6-1 4-13-10-5 1-12 9-2-1 5-16-1-4-13-10v-1h20l2-9 3-10z" fill="#1B2842"/>
<path transform="translate(595,834)" d="m0 0" fill="#C59D2A"/>
<path transform="translate(562,834)" d="m0 0" fill="#C59D2A"/>
<path transform="translate(430,833)" d="m0 0" fill="#C59D2A"/>
<path transform="translate(263,223)" d="m0 0" fill="#1A2741"/>
<path transform="translate(627,186)" d="m0 0" fill="#fff"/>
</svg>
