<?xml version="1.0" encoding="utf-8"?>
<!-- Generator: Adobe Illustrator 25.0.1, SVG Export Plug-In . SVG Version: 6.00 Build 0)  -->
<svg width="450" height="450" version="1.0" id="katman_1" xmlns="http://www.w3.org/2000/svg" xmlns:xlink="http://www.w3.org/1999/xlink" x="0px" y="0px"
	viewBox="120 50 300 300" style="enable-background:new 0 0 400 400;" xml:space="preserve">
<style type="text/css">
	.st0{fill-rule:evenodd;clip-rule:evenodd;fill:#ECE83A;}
	.st1{fill-rule:evenodd;clip-rule:evenodd;fill:#1F1646;}
</style>
<path class="st0" d="M242.5,56.8L180,108.6V291l62.5,52.1h75.2L380,291V108.6l-62.2-51.8L242.5,56.8z"/>
<g>
	<path class="st1" d="M315.2,63.7l58,48.2v175.9l-58,48.5h-70.4l-58-48.5V111.9l58-48.2L315.2,63.7z M316.5,60.1h-73l-59.9,50.2
		v179.1l60.3,50.2h72.6l59.9-50.2V110.3l-1.3-1L316.5,60.1z"/>
	<path class="st1" d="M266.3,233.7V178l26.1,55.7h15.3l-55.4-117.3v117.3H266.3z M293.7,84.2v55.4l-26.1-55.4h-15.3l55.4,116.9V84.2
		L293.7,84.2z M228.2,102.8h10.4v112h-10.4V102.8z M207.7,121.7h6.8v74.6h-6.8V121.7z M321.4,102.8h10.4v112h-10.4V102.8z
		 M345.5,121.7h6.8v74.6h-6.8V121.7z M278,302.4l-7.8-7.8v-5.5h2.9v5.5h4.6v-7.2l-2.3-2.6h-7.5l-2.3,2.6v9.8l7.5,7.5v6.5h-2.9v-6.5
		h-4.6v8.5l2.3,2.6h7.5l2.6-2.6V302.4z M282.3,287.4v25.7l2.6,2.6h7.2l2.3-2.6v-8.5h-4.6v6.5h-2.6v-22.1h2.6v5.5h4.6v-7.2l-2.3-2.6
		h-7.2L282.3,287.4z M262.4,265l-7.8-7.8v-5.5h2.9v5.5h4.6v-7.5l-2.3-2.3h-7.2l-2.6,2.3v9.8l7.5,7.5v6.8h-2.6v-6.8H250v8.8l2.6,2.3
		h7.5l2.3-2.3L262.4,265L262.4,265z M218.8,247.4l5.5,16.6v-16.6h4.9V278h-4.2l-5.9-16.6V278h-4.6v-30.6L218.8,247.4z M271.5,247.4
		v12.7h2.9v-12.7h4.6V278h-4.6v-13.7h-2.9V278h-4.9v-30.6L271.5,247.4z M287.5,247.4l2.6,24.1l2.9-24.1h4.6l-4.2,30.6h-6.2
		l-4.2-30.6L287.5,247.4L287.5,247.4z M301.5,247.4h4.6V278h-4.6V247.4z M315.2,247.4v26.1h4.2v4.6h-8.8v-30.6L315.2,247.4z
		 M327.5,247.4v26.1h4.6v4.6H323v-30.6L327.5,247.4z M345.4,251.9h-5.2v8.1h4.9v4.2h-4.9v9.1h5.2v4.6h-10.1v-30.6h10.1V251.9
		L345.4,251.9z M242.5,278h4.6l-4.2-30.6h-6.2l-4.2,30.6h4.6l0.7-5.2h4.6L242.5,278L242.5,278z M238,268.5l1.6-14.7l1.6,14.7H238
		L238,268.5z"/>
</g>
</svg>
