<?xml version="1.0" encoding="UTF-8"?>
<svg version="1.1" viewBox="190 250 1050 1050" width="1280" height="1280" xmlns="http://www.w3.org/2000/svg">
<path transform="translate(758,360)" d="m0 0 8 6 17 14 19 14 27 18 22 13 27 14 17 8 23 9 27 9 28 7 28 5 27 3 20 1h23l31-2 30-4 34-7 22-6h5l6 35 5 39 3 35 1 19v63l-3 43-4 33-6 35-8 36-9 33-12 36-10 27-12 28-14 30-13 25-14 24-13 22-17 25-13 16-11 13-9 11-15 16-7 8-11 11-7 8-12 12-8 7-10 10-8 7-11 10-11 9-14 12-17 13-21 16-33 22-17 11-22 13-25 14-25 13-5-1-43-21-22-12-26-15-23-15-18-12-14-10-21-16-16-13-14-12-12-11-10-9-30-30-7-8-10-11-9-11-14-17-14-19-12-17-15-23-15-25-12-22-12-23-14-30-15-37-7-20-10-35-9-37-8-41-6-41-4-43-1-19v-62l2-32 4-36 6-37 3-13 10 1 33 6 32 4 26 2h56l32-3 31-5 36-9 29-10 25-11 22-11 17-10 21-14 16-12 16-13 12-11 8-7z" fill="#fff"/>
<path transform="translate(767,433)" d="m0 0 4 2 15 14 13 11 32 24 14 8 17 8 30 10 33 8 33 6 28 4 21 2 18 1h34l29-2 30-4 29-6h5l2 23 8 121v25l-1 2h-793l-1-1-1-10v-14l9-133 1-8 1-1 11 1 32 4 30 2h40l56-4 30-4 28-6 27-8 27-10 26-12 19-10 20-12 18-12 18-13z" fill="#D11B19"/>
<path transform="translate(758,360)" d="m0 0 8 6 17 14 19 14 27 18 22 13 27 14 17 8 23 9 27 9 28 7 28 5 27 3 20 1h23l31-2 30-4 34-7 22-6h5l6 35 5 39 3 35 1 19v63l-3 43-4 33-6 35-8 36-9 33-12 36-10 27-12 28-14 30-13 25-14 24-13 22-17 25-13 16-11 13-9 11-15 16-7 8-11 11-7 8-12 12-8 7-10 10-8 7-11 10-11 9-14 12-17 13-21 16-33 22-17 11-22 13-25 14-25 13-5-1-43-21-22-12-26-15-23-15-18-12-14-10-21-16-16-13-14-12-12-11-10-9-30-30-7-8-10-11-9-11-14-17-14-19-12-17-15-23-15-25-12-22-12-23-14-30-15-37-7-20-10-35-9-37-8-41-6-41-4-43-1-19v-62l2-32 4-36 6-37 3-13 10 1 33 6 32 4 26 2h56l32-3 31-5 36-9 29-10 25-11 22-11 17-10 21-14 16-12 16-13 12-11 8-7zm0 41-16 13-18 13-18 12-15 9-18 10-22 11-32 13-34 11-29 7-27 5-35 4-15 1h-57l-37-3-23-3h-7l-5 37-3 38v70l3 40 5 40 7 40 10 44 10 37 11 29 13 30 16 34 14 27 14 24 12 20 14 21 12 17 9 12 10 13 14 17 9 10 7 8 12 13 26 26 8 7 11 10 11 9 15 12 19 14 33 22 20 12 18 10 23 12 23 11 6 2 25-13 24-14 20-12 30-20 17-12 21-16 14-11 13-11 14-12 12-11 10-9 40-40 7-8 11-12 9-11 11-13 13-19 10-14 11-18 15-25 14-26 15-31 13-31 13-36 9-30 9-36 7-36 5-35 3-31 2-39v-44l-2-40-4-42-3-20-35 7-37 5-27 2h-41l-27-2-28-4-29-6-29-8-28-10-23-10-25-12-24-14-16-10-20-14-16-12z" fill="#D11B19"/>
<path transform="translate(710,714)" d="m0 0h100v509l-16 10-32 19-5-1-15-9-29-17-3-2z" fill="#D11B19"/>
<path transform="translate(877,714)" d="m0 0h99v381l-21 21-8 7-14 13-11 9-13 11-14 11-9 7h-9z" fill="#D11B19"/>
<path transform="translate(550,714)" d="m0 0h99v460h-8l-18-14-11-9-13-11-11-9-7-7-8-7-23-23z" fill="#D11B19"/>
<path transform="translate(375,715)" d="m0 0h99v282l-5 1-8-11-17-29-15-29-13-28-11-28-13-38-8-29-8-34-1-5z" fill="#D11B19"/>
<path transform="translate(1049,711)" d="m0 0h99v52l-8 35-10 35-13 38-11 27-9 20-9 19-12 22-16 27-6 8-5-1z" fill="#D11B19"/>
<path transform="translate(773,469)" d="m0 0 9 1 12 6 10 9 6 10 23 63 17 49 14 42 4 13v3h-22l-17-48-1-1-38-4-6-1v52h-22v-176l4-13h2l1-3z" fill="#fff"/>
<path transform="translate(619,534)" d="m0 0h4v27l-26 4-51 7h-4v25l81-9v27l-18 2-59 5h-4l1 18 59-2h21v28h-78l-10-4-8-7-4-8-1-3v-70l3-11 9-10 8-5z" fill="#fff"/>
<path transform="translate(740,470)" d="m0 0h2v36l-50 25-23 11-8 4h-2v91l26-2 57-3v33h-83l-6-3-7-8-4-8-3-27v-48l3-27 2-10 6-8 10-7 22-13 19-12 26-16z" fill="#fff"/>
<path transform="translate(865,523)" d="m0 0 11 3 20 7 6 9 15 28 13 23 3 6v2l4-4 15-24 15-23h15l14 1-1 4-23 34-15 22 2 5 28 42 3 6h-25l-29-43-2-2-13 23-11 20-1 1h-29l4-8 6-8 16-26 7-11-1-6-39-66-8-13z" fill="#fff"/>
<path transform="translate(1043,553)" d="m0 0 9 1 9 6 7 10 36 82 4 9v3h-20l-10-17-2-4-39-1-1 6-6 16h-27l1-8 20-79 5-13 7-8z" fill="#fff"/>
<path transform="translate(753,230)" d="m0 0 3 3 16 35 45 5-6 7-11 9-13 12-2 1 1 9 6 29v5l-5-2-22-11-11-6-6 2-31 16h-2l2-13 5-23v-5l-13-12-11-9-8-7v-1l45-6 17-37z" fill="#F1CD01"/>
<path transform="translate(492,297)" d="m0 0 3 3 15 32 1 3 41 4 4 2-12 11-8 7-10 9-2 1 2 12 6 31-6-2-33-17-17 8-19 10h-2l1-10 5-25v-7l-12-11-11-9-8-7v-2l42-5 3-1z" fill="#F1CD01"/>
<path transform="translate(1045,297)" d="m0 0 3 3 12 26 4 9 40 4 5 1-5 5-13 12-8 7-6 5 1 8 7 35-6-2-32-16-3-1-33 17-4 1 5-26 4-16-4-2-11-10-11-9-7-6 1-2 40-5 3-1 14-29z" fill="#F1CD01"/>
<path transform="translate(505,553)" d="m0 0h1v96l-4 13-10 5h-8l-8-4-7-10-16-25-10-15-11-17-6-9v-2h-2v81h-15v-97l3-3 10-5 9 1 5 3 5 6 36 55 10 15 1-84z" fill="#fff"/>
<path transform="translate(787,504)" d="m0 0 6 1 3 3 20 66 3 8v4l-29-2-1-8z" fill="#D11B19"/>
<path transform="translate(1049,584)" d="m0 0 3 3 17 34v2l-25-2-1-4 5-30z" fill="#D11B19"/>
</svg>
