<?xml version="1.0" encoding="utf-8"?>
<!-- Generator: Adobe Illustrator 25.0.1, SVG Export Plug-In . SVG Version: 6.00 Build 0)  -->
<svg width="400" height="400" version="1.0" id="katman_1" xmlns="http://www.w3.org/2000/svg" xmlns:xlink="http://www.w3.org/1999/xlink" x="0px" y="0px"
	viewBox="110 50 350 350" style="enable-background:new 0 0 400 400;" xml:space="preserve">
<style type="text/css">
	.st0{fill-rule:evenodd;clip-rule:evenodd;fill:#FFFFFF;}
	.st1{fill-rule:evenodd;clip-rule:evenodd;fill:#23326A;}
	.st2{fill-rule:evenodd;clip-rule:evenodd;fill:#FABB23;}
	.st3{fill-rule:evenodd;clip-rule:evenodd;fill:#ED1E36;}
	.st4{fill-rule:evenodd;clip-rule:evenodd;fill:#C6CCD2;}
</style>
<path class="st0" d="M452.8,233.1c-0.1-0.5-0.3-1-0.5-1.5l-0.1-0.4l-0.4-1l-0.1-0.4l0-0.3c0.2-1.8-0.3-2.8-1-4.1
	c-0.6-1-1.3-1.4-1.9-1.4c-0.1,0.4-0.5,0.6-0.9,0.6l-0.2,0c-0.5-0.1-0.9-0.6-0.8-1.1l0-0.4c0-0.5-0.1-0.9-0.3-1.4
	c-0.6-1.2-5.1-4.8-6.8-4.8c-1.4,0-2.8,0.8-3.9,2c-0.2,0.2-0.5,0.4-0.8,0.4l-0.1,0c-0.3,0-0.6-0.2-0.8-0.5c-0.1-0.3-0.3-0.6-0.4-0.9
	c-0.3-0.8-0.5-1.6-0.7-2.4l-0.1-0.6c-0.5-2.1-1.2-4.1-3.9-4.9c-0.2-0.1-0.5-0.1-0.9-0.1c-0.3,0-0.6,0-1-0.1l-0.3,0
	c-0.6,0-1.1,0-1.7-0.1c-1.1-0.2-1.9-0.5-1.9-1.8l0.1-0.3l0.3-0.9c0.2-0.6,0.5-1.6,0.8-2.8c0.5-2.2,0.5-4.2,0.1-5.9
	c-0.1-0.3,0-0.6,0.2-0.9c0.2-0.2,0.4-0.3,0.7-0.3l0.1,0c1.1,0.2,2.1,0.2,2.3,0.2c5.9,0,15.2-3.8,15.2-14.1c0-5.9-4.8-11.5-8.8-15.2
	c-0.3-0.2-0.4-0.6-0.3-1c0.1-0.3,0.4-0.6,0.7-0.7c5.7-1.5,8.9-5.3,8.9-10.7v-0.4c0-0.8,0-1.8-0.2-2.8c-0.2-1.4-0.8-2.8-1.6-4.1
	c-0.1-0.1-0.2-0.3-0.6-0.3l-0.2,0c-0.2,0.1-0.5,0.2-0.6,0.3c-0.5,0.4-1.3,1-1.9,1.5c-0.7,0.6-1.5,1-2.7,1.4
	c-0.7,0.2-1.5,0.4-2.3,0.6c-0.4,0.1-0.8,0.2-1.3,0.3c-2.7,0.8-5.7,1.9-9,4.8c-1.5,1.3-2.6,3.6-2.7,5.7c-0.1,1.8,0.6,3.6,2,5.6
	c1.3,1.7,2.9,3.4,4.7,5l0.6,0.6c0.6,0.6,1.3,1.2,1.9,1.8c0.9,0.9,1.6,1.6,2.1,2.3c1.4,1.7,2,3.1,2,4.4c0,2.8-2,4.6-5,4.6
	c-3.3,0-5.9-1.3-9.4-3.6l-1.7-1.1c-1.2-0.8-2.4-1.6-3.8-2.5c-2.5-1.5-4.7-2.8-7.1-3.8c-0.7-0.3-1.3-0.6-2-0.8V60.4H156.9v114.8
	c-1.3,0.3-2.5,0.7-3.7,1.3c-1.7,0.8-3.4,1.8-5.5,3.3c-0.9,0.6-1.8,1.3-2.7,1.9c-0.8,0.6-1.6,1.1-2.3,1.7c-3.5,2.4-6.5,4.1-9.7,4.1
	c-3.2,0-5.5-1.9-5.8-4.8c-0.3-2.6,1-5.1,3.7-7.3l1.5-1.2c1.1-0.9,2.1-1.7,3-2.5c1.5-1.3,2.6-2.4,3.4-3.4c2-2.6,2.5-5.3,1.6-8.7
	c-0.8-3.1-3.1-5.2-7.2-6.4c-1.5-0.4-2.9-0.7-4.3-0.9l-0.5-0.1c-0.4-0.1-0.8-0.1-1.1-0.2c-0.4-0.1-0.8-0.2-0.9-0.2
	c-2.2-1-7-4.2-8-4.9l-0.4-0.3l-0.3,0.4c-0.9,1.3-1.6,2.3-2.1,6.7c-0.6,4.9,3.4,10.8,10.3,11.9c0.4,0.1,0.7,0.3,0.8,0.7
	c0.1,0.4,0,0.8-0.3,1c-7.3,5.7-8.8,8.2-9.2,14.6c-0.2,4,1.2,7.9,3.8,10.7c2.9,3.1,7.2,4.7,12.2,4.7c1.4,0,2.8-0.1,4.3-0.3l0.2,0
	c0.2,0,0.4,0.1,0.6,0.2c0.2,0.2,0.3,0.4,0.4,0.7c0.3,4.5,1.2,8.1,2.2,9.7c0.2,0.4,0.2,0.9-0.2,1.2c-0.3,0.3-0.8,0.6-1.4,0.8
	c-1.6,0.6-3.9,1-6.3,1c-1.5,0-2.6,1-3.4,3.2c-0.3,0.7-0.5,1.5-0.7,2.2l-0.1,0.2c-0.1,0.4-0.2,0.7-0.3,1c-0.1,0.3-0.2,0.5-0.3,0.7
	c-0.3,0.5-0.7,1-1.3,1.6c-0.2,0.2-0.4,0.2-0.6,0.2l-0.2,0c-0.3,0-0.5-0.2-0.7-0.5c-0.7-1.3-1.9-2.1-3.4-2.5l0,0h-0.2
	c-2.2,0-6.1,1.9-7.5,5.4c-0.1,0.3-0.4,0.6-0.8,0.6l-0.2,0c-1.8,0.2-2.9,1-3.5,2.6c-0.3,0.7-0.4,1.4-0.5,2.1l-0.1,0.5
	c-0.1,0.5-0.2,1.1-0.3,1.6c-0.1,0.4-0.3,0.8-0.5,1.2l-0.3,0.6l-0.2,0.4c-0.4,0.7-0.6,1.5-0.3,2.7c0.1,0.6,0.6,1.1,1.4,1.5
	c0.6,0.3,1.3,0.6,2.2,0.8c1.6,0.4,3.1,0.5,3.4,0.5c0.2,0,0.4-0.1,0.6-0.2c0.1-0.1,0.3-0.2,0.5-0.3c0.2-0.1,0.4-0.2,0.6-0.2l0.1,0
	l0.7,0.1c0.6,0.1,1.3,0.3,2.1,0.4l0.1,0l2,0.4l0.8,0.1l0.5,0.1h0c3.1-0.1,4.4-1.3,5.2-2.5c0.2-0.3,0.5-0.7,0.7-1l0.3-0.6l0.3-0.4
	c0.3-0.4,0.5-0.8,0.8-1.2c0.2-0.3,0.5-0.4,0.8-0.4l0.3,0c0.4,0.1,0.7,0.2,1,0.2c0.7,0.1,1.4,0.2,1.6,0.2l0.6,0
	c2.9,0,5.1-1.6,6.9-3.1l0.6-0.5l0.8-0.7c0.4-0.3,0.8-0.7,1.3-1c0.9-0.6,1.6-0.9,2.3-0.9l0.2,0c0.7,0,3.3,0.2,7.8,0.9
	c0.2,0,0.4,0,0.6,0c0.7,0,1.7-0.2,2.7-0.6v21.1c0,14.8,1.9,20.5,6.4,28.4l0.3,0.4l0.3,0.4c26.4,39.4,70.2,62.9,117.2,62.9
	c47,0,90.8-23.5,117.2-62.9l0.3-0.4l0.3-0.4c4.5-7.9,6.4-13.6,6.4-28.4v-20.3c0.3,0,0.7,0.1,1,0.1c0.7,0,1.5-0.1,2.3-0.3
	c0.8-0.2,1.7-0.3,2.5-0.3c0.4,0,0.9,0,1.3,0.1c1.1,0.1,2.1,0.4,2.9,0.6l0.2,0.1c1.3,0.3,2.5,0.8,3.7,1.5c1,0.6,1.8,1.2,2.7,1.9
	l0.2,0.2c1.6,1.2,3.3,2.5,5.6,2.5l0.3,0c0.2,0,0.3-0.1,0.4-0.1l0.4-0.1c0.3-0.1,0.7-0.3,1.1-0.4c0.4-0.1,0.8-0.3,1.3-0.4l0.2,0
	c0.3,0,0.6,0.2,0.8,0.4l0.4,0.6c0.2,0.4,0.5,0.8,0.8,1.2c0.9,1.2,2.5,2.7,6.4,2.8l1,0c2,0,3.2-0.2,3.8-0.2l0.2,0
	c0.2,0,0.4,0.1,0.6,0.2c0.4,0.3,0.8,0.4,1.3,0.4c1,0,2.6-0.3,3.8-0.8c0.7-0.3,1.3-0.6,1.8-0.9c0.6-0.4,0.9-0.9,1-1.4
	C453,234.2,453,233.7,452.8,233.1"/>
<path class="st1" d="M395.9,222c-1.7-2.3-2.8-5.3-3.2-8.7c0-0.3-0.2-0.5-0.4-0.7c-0.2-0.1-0.3-0.2-0.5-0.2l-0.3,0
	c-0.3,0.1-0.7,0.2-1.1,0.3v34.8c0,12.8-1.5,15.8-4.5,20.9c-22.7,33.9-61.2,56.2-104.8,56.2c-43.6,0-82-22.3-104.8-56.2
	c-3-5.2-4.5-8.2-4.5-20.9v-34.6l-0.3,0h-0.3c-0.4,0-0.7,0.2-0.9,0.5c-0.4,0.9-0.9,1.7-1.3,2.6l-0.7,1.5c-0.7,1.4-1.4,2.7-1.9,3.3
	c-0.5,0.6-1,1-1.4,1.3v25.3c0,13.6,1.6,17.8,5.4,24.3l0.1,0.2l0.1,0.2c24.8,37.1,66.1,59.2,110.3,59.2c44.2,0,85.5-22.1,110.3-59.2
	l0.1-0.2l0.1-0.2c3.7-6.5,5.4-10.7,5.4-24.3v-24.4C396.6,222.8,396.2,222.4,395.9,222"/>
<path class="st1" d="M170.5,170.7l0.4-0.3l1-0.9V75.3h218.4v93.6c0.7,0.4,1.3,0.9,2,1.3c0.6,0.4,1.2,0.8,1.7,1.1c1,0.7,2,1.1,3,1.4
	V68.6H165.2v105.3c1-0.3,2-0.7,3-1.3C168.8,172.1,169.5,171.6,170.5,170.7"/>
<path class="st1" d="M163.6,174.2V67h235v106.3c0.4,0.1,0.8,0.2,1.3,0.3l0.5,0.1c0.6,0.1,1.3,0.3,2,0.4V63.3H159.8v111.4
	c0.6-0.1,1.1-0.1,1.7-0.2C162.2,174.4,162.9,174.3,163.6,174.2"/>
<path class="st1" d="M398.8,224.3l-0.2-0.1v23.3c0,14-1.7,18.4-5.6,25.1l-0.1,0.2l-0.2,0.2c-25.1,37.5-66.9,59.9-111.7,59.9
	c-44.8,0-86.5-22.4-111.7-59.9l-0.2-0.2l-0.1-0.2c-3.9-6.7-5.6-11.1-5.6-25.1v-24.4l-0.8,0.4l-0.1,0.1c-0.4,0.2-0.7,0.3-1,0.5
	c-0.6,0.4-1.2,0.7-1.8,1.1v22.4c0,14.8,1.9,19.8,6.1,26.9l0.2,0.4l0.2,0.3c25.8,38.6,68.7,61.6,114.8,61.6s88.9-23,114.8-61.6
	l0.2-0.3l0.2-0.4c4.1-7.2,6.1-12.2,6.1-26.9v-21.2c-1-0.5-2-1.1-2.8-1.6L398.8,224.3"/>
<path class="st2" d="M334.5,208.1c-0.3,1.8,2,4.5,2.6,5.8c0.3-0.6,2.2-5,2.5-5.5C338.7,208.3,336.2,208.3,334.5,208.1"/>
<path class="st2" d="M225.2,212.5c0.9-1.6,1.9-1.9,2.6-2.7c0.4-1.1,0.9-1.7,1.7-2.7c-1.8,0.3-5.3,0.9-6.7,1.2
	C223.1,209.4,223.4,211.8,225.2,212.5"/>
<path class="st2" d="M337.4,224.4c-0.1-0.4-0.2-0.7-0.3-1.1c-0.1-0.4-0.5-0.7-0.9-0.8h0c-0.4,0-0.8,0.3-0.9,0.7
	c-0.5,1.6-1.8,4.2-5.3,4.4l-0.3,0c-1.6,0-3.7-0.8-5-1.3l-0.6-0.2c-0.7-0.3-1.4-0.5-2-0.8c-0.9-0.3-1.6-0.5-2.2-0.5l-0.4,0l-0.6,0
	c-0.4,0-0.8,0.1-1.3,0.1c-0.9,0.1-1.8,0.2-2.8,0.2h-0.2c-2.1,0-3.7-0.6-4.9-1.8c-0.2-0.2-0.4-0.3-0.7-0.3c-0.3,0-0.5,0.1-0.7,0.3
	c-3.1,3.3-7,4.9-11.5,4.9h-0.4c-0.9,0-2.6-0.5-3.3-1.4c-0.3-0.4-0.4-0.7-0.3-1.2c0.1-0.3,0-0.6-0.2-0.8c-0.2-0.2-0.5-0.4-0.7-0.4
	c-2.5,0-4.1-1.3-4.4-2.4c-0.3-0.9,0.1-1.8,1.1-2.5l0.2-0.2c0.4-0.2,0.8-0.5,1.3-1c0.8-0.7,1.8-1.6,2.9-2.8c2.4-2.5,4.1-5.5,5.6-9.4
	c1.2-3.4,2.1-7.1,2.9-10.7l0.1-0.5c1.7-7.4,3.6-15.7,9.6-22.3c4.5-4.9,7.9-7.5,17.3-14.2c1.6-1.1,3.2-2.5,4.8-3.8
	c-7.1-9.7-16.7-17.3-28-21.9c4.9,5.7,7.9,13.1,7.9,21.2c0,17.9-14.5,32.5-32.5,32.5c-17.9,0-32.5-14.6-32.5-32.5
	c0-8,2.9-15.3,7.7-21c-10.4,4.3-19.4,11.3-26.2,20c1.7,1.2,3.3,2.4,5.3,4.1c1.3,1.1,2.8,2.3,4.5,3.8c1.2,1,2.5,2.2,4.1,3.4
	c0.9,0.9,2,2.2,3.4,3.9c0.5,0.6,0.9,1.1,1.3,1.7c0.6,0.8,1.2,1.6,1.7,2.2c4.2,5.2,6.8,8.6,7.4,12.8c1.2,8.3,1.9,13,5.2,21.3
	c0.1,0.2,0.2,0.4,0.4,0.6c0.2,0.2,0.4,0.5,0.6,0.7l0.7,0.8c0.3,0.3,0.5,0.5,0.7,0.8c0.5,0.7,1,1.5,1.3,2.2l0.3,0.6
	c0.3,0.6,0.6,1.1,0.9,1.7c0.7,1.3,1.8,2.9,3.7,3.9c1.9,1.1,2.3,1.3,3,1.9c0.3,0.3,0.5,0.6,0.5,1c0,0.6-0.4,1.3-0.9,1.8
	c-0.6,0.5-1.4,0.9-2.4,1.1c-0.3,0-0.5,0.2-0.7,0.4c-0.1,0.2-0.2,0.5-0.1,0.8c0.2,0.7,0,1.3-0.4,1.9c-0.6,0.8-1.8,1.3-3.2,1.4l-0.6,0
	c-6.1,0-10.3-2.9-12.2-4.6c-0.2-0.2-0.4-0.3-0.6-0.3c-0.2,0-0.4,0.1-0.6,0.2l-0.3,0.2c-0.7,0.5-1.8,1.3-3.1,1.8
	c-0.9,0.4-2,0.7-3.3,0.7c-0.5,0-1,0-1.4-0.1l-0.9-0.1c-0.5,0-0.9-0.1-1.4-0.1l-0.7,0c-0.5,0-1,0-1.4,0.1c-1.1,0.2-2.3,0.6-3.5,1
	l-0.8,0.3c-1.5,0.5-3.1,1-4.6,1l-0.4,0c-2.2,0-3.8-0.8-4.7-2.5c-0.2-0.3-0.3-0.7-0.5-1.1c-0.1-0.4-0.5-0.7-0.8-0.7l-0.1,0
	c-0.4,0-0.7,0.2-0.9,0.5l-0.1,0.1c11.1,19.9,32.3,33.4,56.8,33.4C305.1,257.7,326.3,244.3,337.4,224.4L337.4,224.4"/>
<g>
	<path class="st3" d="M209.6,97.2c0-7.8-6.1-14-13.6-14c-0.2,0-1.3,0-1.5,0h-15.9v47.5h9.6V91.4l5.7-0.1c3.6,0,6.3,2.8,6.3,6.2
		c0,3.4-2.9,6.2-6.4,6.2l-2.2,0.1v11.3l9.6,15.6h11.4l-13.3-19.9C205.2,109.4,209.6,103.8,209.6,97.2"/>
	<path class="st3" d="M220.2,112.4c0-3.2,2.5-5.8,5.7-5.8c3.1,0,5.7,2.6,5.7,5.8H220.2z M225.8,100c-8.5,0-15.3,7.1-15.3,15.9
		c0,8.8,6.9,15.9,15.4,15.9c6.5,0,11.5-3,14.1-7.7l-7.5-3.6c-1,2.1-3.2,3.6-5.8,3.6c-3.5,0-6.3-2.7-6.3-5.9l-0.1-0.3l20.5,0
		c0.1-0.7,0.1-1.3,0.1-2C240.9,105.6,234.2,100,225.8,100"/>
	<path class="st3" d="M253.1,116.2c0-4.1,3.1-7.4,6.9-7.4c3.8,0,6.9,3.3,6.9,7.4c0,4.1-3.1,7.4-6.9,7.4
		C256.2,123.6,253.1,120.3,253.1,116.2 M276.1,121.7l0-40.1h-9.4l0,23c-2.5-2.4-5.8-3.9-9.4-3.9c-7.7,0-14,6.8-14,15.2
		c0,8.4,6.3,15.2,14,15.2l0.2,0C262.4,126.1,268.9,122.7,276.1,121.7"/>
	<path class="st3" d="M374.5,82h9.1v48.8h-9.1V82z"/>
	<path class="st3" d="M344,118.7c0,2.9-2.4,5.2-5.3,5.2c-2.9,0-5.3-2.3-5.3-5.2v-17.1h-9.2v19c0,6.4,6.5,11.6,14.5,11.6
		c8,0,14.5-5.2,14.5-11.6v-19H344L344,118.7L344,118.7z"/>
	<path class="st3" d="M305.6,122.4h-8.7v-31h6c2.7,0,4.8,2.3,4.8,5.1c0,2.8-2.2,5.1-4.8,5.1h-3.1v8.6h5.8c3.2,0,5.6,2.7,5.6,6.1
		C311.1,119.8,309.1,122.2,305.6,122.4 M313.1,104.7c2.5-2.4,4-5.7,4-9.3c0-3.2-1.2-6.2-3.3-8.6c-2.2-2.5-6-3.6-11.1-3.6h-15.5v38.8
		c6.2,1.3,11.8,4.4,16.1,8.7h3.9c7.7-0.1,13.8-6.3,13.8-13.7C321.1,111.6,319.2,107.7,313.1,104.7"/>
	<path class="st3" d="M359.2,82h9v48.8h-9V82z"/>
</g>
<path class="st4" d="M256.2,171.4c9.5,6.8,22.8,7.9,33.3,2.3c11.3-5.9,18.2-18,17.2-31c-0.2-1.9-0.5-3.7-1-5.5
	c3.2,4.8,5,10.5,5,16.7c0,16.6-13.5,30.1-30.1,30.1C270.5,184,261.6,179,256.2,171.4"/>
<g>
	<path class="st1" d="M271.7,161.4c-7-1.7-11.8-3.4-11.8-3.4c-0.8-7.3-0.1-13.6-0.1-13.6c3-1.6,11.3-5.3,11.3-5.3
		c3.9,4.5,7.7,10.4,7.7,10.4C276.9,153.1,271.7,161.4,271.7,161.4 M260.1,131.9c-0.7,1.2-2.8,4.6-4.6,8.8c-1.8,2.2-3.3,4.4-3.9,5.4
		C253,140.5,256.1,135.7,260.1,131.9 M291.7,149.4c0,0,2.6-5.5,5.8-9.9c0,0,6.1,2.9,9,5.2c0,0,1.1,3.3,0.3,12.9c0,0-3.6,2.1-8.9,3.4
		C297.9,160.9,294.3,154.9,291.7,149.4 M278,171.9l13-0.4l2.5,7.1c-4.9,2.9-10.8,4.5-10.8,4.5c-6.2-1.4-9.8-4-9.8-4L278,171.9
		L278,171.9z M280.6,123.8c4,0,7.8,0.8,11.2,2.2c-0.1,0.6-0.5,2.1-1.8,4.2c-6.3-0.8-13.2-0.2-13.2-0.2l-5.8-4.6
		C274,124.4,277.2,123.8,280.6,123.8 M261.3,177c-5-4.2-8.6-9.9-10.1-16.5c1.6,1.7,4.7,4.9,4.7,4.9c1.9,3.9,6.6,10.6,6.6,10.6
		C262.2,176.4,261.7,176.8,261.3,177"/>
	<path class="st1" d="M184.5,266.3l2.9,3.5l9.8-8.1c3-2.5,8.8-7.7,11.5-10.3l0.1,0.1c-6.7,7.3-12.2,14.9-18.3,22l2.7,3.3l33.8-28
		l-2.9-3.5l-9.8,8.1c-3,2.5-8.8,7.7-11.5,10.3l-0.1-0.1c6.7-7.3,12.2-14.9,18.3-22l-2.7-3.3L184.5,266.3L184.5,266.3z"/>
	<path class="st1" d="M242.5,261.6l-7.2-5.5c-2-1.5-4.8-1.1-6.4,0.9l-21.1,27.6c-1.5,2-1.2,4.8,0.8,6.4l7.2,5.5l2.8-3.6l-7.2-5.5
		l9.2-12l5.4,4.1l2.8-3.6l-5.4-4.1l9.2-12l7.2,5.5L242.5,261.6L242.5,261.6z"/>
	<path class="st1" d="M232.2,306l3.9,1.5c3.6-5.7,7.6-11.1,11.6-19.6l0.1,0c-2.8,9-3.6,15.7-4.8,22.3l3.9,1.5l17.4-40.3l-4.3-1.7
		c-2.9,7.3-6,14.6-8.9,21.9c-1,2.6-1.9,5.3-3,7.9l-0.1,0c1.9-7,2.6-12,3.7-16.9l-3.5-1.4c-2.5,4.4-5.4,8.5-8.8,14.9l-0.1,0l3.2-7.9
		c2.9-7.3,5.6-14.8,8.4-22.1l-4.3-1.7L232.2,306L232.2,306z"/>
	<path class="st1" d="M290,316.1l4.5-0.5l-2.1-19.5c1.3-0.7,2.3-1.7,3-2.9c0.7-1.2,0.9-2.6,0.8-4l-1.9-17.7l-4.5,0.5l2.2,19.6
		l-4.5,0.5l-2.2-19.6l-4.5,0.5l2,17.7c0.2,1.4,0.7,2.7,1.7,3.8c0.9,1,2.1,1.7,3.6,2.1L290,316.1L290,316.1L290,316.1z"/>
	<path class="st1" d="M323.4,303.1l-4.2,1.7l-12.6-32.4l4.2-1.7L323.4,303.1L323.4,303.1z M314.2,304.6c1.4,3.5,5.3,5.2,8.8,3.9
		c3.5-1.4,5.2-5.3,3.9-8.8l-11.2-28.9c-1.4-3.5-5.3-5.2-8.8-3.9c-3.5,1.4-5.2,5.3-3.9,8.8L314.2,304.6z"/>
	<path class="st1" d="M325.4,262.5l3.7-2.7l9,12.2l-3.7,2.7L325.4,262.5L325.4,262.5z M345,296.9l3.7-2.7L337,278.3l3.7-2.7
		l9.7,13.2c0.7,0.9,1.8,1.6,2.7,2l3.8-2.8c-1.2-0.5-2.1-1-2.8-2l-8.7-11.8c-1.6-2.2-2.9-2.4-4-2.1c0.5-1.2,0.8-2.3-0.4-4l-8.2-11.2
		c-1.5-2-4.3-2.5-6.4-1l-7.3,5.4L345,296.9z"/>
	<path class="st1" d="M344.3,238l-3,3.5c0,0,0.7,1.9,2.1,3.2c1.5,1.3,8.4,7.2,8.4,7.2s3.3,2.5,0.2,6.1l-14.3-12.3l-3,3.4l33.3,28.6
		l2.9-3.4l-15.4-13.2c0,0,3-3.4,5.8-1c2.5,2.1,9.9,8.5,9.9,8.5s1.6,1.5,3.3,1.5l3-3.5c0,0-1.9-0.2-4-1.9c-2.1-1.8-8.2-7.1-8.2-7.1
		s-5.5-5.2-10.4,0.5c0,0,4.2-5.7-1.9-11c-4.9-4.2-7.3-6.3-7.3-6.3S344.6,239.6,344.3,238"/>
</g>
<g>
	<path class="st3" d="M199.3,219.5c1.1,1.2,1.1,3.2,2.4,4.1c1.7,0.3,3.2-0.4,4.5-1.4c0.7-0.6-0.3-1.4-0.5-2.2
		c-0.7-1.1-0.2-3.2-2-3.3c-1.8,0.3-3.6,0.3-5.4,0.3l-0.5,0.3C197.4,218.6,199,218.6,199.3,219.5"/>
	<path class="st3" d="M113.3,225.5c-0.9,0.5-1.9,1.3-2.1,2.3c-0.3,1.8,0.1,3.5-1.3,4.8c-0.1,0.3-0.4,0.7-0.1,1.1
		c1.2,0.4,2.4,0.9,4,1.1c0.7-2.2,1.2-4.6,2-6.6v-0.6C115.2,226.8,114.5,225.8,113.3,225.5"/>
	<path class="st3" d="M253.8,201.1l-0.2,0.5l-0.1,0.5c-0.2,0.4-0.4,0.7-0.8,0.8c-0.2,0.1-0.4,0-0.6-0.1c-0.2-0.1-0.3-0.3-0.3-0.6
		l0-0.5l-0.2-1.7c-0.1-0.8-0.4-1.4-0.8-2l-0.8-0.9l-0.9-1c-0.7-0.7-1.3-1-1.9-1c-0.5,0.2-0.9,0.5-1.4,1l-0.6,0.7l-0.5,0.7
		c-0.2,0.3-0.6,0.1-0.6,0.1l-0.1,0l0-0.1c-0.1-0.3-0.2-0.7-0.2-1c0-0.5,0.2-1,0.3-1.4l0.5-0.9l0.5-1.1l0.1-0.1
		c0.2-0.2,0.3-0.4,0.5-0.9l0.1-0.4l0.3-0.8c0.5-1,1.2-1.3,2.2-0.8c0.8,0.4,1.3,1.1,1.7,1.7l0.3,0.4l0.3,0.5l0.7,0.9
		c1.8,2.1,2.7,4,2.7,6C254,200.1,253.9,200.6,253.8,201.1 M246.9,216.5L246.9,216.5L246.9,216.5c-1.1,0.4-2.3,0.5-3.6,0.4l-0.1,0
		l-0.2-0.1l-0.3-0.2c-0.1-0.1-0.3-0.3-0.2-0.6c0.5-1.5,2-3.2,3.8-3.5l0.2,0h0.3l0.4,0.1c0.2,0.1,0.5,0.2,0.6,0.7
		c0,0.3,0.1,0.6,0.1,0.9C247.8,215,247.6,216,246.9,216.5 M225.3,179.2l-0.1,0l0,0.1l0,0c-0.2,0.2-0.4,0.3-0.7,0.1l-0.1-0.1l0-0.1
		c-0.4-2.3-0.9-4.7-1.9-6.9l-0.5-0.9l-0.2-0.3l-0.4-0.7c-0.4-0.6-0.7-1.3-0.2-2.3l0.1-0.1c0.4-0.4,1.1-0.4,1.6-0.3l0.1,0
		c1,0.7,1.6,1.8,2,2.6c0.6,1.3,0.9,3,0.9,4.7c0,1.3-0.2,2.7-0.5,3.9L225.3,179.2 M269.7,219.1c-3.4-2-4.8-5.7-6.9-8.7
		c-0.7-1.1-2-1.8-2.7-2.8c-2.4-6.6-4.5-13.3-5.2-20.9c-0.5-1.9-0.9-3.8-1.9-5.6c-3.1-5-7-9.5-10.9-14.1c-0.3-0.3-0.3-0.4-1.1-1.1
		l-13.4-11.2c-1.6-1.2-3.5-2-5.4-2.9c-2.8-1.1-6.7-0.8-9.5,0.3c-2.9,1.5-5.5,3.7-8.6,4.8c-4.4,2-9.4,2.4-13.2,5.8
		c-2.2,1.9-4.1,4.9-7.4,4.4c-3.7-0.2-7,1.2-9.7,3.5c-2.5,2.3-4.9,4.9-8.1,5.6c-2.8,1.2-6.3,0.6-9.2,1.7c-4.6,1.1-8.2,4.8-12.1,7.5
		c-3.9,2.3-7.7,4.7-12.5,4.6c-3.2-0.2-6.2-2.4-7.3-5.5c-1-3.5,0.1-7.1,2.9-9.5c2.9-3.5,7.5-5.5,9.7-9.5c1.2-2.1,1-5.5-0.6-7.5
		c-3-3.1-7.3-3.2-11.2-4.2c-2.5-0.7-4.4-2.6-6.6-3.8c-0.8,1.3-1.1,2.7-1,4.3c0.5,3.6,3.2,6.8,6.6,8c2,0.9,4.3,0.2,6.3,0.7
		c0.6,0.2,1.1,0.8,1.2,1.4c-0.1,0.6-0.2,1.1-0.7,1.5c-3.2,2.7-6.5,5.2-9.2,8.5c-2.8,3.1-3.2,8.4-1.7,12.3c1.6,4.4,6.2,7.3,10.7,7.9
		c3.2,0.5,6.1-0.3,9.1-1c0.4,0,0.6,0.4,0.7,0.6c0.3,2.6-0.1,4.9,0.5,7.3c0.5,2.2,1.2,3.7,2,5.9c0.1,0.7,0,1.5-0.5,2.1
		c-1.6,1.3-3.3,2.1-5.2,2.9l-4.4,0.3l-0.9,0.4c-1.6,1.9-1.7,3.9-2.7,6.1c-1.4,2.3-3.9,3.3-6,4.6c-0.7,1.1-1.4,2.2-2.4,3.1
		c-0.7,0.7-1.6,0.9-2.6,1c-1.5,1.8-1.9,4.2-2.3,6.6c2.5,0.2,5.1,1.6,7.5,0.2c2.1-1,2.6-3.5,4.1-5c1.2-1.4,3.1-0.3,4.6-0.1
		c2.2,0.1,3.8-1.5,5.7-2.2c1.3-0.8,2.4-2.3,3.7-3.2c2.6-1.2,6.2-0.6,9-0.1c2.2,0.6,4.4,0.2,6.3-0.6c1.8-1.1,3.4-2.4,5.4-2.9
		c1.8-0.9,2.6-2.9,3.3-4.5c0.6-1.5,2-2.7,1.9-4.5c-0.5-0.4-1-1.3-1.6-1.2c-0.9,1.2-1.5,2.4-2.4,3.6c-4.1,5.6-7.3,6.1-15.6,6.1
		c-6.2-0.2-11.7,1.6-16,6.5c-0.3,0.2-0.7,0.1-0.9-0.2c-0.2-0.7,0.4-1.8,0.7-2.3c3.8-5.4,9.7-6.6,15.9-6.7c3.4-0.2,6.6-0.8,9.5-2.3
		c3.2-1.6,5.4-4.2,6.8-7.4c0.7-3.6,1-7.4,1.9-10.8c0.1-0.3,1-0.6,1.2-0.5c0.3,0.1,1,0.4,1,0.8c-0.6,3.5-1.7,7.6-0.4,11
		c2.7,3.6,7.8,1.6,11.5,1.5c3.9-0.3,6.9,0,10.6,0.2c1.8-0.1,3.2,0.4,4.6-0.7c0.4-0.6,0.6-1.5,0.4-2.1c-0.1-1-1-1.6,0-2.5
		c0.3-0.2,1.1-0.1,1.4,0.2c0.5,1.4,0.7,2.9,1.6,4.2c1.8,2.3,4.5,4.1,7,5.4c2.4,1.6,4.4,4,4.5,6.9c0,1.5-1.4,2.5-2.5,3.2
		c-1.9,1-4,1.8-6.3,1.5c-3-1.5-3.8-4.6-5.8-7c-1-1.1-2.5-1.4-4.1-1.2c-1.6,0.2-3.3,0.2-4.8,0.7c-0.4,0.3-0.5,0.8-0.5,1.4
		c1,1.9,2.2,3.7,3.3,5.6c1.3,0.8,3.1-0.5,4.3,1c1,1.5,1.6,3.2,3.1,4.4c1.4,1.2,3.6,1.8,5.4,1c4.2-1.3,8.4-2.7,12.3-4.8h1.3
		c1.6-0.2,3.3-0.1,4.5-1.2c1.2-1.8,2.3-3.5,3.2-5.4c1-1.3,0.5-3.3,0.1-4.7c-1.9-2.4-3-5-4-7.8c-1-0.3-1.8-0.8-2.9-0.8
		c-0.5,0.2-1.2,0.1-1.5,0.7l4.5,8.8c0.3,0.7,0.6,1.6,0.5,2.5c-0.6,1.9-1.6,3.7-3.1,5c-0.3,0.2-0.6,0.3-0.8-0.1
		c0.5-1.9,1.4-4,1.3-6.2l-4.4-7.9c-0.5-1.1-1.4-2-1.4-3.3c0-0.6,0.5-1,1-1.2c1.9-0.6,4.2-0.5,5.7-2c1.9-3,2.3-6,2.8-9.5
		c0.1-0.2,0.6-0.7,0.9-0.7c0.3-0.1,0.7,0.4,0.9,0.5c0.6,3.9-0.2,7.9-2.5,10.9c-0.1,0.4-0.3,0.9,0.2,1.2c2.2,0.7,4.4,0,6.2-1
		c2.3,0.1,4.5-0.5,6.6-0.8c0.2,0.1,0.5,0.3,0.5,0.6c-1.4,1.6-2.2,3.3-2.6,5.4c-1.7,1.8-4.1,3.3-4.3,5.8c0.3,1.2,1.4,0.1,2.1,0.2
		c0.3,0.1,0.6,0.3,0.6,0.7l-1.7,2.5c-0.9,1.5,0.2,3.2,0.2,4.6c0.4,1.1,1.8,1.7,2.9,1.7c2.6-0.1,4.8-1.1,7.1-1.9
		c2.5-1.1,5.6-1,8.3-0.6c2.7-0.2,4.6-1.9,6.6-3.7c1.1,0,2,0.7,2.8,1.5c3.1,3.3,7,4.7,11.5,4.6l0.4-0.2c0.3-0.3,0.2-0.8-0.2-1
		l-2.7-1.4c-1.9-1.2-4.2-2.8-4.8-4.9c-0.6-1.9-1.6-3.9-2.7-5.7l-1.7-2.6c0.1-0.1,0.2-0.3,0.4-0.2c2.9,1,4.7,3.9,6.1,6.5
		c2.2,3,5.3,5.6,9.4,4.9l0.3-0.3c0.2-0.2,0.1-0.5,0-0.7L269.7,219.1L269.7,219.1z"/>
	<path class="st3" d="M119.3,225.4c1.8-1,2.9-2.9,3.8-4.6c-0.2-0.6-0.8-1.1-1.3-1.5c-0.3-0.3-0.8-0.1-1.2,0.1
		c-1.2,1.1-2.5,1.9-3.9,2.8c-0.6,0.4-0.3,1.2-0.5,1.9c0,0.6,0.7,1,1,1.3C117.8,225.5,118.6,225.6,119.3,225.4"/>
	<path class="st3" d="M359.8,217.8c-1.5,0.3-3.3-0.1-4.8,0.2c-0.7,1-1.3,2.3-1.1,3.6c0.2,1.4,1.8,1.5,2.8,1.9c1,0.1,2.4,0.4,2.9-0.6
		c0.6-1.5,1.1-3.1,1.3-4.6C360.7,217.9,360.3,217.7,359.8,217.8"/>
	<path class="st3" d="M345.5,165.8l-0.2,0.5l-0.3,0.4c0,0-1.8,1.7-1.8,1.7l-1.9,1.8c-1.4,1.4-2.4,2.6-3.2,3.7
		c-0.6,0.8-1.1,1.8-1.5,2.7c-0.1,0.3-0.5,0.3-0.7,0.2l-0.1,0l0-0.1c-0.1-0.4-0.2-0.7-0.2-1.2c0-0.3,0-0.7,0.1-1l0.4-1.4l0.2-0.6
		c1.1-2.9,3.5-5.9,6.7-8.3c0.4-0.3,1.2-0.4,1.7-0.3c0.3,0.1,0.6,0.3,0.7,0.7c0.1,0.2,0.2,0.5,0.2,0.7
		C345.6,165.4,345.6,165.6,345.5,165.8l0.1,0.1L345.5,165.8 M322.4,198l-0.2,0.5c-0.1,0.2-0.3,0.4-0.5,0.5c-0.2,0.1-0.5,0.2-0.8,0
		c-0.3-0.1-0.5-0.3-0.7-0.6l-0.2-0.4l-0.2-0.4c-0.3-0.4-0.5-0.8-1.1-0.7c-0.5,0-0.9,0.2-1.3,0.4l-0.4,0.3l-0.2,0.2l-0.6,0.4
		l-0.8,0.7l-0.4,0.3l-1.1,1.1c-0.8,0.9-1.3,1.6-1.4,2.5l-0.2,0.6l0,0.3l-0.1,0.4c-0.1,0.4-0.2,0.8-0.6,1.1c-0.3,0.1-0.6,0-0.9-0.2
		c-0.2-0.2-0.3-0.4-0.3-0.6c-0.2-2.7,0.7-5.3,2.6-7c1-0.8,1.8-1.7,2.4-2.6l0.7-0.9l1.5-1.8l0.2-0.1c1.1-0.2,1.8,0.8,2,1.2
		c0.9,1.2,1.7,2.6,2.4,4.3c0,0.1,0.1,0.3,0.1,0.4L322.4,198 M321.1,217.6L321.1,217.6c-0.4,0.3-0.9,0.4-1.5,0.4l-1.1-0.1l-0.4-0.1
		l-0.1,0c-1.1-0.6-1.4-1.8-1.5-3.1c0-0.4,0.1-0.7,0.4-1l0.1,0h0.1c1.5,0,2.6,0.4,3.3,1.3l0,0.1l0.2,0.4l0.3,0.7l0.1-0.1l-0.1,0.1
		c0.1,0.3,0.1,0.5,0.1,0.7C321.3,217.2,321.2,217.4,321.1,217.6 M441.8,228.4c-2.9,0.2-4.3-2.9-6-4.8c-1.4-1.6-4.2-2.6-4.1-5
		c-0.5-1-0.6-2.5-1.1-3.7c-0.4-1-0.8-2.5-2.2-2.7c-2.4-0.4-5.4,0.3-6.9-2c-1.6-1.7,0.2-3.7,0.5-5.3c0.7-2.1,0.7-4.9,0.4-7
		c-0.1-1.2-0.9-2.3-0.7-3.5c0.6-1.1,1.9-0.3,2.8-0.2c3.2,0.9,6.9,0.5,9.8-0.8c4-1.9,7.1-6,7-10.5c-0.6-5.9-4.8-10.8-9.4-14.7
		c-0.8-0.7-1.9-1.5-2.2-2.6c-0.1-2.3,2.5-1.2,3.8-1.8c1.6-0.4,3.2-0.8,4.5-1.7c3.5-2.3,4.2-6.4,3.5-10.4c-0.1-0.3-0.1-0.9-0.6-0.9
		c-0.6,0.5-1.2,1.2-2,1.7c-2.2,1.3-5.2,1.1-7.5,2.2c-2.9,1.2-6.5,3-7.7,6.3c-0.3,1.6,0.1,3.3,0.8,4.7c3.5,5.6,10.9,9.2,12.1,15.9
		c0.4,2.7-0.9,4.7-3,6.2c-3.2,1.9-7.9,1.2-11.1-0.5c-6.1-3.1-11.4-8.2-18-10.3c-4.1-1.9-9.2-1.4-12.9-4.3c-2.8-1.8-5.3-4.2-8.4-5
		c-2.2-0.7-4.6-0.6-6.6-1.7c-2-1.8-4.2-3.5-6.6-4.7c-3.3-1.6-6.9-2.5-10.5-3.3c-2.2-0.5-2.9-2.9-4.7-4.1c-3-2.4-6.3-4.1-10.4-3.7
		c-1.7,0.1-3,1.2-4.3,2.4c-8.7,7.6-18.6,12.8-26.5,21.5c-5.3,5.5-6.7,12.5-8.7,19.2c-2.8,10.2-4,21.4-14.3,27.7
		c-0.2,0.3-0.2,0.8,0.2,1c2.7,0.7,5.4-0.4,7.2-2.3c1.8-2.8,3.6-5.4,6-8l0.6-0.3c0.3,0.1,0.6,0.2,0.5,0.6l-3.4,6.2
		c-0.9,2.7-3.5,4.8-5.7,6.7l-0.1,0.3c0,0.3,0.3,0.6,0.6,0.6c5,0.2,8.6-3.3,11.9-6.7c0.3-0.3,0.8-0.3,1.2-0.2
		c1.5,1.1,2.8,2.8,4.8,3.2c2-0.3,4.2-0.6,6.3-0.4c3,0.9,5.9,2.1,8.9,3.2c1.5-0.1,2.7-1.5,3.5-2.8c0.6-1.5-0.3-2.9-0.2-4.4
		c0.7-0.5,1.6,0.1,2.4-0.1c0.3-0.2,0.6-0.6,0.6-1c-0.6-2.6-2.9-4.5-3.6-7c-1.1-3.1-4.8-5-5.5-8.3c0.2-0.2,0.5-0.6,0.7-0.3
		c2.4,1.8,4.6,4.1,7.6,4.5c2.3,0.2,4.6,0.5,6.9,0.3c0.3-0.1,0.6-0.5,0.5-0.9c-1-2-1.9-4.1-2.4-6.3c-0.8-2.8-1.4-6.6-0.5-9.7
		c0.2-0.2,0.9-0.7,1.2-0.5c0.5,0.1,1,0.7,1.1,1.1c0.3,4.8-0.2,9.2,2.7,13c1.2,2,3.4,2.4,4.9,3.9c0.6,0.8,0.7,2.1,0.3,3l-3.5,5.1
		c-0.8,1.1-1.6,2.4-1.9,3.6c-0.3,1.4-0.1,2.8,0,4.1c-0.2,0.1-0.3-0.2-0.6-0.3c-0.9-1.9-1.9-4.3-1-6.5l4.4-6.7l0.2-0.5
		c-1-0.5-2-1-3.1-1.2c-0.5,0.2-0.9,0.7-1.2,1.2l-4.2,7.7c-0.3,0.9-0.6,1.6-0.3,2.6c0.2,1.1,0.5,2.3,1,3.2c0.3,1.6,0.6,2.7,1.4,4.1
		c1.1,1.2,2.6,0.1,3.9,0.5c1.4,0.3,1.9,2,3.2,2.4c3.1,1,6.4,1.6,9.4,2.8c1.6,0.5,3.9,1.1,5.3-0.2c2-1.1,2.5-3.2,2.8-5.2
		c0.6-0.8,1.9-0.5,2.8-0.8c1.7-1.1,2.3-3.2,3.5-4.7l0.2-0.8c-0.2-0.5-0.6-0.8-1.1-1h-5.8c-2.7,0.3-2.9,3.3-4,5.1
		c-0.6,1.1-1.9,1.6-3.2,1.5c-2.7-0.7-6.1-1.1-7.3-4.1c-0.2-0.7-0.2-1.6,0.4-2.2c1.4-1.6,3.1-3.5,4.9-4.9c2.5-0.5,4.9-2.4,6.2-4.6
		c0.7-1,0.6-2.4,1.7-3.1c0.3-0.1,1.1-0.1,1.3,0.3c0.5,1.6-0.4,2.8-0.9,4.2c6.2,0.6,11-1.2,17-0.9c2.6,0,4.8,0.3,7.3,0.1
		c2.5-0.1,5.2-1.1,6-3.7c1.1-3.3-0.4-7.1-1-10.3l0.7-0.5c0.4-0.2,1.1,0.1,1.3,0.3c1.1,3,1.8,6.6,2.3,9.9c0.5,2.9,1.7,4.8,3.3,7.2
		c2.9,4.3,8,6,13,4.9c6.1-0.5,11.4,2.8,15.1,7.5v0.3c-0.1,0.2-0.3,0.5-0.6,0.5c-3.2-2.5-6.5-5.2-10.6-5.7c-4.2-0.8-7.9,1.4-12.3-0.3
		c-5.3-1.7-7.5-5-9.7-10.1h-0.5c-0.3,0.1-0.6,0.4-0.6,0.7l0.6,3.5c0.7,2.8,1.6,6.2,4.6,7.5c2.4,1.4,4.7,3.5,7.6,2.7
		c5.2-1.1,10.4,0.3,14.3,3.2c1.3,0.7,2.3,2.1,3.7,2.6c1.5,0.6,3.4,0.3,4.6-0.7c2.9-1,3.6,2.7,5.6,4c1.8,1.7,5.3,1,7.6,1l-0.1-0.3
		C443.4,232.3,442.7,230.5,441.8,228.4"/>
	<path class="st3" d="M449.5,231.4c-0.3-1.3,0.1-3.1-0.8-4.3c-0.7-0.6-1.4-1.4-2.4-1.2c-0.8,0.7-2,1.5-1.8,2.7
		c0.7,2,1.1,3.5,1.5,5.6c0.2,0.4,0,1.2,0.6,1.2l3.6-1.2C451,233.1,449.8,232.3,449.5,231.4"/>
	<path class="st3" d="M440.4,219.6c-1.1-1-2.3,0.4-2.9,1.3c0.4,1.4,1.5,2.5,2.4,3.7c0.5,0.7,1.2,1.1,2,1.2c0.8,0,1.4-0.4,2-0.8
		c0.4-0.5,0.8-1.1,0.7-1.9C443.4,221.6,441.7,220.7,440.4,219.6"/>
</g>
</svg>
