<?xml version="1.0" encoding="utf-8"?>
<!-- Generator: Adobe Illustrator 25.0.1, SVG Export Plug-In . SVG Version: 6.00 Build 0)  -->
<svg width="450" height="450" version="1.0" id="katman_1" xmlns="http://www.w3.org/2000/svg" xmlns:xlink="http://www.w3.org/1999/xlink" x="0px" y="0px"
	viewBox="120 50 300 300" style="enable-background:new 0 0 400 400;" xml:space="preserve">
<style type="text/css">
	.st0{fill-rule:evenodd;clip-rule:evenodd;fill:#633492;}
	.st1{fill-rule:evenodd;clip-rule:evenodd;fill:#FFFFFF;}
	.st2{fill-rule:evenodd;clip-rule:evenodd;fill:#FDE192;}
</style>
<path class="st0" d="M280,354c-45.4-18.6-79.9-45-102.6-78.6c-18.2-27-28.9-58.6-31.8-94c-4.7-57.1,12.8-106,14.9-111.6
	C165.8,67.3,212.3,46,280,46c67.7,0,114.2,21.3,119.5,23.8c2.1,5.6,19.6,54.5,14.9,111.6c-2.9,35.4-13.6,67-31.8,94
	C359.9,309,325.4,335.4,280,354"/>
<g>
	<path class="st1" d="M280,346.9c-42.9-18-75.6-43.3-97.2-75.2c-17.6-26-27.9-56.6-30.7-90.8c-4.1-50.6,9.6-94.6,13.6-106.2
		c11.2-5,54.1-22.1,114.3-22.1c60.2,0,103.1,17.1,114.3,22.1c4,11.6,17.7,55.6,13.6,106.2c-2.8,34.3-13.1,64.8-30.7,90.8
		C355.6,303.6,322.9,328.9,280,346.9 M280,339.7c-40.5-17.4-71.3-41.5-91.7-71.7c-16.9-25.1-26.9-54.6-29.6-87.7
		c-3.7-45.9,7.5-86,12.4-100.8c14.3-6,54.2-20.4,109-20.4c54.8,0,94.7,14.4,109,20.4c4.9,14.8,16.1,54.9,12.4,100.8
		c-2.7,33.1-12.7,62.6-29.6,87.7C351.3,298.2,320.5,322.3,280,339.7"/>
	<path class="st1" d="M222.6,262.3c-1-1-2.1-1.7-3.5-2.3c-1.3-0.5-2.7-0.8-4.2-0.8c-1.5,0-2.9,0.3-4.2,0.8c-1.3,0.5-2.5,1.3-3.5,2.3
		c-1,1-1.8,2.1-2.3,3.4c-0.6,1.3-0.8,2.7-0.8,4.1c0,1.5,0.3,2.9,0.8,4.1c0.6,1.3,1.3,2.4,2.3,3.4c1,1,2.1,1.7,3.5,2.3
		c1.3,0.5,2.7,0.8,4.2,0.8c1.5,0,2.9-0.3,4.2-0.8c1.3-0.5,2.5-1.3,3.5-2.3c1-1,1.8-2.1,2.3-3.4c0.6-1.3,0.8-2.7,0.8-4.1
		c0-1.5-0.3-2.9-0.8-4.1C224.3,264.4,223.5,263.2,222.6,262.3 M222.2,269.8c0,1-0.2,2-0.6,2.9c-0.4,0.9-0.9,1.7-1.6,2.3
		c-0.7,0.6-1.4,1.2-2.3,1.5c-1.8,0.7-3.9,0.7-5.7,0c-0.9-0.4-1.7-0.9-2.3-1.5c-0.7-0.6-1.2-1.4-1.6-2.3c-0.4-0.9-0.6-1.8-0.6-2.9
		c0-1,0.2-2,0.6-2.9s0.9-1.6,1.6-2.3c0.7-0.6,1.4-1.2,2.3-1.5c0.9-0.4,1.8-0.6,2.8-0.6c1,0,2,0.2,2.8,0.6c0.9,0.4,1.7,0.9,2.3,1.5
		c0.7,0.6,1.2,1.4,1.6,2.3C222,267.8,222.2,268.8,222.2,269.8L222.2,269.8z"/>
	<path class="st1" d="M242.4,272.2c2.2-1.3,3.3-3.4,3.3-5.8c0-3.9-2.5-7-7.2-7h-7.5v20.8h3.6v-17.3h3.8c2,0,3.6,1.6,3.6,3.6
		c0,2-1.6,3.6-3.6,3.6h-2.7l8.4,10.2h4.8L242.4,272.2"/>
	<path class="st1" d="M267.2,276.8h-10.6v-17.5h-3.6V280h12.4L267.2,276.8z"/>
	<path class="st1" d="M280.9,257.9L270.4,280h3.9l6.6-14.1l2.1,4.5h-2.1l-1.5,3.2h5.2l3,6.3h3.9L280.9,257.9"/>
	<path class="st1" d="M295.4,267.4l13.7,13.3v-20.6h-3.9v11.9l-13.1-13.3v14.3l3.4,6.3L295.4,267.4"/>
	<path class="st1" d="M327.9,262.4c-1-0.9-2.1-1.7-3.4-2.2c-1.3-0.5-2.7-0.8-4.2-0.8h-7v20.8h7c1.5,0,2.9-0.3,4.2-0.8
		c1.3-0.5,2.4-1.3,3.4-2.2c1-0.9,1.7-2,2.3-3.3c0.6-1.3,0.8-2.6,0.8-4.1c0-1.5-0.3-2.8-0.8-4.1C329.6,264.4,328.9,263.3,327.9,262.4
		 M316.8,262.6h3.1c1,0,2,0.2,2.9,0.5c0.9,0.4,1.7,0.9,2.4,1.5c0.7,0.6,1.2,1.4,1.6,2.3c0.4,0.9,0.6,1.8,0.6,2.8c0,1-0.2,2-0.6,2.8
		c-0.4,0.9-0.9,1.6-1.6,2.3c-0.7,0.6-1.5,1.1-2.4,1.5c-0.9,0.4-1.9,0.5-2.9,0.5h-3.1L316.8,262.6z"/>
	<path class="st1" d="M355.1,265.6c-0.6-1.3-1.3-2.4-2.3-3.4c-1-1-2.1-1.7-3.5-2.3c-1.3-0.5-2.7-0.8-4.2-0.8s-2.9,0.3-4.2,0.8
		c-1.3,0.5-2.5,1.3-3.5,2.3c-1,1-1.8,2.1-2.3,3.4c-0.6,1.3-0.8,2.7-0.8,4.1c0,1.5,0.3,2.9,0.8,4.1c0.6,1.3,1.3,2.4,2.3,3.4
		c1,1,2.1,1.7,3.5,2.3c1.3,0.5,2.7,0.8,4.2,0.8c1.5,0,2.9-0.3,4.2-0.8c1.3-0.5,2.5-1.3,3.5-2.3c1-1,1.8-2.1,2.3-3.4
		c0.6-1.3,0.8-2.7,0.8-4.1C356,268.3,355.7,266.9,355.1,265.6 M352.4,269.8c0,1-0.2,2-0.6,2.9c-0.4,0.9-0.9,1.7-1.6,2.3
		c-0.7,0.6-1.4,1.2-2.3,1.5c-1.8,0.7-3.9,0.7-5.7,0c-0.9-0.4-1.7-0.9-2.3-1.5c-0.7-0.6-1.2-1.4-1.6-2.3c-0.4-0.9-0.6-1.8-0.6-2.9
		c0-1,0.2-2,0.6-2.9c0.4-0.9,0.9-1.6,1.6-2.3c0.7-0.6,1.4-1.2,2.3-1.5c0.9-0.4,1.8-0.6,2.8-0.6c1,0,2,0.2,2.8,0.6
		c0.9,0.4,1.7,0.9,2.3,1.5c0.7,0.6,1.2,1.4,1.6,2.3C352.2,267.8,352.4,268.8,352.4,269.8L352.4,269.8z"/>
	<path class="st1" d="M265,301c-0.3,0.4-0.6,0.8-0.9,1.1c-0.7,0.6-1.4,1.2-2.3,1.5c-1.8,0.7-3.9,0.7-5.7,0c-0.9-0.4-1.7-0.9-2.3-1.5
		c-0.7-0.6-1.2-1.4-1.6-2.3c-0.4-0.9-0.6-1.8-0.6-2.9c0-1,0.2-2,0.6-2.9c0.4-0.9,0.9-1.6,1.6-2.3c0.7-0.6,1.4-1.2,2.3-1.5
		c0.9-0.4,1.8-0.6,2.8-0.6c1,0,2,0.2,2.8,0.6c0.9,0.4,1.7,0.9,2.3,1.5c0.4,0.3,0.7,0.7,0.9,1.1v-4.8c-0.6-0.4-1.2-0.7-1.9-1
		c-1.3-0.5-2.7-0.8-4.2-0.8c-1.5,0-2.9,0.3-4.2,0.8c-1.3,0.5-2.5,1.3-3.5,2.3c-1,1-1.8,2.1-2.3,3.4c-0.6,1.3-0.8,2.7-0.8,4.1
		s0.3,2.9,0.8,4.1c0.6,1.3,1.3,2.4,2.3,3.4c1,1,2.1,1.7,3.5,2.3c1.3,0.5,2.7,0.8,4.2,0.8c1.5,0,2.9-0.3,4.2-0.8
		c0.7-0.3,1.3-0.6,1.9-1L265,301"/>
	<path class="st1" d="M270.2,286.3h3.6v20.8h-3.6V286.3z"/>
	<path class="st1" d="M292,286.2h-13.9v3.2h5.8V307h3.6v-17.5h6.7L292,286.2"/>
	<path class="st1" d="M310.8,286.3l-5.5,7.9l-5.5-7.9h-4.2c0.1,0.2,8,11.6,8,11.6v9.1h3.6V298l8-11.6H310.8"/>
</g>
<g>
	<path class="st2" d="M347.3,165.7c22.9-1.2,22.2-14.7,22.2-14.7c-13.4,5.9-18-4.1-23.5-5.3c19-6.5,16.1-20.8,16.1-20.8
		c-7.4,9.5-18.5,1.1-23.9,1.9c15.2-10.1,9.4-24.4,9.4-24.4c-2.9,10.7-21.6,7.6-21.6,7.6c10.4-15.3,1.1-25.7,1.1-25.7
		c0.8,11.3-18.9,14.2-18.9,14.2c5.1-20-6.4-25.1-6.4-25.1c2.3,9.5-11,17.1-11,17.1L280,69.3l-10.8,21.1c0,0-13.3-7.5-11-17.1
		c0,0-11.5,5.1-6.3,25.1c0,0-19.7-2.9-18.9-14.2c0,0-9.2,10.4,1.1,25.7c0,0-18.8,3.2-21.6-7.6c0,0-5.9,14.3,9.4,24.4
		c-5.4-0.8-16.6,7.6-23.9-1.9c0,0-2.8,14.3,16.1,20.8c-5.5,1.1-10,11.1-23.5,5.3c0,0-0.8,13.5,22.2,14.7
		c-8.2,4.8-6.5,14.3-21.5,12.7c0,0,4.9,12.4,25.3,7c-6.2,6.6-3,15.1-17,17.7c0,0,9.2,11.2,26.8-0.3c-3.3,6.1,1.3,15.4-11,21.5
		c0,0,12.8,7.4,26.2-8.5c-0.6,9.6,5.3,16.8-4.1,25.1c0,0,14.1,3.8,22.4-15.9c1.5,8.3,9.5,11.7,3.1,24.9c0,0,10.5,0.8,17.3-16.4
		c6.7,17.2,17.3,16.4,17.3,16.4c-6.4-13.1,1.6-16.6,3.1-24.9c8.3,19.8,22.4,15.9,22.4,15.9c-9.4-8.2-3.5-15.4-4.1-25.1
		c13.4,15.9,26.2,8.5,26.2,8.5c-12.3-6.1-7.7-15.4-11-21.5c17.6,11.4,26.8,0.3,26.8,0.3c-14-2.7-10.8-11.2-17-17.7
		c20.3,5.3,25.3-7,25.3-7C353.7,180.1,355.5,170.6,347.3,165.7 M249.1,110c9.1,0,8.4-7.1,7.4-8.7c0,0,7.6,0.3,14,5
		c0,0,7.6-8.7,9.5-15.7c1.9,7,9.5,15.7,9.5,15.7c6.4-4.7,14-5,14-5c-1,1.6-1.8,8.7,7.4,8.7s11.1,3,11.1,3c-2.7-0.5-6.4-1.1-16.3,2.3
		c-9.9,3.3-7.7-5.3-7.7-5.3c-14,1-18,8.8-18,8.8s-3.9-7.8-18-8.8c0,0,2.2,8.6-7.7,5.3c-9.9-3.3-13.6-2.8-16.3-2.3
		C238,113,240,110,249.1,110L249.1,110z M285.9,175.7c-3.8,2.3-5.9,5.6-5.9,5.6s-2-3.3-5.9-5.6c0,0,0.4-2.7-0.5-2.9
		c-1-0.2-3.8-0.1-3.8-0.1s-4.5-1.8-5.2-5.5c0,0,2.4,0.7,5.7-0.3c3.2-1,4.6,0.1,5.6,0.6c1,0.4,2.1,0.6,4.1,0.6c2,0,3.1-0.1,4.1-0.6
		c1-0.4,2.4-1.6,5.6-0.6c3.2,1,5.7,0.3,5.7,0.3c-0.8,3.6-5.2,5.5-5.2,5.5s-2.8-0.1-3.8,0.1C285.4,172.9,285.9,175.7,285.9,175.7
		L285.9,175.7z M264.9,147.1c-4.8-0.1-16.9-1-17.4-10.3v-0.2c0,0,6.7-1.1,9.3,0c4.7,1.9,8.7,10.8,16.3,4.2c0,0-5.1,11.2-8.2,16.8
		C264.9,157.5,269.7,147.2,264.9,147.1L264.9,147.1z M295.1,147.1c-4.8,0.1,0,10.4,0,10.4c-3.1-5.6-8.2-16.8-8.2-16.8
		c7.6,6.6,11.6-2.2,16.3-4.2c2.6-1.1,9.3,0,9.3,0v0.2C312,146.1,299.8,147,295.1,147.1z M331.2,176.5c-13.7-2.7-19.2,3.6-19.2,3.6
		c8.9,1.2,12.8,11.7,12.8,11.7c-6.5-4-13.8-3.1-13.8-3.1c8.9,22.3-20.6,27.4-30.9,39.7c-10.3-12.3-39.8-17.4-30.9-39.7
		c0,0-7.2-0.9-13.8,3.1c0,0,3.8-10.5,12.8-11.7c0,0-5.5-6.3-19.2-3.6c0,0,7.2-8.4,16.1-6.8c0,0-4.6-7.9-17.8-8.7c0,0,2.1-2.8,10-3.4
		c0,0-6-6.8-3.2-19.2c0,0-4.6-3.6-3-14.5c0,0,1.7,8.8,5.5,7.7c2.6-0.8,1.4-4-0.6-3.7c0,0,0.6-2.4,4.4-4c3.8-1.6,4.8-1.7,4.6-4.7
		c0,0,2.7-1.1,3.7,1.5s-1.7,3.8-3,4.1c-1.3,0.3-3.2,0.8-4,2.3c0,0,2.8,0.9,0.6,3.4c-2.2,2.5-10.3,21,8.6,33.9c0,0-0.4,6,6.3,11.6
		c0,0-2.9-0.3-3.4-0.1c-0.5,0.1-0.7,5.6,0,5.7c0.7,0.2,11.2,0,11.2,0s-10.6,3.2-11,3.6c-0.4,0.4,0.1,3.2,0.5,3.3
		c0.3,0,8.9-2.5,13.4-2.8c0,0-10,4.6-11.7,6c0,0,1.6,3.6,3.8,4.8c0,0,14.5-5.2,20.3-10c5.8,4.7,20.3,10,20.3,10
		c2.2-1.2,3.8-4.8,3.8-4.8c-1.7-1.4-11.7-6-11.7-6c4.4,0.3,13,2.9,13.4,2.8c0.3,0,0.9-2.9,0.5-3.3c-0.4-0.4-11-3.6-11-3.6
		s10.5,0.2,11.2,0c0.7-0.2,0.5-5.6,0-5.7c-0.5-0.1-3.4,0.1-3.4,0.1c6.7-5.6,6.3-11.6,6.3-11.6c18.9-12.9,10.8-31.4,8.6-33.9
		c-2.2-2.5,0.6-3.4,0.6-3.4c-0.8-1.5-2.7-2.1-4-2.3c-1.3-0.3-3.9-1.5-3-4.1s3.7-1.5,3.7-1.5c-0.1,3,0.8,3.2,4.6,4.7
		c3.8,1.6,4.4,4,4.4,4c-2-0.2-3.2,3-0.6,3.7c3.7,1.1,5.5-7.7,5.5-7.7c1.7,10.9-3,14.5-3,14.5c2.7,12.4-3.2,19.2-3.2,19.2
		c7.8,0.6,10,3.4,10,3.4c-13.2,0.8-17.8,8.7-17.8,8.7C324,168.1,331.2,176.5,331.2,176.5L331.2,176.5z"/>
	<path class="st2" d="M280,194c0,0-16.3,0.7-18.7,6c-0.4,1,0,7.9,0,7.9s1.4,0.3,2.5-0.5c0,0-0.2,3.1,2.1,4.6
		c2.2,1.6,5.8,3.7,5.8,3.7s2.1-1.6,3.3-1.6c1.2-0.1,3.7,4.4,5,5.6c1.3-1.3,3.8-5.7,5-5.6c1.2,0.1,3.2,1.6,3.3,1.6
		c0.1,0,3.6-2.2,5.8-3.7c2.2-1.6,2.1-4.6,2.1-4.6c1.1,0.8,2.5,0.5,2.5,0.5s0.4-7,0-7.9C296.4,194.7,280,194,280,194"/>
</g>
</svg>
