<?xml version="1.0" encoding="UTF-8"?>
<svg version="1.1" viewBox="120 150 1200 1200" width="1280" height="1280" xmlns="http://www.w3.org/2000/svg">
<path transform="translate(748,283)" d="m0 0 9 2 25 14 23 15 19 11 28 15 30 15 27 11 21 7 18 4 20 3 31 3 27 1 85 1 10 4 3 3 1 3v249l-2 57-7 68-6 38-9 41-11 42-10 32-11 28-15 33-13 25-13 21-13 19-14 19-13 16-11 13-24 26-10 10-8 7-11 10-17 13-21 16-18 13-15 10-27 16-28 16-29 15-14 6-6 1-17-7-32-16-23-13-23-14-21-14-17-12-18-14-13-11-11-9-17-16-22-22-7-8-9-10-9-11-11-14-12-16-17-28-11-19-14-26-14-32-10-27-10-30-13-46-6-28-6-39-6-54-2-22-3-66v-237l7-8 2-1 36-1 91-1 33-3 30-5 25-7 24-10 19-9 27-16 21-13 39-26 13-9z" fill="#FEFEFE"/>
<path transform="translate(448,646)" d="m0 0h604v30l-2 39-3 36-5 40-6 35-7 31-9 31-10 29-13 30-10 20-16 27-14 20-10 13-11 13-18 20-12 12-8 7-10 9-11 9-17 13-17 12-17 11-25 15-24 13-26 13-19-9-23-12-22-13-19-12-16-11-19-14-11-9-13-11-12-11-14-13-7-8-13-14-11-14-10-13-14-21-9-15-14-26-11-25-9-24-9-28-10-40-7-38-5-38-3-31-3-52z" fill="#FEFEFE"/>
<path transform="translate(748,283)" d="m0 0 9 2 25 14 23 15 19 11 28 15 30 15 27 11 21 7 18 4 20 3 31 3 27 1 85 1 10 4 3 3 1 3v249l-2 57-7 68-6 38-9 41-11 42-10 32-11 28-15 33-13 25-13 21-13 19-14 19-13 16-11 13-24 26-10 10-8 7-11 10-17 13-21 16-18 13-15 10-27 16-28 16-29 15-14 6-6 1-17-7-32-16-23-13-23-14-21-14-17-12-18-14-13-11-11-9-17-16-22-22-7-8-9-10-9-11-11-14-12-16-17-28-11-19-14-26-14-32-10-27-10-30-13-46-6-28-6-39-6-54-2-22-3-66v-237l7-8 2-1 36-1 91-1 33-3 30-5 25-7 24-10 19-9 27-16 21-13 39-26 13-9zm1 47-33 22-24 15-23 13-23 12-20 9-25 9-28 7-25 4-33 3-22 1-77 1-1 1v160l1 44 2 44 4 50 5 42 8 47 9 39 10 34 11 31 11 26 14 29 13 23 14 22 13 18 11 14 9 11 10 11 7 8 26 26 8 7 15 13 17 13 16 12 27 18 23 14 25 14 25 13 5-1 29-15 23-13 23-14 25-17 19-14 16-13 13-11 12-11 13-12 7-7 7-8 12-13 22-28 14-20 17-28 15-29 11-24 11-29 11-34 9-36 7-35 7-49 4-42 3-53 1-34v-137l-1-57-68-1-35-2-26-3-29-6-27-8-32-13-31-15-22-12-25-14-22-13-15-9z" fill="#172A74"/>
<path transform="translate(749,359)" d="m0 0 5 1 25 15 26 15 24 13 16 8 21 10 24 9 24 7 28 5 20 2 17 1 79 1 1 24v113h-618v-137l61-1 34-1 27-2 32-5 26-7 25-10 25-12 24-14 21-13z" fill="#172A74"/>
<path transform="translate(768,652)" d="m0 0 2 1 1 8 4-4 4 1 4-1 6 6v5l7-3 4 1 5 4 2 5v17l4 2 10 14 2 4-1 6-2 3h-6l1-6-4 2-2 2h-6l-7-6-1-5-5-5-4-1v17l9 1 29 7 3 3 9 27-1 10-6 25v14l3 25v5l6-1 7 15 6 14 4 8-2 4-6 9-9-3-18-9-5-1v2l9 3 22 11 1 2 3 71 2 10 1 1 3 35 1 19 5 2 1 1v14l-1 1-71 7h-26l-101-6-3-1v-18l4-3 1-3 4-51 4-4 2-35 2-10 1-18v-19l-9-7v-7l4-3 4-9 2-2h3l-1-7 8-2 8-82-1-5-2-5v-9l5-4 1-4 1-13 6-1-2-5 6-5h2v-13l-5-4-3-1-1-6 5 1 3-1 1-8 4-3 4-2h5l4-2h2l1-6 1-5 5-5 4-2 2-2 8 1 9 8 3-4z" fill="#172A74"/>
<path transform="translate(748,283)" d="m0 0 9 2 25 14 23 15 19 11 28 15 30 15 27 11 21 7 18 4 20 3 31 3 27 1 85 1 10 4 3 3 1 3v249l-2 57-7 68-6 38-9 41-11 42-10 32-11 28-15 33-13 25-13 21-13 19-14 19-13 16-11 13-24 26-10 10-8 7-11 10-17 13-21 16-18 13-15 10-27 16-28 16-29 15-14 6-6 1-17-7-32-16-23-13-23-14-21-14-17-12-18-14-13-11-11-9-17-16-22-22-7-8-9-10-9-11-11-14-12-16-17-28-11-19-14-26-14-32-10-27-10-30-13-46-6-28-6-39-6-54-2-22-3-66v-237l7-8 2-1 36-1 91-1 33-3 30-5 25-7 24-10 19-9 27-16 21-13 39-26 13-9zm0 16-14 10-29 19-19 12-22 13-24 13-27 12-24 8-26 6-28 4-26 2-27 1-93 1v209l2 56 3 45 4 39 6 42 8 42 9 36 9 29 9 26 13 31 14 29 13 23 15 24 13 18 10 13 9 11 11 13 12 13 28 28 8 7 14 12 14 11 20 15 16 11 20 13 20 12 25 14 29 15 7 3 23-11 25-13 24-14 20-12 25-17 19-14 14-11 13-11 14-12 9-9 8-7 8-8 7-8 13-14 9-11 14-18 12-17 11-17 14-24 14-27 11-25 11-29 11-34 11-44 8-43 6-45 4-45 2-36 1-27v-202l-1-35-79-1-29-1-34-3-24-4-24-6-23-8-23-10-25-12-26-14-24-14-26-15-21-13z" fill="#FEFEFE"/>
<path transform="translate(441,640)" d="m0 0h618v29l-2 40-4 46-6 44-7 37-8 32-9 29-10 27-11 25-10 20-13 22-12 18-14 19-12 14-7 8-9 10-19 19-8 7-14 12-17 13-19 14-20 13-25 15-22 12-21 11-10 4-34-17-24-14-20-12-22-15-19-14-11-9-13-11-10-9-12-11-12-12-7-8-9-10-11-14-14-19-14-22-10-18-9-17-11-25-10-27-8-25-8-31-7-34-6-39-5-49-3-52zm7 6v26l3 52 4 40 6 41 7 35 8 31 12 37 12 29 10 21 13 23 12 19 13 18 13 16 12 14 9 9 7 8 10 9 14 13 11 9 18 14 20 14 17 11 15 9 21 12 27 14 9 4 36-18 23-13 24-15 19-13 16-12 10-8 13-11 10-9 12-11 11-11 7-8 13-15 15-20 14-21 11-19 12-23 11-25 10-28 8-26 7-28 7-36 5-35 4-40 2-30 1-23v-30z" fill="#172A74"/>
<path transform="translate(748,410)" d="m0 0 25 2v53l-1 100-1 1h-23l-1-1v-44l1-18-27 1v62h-24v-145l1-3 21-5h3v53l25-2z" fill="#FEFEFE"/>
<path transform="translate(835,595)" d="m0 0h223v33h-223z" fill="#B80022"/>
<path transform="translate(440,595)" d="m0 0h223v33h-223z" fill="#3D6931"/>
<path transform="translate(789,415)" d="m0 0 24 6v95l3 12 4 5 2 1h9l5-6 2-7 1-36 1-56 11 2 12 3 1 1v64l-1 26-4 18-6 12-7 8-8 4-5 1h-12l-12-3-8-7-5-8-4-9-3-15-1-8v-52z" fill="#FEFEFE"/>
<path transform="translate(652,429)" d="m0 0h14l6 4 6 8 5 13 1 10-10 7-11 6-4-11-1-3-3-1h-7l-6 4-4 6-3 9-1 7v30l3 12 4 5 2 1h8l5-3 5-12 2-11 5 1 17 7-1 10-5 17-5 10-6 7-6 4-7 2h-12l-10-3-6-4-8-9-7-16-3-15v-32l4-20 6-14 8-11 9-8 12-6z" fill="#FEFEFE"/>
<path transform="translate(566,455)" d="m0 0h11l3 9 25 98v4h-25l-4-17v-2l-6 1-21 1-4 17h-25l4-16 25-92 6-2z" fill="#FEFEFE"/>
<path transform="translate(904,445)" d="m0 0h10l13 4 9 6 8 9 7 15 2 10-17 3h-5l-4-11-5-5-6-2-5 1-5 5-3 9-1 8v21l2 11 4 8 6 3 9-1 4-5 4-11 1-3 4 1 17 9-1 8-5 13-6 8-7 6-8 3h-17l-11-4-7-6-7-12-5-16-2-13v-27l3-17 4-11 6-9 6-5z" fill="#FEFEFE"/>
<path transform="translate(435,1072)" d="m0 0h9l4 5 8 21v2l29 1 5 3 2 4-1 6-8 8-12 8-3 1 7 24v6l-5 5-9-1-19-12-4-1-17 11-6 3h-6l-5-5v-7l6-19-1-4-15-11-5-4-2-4 1-7 5-4 22-1 7-1 9-22z" fill="#FEFEFE"/>
<path transform="translate(1059,1072)" d="m0 0h8l4 4 9 22v2l30 1 5 5v7l-6 7-10 7-6 5h-2l8 24-1 6-4 4h-7l-15-9-7-5-5 1-15 10-6 3h-7l-4-4v-8l6-20-2-4-12-8-7-6-2-3v-7l4-4 2-1 26-1 3-1 6-15 4-9z" fill="#FEFEFE"/>
<path transform="translate(640,197)" d="m0 0h8l5 6 7 19v3l29 1 5 3 2 2v7l-7 8-14 10h-2l4 16 3 9-1 7-4 3-4 1-14-7-12-8-5 2-16 10-6 3-7-2-3-6 3-11 5-16-4-2-11-8-8-7-1-2v-7l4-4 3-1 27-1 10-24z" fill="#FEFEFE"/>
<path transform="translate(854,197)" d="m0 0h8l4 4 10 24 27 1 5 3 2 2v7l-3 5-17 12-4 2 8 25-1 5-4 4-4 1-14-7-12-8-5 2-18 11-6 2-6-3-2-4 2-10 5-16-1-3-12-8-9-8-1-2v-7l4-4 3-1 29-1 1-5 7-19z" fill="#FEFEFE"/>
<path transform="translate(831,1266)" d="m0 0h7l5 5 9 23 27 1 6 3 2 7-3 6-20 15-1 2 7 22-1 7-3 3h-8l-11-6-12-8-11 6-11 7-2 1h-8l-4-4v-7l6-19-1-5-12-8-8-7-2-4 1-6 4-4 4-1 26-1 10-24z" fill="#FDFDFD"/>
<path transform="translate(426,250)" d="m0 0h8l4 4 7 18 2 5 2 1 27 1 5 3 1 2v7l-7 8-15 10 1 9 5 17-1 5-4 4h-7l-15-9-8-5-5 2-18 11-2 1h-7l-4-4-1-5 8-25-4-2-11-8-8-7-1-2v-7l4-4 2-1 27-1 2-1 9-23z" fill="#FEFEFE"/>
<path transform="translate(1071,249)" d="m0 0 6 2 4 5 8 21 1 1 28 1 5 4 1 2v6l-6 7-13 9-4 3 2 9 5 16-2 6-4 3h-6l-14-8-9-6-4 1-19 12-2 1h-7l-4-4-1-6 6-20v-5l-12-8-9-8-1-2v-7l3-4 3-1 27-1 2-1 7-19 4-7z" fill="#FEFEFE"/>
<path transform="translate(659,1266)" d="m0 0h7l5 5 9 23 27 1 6 3 2 3v6l-7 8-16 11 2 9 5 18-3 6-2 1h-8l-18-11-4-3-5 2-14 9-5 3h-8l-4-4-1-5 8-25-4-2-18-13-2-3v-8l4-4 3-1 27-1 10-24z" fill="#FEFEFE"/>
<path transform="translate(541,1176)" d="m0 0 6 1 4 4 8 21 1 2 3 1 26 1 4 2 2 4-1 7-4 5-17 12-1 3 7 23-2 6-4 3-8-1-16-10-4-3-5 1-18 11-4 2-7-1-3-3-1-5 7-22-1-4-15-11-6-5-1-2v-7l5-5 29-2 10-24 3-3z" fill="#FEFEFE"/>
<path transform="translate(956,243)" d="m0 0h8l5 6 8 21 1 1 26 1 5 2 3 3v8l-5 5-16 12-3 1 7 22v8l-4 4h-7l-11-6-12-8-5 2-18 11-2 1h-7l-4-3-1-7 7-23-4-4-13-9-6-7v-7l4-4 3-1 26-1 3-3 7-19z" fill="#FEFEFE"/>
<path transform="translate(958,1176)" d="m0 0 6 1 4 4 9 22v2h18l12 1 4 4 1 7-7 8-13 9-3 3 1 7 5 16v6l-5 5h-6l-20-12-3-2-5 1-15 10-6 3-7-1-3-3-1-7 6-19v-5l-16-11-6-7v-7l3-4 3-1 26-1 3-1 8-22 4-5z" fill="#FEFEFE"/>
<path transform="translate(746,140)" d="m0 0h9l4 4 9 23 2 1 27 1 5 4 1 7-4 6-14 10-5 4 1 7 5 16v6l-5 5h-6l-14-8-9-6-5 1-15 10-6 3h-6l-5-5 1-9 5-16v-5l-12-8-9-8-2-4 1-6 5-4 27-1 3-1 9-24z" fill="#FEFEFE"/>
<path transform="translate(541,241)" d="m0 0 6 1 4 5 8 21v2l30 1 5 4 1 5-3 6-8 7-12 8 1 8 5 16v6l-5 5h-6l-11-6-12-8-5 1-15 10-6 3h-6l-5-5 1-9 5-16-1-5-20-15-2-3v-7l6-5 28-1 4-8 6-16 4-4z" fill="#FEFEFE"/>
<path transform="translate(987,463)" d="m0 0 24 1 4 2 26 94 1 6h-25l-4-16-28-1-1 8-2 9h-25l4-16 21-70z" fill="#FEFEFE"/>
<path transform="translate(473,465)" d="m0 0h36l8 4 5 7 2 6 1 14-2 12-6 12-8 6-6 2-21 1v37h-24v-100z" fill="#FEFEFE"/>
<path transform="translate(758,736)" d="m0 0 4 1 1 5 6-3h11l3-1 2 1v94l-6 4h-6l-5-3-1-87-4-3-5 3h-2l-1 25-5-4-2-9-2-2 1-4 2-4-5 5 1 5 2 3-1 3h-5l-5 4h-5l-7 6-2 4 7-6h2l-2 5-8 10-2 34h2l2-29 2-5 8-9 1 3-3 6-1 35 8 1 1 4-1 2h-10v2h8l1 3-2 4-10-2-3-1h-7l-18 14-5 2 2-13 11-5 7-3 4-56 3-9 6-8-6-4 1-9 5 2 10 9v-2l-4-4h10l7-4z" fill="#FEFEFE"/>
<path transform="translate(988,742)" d="m0 0h13l9 4 7 6 4 8 1 4v7l-4 11-8 8-7 3-11 1-10-3-8-6-5-8-1-4v-10l4-10 7-7z" fill="#FEFEFE"/>
<path transform="translate(959,253)" d="m0 0 2 1 8 25v2h30l-4 4-19 14 3 12 5 15-1 2-19-14-3-2-4 1-18 13-3 1 2-9 5-15 1-5-4-2-14-10-5-5h30l2-9z" fill="#172A74"/>
<path transform="translate(964,817)" d="m0 0h9l6 3 5 5 5-4 2-1h9l9 4 5 7 1 9-4 19-2 1-60-14 2-12 4-10 7-6z" fill="#172A74"/>
<path transform="translate(662,1276)" d="m0 0 2 1 8 25v2h30l-4 4-19 14 3 11 5 16-1 2-20-15-5-1-20 15h-2l3-12 5-16-19-14-4-4h30l2-9z" fill="#9E8124"/>
<path transform="translate(644,207)" d="m0 0 2 3 7 22v3h30l-5 5-16 12h-2l5 17 3 12-4-2-14-10-6-4-14 10-9 7-1-3 8-24-2-4-21-15v-1h30l3-11 5-16z" fill="#172A74"/>
<path transform="translate(834,1276)" d="m0 0 2 2 8 25 29 1-5 5-17 13 2 9 5 16-1 3-14-10-9-6-17 13-6 3 2-9 5-16-1-4-21-16v-1l29-1z" fill="#9E8124"/>
<path transform="translate(553,850)" d="m0 0 2 3 4 12v11l-4 7-7 4h-10l-4-2-1 6-4 5-7 3h-12l-6-4-5-8-5-15v-2l41-14z" fill="#172A74"/>
<path transform="translate(857,207)" d="m0 0h2l8 25v3h30l-4 4-19 14 3 11 5 15v2l-5-2-17-13-5 1-19 14h-2l3-11 5-17-16-12-7-5v-1h30l2-9z" fill="#172A74"/>
<path transform="translate(1062,1082)" d="m0 0 2 1 8 25v2h30l-4 4-14 10-5 4 3 11 5 15v2l-4-2-14-10-5-4-4 2-14 10-5 4h-2l3-12 5-16-19-14-4-4h30l2-10z" fill="#9E8124"/>
<path transform="translate(439,1081)" d="m0 0 2 2 8 25v2h30l-4 4-14 10-5 4 3 12 5 15-1 2-13-10-10-7-9 6-14 10-1-3 8-25-19-14-4-4 29-1z" fill="#9E8124"/>
<path transform="translate(1071,259)" d="m0 0 2 3 8 25 29 1-5 5-17 12 1 7 7 22-5-2-13-10-7-4-19 14-4 2 2-10 5-15v-4l-14-10-8-6v-1l29-1z" fill="#172A74"/>
<path transform="translate(430,259)" d="m0 0 2 3 8 25 29 1-5 5-17 12 1 7 6 19-1 3-18-13-5-3-14 10-8 6-2-1 9-28-4-2-14-10-6-4v-1h30l3-11z" fill="#172A74"/>
<path transform="translate(542,251)" d="m0 0 2 3 8 25 29 1-4 4-18 13 1 7 7 22-5-2-13-10-7-4-14 10-8 6-2-1 8-25v-3l-18-13-4-4h29l3-11z" fill="#172A74"/>
<path transform="translate(959,1187)" d="m0 0 2 1 8 25v2h29l-5 5-16 12h-2l9 27v2l-4-2-18-13h-4l-14 10-8 5 2-9 5-16-1-5-21-15v-1l29-1z" fill="#9E8124"/>
<path transform="translate(750,149)" d="m0 0 2 2 8 25v2h29l-5 5-17 12 1 7 7 22-4-2-14-10-7-4-18 13-5 3 2-10 5-15v-4l-19-14-3-3 29-1z" fill="#172A74"/>
<path transform="translate(542,1187)" d="m0 0 2 1 8 25v2h29l-5 5-16 12h-2l9 27v2l-4-2-18-13h-4l-21 15-1-3 7-22-1-5-21-15v-1h30l2-9z" fill="#9E8124"/>
<path transform="translate(575,926)" d="m0 0h3l8 14 2 6v8l-3 8-5 6-10 6-7 2h-7l-8-3-5-4-8-13-2-5 15-9 26-15z" fill="#FEFEFE"/>
<path transform="translate(785,865)" d="m0 0h2l4 7v81h-22v-66l9-3z" fill="#FEFEFE"/>
<path transform="translate(992,735)" d="m0 0 11 1 10 4 9 8 5 10 1 4v11l-4 12-6 7-10 6-7 2h-11l-10-3-8-6-6-7-4-11v-10l3-10 6-8 6-5 9-4zm-4 7-10 5-7 8-3 8v10l3 8 5 6 8 5 8 2 11-1 8-4 7-7 4-11v-7l-3-9-7-8-8-4-3-1z" fill="#172A74"/>
<path transform="translate(578,917)" d="m0 0h2l12 22 2 8-1 11-5 10-7 7-10 5-3 1h-15l-8-3-6-5-10-15-4-7v-3l28-16 22-13zm-3 9-22 13-20 12 2 5 6 10 4 5 7 4 4 1h7l11-4 9-7 4-7 1-4v-8l-4-10-6-10z" fill="#172A74"/>
<path transform="translate(701,765)" d="m0 0 9 3 5 2v10l-4 50-13 5h-3v-9z" fill="#FEFEFE"/>
<path transform="translate(496,685)" d="m0 0h12l9 3 9 6 6 8 3 10v10l-3 10-7 9-7 4v-8l7-8 2-5 1-9-3-10-7-8-8-4-11-1-10 3-7 5-4 6-2 6v10l4 10 7 6v8l-7-4-7-8-4-11v-11l3-10 7-9 10-6z" fill="#172A74"/>
<path transform="translate(929,902)" d="m0 0 6 2 34 17 10 9 2 5v7l-4 9-6 7-4 2h-11l-12-5-32-16-1-2 2-4 5 1 32 16 6 2h8l6-4 3-7-2-9-6-5-38-19 1-5z" fill="#172A74"/>
<path transform="translate(540,796)" d="m0 0 2 1v5l-5 2-37 8-8 4-3 6 1 9 4 5 5 2 11-1 33-7h6v6l-44 9h-7l-9-3-6-8-1-4v-13l4-6 8-5 16-4z" fill="#172A74"/>
<path transform="translate(610,970)" d="m0 0 4 2 18 22-3 4-4-1-11-14-4-4-16 13 6 8 9 11v3l-5 2-13-16-3-3-13 10-3 2 2 5 11 13 2 4-3 3-4-2-13-16-5-7 5-5 14-11 16-13 10-8z" fill="#172A74"/>
<path transform="translate(694,883)" d="m0 0 5 4-1 38-1 10-10 2h-7l2-39 1-7 6-3z" fill="#FEFEFE"/>
<path transform="translate(902,952)" d="m0 0 5 3-2 5-10 14v3l15 10 3-1 12-18 5 2 1 2-13 19v2l12 8 10 7-3 5-5-2-17-12-23-16-7-5 2-5 8-11z" fill="#172A74"/>
<path transform="translate(723,963)" d="m0 0h46l25 1 2 7h-101l4-3 10-4z" fill="#FEFEFE"/>
<path transform="translate(733,986)" d="m0 0h9l11 1v19l-2 9-24 1 1-19z" fill="#FEFEFE"/>
<path transform="translate(751,881)" d="m0 0 5 1v49l-10 2h-5l1-42 6-5z" fill="#FEFEFE"/>
<path transform="translate(775,983)" d="m0 0 10 1 6 2 1 6 1 24-25-1 2-16 3-3 3-2z" fill="#FEFEFE"/>
<path transform="translate(801,876)" d="m0 0 2 2 1 3v64l-10-3v-51z" fill="#FEFEFE"/>
<path transform="translate(812,889)" d="m0 0h4l3 6v41l-10-1-3-1v-43z" fill="#FEFEFE"/>
<path transform="translate(677,985)" d="m0 0 17 1 2 16-2 12h-22l1-8 3-20z" fill="#FEFEFE"/>
<path transform="translate(737,697)" d="m0 0 4 2 2 2 2 5 4 4 6 2 2 2h14l-1 5-5 3-6 3-3 4-6-5 1-5 1-3-10-4-7 3-8 7-9 9-1 5-12 1-1-10 2-1 6 1 7-6 4-1 4-3-1-4-2-4 3-1 7 4 6-4-5-5-2-3z" fill="#FEFEFE"/>
<path transform="translate(944,859)" d="m0 0 6 1-1 7-2 6 10 3 43 15-1 6-6-1-49-17-3 11-6-1 2-9z" fill="#172A74"/>
<path transform="translate(528,757)" d="m0 0h8l1 6-54 7-2 1 2 21-6 1-3-20v-9l30-4z" fill="#172A74"/>
<path transform="translate(1026,688)" d="m0 0h5v29l-47-1-17-1 1-6h25l32 1v-21z" fill="#172A74"/>
<path transform="translate(522,867)" d="m0 0h2l4 11v8l-2 4-8 4-7-1-5-5-5-13 2-2z" fill="#FEFEFE"/>
<path transform="translate(995,826)" d="m0 0 9 2 4 5 1 6-3 13-10-1-12-3-1-5 3-10 4-5z" fill="#FEFEFE"/>
<path transform="translate(741,767)" d="m0 0 11 5 2 3 1 12v49l-5-1-4-2-3-4v-4l7-2-1-41-4-5v-4l-5-1-1 2-3-1z" fill="#FDFDFD"/>
<path transform="translate(764,879)" d="m0 0h1v73l-6-1v-69l4 1z" fill="#FEFEFE"/>
<path transform="translate(759,980)" d="m0 0 6 2v61l-1 1h-6v-22z" fill="#FEFEFE"/>
<path transform="translate(966,823)" d="m0 0 7 1 5 4 1 2v8l-2 8-19-4-2-1 2-10 4-6z" fill="#FEFEFE"/>
<path transform="translate(548,858)" d="m0 0h2l3 8v9l-5 5-2 1h-7l-5-4-4-9v-4z" fill="#FEFEFE"/>
<path transform="translate(488,485)" d="m0 0 8 1 4 4 1 9-3 6-6 3h-10v-22z" fill="#172A74"/>
<path transform="translate(562,485)" d="m0 0 2 4 7 31v3l-7 1h-10l2-12z" fill="#172A74"/>
<path transform="translate(999,492)" d="m0 0h2l7 33v2h-17l2-11z" fill="#172A74"/>
<path transform="translate(798,765)" d="m0 0 5 2 1 14v33l-5 2-2-1v-31z" fill="#FEFEFE"/>
<path transform="translate(809,845)" d="m0 0h22l-2 5-1 1-38 3h-8l4-7 1-1z" fill="#FEFEFE"/>
<path transform="translate(759,752)" d="m0 0 6 2v46l-2 2-4-1z" fill="#FEFEFE"/>
<path transform="translate(717,837)" d="m0 0 8 1 34 10 2 2-10-1-29-7-7 1-13 10-18 13-9 7h-2l1-4 38-28z" fill="#FEFEFE"/>
<path transform="translate(750,865)" d="m0 0h3l-1 4-6 2-48 6h-8l-4-3 9-2z" fill="#FEFEFE"/>
<path transform="translate(722,944)" d="m0 0h16v6l-5-1-4 5h-22v-9z" fill="#FEFEFE"/>
<path transform="translate(693,939)" d="m0 0h4l-1 15-1 1-16 1v-13l1-2z" fill="#FEFEFE"/>
<path transform="translate(754,935)" d="m0 0h2v16l-17 1 1-14z" fill="#FEFEFE"/>
<path transform="translate(829,1036)" d="m0 0 30 1v5l-31 3h-4l-1-8z" fill="#FEFEFE"/>
<path transform="translate(801,963)" d="m0 0 16 2 6 2 1 4h23l-2 3h-11l-30-2-4-1z" fill="#FEFEFE"/>
<path transform="translate(759,804)" d="m0 0 6 2v32l-4 3h-2z" fill="#FEFEFE"/>
<path transform="translate(802,986)" d="m0 0h5v17l-1 12-1 1h-8l2-14z" fill="#FEFEFE"/>
<path transform="translate(703,913)" d="m0 0h1v42l-3 2h-3l1-32 1-7z" fill="#FEFEFE"/>
<path transform="translate(754,953)" d="m0 0v3l-3 2-43 4h-10l2-2 5-2z" fill="#FEFEFE"/>
<path transform="translate(701,978)" d="m0 0 7 1 21-1 2 4-5 3h-25z" fill="#FEFEFE"/>
<path transform="translate(806,939)" d="m0 0 10 1 3 1v12h-13z" fill="#FEFEFE"/>
<path transform="translate(832,938)" d="m0 0 7 7 3 1 1 4v7l-12-1-1-4z" fill="#FEFEFE"/>
<path transform="translate(815,986)" d="m0 0 16 1 19 2v3l-16-1-15-2 1 2v7h-6v-8z" fill="#FEFEFE"/>
<path transform="translate(692,958)" d="m0 0h2l-2 6-4 6h-13l3-5 1-5z" fill="#FEFEFE"/>
<path transform="translate(759,955)" d="m0 0 24 1 6 1-3 2-6 2h-17l-9-2z" fill="#FEFEFE"/>
<path transform="translate(770,840)" d="m0 0 6 2 6 4-3 3-9 4-7-6 2-4z" fill="#FEFEFE"/>
<path transform="translate(663,1038)" d="m0 0h14l16 1v5l-26-1-4-1z" fill="#FEFEFE"/>
<path transform="translate(718,842)" d="m0 0 11 2-2 4-7 7-4-2-5-4v-2z" fill="#FEFEFE"/>
<path transform="translate(800,951)" d="m0 0 10 5 15 1 8 3v1l-37-2 2-5z" fill="#FEFEFE"/>
<path transform="translate(782,707)" d="m0 0h2v12l-9 3h-3l1-11z" fill="#FEFEFE"/>
<path transform="translate(741,833)" d="m0 0 6 2 8 4-1 6-15-4-2-1 2-4z" fill="#FEFEFE"/>
<path transform="translate(711,745)" d="m0 0 2 3 1 11h-9l-2-8z" fill="#FEFEFE"/>
<path transform="translate(733,794)" d="m0 0 3 4 2 5v15l-4 1-1-8z" fill="#FEFEFE"/>
<path transform="translate(809,836)" d="m0 0 4 1 7 5v1h-21l3-3z" fill="#FEFEFE"/>
<path transform="translate(665,1028)" d="m0 0h26v3h-17l-9-1z" fill="#FEFEFE"/>
<path transform="translate(704,889)" d="m0 0h1v18l-4 1 1-17z" fill="#FEFEFE"/>
<path transform="translate(677,875)" d="m0 0h6l3 3-4 4-4-2-4-4z" fill="#FEFEFE"/>
<path transform="translate(677,1020)" d="m0 0 18 1v4l-18-4z" fill="#FEFEFE"/>
<path transform="translate(794,831)" d="m0 0 4 2-1 3-5 2-2-4z" fill="#FEFEFE"/>
<path transform="translate(813,813)" d="m0 0 4 4-6 4-2-5z" fill="#FEFEFE"/>
<path transform="translate(687,879)" d="m0 0 6 2-4 2-3 3-3-1 2-4z" fill="#FEFEFE"/>
<path transform="translate(748,872)" d="m0 0 2 1-2 5-2 3-3-1 4-7z" fill="#FEFEFE"/>
<path transform="translate(812,1024)" d="m0 0h8v3l-5 1z" fill="#FEFEFE"/>
</svg>
