<?xml version="1.0" encoding="utf-8"?>
<!-- Generator: Adobe Illustrator 25.0.1, SVG Export Plug-In . SVG Version: 6.00 Build 0)  -->
<svg width="450" height="450" version="1.0" id="katman_1" xmlns="http://www.w3.org/2000/svg" xmlns:xlink="http://www.w3.org/1999/xlink" x="0px" y="0px"
	viewBox="130 50 300 300" style="enable-background:new 0 0 400 400;" xml:space="preserve">
<style type="text/css">
	.st0{fill-rule:evenodd;clip-rule:evenodd;fill:url(#SVGID_1_);}
	.st1{fill-rule:evenodd;clip-rule:evenodd;fill:#071B2C;}
	.st2{fill-rule:evenodd;clip-rule:evenodd;fill:url(#SVGID_2_);}
	.st3{fill-rule:evenodd;clip-rule:evenodd;fill:#3E8EDE;}
	.st4{fill-rule:evenodd;clip-rule:evenodd;fill:url(#SVGID_3_);}
	.st5{fill-rule:evenodd;clip-rule:evenodd;fill:url(#SVGID_4_);}
	.st6{fill-rule:evenodd;clip-rule:evenodd;fill:url(#SVGID_5_);}
	.st7{fill-rule:evenodd;clip-rule:evenodd;fill:url(#SVGID_6_);}
	.st8{fill-rule:evenodd;clip-rule:evenodd;fill:url(#SVGID_7_);}
	.st9{fill-rule:evenodd;clip-rule:evenodd;fill:url(#SVGID_8_);}
	.st10{fill-rule:evenodd;clip-rule:evenodd;fill:url(#SVGID_9_);}
	.st11{fill-rule:evenodd;clip-rule:evenodd;fill:url(#SVGID_10_);}
	.st12{fill-rule:evenodd;clip-rule:evenodd;fill:url(#SVGID_11_);}
	.st13{fill-rule:evenodd;clip-rule:evenodd;fill:url(#SVGID_12_);}
	.st14{fill-rule:evenodd;clip-rule:evenodd;fill:url(#SVGID_13_);}
	.st15{fill-rule:evenodd;clip-rule:evenodd;fill:url(#SVGID_14_);}
	.st16{fill-rule:evenodd;clip-rule:evenodd;fill:url(#SVGID_15_);}
	.st17{fill-rule:evenodd;clip-rule:evenodd;fill:url(#SVGID_16_);}
	.st18{fill-rule:evenodd;clip-rule:evenodd;fill:url(#SVGID_17_);}
	.st19{fill-rule:evenodd;clip-rule:evenodd;fill:url(#SVGID_18_);}
	.st20{fill-rule:evenodd;clip-rule:evenodd;fill:url(#SVGID_19_);}
	.st21{fill-rule:evenodd;clip-rule:evenodd;fill:url(#SVGID_20_);}
	.st22{fill-rule:evenodd;clip-rule:evenodd;fill:url(#SVGID_21_);}
	.st23{fill-rule:evenodd;clip-rule:evenodd;fill:url(#SVGID_22_);}
	.st24{fill-rule:evenodd;clip-rule:evenodd;fill:url(#SVGID_23_);}
	.st25{fill-rule:evenodd;clip-rule:evenodd;fill:url(#SVGID_24_);}
	.st26{fill-rule:evenodd;clip-rule:evenodd;fill:url(#SVGID_25_);}
	.st27{fill-rule:evenodd;clip-rule:evenodd;fill:url(#SVGID_26_);}
	.st28{fill-rule:evenodd;clip-rule:evenodd;fill:url(#SVGID_27_);}
	.st29{fill-rule:evenodd;clip-rule:evenodd;fill:url(#SVGID_28_);}
	.st30{fill-rule:evenodd;clip-rule:evenodd;fill:url(#SVGID_29_);}
	.st31{fill-rule:evenodd;clip-rule:evenodd;fill:url(#SVGID_30_);}
	.st32{fill-rule:evenodd;clip-rule:evenodd;fill:url(#SVGID_31_);}
	.st33{fill-rule:evenodd;clip-rule:evenodd;fill:url(#SVGID_32_);}
	.st34{fill-rule:evenodd;clip-rule:evenodd;fill:url(#SVGID_33_);}
	.st35{fill-rule:evenodd;clip-rule:evenodd;fill:url(#SVGID_34_);}
	.st36{fill-rule:evenodd;clip-rule:evenodd;fill:url(#SVGID_35_);}
	.st37{fill-rule:evenodd;clip-rule:evenodd;fill:url(#SVGID_36_);}
</style>
<linearGradient id="SVGID_1_" gradientUnits="userSpaceOnUse" x1="-258.0141" y1="741" x2="-257.0141" y2="741" gradientTransform="matrix(303.272 303.272 303.272 -303.272 -146435.3125 302933.75)">
	<stop  offset="0" style="stop-color:#BDA267"/>
	<stop  offset="7.000000e-02" style="stop-color:#BDA267"/>
	<stop  offset="0.14" style="stop-color:#CBB580"/>
	<stop  offset="0.27" style="stop-color:#F0E4BE"/>
	<stop  offset="0.27" style="stop-color:#F0E5BF"/>
	<stop  offset="0.39" style="stop-color:#CDB782"/>
	<stop  offset="0.46" style="stop-color:#BDA267"/>
	<stop  offset="0.66" style="stop-color:#F0E5BF"/>
	<stop  offset="0.85" style="stop-color:#CDB782"/>
	<stop  offset="0.96" style="stop-color:#BDA267"/>
	<stop  offset="1" style="stop-color:#BDA267"/>
</linearGradient>
<path class="st0" d="M430,200.6v-1.4C429.7,116.9,362.5,50,280,50c-82.6,0-150,67.3-150,150s67.4,150,150,150
	C362.5,350,429.7,283.1,430,200.6z"/>
<path class="st1" d="M280,55.8c-79.5,0-144.1,64.7-144.1,144.1S200.5,344.1,280,344.1S424.1,279.5,424.1,200S359.5,55.9,280,55.8"/>
<linearGradient id="SVGID_2_" gradientUnits="userSpaceOnUse" x1="-258.0141" y1="740.9999" x2="-257.0141" y2="740.9999" gradientTransform="matrix(303.272 303.272 303.272 -303.272 -146435.3125 302933.75)">
	<stop  offset="0" style="stop-color:#BDA267"/>
	<stop  offset="7.000000e-02" style="stop-color:#BDA267"/>
	<stop  offset="0.14" style="stop-color:#CBB580"/>
	<stop  offset="0.27" style="stop-color:#F0E4BE"/>
	<stop  offset="0.27" style="stop-color:#F0E5BF"/>
	<stop  offset="0.39" style="stop-color:#CDB782"/>
	<stop  offset="0.46" style="stop-color:#BDA267"/>
	<stop  offset="0.66" style="stop-color:#F0E5BF"/>
	<stop  offset="0.85" style="stop-color:#CDB782"/>
	<stop  offset="0.96" style="stop-color:#BDA267"/>
	<stop  offset="1" style="stop-color:#BDA267"/>
</linearGradient>
<path class="st2" d="M378.7,200c0-54.4-44.2-98.7-98.7-98.7s-98.7,44.2-98.7,98.7s44.2,98.7,98.7,98.7S378.7,254.5,378.7,200
	L378.7,200z"/>
<path class="st3" d="M280,298.9c11.5,0,22.6-2.1,33-5.7v-30c-12.5,2.1-23.7,7.8-33.1,15.9c-9.5-8.1-20.5-13.6-32.9-15.9v30
	C257.4,296.8,268.5,298.9,280,298.9"/>
<path class="st1" d="M364.3,193.1c-2.1-0.8-4-1.4-4-1.4c-25-7.5-52-11.4-80.4-11.4c-27.9,0-55.6,3.9-80.4,11.4c0,0-1.8,0.6-3.9,1.4
	l4.6,4.2c3.9-1.2,7.9-2.2,12-3.3c7.5,43.5,33,80,68,99.1c34.8-19.2,60.5-55.6,68-99.1c3.9,1.1,7.8,1.9,11.5,3.1L364.3,193.1z
	 M280,175.4c24.1,0,47.4,2.9,69.5,8.2c0.6-5.1,0.8-10.4,0.8-15.6c0-11.7-1.4-22.9-3.8-33.8c-6.9,2.4-14.2,3.8-21.9,3.8
	c-16.8,0-32.2-6.3-44.5-16.9c-12.3,10.6-27.8,16.9-44.6,16.9c-7.6,0-15-1.4-21.9-3.8c-2.4,10.8-3.8,22.1-3.8,33.8
	c0,5.2,0.3,10.5,0.8,15.6C232.6,178.3,256.3,175.4,280,175.4"/>
<path class="st3" d="M280.1,101.3c-11.5,0-22.6,2.1-33,5.7v30c12.5-2.1,23.7-7.8,33.1-15.9c9.5,8.1,20.5,13.7,32.9,15.9v-30
	C302.8,103.2,291.7,101.3,280.1,101.3"/>
<linearGradient id="SVGID_3_" gradientUnits="userSpaceOnUse" x1="-258.0141" y1="741.0091" x2="-257.0141" y2="741.0091" gradientTransform="matrix(303.272 303.272 303.272 -303.272 -146487.8906 302986.375)">
	<stop  offset="0" style="stop-color:#BDA267"/>
	<stop  offset="7.000000e-02" style="stop-color:#BDA267"/>
	<stop  offset="0.14" style="stop-color:#CBB580"/>
	<stop  offset="0.27" style="stop-color:#F0E4BE"/>
	<stop  offset="0.27" style="stop-color:#F0E5BF"/>
	<stop  offset="0.39" style="stop-color:#CDB782"/>
	<stop  offset="0.46" style="stop-color:#BDA267"/>
	<stop  offset="0.66" style="stop-color:#F0E5BF"/>
	<stop  offset="0.85" style="stop-color:#CDB782"/>
	<stop  offset="0.96" style="stop-color:#BDA267"/>
	<stop  offset="1" style="stop-color:#BDA267"/>
</linearGradient>
<path class="st4" d="M164.1,183.9l0.8,0.1l0.4,0.1l0.3,0.3c0.3,0.3,0.6,0.6,0.8,1.1s0,1.1,0,1.8l2.2,0.4l2.6-12.1l-2.2-0.4
	c-0.1,0.8-0.4,1.4-0.6,1.8c-0.1,0.3-0.4,0.6-0.8,0.8c-0.1,0.1-0.3,0.1-0.4,0.1h-0.6c-0.1,0-0.4,0-0.8-0.1c-0.3,0-0.8-0.1-1.2-0.3
	l-10.4-2.1c-0.6-0.1-1.1-0.3-1.4-0.4s-0.4-0.3-0.6-0.6c-0.3-0.4-0.3-1.2-0.1-2.1c0.1-1.2,0.6-1.8,1.4-1.9c0.9-0.3,2.2-0.3,4.4,0.1
	c1.5,0.3,2.6,0.8,3,1.2s0.6,1.2,0.4,2.1c-0.1,0.4-0.3,1.1-0.6,1.6l2.2,1.4c1.1-1.1,1.6-2.4,2.1-4.2c0.4-2.4,0.1-4.2-0.8-5.6
	c-1.1-1.4-2.9-2.2-5.6-2.9c-1.2-0.3-2.2-0.4-3.3-0.4c-1.2,0-2.2,0.1-3.1,0.6c-1.5,0.8-2.4,2.2-2.9,4.5c0,0.3-0.1,0.6-0.1,1.1
	l-0.1,1.4l-0.4,2.2c-0.1,0.8-0.3,1.5-0.4,2.6l-1.5,7.2l2.2,0.4c0.1-0.8,0.3-1.2,0.6-1.5c0.1-0.3,0.4-0.6,0.8-0.8l0.4-0.1h0.6
	c0.3,0,0.4,0,0.8,0.1c0.3,0,0.8,0.1,1.2,0.3l10.2,2.1C163.5,183.8,163.8,183.8,164.1,183.9L164.1,183.9z"/>
<linearGradient id="SVGID_4_" gradientUnits="userSpaceOnUse" x1="-258.0141" y1="741.0043" x2="-257.0141" y2="741.0043" gradientTransform="matrix(303.272 303.272 303.272 -303.272 -146462.9219 302961.4062)">
	<stop  offset="0" style="stop-color:#BDA267"/>
	<stop  offset="7.000000e-02" style="stop-color:#BDA267"/>
	<stop  offset="0.14" style="stop-color:#CBB580"/>
	<stop  offset="0.27" style="stop-color:#F0E4BE"/>
	<stop  offset="0.27" style="stop-color:#F0E5BF"/>
	<stop  offset="0.39" style="stop-color:#CDB782"/>
	<stop  offset="0.46" style="stop-color:#BDA267"/>
	<stop  offset="0.66" style="stop-color:#F0E5BF"/>
	<stop  offset="0.85" style="stop-color:#CDB782"/>
	<stop  offset="0.96" style="stop-color:#BDA267"/>
	<stop  offset="1" style="stop-color:#BDA267"/>
</linearGradient>
<path class="st5" d="M172,154.7c0.3,0.1,0.4,0.3,0.6,0.3c0.1,0.1,0.3,0.1,0.3,0.3l0.3,0.3c0.3,0.4,0.4,0.8,0.4,1.2s-0.1,1.1-0.6,1.6
	l1.9,1.1l4.2-8.1l-9.1-4.6l3-6l9.1,4.6l4.2-8.1l-1.9-1.1c-0.4,0.6-0.8,1.1-1.1,1.4s-0.6,0.4-0.9,0.4h-0.4c-0.1,0-0.3,0-0.4-0.1
	c-0.1,0-0.4-0.1-0.8-0.3s-0.6-0.3-1.1-0.6l-9.1-4.5c-0.4-0.1-0.8-0.4-0.9-0.4c-0.3-0.1-0.4-0.3-0.6-0.3l-0.4-0.3
	c0-0.1-0.1-0.1-0.3-0.3c-0.3-0.4-0.4-0.8-0.4-1.2s0.3-1.1,0.6-1.8l-1.9-1.1l-4.4,8.2l7.5,3.8l-3.1,6l-7.5-3.9l-4.2,8.1l1.9,1.1
	c0.4-0.6,0.8-1.1,0.9-1.4c0.3-0.3,0.6-0.4,0.9-0.4h0.4c0.1,0,0.3,0,0.6,0.1c0.1,0,0.4,0.1,0.8,0.3s0.6,0.3,1.1,0.6l9.1,4.8
	C171.4,154.4,171.7,154.5,172,154.7L172,154.7z"/>
<linearGradient id="SVGID_5_" gradientUnits="userSpaceOnUse" x1="-258.0141" y1="741.0012" x2="-257.0141" y2="741.0012" gradientTransform="matrix(303.272 303.272 303.272 -303.272 -146441.8438 302940.3438)">
	<stop  offset="0" style="stop-color:#BDA267"/>
	<stop  offset="7.000000e-02" style="stop-color:#BDA267"/>
	<stop  offset="0.14" style="stop-color:#CBB580"/>
	<stop  offset="0.27" style="stop-color:#F0E4BE"/>
	<stop  offset="0.27" style="stop-color:#F0E5BF"/>
	<stop  offset="0.39" style="stop-color:#CDB782"/>
	<stop  offset="0.46" style="stop-color:#BDA267"/>
	<stop  offset="0.66" style="stop-color:#F0E5BF"/>
	<stop  offset="0.85" style="stop-color:#CDB782"/>
	<stop  offset="0.96" style="stop-color:#BDA267"/>
	<stop  offset="1" style="stop-color:#BDA267"/>
</linearGradient>
<path class="st6" d="M189.7,125.9c0.1,0.2,0.4,0.3,0.4,0.4s0.3,0.3,0.3,0.3l0.1,0.4c0.1,0.4,0.3,0.9,0.1,1.2
	c-0.1,0.4-0.4,0.9-0.9,1.5l1.6,1.5l7.9-9.2l-1.6-1.5c-0.4,0.4-0.9,0.9-1.2,1.1c-0.3,0.3-0.6,0.4-1.1,0.3h-0.4
	c-0.1,0-0.3-0.2-0.4-0.3l-0.6-0.4c-0.3-0.2-0.6-0.4-0.9-0.8l-7.8-6.8l-0.8-0.8c-0.1-0.2-0.4-0.3-0.4-0.4l-0.3-0.3l-0.1-0.4
	c-0.1-0.4-0.3-0.9-0.1-1.2c0.1-0.4,0.4-0.9,0.9-1.5l-1.8-1.5l-7.9,9.2l1.6,1.5c0.4-0.4,0.9-0.9,1.2-1.1s0.6-0.3,1.1-0.3
	c0.1,0,0.3,0,0.4,0.2l0.4,0.2l0.6,0.4c0.3,0.2,0.6,0.4,0.9,0.8l7.8,6.8L189.7,125.9z"/>
<linearGradient id="SVGID_6_" gradientUnits="userSpaceOnUse" x1="-258.0141" y1="740.9979" x2="-257.0141" y2="740.9979" gradientTransform="matrix(303.272 303.272 303.272 -303.272 -146423.4375 302921.9375)">
	<stop  offset="0" style="stop-color:#BDA267"/>
	<stop  offset="7.000000e-02" style="stop-color:#BDA267"/>
	<stop  offset="0.14" style="stop-color:#CBB580"/>
	<stop  offset="0.27" style="stop-color:#F0E4BE"/>
	<stop  offset="0.27" style="stop-color:#F0E5BF"/>
	<stop  offset="0.39" style="stop-color:#CDB782"/>
	<stop  offset="0.46" style="stop-color:#BDA267"/>
	<stop  offset="0.66" style="stop-color:#F0E5BF"/>
	<stop  offset="0.85" style="stop-color:#CDB782"/>
	<stop  offset="0.96" style="stop-color:#BDA267"/>
	<stop  offset="1" style="stop-color:#BDA267"/>
</linearGradient>
<path class="st7" d="M215.9,99.2l-2.2,1.7c0.4,0.8,0.8,1.3,1.1,1.8s0.1,0.9,0.1,1.5c0,0.2,0,0.3-0.1,0.4l-0.3,0.4l-0.6,0.6l-0.9,0.8
	l-0.4,0.3c-0.3,0.3-0.6,0.4-0.8,0.6s-0.4,0.3-0.6,0.3l-0.4,0.2h-0.8l-0.3-0.2c-0.1,0-0.3-0.3-0.4-0.4s-0.3-0.4-0.6-0.8l-6.1-8.4
	c-0.3-0.3-0.4-0.6-0.6-0.9l-0.4-0.6c-0.1-0.2-0.1-0.3-0.1-0.4s0-0.3-0.1-0.4c-0.1-0.4,0-0.9,0.1-1.2s0.6-0.8,1.2-1.3l-1.4-1.8
	l-9.6,7.5l1.4,1.8c0.6-0.4,1.1-0.6,1.4-0.8s0.8-0.2,1.1,0l0.4,0.2c0.1,0,0.3,0.2,0.4,0.3l0.6,0.6c0.1,0.3,0.4,0.6,0.8,1.1l6.3,8.2
	c0.3,0.3,0.4,0.6,0.6,0.9s0.3,0.4,0.4,0.6s0.1,0.3,0.1,0.4s0,0.3,0.1,0.4c0.1,0.4,0,0.9-0.1,1.2s-0.6,0.8-1.2,1.3l1.4,1.8l15.3-11.6
	L215.9,99.2z"/>
<linearGradient id="SVGID_7_" gradientUnits="userSpaceOnUse" x1="-258.0141" y1="740.9946" x2="-257.0141" y2="740.9946" gradientTransform="matrix(303.272 303.272 303.272 -303.272 -146402.8281 302901.3125)">
	<stop  offset="0" style="stop-color:#BDA267"/>
	<stop  offset="7.000000e-02" style="stop-color:#BDA267"/>
	<stop  offset="0.14" style="stop-color:#CBB580"/>
	<stop  offset="0.27" style="stop-color:#F0E4BE"/>
	<stop  offset="0.27" style="stop-color:#F0E5BF"/>
	<stop  offset="0.39" style="stop-color:#CDB782"/>
	<stop  offset="0.46" style="stop-color:#BDA267"/>
	<stop  offset="0.66" style="stop-color:#F0E5BF"/>
	<stop  offset="0.85" style="stop-color:#CDB782"/>
	<stop  offset="0.96" style="stop-color:#BDA267"/>
	<stop  offset="1" style="stop-color:#BDA267"/>
</linearGradient>
<path class="st8" d="M236.9,94.4l0.9,2.1l10.6-4.3l-0.9-2.1c-0.4,0.2-0.9,0.2-1.2,0.2s-0.8-0.2-1.1-0.3s-0.8-0.4-1.1-0.8
	c-0.4-0.3-0.9-0.9-1.4-1.5l-9.8-10.9l-1.1-1.1c-0.1-0.2-0.3-0.3-0.4-0.6l-0.4-0.6l-4.8,1.9c0,0.3,0.1,0.6,0.1,1.2
	c0,0.4,0.1,1.2,0.1,1.9l0.8,14.6V96c0,0.4-0.1,0.9-0.1,1.2l-0.4,0.9c-0.3,0.3-0.4,0.4-0.9,0.8l0.9,2.1l8.6-3.6l-0.9-2.1
	c-0.9,0.3-1.5,0.3-1.8,0.3s-0.6-0.3-0.9-0.8c-0.1-0.2-0.1-0.4-0.3-0.8l-0.1-1.1v-0.6l5.4-2.2l0.4,0.4c0.8,0.9,1.1,1.5,1.2,1.7
	c0.1,0.4,0.1,0.8-0.1,1.1C238.1,93.7,237.7,94.1,236.9,94.4L236.9,94.4z M230.9,88.8l-0.1-3.9l-0.1-2.8l0.6,0.6l0.4,0.6l0.4,0.6
	l0.8,0.8c0,0.2,0.1,0.2,0.3,0.3l1.8,2.2L230.9,88.8z"/>
<linearGradient id="SVGID_8_" gradientUnits="userSpaceOnUse" x1="-258.014" y1="740.9907" x2="-257.014" y2="740.9907" gradientTransform="matrix(303.26 303.26 303.26 -303.26 -146374.1562 302866.375)">
	<stop  offset="0" style="stop-color:#BDA267"/>
	<stop  offset="7.000000e-02" style="stop-color:#BDA267"/>
	<stop  offset="0.14" style="stop-color:#CBB580"/>
	<stop  offset="0.27" style="stop-color:#F0E4BE"/>
	<stop  offset="0.27" style="stop-color:#F0E5BF"/>
	<stop  offset="0.39" style="stop-color:#CDB782"/>
	<stop  offset="0.46" style="stop-color:#BDA267"/>
	<stop  offset="0.66" style="stop-color:#F0E5BF"/>
	<stop  offset="0.85" style="stop-color:#CDB782"/>
	<stop  offset="0.96" style="stop-color:#BDA267"/>
	<stop  offset="1" style="stop-color:#BDA267"/>
</linearGradient>
<path class="st9" d="M268.3,89c0.3,0,0.6,0,0.9-0.2c3.1-0.3,5.4-1.5,6.6-3.6c1.4-2.1,1.8-4.9,1.4-8.6c-0.1-1.7-0.5-3.2-0.9-4.5
	s-1-2.6-1.6-3.4c-0.8-1.1-1.8-1.8-3-2.2c-0.8-0.3-1.8-0.4-2.9-0.4c-0.6,0-1.2,0-1.8,0.2c-0.3,0-0.6,0.2-1.2,0.2s-1,0.2-1.5,0.3
	c-0.6,0.2-1.4,0.2-2.2,0.3s-2.1,0.3-3.5,0.4l-6.4,0.6l0.3,2.2h1.6c0.3,0.2,0.6,0.3,0.9,0.6l0.3,0.4c0.1,0.2,0.1,0.3,0.1,0.4
	s0.1,0.4,0.1,0.8s0.1,0.8,0.1,1.2l1.2,10.3c0,0.4,0.1,0.8,0.1,1.1v1.2l-0.1,0.4c-0.1,0.4-0.5,0.8-0.8,0.9s-0.9,0.4-1.8,0.4l0.3,2.2
	l8-0.9l2.1-0.3c0.8-0.2,1.5-0.2,2.2-0.2L268.3,89z M265.1,85.8h-0.5c-0.3,0-0.6-0.2-0.9-0.4c-0.1-0.2-0.3-0.2-0.3-0.3
	c-0.1-0.2-0.1-0.2-0.1-0.3s-0.1-0.3-0.1-0.6c0-0.2-0.1-0.6-0.1-0.9l-1.2-10.7c0-0.4-0.1-0.9,0-1.2c0-0.3,0.1-0.6,0.3-0.8
	s0.5-0.3,0.9-0.4c0.3-0.2,0.9-0.2,1.5-0.3c1-0.2,1.8-0.2,2.5,0.2c0.8,0.2,1.2,0.6,1.8,1.1c0.5,0.6,0.9,1.3,1.2,2.2s0.5,2.2,0.8,3.6
	c0.1,1.5,0.3,2.8,0.1,3.9c0,1.1-0.3,1.9-0.6,2.6c-0.3,0.8-0.8,1.2-1.5,1.5c-0.6,0.3-1.5,0.6-2.4,0.8
	C265.7,85.7,265.4,85.9,265.1,85.8L265.1,85.8z"/>
<linearGradient id="SVGID_9_" gradientUnits="userSpaceOnUse" x1="-258.0141" y1="740.9875" x2="-257.0141" y2="740.9875" gradientTransform="matrix(303.272 303.272 303.272 -303.272 -146361.625 302860.0625)">
	<stop  offset="0" style="stop-color:#BDA267"/>
	<stop  offset="7.000000e-02" style="stop-color:#BDA267"/>
	<stop  offset="0.14" style="stop-color:#CBB580"/>
	<stop  offset="0.27" style="stop-color:#F0E4BE"/>
	<stop  offset="0.27" style="stop-color:#F0E5BF"/>
	<stop  offset="0.39" style="stop-color:#CDB782"/>
	<stop  offset="0.46" style="stop-color:#BDA267"/>
	<stop  offset="0.66" style="stop-color:#F0E5BF"/>
	<stop  offset="0.85" style="stop-color:#CDB782"/>
	<stop  offset="0.96" style="stop-color:#BDA267"/>
	<stop  offset="1" style="stop-color:#BDA267"/>
</linearGradient>
<path class="st10" d="M307.3,83.8l-2.7-0.4c-0.1,0.8-0.5,1.5-0.6,1.9s-0.5,0.8-0.8,1.1s-0.8,0.3-1.2,0.4c-0.5,0-1,0-1.8-0.2
	l-0.9-0.2c-0.6-0.2-1.2-0.2-1.5-0.3c-0.5-0.2-0.6-0.2-0.8-0.4c-0.1-0.2-0.3-0.4-0.3-0.8s0-0.8,0.1-1.2l0.6-4.1l4.5,0.8
	c0.6,0.2,1.2,0.2,1.4,0.3l0.9,0.2l0.6-3.9h-1c-0.3,0-0.8,0-1.2-0.2l-4.8-0.8l0.6-3.8c0-0.4,0.1-0.8,0.3-1.1s0.3-0.4,0.5-0.6
	s0.5-0.2,0.8-0.2s0.8,0,1.4,0.2l0.5,0.2c0.8,0.2,1.4,0.3,1.8,0.4s0.8,0.4,1,0.8s0.5,0.8,0.5,1.2s0.1,1.1,0.1,1.8l2.7,0.4l1-7.3
	c-0.5,0-0.8,0.2-0.9,0.2h-0.9c-0.3,0-0.6,0-1-0.2l-1.4-0.2l-14.5-2.1l-0.3,2.2c0.8,0.2,1.2,0.3,1.5,0.4s0.6,0.4,0.8,0.8l0.1,0.4
	c0,0.2,0.1,0.3,0.1,0.6v0.8c0,0.3-0.1,0.8-0.1,1.2l-1.5,10.2c-0.1,0.4-0.1,0.8-0.1,1.1l-0.1,0.8l-0.1,0.4c0,0.2-0.1,0.2-0.3,0.3
	c-0.3,0.4-0.6,0.6-1,0.8s-1,0.2-1.8,0l-0.3,2.2l19.4,2.8L307.3,83.8z"/>
<linearGradient id="SVGID_10_" gradientUnits="userSpaceOnUse" x1="-258.0141" y1="740.9858" x2="-257.0141" y2="740.9858" gradientTransform="matrix(303.272 303.272 303.272 -303.272 -146351.5781 302850.0625)">
	<stop  offset="0" style="stop-color:#BDA267"/>
	<stop  offset="7.000000e-02" style="stop-color:#BDA267"/>
	<stop  offset="0.14" style="stop-color:#CBB580"/>
	<stop  offset="0.27" style="stop-color:#F0E4BE"/>
	<stop  offset="0.27" style="stop-color:#F0E5BF"/>
	<stop  offset="0.39" style="stop-color:#CDB782"/>
	<stop  offset="0.46" style="stop-color:#BDA267"/>
	<stop  offset="0.66" style="stop-color:#F0E5BF"/>
	<stop  offset="0.85" style="stop-color:#CDB782"/>
	<stop  offset="0.96" style="stop-color:#BDA267"/>
	<stop  offset="1" style="stop-color:#BDA267"/>
</linearGradient>
<path class="st11" d="M334.6,93.8l-2.5-1.1c-0.5,0.8-0.8,1.3-1,1.8s-0.8,0.8-1.2,0.8l-0.5,0.2h-0.6c-0.1,0-0.5-0.2-0.8-0.2
	c-0.3-0.2-0.6-0.3-1-0.4l-0.5-0.2c-0.5-0.2-0.6-0.3-0.9-0.4s-0.5-0.2-0.6-0.3s-0.3-0.2-0.3-0.3c-0.1,0-0.1-0.2-0.1-0.3l-0.1-0.3
	v-0.3c0-0.2,0.1-0.3,0.1-0.6c0.1-0.2,0.1-0.4,0.3-0.9l4-9.8c0.1-0.4,0.3-0.8,0.5-1.1s0.1-0.4,0.3-0.6l0.3-0.4l0.3-0.3
	c0.3-0.3,0.8-0.4,1.2-0.4s1,0.2,1.8,0.4L334,77l-11.2-4.7l-0.9,2.1c0.6,0.3,1,0.6,1.4,0.8c0.3,0.3,0.5,0.6,0.6,0.9v1.1
	c0,0.2-0.1,0.4-0.3,0.8s-0.3,0.8-0.5,1.2l-3.9,9.6c-0.1,0.4-0.3,0.8-0.5,1.1s-0.3,0.4-0.3,0.6l-0.3,0.4c-0.1,0-0.1,0.2-0.3,0.3
	c-0.3,0.3-0.8,0.4-1.2,0.4s-1-0.2-1.8-0.4l-0.9,2.1l17.7,7.3L334.6,93.8z"/>
<linearGradient id="SVGID_11_" gradientUnits="userSpaceOnUse" x1="-258.0141" y1="740.985" x2="-257.0141" y2="740.985" gradientTransform="matrix(303.272 303.272 303.272 -303.272 -146344.8438 302843.3438)">
	<stop  offset="0" style="stop-color:#BDA267"/>
	<stop  offset="7.000000e-02" style="stop-color:#BDA267"/>
	<stop  offset="0.14" style="stop-color:#CBB580"/>
	<stop  offset="0.27" style="stop-color:#F0E4BE"/>
	<stop  offset="0.27" style="stop-color:#F0E5BF"/>
	<stop  offset="0.39" style="stop-color:#CDB782"/>
	<stop  offset="0.46" style="stop-color:#BDA267"/>
	<stop  offset="0.66" style="stop-color:#F0E5BF"/>
	<stop  offset="0.85" style="stop-color:#CDB782"/>
	<stop  offset="0.96" style="stop-color:#BDA267"/>
	<stop  offset="1" style="stop-color:#BDA267"/>
</linearGradient>
<path class="st12" d="M359.2,108.8c1.6-0.3,3.3-1.7,5-3.8c1.6-2.2,2.5-4.2,2.4-5.8s-1-3.2-2.9-4.5c-0.1-0.2-0.6-0.4-0.9-0.6l-1-0.8
	l-2-1.3c-0.6-0.4-1.4-0.9-2.1-1.5l-5.9-4.5l-1.4,1.8c0.6,0.4,0.9,0.9,1.2,1.2c0.1,0.3,0.3,0.6,0.3,1.1v0.4l-0.1,0.4
	c0,0.2-0.3,0.4-0.5,0.8s-0.5,0.6-0.8,1.1l-6.1,8.2c-0.3,0.3-0.5,0.6-0.6,0.9l-0.5,0.6l-0.3,0.3l-0.3,0.2c-0.5,0.2-0.8,0.3-1.2,0.2
	s-0.9-0.3-1.6-0.8l-1.4,1.8l9.9,7.3l1.4-1.8c-0.6-0.4-1-0.9-1.4-1.2c-0.1-0.3-0.3-0.8-0.3-1.1V107l0.1-0.4c0-0.2,0.3-0.4,0.5-0.6
	c0.1-0.3,0.5-0.6,0.8-1.1l0.9-1.2c0.8,1.2,2.4,2.7,3.6,3.6C355.8,108.7,357.6,109.3,359.2,108.8L359.2,108.8z M351.7,101.6l4-5.4
	c0.5-0.4,0.6-0.9,0.9-1.1c0.1-0.2,0.5-0.3,0.8-0.3c0.6,0,1.2,0.3,2,0.9c0.9,0.8,1.4,1.3,1.2,2.1c-0.1,0.9-0.8,2.2-2,3.9
	c-0.9,1.2-1.6,1.9-2.4,2.2c-0.6,0.3-1.4,0.2-2.1-0.4C354.1,103.2,352.6,102.4,351.7,101.6z"/>
<linearGradient id="SVGID_12_" gradientUnits="userSpaceOnUse" x1="-258.0141" y1="740.9846" x2="-257.0141" y2="740.9846" gradientTransform="matrix(303.272 303.272 303.272 -303.272 -146344.4219 302842.9062)">
	<stop  offset="0" style="stop-color:#BDA267"/>
	<stop  offset="7.000000e-02" style="stop-color:#BDA267"/>
	<stop  offset="0.14" style="stop-color:#CBB580"/>
	<stop  offset="0.27" style="stop-color:#F0E4BE"/>
	<stop  offset="0.27" style="stop-color:#F0E5BF"/>
	<stop  offset="0.39" style="stop-color:#CDB782"/>
	<stop  offset="0.46" style="stop-color:#BDA267"/>
	<stop  offset="0.66" style="stop-color:#F0E5BF"/>
	<stop  offset="0.85" style="stop-color:#CDB782"/>
	<stop  offset="0.96" style="stop-color:#BDA267"/>
	<stop  offset="1" style="stop-color:#BDA267"/>
</linearGradient>
<path class="st13" d="M377.2,138.9c-0.1-0.3-0.1-0.8,0-1.1l0.1-0.4c0-0.1,0.1-0.3,0.3-0.4s0.3-0.3,0.6-0.4s0.6-0.4,0.9-0.8l8.2-6.3
	c0.3-0.3,0.6-0.4,0.9-0.6s0.5-0.3,0.6-0.4s0.3-0.1,0.5-0.1s0.3,0,0.5-0.1c0.5-0.1,0.9,0,1.2,0.1s0.8,0.6,1.4,1.2l1.8-1.4l-5.5-7.2
	l-6.8,5.1l-4-5.2l6.8-5.1l-5.5-7.2l-1.8,1.3c0.5,0.6,0.6,1.1,0.8,1.3s0.1,0.8,0,1.1l-0.1,0.4c0,0.2-0.1,0.3-0.3,0.4
	s-0.3,0.3-0.6,0.4s-0.6,0.4-0.9,0.8l-8.2,6.3c-0.3,0.3-0.6,0.4-0.9,0.6l-0.6,0.4c-0.1,0.2-0.3,0.2-0.5,0.2s-0.3,0-0.5,0.2
	c-0.5,0.2-0.9,0-1.2-0.2s-0.8-0.6-1.4-1.2L361,122l5.5,7.2l8.1-6.3l4,5.2l-8.1,6.3l5.5,7.4l1.8-1.4
	C377.7,139.8,377.4,139.4,377.2,138.9z"/>
<linearGradient id="SVGID_13_" gradientUnits="userSpaceOnUse" x1="-258.0141" y1="740.9857" x2="-257.0141" y2="740.9857" gradientTransform="matrix(303.272 303.272 303.272 -303.272 -146349.7031 302848.1875)">
	<stop  offset="0" style="stop-color:#BDA267"/>
	<stop  offset="7.000000e-02" style="stop-color:#BDA267"/>
	<stop  offset="0.14" style="stop-color:#CBB580"/>
	<stop  offset="0.27" style="stop-color:#F0E4BE"/>
	<stop  offset="0.27" style="stop-color:#F0E5BF"/>
	<stop  offset="0.39" style="stop-color:#CDB782"/>
	<stop  offset="0.46" style="stop-color:#BDA267"/>
	<stop  offset="0.66" style="stop-color:#F0E5BF"/>
	<stop  offset="0.85" style="stop-color:#CDB782"/>
	<stop  offset="0.96" style="stop-color:#BDA267"/>
	<stop  offset="1" style="stop-color:#BDA267"/>
</linearGradient>
<path class="st14" d="M399.4,150.2c0.3-0.1,0.5-0.1,0.6-0.3s0.3-0.1,0.5-0.1h0.5c0.5,0,0.9,0.1,1.2,0.4s0.6,0.8,1,1.5l2.1-0.9
	l-5-11.1l-2.1,0.9c0.3,0.8,0.5,1.2,0.5,1.5s0,0.8-0.1,1.1l-0.3,0.4c-0.1,0.1-0.1,0.3-0.5,0.3c-0.1,0.1-0.5,0.3-0.8,0.4
	s-0.6,0.3-1.2,0.4l-9.5,4.2c-0.5,0.1-0.8,0.3-1,0.4s-0.5,0.1-0.6,0.3s-0.3,0.1-0.5,0.1h-0.5c-0.5,0-0.9-0.1-1.2-0.4s-0.6-0.8-1-1.5
	l-2.1,0.9l5,11.1l2.1-0.9c-0.3-0.6-0.5-1.2-0.5-1.5s0-0.8,0.1-1.1l0.3-0.4c0.1-0.1,0.1-0.1,0.5-0.3l0.6-0.4c0.1-0.1,0.6-0.3,1.2-0.4
	l9.5-4.2C398.8,150.3,399.1,150.2,399.4,150.2L399.4,150.2z"/>
<linearGradient id="SVGID_14_" gradientUnits="userSpaceOnUse" x1="-258.0141" y1="740.9871" x2="-257.0141" y2="740.9871" gradientTransform="matrix(303.272 303.272 303.272 -303.272 -146360.5781 302859.0625)">
	<stop  offset="0" style="stop-color:#BDA267"/>
	<stop  offset="7.000000e-02" style="stop-color:#BDA267"/>
	<stop  offset="0.14" style="stop-color:#CBB580"/>
	<stop  offset="0.27" style="stop-color:#F0E4BE"/>
	<stop  offset="0.27" style="stop-color:#F0E5BF"/>
	<stop  offset="0.39" style="stop-color:#CDB782"/>
	<stop  offset="0.46" style="stop-color:#BDA267"/>
	<stop  offset="0.66" style="stop-color:#F0E5BF"/>
	<stop  offset="0.85" style="stop-color:#CDB782"/>
	<stop  offset="0.96" style="stop-color:#BDA267"/>
	<stop  offset="1" style="stop-color:#BDA267"/>
</linearGradient>
<path class="st15" d="M410.5,176.3l0.6-0.3l0.6-0.3l0.6-0.3l-1-5.1h-1.2c-0.5,0-1.2-0.1-2-0.3l-14.4-2.1c-0.8-0.1-1.4-0.3-1.8-0.3
	s-0.9-0.3-1.2-0.4s-0.6-0.4-0.8-0.6c-0.1-0.3-0.5-0.6-0.6-1.1l-2.2,0.4l1.8,9.1l2.2-0.4c-0.1-0.9-0.1-1.5,0-1.8s0.5-0.6,0.9-0.6
	l0.9-0.1c0.3,0,0.8,0,1,0.1l0.6,0.1l1.2,5.7l-0.6,0.3c-0.9,0.4-1.6,0.8-2,0.9c-0.5,0.1-0.8,0-1-0.3s-0.5-0.8-0.8-1.6l-2.2,0.4
	l2.2,11.2l2.2-0.4c0-0.4,0-0.9,0.1-1.2s0.3-0.6,0.5-1.1c0.1-0.3,0.6-0.6,1-0.9s0.9-0.8,1.6-1.1l12.6-7.5
	C410,176.6,410.3,176.4,410.5,176.3L410.5,176.3z M404.6,173.4l-0.5,0.1l-0.6,0.3c-0.1,0.1-0.5,0.3-0.8,0.4l-0.6,0.3
	c-0.1,0.1-0.1,0.1-0.3,0.1l-0.3,0.1l-2.5,1.4l-0.9-4.1l3.9,0.6l2.9,0.4C405,173.4,404.8,173.4,404.6,173.4L404.6,173.4z"/>
<linearGradient id="SVGID_15_" gradientUnits="userSpaceOnUse" x1="-258.0141" y1="741.012" x2="-257.0141" y2="741.012" gradientTransform="matrix(303.272 303.272 303.272 -303.272 -146508.0781 303006.5625)">
	<stop  offset="0" style="stop-color:#BDA267"/>
	<stop  offset="7.000000e-02" style="stop-color:#BDA267"/>
	<stop  offset="0.14" style="stop-color:#CBB580"/>
	<stop  offset="0.27" style="stop-color:#F0E4BE"/>
	<stop  offset="0.27" style="stop-color:#F0E5BF"/>
	<stop  offset="0.39" style="stop-color:#CDB782"/>
	<stop  offset="0.46" style="stop-color:#BDA267"/>
	<stop  offset="0.66" style="stop-color:#F0E5BF"/>
	<stop  offset="0.85" style="stop-color:#CDB782"/>
	<stop  offset="0.96" style="stop-color:#BDA267"/>
	<stop  offset="1" style="stop-color:#BDA267"/>
</linearGradient>
<path class="st16" d="M160.6,216.1l6.8-3l-7.2-1.5l-0.9-7.4l-3.6,6.4l-7.4-1.5l5.1,5.6l-3.8,6.4l6.8-3.1l5.1,5.6L160.6,216.1z"/>
<linearGradient id="SVGID_16_" gradientUnits="userSpaceOnUse" x1="-258.0141" y1="741.014" x2="-257.0141" y2="741.014" gradientTransform="matrix(303.272 303.272 303.272 -303.272 -146519.375 303017.875)">
	<stop  offset="0" style="stop-color:#BDA267"/>
	<stop  offset="7.000000e-02" style="stop-color:#BDA267"/>
	<stop  offset="0.14" style="stop-color:#CBB580"/>
	<stop  offset="0.27" style="stop-color:#F0E4BE"/>
	<stop  offset="0.27" style="stop-color:#F0E5BF"/>
	<stop  offset="0.39" style="stop-color:#CDB782"/>
	<stop  offset="0.46" style="stop-color:#BDA267"/>
	<stop  offset="0.66" style="stop-color:#F0E5BF"/>
	<stop  offset="0.85" style="stop-color:#CDB782"/>
	<stop  offset="0.96" style="stop-color:#BDA267"/>
	<stop  offset="1" style="stop-color:#BDA267"/>
</linearGradient>
<path class="st17" d="M164.4,247.2l6.3,4.1l-2.7-6.9l5.9-4.6l-7.5,0.3l-2.6-6.9l-2.1,7.1l-7.4,0.4l6.3,4.1l-2.1,7.2L164.4,247.2z"/>
<linearGradient id="SVGID_17_" gradientUnits="userSpaceOnUse" x1="-258.0141" y1="741.0151" x2="-257.0141" y2="741.0151" gradientTransform="matrix(303.272 303.272 303.272 -303.272 -146525.5938 303024.0625)">
	<stop  offset="0" style="stop-color:#BDA267"/>
	<stop  offset="7.000000e-02" style="stop-color:#BDA267"/>
	<stop  offset="0.14" style="stop-color:#CBB580"/>
	<stop  offset="0.27" style="stop-color:#F0E4BE"/>
	<stop  offset="0.27" style="stop-color:#F0E5BF"/>
	<stop  offset="0.39" style="stop-color:#CDB782"/>
	<stop  offset="0.46" style="stop-color:#BDA267"/>
	<stop  offset="0.66" style="stop-color:#F0E5BF"/>
	<stop  offset="0.85" style="stop-color:#CDB782"/>
	<stop  offset="0.96" style="stop-color:#BDA267"/>
	<stop  offset="1" style="stop-color:#BDA267"/>
</linearGradient>
<path class="st18" d="M179.1,273.6l7.1,2.5l-4.4-6.1l4.6-6l-7.2,2.1l-4.2-6l-0.1,7.4l-7.2,2.1l7.1,2.5l-0.1,7.5L179.1,273.6z"/>
<linearGradient id="SVGID_18_" gradientUnits="userSpaceOnUse" x1="-258.0141" y1="741.0152" x2="-257.0141" y2="741.0152" gradientTransform="matrix(303.272 303.272 303.272 -303.272 -146526.7656 303025.25)">
	<stop  offset="0" style="stop-color:#BDA267"/>
	<stop  offset="7.000000e-02" style="stop-color:#BDA267"/>
	<stop  offset="0.14" style="stop-color:#CBB580"/>
	<stop  offset="0.27" style="stop-color:#F0E4BE"/>
	<stop  offset="0.27" style="stop-color:#F0E5BF"/>
	<stop  offset="0.39" style="stop-color:#CDB782"/>
	<stop  offset="0.46" style="stop-color:#BDA267"/>
	<stop  offset="0.66" style="stop-color:#F0E5BF"/>
	<stop  offset="0.85" style="stop-color:#CDB782"/>
	<stop  offset="0.96" style="stop-color:#BDA267"/>
	<stop  offset="1" style="stop-color:#BDA267"/>
</linearGradient>
<path class="st19" d="M207.1,296.5l-5.7-5l3-6.8l-6.4,3.8l-5.6-5l1.6,7.4l-6.4,3.8l7.5,0.8l1.6,7.2l2.9-6.8L207.1,296.5z"/>
<linearGradient id="SVGID_19_" gradientUnits="userSpaceOnUse" x1="-258.0141" y1="741.0147" x2="-257.0141" y2="741.0147" gradientTransform="matrix(303.272 303.272 303.272 -303.272 -146523.3906 303021.875)">
	<stop  offset="0" style="stop-color:#BDA267"/>
	<stop  offset="7.000000e-02" style="stop-color:#BDA267"/>
	<stop  offset="0.14" style="stop-color:#CBB580"/>
	<stop  offset="0.27" style="stop-color:#F0E4BE"/>
	<stop  offset="0.27" style="stop-color:#F0E5BF"/>
	<stop  offset="0.39" style="stop-color:#CDB782"/>
	<stop  offset="0.46" style="stop-color:#BDA267"/>
	<stop  offset="0.66" style="stop-color:#F0E5BF"/>
	<stop  offset="0.85" style="stop-color:#CDB782"/>
	<stop  offset="0.96" style="stop-color:#BDA267"/>
	<stop  offset="1" style="stop-color:#BDA267"/>
</linearGradient>
<path class="st20" d="M224.9,312.4l7.4-1.2l-6.6-3.5l1.2-7.4l-5.2,5.2l-6.6-3.5l3.3,6.8l-5.2,5.2l7.4-1.2l3.3,6.8L224.9,312.4z"/>
<linearGradient id="SVGID_20_" gradientUnits="userSpaceOnUse" x1="-258.0141" y1="741.0132" x2="-257.0141" y2="741.0132" gradientTransform="matrix(303.272 303.272 303.272 -303.272 -146514.8906 303013.3438)">
	<stop  offset="0" style="stop-color:#BDA267"/>
	<stop  offset="7.000000e-02" style="stop-color:#BDA267"/>
	<stop  offset="0.14" style="stop-color:#CBB580"/>
	<stop  offset="0.27" style="stop-color:#F0E4BE"/>
	<stop  offset="0.27" style="stop-color:#F0E5BF"/>
	<stop  offset="0.39" style="stop-color:#CDB782"/>
	<stop  offset="0.46" style="stop-color:#BDA267"/>
	<stop  offset="0.66" style="stop-color:#F0E5BF"/>
	<stop  offset="0.85" style="stop-color:#CDB782"/>
	<stop  offset="0.96" style="stop-color:#BDA267"/>
	<stop  offset="1" style="stop-color:#BDA267"/>
</linearGradient>
<path class="st21" d="M253.4,322.2l6.9-2.9l-7.2-1.8l-0.6-7.4l-3.9,6.3l-7.2-1.6l4.8,5.5l-3.9,6.5l6.9-2.9l4.8,5.5L253.4,322.2z"/>
<linearGradient id="SVGID_21_" gradientUnits="userSpaceOnUse" x1="-258.0141" y1="741.011" x2="-257.0141" y2="741.011" gradientTransform="matrix(303.272 303.272 303.272 -303.272 -146500.9688 302999.4688)">
	<stop  offset="0" style="stop-color:#BDA267"/>
	<stop  offset="7.000000e-02" style="stop-color:#BDA267"/>
	<stop  offset="0.14" style="stop-color:#CBB580"/>
	<stop  offset="0.27" style="stop-color:#F0E4BE"/>
	<stop  offset="0.27" style="stop-color:#F0E5BF"/>
	<stop  offset="0.39" style="stop-color:#CDB782"/>
	<stop  offset="0.46" style="stop-color:#BDA267"/>
	<stop  offset="0.66" style="stop-color:#F0E5BF"/>
	<stop  offset="0.85" style="stop-color:#CDB782"/>
	<stop  offset="0.96" style="stop-color:#BDA267"/>
	<stop  offset="1" style="stop-color:#BDA267"/>
</linearGradient>
<path class="st22" d="M279.9,327.8l6.1,4.4l-2.4-7l6-4.5h-7.5l-2.2-6.9l-2.2,7h-7.5l6,4.4l-2.2,7L279.9,327.8z"/>
<linearGradient id="SVGID_22_" gradientUnits="userSpaceOnUse" x1="-258.0141" y1="741.0079" x2="-257.0141" y2="741.0079" gradientTransform="matrix(303.272 303.272 303.272 -303.272 -146482.8438 302981.3125)">
	<stop  offset="0" style="stop-color:#BDA267"/>
	<stop  offset="7.000000e-02" style="stop-color:#BDA267"/>
	<stop  offset="0.14" style="stop-color:#CBB580"/>
	<stop  offset="0.27" style="stop-color:#F0E4BE"/>
	<stop  offset="0.27" style="stop-color:#F0E5BF"/>
	<stop  offset="0.39" style="stop-color:#CDB782"/>
	<stop  offset="0.46" style="stop-color:#BDA267"/>
	<stop  offset="0.66" style="stop-color:#F0E5BF"/>
	<stop  offset="0.85" style="stop-color:#CDB782"/>
	<stop  offset="0.96" style="stop-color:#BDA267"/>
	<stop  offset="1" style="stop-color:#BDA267"/>
</linearGradient>
<path class="st23" d="M310.6,324l6.9,2.9l-4-6.3l4.8-5.9l-7.2,2l-4-6.3l-0.5,7.4l-7.2,1.8l6.9,2.9l-0.5,7.4L310.6,324z"/>
<linearGradient id="SVGID_23_" gradientUnits="userSpaceOnUse" x1="-258.0141" y1="741.0044" x2="-257.0141" y2="741.0044" gradientTransform="matrix(303.272 303.272 303.272 -303.272 -146462.0625 302960.5625)">
	<stop  offset="0" style="stop-color:#BDA267"/>
	<stop  offset="7.000000e-02" style="stop-color:#BDA267"/>
	<stop  offset="0.14" style="stop-color:#CBB580"/>
	<stop  offset="0.27" style="stop-color:#F0E4BE"/>
	<stop  offset="0.27" style="stop-color:#F0E5BF"/>
	<stop  offset="0.39" style="stop-color:#CDB782"/>
	<stop  offset="0.46" style="stop-color:#BDA267"/>
	<stop  offset="0.66" style="stop-color:#F0E5BF"/>
	<stop  offset="0.85" style="stop-color:#CDB782"/>
	<stop  offset="0.96" style="stop-color:#BDA267"/>
	<stop  offset="1" style="stop-color:#BDA267"/>
</linearGradient>
<path class="st24" d="M346.8,314.1l-5.4-5.2l3.3-6.6l-6.6,3.5l-5.2-5.1l1.2,7.2l-6.6,3.6l7.5,1l1.2,7.4l3.3-6.8L346.8,314.1z"/>
<linearGradient id="SVGID_24_" gradientUnits="userSpaceOnUse" x1="-258.0141" y1="741.0009" x2="-257.0141" y2="741.0009" gradientTransform="matrix(303.272 303.272 303.272 -303.272 -146440.6875 302939.1562)">
	<stop  offset="0" style="stop-color:#BDA267"/>
	<stop  offset="7.000000e-02" style="stop-color:#BDA267"/>
	<stop  offset="0.14" style="stop-color:#CBB580"/>
	<stop  offset="0.27" style="stop-color:#F0E4BE"/>
	<stop  offset="0.27" style="stop-color:#F0E5BF"/>
	<stop  offset="0.39" style="stop-color:#CDB782"/>
	<stop  offset="0.46" style="stop-color:#BDA267"/>
	<stop  offset="0.66" style="stop-color:#F0E5BF"/>
	<stop  offset="0.85" style="stop-color:#CDB782"/>
	<stop  offset="0.96" style="stop-color:#BDA267"/>
	<stop  offset="1" style="stop-color:#BDA267"/>
</linearGradient>
<path class="st25" d="M364.8,295.5l7.5-0.9l-6.5-3.6l1.5-7.4l-5.5,5l-6.5-3.6l3,6.8l-5.5,5l7.5-0.8l3,6.8L364.8,295.5z"/>
<linearGradient id="SVGID_25_" gradientUnits="userSpaceOnUse" x1="-258.0141" y1="740.9974" x2="-257.0141" y2="740.9974" gradientTransform="matrix(303.272 303.272 303.272 -303.272 -146419.0156 302917.5)">
	<stop  offset="0" style="stop-color:#BDA267"/>
	<stop  offset="7.000000e-02" style="stop-color:#BDA267"/>
	<stop  offset="0.14" style="stop-color:#CBB580"/>
	<stop  offset="0.27" style="stop-color:#F0E4BE"/>
	<stop  offset="0.27" style="stop-color:#F0E5BF"/>
	<stop  offset="0.39" style="stop-color:#CDB782"/>
	<stop  offset="0.46" style="stop-color:#BDA267"/>
	<stop  offset="0.66" style="stop-color:#F0E5BF"/>
	<stop  offset="0.85" style="stop-color:#CDB782"/>
	<stop  offset="0.96" style="stop-color:#BDA267"/>
	<stop  offset="1" style="stop-color:#BDA267"/>
</linearGradient>
<path class="st26" d="M385.1,272.3l7-2.5l-7.2-2.1l-0.1-7.4l-4.2,6.1l-7.2-2.1l4.6,5.9l-4.2,6.3l6.9-2.5l4.6,5.9L385.1,272.3z"/>
<linearGradient id="SVGID_26_" gradientUnits="userSpaceOnUse" x1="-258.0141" y1="740.9936" x2="-257.0141" y2="740.9936" gradientTransform="matrix(303.272 303.272 303.272 -303.272 -146397.75 302896.25)">
	<stop  offset="0" style="stop-color:#BDA267"/>
	<stop  offset="7.000000e-02" style="stop-color:#BDA267"/>
	<stop  offset="0.14" style="stop-color:#CBB580"/>
	<stop  offset="0.27" style="stop-color:#F0E4BE"/>
	<stop  offset="0.27" style="stop-color:#F0E5BF"/>
	<stop  offset="0.39" style="stop-color:#CDB782"/>
	<stop  offset="0.46" style="stop-color:#BDA267"/>
	<stop  offset="0.66" style="stop-color:#F0E5BF"/>
	<stop  offset="0.85" style="stop-color:#CDB782"/>
	<stop  offset="0.96" style="stop-color:#BDA267"/>
	<stop  offset="1" style="stop-color:#BDA267"/>
</linearGradient>
<path class="st27" d="M399.4,244.9l6.1-4.1l-7.4-0.3l-2.1-7.2l-2.5,7.1l-7.4-0.3l5.7,4.6l-2.5,6.9l6.3-4.2l5.9,4.6L399.4,244.9z"/>
<linearGradient id="SVGID_27_" gradientUnits="userSpaceOnUse" x1="-258.0141" y1="740.9904" x2="-257.0141" y2="740.9904" gradientTransform="matrix(303.272 303.272 303.272 -303.272 -146378.1719 302876.625)">
	<stop  offset="0" style="stop-color:#BDA267"/>
	<stop  offset="7.000000e-02" style="stop-color:#BDA267"/>
	<stop  offset="0.14" style="stop-color:#CBB580"/>
	<stop  offset="0.27" style="stop-color:#F0E4BE"/>
	<stop  offset="0.27" style="stop-color:#F0E5BF"/>
	<stop  offset="0.39" style="stop-color:#CDB782"/>
	<stop  offset="0.46" style="stop-color:#BDA267"/>
	<stop  offset="0.66" style="stop-color:#F0E5BF"/>
	<stop  offset="0.85" style="stop-color:#CDB782"/>
	<stop  offset="0.96" style="stop-color:#BDA267"/>
	<stop  offset="1" style="stop-color:#BDA267"/>
</linearGradient>
<path class="st28" d="M403.6,218.3l6.8,3l-3.8-6.4l5.1-5.6l-7.4,1.6l-3.8-6.6l-0.8,7.5l-7.4,1.5l6.9,3l-0.9,7.5L403.6,218.3z"/>
<linearGradient id="SVGID_28_" gradientUnits="userSpaceOnUse" x1="-258.0141" y1="741.0001" x2="-257.0141" y2="741.0001" gradientTransform="matrix(303.272 303.272 303.272 -303.272 -146436.2031 302934.6875)">
	<stop  offset="0" style="stop-color:#BDA267"/>
	<stop  offset="7.000000e-02" style="stop-color:#BDA267"/>
	<stop  offset="0.14" style="stop-color:#CBB580"/>
	<stop  offset="0.27" style="stop-color:#F0E4BE"/>
	<stop  offset="0.27" style="stop-color:#F0E5BF"/>
	<stop  offset="0.39" style="stop-color:#CDB782"/>
	<stop  offset="0.46" style="stop-color:#BDA267"/>
	<stop  offset="0.66" style="stop-color:#F0E5BF"/>
	<stop  offset="0.85" style="stop-color:#CDB782"/>
	<stop  offset="0.96" style="stop-color:#BDA267"/>
	<stop  offset="1" style="stop-color:#BDA267"/>
</linearGradient>
<path class="st29" d="M242.6,168.6V144l-4.5,0.6v23.6l-4.2,0.6v-23.6l-4.5,0.6v24.6c0,1.4,0.9,2.2,2.2,2.2h0.4l7.8-1.2
	C241.6,171.4,242.6,170.2,242.6,168.6L242.6,168.6z"/>
<linearGradient id="SVGID_29_" gradientUnits="userSpaceOnUse" x1="-258.0141" y1="740.9979" x2="-257.0141" y2="740.9979" gradientTransform="matrix(303.272 303.272 303.272 -303.272 -146422.6719 302921.1562)">
	<stop  offset="0" style="stop-color:#BDA267"/>
	<stop  offset="7.000000e-02" style="stop-color:#BDA267"/>
	<stop  offset="0.14" style="stop-color:#CBB580"/>
	<stop  offset="0.27" style="stop-color:#F0E4BE"/>
	<stop  offset="0.27" style="stop-color:#F0E5BF"/>
	<stop  offset="0.39" style="stop-color:#CDB782"/>
	<stop  offset="0.46" style="stop-color:#BDA267"/>
	<stop  offset="0.66" style="stop-color:#F0E5BF"/>
	<stop  offset="0.85" style="stop-color:#CDB782"/>
	<stop  offset="0.96" style="stop-color:#BDA267"/>
	<stop  offset="1" style="stop-color:#BDA267"/>
</linearGradient>
<path class="st30" d="M266.5,169.2v-27.3l-4.2,0.3v13.2l-6.3-12.8l-2.6,0.1V170l4.4-0.1v-12.9l6.1,12.4L266.5,169.2z"/>
<linearGradient id="SVGID_30_" gradientUnits="userSpaceOnUse" x1="-258.0141" y1="740.996" x2="-257.0141" y2="740.996" gradientTransform="matrix(303.272 303.272 303.272 -303.272 -146411.8438 302910.3438)">
	<stop  offset="0" style="stop-color:#BDA267"/>
	<stop  offset="7.000000e-02" style="stop-color:#BDA267"/>
	<stop  offset="0.14" style="stop-color:#CBB580"/>
	<stop  offset="0.27" style="stop-color:#F0E4BE"/>
	<stop  offset="0.27" style="stop-color:#F0E5BF"/>
	<stop  offset="0.39" style="stop-color:#CDB782"/>
	<stop  offset="0.46" style="stop-color:#BDA267"/>
	<stop  offset="0.66" style="stop-color:#F0E5BF"/>
	<stop  offset="0.85" style="stop-color:#CDB782"/>
	<stop  offset="0.96" style="stop-color:#BDA267"/>
	<stop  offset="1" style="stop-color:#BDA267"/>
</linearGradient>
<path class="st31" d="M282.1,141.8h-4.5v27.1h4.5V141.8z"/>
<linearGradient id="SVGID_31_" gradientUnits="userSpaceOnUse" x1="-258.0141" y1="740.9941" x2="-257.0141" y2="740.9941" gradientTransform="matrix(303.272 303.272 303.272 -303.272 -146401.4219 302899.9062)">
	<stop  offset="0" style="stop-color:#BDA267"/>
	<stop  offset="7.000000e-02" style="stop-color:#BDA267"/>
	<stop  offset="0.14" style="stop-color:#CBB580"/>
	<stop  offset="0.27" style="stop-color:#F0E4BE"/>
	<stop  offset="0.27" style="stop-color:#F0E5BF"/>
	<stop  offset="0.39" style="stop-color:#CDB782"/>
	<stop  offset="0.46" style="stop-color:#BDA267"/>
	<stop  offset="0.66" style="stop-color:#F0E5BF"/>
	<stop  offset="0.85" style="stop-color:#CDB782"/>
	<stop  offset="0.96" style="stop-color:#BDA267"/>
	<stop  offset="1" style="stop-color:#BDA267"/>
</linearGradient>
<path class="st32" d="M304.5,169.7c1.2,0,2.5-0.9,2.5-2.4v-22.1c0-1.6-1.5-2.6-2.7-2.7l-8.4-0.4c-1.2,0-2.5,0.9-2.5,2.4v22.2
	c0,1.6,1.5,2.6,2.7,2.7L304.5,169.7z M302.7,165.9l-4.6-0.3v-19.9l4.6,0.3V165.9z"/>
<linearGradient id="SVGID_32_" gradientUnits="userSpaceOnUse" x1="-258.0141" y1="740.9922" x2="-257.0141" y2="740.9922" gradientTransform="matrix(303.272 303.272 303.272 -303.272 -146389.9062 302888.4062)">
	<stop  offset="0" style="stop-color:#BDA267"/>
	<stop  offset="7.000000e-02" style="stop-color:#BDA267"/>
	<stop  offset="0.14" style="stop-color:#CBB580"/>
	<stop  offset="0.27" style="stop-color:#F0E4BE"/>
	<stop  offset="0.27" style="stop-color:#F0E5BF"/>
	<stop  offset="0.39" style="stop-color:#CDB782"/>
	<stop  offset="0.46" style="stop-color:#BDA267"/>
	<stop  offset="0.66" style="stop-color:#F0E5BF"/>
	<stop  offset="0.85" style="stop-color:#CDB782"/>
	<stop  offset="0.96" style="stop-color:#BDA267"/>
	<stop  offset="1" style="stop-color:#BDA267"/>
</linearGradient>
<path class="st33" d="M326.6,144.9v13.2l-6.1-14.1l-2.5-0.3V171l4.2,0.4v-12.6l6.1,13.5l2.5,0.3v-27.1L326.6,144.9z"/>
<linearGradient id="SVGID_33_" gradientUnits="userSpaceOnUse" x1="-258.0141" y1="741.0037" x2="-257.0141" y2="741.0037" gradientTransform="matrix(303.272 303.272 303.272 -303.272 -146456.1719 302954.6562)">
	<stop  offset="0" style="stop-color:#BDA267"/>
	<stop  offset="7.000000e-02" style="stop-color:#BDA267"/>
	<stop  offset="0.14" style="stop-color:#CBB580"/>
	<stop  offset="0.27" style="stop-color:#F0E4BE"/>
	<stop  offset="0.27" style="stop-color:#F0E5BF"/>
	<stop  offset="0.39" style="stop-color:#CDB782"/>
	<stop  offset="0.46" style="stop-color:#BDA267"/>
	<stop  offset="0.66" style="stop-color:#F0E5BF"/>
	<stop  offset="0.85" style="stop-color:#CDB782"/>
	<stop  offset="0.96" style="stop-color:#BDA267"/>
	<stop  offset="1" style="stop-color:#BDA267"/>
</linearGradient>
<path class="st34" d="M238.9,208.6c3.8-0.4,10.5-3.4,14.6-5.9c-0.4-0.1-0.8-0.4-1.2-0.8c-5.9,2.2-12.1,2.7-16.8,2.1
	c0.4,0.1,1.1,0.4,1.6,0.6c1.8,0.4,3.9,0.9,6.6,0.4l1.1-0.1l-0.9,0.8C243.1,206.5,241,207.8,238.9,208.6L238.9,208.6z"/>
<linearGradient id="SVGID_34_" gradientUnits="userSpaceOnUse" x1="-258.0141" y1="741.0042" x2="-257.0141" y2="741.0042" gradientTransform="matrix(303.272 303.272 303.272 -303.272 -146461.7969 302960.2812)">
	<stop  offset="0" style="stop-color:#BDA267"/>
	<stop  offset="7.000000e-02" style="stop-color:#BDA267"/>
	<stop  offset="0.14" style="stop-color:#CBB580"/>
	<stop  offset="0.27" style="stop-color:#F0E4BE"/>
	<stop  offset="0.27" style="stop-color:#F0E5BF"/>
	<stop  offset="0.39" style="stop-color:#CDB782"/>
	<stop  offset="0.46" style="stop-color:#BDA267"/>
	<stop  offset="0.66" style="stop-color:#F0E5BF"/>
	<stop  offset="0.85" style="stop-color:#CDB782"/>
	<stop  offset="0.96" style="stop-color:#BDA267"/>
	<stop  offset="1" style="stop-color:#BDA267"/>
</linearGradient>
<path class="st35" d="M307,248.3c0-1.6-0.5-3.4-1.5-5.1c-3.9,6.6-15,11.2-27.3,11.2s-23.4-4.6-27.1-11.2c-1.1,1.6-1.5,3.4-1.5,5.1
	c0,2.9,1.2,5.7,3.8,8.1c5.1,5.1,14.7,8.2,24.9,8.2C294.1,264.6,307,257.3,307,248.3L307,248.3z"/>
<linearGradient id="SVGID_35_" gradientUnits="userSpaceOnUse" x1="-258.0141" y1="741.0005" x2="-257.0141" y2="741.0005" gradientTransform="matrix(303.272 303.272 303.272 -303.272 -146437.75 302936.2188)">
	<stop  offset="0" style="stop-color:#BDA267"/>
	<stop  offset="7.000000e-02" style="stop-color:#BDA267"/>
	<stop  offset="0.14" style="stop-color:#CBB580"/>
	<stop  offset="0.27" style="stop-color:#F0E4BE"/>
	<stop  offset="0.27" style="stop-color:#F0E5BF"/>
	<stop  offset="0.39" style="stop-color:#CDB782"/>
	<stop  offset="0.46" style="stop-color:#BDA267"/>
	<stop  offset="0.66" style="stop-color:#F0E5BF"/>
	<stop  offset="0.85" style="stop-color:#CDB782"/>
	<stop  offset="0.96" style="stop-color:#BDA267"/>
	<stop  offset="1" style="stop-color:#BDA267"/>
</linearGradient>
<path class="st36" d="M308.8,237.6c0.9,1.5,1.8,3.6,2.4,6c0.5,0,1.2,0.1,2.2,0.1c2.7,0,6.8-0.6,10.8-2.9
	C321.2,240.9,315.2,240.5,308.8,237.6L308.8,237.6z"/>
<linearGradient id="SVGID_36_" gradientUnits="userSpaceOnUse" x1="-258.0141" y1="741.0018" x2="-257.0141" y2="741.0018" gradientTransform="matrix(303.272 303.272 303.272 -303.272 -146447.0938 302945.5938)">
	<stop  offset="0" style="stop-color:#BDA267"/>
	<stop  offset="7.000000e-02" style="stop-color:#BDA267"/>
	<stop  offset="0.14" style="stop-color:#CBB580"/>
	<stop  offset="0.27" style="stop-color:#F0E4BE"/>
	<stop  offset="0.27" style="stop-color:#F0E5BF"/>
	<stop  offset="0.39" style="stop-color:#CDB782"/>
	<stop  offset="0.46" style="stop-color:#BDA267"/>
	<stop  offset="0.66" style="stop-color:#F0E5BF"/>
	<stop  offset="0.85" style="stop-color:#CDB782"/>
	<stop  offset="0.96" style="stop-color:#BDA267"/>
	<stop  offset="1" style="stop-color:#BDA267"/>
</linearGradient>
<path class="st37" d="M304.5,234.8c0-5.1-5-9-12.6-11.1c-1.8,0.8-3.9,1.4-6.1,2.1c-2.1,0.6-4.5,1.5-7,2.4c-5.7,2.1-6.9,3.9-7,4.8
	c-0.1,0.6,0.1,1.1,0.3,1.2c2.2-1.2,5.4-2.2,8.9-2.6c1-0.1,2-0.1,3-0.1c5.4,0,8.9,1.5,8.9,3.9c0,0.6-0.3,1.4-0.9,1.9
	c-1.8,1.8-6.5,3-11.7,3c-4.5,0-8.7-1.4-11-3.6c-1.2-1.2-1.8-2.6-1.8-3.9c0-4.9,7.2-7.4,11.9-9c0.6-0.1,1.2-0.4,1.6-0.6
	c4.2-1.5,9.1-3.3,9.1-3.3c8.1-2.6,12.3-9.6,11.2-16.2c-1.2-7.9-9-13.5-18.9-13.5c-0.9,0-2,0-2.9,0.1c0,0-0.9,0.1-2,0.1
	c-1.2,0-2-0.1-2.7-0.4c-1.5-0.8-2.9-0.9-2.9-0.9c-11.5,2.6-18.3,7.5-19.5,8.4c0.4,1.1,2.2,4.6,8,3.9c2.1-0.3,3.9-0.3,5.4-0.4
	c3.5-0.1,5.2-0.1,8-3.1c1.8-2.1,4.2-2.2,4.8-2.2h0.1c7.5,0,14.1,4.2,14.2,9.3c0,2.2-1,4.5-3.1,6.1c-1.6,1.4-4.2,2.2-6.3,3.1
	c0,0-5.2,1.8-9.5,3.4c-0.3,0-20.4,6.4-20.4,18.6c0,2.4,1.1,4.8,3.1,6.8c4.5,4.5,13,7.2,22.4,6.9
	C293.1,249.3,304.5,242.6,304.5,234.8L304.5,234.8z M267.1,195.1c-0.5,0.3-1.6,0.3-3,0.3c-1.8,0-3.6-0.1-3.6-0.1s4.2-2.1,8.1-3.1
	C268.6,192.1,268,194.5,267.1,195.1L267.1,195.1z"/>
</svg>
