<?xml version="1.0" encoding="utf-8"?>
<!-- Generator: Adobe Illustrator 24.0.0, SVG Export Plug-In . SVG Version: 6.00 Build 0)  -->
<svg width="450" height="450" version="1.0" id="katman_1" xmlns="http://www.w3.org/2000/svg" xmlns:xlink="http://www.w3.org/1999/xlink" x="0px" y="0px"
	viewBox="30 50 500 500" style="enable-background:new 0 0 400 400;" xml:space="preserve">
<style type="text/css">
	.st0{fill:#D8DF21;}
	.st1{fill:#2B5135;}
	.st2{fill:#FFFFFF;}
</style>
<g>
	<polygon class="st0" points="469.1,483.5 465.3,483.5 465.3,480.7 476.1,480.7 476.1,483.5 472.3,483.5 472.3,492.6 469.1,492.6 	
		"/>
	<polygon class="st0" points="482.3,492.6 480.1,485.5 480.1,492.6 477.3,492.6 477.3,480.7 481.3,480.7 483.7,488.4 486,480.7 
		490,480.7 490,492.6 487,492.6 487,485.5 484.8,492.6 	"/>
	<path class="st1" d="M533.8,318.3c0.7-7.2,1-14.5,1-21.8c0-67.8-28.4-129-74-172.3c-4.2-17.4-9.9-28.4-10.5-29.4l-5.9-11l-11.8,3.9
		c-4.7,1.6-9.4,3-14.2,4.4C383,71.1,341.6,58.9,297.3,58.9c-44.3,0-85.8,12.2-121.3,33.3c-8.3-2.5-13-4.2-13.2-4.3L150,83.1
		l-5.8,12.4c-4.5,9.6-7.8,19.1-10,28.5c-45.8,43.3-74.3,104.6-74.3,172.6c0,7.5,0.4,15,1.1,22.4l-14.6,14.6
		C52.8,378.2,70.9,419,97.6,453h21.1c33.8,38.6,79.9,66.1,132.2,76.5c-0.6,5.8-1,9.8-1.1,11.6c0.3,0.2,5.3,4.1,9.1,6
		c7.7,3.9,20,8,38.2,8h1.2c29.1-0.1,43.1-10.4,47.3-14.1c-0.1-1.8-0.5-5.9-1.2-11.8c52-10.5,97.8-37.9,131.5-76.3h21.7
		c26.6-33.9,44.7-74.8,51.3-119.5L533.8,318.3z"/>
	<path class="st2" d="M244.1,376.2c0-15-6.2-17-18.3-17h-20.3v47h12.4v-12.9h6.8l9,12.9h14.2L237,390.5
		C241.7,389.1,244.1,385.5,244.1,376.2 M225.8,383.5h-8v-14.3h7.9c3.8,0,5.9,1.1,5.9,7.1C231.6,382.1,229.9,383.5,225.8,383.5
		 M173.6,358.4c-14.1,0-23.2,3.7-23.2,24.3c0,20.7,9.1,24.3,23.1,24.3c14.1,0,23.2-3.8,23.2-24.5
		C196.8,361.9,187.8,358.4,173.6,358.4 M183.6,384.6c0,8.9-2.1,12-10,12c-7.8,0-10.1-3.3-10.1-12.2v-3.7c0-8.9,2.2-11.7,10-11.7
		c7.8,0,10.1,2.9,10.1,11.8V384.6z M124.9,359.2h-21v47h12.5V394h8.4c12.1,0,18.4-2.6,18.4-17.5C143.2,361.5,137,359.2,124.9,359.2
		 M124.9,384.1h-8.5v-14.9h8.4c2.7,0,5.9,0.2,5.9,7.4C130.7,383.8,127.6,384.1,124.9,384.1 M357.8,358.9l-18.4,47.3H352l2.4-6.5
		h17.7l2.4,6.5h13.3l-18.4-47.3H357.8z M358,389.9l5.3-14.5l5.3,14.5H358z M426.1,375l-17.4-15.8h-12.6v47h12v-31l18,17.2v13.8h12.1
		v-47h-12.1V375z M466.6,359.2h-19.1v47h19.1c15.3,0,22.6-2.6,22.6-23.6C489.2,361.8,481.9,359.2,466.6,359.2 M476,384.2
		c0,8.5-1.5,12.3-9.5,12.3H460v-27.5h6.6c8,0,9.5,3.5,9.5,12.1V384.2z M314,359.2h-12.5v47h32.4l4.1-10.5h-24V359.2z M278.2,406.2
		v-36.3h15l3.6-10.7h-49.7l3.6,10.7h15v36.3H278.2z M329.3,532c-2.1-17.3-3.7-40.1-5-65H272c-1.3,24.9-3,47.7-5,65v0
		c0,0,7.6,7.8,31.1,7.8h0h0.1C321.8,539.8,329.4,532,329.3,532L329.3,532L329.3,532L329.3,532z M297.8,192
		c93.9,0,139.8,32.1,139.8,32.1c29.9-65.9,0-122.2,0-122.2c-150.4,50.2-280.4,0-280.4,0c-29.4,62.3-0.1,122.2-0.1,122.2
		S203.9,192,297.8,192 M298,206.2c-9.5,0-18.5,0.4-27,1c1.3,8.3,5.6,37.7,5.6,72.5c0,12.4-0.2,34.4-0.6,60.9h44.5
		c-0.4-26.5-0.6-48.5-0.6-60.9c0-35.6,4.4-65.2,5.6-72.4C316.7,206.6,307.6,206.2,298,206.2"/>
	<path class="st0" d="M531.7,334.3l0.1-0.1l-13-12.8c0.9-8.2,1.5-16.5,1.5-24.9c0-50.8-17-97.6-45.6-135.1
		c-3.2-31.2-17.9-57-24.6-67.2l0.3,0.5c0.8,1.5,12,23,14.5,54.9c0.2,2.2,0.3,4.5,0.4,6.8c0,0.2,0,0.3,0,0.4c0.1,2.4,0.1,4.8,0.1,7.4
		c28.7,36.4,45.8,82.3,45.8,132.2c0,5.6-0.2,11.2-0.7,16.7l-67.9-67l-15.6-10.1c-0.1-0.1-5.2-3.5-15-7.8L524.2,339l-0.9,4.6
		c-1.3,6.5-2.9,13-4.6,19.3c-6.9,24.2-17.4,46.8-30.9,67.3h-23.6c-28.4,35.3-67.6,61.4-112.7,73.2c-0.3,0.1-0.7,0.2-1,0.3
		c-2.8,0.7-5.6,1.4-8.4,2c-0.1,0-0.2,0-0.3,0c0.1,1.6,0.3,3.2,0.4,4.6c0.1,1.6,0.3,3.2,0.4,4.7c1.1,8,2,14.5,2.6,19.1
		c3-7.3,5.5-14.9,7.3-21.6c46.8-11.9,87.6-38.5,117.3-74.7h22.1l2.2-3.4c14.1-21.3,24.8-44.6,31.9-69.5c1.7-6.4,3.3-13.1,4.7-19.9
		l0.1-0.8c0.2-0.7,0.3-1.5,0.4-2.2l1.1-7.6L531.7,334.3z M371.7,444.2h4.8l6.4,9.2h10.2l-7.8-11.2c3.4-1,5.1-3.5,5.1-10.1
		c0-10.7-4.4-12.2-13.1-12.2h-14.5v33.5h8.8V444.2z M371.7,427.1h5.6c2.7,0,4.2,0.7,4.2,5c0,4.1-1.2,5.1-4.1,5.1h-5.6V427.1z
		 M390.7,340.8l-55-55v12.3l42.7,42.7H390.7z M469,340.8L338.2,209.9l-0.2,1.6c-0.1,0.2-1.1,6.6-2.3,17.5l111.9,111.9H469z
		 M304.9,435.9c3.1-0.9,5.1-2.5,5.1-7.8c0-6.9-4.3-8.3-12.1-8.3h-15.3v33.5h16.2c8.8,0,12.1-2.4,12.1-9.4
		C310.9,438.3,308,436.6,304.9,435.9 M291.4,427h6.5c1.9,0,3.1,0.4,3.1,3c0,2.7-1.3,3.1-3.1,3.1h-6.5V427z M298.8,446.4h-7.4v-6.9
		h7.4c1.9,0,3.1,0.9,3.1,3.6C301.9,445.7,300.7,446.4,298.8,446.4 M260.3,298.6c0-4.5,0.1-8.7,0.1-12.4l-54.1,54.6h12.3L260.3,298.6
		z M416.9,446.4c-3.1,0-10.2-0.9-11.2-1.2l-1.4,7.4c1.4,0.4,6.7,1.2,12.5,1.2c10,0,14.1-2.5,14.1-10.1c0-8-2.2-9.1-12.6-11
		c-4.6-0.8-5.2-0.9-5.2-3.2c0-1.8,0.6-2.4,3.8-2.4c4,0,8.3,0.6,11.1,1l1.4-7.4c-1.7-0.5-8.5-1.2-12.4-1.2c-8,0-12.9,2.3-12.9,9.9
		c0,7.7,2.2,9.2,11.9,10.9c5.3,0.9,5.9,1.1,5.9,3.4C421.8,446,421.1,446.4,416.9,446.4 M196.5,97.6c2.5,0.6,5.2,1.2,8,1.8
		c0.2,0,0.5,0.1,0.8,0.1c1.3,0.3,2.5,0.6,3.8,0.8c0.2,0.1,0.5,0.1,0.7,0.1c0.5,0.1,0.9,0.2,1.4,0.3c26.4-11.6,55.5-18.1,86.1-18.1
		c30.7,0,59.9,6.5,86.3,18.1c4.2-0.9,8.4-1.8,12.6-2.8c0.4-0.1,0.8-0.2,1.3-0.3c0.2,0,0.4-0.1,0.6-0.1h0c11.2-2.7,22.3-5.8,33.2-9.4
		c-10.3,1-27.5,2.8-43.8,4.4c-27.6-12.2-58.1-19.1-90.3-19.1c-32.1,0-62.5,6.7-90.1,19c-16.6-1.7-34.2-3.4-44.1-4.5
		C164.9,88.7,176.9,93,196.5,97.6 M249.5,433.1l-6.8-13.2h-11.1v33.6h7.8v-20l5.7,9.9v10.1h8.8v-10.1l5-9.9v20h8.5v-33.6h-11.1
		L249.5,433.1z M244.2,503.6c-45.5-11.6-85.1-37.9-113.7-73.5h-23.7c-17.6-26.6-30-56.9-36-89.4h0.1l-0.5-2.3l112.2-111.4
		c-11.8,4.9-17.9,8.9-18,9l-10.6,7.1l-69.9,69.4c-0.4-5.3-0.6-10.8-0.6-16.2c0-50.2,17.3-96.3,46.2-132.8c-0.1-2.3,0-4.6,0.1-7.1
		v-0.3c0.1-2.4,0.2-4.8,0.3-7.2c1.2-16.7,5.2-34.9,13.9-53.4c-7,11-20.4,35.4-23.5,64.9c-28.9,37.6-46.1,84.7-46.1,135.8
		c0,8.3,0.5,16.5,1.4,24.5L62,334.7l0.1,0.1h0l1.3,7.4c6.1,33,18.6,64,37.1,92.2l2.2,3.4h22.1c29.7,36.2,70.4,62.8,117.2,74.7
		c2,7.3,4.8,15.7,8.2,23.6c0.4-4.7,1.2-12,2.3-21.2c0.2-1.4,0.3-2.8,0.5-4.3c0-0.3,0.1-0.6,0.1-0.9c0.2-1.3,0.3-2.6,0.5-4
		c-3.1-0.6-6.1-1.3-9.1-2.1C244.4,503.6,244.3,503.6,244.2,503.6 M216.7,419.8h-9v33.5h9V419.8z M351.4,445.9h-17.9v-5.5h6.5
		l2.6-7.7h-9.1v-5.2h15.4l2.5-7.7h-26.9v33.5h24.3L351.4,445.9z M184.2,453.4v-25.8h10.7l2.5-7.7h-35.3l2.5,7.7h10.6v25.8H184.2z
		 M255.6,212.2L126.7,340.8h21.6L258,231.4C257,221.2,255.9,214.4,255.6,212.2"/>
</g>
</svg>
