<?xml version="1.0" encoding="utf-8"?>
<!-- Generator: Adobe Illustrator 25.0.1, SVG Export Plug-In . SVG Version: 6.00 Build 0)  -->
<svg width="450" height="450" version="1.0" id="katman_1" xmlns="http://www.w3.org/2000/svg" xmlns:xlink="http://www.w3.org/1999/xlink" x="0px" y="0px"
	viewBox="120 55 300 300" style="enable-background:new 0 0 400 400;" xml:space="preserve">
<style type="text/css">
	.st0{fill-rule:evenodd;clip-rule:evenodd;fill:#F1CB00;}
	.st1{fill-rule:evenodd;clip-rule:evenodd;fill:#B30838;}
	.st2{fill-rule:evenodd;clip-rule:evenodd;fill:#013A81;}
	.st3{fill-rule:evenodd;clip-rule:evenodd;fill:#FFFFFF;}
</style>
<path class="st0" d="M165,45v118.3C165,296,280,355,280,355s115-59,115-191.7V45L165,45"/>
<path class="st1" d="M169.4,49.4v113.9c0,118.9,95.6,178,110.6,186.6c15.1-8.6,110.7-67.7,110.7-186.6V49.4L169.4,49.4z
	 M381.9,163.3c0,107.4-79.1,162.5-101.9,176.3c-22.9-13.8-101.9-68.9-101.9-176.3V58.1h203.9L381.9,163.3L381.9,163.3z"/>
<path class="st2" d="M182.9,62.4v100.9c0,101.9,72.8,155.7,97.6,171.2c24.8-15.5,97.6-69.3,97.6-171.2V62.4L182.9,62.4"/>
<path class="st3" d="M305.6,260.7c-0.1-5.3-1.8-10.3-4.6-14.3l-10.3,0.1l-3.1-9.9c-2.4-0.7-4.9-1.1-7.5-1.1c-2.6,0-5.2,0.4-7.5,1.1
	l-3.1,9.9l-10.3-0.1c-2.9,4.1-4.6,9-4.6,14.3l8.4,6l-3.3,9.8c3.1,4.1,7.3,7.2,12.2,8.9l8.3-6.2l8.3,6.2c4.9-1.7,9.1-4.8,12.2-8.9
	l-3.3-9.8L305.6,260.7"/>
<g>
	<path class="st0" d="M327.3,122.9c11.8,11.1,20,26,22.7,42.8c-2.1-17.4-10.1-33-21.8-44.8L327.3,122.9z"/>
	<path class="st0" d="M251.2,248.1c-28.8-10.4-49.3-38-49.3-70.5c0-24,11.3-45.3,28.7-59l-2.4-5.1c-18.8,14-31,36.5-31,61.9
		c0,34.5,22.6,63.6,53.6,73.4C251,248.6,251.1,248.3,251.2,248.1"/>
	<path class="st0" d="M302.7,177c-5.1-4.6-10.8-7.3-16.9-8.1c0,0,27.6-2.1,27.6-18.1c0-7.7-9.7-18.1-39.7-18.1h-35.3
		c0,0,4.7,2.6,4.7,4.9v34.2c4.4,2.1,10.3,4.1,16.3,6.5v-6.6h9.7c5.1,0,8.1,1.2,10.8,3.4l28.2,26.2c3.9,3.4,11.8,7.5,18.6,7.5
		c8.7,0,12.2-2.9,12.2-2.9s-5.6-0.4-9.9-4L302.7,177 M271.1,167.4h-11.7v-30.3h11.7c14.8,0,24.6,5.1,24.6,15.1
		C295.7,160.4,285.4,167.4,271.1,167.4L271.1,167.4z"/>
	<path class="st0" d="M243.1,189.8v11.4c0,2.6-4.2,4.8-4.2,4.8h24.9c0,0-4.4-2.2-4.4-4.8v-3.9C255.5,194.6,249.4,192.4,243.1,189.8"
		/>
	<path class="st0" d="M225.8,96.1c1.9,4.4,2.7,5.9,2.7,5.9l-1.5,5.5l5.8,2.6l3.6,7.8c0,0,17-7.7,43.6-7.7c26.7,0,43.6,7.7,43.6,7.7
		l3.6-7.8l5.8-2.6l-1.5-5.5c0,0,0.8-1.5,2.6-5.9c1.9-4.4,10.9-9.2,10.9-9.2c-7.6-7.8-13.9,7.8-22,0.2c-2.8,4.1,3,9.1,3,9.1
		s-1.7,4.4-6.8,5.2c-6.1,1-12.5,0.6-13.7-10.6c0,0-4.2,11.4-13.7,8.9c-6.2-1.6-8.7-6.6-9.6-9.1c6.2-0.8,10.9-4.5,10.9-9.1h-9
		c-0.4-4.7-4.2-8.5-4.2-8.5s-3.8,3.8-4.2,8.5h-9c0,4.6,4.7,8.4,10.9,9.1c-0.9,2.5-3.4,7.5-9.6,9.1c-9.6,2.5-13.7-8.9-13.7-8.9
		c-1.2,11.3-7.6,11.7-13.7,10.6c-5.1-0.9-6.8-5.2-6.8-5.2s5.8-5,3-9.1c-8,7.6-14.4-8.1-22-0.2C214.9,87,223.9,91.7,225.8,96.1"/>
	<path class="st0" d="M323.3,127.8c0.2-0.4,0.3-0.9,0.3-1.3c0-6.1-19.5-11.1-43.6-11.1c-24.1,0-43.6,5-43.6,11.1
		c0,0.5,0.1,0.9,0.3,1.3c9.3-4.9,25.2-8.2,43.3-8.2C298.1,119.7,314,122.9,323.3,127.8"/>
	<path class="st0" d="M259.4,254.4l8.3-6.5l-7.5-0.1c-2.4,3.6-3.9,7.9-4,12.5l6.1,4.3L259.4,254.4"/>
	<path class="st0" d="M286.6,238.1c-2.1-0.6-4.3-0.9-6.6-0.9c-2.3,0-4.5,0.3-6.6,0.9l-2.2,7.2l8.8-5.9l8.8,5.9L286.6,238.1z"/>
	<path class="st0" d="M292.3,247.8l8.3,6.5l-2.9,10.2l6.1-4.3c-0.2-4.6-1.6-8.9-4-12.5L292.3,247.8"/>
	<path class="st0" d="M263.6,268.7l-2.4,7.1c2.7,3.5,6.4,6.2,10.6,7.7l6-4.5l-10.6-0.4L263.6,268.7"/>
	<path class="st0" d="M292.7,278.6l-10.6,0.4l6,4.5c4.2-1.5,7.9-4.2,10.6-7.7l-2.4-7.1L292.7,278.6"/>
</g>
<g>
	<path class="st1" d="M358.6,177c0,33.5-19.7,62.4-48.2,75.6c0.4,1.6,0.8,3.2,0.9,4.9c30.2-12.9,51.4-42.9,51.4-77.9
		c0-26.4-12-49.9-30.8-65.4l-1.3,0.6C347.8,129.9,358.6,152.2,358.6,177"/>
	<path class="st1" d="M248.5,258.6c0.1-1,0.2-1.9,0.3-2.8c-19.6-6.7-35.9-20.6-45.8-38.6C212.4,236.1,228.7,251,248.5,258.6"/>
	<path class="st1" d="M282.6,155.3v7.5c6.6-2.3,10.4-6.6,10.4-10.6c0-0.5-0.1-1.1-0.1-1.6h-14.2
		C278.7,150.7,282.6,151.7,282.6,155.3"/>
	<path class="st1" d="M282.6,181.3V216c0,3.6-3.9,4.6-3.9,4.6h46.1c18.5,0,12.1-10.8,12.1-10.8s-3.6,6.3-14.5,6.3h-26v-22
		L282.6,181.3"/>
	<path class="st1" d="M268.7,165c0,0,4.8-2.4,4.8-6.7c0-4.2-5.2-6.5-11.5-7.6v5.2C266.3,158,268.4,161.2,268.7,165"/>
	<path class="st1" d="M221,209.8c0,6.2,11.8,11.8,28.3,11.8c20.8,0,29.5-10.8,29.5-21c0-21.8-45.2-21.4-45.2-35.8
		c0-3.7,2.8-6.8,6.8-8.7v-5.2c-9.3,2.2-18.2,7.6-18.2,17.1c0,20.2,43.8,19.6,43.8,35.5c0,8.2-5.7,13.8-16.7,13.8
		c-12.4,0-22.9-6.4-20.3-16.1C229,201.2,221,203,221,209.8"/>
	<path class="st1" d="M254.6,263.5c0,0-0.8,5.3,3.1,10.1l1-2.9C258.6,270.7,255.2,267.5,254.6,263.5"/>
	<path class="st1" d="M274.4,285.9c0,0,4.8,2.4,10.6,0.2l-2.5-1.8C282.5,284.3,278.5,286.7,274.4,285.9"/>
	<path class="st1" d="M302.9,265.9c0,0,1,4.6-1,8.2c0,0,3.8-3.8,3.5-10L302.9,265.9z"/>
	<path class="st1" d="M290.7,237.8l1,2.9c0,0,4.7,0.5,7.5,3.5C299.1,244.2,296.6,239.4,290.7,237.8"/>
	<path class="st1" d="M269.9,237.7c0,0-5.3,0.9-8.7,6h3.1C264.3,243.7,266.2,239.4,269.9,237.7"/>
	<path class="st1" d="M287,253.7l2.6-5.9l-4.8,4.3h-9.7l-4.8-4.3l2.6,5.9l-3,9.2l-5.6,3.2l6.4-0.7l7.9,5.7l1.3,6.3l1.3-6.3l7.9-5.7
		l6.4,0.7l-5.6-3.2L287,253.7 M277.9,257.6l-5.4,7.1l3.1-10.1h10.1L277.9,257.6L277.9,257.6z"/>
</g>
<g>
	<path class="st2" d="M295.7,152.2c0-10.1-9.9-15.1-24.6-15.1h-11.7v30.3h11.7C285.4,167.4,295.7,160.4,295.7,152.2 M268.7,165
		c-0.3-3.8-2.4-7-6.7-9v-5.2c6.2,1.1,11.5,3.4,11.5,7.6C273.5,162.7,268.7,165,268.7,165L268.7,165z M282.6,162.8v-7.5
		c0-3.6-3.9-4.6-3.9-4.6h14.2c0.1,0.5,0.1,1,0.1,1.6C293,156.2,289.2,160.5,282.6,162.8L282.6,162.8z"/>
	<path class="st2" d="M343.5,311.9h3v9.1h1.1v-9.1h3.2v-1.1h-7.3V311.9z"/>
	<path class="st2" d="M356.7,319.1l-2.6-8.3h-1.8V321h1.1v-8.7l2.7,8.7h1.1l2.7-8.7v8.7h1.1v-10.2h-1.8L356.7,319.1z"/>
</g>
</svg>
