<?xml version="1.0" encoding="utf-8"?>
<!-- Generator: Adobe Illustrator 24.0.0, SVG Export Plug-In . SVG Version: 6.00 Build 0)  -->
<svg width="450" height="450" version="1.0" id="katman_1" xmlns="http://www.w3.org/2000/svg" xmlns:xlink="http://www.w3.org/1999/xlink" x="0px" y="0px"
	viewBox="-40 120 650 600" style="enable-background:new 0 0 400 400;" xml:space="preserve">
<style type="text/css">
	.st0{fill:#FFFFFF;}
	.st1{fill:#231F20;}
	.st2{fill:#0F4B90;}
	.st3{fill:#CF202E;}
	.st4{fill:#A6A8AB;}
	.st5{fill:#58595B;}
	.st6{fill:#C9C8C7;}
	.st7{fill:#999799;}
	.st8{fill:#56565A;}
	.st9{fill:#78787B;}
</style>
<g>
	<polygon class="st0" points="411.4,733.8 407,733.8 407,744.8 404.2,744.8 404.2,733.9 399.7,733.9 399.7,731.1 411.4,731.1 	"/>
	<polygon class="st0" points="426.2,744.8 423.4,744.8 423.4,736 419.5,741.6 415.7,736 415.7,744.8 412.9,744.8 412.9,731.1 
		415.6,731.1 419.5,736.7 423.5,731.1 426.2,731.1 	"/>
	<path class="st1" d="M542.7,131.1c-1.2-0.4-28.4-8.8-72.1-17.3c-25.6-4.9-51.7-8.8-77.5-11.7c-32.3-3.6-64.4-5.4-95.2-5.4h-0.5
		c-30.8,0-62.9,1.9-95.2,5.4c-25.9,2.8-52,6.8-77.6,11.7c-43.7,8.5-70.9,16.9-72,17.3l-13.4,4.2c0,23.2,0,291.1,0,293.8
		c0.7,14.4,2.2,28.9,4.5,42.7c2.2,13.4,5.3,26.6,9,39.3c6.9,23.8,16.6,46.7,28.7,68c20.5,36.3,48.3,68.8,82.7,96.7
		c13.7,11.2,28.5,21.5,43.8,30.9c12.7,7.7,25.9,14.8,39.1,20.9c21.3,9.9,40.1,16.2,47.6,17.2l3,0.4l3-0.4c7.5-1,26.2-7.3,47.5-17.2
		c13.3-6.2,26.4-13.2,39.1-20.9c15.5-9.4,30.2-19.8,43.9-30.9c34.3-27.8,62.1-60.4,82.7-96.7c12.1-21.3,21.8-44.2,28.7-68
		c3.7-12.7,6.7-25.9,8.9-39.3c2.3-13.8,3.8-28.3,4.5-42.8v-14.7v-279L542.7,131.1z"/>
	<path class="st2" d="M110.9,558.8c18,31.9,42.4,60.7,72.6,85.4c54.2,44.6,107,60.5,113.1,61.3l1,0.2l1-0.2
		c6.1-0.8,58.9-16.8,113.1-61.3c30.1-24.7,54.6-53.5,72.6-85.4c22.2-39.4,34.7-83.8,37-131.9c0.1-3.2,0-263.9,0-263.9l-3.5-1.1
		c-1-0.3-99.9-30.7-219.9-30.8h-0.2h-0.3c-120,0.1-218.9,30.5-219.9,30.8L74,163c0,0-0.2,260.7,0,263.9
		C76.3,475,88.7,519.3,110.9,558.8 M78.9,166.6c0,0,97.7-30.5,218.4-30.6h0.3h0.2c120.7,0,218.5,30.6,218.5,30.6
		c0,5.5,0.2,254.7,0,260C509.4,573,409.5,648.6,347,680.8l-53.1-96.1c-1.9-0.1-3.8-0.2-5.8-0.4l0,0c-54.7-4.8-97.6-50.7-97.6-106.6
		c0-17.6,4.3-34.3,11.8-48.9c0.4-0.7,0.8-1.5,1.2-2.2c0.1-0.2,1.2-2.1,1.7-2.9l-68.2-123.5h-5.6l68.2,123.5
		c-8.9,16-13.9,34.4-13.9,54c0,59.5,46.7,108.3,105.3,111.7l51.7,93.6c-23.5,11.7-40.9,17.1-44.7,17.6l-0.3,0l-0.3,0
		c-13.8-2-208.7-67.5-218.4-274C78.7,421.3,78.9,172.2,78.9,166.6"/>
	<polygon class="st2" points="450.2,300.2 397.6,300.2 422.9,350 	"/>
	<path class="st2" d="M177.3,300.2l68.1,123.3c11.3-10.9,26-18.3,42.3-20.5l-55.5-102.9H177.3z"/>
	<polygon class="st2" points="367.7,450.2 367.8,450.4 395.3,400.1 343.3,300.2 288.1,300.2 359.7,435.2 	"/>
	<polygon class="st2" points="422.9,350 395.3,400.2 490.1,400.2 490.1,350 	"/>
	<path class="st2" d="M367.8,450.4c3.3,8.5,5.1,17.7,5.1,27.4c0,7.9-1.2,15.6-3.5,22.8h107c5.3-16,9.1-32.8,11.4-50.2H367.8z"/>
	<path class="st2" d="M342.9,601h70.3c15.5-15.5,28.8-32.3,39.6-50.2H315.1L342.9,601z"/>
	<path class="st0" d="M176.8,659.4c56.9,46.2,114.4,62.4,120.7,63.3h0.2l0.2,0c6.5-1,63.9-17.3,120.6-63.3
		c50.5-41.1,111.9-114.7,117.4-232.1c0.1-2.3,0-277.7,0-277.7c-8.4-2.5-112.4-33.2-238-33.3h-0.5c-125.5,0.1-229.6,30.7-238,33.3
		c0,0-0.1,276,0,277.7C64.9,544.7,126.3,618.3,176.8,659.4 M74,163l3.5-1.1c1-0.3,99.9-30.7,219.9-30.8h0.3h0.2
		c120.1,0,219,30.5,219.9,30.8l3.5,1.1c0,0,0.1,260.7,0,263.9c-2.3,48.1-14.7,92.4-37,131.9c-18,31.9-42.4,60.7-72.6,85.4
		c-12.2,10-24.3,18.6-35.8,25.8l-65.4-118.5c-0.9,0.2-1.6,0.3-2.5,0.4c-3.4,0.4-6.9,0.7-10.5,0.7c-41.4,0-75-33.6-75-75
		c0-18.6,6.8-35.6,18-48.8c0.5-0.5,0.9-1.1,1.4-1.6l-70.2-127.1h-16.2L225,426c-10.4,14.6-16.6,32.5-16.6,51.8
		c0,49.1,40.1,89.2,89.2,89.2c1.7,0,3.4,0,5.1-0.1l61.1,110.6c-34.2,19.7-61,27.6-65.2,28.2l-1,0.2l-1-0.2
		c-6.1-0.8-59-16.8-113.1-61.3c-30.1-24.7-54.6-53.5-72.6-85.4C88.7,519.3,76.3,475,74,426.9C73.8,423.7,74,163,74,163"/>
	<path class="st0" d="M260.6,272h5.8v11.2c0,1.1,0,2.6-1.2,3.7c-1.3,1.3-3,1.4-4.7,1.4h-3.3v-3.9h1.4c1.2-0.1,1.9-0.1,2-1.7V272z"/>
	<path class="st0" d="M285,272.4c3.7,1.5,5.1,4.9,5.1,7.7c0,1.5-0.4,3.1-1.2,4.4c-0.5,0.8-1.1,1.6-1.9,2.2c-2.2,1.8-4.8,2.2-7.8,2.2
		c-5.7,0-8-2-9.2-3.7c-1.1-1.4-1.6-3-1.6-4.9c0-1.9,0.5-3.6,1.5-5.1c2.3-3.2,6.1-3.8,9.1-3.8C280.9,271.4,283.1,271.7,285,272.4
		 M274.3,280.2c0,2.5,1.4,5.1,4.9,5.1c0.8,0,1.6-0.1,2.4-0.5c1.8-0.9,2.4-3,2.4-4.7c0-1.8-0.8-5.1-4.8-5.1
		C275.6,275,274.3,277.9,274.3,280.2"/>
	<path class="st0" d="M297.5,276.3c0,0.2,0.1,0.4,0.2,0.5c0.4,0.5,2,0.9,2.9,1.1c1.2,0.2,2.3,0.5,3.4,0.7c0.7,0.2,1.4,0.3,2.1,0.6
		c2.1,0.8,2.8,2.4,2.8,3.9c0,1.1-0.4,2.1-0.8,2.8c-1.4,2.1-4.1,2.9-8.5,2.9c-1.7,0-4.9-0.1-6.8-1.8c-1.4-1.3-1.6-2.8-1.7-3.6
		l5.8-0.1c0.2,1,1.3,1.8,3.6,1.8c0.6,0,1.5,0,2-0.4c0.4-0.2,0.8-0.7,0.8-1.3c0-0.7-0.6-1.1-1.1-1.2c-0.7-0.2-4.4-0.9-5.2-1
		c-0.7-0.2-1.3-0.3-1.9-0.6c-0.6-0.2-3.2-1.1-3.2-4.1c0-1.3,0.5-2.4,1.3-3.2c1.8-1.9,5.1-2,6.9-2c2,0,4,0.3,5,0.6
		c3.1,1,3.4,3.3,3.6,4.1l-5.8,0.4c-0.1-0.5-0.4-1.5-2.9-1.5C299.3,275,297.5,275.1,297.5,276.3"/>
	<polygon class="st0" points="327.9,272 327.9,275.7 316.6,275.7 316.6,278.4 327,278.4 327,282.1 316.5,282.1 316.5,284.7 
		328.1,284.7 328.1,288.4 310.7,288.4 310.7,272 	"/>
	<path class="st0" d="M196.2,276.3c0,0.2,0.1,0.4,0.2,0.5c0.4,0.5,2.1,0.9,2.9,1.1c1.1,0.2,2.2,0.5,3.4,0.7c0.7,0.2,1.4,0.3,2.1,0.6
		c2.1,0.8,2.9,2.4,2.9,3.9c0,1.1-0.4,2.1-0.9,2.8c-1.4,2.1-4.1,2.9-8.5,2.9c-1.6,0-4.9-0.1-6.8-1.8c-1.4-1.3-1.6-2.8-1.7-3.6
		l5.8-0.1c0.2,1,1.3,1.8,3.6,1.8c0.6,0,1.4,0,2-0.4c0.4-0.2,0.8-0.7,0.8-1.3c0-0.7-0.6-1.1-1.1-1.2c-0.7-0.2-4.4-0.9-5.2-1
		c-0.7-0.2-1.2-0.3-1.9-0.6c-0.6-0.2-3.2-1.1-3.2-4.1c0-1.3,0.5-2.4,1.3-3.2c1.8-1.9,5.1-2,6.9-2c2,0,3.9,0.3,5,0.6
		c3,1,3.4,3.3,3.6,4.1l-5.7,0.4c-0.2-0.5-0.4-1.5-2.9-1.5C198,275,196.2,275.1,196.2,276.3"/>
	<polygon class="st0" points="241.3,272 241.4,280.9 233.5,272 228.6,272 228.6,285.6 229.8,288.4 234.4,288.4 234.3,279.3 
		242.1,288.4 247,288.4 247,272 	"/>
	<polygon class="st0" points="221.1,272 214.5,272 207.5,288.4 213.8,288.4 217.8,276.5 219.7,282.1 217.4,282.1 216.2,285.7 
		220.9,285.7 221.8,288.4 228.2,288.4 	"/>
	<rect x="105.1" y="277.7" class="st0" width="73.2" height="4.9"/>
	<path class="st0" d="M321.3,192.2h17.6v67.4h-13.8l-3.8-11.8V192.2z M379.2,192.2h-20.5l-19.6,32.4l21.2,35h20.5l-21.1-35
		L379.2,192.2z"/>
	<polygon class="st0" points="302.1,259.5 299.2,250.9 279.5,250.9 284.2,236.9 294.6,236.9 286.9,213 271.6,259.5 253.7,259.5 
		275.9,192.2 297.9,192.2 320,259.5 	"/>
	<path class="st0" d="M225.3,246.2c-3.7,0-6.8-1.1-8.9-3.2c-3.3-3.2-3.3-7.3-3.3-10.3v-40.4h-17.8v38.1v0.3c0.2,7.6,0.4,15.4,7.2,22
		c6.1,5.8,13.1,8.5,22.5,8.5c10.7,0,16.6-3.4,22-8.5c8.3-7.9,8.3-18.7,8.3-27.1v-33.3h-17.8v40.4c0,3,0,7.1-3.4,10.4
		C232.9,244.2,230,246.2,225.3,246.2"/>
	<path class="st0" d="M180.1,245.2c3.4-4.4,5.7-8.9,7.2-13.6c1.5-4.8,2.2-9.5,2.2-14.1c0-6-1-11.6-3.3-16.9
		c-2.3-5.3-5.3-9.9-9.2-13.9c-4-3.9-8.6-7-13.8-9.3c-5.3-2.3-10.9-3.5-17-3.5c-6.1,0-11.7,1.2-17,3.5c-5.3,2.3-9.9,5.4-13.9,9.3
		c-4,4-7,8.7-9.2,13.9c-2.3,5.4-3.3,10.9-3.3,16.9c0,6.1,1,11.7,3.3,17c2.2,5.3,5.2,9.9,9.2,13.8c4,4,8.6,7,13.9,9.3
		c5.3,2.3,10.9,3.4,17,3.4c3.3,0,6.6-0.3,9.7-1c3.2-0.7,6.4-1.9,9.7-3.4l0.2-0.1l0.1,0.2l1.9,2.9h21.4l-8.9-14L180.1,245.2z
		 M120.6,217.4c0-14.2,11.4-25.8,25.6-25.8c5.4,0,10.3,1.6,14.3,4.5c0.2,0.1,0.4,0.2,0.5,0.3c0.2,0.1,0.4,0.2,0.6,0.4
		c6.2,4.7,10.2,12.2,10.2,20.6c0,4.5-1.1,8.7-3.1,12.4h-20l7.2,11.2l0.2,0.3l-0.2,0.2c-0.2,0.1-0.5,0.2-0.7,0.3
		c-0.1,0-0.2,0.1-0.3,0.1c-0.2,0.1-0.5,0.2-0.8,0.3c-0.2,0.1-0.3,0.1-0.4,0.2c-0.2,0.1-0.5,0.1-0.7,0.2c-0.2,0-0.4,0.1-0.5,0.2
		c-0.2,0-0.4,0.1-0.6,0.1c-0.2,0-0.4,0.1-0.6,0.1c-0.2,0-0.5,0.1-0.7,0.1c-0.2,0.1-0.3,0.1-0.5,0.1c-0.3,0.1-0.7,0.1-1,0.1
		c-0.1,0-0.2,0-0.3,0c-0.9,0.1-1.7,0.2-2.6,0.2c-0.5,0-0.9,0-1.3-0.1C131.2,242.5,120.6,231.2,120.6,217.4"/>
	<path class="st0" d="M464.5,216.9c-5.4-1-9-2.1-9-5.8c0-3.1,2.8-4.9,7.6-4.9c1.7,0,7.4,0.2,11.8,2.5c2.5,1.4,3.6,2.9,4.6,4.2
		l11.5-10.5c-2.1-2.3-4.3-4.7-8.6-7.1c-5.1-2.8-11.5-4.2-18.5-4.2c-12.5,0-21.7,4.9-25.2,13.4c-1.1,2.6-1.7,5.6-1.7,8.4
		c0,12.9,9.4,17.1,16.5,19.1c0.9,0.2,2.9,0.6,5.2,1.2c4.3,0.9,9.6,2,11.1,2.6c3.3,1.2,3.8,3.4,3.8,4.7c0,5.2-7.5,5.6-9.9,5.6
		c-3,0-6.3-0.5-8.9-1.5c-2.8-1.1-4.7-2.3-6-3.6c-0.9-0.9-1.6-1.7-2.2-2.6c-0.1-0.1-0.2-0.3-0.4-0.5c-0.2-0.4-0.5-0.7-0.5-0.7
		l-12.5,8.3h-30.9v-13.9h24v-14h-24v-11.3H431v-14.1h-46.4v67.3h49.1v-10c2.8,3.4,7.3,7.5,14.8,9.9c4.3,1.3,8.9,2,14.3,2
		c10.4,0,18.3-2.9,23.4-8.5c2.4-2.7,5.4-7.5,5.4-14.7C491.7,222,477.8,219.4,464.5,216.9"/>
	<rect x="415.7" y="277.7" class="st3" width="74.5" height="4.9"/>
	<path class="st3" d="M339.1,274.4c2.8-0.3,4-1.2,5.2-2.1h4.1V288h-5.5v-10.3h-3.8V274.4z"/>
	<path class="st3" d="M359,282.7c-3.8,0-7-1.5-7-5c0-1.6,0.7-3.5,3.2-4.6c2.1-1,5.4-1.1,6-1.1c5.5,0,9,2.2,9,7.7
		c0,1.8-0.3,4.9-3,6.9c-2,1.6-4.6,1.7-6.9,1.7c-1.3,0-2.9-0.1-4.5-0.6c-2.5-0.8-3.3-2.2-3.7-3.7l6.1-0.2c0.3,0.5,0.9,1,2.3,1
		c0.9,0,2-0.2,2.7-0.8c1.3-1,1.4-2.5,1.4-3.2C363.6,281.6,362.4,282.7,359,282.7 M357.5,277.4c0,1.9,2.5,1.9,3.2,1.9
		c2.3,0,3.5-0.6,3.5-1.9c0-1.5-1.3-2.1-3.6-2C359.4,275.5,357.5,275.8,357.5,277.4"/>
	<path class="st3" d="M396.9,272.7h6.3v9.2h2.7v3.7h-2.8v2.8h-5.2v-2.8h-10.2v-3.4L396.9,272.7z M397.9,276.8l-4.9,5.1h4.9V276.8z"
		/>
	<path class="st3" d="M389.1,275.7c-9.9,6.6-9.6,12.7-9.6,12.7h-6.2c0,0,0.4-8.2,10.4-12.7h-11.9V272h17.2V275.7z"/>
	<path class="st4" d="M240.5,489.4c-5.5-10.7-7.5-22.3-8-25.9c-2.1,0.4-3.7,0.5-4.6,0.5c-0.9,4.5-1.3,9.2-1.3,13.8
		c0,13.9,4,27.4,11.7,39l2.6-1.2C237.6,502.6,239.3,493.4,240.5,489.4"/>
	<path class="st5" d="M242,517.9l-2.5,0.6c7.3,10.4,17.2,18.6,28.7,23.9c-0.5-0.9-1.7-3.2-3.5-8.6C260.7,532,248,526,242,517.9"/>
	<path class="st0" d="M296.7,406.8l-2.6,11.9c-11,5.2-18.9,13.3-18.9,13.3c-6.4,0.2-15.9,0.8-25.6,2.3c-1-3.2-1.2-6.4-1.3-7.5
		C261.4,414.1,278.6,407.1,296.7,406.8 M298.5,406.8l2.6,11.9C312.1,424,320,432,320,432c6.3,0.2,15.9,0.8,25.6,2.3
		c1-3.2,1.2-6.4,1.3-7.5C333.7,414.1,316.6,407.1,298.5,406.8"/>
	<path class="st6" d="M328.4,487.7c-3.3,9.8-11.9,24.7-13.9,28.1c-1.9,0.4-8.8,1.7-17.6,1.7c-5.8,0-11.2-0.6-16.1-1.7
		c-2-3.4-10.7-18.4-14-28.1c3.2-4.8,11.2-16.2,19.9-24.5h21.8C317.2,471.6,325.2,482.9,328.4,487.7 M272.4,438.3
		c-8.8-1.7-18.1-2.1-23-2.2c-8.3,10.4-14,23-15.3,26.3c1.9,11.9,7.5,22.6,8.6,24.6c3.9,0.3,7.9,0.5,11.9,0.5c5.5,0,9.5-0.3,11-0.4
		c5.4-14.1,12.3-26.5,13.9-29.3L272.4,438.3z M345.8,436c-4.9,0.1-14.2,0.5-23,2.2l-7.1,19.4c1.6,2.8,8.5,15.2,13.9,29.3
		c1.5,0.1,5.5,0.4,11,0.4c4,0,8.1-0.2,11.9-0.5c1.1-2,6.8-12.7,8.7-24.7C359.8,458.9,354.2,446.4,345.8,436"/>
	<path class="st7" d="M241,515.6l-2.6,1.2c-7.7-11.6-11.7-25.1-11.7-39c0-4.6,0.5-9.3,1.3-13.8c0.9,0,2.5-0.1,4.6-0.5
		c0.5,3.6,2.4,15.2,8,25.9C239.3,493.4,237.6,502.6,241,515.6 M354.2,515.6l2.6,1.2c7.7-11.6,11.7-25.1,11.7-39
		c0-4.6-0.4-9.3-1.4-13.8c-0.8,0-2.4-0.1-4.6-0.5c-0.5,3.6-2.4,15.2-7.9,25.9C355.9,493.4,357.6,502.6,354.2,515.6"/>
	<path class="st8" d="M264.7,533.7c1.8,5.4,3,7.8,3.5,8.6c-11.5-5.3-21.4-13.5-28.7-23.9l2.5-0.6C248,526,260.7,532,264.7,533.7
		 M330.5,533.7c-1.8,5.4-3,7.8-3.5,8.6c11.5-5.3,21.4-13.5,28.7-23.9l-2.4-0.6C347.3,526,334.5,532,330.5,533.7"/>
	<path class="st9" d="M326.9,532.4c-1-1-2.6-2.6-4.3-4.3c-3.5-3.8-6.1-7.2-7.7-9.7c-17.1,4.1-31.2,0.9-34.7,0
		c-3.3,5.2-10.1,12.2-12.7,14.8c0.2,1.7,0.9,6.3,2.3,9.7c0.1,0.1,0.1,0.3,0.2,0.4c8.7,3.7,18,5.5,27.5,5.5c9.4,0,18.5-1.8,27.1-5.4
		c1.6-3.6,2.4-9.2,2.6-10.5C327.1,532.7,327,532.5,326.9,532.4"/>
</g>
</svg>
