<?xml version="1.0" encoding="utf-8"?>
<!-- Generator: Adobe Illustrator 24.0.0, SVG Export Plug-In . SVG Version: 6.00 Build 0)  -->
<svg width="450" height="450" version="1.0" id="katman_1" xmlns="http://www.w3.org/2000/svg" xmlns:xlink="http://www.w3.org/1999/xlink" x="0px" y="0px"
	viewBox="-0 130 580 580" style="enable-background:new 0 0 400 400;" xml:space="preserve">
<style type="text/css">
	.st0{fill:#9EA0A3;}
	.st1{fill:#FFFFFF;}
	.st2{fill:#002B5C;}
	.st3{fill:#90AFD4;}
</style>
<g>
	<path class="st0" d="M510.3,204.7c0,0-0.1-0.2-0.2-0.2c-62.4-36-135.3-56.5-212.4-56.5v0h-0.1h0v0c-77.1,0-149.7,19.9-212.1,56
		c-0.1,0.1-0.3,0.3-0.3,0.4c-25.6,62.9-46.8,166.4-14.3,257.8c28.6,80.2,76.6,133.3,130.5,172.9c54,39.6,94.1,58.2,94.6,58.4
		c0,0,1.3,0.6,1.6,0.6c0.3,0,1.7-0.6,1.7-0.6c0.4-0.2,40.5-18.9,94.5-58.4c54-39.6,101.9-92.7,130.5-172.9
		C556.9,370.6,536,267.6,510.3,204.7"/>
	<path class="st1" d="M292.9,680.2c-3.2-1.5-79.5-35.5-143.2-105.3C90.3,509.7,32,400.4,91.5,249.9l1.3-3.3l3-1.9
		c3.4-2.3,84.8-55.4,201.6-55.4c116.8,0,198.2,53.1,201.6,55.4l2.9,1.9l1.3,3.3c59.6,150.5,1.3,259.9-58.1,325
		c-63.6,69.8-140,103.9-143.2,105.3l-4.5,1.9L292.9,680.2z"/>
	<path class="st2" d="M493,254.3c0-0.1-0.2-0.4-0.5-0.6c-5.9-3.8-84.6-53.3-195.1-53.3c-110.7,0-189.8,49.8-195.2,53.3
		c-0.2,0.1-0.3,0.5-0.4,0.6C-9.2,535.2,297.4,670,297.4,670S603.8,535.2,493,254.3"/>
	<path class="st1" d="M389.5,379.6c-0.9,0.3-0.3,1.3,0.2,1.8c0.8,1,6,7.3,6.8,8.1c0.8,0.7,0.9,1.3,2.2,1.1c1.4-0.4,2.8-0.8,4.2-1.1
		c2.1-0.4,4.3-0.6,6.6-0.7c0.4,0,0.8,0,1.2,0c7.2-0.2,12.3,0.9,12.4,0.9c15,2.5,16.3,14.9,16.4,15.3v0.4c0.1,2.9,0.4,8.8-5.9,13.6
		c-0.2,0.2-0.4,0.6-0.3,0.9c0.1,0.3,0.3,0.5,0.7,0.6c2.4,0.3,4.8,0.3,7.4,0.3h2.1c5.9-0.1,10.3-1.5,13.3-4.1c3-2.6,4.5-6.4,4.4-11.4
		c0-0.2,0-17.9-25.6-26.1c-7.8-2.5-16-3-21.6-3c-4.4,0-7.3,0.3-7.3,0.3c-0.2,0-3.9,0.2-9.5,1.3C394.2,378.5,392.1,378.9,389.5,379.6
		"/>
	<path class="st1" d="M463,496.8c-0.3-0.2-0.7-0.2-0.9,0c-8.1,5.5-17.7,8.3-28.6,8.3c-6.5,0-13.1-1-19.7-2.9c-1.6-0.5-2.8-0.9-4-1.3
		c-2-0.7-3.8-1.5-5.7-2.5c-3.4-1.7-6.8-3.8-10-6.3c-1.3-0.9-2.4-1.9-3.5-2.9c-13.5-11.8-18.8-26-18.8-26.2
		c-3.7-9.2-5.9-16.9-5.8-27.6c0-4,0.6-8.1,1.5-12c0,0,0,0,0-0.1c0.1-0.2,0.2-1.3,0.2-1.3c0.1-0.6-0.1-1-0.5-1.3
		c-0.8-0.9-12.6-15.3-13.3-16c-0.6-0.6-1.1-1.8-1.9-1.5c-3,4-4.8,7.7-6.2,10.5c-0.2,0.5-0.5,1.1-0.7,1.7c-0.1,0.3-0.2,0.6-0.3,0.8
		c-0.1,0.1-0.1,0.1-0.1,0.1c-3.4,8.4-5,17.9-4.8,28.4c0,0.3,1.2,29.6,22.7,49.6c5.8,5.4,12.2,9.9,19,13.4c1.3,0.7,2.5,1.3,3.9,1.9
		c5.4,2.5,10.9,4.3,16.7,5.5c1.7,0.3,3.2,0.6,4.6,0.8c3.7,0.6,7.3,0.8,10.7,0.8c3,0,4.7-0.2,4.7-0.2c26.5-1,38.2-12.2,41-18.6
		C463.3,497.4,463.2,497.1,463,496.8"/>
	<path class="st1" d="M360,393.1l17.1,21.2c0,0,0.1,0.2,0.1,0.2l0.2,0.2c0.8,1,1.6,2,2.4,2.9l0.3,0.5c13.1,18.8,19.6,36.4,19.6,52.5
		c0,1.4,0,2.7-0.1,4.1l-0.1,1.1c0,1-0.2,1.9-0.3,2.9v0.2c0,0.4-0.1,0.9-0.1,1.3c-0.1,0.6-0.3,1.2-0.4,1.9c-0.4,2.3-1.1,4.7-1.9,7.3
		c-0.2,0.6,0.6,1,1.2,1.4c1,0.7,8.5,5.1,16.1,7.6c0.6,0.3,0.9,0.3,1-0.2c1.6-3.7,2.8-7.3,3.8-11c0.1-0.1,0.1-0.2,0.1-0.4
		c2.2-7.9,3.3-16.1,3.3-24.3c0-14-3.1-27.5-9-40.1c-3-6.5-7.3-13.7-12.8-21.3c-0.8-1.2-1.6-2.3-2.5-3.4c-0.2-0.3-0.4-0.6-0.7-0.9
		l-0.6-0.9c-0.9-1.2-1.8-2.3-2.7-3.4c-0.5-0.6-1-1.3-1.5-1.9c-0.7-0.8-1.3-1.6-2-2.3l-1.4-1.7c-0.8-1-1.7-2-2.5-3l-3.6-4.3
		c-5.1-6.1-10.2-12.2-15.3-18.3c-14.3-18.1-21.8-31.7-22.2-40.4c-0.3-5,1.4-8.9,5.2-11.8c4.1-3.2,8.1-4.5,14-4.5
		c3.7,0,7.8,2,10.6,5.1c2.6,3.3,3.9,6.3,3.9,9.1v0.4c0,2.8,0,8.8-6.3,13.5c-0.2,0.2-0.4,0.5-0.3,0.8c0,0.3,0.3,0.5,0.6,0.6
		c3.1,0.4,6.2,0.6,9.4,0.6c11.9,0,18-5,18.1-15c0.1-4.9-1.6-12.1-10.2-18.4c-6.7-4.9-15.2-8-22.8-8.4c-11.5-0.6-22.2,2.4-31.9,8.7
		c-9.1,5.9-13.9,14.9-13.9,25.9c0,11.9,6.9,26.8,20.3,44.2C348.3,378.5,354.2,385.8,360,393.1 M418.3,486.6L418.3,486.6L418.3,486.6
		z"/>
	<path class="st1" d="M382.5,520.4c-1.3-0.6-1.6-0.6-2.4,0.5c-1.3,1.8-2.7,3.5-4.1,5.2c-13.6,16-31.1,29.7-52,40.7
		c-0.4,0.1-0.6,0.6-0.4,0.9c0.1,0.4,0.4,0.6,0.8,0.6h0.1c23.5-3.8,44-13.6,61.1-29.2c0-0.1,0.1-0.1,0.2-0.2l0.3-0.2
		c2.3-2.2,4.4-4.3,6.3-6.3c1.3-1.2,3-3.3,5.4-6.3c0.2-0.3,0-0.6-0.3-0.7C389.5,523.8,383.8,520.9,382.5,520.4"/>
	<path class="st2" d="M367.5,423.3C367.5,423.3,367.5,423.2,367.5,423.3C367.5,423.3,367.5,423.3,367.5,423.3"/>
	<path class="st1" d="M149.9,247.3c-10.3,4.5-20.3,9.3-30.2,14.9c-1.9,1.1-3.5,3-4.1,4.9c-0.8,2.8-1.8,6.2-2.7,9
		c-0.4,1.5-0.2,2,1.4,1.6c7.9-2.3,16.2-4.4,24.7-6.1c-0.4,1.5-1,4-1.3,5.5c-7,3.2-14,7-20.8,10.7c0.5-1.8,1-3.4,1.5-5.2
		c-2.9,1.6-6,3.4-8.8,5.1c-0.8,2.7-1.5,5.2-2.2,7.9c-0.6,1.9,0.4,2.3,2.5,1.2c10.5-5.9,21.4-11.8,32.3-16.6c2.1-0.9,3.8-2.7,4.3-4.5
		c0.6-3,1.3-6.3,2-9.3c0.3-1.4-0.1-2.1-1.7-1.8c-8.5,1.5-16.8,3.3-24.8,5.5c0.4-1.3,1.1-3.7,1.5-5c6.3-3.5,12.8-6.7,19.7-9.8
		c-0.4,1.5-0.7,3-1.1,4.5c2.9-1.4,5.9-2.7,8.9-4c0.6-2.4,1.1-4.8,1.7-7.2C152.9,247,151.8,246.4,149.9,247.3"/>
	<path class="st1" d="M199.5,229.7c-11.8,3.3-23.3,7-34.7,11.6c-2.3,10.6-4.6,21.8-6.9,32.4c3.1-1.3,6.2-2.5,9.3-3.6
		c1.7-8.6,3.6-17.9,5.3-26.5c6.8-2.5,13.6-4.7,20.5-6.8c-0.5,3.2-1.2,7.1-1.7,10.4c-6.4,1.9-12.9,4.1-19.3,6.4
		c2.1,1,4.2,2.1,6.4,3.1c5.9-2,11.8-3.9,17.9-5.6c2.2-0.7,3.7-2.1,3.9-4c0.7-5.1,1.6-10.6,2.3-15.7
		C202.6,229.9,201.6,229.1,199.5,229.7"/>
	<path class="st1" d="M252.8,219.5c-12.2,1.5-24.3,3.4-36.3,6.2c-2.2,0.5-3.6,2-3.8,3.8c-1.2,8.4-2.4,17.1-3.5,25.3
		c-0.2,1.7,0.9,2.5,3.2,2c12.5-2.8,25.2-5.1,37.9-6.6c2.2-0.3,3.7-1.5,3.9-3.3c0.6-8.1,1.3-16.6,2-24.9
		C256.3,220.2,255,219.2,252.8,219.5 M244.5,245.6c-8.5,1.3-16.9,2.7-25.3,4.4c0.8-6.4,1.7-13.6,2.5-20.1c7.8-1.6,16.4-3.1,24.6-4.2
		C245.8,232.1,245.1,239.3,244.5,245.6"/>
	<path class="st1" d="M305.8,236.9c2.2,0.1,3.6-1,3.6-2.7c-0.1-4.6-0.2-9.5-0.3-14.2c0-1.8-1.5-3-3.6-3c-12.4-0.3-24.7,0.1-36.9,1.1
		c-0.4,10.2-0.8,20.4-1.2,30.3c3.2-0.2,6.4-0.4,9.7-0.6c0.2-8.1,0.4-16.7,0.6-25c7.3-0.4,14.6-0.5,22-0.5c0,3,0,6.1,0.1,9
		c-7,0-14,0-21,0.4c1.7,1.2,17.6,11.6,23.9,15.7c4,0.1,8,0.2,12,0.4v-0.3c-5.8-3.7-10.6-7.4-16.2-10.9
		C301.2,236.8,303,236.8,305.8,236.9"/>
	<path class="st1" d="M317.2,222.9c5.6,0.3,11.2,0.7,16.8,1.3c0.6,8.3,1.3,17.2,1.8,25.3c3.2,0.3,6.4,0.7,9.6,1.1
		c-0.7-8-1.4-17-2.1-25.3c5.6,0.7,11.2,1.6,16.8,2.6c-0.2-2-0.3-3.6-0.6-5.6c-14.1-2.5-28.4-4.2-42.6-4.9
		C317,219.4,317.1,220.9,317.2,222.9"/>
	<path class="st1" d="M371.2,254.6c3.3,0.6,6.5,1.3,9.7,2.1c-1.3-10.3-2.6-20.8-4-31.1c-3.1-0.7-6.1-1.3-9.2-1.9
		C368.9,233.8,370.1,244.4,371.2,254.6"/>
	<path class="st1" d="M425,259.9c-9.1-9.6-18.2-19.8-27.2-29c-3.1-0.8-6.2-1.7-9.3-2.5c1.7,10.5,3.2,21.2,4.9,31.4
		c3.2,0.8,6.4,1.7,9.6,2.6c-1.1-6.9-2.3-14.6-3.5-21.7c9,9.3,18.5,19.8,27.7,29.5c3,1,5.8,2.1,9,3.4c-2-10.1-4.3-21.4-6.3-31.8
		c-2.9-1.2-5.9-2.3-8.9-3.4C422.2,245.2,423.8,253,425,259.9"/>
	<path class="st1" d="M487.1,294.9c-1.4-5.1-3.2-11.9-4-14.9c-8-4.5-10.9-6.1-20.3-10.8l4.9,6.9c4.2,2.2,5,2.6,8.3,4.4
		c0.8,2.6,1.6,5.7,2.2,7.8c-7.7-4.4-13.2-7-21.1-10.8c-2-8-3.7-15.1-5.3-21.8c8,3.7,13.2,6.3,20.3,10.1c0.4,1.6,1,3.6,1,3.6l8.3,4.7
		c0,0-1.2-4.3-1.9-6.7c-0.6-2.1-1.7-3.7-3.8-4.7c-10.5-5.7-17.8-9.5-30.8-15.3c-2-0.9-3.2-0.1-2.7,1.7c2,8.6,4.1,18.4,6.2,27.1
		c0.5,1.8,2,3.3,4.2,4.2c11.2,5,20.3,9.6,31.3,15.7C486.6,297.6,487.8,297.6,487.1,294.9"/>
	<path class="st1" d="M115.9,218.7c-2.4-1.2-4.7-2.4-7-3.5c-0.8,2.8-1.7,5.6-2.5,8.4c-1.6,0.9-3.3,1.8-4.9,2.7
		c2.3-7.1,4.4-13.7,6.4-19.9c1.5-0.7,2.8-1.5,4.3-2.1c-0.6,2.3-2.1,7.1-2.1,7.1l10.3-11.1c0,0,3.9-1.7,5.6-2.4c0,0,0.8-0.3,0.8-0.2
		c-3.6,4-9.4,10.1-13.4,14.6c2.8,1.4,4.8,2.4,7.8,3.9c0,0,0,0.1,0,0.2C119.1,217.1,117.9,217.6,115.9,218.7"/>
	<path class="st1" d="M154,202.5c-0.2-0.9-0.5-1.8-0.8-2.6c-3.5,1.3-7,2.6-10.5,4.1c-0.8,1.3-1.6,2.5-2.3,3.8
		c-1.6,0.7-3.1,1.4-4.7,2c0,0,0,0,0,0c4.6-7.3,9.1-14.4,13.4-21.3c1.5-0.6,3-1.2,4.5-1.7c1.4,4.6,2.8,9.4,4.4,14.2v0
		C156.7,201.5,155.3,202,154,202.5 M150.5,191.1c-1.8,3-3.6,6-5.5,9.1c2.5-1,5-1.9,7.4-2.8C151.7,195.3,151.1,193.2,150.5,191.1"/>
	<path class="st1" d="M193.6,190.2c-3.2-2.8-6.3-5.6-9.4-8.3c-0.7,3.8-1.4,7.6-2.2,11.5c-1.5,0.4-3,0.9-4.6,1.3
		c1.1-5.6,2.2-11.3,3.3-16.7c1.4-0.4,2.9-0.9,4.3-1.3c3.1,2.6,6.1,5.3,9.3,8c0.6-3.7,1.2-7.2,1.8-10.8c1.4-0.4,2.8-0.6,4.3-1
		c-0.8,5.4-1.6,10.7-2.5,16.3C196.5,189.5,195.1,189.9,193.6,190.2"/>
	<path class="st1" d="M238.6,181.4c-5.3,0.7-10.6,1.5-15.9,2.5c-1.1,0.2-1.7-0.2-1.5-1.2c0.2-1.3,0.3-2.6,0.5-3.9
		c1.5-0.3,3-0.6,4.4-0.8c0,0.9-0.2,1.8-0.3,2.6c3.5-0.6,6.9-1.1,10.3-1.6c0-0.7,0.2-1.5,0.2-2.3c-4.4-0.6-8.8-1.1-13.1-1.6
		c-0.9-0.1-1.1-0.5-1-1.2c0.2-1.3,0.3-2.7,0.5-4.1c0.1-0.9,0.8-1.6,1.9-1.7c5.2-0.9,10.4-1.7,15.5-2.4c1-0.1,1.6,0.3,1.5,1.3
		c-0.1,1.1-0.2,2.3-0.3,3.5c-1.5,0.2-3,0.4-4.4,0.6c0-0.7,0.1-1.5,0.2-2.2c-3.4,0.5-6.7,1-10.1,1.6c-0.1,0.6-0.2,1.3-0.2,1.9
		c4.4,0.5,8.7,1,13.1,1.7c0.8,0.1,1,0.5,1,1.2c-0.1,1.4-0.3,2.9-0.4,4.3C240.4,180.6,239.6,181.3,238.6,181.4"/>
	<path class="st1" d="M281.2,177.5c-0.4-0.9-1-1.8-1.4-2.6c-3.6,0.1-7.1,0.4-10.7,0.6c-0.6,1-1.1,1.9-1.7,2.8
		c-1.5,0.1-3.1,0.3-4.7,0.4v0c3.4-5.4,6.6-10.7,9.8-16c1.6-0.1,3.1-0.2,4.7-0.3c2.9,5,5.8,9.9,8.8,14.9v0
		C284.4,177.4,282.8,177.5,281.2,177.5 M274.8,165.7c-1.3,2.3-2.7,4.6-4,6.9c2.5-0.2,5-0.3,7.6-0.4
		C277.1,170.1,275.9,167.9,274.8,165.7"/>
	<path class="st1" d="M327.8,178.4c-5.4-0.4-10.8-0.7-16.2-0.8c-1.1,0-1.8-0.6-1.8-1.5c0-1.3-0.1-2.6-0.1-3.9c1.5,0,3.1,0.1,4.6,0.2
		c0,0.8,0,1.7,0,2.6c3.5,0.1,7,0.3,10.5,0.5c0-0.7-0.1-1.5-0.1-2.2c-4.7-1.5-9.3-3-13.9-4.4c-0.9-0.2-1.2-0.6-1.2-1.3
		c0-1.4,0-2.7-0.1-4c0-0.9,0.6-1.5,1.7-1.4c5.3,0.2,10.5,0.5,15.8,0.9c1,0.1,1.7,0.6,1.7,1.5c0.1,1.2,0.2,2.3,0.3,3.4
		c-1.5-0.1-3-0.2-4.4-0.3c-0.1-0.7-0.1-1.5-0.1-2.2c-3.4-0.3-6.9-0.4-10.2-0.6v1.9c4.6,1.4,9.3,2.9,13.9,4.4
		c0.8,0.3,1.2,0.8,1.2,1.5c0.1,1.4,0.2,2.8,0.3,4.3C329.5,178,328.9,178.4,327.8,178.4"/>
	<path class="st1" d="M389.6,187.6c-5.6-1.3-11.3-2.5-16.9-3.5c-1-0.2-1.7-0.8-1.8-1.7c-0.4-4.3-1-8.5-1.5-12.8
		c0-0.9,0.5-1.4,1.4-1.2c5.5,0.9,11.1,2,16.7,3.3c1,0.2,1.8,0.9,1.9,1.9c0.2,1.5,0.4,2.9,0.6,4.4c-1.5-0.4-3-0.7-4.4-1
		c-0.2-1-0.2-1.9-0.4-2.9c-3.8-0.8-7.5-1.6-11.2-2.3c0.4,3.4,0.8,6.6,1.2,9.9c3.7,0.7,7.6,1.5,11.3,2.3c-0.1-1-0.3-2-0.4-3
		c1.5,0.3,3,0.6,4.5,1c0.2,1.5,0.4,3,0.6,4.5C391.2,187.4,390.6,187.9,389.6,187.6"/>
	<path class="st1" d="M413,193.5c-1.1-5.5-2.1-11-3.2-16.5c1.5,0.4,2.9,0.9,4.4,1.3c1.1,5.5,2.2,11,3.4,16.6
		C416.1,194.4,414.5,194,413,193.5"/>
	<path class="st1" d="M445.3,191.3c1.2,4.7,2.3,9.5,3.5,14.4c-1.5-0.7-3.1-1.3-4.5-2c-1.1-4.7-2.2-9.4-3.2-14
		c-2.5-0.9-4.9-1.7-7.3-2.5c-0.3-1-0.5-2.1-0.6-3.1c6,2,12.5,4.3,19.3,6.9c0.3,1.1,0.6,2.3,0.9,3.4
		C450.6,193.3,447.9,192.3,445.3,191.3"/>
	<path class="st1" d="M484,215.1c0.6,2.1,1.5,5.4,2.1,7.5c-1.5-0.8-3-1.6-4.5-2.5c-0.6-2.1-1.2-4.4-1.8-6.5c-4-5.2-8.2-11.2-12-16.1
		v-0.1c1.4,0.6,4.7,2.1,6.2,2.8c2.8,3.7,5.6,7.8,7.5,10.1c1.7-1.9,3.9-4.7,3.9-4.7s2.6,1.3,4.3,2.2v0.2
		C487.8,210.4,485.9,212.8,484,215.1"/>
	<path class="st3" d="M297.4,445.8v-38.5c-71.3,3.3-136.3,26.5-187.3,63.1c4.4,10.6,9.8,21,15.7,31.2
		C173,470,232.3,449.6,297.4,445.8"/>
	<path class="st3" d="M90.2,373.3c39.4-26.5,85.2-45.8,135.1-55.7c-10.7-12.7-20.9-24.4-30.6-35.3c-35,9.5-67.9,23.5-97.7,41.5
		C92.7,341.9,90.4,357.5,90.2,373.3"/>
	<path class="st3" d="M246,342.5c-57.5,9-109.9,30.9-153.6,62c1.3,8.9,3.1,18.4,5.5,28.6c0.8,3.3,1.7,6.5,2.5,9.7
		c48.5-34.7,108.9-57.6,175.2-63.6C265.3,366.2,255.4,354,246,342.5"/>
	<path class="st3" d="M297.4,616.5c-16.8,2.1-33,5.3-48.3,9.5c21.9,14.5,39.9,23.8,48.3,27.9V616.5z"/>
	<path class="st3" d="M297.4,514v-37.1c-58.5,4.2-112,22.1-155.3,49.6c6.6,9.1,13.8,18,21.6,26.8C202,532,247.7,518,297.4,514"/>
	<path class="st3" d="M297.4,582.3v-35.7c-40.5,4-78.2,14.6-110.7,30.4c9.5,9,19.1,17.2,28.6,24.7C240.3,592,268,585.4,297.4,582.3"
		/>
	<polygon class="st0" points="412.8,656.1 412.8,671.4 411,671.4 411,656.1 406.1,656.1 406.1,654.5 417.7,654.5 417.7,656.1 	"/>
	<polygon class="st0" points="433.5,671.4 433.5,658.6 428.9,668.7 427.3,668.7 422.6,658.6 422.6,671.4 420.9,671.4 420.9,654.5 
		422.6,654.5 428.1,666.5 433.5,654.5 435.3,654.5 435.3,671.4 	"/>
</g>
</svg>
