<?xml version="1.0" encoding="UTF-8"?>
<svg version="1.1" viewBox="190 200 1100 1100" width="1280" height="1280" xmlns="http://www.w3.org/2000/svg">
<path transform="translate(395,215)" d="m0 0h710v1069h-710z" fill="#EAB12A"/>
<path transform="translate(410,510)" d="m0 0h26l7 4 6 7 1 3 1 85 1 255 3 26 5 24 7 24 9 22 8 16 8 14 12 17 9 11 12 13 13 12 13 10 15 10 16 9 21 10 25 9 25 7 26 5 23 3 29 2h38l28-2 30-4 28-6 26-8 25-10 25-13 12-8 16-12 10-9 8-7 12-13 15-20 12-20 12-25 11-33 6-29 2-15 1-14 1-325 1-11 3-6 5-5 6-3h26v758l-1 1h-679z" fill="#1F36BF"/>
<path transform="translate(410,230)" d="m0 0h679l1 1v199h-240v181l-10-4-24-13-15-6-19-5-16-2h-32l-21 3-20 6-19 9-14 8-10 4v-181h-240z" fill="#1F36BF"/>
<path transform="translate(395,215)" d="m0 0h710v1069h-710zm15 15v1039h679l1-1v-1037l-1-1z" fill="#fff"/>
<path transform="translate(765,602)" d="m0 0 12 7 11 8 6 1 14-7h6l8 7 7 7 10 6 9 3 27 4 22 33 13 17 13 18 11 17 8 16 2 6v7l-5 1-6-3-5-6h-5l-1 1v9l4 17v11l-3 6-6 5-6 1v2l9 1 8 4 8 9 4 10 1 5v20l-5 19-1 6 2 4-3 9-8 11-9 10-12 9-9 2-8-6-8-11-8-15-1-4 17-4 16-8 6-5 3-6v-8l-1-7v-9l5-3 7-1-1-8-9-11h-5l-14 10-10 9v11l-5 3h-14l-11-4-6-5v-1l12-3 10-6 10-9 11-14 3-4h2l-1-2-11-2-2 5-9 12-8 7-8 3-13 3-8 7-7 12-8 16-4 16-3 8h-4l-5-10-3-11v-19l4-12 4-6 3-3h2l1 5h2l2-12 5-13 7-9 10-6 10-3 8-1h14l9 1h12l6-4 5-8 2-7-1-10-4-9-5-8 1-4 5-4-1-8-7-14-11-16-14-19-8-7-17-13-5-1-9 3-11-6-24-6-5-1h-9l-5 1h-7l-2-3-1-5v-8l2-5v-7l-7-9z" fill="#1F36BF"/>
<path transform="translate(734,602)" d="m0 0 2 2-7 9v7l2 5v8l-2 7-4 2-10-2-13 1-23 6-12 6-5-1-6-2-10 6-14 12-8 8-13 18-11 17-5 12v5l5 4 1 4-7 11-3 10 1 10 4 8 5 5 3 2h13l9-1h12l16 3 10 5 8 8 6 13 3 15h2l1-5 4 2 4 5 4 10 1 5v18l-4 14-4 7-5-1-5-21-8-16-6-11-7-8-11-4-11-3-6-4-7-7-8-12v-2l-12 2 11 14 12 13 10 7 13 4v3l-5 4-9 3-10 1-8-2-2-2v-10l-6-7-14-10-4-3h-5l-8 10-2 4-1 6 10 1 3 3v8l-1 7v8l4 7 8 6 13 6 10 3 7 1-2 6-6 12-8 11-8 7-8-1-9-6-10-9-9-11-5-9-1-6 2-3-2-9-4-15v-21l4-13 6-8 9-6 6-2h5v-2l-6-1-7-6-2-5v-11l4-17v-9l-5-1-5 5-6 4-6-1v-7l6-15 11-18 12-17 10-13 14-19 12-19 4-6 23-3 13-4 10-6 13-13 2-1h6l14 7 5-1 11-7z" fill="#1F36BF"/>
<path transform="translate(762,254)" d="m0 0h51l16 2 14 7 8 8 5 10 1 4v19l-5 12-7 8-5 4-9 4-12 3h-14l12 16 12 15 10 13 14 18 6 9h-19l-12-16-12-15-10-13-14-18-6-8-9-1v71h-15z" fill="#EAB12A"/>
<path transform="translate(1026,614)" d="m0 0 2 2v12l-6 17-8 17-6 8-7 5-10 5-7 8-5 5-4-11-8-8-12-7-6-2h-9l-2 3 1 9 7 14 9 12 12 14 12 12 14 11 12 7 9 8 6 9 4 9 2 9 1 81 3 25v13l-3 4-4-1-8-9-9-15-4-10-3-14-1-8v-13l2-31v-11l-4-17-8-16-9-13-9-11-12-13-47-47-9-12-4-8-1-10 5-6 9-3h9l10 3 13 8 12 11 7 7 7 5 5 1 5-3 7-8 2-3 11-4 6-4 6-7 8-14z" fill="#1F36BF"/>
<path transform="translate(473,614)" d="m0 0 2 1 7 16 8 14 7 7 8 4 8 3 6 8 4 4 4 1 8-4 10-9 9-9 14-9 11-4h10l9 3 5 6-1 10-6 11-11 13-51 51-9 11-10 13-8 14-5 14-2 10v12l2 29v14l-3 18-3 10-7 13-8 11-5 5-4-1-2-3v-13l3-25 1-80 3-13 6-11 8-9 15-10 11-8 12-11 8-8 9-11 9-13 6-12 1-9-2-3-5-1-12 4-11 7-7 7-4 11-5-5-8-9-14-7-6-7-8-15-8-22v-13z" fill="#1F36BF"/>
<path transform="translate(644,250)" d="m0 0h17l17 3 12 4 14 7 11 8 8 7-6 7-5 4-4-2-13-10-17-8-11-3-7-1h-14l-14 3-12 5-11 7-7 6-9 13-5 12-2 8v19l4 15 8 14 8 9 13 9 12 5 11 3 9 1h10l16-3 14-7 10-8 7-10 5-12 2-7h-49v-15h66v12l-3 14-5 12-6 10-9 10-7 6-15 8-13 4-7 1h-24l-16-3-16-7-11-7-12-11-9-12-7-16-3-14v-20l4-17 8-16 7-9 11-11 13-8 12-5 12-3z" fill="#EAB12B"/>
<path transform="translate(775,1129)" d="m0 0h21l17 26 26 40 5 8 1-74h22v116h-21l-10-15-15-23-13-20-10-15-1 73h-22z" fill="#EAB12C"/>
<path transform="translate(690,1129)" d="m0 0h23l8 20 21 55 15 39v2h-23l-8-21v-3l-48 1-9 23h-23l3-10 19-49z" fill="#EAB12B"/>
<path transform="translate(547,758)" d="m0 0 2 1-5 14v6l4 2-1 7-3 12-2 29v20l2 22 4 19 4 10 7 8 3 1 20 1 5 5 10 18 7-4 21-16 18-13 4-3 3 1-1 4-11 14-10 15-9 19-6 18-3 14h-7l-6-5-6-10v-6l3-6-1-6-5-8-7-6-2-1h-7l-14 3-8-1-6-3-3-5-12-26-6-20-1-5v-9l2-20v-7l-3-5-4-5-1-2v-13l4-17 6-15 7-12 9-10z" fill="#1F36BF"/>
<path transform="translate(951,758)" d="m0 0 4 2 7 6 10 14 5 11 5 15 2 11v12l-4 6-4 5v9l2 20-1 13-5 17-6 14-7 15-3 5-9 4-10-1-9-2h-7l-7 4-6 8-2 9 3 6v6l-6 10-6 5h-7l-5-20-7-19-9-17-10-14-9-11 1-4 5 2 18 14 14 10 13 10 3-1 10-19 4-3 20-1 6-4 5-8 4-11 4-24 1-14v-16l-2-31-2-10-2-5v-5l5-2-2-9-4-10z" fill="#1F36BF"/>
<path transform="translate(551,1129)" d="m0 0h22l1 83 3 9 6 4 9 1 8-3 5-5 1-4 1-85h22v87l-2 9-6 10-8 7-8 4-9 2h-11l-12-3-11-7-6-8-3-8-2-10z" fill="#EAB12A"/>
<path transform="translate(892,254)" d="m0 0h87v15h-72v48h71v14h-71v60h71v15h-86z" fill="#EAB12A"/>
<path transform="translate(1031,250)" d="m0 0h11l13 4 9 6 10 10 3 5-11 9-4-2-7-8-9-6-3-1h-13l-8 4-4 5-2 6v7l3 8 5 7 20 15 13 10 11 11 7 10 4 11v17l-5 12-9 10-11 7-11 3h-13l-11-3-8-4-10-9-8-10-3-7 12-7 4 4 7 10 7 6 9 4h12l10-4 6-5 4-7 1-4v-9l-4-10-11-12-10-9-14-10-13-12-6-8-4-11v-15l4-10 6-8 9-6 7-3z" fill="#EAB12C"/>
<path transform="translate(757,656)" d="m0 0h6l13 10 13 12 7 9v5l-3 1-4-1 4 5 9 6h2l-1-5-3-3 1-4 2-1h11l15 4 23 11 9 7 8 8 4 6 5-7 3 1 5 9 1 5v7l-3 10-9 8-13 8-23 12-5-1 2-5 12-21 6-13-1-6-6-10-3-3-12-3-13-8-5-2-2 9-1 1-7 1h-9l-11-3-9-5-7-6-11-17-1-5 3-3 6-1-2-6-6-8-1-6z" fill="#1F36BF"/>
<path transform="translate(738,656)" d="m0 0h5l1 4-4 9-4 5-1 4 8 2 1 4-4 8-9 13-9 7-8 4-10 2h-8l-7-1-2-4-1-6-12 6-6 4-12 3-6 7-4 8 1 7 8 16 11 19-1 2-6-1-25-13-13-9-6-7-2-7v-9l4-10 3-4 4 2 3 5 7-9 8-8 17-10 18-7 9-2h11l2 1v5l-3 3v4l5-2 9-7 1-2-6 1-1-1 1-7 12-13 10-9z" fill="#1F36BF"/>
<path transform="translate(661,680)" d="m0 0h7l4 4-1 5-2 6-3 2-16 8-10 7-8 8-4 7-4-4-2-3h-2l-5 9-1 4v9l3 9 9 8 21 12 14 7h5l11 10 5 8v9l-3 9-9-18-9-8-10-4-13-2h-12l-9 1h-13l-7-5-5-8-2-7 1-10 4-9 5-8-1-4-5-4 1-8 7-14 4-5 33-14 17-6z" fill="#FEFEFE"/>
<path transform="translate(832,680)" d="m0 0h7l16 5 32 13 8 4 7 11 4 10v5l-6 5 1 5 6 9 3 10-1 10-4 8-5 5-4 3h-12l-9-1h-14l-16 3-9 5-5 5-6 9-3 9h-2l-2-8v-9l6-9 10-9 7-1 25-13 14-10 4-5 2-8v-7l-3-9-3-5-3 1-4 6-4-5-7-8-7-6-22-12-4-6-1-6z" fill="#fff"/>
<path transform="translate(420,254)" d="m0 0h84v15h-34v137h-16v-137h-33l-1-1z" fill="#EAB433"/>
<path transform="translate(894,1129)" d="m0 0h22v95h32v21h-54z" fill="#EAB12A"/>
<path transform="translate(777,269)" d="m0 0h41l11 3 8 7 4 7 1 4v9l-4 10-4 5-10 5-11 2h-36z" fill="#1F36BF"/>
<path transform="translate(707,969)" d="m0 0h8l12 5 15 8 3 1h10l16-8 11-5 3-1h8l3 3v10l-5 8-9 8-11 7-10 10-8 13-1 2-5-1-7-12-11-12-16-11-7-7-2-4v-11z" fill="#1F36BF"/>
<path transform="translate(510,549)" d="m0 0h20l16 3 19 7 19 10 13 8 8 3h9l5-1h10l-2 11-3 5-5 4-3 1h-13l-10-5-11-9-14-12-10-7-10-5-7-2-7 1-9 9-3 2-25 1-6 4-9 14-6 9-2 1v-8l6-25 4-11 5-4 13-3z" fill="#1F36BF"/>
<path transform="translate(970,549)" d="m0 0h20l18 3 6 3 3 5 5 15 3 13v12l-5-5-8-14-4-5-5-3-25-1-10-9-4-3-9 1-10 4-14 10-15 13-12 9-7 3h-13l-6-3-5-6-2-12h10l11 2 13-5 13-8 19-10 21-7z" fill="#1F36BF"/>
<path transform="translate(952,797)" d="m0 0h4l2 15 1 20v16l-2 22-4 19-5 12-6 7-4 2-20 1-5 5-9 17h-4l-20-15-7-5 2-1 9 3 11 1 1-2 9-2 13-10 9-10 7-11 2-8-2-3 2-9 4-16 2-34 3-9 5-4z" fill="#fff"/>
<path transform="translate(544,797)" d="m0 0 6 1 5 4 3 10 2 34 6 21-2 8 4 10 10 13 7 7 10 7 10 3h11l9-2-5 5-16 12-7 4-5-8-7-13-3-2-20-1-5-3-6-7-5-14-3-15-2-22v-20l2-29z" fill="#fff"/>
<path transform="translate(524,254)" d="m0 0h15v152h-15z" fill="#EAB12A"/>
<path transform="translate(885,792)" d="m0 0 11 1 1 3h-2l-2 4-9 11-9 10-10 7-10 4-13 3-12 6 2-6 7-9 6-5 19-5 8-6 8-10z" fill="#fff"/>
<path transform="translate(612,792)" d="m0 0h3l7 11 9 10 7 4 16 4 6 4 6 7 4 7-1 2-14-7-14-3-10-5-13-12-14-17-1-3z" fill="#fff"/>
<path transform="translate(701,1160)" d="m0 0 2 1 14 36v3h-30l1-6z" fill="#1F36BF"/>
<path transform="translate(854,788)" d="m0 0h8v16l-6 5-5 2h-9l-8-7v-4l4-6 4 5 1 1h8l2-11z" fill="#fff"/>
<path transform="translate(638,788)" d="m0 0h8l2 4 1 8h8l4-6 4 4 2 5-7 7-2 1h-9l-8-4-3-3z" fill="#fff"/>
</svg>
