<?xml version="1.0" encoding="UTF-8"?>
<svg version="1.1" viewBox="280 245 970 970" width="1280" height="1280" xmlns="http://www.w3.org/2000/svg">
<path transform="translate(741,256)" d="m0 0h60l30 3 30 5 30 7 29 9 29 11 26 12 21 11 20 12 15 10 18 13 16 13 11 9 17 16 19 19 7 8 12 14 13 17 13 18 12 19 12 21 12 23 13 30 12 34 8 29 6 27 5 33 3 35v49l-3 35-5 33-7 31-8 28-9 26-11 26-14 29-14 24-10 16-12 17-13 17-11 13-7 8-9 10-25 25-8 7-13 11-13 10-18 13-22 14-23 13-24 12-32 13-27 9-26 7-30 6-31 4-33 2h-23l-32-2-31-4-30-6-26-7-30-10-29-12-19-9-23-13-15-9-12-8-14-10-13-10-11-9-15-13-10-10-8-7-9-10-13-14-9-11-14-18-14-20-13-21-12-22-12-24-13-32-11-33-9-36-5-27-4-34-1-14v-57l3-33 5-32 7-31 9-31 11-30 12-27 12-24 16-27 8-12 12-17 11-14 9-11 9-10 7-8 28-28 11-9 9-8 17-13 17-12 19-12 23-13 22-11 29-12 36-12 32-8 27-5 25-3z" fill="#FEFEFE"/>
<path transform="translate(748,272)" d="m0 0h46l34 3 30 5 30 7 29 9 21 8 25 11 27 14 23 14 20 14 17 13 13 11 10 9 8 7 19 19 7 8 12 14 13 17 13 18 12 19 12 21 9 17 12 27 10 27 8 25 7 28 6 33 3 26 2 30v42l-3 33-6 36-7 30-9 29-10 27-11 24-8 16-12 22-14 22-13 18-11 14-11 13-9 10-11 12-13 13-8 7-10 9-14 11-13 10-16 11-8 5-3-1-11-23-37-74 5-5 14-10 16-13 12-11 10-9 7-8 11-12 13-17 12-17 11-18 10-18 12-27 9-25 7-25 5-24 3-22 2-28v-19l-2-32-4-28-6-27-9-29-10-25-12-25-12-21-13-19-10-13-11-13-9-10-22-22-11-9-15-12-18-12-17-10-23-12-19-8-33-11-25-6-26-4-25-2h-28l-25 2-26 4-25 6-23 7-27 11-26 13-21 13-17 12-16 13-12 11-8 7-8 8-7 8-13 15-14 19-12 19-9 16-8 15-11 26-11 33-6 25-5 32-2 26v39l3 29 5 27 6 24 10 29 10 23 11 22 14 23 13 18 13 16 11 12 7 8 8 8 8 7 15 13 18 13 10 7-5 9-14 20-8 12-26 38-8 12-4-1-16-11-18-14-14-12-13-12-23-23-7-8-11-13-15-20-13-19-13-21-13-24-11-23-11-28-9-27-7-26-7-36-4-33-1-14v-48l2-29 4-30 6-31 8-30 12-35 13-30 12-24 16-27 12-18 14-19 13-16 9-10 7-8 26-26 11-9 9-8 20-15 19-13 18-11 18-10 22-11 32-13 31-10 24-6 26-5 33-4z" fill="#131B4F"/>
<path transform="translate(751,417)" d="m0 0h34l29 3 25 5 25 7 19 7 20 9 21 11 24 16 13 10 13 11 16 15 13 14 11 14 10 13 12 19 10 18 10 21 9 24 3 10-1 1h-51l-5-10-8-18-9-17-11-17-12-16-11-13-20-20-11-9-15-11-21-13-27-13-19-7-27-7-27-4-15-1h-20l-24 2-23 4-25 7-25 10-22 11-19 12-13 10-13 11-13 12-11 12-13 17-9 13-9 15-8 15-10 24-6 18-6 25-3 19-2 30 1 29 3 23 5 24 7 22 8 20 8 17 10 17 8 12 13 17 10 11 7 8 14 13 14 11 17 12 18 10 16 8 20 8 24 7 20 4 15 2 15 1h22l23-2 23-4 25-7 25-10 20-10 19-12 16-12 13-11 21-21 11-14 11-15 14-24 10-21 4-10h53l-3 11-10 25-11 23-10 17-8 12-14 19-13 15-14 15-13 12-11 9-16 12-17 11-18 10-21 10-24 9-25 7-25 5-29 3h-34l-29-3-26-5-24-7-22-8-29-14-14-8-15-10-16-12-13-11-12-11-12-12-7-8-13-16-13-19-12-20-8-15-11-26-9-27-6-24-4-24-2-20v-47l3-27 5-26 8-28 9-24 10-22 10-18 16-24 10-13 11-13 11-12 11-11 8-7 16-13 20-14 21-12 27-13 25-9 21-6 26-5z" fill="#CD142D"/>
<path transform="translate(733,513)" d="m0 0 9 1 6 3 7 8 2 5v421l-4 8-8 7-6 2h-7l-26-6-20-7-25-12-16-10-16-12-12-11-8-7-9-10-11-14-10-15-9-16v-11l3-7 6-7 7-3h7v-158l-10-1-6-4-5-6-2-6v-11l7-14 10-15 10-13 11-12 6-7 8-7 13-11 21-14 23-12 21-8 22-6z" fill="#CD142D"/>
<path transform="translate(1117,726)" d="m0 0h109v42l-3 33-6 36-7 30-9 29-10 27-11 24-8 16-12 22-14 22-13 18-11 14-11 13-9 10-11 12-13 13-8 7-10 9-14 11-13 10-16 11-8 5-3-1-11-23-37-74 5-5 14-10 16-13 12-11 10-9 7-8 11-12 13-17 12-17 11-18 10-18 12-27 9-25 7-25 5-24 3-22 2-28z" fill="#CD142D"/>
<path transform="translate(316,726)" d="m0 0h108l1 38 3 29 5 27 6 24 10 29 10 23 11 22 14 23 13 18 13 16 11 12 7 8 8 8 8 7 15 13 18 13 10 7-5 9-14 20-8 12-26 38-8 12-4-1-16-11-18-14-14-12-13-12-23-23-7-8-11-13-15-20-13-19-13-21-13-24-11-23-11-28-9-27-7-26-7-36-4-33-1-14z" fill="#006240"/>
<path transform="translate(776,510)" d="m0 0 18 1 23 4 24 7 24 10 18 10 16 11 11 9 10 9 15 15 11 14 9 13 10 17 4 8v3h-58l-12-16-12-13-10-9-7-5-1 349-20 9-24 8-13 3h-5v-399l-11-1-20-2-1-1v-53z" fill="#CD142D"/>
<path transform="translate(695,578)" d="m0 0h3v320l-6-2-16-9-16-12-13-12-3-3v-244l13-13 17-13 19-11z" fill="#FEFEFE"/>
<path transform="translate(899,316)" d="m0 0h13l12 6 4 5 2 5v10l-4 15-6 15-4 6-7 6-3 1h-9l-12-5-7-8-1-4v-9l4-15 5-13 6-10 5-4z" fill="#FEFEFE"/>
<path transform="translate(635,316)" d="m0 0h8l8 5 6 9 7 20 1 5v14l-4 6-6 5-22 8h-4l-20-60v-3l22-8z" fill="#FEFEFE"/>
<path transform="translate(1167,639)" d="m0 0h18l6 3 5 6 3 9v13l-4 7-5 4-10 4-21 4h-11l-9-4-5-7-2-7v-14l5-8 12-6z" fill="#FEFEFE"/>
<path transform="translate(462,961)" d="m0 0 8 2 8 7 5 7 2 6-1 9-5 8-9 9-15 11-10 4-9-1-6-4-7-8-3-7v-10l5-8 11-11 11-8 10-5z" fill="#FEFEFE"/>
<path transform="translate(495,398)" d="m0 0h7l7 4 5 8v10l8-1 7 4 6 7 2 9-3 9-9 10-8 7-6 5-5-4-9-11-10-11-9-11-9-10-1-4 20-18z" fill="#FDFDFD"/>
<path transform="translate(985,352)" d="m0 0 5 2 21 14 5 7v10l-4 8-5 5-9 2 2 3v7l-10 20v3l-5-2-10-7 4-10 6-11-1-5-4-3h-2l-13 21-4-1-10-6 2-5 14-23 15-24z" fill="#FEFEFE"/>
<path transform="translate(1131,823)" d="m0 0h67l-2 11-2 5-12 1-4 14 6 2 5 3-1 8-2 8-5-2-24-13-23-13-7-4 1-8z" fill="#FEFEFE"/>
<path transform="translate(429,464)" d="m0 0 4 1 19 14 16 12 7 8 2 5-1 9-5 9-8 8-3 1h-10l-8-4-19-14-18-13 2-5 7-9 9 6 20 15 13 9 6-1 1-6-1-3-4-2-18-13-19-14 2-5z" fill="#FEFEFE"/>
<path transform="translate(866,1108)" d="m0 0h2l3 12 7 34v12l-4 7-8 5-8 2h-8l-7-3-6-8-5-22-6-30 13-3h3l10 49 2 4 5 1 3-2v-8l-9-44v-3z" fill="#01613F"/>
<path transform="translate(797,294)" d="m0 0 22 2 9 2 6 4 3 5 1 4v10l-3 9-7 6-2 1h-18v9l-2 16-15-1-1-3 6-58z" fill="#FEFEFE"/>
<path transform="translate(740,294)" d="m0 0h2l1 4v9l-1 1-20 2 1 12 20-2 1 1 1 12-2 1-18 2 1 14 14-2h9l1 5v8l-34 4h-4l-1-2-6-56v-9z" fill="#FEFEFE"/>
<path transform="translate(1158,540)" d="m0 0h2l6 14-1 3-16 10-21 14 42-11 3 1 6 15-61 12h-5l-7-16 1-4 38-28z" fill="#FEFEFE"/>
<path transform="translate(356,637)" d="m0 0h12l3 1-1 9-1 6h-11l-3 2v6l10 4 21 4h11l2-6-3-3-11-4 1-11 1-4 8 1 10 5 5 8v14l-3 9-4 5-7 3h-15l-20-4-12-6-4-5-2-5v-11l4-11 5-5z" fill="#FEFEFE"/>
<path transform="translate(1062,977)" d="m0 0h9l10 6 2 3-9 11-7-4-1-1h-7v7l7 8 11 10 10 7 6 1 2-2-1-7-8-8 6-8 3-3 4 1 7 8 2 4v12l-6 10-8 7-3 1h-8l-12-6-10-9-8-7-7-10-1-3v-8l3-7 7-9z" fill="#FEFEFE"/>
<path transform="translate(402,796)" d="m0 0h3l3 12 6 31-8 2h-5l-2-8v-5l-36 8-16 3-3-16 26-6 24-5-1-14z" fill="#FEFEFE"/>
<path transform="translate(1061,408)" d="m0 0 7 6 9 9 7 8 8 8-6 7-4 2-8-8-3 1-7 8-21 21-5 6-4-1-8-9 2-4 22-22 7-8 4-5-7-8v-3z" fill="#FEFEFE"/>
<path transform="translate(371,566)" d="m0 0 9 3 31 14 9 4 1-5 6-15 6 1 6 3-1 6-12 28-2 2-41-18-18-8 5-13z" fill="#FEFEFE"/>
<path transform="translate(666,1106)" d="m0 0 8 1 7 2-4 18-8 34 19 5 1 5-2 8-7-1-28-7-2-2 15-62z" fill="#01613F"/>
<path transform="translate(1123,481)" d="m0 0h2l8 12-5 5-18 13-17 12-13 9-4-4-5-8 1-3 16-11 18-13z" fill="#FEFEFE"/>
<path transform="translate(464,976)" d="m0 0h5l3 4-1 5-5 6-14 11-11 7h-6l-2-2v-6l7-8 15-12z" fill="#006240"/>
<path transform="translate(908,327)" d="m0 0 6 2 1 7-5 18-5 13-5 6h-5l-3-3 1-10 8-24 5-8z" fill="#131B4F"/>
<path transform="translate(1172,655)" d="m0 0h14l2 2v6l-5 4-22 5-14 1-4-3v-6l3-3 15-4z" fill="#131B4F"/>
<path transform="translate(634,329)" d="m0 0 5 2 4 6 6 18 1 4v8l-5 4-4 1-5-12-9-27v-2z" fill="#131B4F"/>
<path transform="translate(510,432)" d="m0 0 6 1 4 5 1 6-5 6h-3l-9-11 1-4z" fill="#131B4F"/>
<path transform="translate(993,370)" d="m0 0 6 4 2 3-1 5-4 5-6 1-5-3 1-4z" fill="#131B4F"/>
<path transform="translate(811,308)" d="m0 0h6l5 5-1 9-3 3h-8z" fill="#131B4F"/>
<path transform="translate(1142,836)" d="m0 0 23 1 4 1-1 8-1 2-9-3-16-8z" fill="#CD142D"/>
<path transform="translate(492,414)" d="m0 0h6l4 5v5l-5 5h-2l-8-10z" fill="#131B4F"/>
</svg>
