<?xml version="1.0" encoding="UTF-8"?>
<svg version="1.1" viewBox="0 0 800 800" width="1280" height="1280" xmlns="http://www.w3.org/2000/svg">
<path transform="translate(592,102)" d="m0 0h27l38 1 11 1 1 1 1 26v76l-3 48-5 43-4 27-8 41-9 36-12 41-12 33-14 34-11 24-19 38-12 21-14 22-20 30-13 18-11 14-9 11-11 13-12 14-7 7-1 2h-2l-2 4-38 38-8 7-11 10-6 5h-2l-2 4-3 1-10-8-14-12-30-30-7-8-10-11-9-11-12-15-9-12-13-17-13-19-11-17-17-28-10-18-12-22-16-32-13-30-13-34-11-31-15-50-9-39-8-43-6-44-3-28v-5l11-8 24-14 33-17 29-13 40-16 38-13 42-12 37-9 45-9 46-7 36-4 21-2 35-2z" fill="#FBFCFB"/>
<path transform="translate(592,102)" d="m0 0h27l38 1 11 1 1 1 1 26v76l-3 48-5 43-4 27-8 41-9 36-12 41-12 33-14 34-11 24-19 38-12 21-14 22-20 30-13 18-11 14-9 11-11 13-12 14-7 7-1 2h-2l-2 4-38 38-8 7-11 10-6 5h-2l-2 4-3 1-10-8-14-12-30-30-7-8-10-11-9-11-12-15-9-12-13-17-13-19-11-17-17-28-10-18-12-22-16-32-13-30-13-34-11-31-15-50-9-39-8-43-6-44-3-28v-5l11-8 24-14 33-17 29-13 40-16 38-13 42-12 37-9 45-9 46-7 36-4 21-2 35-2zm-30 18-36 2-44 4-45 6-39 7-41 9-38 10-37 12-17 6-12 5-16 6-20 8-9 4-32 15-10 6-16 9-12 7-1 2v13l6 45 7 36 10 45 14 49 11 33 8 21 11 27 9 20 24 48 9 16 12 20 15 24 10 14 8 11 10 14 8 11h2l2 5 11 13 8 10 11 12 5 6h2v2h2l2 4 17 17 8 7 8 9 3 1 7-8 8-7 15-14 33-33 9-11 8-9v-2h2l9-11 11-13 14-19 7-10 16-24 11-17 13-22 12-21 11-23 11-24 11-27 7-18 14-43 10-36 8-37 7-40 5-42 3-37 1-24v-69l-1-9-1-1z" fill="#019C45"/>
<path transform="translate(468,579)" d="m0 0h16l24 2 1 4-4 5-5 9h-2l-2 5-10 14-14 19-4 6h-2l-2 4-11 14-12 14-11 12-7 8-8 8-7 8h-2l-2 4-12 12-5-1-11-11-7-8-11-12-4-5v-2h-2l-9-11-10-12-6-8-7-10 1-4 8-8 8-7 15-11 12-8 28-14 20-7 14-4 22-4z" fill="#019C45"/>
<path transform="translate(337,345)" d="m0 0h3l-1 13-4 24-6 21-8 20-10 19-12 17-9 11-5 6-8 7-10 9-11 8-13 8-3 1-3-4-17-41-8-21-11-34-9-30v-2l12-3 91-20z" fill="#9AC74B"/>
<path transform="translate(607,288)" d="m0 0h7l-1 8-6 35-8 38-9 34-10 32-2 5-7-1-26-16-11-8-13-11-16-16-10-13-12-19-8-15-8-18v-4l99-22z" fill="#9AC74B"/>
<path transform="translate(596,196)" d="m0 0h6l13 10 5 4v32l-3 7-12 14-4 4-16 4-38 8h-4l-1-70 1-2 49-10z" fill="#020102"/>
<path transform="translate(338,251)" d="m0 0 4 1-1 71-25 5-5-5-12-14-6-8-2-1v33l-11 3-8 2h-7v-71l4-2 22-4 10 11 8 10 5 6 2 1-1-32 9-3z" fill="#020102"/>
<path transform="translate(380,347)" d="m0 0h1l-1 20-4 34-5 31-8 32-9 29-7 19-13 32-14 29-12 23-10 16-5-5-13-21 1-6 8-10 13-20 12-20 10-18 17-34 11-25 9-25 9-29 6-28z" fill="#BFCFDA"/>
<path transform="translate(531,210)" d="m0 0h5v17l-7 2-19 4-11 3-6 1-1 7 10-1 15-3h7v16l-9 3-19 4h-4v9l38-8h6v17l-5 2-31 6-27 6h-8v-71l32-7z" fill="#020202"/>
<path transform="translate(255,268)" d="m0 0h3v54l-11 14-6 7-3 2-35 7-6-1-11-9-5-5v-52l5-2 21-4 1 1-1 52 22-4h3v-54l15-4z" fill="#020102"/>
<path transform="translate(427,336)" d="m0 0 2 3 8 24 9 21 12 25 13 22 11 16 16 21 11 13 12 14 16 16 7 6-1 6-9 17-3 4-4-1-9-11-14-17-26-39-10-18-11-22-8-19-9-25-9-35-4-16z" fill="#BFCFDA"/>
<path transform="translate(455,226)" d="m0 0h3v18l-24 6-1 53-6 2-15 3h-5l-1-52-17 3-7 1-1-1 1-18 27-5 35-8z" fill="#020102"/>
<path transform="translate(350,411)" d="m0 0 1 4-6 20-13 33-11 23-14 24-10 15-12 16-11 13-4 5-3-1-11-20v-6l14-13 8-7 7-7 7-8 11-13 10-13 13-19 8-13 8-16z" fill="#BFCFDA"/>
<path transform="translate(461,391)" d="m0 0 6 5 7 8 2 4h2v2l4 2 9 9 8 7 13 11 17 12 16 10 10 6 9 5-1 8-8 17-3 2-8-6-10-9-8-7-19-19-9-11-10-12-12-17-10-15-5-9z" fill="#BFCFDA"/>
<path transform="translate(372,244)" d="m0 0h3v71l-9 3-15 3h-3v-71l7-3z" fill="#020102"/>
<path transform="translate(333,33)" d="m0 0h2l6 16 2 7 22-4h6l-1 3-11 9-8 8 2 9 4 12v3l-6-1-14-7-5 1-8 7-7 8-4 2 1-8 6-20-6-2-15-8v-2l23-5 4-1 3-11z" fill="#99C64A"/>
<path transform="translate(451,12)" d="m0 0 3 1 7 21 23-5h5l-4 5-8 7-9 9 2 10 5 13v2l-5-1-15-8-6 1-16 16-4 1 3-10 4-13-1-5-16-8-3-3 5-2 22-5 7-25z" fill="#99C64A"/>
<path transform="translate(377,185)" d="m0 0h8l3 5 1 12 1 3v7l-4 5-8 4-14 3-5-1v-28l2-7z" fill="#96C13A"/>
<path transform="translate(586,216)" d="m0 0h7l1 12v22l-3 2-21 4-1-1v-34l7-3z" fill="#F5F8F1"/>
<path transform="translate(500,158)" d="m0 0h13l5 5 1 2v7l-6 8 1 4 4 5 1 3-7-1-6-6h-10v10l-1 1h-6v-33l3-3z" fill="#95BF33"/>
<path transform="translate(405,335)" d="m0 0 2 1 5 28 3 36v67l-3 19-1 3h-2l-1-79-2-34-2-32v-8z" fill="#039C45"/>
<path transform="translate(456,168)" d="m0 0h14l4 5 1 8-6 8v3l6 7-2 2-6-1-6-5h-8l-1 9-2 2h-5v-34l5-3z" fill="#94BD2D"/>
<path transform="translate(337,193)" d="m0 0h5l1 1v29l-2 6-5-1-17-17-1 22-1 2h-5l-1-1v-27l1-8 3-1 8 7 10 10 3 1v-22z" fill="#93BB28"/>
<path transform="translate(546,148)" d="m0 0 4 1 6 9 9 19v5l-6-1-1-4-6-1-13 2-2 5-4 5h-4l1-6 10-25z" fill="#95BE33"/>
<path transform="translate(279,205)" d="m0 0 5 1 8 13 7 15-1 5-5-1-4-6-17 3-2 5-2 4-6 1 7-20 8-18z" fill="#95BE33"/>
<path transform="translate(425,175)" d="m0 0h6l1 2-2 3-19 4v8l17-2 1 4-3 2-14 2-1 10 16-4 5 1-1 4-15 4-11 1-1-1v-32l3-3z" fill="#94BD2F"/>
<path transform="translate(241,213)" d="m0 0 9 1 3 2-1 5-10-1-9 4-4 6v9l4 4 9 1 6-4 4-2 1 4-5 6-7 3h-9l-8-5-3-6v-7l4-10 5-5 4-3z" fill="#95BD30"/>
<path transform="translate(377,185)" d="m0 0h8l3 5 1 12 1 3v7l-4 5-8 4-14 3-5-1v-28l2-7zm1 1-4 2 1 2-7 1v2l-4 1v15l-1 4 2 6 13-2 5-5v-7l-2-1 3-1 3-5v-7l-3-5z" fill="#93BA27"/>
<path transform="translate(504,163)" d="m0 0 7 1 2 3-1 6-5 5-4 1h-7l-1-8 2-6z" fill="#FAFBFB"/>
<path transform="translate(459,173)" d="m0 0h6l4 4-2 6-5 5h-10v-12z" fill="#FBFCFC"/>
<path transform="translate(313,198)" d="m0 0 4 2h-4l1 10v5h1l1-7 4 1 4 4-1 2-4-4-1 22-1 2h-5l-1-1v-27l1-8z" fill="#9AC74B"/>
<path transform="translate(377,185)" d="m0 0h8l3 5 1 12 1 3v7h-1l-2-8h-1l-2 10-2 2-4-1 4-3 1-7-3-1 4-1 1-4 1-1v-7l-2-4-9 1-4 1-9 1-1 10v22l5-1h8l-4 2-10 1-1-1v-28l2-7z" fill="#9AC74B"/>
<path transform="translate(380,204)" d="m0 0 3 1v7l-5 4-5 1h-7l-1-7 2-3z" fill="#FCFCFC"/>
<path transform="translate(372,191)" d="m0 0h8l2 2-1 7-13 3h-2v-10z" fill="#FBFCFC"/>
<path transform="translate(414,177)" d="m0 0h5l-2 3-10 2-1 31 14-3h5l-4 2-10 2h-6l-1-1v-32l3-3z" fill="#9AC74B"/>
<path transform="translate(408,410)" d="m0 0h1v79h2l1-8h1l-1 11-1 2-4-1z" fill="#B9CDC6"/>
<path transform="translate(250,238)" d="m0 0 3 1-1 5-6 5-5 2h-9l-5-3 2-1 3 1h10l1-1-11-1-2-1v-2l-2-1 1-3 4 4 9 1 6-4z" fill="#99C648"/>
<path transform="translate(279,215)" d="m0 0 4 1 3 5 1 6-2 1h-10l1-8z" fill="#FDFDFD"/>
<path transform="translate(545,158)" d="m0 0 4 1 3 6v6l-4 1h-7l2-10z" fill="#FAFBFB"/>
<path transform="translate(337,193)" d="m0 0h5l1 1v29l-1 5h-1l-1-10 1-23h-3v19l-2 5h-3l-4-5 1-2 3 3 3 1v-22z" fill="#9AC74B"/>
<path transform="translate(456,168)" d="m0 0h14v1l-13 1-9 3-1 4 2 1h-2v27l3 1h-5v-34l5-3z" fill="#9AC74B"/>
<path transform="translate(425,175)" d="m0 0h6l1 2-2 3-19 4 2-4 3-2h3v-2z" fill="#96BF36"/>
<path transform="translate(365,193)" d="m0 0h1v10l2 1 1 1 4-1h7v1l-13 3-1 3v6l12-1-4 2-9 1-2-7 1-8v-10z" fill="#9AC74B"/>
<path transform="translate(378,186)" d="m0 0h6l3 5v7l-4 2-1-10-7-1-1-2z" fill="#93BA25"/>
<path transform="translate(316,208)" d="m0 0 4 1 4 4-1 2-4-4-1 22-3-4v-10z" fill="#9AC74B"/>
<path transform="translate(447,188)" d="m0 0 2 3h5l-2 2-1 6v6h-4z" fill="#93BA25"/>
<path transform="translate(408,481)" d="m0 0h1v8h2l1-8h1l-1 11-1 2-4-1v-11z" fill="#AFCB9E"/>
<path transform="translate(451,176)" d="m0 0h1v12h10v1l-14 3 1-4 2 1-1-6z" fill="#9AC74B"/>
<path transform="translate(420,192)" d="m0 0h8v2l-12 2h-5l2-3z" fill="#93BA25"/>
<path transform="translate(409,186)" d="m0 0 2 1v5l17-2 1 4-1-2-15 2-4 1z" fill="#9AC74B"/>
<path transform="translate(452,192)" d="m0 0h8l5 3-1 2-3-2h-8l-1 9h-1l-1-7z" fill="#9AC74B"/>
<path transform="translate(313,219)" d="m0 0h2l1 10 1 4-4 1z" fill="#93BA25"/>
<path transform="translate(241,213)" d="m0 0 9 1v1l-15 2-5 2 4-4z" fill="#9AC74B"/>
<path transform="translate(448,196)" d="m0 0 3 3v6h-4v-7z" fill="#93BB28"/>
<path transform="translate(228,239)" d="m0 0 5 4 9 2-4 2-8-2v-2l-2-1z" fill="#9AC74B"/>
</svg>
