<?xml version="1.0" encoding="utf-8"?>
<!-- Generator: Adobe Illustrator 25.0.1, SVG Export Plug-In . SVG Version: 6.00 Build 0)  -->
<svg version="1.0"
	 id="svg9173" xmlns:cc="http://creativecommons.org/ns#" xmlns:dc="http://purl.org/dc/elements/1.1/" xmlns:inkscape="http://www.inkscape.org/namespaces/inkscape" xmlns:rdf="http://www.w3.org/1999/02/22-rdf-syntax-ns#" xmlns:sodipodi="http://sodipodi.sourceforge.net/DTD/sodipodi-0.dtd" xmlns:svg="http://www.w3.org/2000/svg"
	 xmlns="http://www.w3.org/2000/svg" xmlns:xlink="http://www.w3.org/1999/xlink" x="0px" y="0px" viewBox="90 30 220 220"
	 style="enable-background:new 0 0 404.5 287.2;" xml:space="preserve">
<style type="text/css">
	.st0{fill:#002E5C;}
	.st1{fill:#FFCA35;}
</style>
<sodipodi:namedview  bordercolor="#666666" borderopacity="1.0" id="base" inkscape:current-layer="layer1" inkscape:cx="31.461406" inkscape:cy="75.530189" inkscape:document-units="mm" inkscape:pageopacity="0.0" inkscape:pageshadow="2" inkscape:window-height="705" inkscape:window-maximized="1" inkscape:window-width="1366" inkscape:window-x="-8" inkscape:window-y="-8" inkscape:zoom="0.35" pagecolor="#ffffff" showgrid="false">
	</sodipodi:namedview>
<g id="layer1" transform="translate(-84.280003,-88.817362)" inkscape:groupmode="layer" inkscape:label="Layer 1">
	<path id="path34732" inkscape:connector-curvature="0" class="st0" d="M194.8,127.7c-1.7,0-2.6-0.7-2.6-2.3v-4.1
		c0-1.6,0.9-2.3,2.6-2.3h4.7v1.4h-2.8c-0.5,0-0.7,0.2-0.7,0.9v4.1c0,0.6,0.2,0.9,0.7,0.9h2.8v1.4L194.8,127.7z"/>
	<path id="path34734" inkscape:connector-curvature="0" class="st0" d="M208.4,127.7c-1.3,0-1.8-0.8-1.8-1.9V121
		c0-1.1,0.5-1.9,1.8-1.9h5.2v1.4h-2.8l-0.6,0.7v1.3h2.9v1.5h-2.9v1.7l0.7,0.7h2.6v1.4L208.4,127.7z"/>
	<path id="path34736" inkscape:connector-curvature="0" class="st0" d="M226.8,127.7v-6.7l-0.5-0.5h-1.9v7.2h-3.5V119h7.2
		c1.6,0,2.1,0.9,2.1,2.3v6.4L226.8,127.7z"/>
	<path id="path34738" inkscape:connector-curvature="0" class="st0" d="M243,120.5v7.2h-3.7v-7.2h-2.4V119h8.5v1.5H243z"/>
	<path id="path34740" inkscape:connector-curvature="0" class="st0" d="M257.9,121.2c0-0.6-0.3-0.7-0.7-0.7h-1.6v3h1.7l0.7-0.8
		V121.2z M257.6,127.7l-1.4-2.8h-0.7v2.8H252V119h7c0.8,0,2.3,0.4,2.3,2.1v1.5c0,0.8-0.4,1.7-1.3,2l1.6,3H257.6z"/>
	<path id="path34742" inkscape:connector-curvature="0" class="st0" d="M271.9,120.7l-1.2,4h2.3L271.9,120.7z M273.9,127.7l-0.5-1.5
		h-3.3l-0.5,1.5H268l2.8-8.7h4.3l2.6,8.7H273.9z"/>
	<path id="path34744" inkscape:connector-curvature="0" class="st0" d="M284.4,127.7V119h3.6v7.3h3.5v1.4L284.4,127.7z"/>
	<path id="path34746" inkscape:connector-curvature="0" class="st0" d="M313.2,127.7c-1.7,0-2.6-0.7-2.6-2.3v-4.1
		c0-1.6,0.9-2.3,2.6-2.3h4.7v1.4h-2.8c-0.5,0-0.7,0.2-0.7,0.9v4.1c0,0.6,0.2,0.9,0.7,0.9h2.8v1.4L313.2,127.7z"/>
	<path id="path34748" inkscape:connector-curvature="0" class="st0" d="M331.2,121.1l-0.7-0.6h-1.3l-0.7,0.6v4.7l0.7,0.6h1.3
		l0.7-0.6V121.1z M334.2,127.1c-0.4,0.4-0.9,0.6-1.6,0.6h-5.4c-0.7,0-1.3-0.2-1.7-0.6c-0.4-0.4-0.5-1-0.5-2v-3.6
		c0-0.9,0.2-1.6,0.5-2c0.4-0.4,0.9-0.6,1.7-0.6h5.4c0.7,0,1.3,0.2,1.6,0.6c0.4,0.4,0.6,1,0.6,2v3.6
		C334.8,126.1,334.6,126.7,334.2,127.1"/>
	<path id="path34750" inkscape:connector-curvature="0" class="st0" d="M345.4,120.7l-1.2,4h2.3L345.4,120.7z M347.5,127.7l-0.5-1.5
		h-3.3l-0.5,1.5h-1.7l2.8-8.7h4.3l2.6,8.7H347.5z"/>
	<path id="path34752" inkscape:connector-curvature="0" class="st0" d="M365.1,120.5h-2.2l-0.4,0.1l-0.2,0.7l0.2,0.3l2.3,3.2
		c0.2,0.3,0.7,1,0.2,2.1c-0.4,0.9-1.3,0.9-1.5,0.9h-5.6v-1.4h2.1l0.5-0.1l0.1-0.8l-0.2-0.3l-2.3-3.1c-0.2-0.3-0.6-1.1-0.1-2
		c0.5-0.9,1.6-1,1.7-1h5.2L365.1,120.5z"/>
	<path id="path34754" inkscape:connector-curvature="0" class="st0" d="M377.9,120.5v7.2h-3.7v-7.2h-2.4V119h8.4v1.5H377.9z"/>
	<path id="path34756" inkscape:connector-curvature="0" d="M238.9,139.7c0,0.2,1.4,6.1,2.8,12c-1.8,0.8-3.6,1.7-5.4,2.6L238.9,139.7
		z M233.9,168.2l1-5.7c2.7-1.6,5.5-3,8.4-4.3c0.4,1.7,0.8,3.2,1,4.3c2.8-1.3,5.6-2.5,8.6-3.6c-1.3-5.6-6.2-25.9-6.5-27.1h-10.8v0
		h-0.1l-7,40.1C230.2,170.6,232.1,169.4,233.9,168.2"/>
	<path id="path34758" inkscape:connector-curvature="0" d="M262.9,136.1l3.4-0.1c1.2,0,2.5,0.9,2.5,2.8v2c0,1.7-0.6,2.4-1.8,2.4
		c0,0-2.4,0.6-4.1,1V136.1z M262.9,155.8v-7.2l2.9-0.9c1,2.1,2,5.1,3,6.9c2.9-0.5,5.9-1,8.8-1.2c-1.2-1.5-2.4-4.8-3.6-7
		c2.5-1.1,3.4-2.4,3.4-4.7V138c-0.1-5.1-3.6-6.2-5.7-6.2h-17.6c0,6.8,0,17.1,0,26.7C257.1,157.4,260,156.5,262.9,155.8"/>
	<path id="path34760" inkscape:connector-curvature="0" d="M288.9,152.9v-21.2h-9.1v21.4C282.8,152.9,285.9,152.9,288.9,152.9"/>
	<path id="path34762" inkscape:connector-curvature="0" d="M300.4,153.9c0-3.7,0-10.8,0-17.8l3.4,0c2.4,0,2.6,2.3,2.6,3.5V155
		c2.8,0.6,5.7,1.3,8.5,2.1c0-4.9,0-11.5,0-18c0-4.7-1.3-7.3-5.4-7.3h-18.1V153C294.4,153.2,297.4,153.5,300.4,153.9"/>
	<path id="path34764" inkscape:connector-curvature="0" d="M320.5,159c0.6,0.3,1.3,0.5,1.9,0.7c4.3,1.7,8.5,3.6,12.4,5.9
		c0-2.3,0-5.8,0-7.8c0,0-5.7-1.9-7.3-2.6c-0.6-0.3-1.2-1.4-1.2-2.5v-4.1c2.4,0.4,4.8,0.8,7.2,1.3v-6c-2.4-0.3-4.8-0.5-7.2-0.8V139
		c0-1.5,0.4-2.4,1.5-2.4c2.4,0.1,4.6,0.2,7,0.3c0-1.8,0-3.5,0-5.2h-13c-3.3,0-4.6,2.4-4.7,6.1v14.6
		C317.2,155.4,318.1,157.5,320.5,159"/>
	<path id="path34766" inkscape:connector-curvature="0" d="M345.9,137.3c0,0,2.7,0.1,4.1,0.2c1.2,0.1,1.8,0.7,1.8,3.5v7
		c0,2.8-0.6,3.9-1.8,3.7c-1.4-0.3-4.1-1.7-4.1-1.7L345.9,137.3z M345.9,172.8v-15c0.6,0.2,1.1,0.9,1.7,1.1c1.1,5.2,2.1,11,3.3,18
		c3.6,3.1,7,6.5,10.1,10.1c-1.4-10.9-4.4-26.2-4.4-26.2c3.3-1,3.8-6.5,3.8-11.1v-8.3c-0.1-8.5-3.6-9.8-5.7-9.8h-17.6
		c0,9.7,0,21.6,0,35.2C340.2,168.8,343.1,170.7,345.9,172.8"/>
	<path id="path34768" inkscape:connector-curvature="0" d="M369.1,169.6c0.2,1.3,0.4,1.8,0.5,2.6c0.3,2.4,0.4,4.9-0.4,7
		c-0.3,0.6-0.8,0.5-1.2,0.2c-1.8-1.3-3.6-2.5-5.5-3.7v13.1c4.7,5.7,8.7,11.9,11.9,18.4l1.1-0.6c1.3-1,2.1-2.1,2.8-3.5
		c0.7-1,1.4-3.2,1.9-7.7l0.1-1.1l0.1-0.6l0,0c0.9-11.3-0.1-19-0.6-22c-2-11.4-3.9-19.4-5.9-26.2c-0.3-1-0.5-1.7-0.5-1.8
		c-0.4-2.4,0.3-3.7,0.4-3.8l1.1-0.4c1.9,0.1,3.7,0.3,5.6,0.4v-8.1h-13.2c-0.4,0-3,0.2-4.3,4.5c-1.2,4.4-0.2,8.9,0.3,10.5
		C365.4,152.9,367.2,159.9,369.1,169.6"/>
	<path id="path34770" inkscape:connector-curvature="0" d="M194.8,215.5c1.9-4.9,4.2-9.5,6.7-13.9v-60.8c1.8-0.2,3.8-0.5,4.2,2.3v52
		c2.6-3.8,5.5-7.3,8.6-10.6v-45.3l1.6-0.2c1.4,0,2.6,0.4,2.8,2.5v38.4c2.7-2.5,5.6-4.9,8.5-7.2v-31.6c0-5.9-1.1-9.3-5.4-9.4h-29.2
		v89.8C193.4,219.5,194.1,217.5,194.8,215.5"/>
	<path id="path34772" inkscape:connector-curvature="0" class="st1" d="M318.8,169c-45.5-17.8-96.8,4.6-114.6,50.1
		c-17.8,45.5,4.6,96.8,50.1,114.6c45.5,17.8,96.8-4.6,114.6-50.1C386.7,238.2,364.3,186.8,318.8,169"/>
	<path id="path34774" inkscape:connector-curvature="0" class="st0" d="M301.7,282.6c1.6,0.7,3.2,1.4,4.9,2
		c19.2,6.8,37.4,6.8,54.3,0c0.5-1.2,1-2.4,1.5-3.6c6.3-16.1,7.1-33,3.4-48.6c-1.2,5.8-2.8,11.1-4.6,15.8c-5.9,15-15,24.8-28.4,30.6
		C325.1,282.3,313.2,284.4,301.7,282.6"/>
	<path id="path34776" inkscape:connector-curvature="0" class="st0" d="M306.9,172.5c-16.8-4.4-34-3.1-49.4,2.8
		c4-0.5,8.2-0.7,12.5-0.6c36.6,0.7,65.6,31.1,65.7,67.3c0,1.6-0.3,3.5-0.8,5.5l0,0.4C343.9,219.7,332.4,187.9,306.9,172.5"/>
	<path id="path34778" inkscape:connector-curvature="0" class="st0" d="M316.7,313.2c-8.7-3.6-17-9-24.8-16.1
		c-12.6-11.4-20.2-26.8-21.7-43.4c-5.8,15-5.9,32.1,0.7,47.9c5.3,12.8,12.7,23.1,22,30.9c14.3-1.1,28-6,39.7-14
		C327.2,317.5,321.9,315.7,316.7,313.2"/>
	<path id="path34780" inkscape:connector-curvature="0" class="st0" d="M305.4,288.3c-9.3-2.7-17.8-7.4-25-13.6
		c3.1,7.4,7.7,14.3,13.6,20.3c12,12.1,25.5,19.6,40.2,22.4c10.8-7.8,19.8-18.2,25.8-30.9c-3.3,1.2-6.6,2.2-10,3
		C336.1,293.4,321.2,293,305.4,288.3"/>
	<path id="path34782" inkscape:connector-curvature="0" class="st0" d="M225,226.9c-9.6,9.9-16.1,20.7-19.5,32.3
		c1.2,12.2,5,23.8,11.3,34.3c-0.7-10.9,1.1-22.2,5.3-33.9c12.6-34.8,51.1-52.9,85.9-40.3l1.5,0.6C283.9,200.8,247.5,203.3,225,226.9
		"/>
	<path id="path34784" inkscape:connector-curvature="0" class="st0" d="M293.2,220.4c-28.7-3.9-57.4,12.1-68.4,40.2
		c-4.9,12.5-6.8,24.7-5.8,36.4c7.7,11.5,18.5,21.1,31.6,27.5c-4-8-6.5-16.9-7.5-26.8c-0.5-3.7-0.7-7.5-0.8-11.5
		c-0.1-8,1.2-15.6,3.7-22.7C253.4,242.4,271.1,225.9,293.2,220.4"/>
	<path id="path34786" inkscape:connector-curvature="0" class="st0" d="M276.1,315.6c-2.7-4-5.2-8.3-7.4-12.9
		c-11.2-23.8-7.6-51.1,8.3-70.8c-19,11-31.8,31.3-32.2,54.6c-0.3,14.9,2.8,28.1,9.1,39.5c1,0.4,2,0.9,3,1.3
		c11.1,4.3,22.5,6.1,33.6,5.5C285,328,280.2,322.3,276.1,315.6"/>
	<path id="path34788" inkscape:connector-curvature="0" class="st0" d="M291.4,196c11.6,4.3,27.3,13.5,36.2,32.9
		c1.6,3.4,2.8,7,3.8,10.7c-0.6-33.5-27.2-61.3-61.1-62.9c-6.4-0.3-12.5,0-18.3,1c-14.6,6.9-27.2,18.1-35.7,32.6
		c6.3-5.7,13.8-10.5,22.4-14.4C250.3,190.5,271.1,188.5,291.4,196"/>
	<path id="path34790" inkscape:connector-curvature="0" class="st0" d="M205.1,252.2c3.8-9.7,9.8-18.8,17.9-27.3
		c25.5-26.8,68-27.9,94.8-2.4c1.8,1.7,3.5,3.5,5.1,5.5l-0.2-0.5c-8.4-16.4-22.1-24.6-32.5-28.7c-19.4-7.6-39.3-6-50.5-1.1
		c-10.5,4.6-19.2,10.5-26.3,17.7c-1,2.1-2,4.2-2.8,6.4C206.8,231.7,205,242,205.1,252.2"/>
	<path id="path34792" inkscape:connector-curvature="0" class="st0" d="M254.5,333.2c-21.9-8.5-39.1-25.1-48.5-46.6
		c-9.4-21.5-9.9-45.4-1.3-67.2c17.7-45.1,68.7-67.5,113.8-49.8c21.9,8.5,39.1,25.1,48.5,46.6c9.4,21.5,9.9,45.4,1.3,67.2
		c-8.6,21.9-25.1,39.1-46.6,48.5C300.3,341.3,276.4,341.8,254.5,333.2 M201.7,218.2c-8.9,22.7-8.4,47.4,1.4,69.7
		c9.8,22.3,27.6,39.5,50.3,48.3c22.6,8.9,47.4,8.4,69.7-1.4c22.3-9.8,39.5-27.6,48.3-50.3c8.9-22.7,8.4-47.4-1.4-69.7
		c-9.8-22.3-27.6-39.5-50.3-48.3C273,148.3,220,171.4,201.7,218.2"/>
	<path id="path34794" inkscape:connector-curvature="0" d="M283.5,234.2l0.5,3.1l9.9-1.9l4.9-8.8l-3-1.6
		C290.8,226.9,286.6,230.1,283.5,234.2"/>
	<path id="path34796" inkscape:connector-curvature="0" d="M295.1,254.6l10.3,7.4l10.2-7.4l-3.9-12.1h-12.7L295.1,254.6z"/>
	<path id="path34798" inkscape:connector-curvature="0" d="M326.5,237l0.5-3.1c-3.2-4.1-7.6-7.2-12.6-9l-2.7,1.4l4.9,8.8L326.5,237z
		"/>
	<path id="path34800" inkscape:connector-curvature="0" d="M313,277.5l1.7-3.3l-9.1-4.3l-9.1,4.3l1.7,3.3c2.4,0.7,4.8,1,7.4,1
		C308,278.5,310.6,278.2,313,277.5"/>
	<path id="path34802" inkscape:connector-curvature="0" d="M333,252l-2.6-2.6l-6.9,7.4l1.2,10l3.7-0.6
		C331.1,262.1,332.8,257.3,333,252"/>
	<path id="path34804" inkscape:connector-curvature="0" d="M282.5,266.3l3.5,0.5l1.2-10l-6.9-7.4l-2.4,2.4
		C278,257.1,279.7,262.1,282.5,266.3"/>
	<path id="path34806" inkscape:connector-curvature="0" class="st0" d="M199.8,217.5c9.1-23.2,26.6-41.4,49.4-51.4
		c22.8-10,48.1-10.5,71.3-1.4c47.8,18.7,71.5,72.8,52.8,120.7c-18.7,47.8-72.8,71.5-120.6,52.8C204.8,319.4,181.1,265.3,199.8,217.5
		 M248.7,164.9c-23.1,10.1-40.9,28.6-50.1,52.1c-19,48.5,5,103.4,53.5,122.3c48.5,19,103.4-5,122.3-53.5c19-48.5-5-103.4-53.5-122.3
		C297.5,154.3,271.8,154.8,248.7,164.9"/>
</g>
</svg>
