<?xml version="1.0" encoding="UTF-8"?>
<svg version="1.1" viewBox="0 0 896 896" width="1280" height="1280" xmlns="http://www.w3.org/2000/svg">
<path transform="translate(433,59)" d="m0 0h31l30 2 32 5 25 6 23 7 26 10 22 10 22 12 20 13 17 12 17 14 14 12 21 21 7 8 11 13 14 19 10 15 14 24 8 16 10 22 11 30 8 30 5 27 3 23 1 11v57l-4 33-5 26-8 30-9 26-8 19-8 16-12 22-12 19-14 19-13 16-11 12-9 10-9 9-8 7-14 12-20 15-17 11-15 9-27 14-21 9-25 9-29 8-26 5-36 4h-40l-24-1-27-3-29-6-28-8-26-10-20-9-25-13-21-13-18-13-11-9-13-11-10-9-21-21-9-11-11-13-13-18-12-19-12-22-13-27-10-27-7-22-6-26-5-32-2-26v-40l3-35 5-29 8-30 9-27 13-30 13-25 15-24 12-16 10-13 13-15 16-17 3-1 1-3 8-7 10-9 14-11 18-13 19-12 18-10 16-8 26-11 30-10 25-6 27-5 18-2z" fill="#FEFDFD"/>
<path transform="translate(429,201)" d="m0 0h39l24 3 25 6 21 7 20 9 21 12 20 14 14 12 12 11 11 12 10 13 7 10 12 20 10 21 7 19 6 21 4 20 1 8 1 20v29l-2 19-6 28-8 25-11 24-11 20-12 16-7 9-10 11-7 8-8 7-16 13-18 12-21 12-23 10-19 6-20 5-19 3-12 1h-30l-20-2-22-4-21-6-21-8-16-8-18-10-14-10-16-13-12-11-8-8-9-11-10-13-9-14-9-16-9-19-10-30-4-18-3-19-1-13v-29l2-22 6-29 10-30 13-27 12-19 8-11 9-11 9-10 16-16 17-13 18-12 27-14 21-8 20-6 21-4z" fill="#020102"/>
<path transform="translate(317,292)" d="m0 0 19 9 24 11 16 8 12 7 13 10 14 14 11 16 11 21 3 7 4-16 5-14 7-12 9-10 10-7 15-8 21-7 48-12-3 10-10 34-6 21-7 21-8 16-9 9 8-3 14-5 21-5 12-2h22l29 3 15 1h47l-2 5-9 25-6 10-9 10-13 9-15 6-11 3h-15l-12-3 7 7 9 13 8 16 6 14 9 24 2 9-3 3-18-1-16-3-23-6-27-10-10-6-32-14-12-5-8-7-2-4v-3h-2l-2 10-12 35-7 12-10 14-12 14-14 15-4 5-4-2-11-25-10-25-2-7-4-32v-28l5-12 7-11 7-9-6 5-8 11-4 8-1 5-3 1-25-8-44-11-13-7-12-9-11-10-14-11-16-8-16-5-14-2-13-1 2-5 10-8 14-12 10-9 14-10 16-8 12-3h29l12 3-2-7-6-40-1-11z" fill="#FDFDFD"/>
<path transform="translate(433,59)" d="m0 0h31l30 2 32 5 25 6 23 7 26 10 22 10 22 12 20 13 17 12 17 14 14 12 21 21 7 8 11 13 14 19 10 15 14 24 8 16 10 22 11 30 8 30 5 27 3 23 1 11v57l-4 33-5 26-8 30-9 26-8 19-8 16-12 22-12 19-14 19-13 16-11 12-9 10-9 9-8 7-14 12-20 15-17 11-15 9-27 14-21 9-25 9-29 8-26 5-36 4h-40l-24-1-27-3-29-6-28-8-26-10-20-9-25-13-21-13-18-13-11-9-13-11-10-9-21-21-9-11-11-13-13-18-12-19-12-22-13-27-10-27-7-22-6-26-5-32-2-26v-40l3-35 5-29 8-30 9-27 13-30 13-25 15-24 12-16 10-13 13-15 16-17 3-1 1-3 8-7 10-9 14-11 18-13 19-12 18-10 16-8 26-11 30-10 25-6 27-5 18-2zm-1 21-26 2-26 4-26 6-20 6-20 7-27 12-24 13-27 18-13 10-11 9-13 12-6 5-5 6-15 15-9 11-15 20-13 20-12 21-11 23-9 23-8 25-6 24-4 23-2 19-1 17v37l2 26 5 31 7 28 10 30 11 25 11 22 12 20 13 19 18 22 12 13 23 23 11 9 10 8 15 11 19 12 24 13 19 9 27 10 27 8 24 5 18 3 20 2 22 1h13l20-1 32-4 26-5 25-7 23-8 25-11 23-12 18-11 17-12 14-11 14-12 17-16 14-15 9-11 13-17 12-18 9-15 13-25 11-26 11-34 7-32 3-22 2-17v-52l-4-35-5-25-6-23-8-24-11-26-10-20-13-22-12-17-10-13-9-11-11-12-9-10-7-7-8-7-14-12-17-13-15-10-13-8-26-14-28-12-27-9-24-6-29-5-17-2-17-1z" fill="#020203"/>
<path transform="translate(405,455)" d="m0 0h2l-2 4-10 14-4 9-2 5v28l3 27-16 5-22 4-17 3-13 5-7 6-7 10-7 19-2 5-3-1-5-13-4-21-1-10v-40l3-12 7-13 10-13 6-5 4-5 17 4 32 8 18 6h3l1-7 6-11z" fill="#027557"/>
<path transform="translate(557,309)" d="m0 0h2l-12 40-1 1h-14l-4 9-11 12-9 11-9 13-8 18-4 10h-14l1-5 14-22 7-13 5-15 2-10v-14l-3-6-3-2-7 1-1 1 1 9 6 4 1 2v9l-4 14-10 19-8 13-6 9-3 1-4-2-14-1-4-4-2-5-1-10 6-24 8-16 9-11 12-9 15-8 21-7 36-9z" fill="#FEFDFD"/>
<path transform="translate(491,335)" d="m0 0 7 1 4 5 1 3v14l-4 16-5 13-8 14-9 14-3 4-1 4 14-1 6-16 7-14 14-19 10-10 5-7 3-7 14 1-2 9-1 4-11 1-8 7-9 10-7 10-8 13-5 12-1 12 4 2 13 12v2l-15 2-10 5v5l11 1-3 2h-8l-2 10v3h-5l-3-4v-2l-4-2-7-6-5-1h-10l-8 8-4-2-3-13-11-4-5 1-4 3h-2l2-6-12-3v-2l11-7 5-5 4-8 1-9 1-1 7 1 4 1-5-12-10-18-5-6v-2l-16-1-5-5v-11l3-5 7 1 6 5 7 9 6 7 5 3 3 5 3 3 6 14 2 10 2 5 2 1 14 1 6 2 6-9 13-22 6-13 3-11v-9l-4-4-3-2-1-9z" fill="#FCD16D"/>
<path transform="translate(480,501)" d="m0 0h2l4 8 8 6 26 11 18 8 3 3 1 12v13l-2 19-5 21-8 16-7 8-2-2-2-15-6-15-11-21-10-14-10-10-6-4-6-2 1-6 10-29z" fill="#027557"/>
<path transform="translate(753,476)" d="m0 0 2 1v15l7-2 4 2-3 9-9 12-2 4 9-3 5 1-1 7-13 10-2 4 7-3 7-1 2 4-5 5-12 10h-2v4l7-3 9-1 1 5-3 3-19 9h-2l-1 5 10-1h12l1 5-4 2-21 5-5 2-2 6 12-2 5-2h9v6l-5 3-23 7-6 4-1 2 21-2 3 2-1 4-6 2-22 4-7 6-8 11-12 13-11 11-14 11-14 9-5-1 1-4 12-8 14-11 10-9 10-10 9-11 4-7-3-5-9-9-1-2v-6l4-1 5 5 7 8 3 1 4-4-1-6-10-15-2-6 3-3 5 1 9 14 4 1 2-4v-6l-7-7-6-9-1-4 2-3 5 1 8 11 3 3 3 1-2-10-7-12-2-5v-5l2-2 5 1 4 9 3 5 4-1-1-5-6-10-2-8v-6l4-1 5 4 1 7 2 2 1-1v-6l-3-3-4-12v-5l5-1 4 4 3 1-2-8-5-8-1-7 2-2h8v-11z" fill="#027557"/>
<path transform="translate(143,475)" d="m0 0 4 1 1 12 3 1h6l1 3-4 10-3 6-1 5h3v-2l5-2 2 2v7l-5 13-2 3 1 3 2 1 2-6 3-8 6 2v7l-4 10-3 7v6h3l6-15 3-1 3 2v8l-8 15-2 5 2 3 4-2 9-12h3l1 1v8l-8 10-4 4v5l4 5 3-1 8-14 4-1 2 2v7l-4 7-8 9 3 7 4 1 11-11h6l2 3-8 10-6 5v5l13 16 19 19 14 11 11 8 2 4-4 1-15-10-14-11-21-21-12-16-8-4-3-1-17-2-5-2-1-4 2-2 12 1 11 2-2-5-10-4-20-6-4-3v-5l1-1 8 1 18 5-2-7-9-3-18-5-5-4 1-4h7l15 4-2-5-7-4-15-8-1-5 2-2 6 1 12 6-3-5-9-8-8-6-2-6 2-3 6 2 8 6 1-2-4-6-9-7-3-3v-5l5-1 8 4-3-7-9-13-1-2v-6l7 1 4 1v-13z" fill="#027557"/>
<path transform="translate(607,159)" d="m0 0 6 1 13 8 9 7 3 7-1 9-4 5-5 2-2-1 1 11-4 8-5 4-9 1-9-4-12-7-7-5 1-6 12-19 11-17z" fill="#020606"/>
<path transform="translate(442,116)" d="m0 0h17l16 2 5 5 2 6v6l-3 5v5l3 6v9l-3 6-5 4-6 2h-13l-13-1-2-1-1-7 2-42z" fill="#020606"/>
<path transform="translate(600,688)" d="m0 0 10 1 6 4 7 8 5 12 1 10-3 8-9 8-13 7-5-1-8-13-14-24-1-6 5-4 13-8z" fill="#020505"/>
<path transform="translate(242,191)" d="m0 0h8l6 4 5 6v9l7 2 8 7 7 6-2 4-7 5-14-12-4 1-7 6 1 4 9 11v4l-4 4h-5l-13-14-7-8-10-12-3-4 2-5 13-12 7-5z" fill="#020404"/>
<path transform="translate(556,135)" d="m0 0 12 3 17 8 3 4 1 3v9l-4 8-5 3h-2l1 10-5 16-4 1-7-5 1-7 2-10-4-4-6-3h-3l-6 15-2 2-5-1-4-2 1-6 14-35 4-8z" fill="#020404"/>
<path transform="translate(292,155)" d="m0 0h5l4 5 17 29 5 9-1 4-5 3-7-1-10-6-18-11 2 6 8 13 5 8-1 4-7 4-8-11-13-22-6-11 1-5 5-3 6 1 8 4 16 10 4 2-1-4-13-22 1-4z" fill="#020505"/>
<path transform="translate(152,315)" d="m0 0h9l2 1-1 6-5 4-6 4-2 3 1 7 5 2 9-11 7-8 5-2h7l6 3 5 7 1 3v12l-4 9-4 5-8 4h-8l-2-3 1-6 3-3 7-2 4-6 1-7-9-1-10 13-6 5-8 1-8-3-5-6-1-3v-12l5-10 6-5z" fill="#020404"/>
<path transform="translate(352,129)" d="m0 0h8l7 3 5 5v6l-7 1-6-2h-8l-5 3-1 6h22l9 2 5 6 1 4v10l-4 7-9 5-8 2h-8l-5-2-6-7v-6l8 1 6 2 10-1 3-3 1-6-5-1h-20l-6-3-4-6-1-3v-9l3-6 6-5z" fill="#020504"/>
<path transform="translate(654,195)" d="m0 0h7l8 4 7 7 3 8-1 9-4 5-4-1-2-4-2-10-6-5h-6l1 7 9 15 1 9-3 7-5 4-5 2h-8l-8-4-5-5-4-5-2-5v-10l3-5 4-1 4 5 1 11 4 5 4 2 7-1-1-6-8-13-2-5v-9l4-6 6-4z" fill="#020504"/>
<path transform="translate(712,256)" d="m0 0h5l3 3 3 7-5 9-9 11-13 18-5 8-3-1-5-7v-5l4-4-1-7-7-9-12 1-5-7 1-3 38-11z" fill="#020505"/>
<path transform="translate(173,370)" d="m0 0h10l-1 9-2 3-10 2-2 16 8 6-1 10-3 1-11-6-14-8-20-12-2-2 1-10 1-3 16-2z" fill="#020505"/>
<path transform="translate(121,419)" d="m0 0h7l2 2 1 24 8 1 1-23 7-1 4 2v22l12 1v-26l1-1h10v27l-2 11-1 1h-17l-34-1-1-1v-30l1-7z" fill="#020606"/>
<path transform="translate(204,225)" d="m0 0 4 1 4 4-2 5-11 14 1 5 5 2 9-10 5-6 4 1 3 4-2 5-9 12 1 5 5 4 4-2 9-11 5-5 5 1 4 3-2 4-9 11-8 10-6 5-10-6-10-9-9-7-12-10 1-4 11-14 8-10z" fill="#020404"/>
<path transform="translate(568,705)" d="m0 0 4 3 15 41v5l-6 3-5-1-14-12-11-9v3l8 21 1 6-5 2-5-1-6-14-11-31 5-5h6l8 6 12 11 6 5-1-5-7-20-1-5z" fill="#020605"/>
<path transform="translate(500,120)" d="m0 0 9 2 1 5-6 28v10l4 3h7l4-4 7-29 2-8 10 1 1 1-1 11-7 28-4 8-7 4h-12l-10-4-6-7-1-3v-10l5-26 3-9z" fill="#020404"/>
<path transform="translate(414,118)" d="m0 0h10l1 1 4 26v18l-3 6-5 4-10 3h-7l-8-3-5-5-3-8-4-28v-9l4-2h7l2 11 3 23 2 7 3 2h7l4-2 1-2v-10l-4-27z" fill="#020505"/>
<path transform="translate(291,683)" d="m0 0h6l6 5-2 11-9 35-2 6-5-1-5-4v-9l-3-5-6-4-6 1-5 3-6-2-2-2 1-5 12-9 14-11z" fill="#020505"/>
<path transform="translate(506,724)" d="m0 0h8l7 10 8 15 12 21-1 2-11 1-4-7h-9l-8 2-2 10-5 2h-5v-9l4-34 2-10z" fill="#020505"/>
<path transform="translate(405,728)" d="m0 0h9l2 2-1 13-1 3 7-4 10-10 4-2 12 1-3 5-8 7-7 6-1 4 10 19 6 11h-8l-7-2-9-16-2-4-3-1-2 8-2 12h-8l-3-3z" fill="#020505"/>
<path transform="translate(744,374)" d="m0 0h12l9 3 5 4 4 8 1 5v9l-4 9-5 4-6 1-2-2 1-7 4-7v-11l-10-3h-10l-9 4h-2l-2 5v7l5 5 5 3 2 4-1 5-5 1-8-3-6-5-3-6-1-4v-10l4-8 8-7 8-3z" fill="#020505"/>
<path transform="translate(319,699)" d="m0 0 7 1 2 2-1 9-10 23-1 8 3 3 9 1 6-10 10-24 1-1 7 1 3 3-2 8-8 18-6 11-6 5-9 1-10-3-8-7-2-3v-10l6-16z" fill="#020505"/>
<path transform="translate(746,313)" d="m0 0 5 1 9 24 3 9-8 3-3-1-7-19-5-1-5 1 5 17 1 5-6 3-4-1-7-17-7 1-11 4-4-2-3-6 1-3 27-11z" fill="#020505"/>
<path transform="translate(372,720)" d="m0 0h9l8 3 6 7 1 2v11h-6l-4-4-3-6-3-2h-6l-5 3-5 9-1 10 2 7 5 3 7-1 8-5 4 2 1 1-1 7-8 6-2 1h-11l-9-4-6-7-2-6v-11l4-13 4-6 5-4z" fill="#020404"/>
<path transform="translate(398,351)" d="m0 0 7 1 6 5 7 9 6 7 5 3 3 5 3 3 6 14 2 10 2 5 2 1 14 1 2 2h-17l-11-2-3-2-7-1v9l-3 7-2 3h-2l-1 6v7l-2 1-12-4v-2l11-7 5-5 4-8 1-9 1-1 7 1 4 1-5-12-10-18-5-6v-2l-16-1-5-5v-11z" fill="#FEDF90"/>
<path transform="translate(174,264)" d="m0 0 7 4 1 3-5 9 2 4 26 15 7 5-1 5-2 4-4 1-13-8-18-10-5-2-6 10-3 1-5-3-1-4 14-25z" fill="#020505"/>
<path transform="translate(452,731)" d="m0 0h9l1 8 2 32h23l1 1v9l-1 1-21 1h-12l-1-2-2-25v-24z" fill="#020505"/>
<path transform="translate(532,349)" d="m0 0 14 1-2 9-1 4-11 1-8 7-9 10-7 10-8 13-5 12-1 12 4 2 13 12v2l-15 2-9 3 3-3 8-3 5-1v-2l-5-3-5-5-2-4-1-6h-2l2-9 9-20 13-17 7-8 8-9z" fill="#FEDE8F"/>
<path transform="translate(598,699)" d="m0 0 10 1 5 5 5 10v8l-4 6-5 4-4 1-7-9-9-16v-5l6-4z" fill="#FEFEFE"/>
<path transform="translate(601,189)" d="m0 0 4 1 10 7 2 3-1 7-4 4-6-1-10-6-2-2 1-5z" fill="#FEFEFE"/>
<path transform="translate(452,146)" d="m0 0 14 1 5 2 1 5-3 5-5 4h-9l-5-2-1-7 1-7z" fill="#FEFEFE"/>
<path transform="translate(243,202)" d="m0 0 6 2 4 5-1 5-8 8-5 2-8-9-1-3 5-5z" fill="#FEFEFE"/>
<path transform="translate(562,147)" d="m0 0 8 2 6 4 3 3-1 7-3 3h-7l-10-4-1-5 4-9z" fill="#FEFEFE"/>
<path transform="translate(611,172)" d="m0 0 6 1 10 7 1 6-5 6-8-3-8-6 1-7z" fill="#FEFEFE"/>
<path transform="translate(451,126)" d="m0 0h14l5 3 1 1-1 7-3 2h-15l-1-1z" fill="#FEFEFE"/>
<path transform="translate(398,353)" d="m0 0h7l3 3v2h2l1 8 4 1 1 4-13-1-5-11z" fill="#FFD26B"/>
<path transform="translate(157,382)" d="m0 0h2l1 3-1 11-5-1-14-7-2-3 1-1z" fill="#FEFEFE"/>
<path transform="translate(705,268)" d="m0 0h4l-2 5-9 11-5-1-4-7 2-4z" fill="#FEFEFE"/>
<path transform="translate(289,696)" d="m0 0 3 1-5 18-5-1-6-5 2-4 9-8z" fill="#FEFEFE"/>
<path transform="translate(343,368)" d="m0 0 7 2 17 11 11 8 13 11 7 6-2 1-9-6-13-11-15-11-13-8z" fill="#021712"/>
<path transform="translate(509,737)" d="m0 0h2l8 14 1 4-8 3-4-1z" fill="#FEFEFE"/>
<path transform="translate(727,429)" d="m0 0h7l2 6v5l-2 1h-8l-2-1-1-8z" fill="#020908"/>
<path transform="translate(697,311)" d="m0 0 5 1 2 7-5 5-5-1-3-4v-5z" fill="#020505"/>
<path transform="translate(717,361)" d="m0 0h6l1 9-8 4-3-1-2-9z" fill="#020505"/>
<path transform="translate(534,350)" d="m0 0 5 1 3 3-1 7-4 1-5-5v-5z" fill="#FFD26B"/>
<path transform="translate(405,455)" d="m0 0h2l-2 4-10 14-4 9-1 2h-2l1-7 6-11z" fill="#021B15"/>
<path transform="translate(489,347)" d="m0 0 6 1 2 3v13l-4 13-8 16-5 5 2-5 9-17 4-14v-9l-4-4z" fill="#FEDF90"/>
<path transform="translate(523,453)" d="m0 0h27l17 5v1l-10-1-7-2-8-1-19-1z" fill="#02261D"/>
<path transform="translate(436,450)" d="m0 0 3 3 2 6 4-1h3l-6 7-4-2z" fill="#FEDF90"/>
<path transform="translate(538,350)" d="m0 0h8l-2 9-1 4-4-1 2-6-2-4z" fill="#FEE095"/>
<path transform="translate(484,459)" d="m0 0 1 2-1 11h-5l-3-4 1-2 3 1 3-7z" fill="#FEDF90"/>
<path transform="translate(343,368)" d="m0 0 7 2 8 5v2l-5-2-10-6z" fill="#022119"/>
<path transform="translate(512,454)" d="m0 0v3l-3 1-10-1 3-2z" fill="#024634"/>
</svg>
