<?xml version="1.0" encoding="UTF-8"?>
<svg version="1.1" viewBox="0 0 1000 2048" width="1280" height="1280" xmlns="http://www.w3.org/2000/svg">
<path transform="translate(487,1120)" d="m0 0h48l26 3 29 6 22 7 16 6 25 12 20 11 20 14 10 8 14 12 21 21 9 11 12 16 10 15 10 18 9 19 9 25 6 24 4 23 2 26v11l-2 24-3 20-6 24-8 23-12 25-13 21-13 17-9 10-7 8-7 7-8 7-14 11-21 14-18 10-19 9-19 7-26 7-28 5-19 2h-37l-22-2-27-5-25-7-25-9-29-14-17-10-16-11-14-11-13-12-22-22-9-11-10-13-11-17-9-16-11-23-10-30-5-21-3-20-1-11v-36l3-25 6-26 8-24 12-25 8-14 8-12 10-13 8-10 12-13 13-12 14-11 17-12 18-10 25-12 30-10 27-6z" fill="#040103"/>
<path transform="translate(362,436)" d="m0 0 3 4 12 27 11 28 9 25 12 41 9 38 6 32 4 31 3 36v51l-2 26-5 34-6 25-7 22-10 25-15 29-12 20-16 25-18 27-21 35-14 25-12 23-13 28-12 28-13 35-12 37-10 38-6 29-4 29-2 23v51l4 37 6 30 9 31 10 27 11 25 13 25 12 19 10 15 14 19 13 15 11 12 17 17 1 4-5-1-29-12-28-11-28-13-26-13-16-9-23-14-27-18-16-12-14-11-10-9-11-9-17-16-9-9-7-8-13-15-13-17-10-15-12-20-8-16-9-20-10-30-6-24-5-26v-73l10-48 7-25 7-21 13-30 12-23 8-13 14-21 11-14 9-11 9-10 7-8 14-15 33-33 8-7 45-45 7-8 10-11 9-11 13-16 16-24 10-17 8-16 9-19 12-29 13-36 13-43 10-40 8-38 7-43 7-63 1-13 1-30z" fill="#E81F27"/>
<path transform="translate(703,709)" d="m0 0h2l1 8 2 36 5 48 7 47 7 36 10 39 9 29 9 24 15 33 12 21 12 17 11 14 9 10 9 11 20 20 8 7 17 16 12 11 8 7 13 12 7 7 2 1v2l3 1 7 8 9 9 9 11 10 13 10 15 12 21 9 19 10 27 6 21 5 23v63l-8 29-10 25-11 21-14 20-9 11-12 13-7 7-8 7-14 12-18 13-15 10-18 11-18 10-15 8-29 13-26 10-36 12-11 3 4-4 11-9 13-12 8-8 9-11 11-13 13-19 11-19 11-23 9-27 5-21 3-17 2-23v-24l-2-22-5-31-8-32-8-24-8-20-11-24-13-25-12-20-16-24-12-17-14-19-13-19-9-15-12-23-9-21-8-25-6-28-3-22-2-29v-31l2-35 5-42 8-45 9-38 10-35 8-24z" fill="#E81F27"/>
<path transform="translate(429,2)" d="m0 0 2 2 1 35 4 32 6 31 7 26 9 27 13 32 14 29 8 16 16 30 10 17 28 52 15 29 15 32 16 39 10 28 10 32 9 36 5 26 5 37 2 24 1 20v31l-3 38-4 27-6 27-9 30-10 24-8 16-10 19-12 19-14 19-11 13-11 12-13 13-22 18-13 10-5 3h-2l1-5 7-16 9-27 8-32 5-26 4-35 1-20v-36l-2-33-4-31-6-32-8-31-11-33-13-32-16-35-16-34-15-33-12-28-9-24-9-29-8-32-5-27-5-40-2-34v-42l3-32 5-34 6-29 10-36 13-38 9-21z" fill="#02519E"/>
<path transform="translate(661,755)" d="m0 0 1 3-11 24-9 24-8 29-5 24-3 20-2 25v29l3 31 6 31 10 35 11 29 12 26 11 22 13 22 15 24 14 18 8 12v3l-9-8-10-8-19-14-20-13-21-12-25-13-27-11-26-8-25-5-18-2h-35l-27 3-29 6-30 10-20 9-15 8-18 11-15 11-16 13-15 14-10 10-9 11-7 8-12 17-7 11h-1v-12l4-33 6-28 8-26 10-25 15-30 15-24 13-18 12-16 11-14 9-11 11-14 11-13 14-19 12-17 14-22 14-27 8-19 9-25 6-20 2-1v33l-2 63-3 36-5 35-6 25-4 10 10-7 13-11 10-8 14-12 20-18 21-21 9-11 7-8 13-18 10-15 9-15 28-48 16-25 11-16 11-15 10-14z" fill="#03519E"/>
<path transform="translate(649,1696)" d="m0 0h3l4 11 19 56 13 37 15 44 5 12 5 5 16 5 16-4 3-1 2-7 1-10v-95l-1-30-4-4-12-3-3-3 1-4 2-2 28-2h52l18 2 15 5 10 7 7 7 7 14 1 4v19l-4 9-6 8-8 7-10 6-1 2 16 32 11 18 9 12 7 7 10 5 7 2 16-6 3-3 2-7v-132l-5-5-16-6-2-3v-3l3-1h79l3 1-1 5-6 3-12 4h-2l-1 5-1 56v69l1 13 1 4 11 3 8 3 1 1v5l-3 1h-79l-6 1h-19l-13-1-10-3-9-6-10-10-9-14-8-16-11-23-3-2-15-1-2 1v42l1 13 2 5 16 6 3 4-1 3-11 1h-145l-3-3 2-4 7-3 7-2v-7l-7-26-5-12v-2h-47l-4 16-8 26 1 4 5 2 9 2 3 3v5l-18 1h-111l-1-4 5-5 7-4-2-6-14-22-16-24-8-11-5-5-9-2-1 17v37l1 11 3 5 15 5 3 3v4l-4 1h-67l-11-1v-5l4-3 13-3 2-1 1-4 1-20v-108l-1-15-17-4-3-2-1-5 1-2h81l2 3-5 5-16 6-1 1-1 12v53l9-3 9-7 9-9 8-10 14-18 11-15 1-5-11-8-1-3 2-2h68l1 1v5l-2 2-18 4-9 4-12 9-25 25-9 11-3 6 15 24 23 34 11 16 10 13 6 5 6 2h13l5-3 8-16 9-25 13-34 14-39 8-21 3-10 8-6 8-5zm145 16-6 2-1 10v50l1 11 6 2h12l10-2 9-6 6-12 2-10v-11l-3-12-5-10-8-7-9-4zm-164 34-9 25-9 27 1 3h36l-4-17-11-33-3-5z" fill="#040103"/>
<path transform="translate(504,1220)" d="m0 0 14 3 28 7 39 12 26 9 4 8 9 40 10 35 3 11-7 6-16 10-19 14-13 10-18 14-6 4-1 3-29-9-72-21-3-6-8-32-12-38-6-20 5-5 15-11 36-28 13-10z" fill="#FDFDFD"/>
<path transform="translate(642,1355)" d="m0 0 6 1 37 17 21 8 18 7 4 5 5 14 4 19 1 9v31l-3 19-4 11-8 10-11 12-15 13-17 11-18 10h-9l-21-7-24-11-20-10-15-9-3-4v-42l-4-38-3-15 3-5 12-10 38-28 21-14z" fill="#FDFDFD"/>
<path transform="translate(339,1268)" d="m0 0h11l49 9 14 3 4 6 14 44 13 46-1 5-12 17-21 28-14 18-5 9h-8l-56-10-17-4-3-4-26-78-1-4v-7l9-19 7-11 12-16 9-11 16-15z" fill="#FDFDFD"/>
<path transform="translate(562,1521)" d="m0 0 7 1 18 10 12 7 28 13 25 10 1 1v8l-9 29-8 16-6 5-15 6-28 7-40 6-10 1h-13l-10-4-16-9-23-12-16-8-3-2 1-15 3-16 2-23 5-2 25-5 30-8 15-5 19-8z" fill="#E81F27"/>
<path transform="translate(18,1701)" d="m0 0h75l1 5-8 5-9 4h-2l-1 62 75-1v-56l-2-5-13-5-6-3-1-5 1-1h79l2 4-4 4-15 6-1 3-1 27v78l1 35 2 3 16 5 2 2v5l-2 1h-72l-6-2v-3l3-3 15-5 1-3 1-12v-54l-75-1 1 64 2 5 10 4 9 3 2 2v4l-14 1h-66l-4-2 1-4 10-4 8-3 2-7 1-58v-74l-2-7-9-4-9-3-1-6z" fill="#050103"/>
<path transform="translate(308,1450)" d="m0 0 19 4 37 7 20 4 5 2 13 19 9 12 11 13 9 11 11 11 7 8 5 7v11l-4 27-4 15-14-1-24-3-27-6-14-4-13-10-14-12-13-13-9-11-11-13-10-15-6-10 6-21z" fill="#FDFDFD"/>
<path transform="translate(21,1926)" d="m0 0h54v5l-12 5-1 13v57l3 16 5 8 9 5 9 2h9l10-4 3-3h2l2-4 4-10 2-16v-45l-1-13-2-5-9-4-6-3v-3l1-1h89l7 10 12 16 11 13 9 10 9 11 13 15 2 2-1-60-2-6-6-3-9-3-2-3 2-2h108l-1 5-3 2-9 2-1 12v87l12 6 2 2v5l-4-1-13-1h-39l1-4 13-7v-94l-5-6-8-3h-9l-10 5-3 9-1 23-1 79-1 1h-8l-12-15-11-14-20-25-12-14-10-13-11-14h-1v68l1 10 8 5 8 6 3 4v2l-10-1-8-2-11-1-18 4 1-6 6-5 6-4 1-6v-89l-3-3-12-4h-5l-11 5-3 9-1 52-2 18-5 12-6 9-8 6-11 6h-33l-15-8-6-5-6-9-3-9-2-17-1-63-4-3-7-2-3-5z" fill="#070205"/>
<path transform="translate(520,1134)" d="m0 0 18 1 26 4 25 6 27 9 20 9 21 11 8 7 6 17 6 21-1 5-6 3-36 12-14 5h-8l-51-17-34-9-16-4-6-4-11-20-13-22-3-5 1-4 9-8 17-10 11-6z" fill="#E81F27"/>
<path transform="translate(349,1700)" d="m0 0 7 1 1 6 1 18v18l-1 2-5-2-5-8-6-10-4-5-8-4-10-2h-33l-1 3v58l13 1h19l9-2 3-13 4-6 4-1 2 1 1 41v17h-7l-3-4-5-14-3-2-10-1h-27v37l1 17 3 9 6 4 13 2h16l14-2 8-5 8-9 9-14 2-2 5 1 1 2-1 12-4 17-4 12-2 1h-138l-2-1 1-7 6-2 12-2 6-3 1-3v-134l-2-7-15-5-3-4 1-5h76z" fill="#050103"/>
<path transform="translate(768,1311)" d="m0 0 6 1 4 5 5 13 4 17 3 15 2 18 1 17v21l-2 19-6 28-10 30-4 8-9-2-20-8-1-2 1-12 3-16v-28l-4-24-6-24v-6l8-11 8-17 8-22 4-15 2-4z" fill="#E81F27"/>
<path transform="translate(611,1926)" d="m0 0h35l15 2 14 4 11 6 9 8 7 10 5 12 2 10v13l-4 17-7 12-7 8-11 8-11 5-16 4h-59l-15 1v-6l5-3 9-1v-95l-1-4-10-4-1-5 3-1zm12 8-3 3-1 11v73l2 9 5 5 7 2h14l10-3 8-6 7-8 5-13 2-8 1-15-2-17-6-14-9-10-12-6-12-3z" fill="#050104"/>
<path transform="translate(474,1926)" d="m0 0h88l2 23-1 5h-4l-10-15-7-3-7-1h-20l-1 1-1 42h27l3-9 5-8 3 1v39l-3 3-5-5-4-10-26-1 1 37 1 8 11 2h23l6-3 8-10 6-8 3 1v9l-4 19-5 5-1-2h-15l-29-2v2h-25-1l-1 2h-5v-2l-8 2h-2v-2l-7-1-1-5 1-1 16-3 1-1v-97l-3-3-9-3zm7 118v1h9v-1z" fill="#060204"/>
<path transform="translate(923,1924)" d="m0 0h31l18 3 2 2 1 29-2 2-5-6-7-10-7-7-10-4h-18l-9 4-8 6-7 9-5 13-2 10v22l4 15 6 10 7 8 14 7 3 1h17l9-4 8-6 7-10 6-9h2l1 9-3 16-4 6-12 6-6 2h-36l-16-6-13-7-11-10-7-11-4-11-2-13 1-14 3-12 7-13 8-10 11-8 12-6z" fill="#060204"/>
<path transform="translate(768,1926)" d="m0 0h86l1 1v15l-1 11-4 3-3-5-4-10-5-4-10-2h-21l-1 3v41h27l5-9 5-7 3-1-1 43h-3l-4-5-5-8-1-1-8-1h-18v45l11 3 5 5v4l-5 1-1-2-3-1-29-1-20 1v-4l7-4 8-2v-96l-1-3-9-3-2-2z" fill="#080205"/>
<path transform="translate(461,1923)" d="m0 0 5 1-3 30h-4l-4-4-5-10-5-4-3-1h-19v101l11 2 4 2 1 7-8-2h-52v-5l16-3v-103l-19 1-7 3-4 5-7 11-4 1-1-1 1-11 2-18h100z" fill="#030204"/>
<path transform="translate(346,1191)" d="m0 0h6v7l-9 27-7 26-4 10-6 7-8 7-9 9-7 8-9 10-10 15-12 22-4 4-7-1-2-1v-7l12-36 11-27 11-21 8-12 10-14 26-26 8-6z" fill="#E81F27"/>
<path transform="translate(678,1191)" d="m0 0 4 1 13 9 14 12 15 15 7 8 12 15 14 21 12 23 3 6v3l-6-1-6-7-8-12-12-14-17-17-11-9-13-10-10-7-3-5-8-27z" fill="#FDFDFD"/>
<path transform="translate(492,1135)" d="m0 0h6l-5 5-14 10-8 4-38 3-25 6-21 8-25 12-3-1 11-8 24-13 24-10 26-8 20-4 24-3z" fill="#FDFDFD"/>
<path transform="translate(492,2043)" d="m0 0h45v1h-19v2h-25z" fill="#E81F27"/>
<path transform="translate(769,2045)" d="m0 0h29l-2 1v2h-8v-2h-2v2h-4-3v-2h-2l-1 2v-2h-2v2h-5z" fill="#E81F27"/>
<path transform="translate(537,2044)" d="m0 0h29l-1 3-3 1v-2h-15l-10-1z" fill="#E31F29"/>
<path transform="translate(469,2044)" d="m0 0h22l1 2-1 2h-5v-2l-8 2h-2v-2l-7-1z" fill="#E32029"/>
<path transform="translate(619,2046)" d="m0 0h19v2h-39v-1z" fill="#AF2B44"/>
<path transform="translate(769,2045)" d="m0 0h13v3h-3v-2h-2l-1 2v-2h-2v2h-5z" fill="#D12332"/>
<path transform="translate(799,2045)" d="m0 0 6 1-1 2h-7z" fill="#E81F27"/>
<path transform="translate(578,2046)" d="m0 0 12 1v1h-12z" fill="#A12E4B"/>
<path transform="translate(518,2046)" d="m0 0 10 1v1h-10z" fill="#E81F27"/>
<path transform="translate(315,2046)" d="m0 0 8 1v1h-9z" fill="#E81F27"/>
<path transform="translate(380,2047)" d="m0 0h8v1h-8z" fill="#E81F27"/>
<path transform="translate(175,2045)" d="m0 0 3 1-1 2-3-1z" fill="#571522"/>
<path transform="translate(307,2046)" d="m0 0 6 1v1h-6z" fill="#E81F27"/>
<path transform="translate(392,2047)" d="m0 0h6v1h-6z" fill="#E81F27"/>
<path transform="translate(172,2045)" d="m0 0 2 1-1 2h-2z" fill="#4E4076"/>
<path transform="translate(808,2046)" d="m0 0h5v1h-5z" fill="#E81F27"/>
<path transform="translate(400,2047)" d="m0 0 4 1z" fill="#E81F27"/>
<path transform="translate(765,2046)" d="m0 0 3 1-3 1z" fill="#E81F27"/>
<path transform="translate(640,2047)" d="m0 0 3 1z" fill="#E81F27"/>
<path transform="translate(412,2047)" d="m0 0 3 1z" fill="#E81F27"/>
<path transform="translate(593,2047)" d="m0 0 2 1z" fill="#E81F27"/>
<path transform="translate(470,2047)" d="m0 0 2 1z" fill="#E81F27"/>
<path transform="translate(430,2047)" d="m0 0 2 1z" fill="#E81F27"/>
<path transform="translate(389,2047)" d="m0 0 2 1z" fill="#E81F27"/>
<path transform="translate(289,2047)" d="m0 0 2 1z" fill="#E81F27"/>
<path transform="translate(179,2046)" d="m0 0 2 1z" fill="#E81F27"/>
<path transform="translate(806,2045)" d="m0 0 2 1z" fill="#E81F27"/>
<path transform="translate(813,2047)" d="m0 0" fill="#E81F27"/>
<path transform="translate(597,2047)" d="m0 0" fill="#E81F27"/>
<path transform="translate(435,2047)" d="m0 0" fill="#E81F27"/>
<path transform="translate(326,2047)" d="m0 0" fill="#E81F27"/>
<path transform="translate(181,2047)" d="m0 0" fill="#E81F27"/>
<path transform="translate(299,2046)" d="m0 0" fill="#E81F27"/>
<path transform="translate(730,1188)" d="m0 0" fill="#FDFDFD"/>
<path transform="translate(729,1187)" d="m0 0" fill="#FDFDFD"/>
<path transform="translate(728,1186)" d="m0 0" fill="#FDFDFD"/>
<path transform="translate(662,754)" d="m0 0" fill="#02519E"/>
</svg>
