<?xml version="1.0" encoding="utf-8"?>
<!-- Generator: Adobe Illustrator 25.0.1, SVG Export Plug-In . SVG Version: 6.00 Build 0)  -->
<svg version="1.0" id="katman_1" xmlns="http://www.w3.org/2000/svg" xmlns:xlink="http://www.w3.org/1999/xlink" x="0px" y="0px"
	 viewBox="90 25 250 250" style="enable-background:new 0 0 424.8 300.5;" xml:space="preserve">
<style type="text/css">
	.st0{fill:#5D2881;}
	.st1{fill:#FFFFFF;}
	.st2{fill:#C5C7C8;}
	.st3{fill:#F68B1F;}
</style>
<path class="st0" d="M306.8,176.6l-28.8-7.7c4.9-9.5,8.2-19.3,9.2-29l19.6-5.2l-19.4,1c0.3-12.7-0.1-24.4-1.3-35.9l7.8-5l-8,3.1
	c-1.9-17.8-5.6-35.2-11.2-55.3l-0.3-1.2l-1.2-0.5c-24.6-10.3-47.6-15.3-70.4-15.3s-45.9,5-70.5,15.3l-1.3,0.5l-0.3,1.3
	c-9.3,33.8-13.3,60.6-12.5,94.8c2.3,39.7,44.2,81.5,83.4,98.8l1.2,0.5l1.2-0.5c1.6-0.7,3.3-1.5,4.9-2.3l26.6,41.1l-17.6-45.8
	c4.8-2.8,9.6-5.8,14.2-9.2l37.3,30.3l-29.5-36.3c5-4,9.8-8.4,14.3-13l39.8,15.4l-33.8-21.8c5.5-6.3,10.5-12.9,14.6-19.8L306.8,176.6
	z"/>
<path class="st1" d="M269.9,44.3c-46.9-17.9-87.6-17.8-134.5,0c-3.7,14.8-7.1,33.6-9.1,48.7c51.9,0,102-0.1,152.9-0.1
	C277.2,77.9,273.7,59.2,269.9,44.3z M132.4,68.6c48.5-9.9,92.1-10.2,140.6,0c1.9,9.3,2.7,13.8,4,23c-49.4,0-98.4,0.1-148.3,0.1
	C129.8,82.5,130.5,78,132.4,68.6z"/>
<path class="st2" d="M124.4,138.2c-0.6-17.1-0.4-25.3,1.6-42.3c51.8,0,102-0.1,153.7-0.1c2.1,17,2.2,25.2,1.7,42.3
	c-2.1,37.2-40.5,76-78.6,92.7C165.1,213.9,126.4,175.1,124.4,138.2 M272.7,67.1c-1.5-7-2.3-14.6-4.2-22c-46-16.5-85.7-16.5-131.6,0
	c-1.9,7.4-2.7,15-4.1,22C181.1,56.7,224.3,56.4,272.7,67.1"/>
<path class="st3" d="M225.1,138.7l55.2-35.7c-0.1-1.1-0.2-2.2-0.4-3.3l-62.5,24.1l22.7-27.9c-4.9,0-9.9,0-14.8,0l-19.8,16.1
	l6.2-16.1c-5.2,0-10.4,0-15.7,0l-5.4,8.4l0.5-8.4c-5.2,0-10.3,0-15.5,0l-1.5,5.8l-1.5-5.8c-5.1,0-10.3,0-15.5,0l0.5,8.4l-5.4-8.4
	c-5.2,0-10.4,0-15.7,0l6.2,16l-17-13.8c-0.8,6.8-1.2,12.2-1.5,17.5l6.6,8.1l-6.8-2.6c-0.1,5,0,10.4,0.3,17.1
	c1.5,27.1,22.7,55.1,48.7,74.8c0.9,0.7,1.9,1.4,2.8,2.1c5.2,3.8,10.5,7.2,15.9,10.2l-1-19.1l15,23.2c3.3-1.6,6.6-3.3,9.9-5.1
	l-9.9-25.7l22.1,18c3-2.1,5.9-4.2,8.7-6.5l-18.9-23.3l31.5,12.1c2.4-2.3,4.6-4.8,6.8-7.2l-30.7-19.9l43.7,2.4
	c1.4-2.3,2.7-4.6,3.9-6.9l-45-12l53.3-14.2c0.1-1,0.2-2,0.3-3c0-0.8,0-1.6,0-2.4L225.1,138.7z"/>
<path class="st1" d="M174.6,206.8c-28.3,0-51.2-23-51.2-51.3s23-51.3,51.2-51.3c28.3,0,51.3,23,51.3,51.3S202.9,206.8,174.6,206.8"
	/>
<path class="st0" d="M174.6,204.6c-27.1,0-49.1-22-49.1-49.1c0-27.1,22-49.1,49.1-49.1c27.1,0,49.1,22,49.1,49.1
	C223.7,182.6,201.7,204.6,174.6,204.6"/>
<path class="st2" d="M174.6,108.7c25.9,0,46.9,21,46.9,46.9s-21,46.9-46.9,46.9c-25.9,0-46.9-21-46.9-46.9S148.7,108.7,174.6,108.7"
	/>
<path class="st0" d="M180.2,141l10.4,16.8l-12.7,15.1l-18.3-7.4l1.4-19.7L180.2,141z M177.8,110.9c-3.1,1-5.8,3.1-5.8,3.1
	s4.1,3.1,7.1,6.5c3,3.4,6.3,7.6,6.3,7.6s5.6-1.3,10.2-1.5c4.6-0.2,8.8,0,8.8,0s-1.6-4.4-2.4-6.3c-0.5-1-1.2-2.3-1.5-2.8
	c-5.7-3.9-12.2-6.6-19.3-7.6C180.2,110.2,179.2,110.5,177.8,110.9 M132.3,138.7c0.1,2.3,1.6,9.9,1.6,9.9s3.6-3.4,7.2-5.5
	c3.7-2.2,4.2-2.2,8.5-4.6c0,0,0.7-5.1,1.7-9.4c1-4.3,2.8-9.6,2.8-9.6l-9.5,1.4c-5.4,4.7-9.7,10.7-12.4,17.5L132.3,138.7z M145,188.2
	c2.4,0.7,7,0.9,7,0.9s-0.7-3.8-1.2-7.5c-0.5-3.7-0.6-10.7-0.6-10.7s-3.8-1.6-7.4-4.1c-3.7-2.5-8.8-7-8.8-7l-2.5,9.9
	c2.2,6.5,5.4,12.2,10.2,17C142.3,187,143.8,187.9,145,188.2 M175.6,200.5c6.5-0.1,12.7-1.6,18.2-4.1c0,0,1.1-1.5,3-4.1
	c1.9-2.6,3-5.4,3-5.4s-5.2-0.6-9.6-1.6s-9.2-2.6-9.2-2.6s-4,4.5-7.6,7.4c-3.6,2.9-7.1,5.1-7.1,5.1s4.5,3.1,6.4,4
	C174.5,200,175.6,200.5,175.6,200.5 M218.8,148.7c-1.2-2-5.2-5.6-5.2-5.6s-1.9,3.4-3.9,6.5c-2,3.1-6.4,8.6-6.4,8.6s1.9,3.6,3.1,7.9
	c1.2,4.2,2.4,11,2.4,11l8.6-6.2c1.8-4.9,2.8-10.2,2.8-15.8c0-1.5,0-2.8-0.2-4.3C220,150.7,220.1,150.7,218.8,148.7"/>
<path class="st1" d="M142.6,78.6c0.5-4.5,5-9.3,10.5-10.1c5.2-0.8,7.8-1.1,13-1.7c-0.1,1.4-0.1,2.1-0.2,3.5
	c-4.7,0.5-7.1,0.7-11.8,1.3c-3.3,0.4-5.4,3.6-5.7,6.3c-0.3,2.7,1.1,5.7,4.6,5.5c2.9-0.2,4.4-0.3,7.3-0.4c0.1-1.9,0.2-2.8,0.3-4.7
	c-2.9,0.2-4.4,0.3-7.4,0.6c0.1-1.2,0.1-1.8,0.3-3c5-0.5,7.5-0.8,12.5-1.1c-0.3,4.5-0.4,6.7-0.6,11.2c-5.8,0.2-8.6,0.3-14.5,0.6
	C145.2,86.9,142.1,82.9,142.6,78.6 M174,78.7c0.2-4.9,0.3-7.4,0.5-12.3c-2.1,0.2-3.2,0.3-5.4,0.5c-0.3,4.9-0.4,7.4-0.7,12.2
	c-0.1,1.4,0,2.2,0.6,3.3c1.4,3,5.2,3.6,9.1,3.5c3.1-0.1,4.7-0.1,7.8-0.2c0-1.3,0-2,0.1-3.3c-2.8,0.1-4.1,0.1-6.9,0.2
	c-1.8,0.1-3.3-0.1-4.3-1.3C174.2,80.6,174,79.9,174,78.7 M200.7,86c6.2,0,11.9-2.2,11.6-10.8c-0.3-6.5-2.7-11.1-11.8-10.9
	c-8.2,0.1-11.7,4.8-11.8,10.8C188.7,83,193,86,200.7,86 M200.4,67.9c4.6-0.1,6.5,3.3,6.5,7c0.1,3.7-0.9,7.3-6,7.3
	c-6.1,0-6.8-3.7-6.8-7.3C194.1,71.7,195.8,68,200.4,67.9 M230.6,66c-6.1-0.5-9.2-0.7-15.3-1c0.3,8.2,0.4,12.3,0.6,20.5
	c2.1,0,3.1,0,5.2,0.1c-0.1-3.2-0.2-4.7-0.3-7.9c2.3,0.1,3.5,0.1,5.8,0.2c2.4,3.2,3.5,4.7,5.9,7.8c2.4,0.1,3.6,0.1,6,0.2
	c-2.6-3.2-3.9-4.8-6.4-8.1c2.9-0.3,5-2.4,4.9-5.1C237,69.4,234,66.3,230.6,66 M220.4,68.7c2.5,0.1,3.8,0.2,6.3,0.4
	c2.4,0.2,4.1,1.3,4.2,3.1c0.1,1.9-2.2,2.7-3.8,2.6c-2.6-0.1-3.9-0.2-6.5-0.3C220.6,72.1,220.5,71,220.4,68.7 M238.5,66.8
	c4,4.8,6,7.2,10.1,11.8c0.3,3.1,0.4,4.7,0.7,7.8c2,0.1,3.1,0.1,5.1,0.2c-0.3-3-0.4-4.6-0.7-7.6c3.4-3.8,5-5.7,8.1-9
	c-2.5-0.4-3.7-0.6-6.2-1c-1.9,2.5-2.8,3.8-4.8,6.5c-2.5-3.1-3.8-4.8-6.2-8C242.1,67.2,240.9,67,238.5,66.8 M220.6,150.8
	c0.1-0.2-0.2-0.6-1.3-2.4c-1.2-1.9-4.6-5-5.2-5.6c-2-6.5-5.1-12-9.3-16.4c-0.2-0.7-1.6-4.5-2.4-6.2c-0.5-1-1.2-2.3-1.5-2.8l-0.1-0.1
	l-0.2-0.1c-5.9-4.1-12.5-6.7-19.6-7.7l-0.1,0l-0.1,0l-0.9,0.3c-0.7,0.2-1.5,0.5-2.4,0.8c-2.8,0.9-5.2,2.6-5.8,3
	c-6.4,0.4-12.1,2.1-17.8,5.4l-9.4,1.3l-0.2,0l-0.1,0.1c-5.5,4.8-9.9,11-12.5,17.8l-0.1,0.1l0,0.1l0,0.2l0,0.1c0.1,2.3,1.4,9,1.6,9.9
	c-0.3,2.1-0.3,4.2-0.3,6.3c0,1.6,0.2,3.3,0.4,4.8l0,0.2l-2.5,9.7l-0.1,0.2l0.1,0.2c2.4,7,5.8,12.6,10.3,17.2l0.1,0.1l0.1,0.1
	l0.7,0.3c0.8,0.4,1.8,0.9,2.7,1.1c2.4,0.7,7,0.9,7.2,0.9h0c4.1,2.6,8.6,4.5,13.3,5.6l0.5,0.3c0.2,0.1,4.6,3.2,6.5,4.1
	c1.9,0.9,3,1.4,3,1.4l0.1,0.1h0.1c6.5-0.1,12.7-1.6,18.5-4.2l0.1-0.1l0.1-0.1c0,0,1.2-1.5,3-4.1c1.7-2.4,2.8-4.8,3-5.4
	c3.7-2.9,6.7-6.2,9.1-9.9l8.4-6.1l0.1-0.1l0.1-0.2c1.9-5,2.8-10.4,2.8-16C220.8,153.5,220.8,152.2,220.6,150.8 M212.9,143
	c-0.5,0.8-2.1,3.6-3.7,6.2c-1.8,2.7-5.4,7.3-6.2,8.4c-0.7,0-2.8,0.1-6.4,0c-3.5-0.1-5.1-0.2-5.6-0.3l-10-16.1h0c0,0,0.9-3.1,2.4-6.9
	c1.2-3.1,2.1-5,2.4-5.7c1.2-0.3,5.9-1.3,9.8-1.4c3.9-0.2,7.5,0,8.5,0C208,131.5,211,136.8,212.9,143 M161.6,146.2l18.3-4.5l9.9,16
	l-12.2,14.4l-17.5-7.1L161.6,146.2z M159,165.1l-8.7,5.2c-0.9-0.4-4-1.9-7-3.9c-3.2-2.2-7.7-6-8.6-6.8l0-0.1
	c-0.2-1.5-0.4-3.1-0.4-4.7c0-2,0-4,0.3-6c0.7-0.7,3.9-3.5,7-5.3c2-1.2,3.1-1.7,4.3-2.4c1-0.5,2.1-1.1,3.9-2.1l1.2,0.9
	c0.7,0.5,1.5,1,2.3,1.6c2.4,1.7,6.1,3.9,7.2,4.6L159,165.1z M178,111.5c0.9-0.3,1.7-0.5,2.3-0.8l0.7-0.2c6.8,1,13.1,3.4,18.8,7.4
	c0.4,0.6,1,1.8,1.4,2.7c0.6,1.3,1.6,4,2.1,5.4c-1.5-0.1-4.6-0.1-7.9,0c-4,0.2-8.6,1.1-9.9,1.4c-0.8-1-3.6-4.4-6-7.3
	c-2.3-2.6-5.2-5.1-6.5-6.1C174,113.4,175.9,112.2,178,111.5 M154.7,119.8c5.5-3.2,11-4.9,17.2-5.2c0.8,0.6,4.2,3.4,6.8,6.3
	c2.5,2.8,5.2,6.3,6,7.3c-0.3,0.7-1.2,2.7-2.3,5.7c-1.2,3.1-2,5.7-2.3,6.6l-18.9,4.6c-0.9-0.5-4.8-2.8-7.2-4.5
	c-0.8-0.6-1.6-1.1-2.3-1.6l-1.3-0.9c0.2-1.3,0.8-5.4,1.6-9C152.9,125.4,154.4,120.9,154.7,119.8 M132.9,138.7l0-0.2l0,0
	c2.6-6.5,6.8-12.4,12-17l8.4-1.2c-0.5,1.7-1.7,5.5-2.5,8.7c-0.9,3.7-1.5,8.1-1.7,9.2c-1.8,1-2.9,1.6-3.9,2.1
	c-1.3,0.7-2.3,1.2-4.4,2.4c-2.7,1.6-5.3,3.8-6.6,4.9C133.9,145.3,133,140.4,132.9,138.7 M145.2,187.6c-0.8-0.2-1.8-0.7-2.5-1
	l-0.7-0.3c-4.3-4.4-7.6-9.9-9.9-16.5l2.2-8.7c1.6,1.3,5.3,4.5,8.2,6.4c3.1,2.1,6.2,3.5,7.2,4c0,1.5,0.2,7.2,0.6,10.4
	c0.3,2.7,0.8,5.5,1,6.8C150,188.4,146.9,188.1,145.2,187.6 M152.6,188.7c-0.2-1-0.7-4.1-1.1-7.1c-0.4-3.1-0.6-8.9-0.6-10.3l8.7-5.2
	l17.7,7.2c0.1,0.6,0.5,2.1,1.1,3.8c0,0,1.5,4.2,1.9,5.4c-0.9,1-4.3,4.6-7.3,7.1c-2.8,2.2-5.4,4-6.6,4.7
	C161.5,193.3,156.8,191.4,152.6,188.7 M196.3,191.9c-1.6,2.2-2.6,3.6-2.9,3.9c-5.5,2.5-11.5,3.9-17.8,4c-0.3-0.1-1.3-0.6-2.9-1.3
	c-1.4-0.6-4.2-2.5-5.6-3.4c1.2-0.8,3.8-2.6,6.4-4.7c3.1-2.5,6.5-6.1,7.4-7.1c1.2,0.4,5.3,1.7,8.9,2.5c3.4,0.8,7.2,1.3,8.9,1.5
	C198.5,188.3,197.6,190.2,196.3,191.9 M199.6,186.2c-1.1-0.1-5.5-0.7-9.3-1.5c-3.7-0.9-7.8-2.2-8.9-2.5l-1.9-5.5
	c-0.6-1.6-0.9-3.1-1-3.7l12.4-14.6c0.6,0.1,2.3,0.2,5.7,0.3c3.5,0.1,5.6,0.1,6.4,0c0.5,1,1.9,4,2.9,7.4c1.1,3.8,2.2,9.8,2.3,10.8
	C205.9,180.4,203.1,183.5,199.6,186.2 M216.9,170.4l-7.7,5.6c-0.4-2-1.3-6.8-2.2-10.1c-1.1-3.6-2.5-6.6-3-7.6
	c0.9-1.2,4.4-5.6,6.2-8.4c1.5-2.3,2.9-4.7,3.5-5.9c1.1,1.1,3.7,3.5,4.6,5c0.8,1.3,1,1.7,1.1,1.8c0.1,1.4,0.2,2.7,0.2,4.2
	C219.6,160.4,218.7,165.6,216.9,170.4"/>
<path class="st0" d="M248.6,98v1.5h-3c-1.2,0-2.3,0-2.9,1.1l-0.2,1.2h6.1v1.5h-6.1v3.7h-2.2v-5.5l0.2-1.1c0.7-2.1,3-2.3,5.2-2.3
	H248.6z M253.4,107h3.9v-1.6l-3.6-0.1c-1.2,0-1.6-1.4-1.7-2.6l0-0.4c0-1.3,0.4-2.7,1.6-2.7h3.7V98h-3.5c-0.7,0-1.1,0.1-1.7,0.3
	c-1.5,0.6-2.2,2.4-2.2,4.2c0,1.9,0.8,3.8,2.4,4.3L253.4,107z M164,39.7c4.5-0.8,6.2,2.5,6,5.3c-0.2,3.4-3.6,6.6-7.2,7.2
	c-3.4,0.5-5.1,0.8-8.5,1.4c-0.3,2.6-0.4,3.9-0.6,6.5c-2,0.3-2.9,0.5-4.9,0.8c0.7-7.3,1.1-11,2-18.4C156.1,41.2,158.8,40.6,164,39.7
	 M155.2,44.5c-0.2,2.3-0.3,3.5-0.6,5.8c2.6-0.5,3.9-0.7,6.4-1.1c1.8-0.3,3.4-1.9,3.5-3.6s-1.5-2.6-3.2-2.3
	C159,43.8,157.7,44,155.2,44.5 M176,56.1c1.5,0.6,2.6,0.8,4.3,0.6c3.9-0.3,5.8-0.5,9.8-0.6c0-1.4,0-2.1,0.1-3.5
	c-3.5,0.2-5.2,0.3-8.7,0.6c-1.4,0.1-2.2-0.4-3.1-1.3c-0.8-0.8-1.1-1.7-1-2.9c5.2-0.5,7.7-0.8,12.9-1c0-1.4,0-2.1,0.1-3.5
	c-5.2,0.3-7.7,0.5-12.9,1.1c0.1-1.4,0.4-2.4,1.4-3.5c1-1.1,2-1.5,3.4-1.7c3.2-0.3,4.9-0.5,8.1-0.7c0-1.4,0.1-2.1,0.1-3.5
	c-3.5,0.2-5.2,0.4-8.7,0.7c-1.9,0.2-3.1,0.5-4.8,1.6c-3.1,1.9-4.8,5.8-5,9.3C171.6,51.6,172.9,54.9,176,56.1 M207.3,36
	c3.1,0.1,5.8,3.1,5.7,6.6c0,2.8-2,4.9-4.8,5.2c2.2,3.3,3.4,5,5.7,8.3c-2.2-0.1-3.4-0.2-5.6-0.2c-2.2-3.1-3.2-4.7-5.3-7.8
	c-2.1,0-3.2,0-5.3,0.1c0,3.1,0,4.7,0,7.8c-1.9,0-2.9,0.1-4.8,0.2c0.1-8,0.2-12,0.3-19.9C198.8,35.9,201.7,35.8,207.3,36 M197.8,39.3
	c0,2.3,0,3.4,0,5.7c2.4-0.1,3.6-0.2,6-0.1c1.4,0,3.7-0.8,3.6-2.7c0-1.9-1.5-2.9-3.8-2.9C201.2,39.1,200.1,39.2,197.8,39.3 M215,36.5
	c0,1.3,0.1,2,0.1,3.3c2.9,0.2,4.3,0.3,7.1,0.6c0.3,6.5,0.5,9.7,0.8,16.3c1.9,0.1,2.8,0.2,4.7,0.4c-0.3-6.5-0.5-9.7-0.9-16.2
	c2.9,0.3,4.3,0.5,7.2,0.9c-0.1-1.3-0.2-2-0.2-3.3C226.2,37.3,222.5,36.9,215,36.5 M236.2,38.7c0.6,7.7,0.9,11.6,1.5,19.3
	c1.9,0.2,2.9,0.3,4.8,0.6c-0.3-3.1-0.4-4.7-0.7-7.8c3.6,0.5,5.4,0.8,9,1.5c0.3,3.1,0.5,4.6,0.8,7.6c2,0.3,3,0.5,5,0.8
	c-0.8-7.4-1.3-11.1-2.2-18.5c-1.9-0.4-2.9-0.7-4.8-1.1c0.4,3.1,0.5,4.7,0.9,7.8c-3.6-0.7-5.4-1-9-1.6c-0.3-3.2-0.4-4.7-0.7-7.9
	C238.9,39.2,238,39,236.2,38.7"/>
</svg>
