<?xml version="1.0" encoding="UTF-8"?>
<svg xmlns="http://www.w3.org/2000/svg" xmlns:xlink="http://www.w3.org/1999/xlink" width="325.3pt" height="418.77pt" viewBox="0 0 325.3 418.77" version="1.1">
<defs>
<clipPath id="clip1">
  <path d="M 0 81 L 325.300781 81 L 325.300781 418.769531 L 0 418.769531 Z M 0 81 "/>
</clipPath>
</defs>
<g id="surface1">
<path style=" stroke:none;fill-rule:nonzero;fill:rgb(74.099731%,56.898499%,14.498901%);fill-opacity:1;" d="M 71.078125 45.667969 L 76.796875 63.277344 L 95.316406 63.277344 L 80.335938 74.160156 L 86.058594 91.773438 L 71.078125 80.890625 L 56.09375 91.773438 L 61.816406 74.160156 L 46.835938 63.277344 L 65.355469 63.277344 L 71.078125 45.667969 "/>
<path style=" stroke:none;fill-rule:nonzero;fill:rgb(74.099731%,56.898499%,14.498901%);fill-opacity:1;" d="M 124.917969 -0.00390625 L 119.195313 17.605469 L 100.675781 17.605469 L 115.65625 28.492188 L 109.9375 46.105469 L 124.917969 35.21875 L 139.898438 46.105469 L 134.175781 28.492188 L 149.15625 17.605469 L 130.640625 17.605469 L 124.917969 -0.00390625 "/>
<path style=" stroke:none;fill-rule:nonzero;fill:rgb(74.099731%,56.898499%,14.498901%);fill-opacity:1;" d="M 254.125 45.667969 L 248.402344 63.277344 L 229.882813 63.277344 L 244.863281 74.160156 L 239.144531 91.773438 L 254.125 80.890625 L 269.105469 91.773438 L 263.382813 74.160156 L 278.363281 63.277344 L 259.847656 63.277344 L 254.125 45.667969 "/>
<path style=" stroke:none;fill-rule:nonzero;fill:rgb(74.099731%,56.898499%,14.498901%);fill-opacity:1;" d="M 200.28125 -0.00390625 L 206.003906 17.605469 L 224.523438 17.605469 L 209.539063 28.492188 L 215.261719 46.105469 L 200.28125 35.21875 L 185.300781 46.105469 L 191.023438 28.492188 L 176.042969 17.605469 L 194.558594 17.605469 L 200.28125 -0.00390625 "/>
<g clip-path="url(#clip1)" clip-rule="nonzero">
<path style=" stroke:none;fill-rule:nonzero;fill:rgb(13.699341%,12.199402%,12.5%);fill-opacity:1;" d="M 321.429688 118.554688 L 320.921875 115.660156 L 317.980469 115.660156 C 258.769531 115.660156 220.289063 106.8125 198.433594 99.390625 C 174.800781 91.363281 165.015625 83.238281 164.917969 83.160156 L 162.660156 81.253906 L 160.386719 83.160156 C 160.289063 83.238281 150.503906 91.363281 126.871094 99.390625 C 105.015625 106.8125 66.53125 115.660156 7.324219 115.660156 L 4.382813 115.660156 L 3.875 118.554688 C 3.769531 119.171875 -6.742188 180.996094 7.3125 248.371094 C 15.601563 288.097656 30.671875 321.996094 52.105469 349.132813 C 78.957031 383.128906 115.851563 406.476563 161.765625 418.535156 L 162.652344 418.769531 L 163.539063 418.535156 C 209.453125 406.476563 246.347656 383.128906 273.199219 349.132813 C 294.632813 321.996094 309.703125 288.097656 317.988281 248.371094 C 332.046875 180.996094 321.535156 119.171875 321.429688 118.554688 "/>
</g>
<path style=" stroke:none;fill-rule:nonzero;fill:rgb(100%,100%,100%);fill-opacity:1;" d="M 26.65625 182.15625 C 15.609375 182.15625 6.65625 191.109375 6.65625 202.15625 C 6.65625 213.203125 15.609375 222.15625 26.65625 222.15625 L 298.648438 222.15625 C 309.695313 222.15625 318.648438 213.203125 318.648438 202.15625 C 318.648438 191.109375 309.695313 182.15625 298.648438 182.15625 L 26.65625 182.15625 "/>
<path style=" stroke:none;fill-rule:nonzero;fill:rgb(0%,35.299683%,56.098938%);fill-opacity:1;" d="M 22.042969 201.066406 L 20.226563 199.761719 C 19.464844 199.222656 18.914063 198.703125 18.582031 198.222656 C 18.277344 197.769531 18.125 197.300781 18.125 196.789063 C 18.125 196.246094 18.316406 195.816406 18.703125 195.472656 C 19.109375 195.113281 19.625 194.9375 20.277344 194.9375 C 21.484375 194.9375 22.652344 195.59375 23.742188 196.886719 L 24.625 197.929688 L 24.625 193.03125 L 24.445313 192.878906 C 23.199219 191.859375 21.808594 191.34375 20.316406 191.34375 C 18.742188 191.34375 17.433594 191.902344 16.429688 193 C 15.441406 194.082031 14.9375 195.503906 14.9375 197.214844 C 14.9375 198.363281 15.203125 199.394531 15.726563 200.285156 C 16.234375 201.152344 17.09375 202.039063 18.273438 202.914063 C 18.273438 202.914063 20.078125 204.203125 20.101563 204.222656 C 21.402344 205.21875 22.0625 206.265625 22.0625 207.332031 C 22.0625 207.96875 21.867188 208.476563 21.464844 208.890625 C 21.066406 209.300781 20.574219 209.5 19.964844 209.5 C 18.441406 209.5 17.121094 208.601563 15.921875 206.757813 L 15 205.347656 L 15 210.9375 L 15.164063 211.089844 C 16.597656 212.398438 18.21875 213.0625 19.980469 213.0625 C 21.546875 213.0625 22.839844 212.492188 23.824219 211.371094 C 24.792969 210.269531 25.28125 208.828125 25.28125 207.089844 C 25.28125 204.652344 24.191406 202.628906 22.042969 201.066406 "/>
<path style=" stroke:none;fill-rule:nonzero;fill:rgb(0%,35.299683%,56.098938%);fill-opacity:1;" d="M 36.753906 209.40625 C 35.054688 209.40625 33.675781 208.753906 32.539063 207.410156 C 31.394531 206.0625 30.816406 204.335938 30.816406 202.285156 C 30.816406 200.167969 31.390625 198.40625 32.53125 197.058594 C 33.664063 195.714844 35.070313 195.0625 36.828125 195.0625 C 38.496094 195.0625 39.863281 195.722656 41.011719 197.082031 C 42.167969 198.445313 42.75 200.15625 42.75 202.171875 C 42.75 204.242188 42.167969 205.988281 41.011719 207.367188 C 39.863281 208.738281 38.46875 209.40625 36.753906 209.40625 Z M 36.746094 191.3125 C 34.042969 191.3125 31.777344 192.371094 30.011719 194.460938 C 28.261719 196.519531 27.378906 199.152344 27.378906 202.28125 C 27.378906 205.335938 28.257813 207.917969 29.988281 209.953125 C 31.742188 212.015625 33.972656 213.0625 36.617188 213.0625 C 39.371094 213.0625 41.683594 212.019531 43.492188 209.960938 C 45.28125 207.921875 46.1875 205.316406 46.1875 202.226563 C 46.1875 199.132813 45.289063 196.519531 43.515625 194.457031 C 41.726563 192.371094 39.449219 191.3125 36.746094 191.3125 "/>
<path style=" stroke:none;fill-rule:nonzero;fill:rgb(0%,35.299683%,56.098938%);fill-opacity:1;" d="M 60.84375 191.59375 L 60.84375 203.574219 C 60.84375 205.105469 60.75 206.191406 60.558594 206.796875 C 60.375 207.375 60.074219 207.882813 59.664063 208.308594 C 58.871094 209.109375 57.863281 209.5 56.589844 209.5 C 55.691406 209.5 54.910156 209.300781 54.269531 208.902344 C 53.621094 208.5 53.152344 207.984375 52.832031 207.324219 C 52.507813 206.652344 52.347656 205.390625 52.347656 203.574219 L 52.347656 191.59375 L 48.96875 191.59375 L 48.96875 203.550781 C 48.96875 205.238281 49.0625 206.449219 49.25 207.261719 C 49.4375 208.058594 49.679688 208.746094 49.96875 209.308594 C 50.257813 209.871094 50.621094 210.390625 51.046875 210.847656 C 52.449219 212.316406 54.316406 213.0625 56.601563 213.0625 C 58.863281 213.0625 60.714844 212.3125 62.113281 210.835938 C 62.539063 210.390625 62.90625 209.875 63.199219 209.3125 C 63.492188 208.75 63.738281 208.046875 63.933594 207.214844 C 64.125 206.378906 64.222656 205.191406 64.222656 203.582031 L 64.222656 191.59375 L 60.84375 191.59375 "/>
<path style=" stroke:none;fill-rule:nonzero;fill:rgb(0%,35.299683%,56.098938%);fill-opacity:1;" d="M 66.328125 191.59375 L 66.328125 195.1875 C 66.328125 195.1875 71.183594 195.1875 72.015625 195.1875 C 72.015625 196.132813 72.015625 212.84375 72.015625 212.84375 L 75.390625 212.84375 C 75.390625 212.84375 75.390625 196.132813 75.390625 195.1875 C 76.222656 195.1875 81.171875 195.1875 81.171875 195.1875 L 81.171875 191.59375 L 66.328125 191.59375 "/>
<path style=" stroke:none;fill-rule:nonzero;fill:rgb(0%,35.299683%,56.098938%);fill-opacity:1;" d="M 95.3125 191.59375 C 95.3125 191.59375 95.3125 199.453125 95.3125 200.34375 C 94.46875 200.34375 87.84375 200.34375 87 200.34375 C 87 199.453125 87 191.59375 87 191.59375 L 83.625 191.59375 L 83.625 212.84375 L 87 212.84375 C 87 212.84375 87 204.921875 87 204.03125 C 87.84375 204.03125 94.46875 204.03125 95.3125 204.03125 C 95.3125 204.921875 95.3125 212.84375 95.3125 212.84375 L 98.6875 212.84375 L 98.6875 191.59375 L 95.3125 191.59375 "/>
<path style=" stroke:none;fill-rule:nonzero;fill:rgb(0%,35.299683%,56.098938%);fill-opacity:1;" d="M 123.953125 191.59375 C 123.953125 191.59375 119.433594 198.417969 118.71875 199.496094 C 118.007813 198.417969 113.492188 191.59375 113.492188 191.59375 L 110.488281 191.59375 L 110.488281 212.84375 L 113.863281 212.84375 C 113.863281 212.84375 113.863281 200.925781 113.863281 198.257813 C 115.105469 200.140625 118.238281 204.90625 118.238281 204.90625 L 119.210938 204.90625 C 119.210938 204.90625 122.316406 200.15625 123.550781 198.265625 C 123.550781 200.945313 123.550781 212.84375 123.550781 212.84375 L 126.925781 212.84375 L 126.925781 191.59375 L 123.953125 191.59375 "/>
<path style=" stroke:none;fill-rule:nonzero;fill:rgb(0%,35.299683%,56.098938%);fill-opacity:1;" d="M 134.082031 203.96875 C 134.941406 203.96875 140.863281 203.96875 140.863281 203.96875 L 140.863281 200.375 C 140.863281 200.375 134.941406 200.375 134.082031 200.375 C 134.082031 199.605469 134.082031 195.957031 134.082031 195.1875 C 134.945313 195.1875 141.113281 195.1875 141.113281 195.1875 L 141.113281 191.59375 L 130.707031 191.59375 L 130.707031 212.84375 L 141.332031 212.84375 L 141.332031 209.25 C 141.332031 209.25 134.949219 209.25 134.082031 209.25 C 134.082031 208.476563 134.082031 204.742188 134.082031 203.96875 "/>
<path style=" stroke:none;fill-rule:nonzero;fill:rgb(0%,35.299683%,56.098938%);fill-opacity:1;" d="M 147.449219 191.59375 L 144.070313 191.59375 L 144.070313 212.84375 L 154.917969 212.84375 L 154.917969 209.21875 C 154.917969 209.21875 148.316406 209.21875 147.449219 209.21875 C 147.449219 208.273438 147.449219 191.59375 147.449219 191.59375 "/>
<path style=" stroke:none;fill-rule:nonzero;fill:rgb(0%,35.299683%,56.098938%);fill-opacity:1;" d="M 160.574219 203.84375 C 161.175781 203.84375 162.289063 203.84375 162.289063 203.84375 C 163.390625 203.84375 164.1875 203.953125 164.664063 204.175781 C 165.117188 204.382813 165.453125 204.6875 165.699219 205.109375 C 165.949219 205.550781 166.074219 206.019531 166.074219 206.554688 C 166.074219 207.0625 165.953125 207.550781 165.714844 207.996094 C 165.480469 208.433594 165.179688 208.738281 164.804688 208.941406 C 164.539063 209.082031 163.90625 209.25 162.40625 209.25 C 162.40625 209.25 161.191406 209.25 160.574219 209.25 C 160.574219 208.472656 160.574219 204.621094 160.574219 203.84375 Z M 163.96875 199.535156 C 163.539063 200.011719 162.761719 200.25 161.652344 200.25 C 161.652344 200.25 161.042969 200.25 160.574219 200.25 C 160.574219 199.484375 160.574219 195.953125 160.574219 195.1875 C 161.144531 195.1875 162.113281 195.1875 162.113281 195.1875 C 163.859375 195.1875 164.636719 195.929688 164.636719 197.589844 C 164.636719 198.402344 164.417969 199.039063 163.96875 199.535156 Z M 166.109375 201.519531 C 167.410156 200.554688 168.105469 199.171875 168.105469 197.351563 C 168.105469 196.242188 167.882813 195.246094 167.441406 194.394531 C 166.992188 193.523438 166.335938 192.832031 165.488281 192.335938 C 164.648438 191.84375 163.488281 191.59375 162.042969 191.59375 L 157.199219 191.59375 L 157.199219 212.84375 L 163.308594 212.84375 C 164.65625 212.84375 165.808594 212.558594 166.730469 212.003906 C 167.648438 211.445313 168.355469 210.714844 168.832031 209.824219 C 169.304688 208.9375 169.542969 207.925781 169.542969 206.816406 C 169.542969 205.40625 169.148438 204.175781 168.367188 203.148438 C 167.785156 202.386719 166.996094 201.886719 166.109375 201.519531 "/>
<path style=" stroke:none;fill-rule:nonzero;fill:rgb(0%,35.299683%,56.098938%);fill-opacity:1;" d="M 180.753906 209.40625 C 179.054688 209.40625 177.675781 208.753906 176.535156 207.410156 C 175.390625 206.058594 174.8125 204.335938 174.8125 202.285156 C 174.8125 200.167969 175.390625 198.40625 176.53125 197.058594 C 177.664063 195.714844 179.070313 195.0625 180.824219 195.0625 C 182.492188 195.0625 183.863281 195.722656 185.011719 197.082031 C 186.164063 198.445313 186.75 200.15625 186.75 202.171875 C 186.75 204.242188 186.164063 205.988281 185.011719 207.367188 C 183.863281 208.738281 182.46875 209.40625 180.753906 209.40625 Z M 180.746094 191.3125 C 178.042969 191.3125 175.777344 192.371094 174.007813 194.460938 C 172.261719 196.519531 171.375 199.152344 171.375 202.28125 C 171.375 205.335938 172.253906 207.914063 173.988281 209.953125 C 175.738281 212.015625 177.96875 213.0625 180.613281 213.0625 C 183.371094 213.0625 185.683594 212.019531 187.488281 209.960938 C 189.28125 207.921875 190.1875 205.320313 190.1875 202.226563 C 190.1875 199.132813 189.289063 196.519531 187.515625 194.453125 C 185.722656 192.371094 183.445313 191.3125 180.746094 191.3125 "/>
<path style=" stroke:none;fill-rule:nonzero;fill:rgb(0%,35.299683%,56.098938%);fill-opacity:1;" d="M 204.84375 191.59375 L 204.84375 203.574219 C 204.84375 205.109375 204.746094 206.191406 204.554688 206.796875 C 204.371094 207.375 204.074219 207.882813 203.664063 208.308594 C 202.871094 209.109375 201.863281 209.5 200.585938 209.5 C 199.691406 209.5 198.910156 209.300781 198.269531 208.902344 C 197.621094 208.5 197.152344 207.984375 196.832031 207.324219 C 196.507813 206.652344 196.34375 205.394531 196.34375 203.574219 L 196.34375 191.59375 L 192.96875 191.59375 L 192.96875 203.550781 C 192.96875 205.234375 193.0625 206.449219 193.25 207.257813 C 193.441406 208.058594 193.679688 208.746094 193.96875 209.308594 C 194.261719 209.875 194.621094 210.394531 195.046875 210.847656 C 196.445313 212.316406 198.3125 213.0625 200.601563 213.0625 C 202.859375 213.0625 204.714844 212.3125 206.109375 210.835938 C 206.535156 210.390625 206.902344 209.878906 207.199219 209.3125 C 207.492188 208.746094 207.738281 208.042969 207.929688 207.214844 C 208.125 206.378906 208.21875 205.191406 208.21875 203.582031 L 208.21875 191.59375 L 204.84375 191.59375 "/>
<path style=" stroke:none;fill-rule:nonzero;fill:rgb(0%,35.299683%,56.098938%);fill-opacity:1;" d="M 215.171875 195.0625 C 215.257813 195.0625 215.382813 195.0625 215.382813 195.0625 C 216.738281 195.0625 217.386719 195.214844 217.6875 195.34375 C 218.089844 195.511719 218.394531 195.796875 218.621094 196.210938 C 218.863281 196.65625 218.984375 197.144531 218.984375 197.699219 C 218.984375 198.265625 218.871094 198.769531 218.65625 199.203125 C 218.449219 199.621094 218.171875 199.925781 217.8125 200.128906 C 217.558594 200.269531 216.964844 200.4375 215.570313 200.4375 C 215.570313 200.4375 215.367188 200.4375 215.171875 200.4375 C 215.171875 199.660156 215.171875 195.839844 215.171875 195.0625 Z M 223.246094 208.074219 C 222.308594 206.207031 221.601563 204.933594 221.089844 204.175781 C 220.714844 203.621094 220.320313 203.175781 219.921875 202.78125 C 220.617188 202.328125 221.21875 201.773438 221.632813 201.03125 C 222.15625 200.097656 222.421875 198.988281 222.421875 197.730469 C 222.421875 195.878906 221.875 194.375 220.800781 193.269531 C 219.71875 192.15625 218.257813 191.59375 216.457031 191.59375 L 211.796875 191.59375 L 211.796875 212.84375 L 215.171875 212.84375 C 215.171875 212.84375 215.171875 204.921875 215.171875 204.03125 C 215.207031 204.03125 215.292969 204.03125 215.292969 204.03125 C 216.167969 204.03125 216.527344 204.183594 216.664063 204.273438 C 216.949219 204.464844 217.285156 204.789063 217.652344 205.242188 C 218.042969 205.714844 218.480469 206.359375 218.957031 207.164063 L 219.722656 208.710938 L 220.464844 210.191406 L 220.941406 211.015625 C 220.941406 211.019531 221.09375 211.269531 221.09375 211.269531 L 221.949219 212.84375 L 225.96875 212.84375 L 224.617188 210.632813 L 223.246094 208.074219 "/>
<path style=" stroke:none;fill-rule:nonzero;fill:rgb(0%,35.299683%,56.098938%);fill-opacity:1;" d="M 240.8125 191.59375 C 240.8125 191.59375 240.8125 203.722656 240.8125 206.253906 C 239.277344 204.105469 230.355469 191.59375 230.355469 191.59375 L 227.6875 191.59375 L 227.6875 212.84375 L 230.90625 212.84375 C 230.90625 212.84375 230.90625 200.855469 230.90625 198.328125 C 232.433594 200.472656 241.257813 212.84375 241.257813 212.84375 L 244.0625 212.84375 L 244.0625 191.59375 L 240.8125 191.59375 "/>
<path style=" stroke:none;fill-rule:nonzero;fill:rgb(0%,35.299683%,56.098938%);fill-opacity:1;" d="M 251.183594 203.96875 C 252.042969 203.96875 257.964844 203.96875 257.964844 203.96875 L 257.964844 200.375 C 257.964844 200.375 252.042969 200.375 251.183594 200.375 C 251.183594 199.605469 251.183594 195.957031 251.183594 195.1875 C 252.046875 195.1875 258.21875 195.1875 258.21875 195.1875 L 258.21875 191.59375 L 247.8125 191.59375 L 247.8125 212.84375 L 258.4375 212.84375 L 258.4375 209.25 C 258.4375 209.25 252.050781 209.25 251.183594 209.25 C 251.183594 208.476563 251.183594 204.742188 251.183594 203.96875 "/>
<path style=" stroke:none;fill-rule:nonzero;fill:rgb(0%,35.299683%,56.098938%);fill-opacity:1;" d="M 275.433594 201.066406 L 273.617188 199.761719 C 272.855469 199.21875 272.300781 198.703125 271.976563 198.222656 C 271.664063 197.769531 271.515625 197.300781 271.515625 196.789063 C 271.515625 196.246094 271.703125 195.816406 272.09375 195.472656 C 272.5 195.113281 273.011719 194.9375 273.667969 194.9375 C 274.894531 194.9375 276.027344 195.574219 277.136719 196.886719 L 278.015625 197.929688 L 278.015625 193.03125 L 277.835938 192.878906 C 276.589844 191.859375 275.199219 191.34375 273.710938 191.34375 C 272.128906 191.34375 270.820313 191.902344 269.820313 193 C 268.832031 194.082031 268.328125 195.5 268.328125 197.214844 C 268.328125 198.359375 268.59375 199.390625 269.117188 200.285156 C 269.628906 201.152344 270.484375 202.039063 271.664063 202.914063 C 271.664063 202.914063 273.46875 204.203125 273.492188 204.222656 C 274.792969 205.21875 275.453125 206.265625 275.453125 207.332031 C 275.453125 207.96875 275.257813 208.476563 274.855469 208.890625 C 274.457031 209.300781 273.964844 209.5 273.351563 209.5 C 271.835938 209.5 270.511719 208.601563 269.3125 206.757813 L 268.390625 205.347656 L 268.390625 210.9375 L 268.554688 211.089844 C 269.988281 212.398438 271.609375 213.0625 273.371094 213.0625 C 274.9375 213.0625 276.230469 212.492188 277.214844 211.371094 C 278.183594 210.269531 278.671875 208.828125 278.671875 207.089844 C 278.671875 204.652344 277.585938 202.628906 275.433594 201.066406 "/>
<path style=" stroke:none;fill-rule:nonzero;fill:rgb(0%,35.299683%,56.098938%);fill-opacity:1;" d="M 282.832031 208.59375 C 282.277344 208.59375 281.785156 208.835938 281.417969 209.289063 C 281.070313 209.714844 280.894531 210.238281 280.894531 210.851563 C 280.894531 211.453125 281.074219 211.972656 281.425781 212.390625 C 281.792969 212.828125 282.28125 213.0625 282.832031 213.0625 C 283.382813 213.0625 283.871094 212.832031 284.246094 212.398438 C 284.613281 211.972656 284.800781 211.453125 284.800781 210.851563 C 284.800781 210.238281 284.617188 209.710938 284.25 209.28125 C 283.875 208.832031 283.382813 208.59375 282.832031 208.59375 "/>
<path style=" stroke:none;fill-rule:nonzero;fill:rgb(0%,35.299683%,56.098938%);fill-opacity:1;" d="M 296.953125 209.40625 C 295.167969 209.40625 293.742188 208.761719 292.601563 207.433594 C 291.453125 206.097656 290.871094 204.363281 290.871094 202.269531 C 290.871094 200.199219 291.464844 198.453125 292.632813 197.085938 C 293.796875 195.726563 295.214844 195.0625 296.96875 195.0625 C 298.710938 195.0625 300.527344 195.714844 302.367188 197.003906 L 303.152344 197.554688 L 303.152344 193.164063 L 302.882813 193.023438 C 300.695313 191.890625 298.664063 191.3125 296.851563 191.3125 C 294.1875 191.3125 291.917969 192.386719 290.105469 194.503906 C 288.3125 196.597656 287.402344 199.210938 287.402344 202.269531 C 287.402344 204.1875 287.800781 206.003906 288.582031 207.65625 C 289.367188 209.324219 290.453125 210.652344 291.804688 211.609375 C 293.171875 212.574219 294.855469 213.0625 296.808594 213.0625 C 299.179688 213.0625 301.300781 212.457031 303.117188 211.261719 L 303.339844 211.113281 L 303.339844 206.628906 L 302.53125 207.261719 C 300.71875 208.683594 298.84375 209.40625 296.953125 209.40625 "/>
<path style=" stroke:none;fill-rule:nonzero;fill:rgb(0%,35.299683%,56.098938%);fill-opacity:1;" d="M 309.816406 209.277344 C 309.441406 208.832031 308.949219 208.59375 308.398438 208.59375 C 307.839844 208.59375 307.351563 208.835938 306.984375 209.289063 C 306.636719 209.714844 306.460938 210.238281 306.460938 210.851563 C 306.460938 211.453125 306.640625 211.972656 306.988281 212.390625 C 307.359375 212.828125 307.84375 213.0625 308.398438 213.0625 C 308.953125 213.0625 309.429688 212.839844 309.8125 212.398438 C 310.179688 211.976563 310.363281 211.457031 310.363281 210.851563 C 310.363281 210.234375 310.179688 209.707031 309.816406 209.277344 "/>
<path style=" stroke:none;fill-rule:nonzero;fill:rgb(100%,100%,100%);fill-opacity:1;" d="M 172.070313 95.90625 C 167.613281 93.542969 164.53125 91.546875 162.652344 90.214844 C 160.773438 91.546875 157.691406 93.542969 153.238281 95.90625 C 156.304688 95.417969 159.449219 95.164063 162.652344 95.164063 C 165.855469 95.164063 169 95.417969 172.070313 95.90625 "/>
<path style=" stroke:none;fill-rule:nonzero;fill:rgb(100%,100%,100%);fill-opacity:1;" d="M 17.738281 178.277344 C 17.714844 178.289063 17.6875 178.296875 17.664063 178.308594 C 17.6875 178.296875 17.714844 178.289063 17.738281 178.277344 "/>
<path style=" stroke:none;fill-rule:nonzero;fill:rgb(100%,100%,100%);fill-opacity:1;" d="M 6.992188 173.746094 C 6.992188 177.601563 7.046875 181.609375 7.171875 185.734375 C 9.695313 182.746094 12.890625 180.351563 16.523438 178.769531 C 16.5 177.074219 16.488281 175.394531 16.488281 173.75 C 16.488281 155.886719 17.695313 141.265625 18.71875 132.046875 C 59.5 131.269531 90.640625 126.359375 113.8125 120.382813 C 117.574219 115.113281 122.167969 110.476563 127.398438 106.660156 C 103.097656 114.671875 65.496094 122.359375 10.332031 122.632813 C 9.335938 129.542969 6.992188 148.519531 6.992188 173.746094 "/>
<path style=" stroke:none;fill-rule:nonzero;fill:rgb(100%,100%,100%);fill-opacity:1;" d="M 26.65625 176.65625 C 26.1875 176.65625 25.726563 176.671875 25.261719 176.695313 C 25.726563 176.671875 26.1875 176.65625 26.65625 176.65625 "/>
<path style=" stroke:none;fill-rule:nonzero;fill:rgb(100%,100%,100%);fill-opacity:1;" d="M 23.136719 176.910156 C 22.953125 176.933594 22.765625 176.957031 22.582031 176.988281 C 22.765625 176.960938 22.953125 176.933594 23.136719 176.910156 "/>
<path style=" stroke:none;fill-rule:nonzero;fill:rgb(100%,100%,100%);fill-opacity:1;" d="M 19.003906 177.839844 C 18.949219 177.859375 18.894531 177.875 18.835938 177.894531 C 18.894531 177.875 18.949219 177.859375 19.003906 177.839844 "/>
<path style=" stroke:none;fill-rule:nonzero;fill:rgb(100%,100%,100%);fill-opacity:1;" d="M 21.695313 177.152344 C 21.5625 177.179688 21.429688 177.203125 21.296875 177.230469 C 21.429688 177.203125 21.5625 177.179688 21.695313 177.152344 "/>
<path style=" stroke:none;fill-rule:nonzero;fill:rgb(100%,100%,100%);fill-opacity:1;" d="M 20.324219 177.464844 C 20.230469 177.488281 20.140625 177.511719 20.046875 177.535156 C 20.140625 177.511719 20.230469 177.488281 20.324219 177.464844 "/>
<path style=" stroke:none;fill-rule:nonzero;fill:rgb(100%,100%,100%);fill-opacity:1;" d="M 24.675781 176.742188 C 24.417969 176.761719 24.160156 176.78125 23.90625 176.808594 C 24.160156 176.78125 24.417969 176.761719 24.675781 176.742188 "/>
<path style=" stroke:none;fill-rule:nonzero;fill:rgb(100%,100%,100%);fill-opacity:1;" d="M 307.648438 178.308594 C 307.617188 178.296875 307.589844 178.285156 307.558594 178.273438 C 307.589844 178.285156 307.617188 178.296875 307.648438 178.308594 "/>
<path style=" stroke:none;fill-rule:nonzero;fill:rgb(100%,100%,100%);fill-opacity:1;" d="M 306.472656 177.894531 C 306.410156 177.875 306.351563 177.859375 306.296875 177.839844 C 306.351563 177.859375 306.410156 177.875 306.472656 177.894531 "/>
<path style=" stroke:none;fill-rule:nonzero;fill:rgb(100%,100%,100%);fill-opacity:1;" d="M 301.398438 176.808594 C 301.144531 176.78125 300.886719 176.761719 300.625 176.742188 C 300.886719 176.761719 301.144531 176.78125 301.398438 176.808594 "/>
<path style=" stroke:none;fill-rule:nonzero;fill:rgb(100%,100%,100%);fill-opacity:1;" d="M 302.722656 176.988281 C 302.539063 176.957031 302.351563 176.933594 302.164063 176.910156 C 302.351563 176.933594 302.539063 176.957031 302.722656 176.988281 "/>
<path style=" stroke:none;fill-rule:nonzero;fill:rgb(100%,100%,100%);fill-opacity:1;" d="M 305.261719 177.535156 C 305.164063 177.511719 305.070313 177.488281 304.976563 177.464844 C 305.070313 177.488281 305.164063 177.511719 305.261719 177.535156 "/>
<path style=" stroke:none;fill-rule:nonzero;fill:rgb(100%,100%,100%);fill-opacity:1;" d="M 304.011719 177.230469 C 303.875 177.203125 303.738281 177.175781 303.601563 177.148438 C 303.738281 177.175781 303.875 177.203125 304.011719 177.230469 "/>
<path style=" stroke:none;fill-rule:nonzero;fill:rgb(100%,100%,100%);fill-opacity:1;" d="M 300.042969 176.695313 C 299.582031 176.671875 299.117188 176.65625 298.648438 176.65625 C 299.117188 176.65625 299.582031 176.671875 300.042969 176.695313 "/>
<path style=" stroke:none;fill-rule:nonzero;fill:rgb(100%,100%,100%);fill-opacity:1;" d="M 314.972656 122.632813 C 259.808594 122.359375 222.207031 114.671875 197.90625 106.660156 C 203.136719 110.476563 207.730469 115.113281 211.492188 120.382813 C 234.660156 126.355469 265.804688 131.269531 306.582031 132.046875 C 307.609375 141.265625 308.816406 155.886719 308.816406 173.75 C 308.816406 175.394531 308.800781 177.074219 308.78125 178.769531 C 308.777344 178.765625 308.777344 178.765625 308.773438 178.765625 C 312.40625 180.347656 315.609375 182.742188 318.132813 185.730469 C 318.257813 181.609375 318.3125 177.605469 318.3125 173.75 C 318.3125 148.523438 315.964844 129.542969 314.972656 122.632813 "/>
<path style=" stroke:none;fill-rule:nonzero;fill:rgb(100%,100%,100%);fill-opacity:1;" d="M 24.8125 227.582031 C 24.925781 227.589844 25.042969 227.601563 25.15625 227.609375 C 25.042969 227.601563 24.925781 227.589844 24.8125 227.582031 "/>
<path style=" stroke:none;fill-rule:nonzero;fill:rgb(100%,100%,100%);fill-opacity:1;" d="M 305.058594 226.832031 C 304.140625 233.039063 303.03125 239.347656 301.691406 245.707031 C 288.703125 307.203125 259.503906 351.949219 214.652344 379.410156 L 214.652344 227.65625 L 184.652344 227.65625 L 184.652344 394.285156 C 177.605469 397.066406 170.28125 399.535156 162.652344 401.65625 C 155.023438 399.535156 147.699219 397.066406 140.652344 394.285156 L 140.652344 227.65625 L 110.652344 227.65625 L 110.652344 379.410156 C 65.804688 351.949219 36.597656 307.203125 23.613281 245.707031 C 22.273438 239.347656 21.164063 233.039063 20.246094 226.832031 C 20.25 226.832031 20.25 226.832031 20.25 226.832031 C 16.375 225.824219 12.851563 223.925781 9.917969 221.367188 C 10.980469 229.78125 12.378906 238.410156 14.207031 247.136719 C 22.289063 285.746094 36.910156 318.632813 57.667969 344.882813 C 83.375 377.390625 118.699219 399.796875 162.652344 411.515625 C 206.605469 399.796875 241.929688 377.390625 267.636719 344.882813 C 288.394531 318.632813 303.015625 285.746094 311.097656 247.136719 C 312.925781 238.410156 314.324219 229.78125 315.386719 221.367188 C 312.453125 223.925781 308.933594 225.824219 305.058594 226.832031 "/>
<path style=" stroke:none;fill-rule:nonzero;fill:rgb(100%,100%,100%);fill-opacity:1;" d="M 301.824219 227.453125 C 301.867188 227.449219 301.910156 227.441406 301.949219 227.4375 C 301.910156 227.441406 301.867188 227.449219 301.824219 227.453125 "/>
<path style=" stroke:none;fill-rule:nonzero;fill:rgb(100%,100%,100%);fill-opacity:1;" d="M 300.148438 227.609375 C 300.261719 227.601563 300.378906 227.589844 300.492188 227.582031 C 300.378906 227.589844 300.261719 227.601563 300.148438 227.609375 "/>
<path style=" stroke:none;fill-rule:nonzero;fill:rgb(100%,100%,100%);fill-opacity:1;" d="M 23.351563 227.4375 C 23.394531 227.441406 23.441406 227.449219 23.484375 227.453125 C 23.441406 227.449219 23.394531 227.441406 23.351563 227.4375 "/>
<path style=" stroke:none;fill-rule:nonzero;fill:rgb(0%,35.299683%,56.098938%);fill-opacity:1;" d="M 23.484375 227.453125 C 23.921875 227.507813 24.367188 227.550781 24.8125 227.582031 C 24.367188 227.550781 23.921875 227.507813 23.484375 227.453125 "/>
<path style=" stroke:none;fill-rule:nonzero;fill:rgb(0%,35.299683%,56.098938%);fill-opacity:1;" d="M 25.15625 227.609375 C 25.65625 227.636719 26.152344 227.65625 26.65625 227.65625 C 26.152344 227.65625 25.652344 227.636719 25.15625 227.609375 "/>
<path style=" stroke:none;fill-rule:nonzero;fill:rgb(0%,35.299683%,56.098938%);fill-opacity:1;" d="M 20.25 226.832031 C 21.261719 227.097656 22.296875 227.300781 23.351563 227.4375 C 22.296875 227.300781 21.261719 227.097656 20.25 226.832031 "/>
<path style=" stroke:none;fill-rule:nonzero;fill:rgb(0%,35.299683%,56.098938%);fill-opacity:1;" d="M 23.613281 245.707031 C 36.597656 307.203125 65.804688 351.949219 110.652344 379.410156 L 110.652344 227.65625 L 26.65625 227.65625 C 26.152344 227.65625 25.65625 227.636719 25.15625 227.609375 C 25.042969 227.601563 24.925781 227.589844 24.8125 227.582031 C 24.367188 227.550781 23.921875 227.507813 23.484375 227.453125 C 23.441406 227.449219 23.394531 227.441406 23.351563 227.4375 C 22.296875 227.300781 21.261719 227.097656 20.25 226.832031 C 20.25 226.832031 20.25 226.832031 20.246094 226.832031 C 21.164063 233.039063 22.273438 239.347656 23.613281 245.707031 "/>
<path style=" stroke:none;fill-rule:nonzero;fill:rgb(0%,35.299683%,56.098938%);fill-opacity:1;" d="M 305.058594 226.832031 C 304.042969 227.097656 303.007813 227.300781 301.949219 227.4375 C 303.007813 227.300781 304.042969 227.097656 305.058594 226.832031 "/>
<path style=" stroke:none;fill-rule:nonzero;fill:rgb(0%,35.299683%,56.098938%);fill-opacity:1;" d="M 298.648438 227.65625 C 299.152344 227.65625 299.652344 227.636719 300.148438 227.609375 C 299.652344 227.636719 299.152344 227.65625 298.648438 227.65625 "/>
<path style=" stroke:none;fill-rule:nonzero;fill:rgb(0%,35.299683%,56.098938%);fill-opacity:1;" d="M 300.492188 227.582031 C 300.941406 227.550781 301.382813 227.507813 301.824219 227.453125 C 301.382813 227.507813 300.941406 227.550781 300.492188 227.582031 "/>
<path style=" stroke:none;fill-rule:nonzero;fill:rgb(0%,35.299683%,56.098938%);fill-opacity:1;" d="M 301.691406 245.707031 C 303.03125 239.347656 304.140625 233.039063 305.058594 226.832031 C 304.042969 227.097656 303.007813 227.300781 301.949219 227.4375 C 301.910156 227.441406 301.867188 227.449219 301.824219 227.453125 C 301.382813 227.507813 300.941406 227.550781 300.492188 227.582031 C 300.378906 227.589844 300.261719 227.601563 300.148438 227.609375 C 299.652344 227.636719 299.152344 227.65625 298.648438 227.65625 L 214.652344 227.65625 L 214.652344 379.410156 C 259.503906 351.949219 288.703125 307.203125 301.691406 245.707031 "/>
<path style=" stroke:none;fill-rule:nonzero;fill:rgb(0%,35.299683%,56.098938%);fill-opacity:1;" d="M 162.652344 401.65625 C 170.28125 399.535156 177.605469 397.066406 184.652344 394.285156 L 184.652344 227.65625 L 140.652344 227.65625 L 140.652344 394.285156 C 147.699219 397.066406 155.023438 399.535156 162.652344 401.65625 "/>
<path style=" stroke:none;fill-rule:nonzero;fill:rgb(0%,35.299683%,56.098938%);fill-opacity:1;" d="M 23.90625 176.808594 C 23.648438 176.835938 23.390625 176.875 23.136719 176.910156 C 23.390625 176.871094 23.648438 176.835938 23.90625 176.808594 "/>
<path style=" stroke:none;fill-rule:nonzero;fill:rgb(0%,35.299683%,56.098938%);fill-opacity:1;" d="M 21.296875 177.230469 C 20.96875 177.300781 20.644531 177.382813 20.324219 177.464844 C 20.644531 177.382813 20.96875 177.300781 21.296875 177.230469 "/>
<path style=" stroke:none;fill-rule:nonzero;fill:rgb(0%,35.299683%,56.098938%);fill-opacity:1;" d="M 20.046875 177.535156 C 19.695313 177.628906 19.351563 177.730469 19.003906 177.839844 C 19.347656 177.730469 19.699219 177.628906 20.046875 177.535156 "/>
<path style=" stroke:none;fill-rule:nonzero;fill:rgb(0%,35.299683%,56.098938%);fill-opacity:1;" d="M 22.582031 176.988281 C 22.285156 177.035156 21.992188 177.09375 21.695313 177.152344 C 21.992188 177.09375 22.285156 177.035156 22.582031 176.988281 "/>
<path style=" stroke:none;fill-rule:nonzero;fill:rgb(0%,35.299683%,56.098938%);fill-opacity:1;" d="M 17.664063 178.308594 C 17.277344 178.453125 16.898438 178.605469 16.523438 178.769531 C 16.898438 178.605469 17.277344 178.453125 17.664063 178.308594 "/>
<path style=" stroke:none;fill-rule:nonzero;fill:rgb(0%,35.299683%,56.098938%);fill-opacity:1;" d="M 25.261719 176.695313 C 25.066406 176.707031 24.871094 176.726563 24.675781 176.742188 C 24.871094 176.726563 25.066406 176.707031 25.261719 176.695313 "/>
<path style=" stroke:none;fill-rule:nonzero;fill:rgb(0%,35.299683%,56.098938%);fill-opacity:1;" d="M 18.835938 177.894531 C 18.46875 178.015625 18.101563 178.140625 17.738281 178.277344 C 18.101563 178.140625 18.46875 178.015625 18.835938 177.894531 "/>
<path style=" stroke:none;fill-rule:nonzero;fill:rgb(0%,35.299683%,56.098938%);fill-opacity:1;" d="M 16.488281 173.75 C 16.488281 175.394531 16.5 177.074219 16.523438 178.769531 C 16.898438 178.605469 17.277344 178.453125 17.664063 178.308594 C 17.6875 178.296875 17.714844 178.289063 17.738281 178.277344 C 18.101563 178.140625 18.46875 178.015625 18.835938 177.894531 C 18.894531 177.875 18.949219 177.859375 19.003906 177.839844 C 19.351563 177.730469 19.695313 177.628906 20.046875 177.535156 C 20.140625 177.511719 20.230469 177.488281 20.324219 177.464844 C 20.644531 177.382813 20.96875 177.300781 21.296875 177.230469 C 21.429688 177.203125 21.5625 177.179688 21.695313 177.152344 C 21.992188 177.09375 22.285156 177.035156 22.582031 176.988281 C 22.765625 176.957031 22.953125 176.933594 23.136719 176.910156 C 23.390625 176.875 23.648438 176.835938 23.90625 176.808594 C 24.160156 176.78125 24.417969 176.761719 24.675781 176.742188 C 24.871094 176.726563 25.066406 176.707031 25.261719 176.695313 C 25.726563 176.671875 26.1875 176.65625 26.65625 176.65625 L 106.65625 176.65625 C 104.082031 169.976563 102.65625 162.734375 102.65625 155.15625 C 102.65625 142.203125 106.800781 130.199219 113.8125 120.382813 C 90.640625 126.359375 59.5 131.269531 18.71875 132.046875 C 17.695313 141.265625 16.488281 155.886719 16.488281 173.75 "/>
<path style=" stroke:none;fill-rule:nonzero;fill:rgb(0%,35.299683%,56.098938%);fill-opacity:1;" d="M 308.773438 178.765625 C 308.402344 178.605469 308.027344 178.453125 307.648438 178.308594 C 308.027344 178.453125 308.402344 178.605469 308.773438 178.765625 "/>
<path style=" stroke:none;fill-rule:nonzero;fill:rgb(0%,35.299683%,56.098938%);fill-opacity:1;" d="M 303.601563 177.148438 C 303.308594 177.09375 303.019531 177.035156 302.722656 176.988281 C 303.019531 177.035156 303.308594 177.09375 303.601563 177.148438 "/>
<path style=" stroke:none;fill-rule:nonzero;fill:rgb(0%,35.299683%,56.098938%);fill-opacity:1;" d="M 302.164063 176.910156 C 301.910156 176.871094 301.65625 176.835938 301.398438 176.808594 C 301.65625 176.835938 301.910156 176.871094 302.164063 176.910156 "/>
<path style=" stroke:none;fill-rule:nonzero;fill:rgb(0%,35.299683%,56.098938%);fill-opacity:1;" d="M 300.625 176.742188 C 300.429688 176.726563 300.238281 176.707031 300.042969 176.695313 C 300.238281 176.707031 300.429688 176.726563 300.625 176.742188 "/>
<path style=" stroke:none;fill-rule:nonzero;fill:rgb(0%,35.299683%,56.098938%);fill-opacity:1;" d="M 307.558594 178.273438 C 307.199219 178.140625 306.839844 178.015625 306.472656 177.894531 C 306.839844 178.015625 307.199219 178.140625 307.558594 178.273438 "/>
<path style=" stroke:none;fill-rule:nonzero;fill:rgb(0%,35.299683%,56.098938%);fill-opacity:1;" d="M 304.976563 177.464844 C 304.65625 177.378906 304.335938 177.300781 304.011719 177.230469 C 304.335938 177.300781 304.65625 177.378906 304.976563 177.464844 "/>
<path style=" stroke:none;fill-rule:nonzero;fill:rgb(0%,35.299683%,56.098938%);fill-opacity:1;" d="M 306.296875 177.839844 C 305.953125 177.730469 305.609375 177.628906 305.261719 177.535156 C 305.609375 177.628906 305.953125 177.730469 306.296875 177.839844 "/>
<path style=" stroke:none;fill-rule:nonzero;fill:rgb(0%,35.299683%,56.098938%);fill-opacity:1;" d="M 308.816406 173.75 C 308.816406 155.886719 307.609375 141.265625 306.582031 132.046875 C 265.804688 131.269531 234.660156 126.355469 211.492188 120.382813 C 218.503906 130.199219 222.644531 142.203125 222.644531 155.15625 C 222.644531 162.734375 221.21875 169.976563 218.644531 176.65625 L 298.648438 176.65625 C 299.117188 176.65625 299.582031 176.671875 300.042969 176.695313 C 300.238281 176.707031 300.429688 176.726563 300.625 176.742188 C 300.886719 176.761719 301.144531 176.78125 301.398438 176.808594 C 301.65625 176.835938 301.910156 176.871094 302.164063 176.910156 C 302.351563 176.933594 302.539063 176.957031 302.722656 176.988281 C 303.019531 177.035156 303.308594 177.09375 303.601563 177.148438 C 303.738281 177.175781 303.875 177.203125 304.011719 177.230469 C 304.335938 177.300781 304.65625 177.378906 304.976563 177.464844 C 305.070313 177.488281 305.164063 177.511719 305.261719 177.535156 C 305.609375 177.628906 305.953125 177.730469 306.296875 177.839844 C 306.351563 177.859375 306.410156 177.875 306.472656 177.894531 C 306.839844 178.015625 307.199219 178.140625 307.558594 178.273438 C 307.589844 178.285156 307.617188 178.296875 307.648438 178.308594 C 308.027344 178.453125 308.402344 178.605469 308.773438 178.765625 C 308.777344 178.765625 308.777344 178.765625 308.78125 178.769531 C 308.800781 177.074219 308.816406 175.394531 308.816406 173.75 "/>
<path style=" stroke:none;fill-rule:nonzero;fill:rgb(100%,100%,100%);fill-opacity:1;" d="M 112.09375 143.46875 C 112.863281 139.671875 115.460938 130.496094 123.800781 119.308594 C 123.71875 116.085938 122.804688 113.242188 122.386719 112.101563 C 111.476563 122.308594 104.433594 136.597656 103.726563 152.511719 C 105.230469 151.347656 109.671875 147.699219 112.09375 143.46875 "/>
<path style=" stroke:none;fill-rule:nonzero;fill:rgb(100%,100%,100%);fill-opacity:1;" d="M 161.933594 102.628906 C 167.566406 102.503906 175.566406 102.957031 182.605469 105.722656 C 188.394531 106.011719 195.078125 107.246094 197.753906 107.773438 C 187.9375 100.484375 175.789063 96.164063 162.652344 96.164063 C 158.449219 96.164063 154.351563 96.613281 150.398438 97.453125 C 157.609375 98.613281 160.671875 101.035156 161.933594 102.628906 "/>
<path style=" stroke:none;fill-rule:nonzero;fill:rgb(100%,100%,100%);fill-opacity:1;" d="M 210.894531 131.019531 C 213.1875 134.742188 216.332031 142.589844 216.734375 157.839844 C 219.394531 160.523438 220.550781 162.386719 221.054688 163.433594 C 221.433594 160.726563 221.644531 157.96875 221.644531 155.15625 C 221.644531 142.898438 217.882813 131.503906 211.460938 122.058594 C 210.714844 124.914063 210.769531 128.757813 210.894531 131.019531 "/>
<path style=" stroke:none;fill-rule:nonzero;fill:rgb(100%,100%,100%);fill-opacity:1;" d="M 181.4375 106.890625 C 175.152344 104.585938 168.058594 104.09375 162.78125 104.144531 C 162.785156 104.152344 162.785156 104.160156 162.785156 104.160156 C 162.554688 104.144531 162.324219 104.144531 162.089844 104.15625 C 162.074219 104.15625 162.058594 104.15625 162.042969 104.15625 C 155.523438 104.480469 147.734375 114.101563 145.605469 116.898438 L 155.632813 134.527344 C 159.636719 134.269531 170.386719 134.050781 178.539063 138.132813 L 190.828125 126.226563 C 188.457031 115.914063 183.640625 109.433594 181.4375 106.890625 "/>
<path style=" stroke:none;fill-rule:nonzero;fill:rgb(100%,100%,100%);fill-opacity:1;" d="M 124.941406 120.289063 C 115.996094 132.328125 113.832031 142.132813 113.386719 144.773438 C 115.011719 148.613281 118.816406 156.683594 123.476563 160.394531 C 127.757813 159.59375 136.015625 158.046875 141.964844 156.894531 C 142.773438 154.628906 146.402344 145.144531 154.007813 134.703125 L 144.0625 117.21875 C 139.6875 115.917969 128.554688 119.164063 124.941406 120.289063 "/>
<path style=" stroke:none;fill-rule:nonzero;fill:rgb(100%,100%,100%);fill-opacity:1;" d="M 192.046875 127.132813 L 179.710938 139.089844 C 180.472656 141.042969 183.492188 149.550781 183.316406 161.746094 C 187.5625 163.257813 195.105469 166.472656 201.734375 172.039063 C 208.738281 168.203125 213.65625 160.574219 215.238281 157.882813 C 214.820313 142.507813 211.550781 134.894531 209.417969 131.539063 C 203.761719 127.417969 194.996094 127.113281 192.046875 127.132813 "/>
<path style=" stroke:none;fill-rule:nonzero;fill:rgb(100%,100%,100%);fill-opacity:1;" d="M 161.425781 174.339844 C 160.597656 173.828125 154.777344 170.0625 142.683594 158.28125 C 136.929688 159.398438 128.800781 160.925781 124.28125 161.769531 C 123.386719 163.925781 120.3125 171.367188 118.449219 176.65625 L 161.160156 176.65625 L 161.425781 174.339844 "/>
<path style=" stroke:none;fill-rule:nonzero;fill:rgb(100%,100%,100%);fill-opacity:1;" d="M 201.035156 173.417969 C 194.714844 168.042969 187.347656 164.835938 183.101563 163.28125 C 181.707031 164.226563 172.273438 170.492188 162.988281 173.894531 L 162.667969 176.65625 L 201.035156 176.65625 L 201.035156 173.417969 "/>
<path style=" stroke:none;fill-rule:nonzero;fill:rgb(100%,100%,100%);fill-opacity:1;" d="M 44.621094 156.128906 C 45.078125 156.128906 50.464844 156.128906 50.464844 156.128906 L 50.464844 153.78125 C 50.464844 153.78125 45.078125 153.78125 44.621094 153.78125 C 44.621094 153.363281 44.621094 150.324219 44.621094 149.90625 C 45.082031 149.90625 50.683594 149.90625 50.683594 149.90625 L 50.683594 147.59375 L 42.058594 147.59375 L 42.058594 162.40625 L 50.871094 162.40625 L 50.871094 160.09375 C 50.871094 160.09375 45.082031 160.09375 44.621094 160.09375 C 44.621094 159.675781 44.621094 156.546875 44.621094 156.128906 "/>
<path style=" stroke:none;fill-rule:nonzero;fill:rgb(100%,100%,100%);fill-opacity:1;" d="M 57.671875 154.253906 L 56.097656 153.332031 C 55.417969 152.9375 54.925781 152.558594 54.628906 152.210938 C 54.351563 151.875 54.214844 151.53125 54.214844 151.160156 C 54.214844 150.757813 54.394531 150.433594 54.761719 150.171875 C 55.148438 149.890625 55.65625 149.753906 56.273438 149.753906 C 57.394531 149.753906 58.464844 150.234375 59.449219 151.179688 L 59.871094 151.589844 L 59.871094 148.53125 L 59.761719 148.460938 C 58.722656 147.761719 57.566406 147.410156 56.324219 147.410156 C 55.011719 147.410156 53.925781 147.785156 53.101563 148.527344 C 52.265625 149.277344 51.839844 150.265625 51.839844 151.460938 C 51.839844 152.261719 52.0625 152.980469 52.503906 153.597656 C 52.933594 154.199219 53.660156 154.8125 54.65625 155.421875 C 54.65625 155.421875 56.222656 156.335938 56.234375 156.34375 C 57.40625 157.070313 57.996094 157.835938 57.996094 158.613281 C 57.996094 159.078125 57.816406 159.460938 57.445313 159.773438 C 57.0625 160.09375 56.589844 160.25 56 160.25 C 54.628906 160.25 53.402344 159.578125 52.347656 158.253906 L 51.902344 157.691406 L 51.902344 161.136719 L 52.003906 161.210938 C 53.207031 162.109375 54.558594 162.5625 56.027344 162.5625 C 57.316406 162.5625 58.382813 162.179688 59.199219 161.421875 C 60.019531 160.660156 60.433594 159.65625 60.433594 158.441406 C 60.433594 156.746094 59.503906 155.335938 57.671875 154.253906 "/>
<path style=" stroke:none;fill-rule:nonzero;fill:rgb(100%,100%,100%);fill-opacity:1;" d="M 60.925781 147.59375 L 60.925781 149.90625 C 60.925781 149.90625 65.382813 149.90625 65.832031 149.90625 C 65.832031 150.390625 65.832031 162.40625 65.832031 162.40625 L 68.398438 162.40625 C 68.398438 162.40625 68.398438 150.390625 68.398438 149.90625 C 68.847656 149.90625 73.394531 149.90625 73.394531 149.90625 L 73.394531 147.59375 L 60.925781 147.59375 "/>
<path style=" stroke:none;fill-rule:nonzero;fill:rgb(100%,100%,100%);fill-opacity:1;" d="M 246.585938 147.59375 L 246.585938 162.40625 L 249.148438 162.40625 L 249.148438 147.59375 L 246.585938 147.59375 "/>
<path style=" stroke:none;fill-rule:nonzero;fill:rgb(100%,100%,100%);fill-opacity:1;" d="M 260.398438 152.351563 C 260.398438 152.351563 260.316406 153.082031 260.292969 153.269531 C 259.636719 153.707031 258.957031 153.9375 258.273438 153.9375 C 257.679688 153.9375 257.179688 153.738281 256.753906 153.328125 C 256.324219 152.917969 256.117188 152.445313 256.117188 151.882813 C 256.117188 151.261719 256.3125 150.761719 256.703125 150.351563 C 257.09375 149.949219 257.570313 149.753906 258.175781 149.753906 C 258.828125 149.753906 259.351563 149.984375 259.769531 150.464844 C 260.195313 150.953125 260.398438 151.570313 260.398438 152.351563 Z M 258.152344 147.375 C 256.886719 147.375 255.796875 147.820313 254.914063 148.691406 C 254.035156 149.566406 253.585938 150.648438 253.585938 151.902344 C 253.585938 153.109375 254.007813 154.15625 254.835938 155.015625 C 255.664063 155.878906 256.671875 156.3125 257.835938 156.3125 C 258.515625 156.3125 259.117188 156.160156 259.675781 155.929688 C 259.386719 156.707031 258.96875 157.480469 258.34375 158.230469 C 257.5625 159.160156 256.640625 159.957031 255.609375 160.601563 L 255.367188 160.753906 L 256.949219 162.640625 L 257.136719 162.527344 C 258.84375 161.496094 260.265625 160.0625 261.363281 158.261719 C 262.464844 156.457031 263.023438 154.636719 263.023438 152.859375 C 263.023438 151.273438 262.570313 149.949219 261.671875 148.929688 C 260.761719 147.898438 259.578125 147.375 258.152344 147.375 "/>
<path style=" stroke:none;fill-rule:nonzero;fill:rgb(100%,100%,100%);fill-opacity:1;" d="M 268 153.03125 C 268 153.03125 267.898438 153.039063 267.804688 153.042969 C 267.804688 152.625 267.804688 150.308594 267.804688 149.90625 C 268.253906 149.90625 272.304688 149.90625 272.304688 149.90625 L 272.304688 147.59375 L 265.429688 147.59375 L 265.429688 155.691406 L 265.785156 155.527344 C 265.964844 155.445313 266.382813 155.34375 267.34375 155.34375 C 268.234375 155.34375 268.980469 155.585938 269.570313 156.054688 C 270.148438 156.523438 270.429688 157.078125 270.429688 157.765625 C 270.429688 158.429688 270.171875 158.976563 269.640625 159.433594 C 269.101563 159.898438 268.445313 160.125 267.640625 160.125 C 266.710938 160.125 265.738281 159.804688 264.753906 159.164063 L 264.367188 158.917969 L 264.367188 161.632813 L 264.503906 161.699219 C 265.632813 162.273438 266.808594 162.5625 268.003906 162.5625 C 269.476563 162.5625 270.691406 162.113281 271.617188 161.230469 C 272.550781 160.34375 273.027344 159.179688 273.027344 157.765625 C 273.027344 156.398438 272.546875 155.253906 271.601563 154.363281 C 270.660156 153.480469 269.449219 153.03125 268 153.03125 "/>
<path style=" stroke:none;fill-rule:nonzero;fill:rgb(100%,100%,100%);fill-opacity:1;" d="M 281.398438 152.351563 C 281.398438 152.351563 281.316406 153.082031 281.292969 153.269531 C 280.636719 153.707031 279.957031 153.9375 279.273438 153.9375 C 278.679688 153.9375 278.179688 153.738281 277.753906 153.328125 C 277.324219 152.917969 277.117188 152.445313 277.117188 151.882813 C 277.117188 151.261719 277.308594 150.761719 277.703125 150.351563 C 278.089844 149.949219 278.570313 149.753906 279.171875 149.753906 C 279.828125 149.753906 280.351563 149.984375 280.769531 150.464844 C 281.1875 150.945313 281.398438 151.582031 281.398438 152.351563 Z M 282.667969 148.929688 C 281.761719 147.898438 280.574219 147.375 279.152344 147.375 C 277.882813 147.375 276.796875 147.820313 275.914063 148.691406 C 275.03125 149.566406 274.585938 150.644531 274.585938 151.902344 C 274.585938 153.109375 275.007813 154.15625 275.835938 155.015625 C 276.660156 155.878906 277.671875 156.3125 278.835938 156.3125 C 279.515625 156.3125 280.117188 156.160156 280.675781 155.929688 C 280.386719 156.710938 279.96875 157.484375 279.339844 158.230469 C 278.5625 159.160156 277.644531 159.957031 276.609375 160.601563 L 276.367188 160.753906 L 277.953125 162.640625 L 278.136719 162.527344 C 279.84375 161.496094 281.265625 160.0625 282.363281 158.261719 C 283.464844 156.457031 284.023438 154.636719 284.023438 152.859375 C 284.023438 151.273438 283.570313 149.949219 282.667969 148.929688 "/>
</g>
</svg>
