<?xml version="1.0" encoding="UTF-8"?>
<svg xmlns="http://www.w3.org/2000/svg" xmlns:xlink="http://www.w3.org/1999/xlink" width="279.99pt" height="409.06pt" viewBox="0 0 279.99 409.06" version="1.1">
<defs>
<clipPath id="clip1">
  <path d="M 0 105 L 279 105 L 279 409.058594 L 0 409.058594 Z M 0 105 "/>
</clipPath>
<clipPath id="clip2">
  <path d="M 229 36 L 279.988281 36 L 279.988281 92 L 229 92 Z M 229 36 "/>
</clipPath>
</defs>
<g id="surface1">
<g clip-path="url(#clip1)" clip-rule="nonzero">
<path style=" stroke:none;fill-rule:nonzero;fill:rgb(81.999207%,82.398987%,83.099365%);fill-opacity:1;" d="M 0 105.367188 L 4.207031 219.535156 C 4.21875 221.222656 4.523438 238.808594 10.335938 262.730469 C 16.453125 287.785156 28.667969 319.976563 53.199219 348.136719 C 88.464844 388.65625 135.128906 407.496094 137.902344 408.566406 L 139.210938 409.058594 L 140.515625 408.566406 C 143.285156 407.496094 189.96875 388.65625 225.21875 348.136719 C 249.730469 319.976563 261.945313 287.785156 268.0625 262.730469 C 273.894531 238.808594 274.195313 221.222656 274.214844 219.535156 L 278.417969 105.367188 L 0 105.367188 "/>
</g>
<path style=" stroke:none;fill-rule:nonzero;fill:rgb(13.299561%,12.199402%,12.199402%);fill-opacity:1;" d="M 274.546875 109.09375 C 274.289063 116.308594 270.484375 219.441406 270.484375 219.441406 L 270.46875 219.503906 C 270.453125 221.382813 270.148438 238.472656 264.433594 261.871094 C 258.953125 284.378906 247.199219 317.203125 222.398438 345.683594 C 186.847656 386.554688 139.941406 404.773438 139.210938 405.0625 C 138.460938 404.773438 91.550781 386.539063 56.015625 345.683594 C 31.21875 317.203125 19.480469 284.378906 13.984375 261.871094 C 8.265625 238.472656 7.949219 221.382813 7.933594 219.503906 L 7.933594 219.410156 C 7.933594 219.410156 4.125 116.308594 3.871094 109.09375 L 274.546875 109.09375 "/>
<path style=" stroke:none;fill-rule:nonzero;fill:rgb(93.699646%,25.498962%,20.799255%);fill-opacity:1;" d="M 139.210938 116.625 L 139.210938 249.035156 L 202.25 249.035156 L 170.441406 217.242188 C 161.046875 208.738281 155.167969 196.457031 155.167969 182.804688 C 155.167969 157.148438 175.96875 136.328125 201.628906 136.328125 C 215.230469 136.328125 227.464844 142.175781 235.953125 151.492188 L 264.382813 179.90625 C 265.292969 155.410156 266.359375 126.710938 266.726563 116.625 L 139.210938 116.625 "/>
<path style=" stroke:none;fill-rule:nonzero;fill:rgb(76.899719%,12.199402%,19.599915%);fill-opacity:1;" d="M 262.933594 219.441406 L 262.949219 219.28125 C 262.949219 219.28125 263.601563 201.1875 264.382813 179.90625 L 235.953125 151.492188 C 227.464844 142.175781 215.230469 136.328125 201.628906 136.328125 C 175.96875 136.328125 155.167969 157.148438 155.167969 182.804688 C 155.167969 196.457031 161.046875 208.738281 170.441406 217.242188 L 202.25 249.035156 L 259.511719 249.035156 C 262.792969 231.878906 262.933594 220.011719 262.933594 219.441406 "/>
<path style=" stroke:none;fill-rule:nonzero;fill:rgb(100%,100%,100%);fill-opacity:1;" d="M 139.210938 116.625 L 11.671875 116.625 C 12.390625 135.453125 15.464844 219.28125 15.464844 219.28125 L 15.464844 219.441406 C 15.480469 220.011719 15.640625 231.878906 18.90625 249.035156 L 139.210938 249.035156 L 139.210938 116.625 "/>
<path style=" stroke:none;fill-rule:nonzero;fill:rgb(100%,100%,100%);fill-opacity:1;" d="M 139.210938 249.035156 L 139.210938 396.890625 C 149.511719 392.382813 187.546875 374.257813 216.714844 340.730469 C 240.523438 313.398438 251.816406 281.78125 257.105469 260.054688 C 258.0625 256.21875 258.839844 252.523438 259.511719 249.035156 L 139.210938 249.035156 "/>
<path style=" stroke:none;fill-rule:nonzero;fill:rgb(93.699646%,25.498962%,20.799255%);fill-opacity:1;" d="M 18.90625 249.035156 C 19.558594 252.523438 20.339844 256.21875 21.296875 260.054688 C 26.585938 281.78125 37.890625 313.398438 61.703125 340.730469 C 90.867188 374.242188 128.886719 392.382813 139.210938 396.890625 L 139.210938 249.035156 L 18.90625 249.035156 "/>
<path style=" stroke:none;fill-rule:nonzero;fill:rgb(13.299561%,12.199402%,12.199402%);fill-opacity:1;" d="M 33.289063 71.503906 C 33.289063 75.566406 29.945313 78.640625 25.882813 78.640625 C 21.4375 78.640625 18.492188 75.085938 18.492188 71.503906 L 18.492188 36.972656 L 4.601563 36.972656 L 4.601563 70.546875 C 4.601563 82.957031 13.871094 92.113281 25.882813 92.113281 C 37.75 92.113281 46.921875 82.699219 46.921875 70.546875 L 46.921875 36.972656 L 33.289063 36.972656 L 33.289063 71.503906 "/>
<path style=" stroke:none;fill-rule:nonzero;fill:rgb(13.299561%,12.199402%,12.199402%);fill-opacity:1;" d="M 85.421875 62.394531 C 82.746094 60.132813 57.960938 37.863281 55.777344 35.9375 L 55.777344 91.140625 L 69.414063 91.140625 L 69.414063 65.738281 C 71.707031 67.761719 96.316406 89.867188 98.992188 92.210938 L 98.992188 36.972656 L 85.421875 36.972656 L 85.421875 62.394531 "/>
<path style=" stroke:none;fill-rule:nonzero;fill:rgb(13.299561%,12.199402%,12.199402%);fill-opacity:1;" d="M 108.5625 91.140625 L 122.628906 91.140625 L 122.628906 36.972656 L 108.5625 36.972656 Z M 108.5625 91.140625 "/>
<path style=" stroke:none;fill-rule:nonzero;fill:rgb(13.299561%,12.199402%,12.199402%);fill-opacity:1;" d="M 129.859375 50.367188 L 143.109375 50.367188 L 143.109375 91.140625 L 157.078125 91.140625 L 157.078125 50.367188 L 170.316406 50.367188 L 170.316406 36.972656 L 129.859375 36.972656 "/>
<path style=" stroke:none;fill-rule:nonzero;fill:rgb(13.299561%,12.199402%,12.199402%);fill-opacity:1;" d="M 177.769531 91.140625 L 220.820313 91.140625 L 220.820313 77.761719 L 191.402344 77.761719 L 191.402344 70.769531 L 214.066406 70.769531 L 214.066406 57.4375 L 191.402344 57.4375 L 191.402344 50.367188 L 220.820313 50.367188 L 220.820313 36.972656 L 177.769531 36.972656 "/>
<g clip-path="url(#clip2)" clip-rule="nonzero">
<path style=" stroke:none;fill-rule:nonzero;fill:rgb(13.299561%,12.199402%,12.199402%);fill-opacity:1;" d="M 252.296875 36.972656 L 229.644531 36.972656 L 229.644531 91.140625 L 252.390625 91.140625 C 266.996094 91.140625 279.992188 80.199219 279.992188 64.113281 C 279.992188 49.011719 268.300781 36.972656 252.296875 36.972656 M 252.214844 77.761719 L 243.359375 77.761719 L 243.359375 50.238281 L 251.976563 50.238281 C 260.019531 50.238281 266.199219 55.988281 266.199219 64.113281 C 266.199219 71.820313 259.445313 77.761719 252.214844 77.761719 "/>
</g>
<path style=" stroke:none;fill-rule:nonzero;fill:rgb(93.699646%,25.498962%,20.799255%);fill-opacity:1;" d="M 50.839844 0.0507813 C 50.648438 0.6875 39.308594 32.082031 39.070313 32.785156 L 47.988281 32.785156 C 48.148438 32.335938 49.757813 27.75 49.917969 27.289063 L 60.652344 27.289063 C 60.859375 27.828125 62.421875 32.082031 62.675781 32.785156 L 71.707031 32.785156 C 71.386719 32.003906 59.585938 0.59375 59.378906 0.0507813 Z M 52.71875 19.246094 C 52.847656 18.796875 54.917969 12.824219 55.109375 12.238281 C 55.300781 12.777344 57.53125 18.832031 57.65625 19.246094 L 52.71875 19.246094 "/>
<path style=" stroke:none;fill-rule:nonzero;fill:rgb(93.699646%,25.498962%,20.799255%);fill-opacity:1;" d="M 75.640625 32.785156 L 84.144531 32.785156 L 84.144531 0.0507813 L 75.640625 0.0507813 Z M 75.640625 32.785156 "/>
<path style=" stroke:none;fill-rule:nonzero;fill:rgb(93.699646%,25.498962%,20.799255%);fill-opacity:1;" d="M 113.628906 0.0507813 L 89.195313 0.0507813 L 89.195313 8.160156 L 97.191406 8.160156 L 97.191406 32.785156 L 105.648438 32.785156 L 105.648438 8.160156 L 113.628906 8.160156 "/>
<path style=" stroke:none;fill-rule:nonzero;fill:rgb(93.699646%,25.498962%,20.799255%);fill-opacity:1;" d="M 123.34375 0.0507813 C 123.136719 0.6875 111.828125 32.082031 111.574219 32.785156 L 120.492188 32.785156 C 120.652344 32.335938 122.261719 27.75 122.40625 27.289063 L 133.15625 27.289063 C 133.363281 27.828125 134.941406 32.082031 135.179688 32.785156 L 144.191406 32.785156 C 143.90625 32.003906 132.074219 0.59375 131.882813 0.0507813 Z M 125.207031 19.246094 C 125.367188 18.796875 127.421875 12.824219 127.628906 12.238281 C 127.804688 12.777344 130.019531 18.832031 130.175781 19.246094 L 125.207031 19.246094 "/>
<path style=" stroke:none;fill-rule:nonzero;fill:rgb(93.699646%,25.498962%,20.799255%);fill-opacity:1;" d="M 181.050781 0.0507813 L 170.679688 0.0507813 C 169.949219 1.007813 162.496094 11.457031 161.796875 12.363281 L 156.296875 12.363281 L 156.296875 0.0507813 L 147.921875 0.0507813 L 147.921875 32.785156 L 156.296875 32.785156 L 156.296875 20.550781 L 161.855469 20.550781 C 162.683594 21.648438 170.296875 31.859375 170.984375 32.785156 L 181.574219 32.785156 C 180.730469 31.746094 169.46875 17.316406 168.722656 16.347656 C 169.46875 15.40625 180.015625 1.34375 181.050781 0.0507813 "/>
<path style=" stroke:none;fill-rule:nonzero;fill:rgb(93.699646%,25.498962%,20.799255%);fill-opacity:1;" d="M 184.953125 32.785156 L 210.976563 32.785156 L 210.976563 24.691406 L 193.1875 24.691406 L 193.1875 20.472656 L 206.902344 20.472656 L 206.902344 12.425781 L 193.1875 12.425781 L 193.1875 8.160156 L 210.976563 8.160156 L 210.976563 0.0507813 L 184.953125 0.0507813 "/>
<path style=" stroke:none;fill-rule:nonzero;fill:rgb(93.699646%,25.498962%,20.799255%);fill-opacity:1;" d="M 244.695313 11.105469 C 244.695313 4.414063 239.664063 0.0507813 233.710938 0.0507813 L 216.28125 0.0507813 L 216.28125 32.785156 L 224.597656 32.785156 L 224.597656 22 L 228.847656 22 C 229.597656 23.257813 234.40625 31.8125 234.996094 32.785156 L 245.335938 32.785156 C 244.664063 31.699219 239.074219 22.175781 238.296875 20.851563 C 241.765625 19.644531 244.695313 15.613281 244.695313 11.105469 M 232.941406 14.035156 L 224.597656 14.035156 L 224.597656 8.109375 L 232.941406 8.109375 C 234.789063 8.109375 236.320313 9.128906 236.320313 11.105469 C 236.320313 12.96875 234.710938 14.035156 232.941406 14.035156 "/>
<path style=" stroke:none;fill-rule:nonzero;fill:rgb(93.699646%,25.498962%,20.799255%);fill-opacity:1;" d="M 276.089844 8.160156 L 276.089844 0.0507813 L 250.082031 0.0507813 L 250.082031 32.785156 L 276.089844 32.785156 L 276.089844 24.691406 L 258.332031 24.691406 L 258.332031 20.472656 L 272.027344 20.472656 L 272.027344 12.425781 L 258.332031 12.425781 L 258.332031 8.160156 "/>
<path style=" stroke:none;fill-rule:nonzero;fill:rgb(93.699646%,25.498962%,20.799255%);fill-opacity:1;" d="M 27.984375 17.8125 C 27.15625 17.222656 21.933594 13.335938 21.007813 12.585938 C 20.085938 13.335938 15.148438 16.984375 14.03125 17.8125 C 13.984375 15.597656 13.632813 1.867188 13.585938 0.00390625 L 0.09375 0.0195313 L 5.429688 4.765625 C 6.019531 13.558594 7.230469 31.300781 7.375 33.5625 C 9 32.320313 19.925781 24.40625 21.007813 23.511719 C 22.1875 24.40625 33.210938 32.496094 34.691406 33.5625 C 34.785156 31.492188 36.808594 1.707031 36.953125 0.00390625 L 28.445313 0.00390625 C 28.398438 2.074219 28.097656 16.296875 27.984375 17.8125 "/>
<path style=" stroke:none;fill-rule:nonzero;fill:rgb(93.699646%,25.498962%,20.799255%);fill-opacity:1;" d="M 89.640625 156.238281 C 89.5625 159.648438 89.085938 183.09375 88.921875 185.625 C 87.539063 184.636719 78.9375 178.234375 77.394531 177.007813 C 75.847656 178.234375 67.722656 184.222656 65.859375 185.625 C 65.78125 181.976563 65.207031 159.3125 65.128906 156.238281 L 42.878906 156.238281 L 51.667969 164.058594 C 52.65625 178.601563 54.648438 207.84375 54.886719 211.605469 C 57.578125 209.582031 75.59375 196.503906 77.394531 195.054688 C 79.335938 196.503906 97.523438 209.820313 99.964844 211.605469 C 100.121094 208.195313 103.449219 159.074219 103.6875 156.238281 L 89.640625 156.238281 "/>
<path style=" stroke:none;fill-rule:nonzero;fill:rgb(13.299561%,12.199402%,12.199402%);fill-opacity:1;" d="M 195.511719 277.65625 L 195.511719 309.351563 C 195.511719 313.0625 192.453125 315.914063 188.726563 315.914063 C 184.632813 315.914063 181.941406 312.632813 181.941406 309.351563 L 181.941406 277.65625 L 169.183594 277.65625 L 169.183594 308.460938 C 169.183594 319.863281 177.707031 328.289063 188.726563 328.289063 C 199.605469 328.289063 208.03125 319.625 208.03125 308.460938 L 208.03125 277.65625 L 195.511719 277.65625 "/>
<path style=" stroke:none;fill-rule:nonzero;fill:rgb(100%,100%,100%);fill-opacity:1;" d="M 48.660156 269.40625 L 46.621094 263.097656 L 44.566406 269.40625 L 37.941406 269.40625 L 43.308594 273.289063 L 41.269531 279.613281 L 46.621094 275.710938 L 51.988281 279.613281 L 49.933594 273.289063 L 55.300781 269.40625 "/>
<path style=" stroke:none;fill-rule:nonzero;fill:rgb(100%,100%,100%);fill-opacity:1;" d="M 70.527344 263.097656 L 68.472656 269.40625 L 61.832031 269.40625 L 67.199219 273.289063 L 65.160156 279.613281 L 70.527344 275.710938 L 75.894531 279.613281 L 73.839844 273.289063 L 79.191406 269.40625 L 72.582031 269.40625 "/>
<path style=" stroke:none;fill-rule:nonzero;fill:rgb(100%,100%,100%);fill-opacity:1;" d="M 70.527344 288.40625 L 68.472656 294.699219 L 61.832031 294.699219 L 67.199219 298.601563 L 65.160156 304.910156 L 70.527344 301.023438 L 75.894531 304.910156 L 73.839844 298.601563 L 79.191406 294.699219 L 72.582031 294.699219 "/>
<path style=" stroke:none;fill-rule:nonzero;fill:rgb(100%,100%,100%);fill-opacity:1;" d="M 72.582031 320.007813 L 70.527344 313.699219 L 68.472656 320.007813 L 61.832031 320.007813 L 67.199219 323.894531 L 65.160156 330.21875 L 70.527344 326.316406 L 75.894531 330.21875 L 73.839844 323.894531 L 79.191406 320.007813 "/>
<path style=" stroke:none;fill-rule:nonzero;fill:rgb(100%,100%,100%);fill-opacity:1;" d="M 94.417969 313.699219 L 92.378906 320.007813 L 85.738281 320.007813 L 91.105469 323.894531 L 89.066406 330.21875 L 94.417969 326.316406 L 99.785156 330.21875 L 97.730469 323.894531 L 103.101563 320.007813 L 96.472656 320.007813 "/>
<path style=" stroke:none;fill-rule:nonzero;fill:rgb(100%,100%,100%);fill-opacity:1;" d="M 96.472656 345.300781 L 94.417969 339.007813 L 92.378906 345.300781 L 85.738281 345.300781 L 91.105469 349.203125 L 89.066406 355.511719 L 94.417969 351.609375 L 99.785156 355.511719 L 97.730469 349.203125 L 103.101563 345.300781 "/>
<path style=" stroke:none;fill-rule:nonzero;fill:rgb(100%,100%,100%);fill-opacity:1;" d="M 118.328125 313.699219 L 116.273438 320.007813 L 109.644531 320.007813 L 115.015625 323.894531 L 112.960938 330.21875 L 118.328125 326.316406 L 123.695313 330.21875 L 121.640625 323.894531 L 127.007813 320.007813 L 120.382813 320.007813 "/>
<path style=" stroke:none;fill-rule:nonzero;fill:rgb(100%,100%,100%);fill-opacity:1;" d="M 120.382813 345.300781 L 118.328125 339.007813 L 116.273438 345.300781 L 109.644531 345.300781 L 115.015625 349.203125 L 112.960938 355.511719 L 118.328125 351.609375 L 123.695313 355.511719 L 121.640625 349.203125 L 127.007813 345.300781 "/>
<path style=" stroke:none;fill-rule:nonzero;fill:rgb(100%,100%,100%);fill-opacity:1;" d="M 94.417969 288.40625 L 92.378906 294.699219 L 85.738281 294.699219 L 91.105469 298.601563 L 89.066406 304.910156 L 94.417969 301.023438 L 99.785156 304.910156 L 97.730469 298.601563 L 103.101563 294.699219 L 96.472656 294.699219 "/>
<path style=" stroke:none;fill-rule:nonzero;fill:rgb(100%,100%,100%);fill-opacity:1;" d="M 118.328125 288.40625 L 116.273438 294.699219 L 109.644531 294.699219 L 115.015625 298.601563 L 112.960938 304.910156 L 118.328125 301.023438 L 123.695313 304.910156 L 121.640625 298.601563 L 127.007813 294.699219 L 120.382813 294.699219 "/>
<path style=" stroke:none;fill-rule:nonzero;fill:rgb(100%,100%,100%);fill-opacity:1;" d="M 94.417969 263.097656 L 92.378906 269.40625 L 85.738281 269.40625 L 91.105469 273.289063 L 89.066406 279.613281 L 94.417969 275.710938 L 99.785156 279.613281 L 97.730469 273.289063 L 103.101563 269.40625 L 96.472656 269.40625 "/>
<path style=" stroke:none;fill-rule:nonzero;fill:rgb(100%,100%,100%);fill-opacity:1;" d="M 112.960938 279.613281 L 118.328125 275.710938 L 123.695313 279.613281 L 121.640625 273.289063 L 127.007813 269.40625 L 120.382813 269.40625 L 118.328125 263.097656 L 116.273438 269.40625 L 109.644531 269.40625 L 115.015625 273.289063 "/>
<path style=" stroke:none;fill-rule:nonzero;fill:rgb(13.299561%,12.199402%,12.199402%);fill-opacity:1;" d="M 201.628906 139.417969 C 177.671875 139.417969 158.242188 158.851563 158.242188 182.804688 C 158.242188 206.777344 177.671875 226.195313 201.628906 226.195313 C 225.601563 226.195313 245.046875 206.777344 245.046875 182.804688 C 245.046875 158.851563 225.601563 139.417969 201.628906 139.417969 "/>
<path style=" stroke:none;fill-rule:nonzero;fill:rgb(81.999207%,82.398987%,83.099365%);fill-opacity:1;" d="M 164.167969 197.96875 C 165.105469 200.246094 166.269531 202.476563 167.65625 204.613281 C 167.511719 202.269531 168.816406 199.515625 169.675781 197.96875 C 170.074219 197.222656 170.394531 196.757813 170.394531 196.757813 C 168.371094 193 166 187.011719 167.242188 183.09375 C 166.492188 181.628906 162.496094 175.128906 162.03125 174.347656 C 160.390625 182.136719 161.027344 190.371094 164.167969 197.953125 L 164.167969 197.96875 "/>
<path style=" stroke:none;fill-rule:nonzero;fill:rgb(100%,100%,100%);fill-opacity:1;" d="M 236.542969 186.4375 C 230.046875 191.3125 226 192.921875 226 192.921875 C 225.328125 194.5625 224.597656 196.296875 223.847656 197.96875 C 221.347656 203.59375 218.753906 208.847656 218.753906 208.847656 C 220.105469 205.628906 221.761719 201.332031 223.019531 197.984375 L 223.019531 197.96875 C 224.152344 194.976563 224.945313 192.730469 224.945313 192.730469 C 220.296875 185.464844 212.683594 179.8125 212.683594 179.8125 C 218.066406 169.1875 218.988281 168.550781 219.246094 162.402344 C 216.011719 156.445313 209.449219 150.074219 209.449219 150.074219 C 215.34375 153.261719 220.058594 160.9375 220.058594 160.9375 C 226.414063 161.496094 233.867188 164.96875 233.867188 164.96875 C 234.296875 163.742188 235.027344 162.050781 235.460938 161.128906 C 235.109375 160.601563 234.773438 160.078125 234.40625 159.566406 C 228.179688 150.664063 218.988281 145.058594 209.097656 143.148438 L 208 149.359375 C 199.445313 148.019531 189.109375 150.695313 187.851563 152.796875 C 186.019531 155.011719 182.246094 161.320313 180.984375 167.546875 C 182.324219 159.886719 186.417969 151.667969 186.417969 151.667969 C 185.652344 151.253906 183.378906 148.402344 182.402344 147.160156 C 181.289063 147.75 180.222656 148.402344 179.171875 149.101563 C 171.414063 158.101563 167.257813 169.125 167.433594 179.78125 C 168.148438 180.371094 168.5625 180.65625 168.5625 180.65625 C 173.132813 174.09375 176.8125 171.515625 180.652344 169.15625 C 182.421875 176.433594 190.003906 183.363281 190.003906 183.363281 C 197.503906 181.4375 203.300781 179.683594 211.121094 179.828125 C 204.625 181.023438 191.992188 183.15625 190.003906 186.40625 C 188.152344 189.113281 186.925781 194.210938 186.226563 197.953125 L 186.226563 197.96875 C 185.734375 200.644531 185.492188 202.652344 185.492188 202.652344 C 182.628906 202 177.628906 201.632813 173.117188 199.164063 C 178.328125 207.351563 186.371094 212.796875 195.640625 215.300781 C 191.960938 212.289063 186.195313 204.179688 186.195313 204.179688 C 193.1875 212.433594 198.460938 214.644531 198.460938 214.644531 C 198.460938 214.644531 209.832031 216.445313 217.429688 209.914063 L 221.15625 214.933594 C 223.738281 214.199219 226.316406 213.277344 228.863281 212.128906 C 233.199219 208.082031 236.496094 203.242188 238.628906 197.984375 L 238.628906 197.96875 C 239.550781 195.789063 240.253906 193.511719 240.730469 191.199219 L 236.542969 186.4375 "/>
<path style=" stroke:none;fill-rule:nonzero;fill:rgb(81.999207%,82.398987%,83.099365%);fill-opacity:1;" d="M 222.605469 216.90625 C 223.257813 216.492188 223.894531 216.09375 224.515625 215.648438 C 226.078125 214.550781 227.511719 213.386719 228.863281 212.128906 C 226.316406 213.277344 223.738281 214.199219 221.15625 214.933594 L 222.605469 216.90625 "/>
<path style=" stroke:none;fill-rule:nonzero;fill:rgb(81.999207%,82.398987%,83.099365%);fill-opacity:1;" d="M 162.046875 174.332031 C 164.359375 177.136719 166.285156 178.855469 167.433594 179.78125 C 167.257813 169.125 171.414063 158.101563 179.171875 149.101563 C 178.882813 149.277344 178.582031 149.46875 178.296875 149.660156 C 169.613281 155.746094 164.070313 164.679688 162.046875 174.332031 "/>
<path style=" stroke:none;fill-rule:nonzero;fill:rgb(81.999207%,82.398987%,83.099365%);fill-opacity:1;" d="M 167.988281 205.121094 C 168.132813 205.328125 168.261719 205.519531 168.421875 205.742188 C 174.089844 213.847656 182.339844 219.472656 191.898438 221.78125 C 194.175781 220.332031 195.367188 219.121094 196.132813 215.648438 C 195.972656 215.554688 195.800781 215.410156 195.640625 215.300781 C 186.371094 212.796875 178.328125 207.351563 173.117188 199.164063 C 172.480469 198.796875 171.859375 198.433594 171.253906 198 C 169.023438 200.628906 168.101563 202.574219 167.988281 205.121094 "/>
<path style=" stroke:none;fill-rule:nonzero;fill:rgb(100%,100%,100%);fill-opacity:1;" d="M 236.238281 162.449219 C 235.363281 164.265625 235.078125 165.8125 235.078125 165.8125 C 241.160156 177.105469 237.738281 185.308594 237.738281 185.308594 L 240.777344 191.039063 C 242.785156 181.53125 241.398438 171.324219 236.238281 162.449219 "/>
<path style=" stroke:none;fill-rule:nonzero;fill:rgb(81.999207%,82.398987%,83.099365%);fill-opacity:1;" d="M 191.164063 179.046875 C 187.070313 177.472656 183.742188 173.28125 183.742188 173.28125 C 183.742188 173.28125 186.132813 177.949219 190.351563 182.136719 C 194.988281 180.878906 195.402344 180.734375 202.585938 179.605469 C 202.792969 179.574219 194.03125 180.148438 191.164063 179.046875 "/>
<path style=" stroke:none;fill-rule:nonzero;fill:rgb(81.999207%,82.398987%,83.099365%);fill-opacity:1;" d="M 199.71875 211.460938 C 197.34375 211.125 190.222656 206.570313 190.222656 206.570313 C 190.222656 206.570313 196.722656 213.195313 199.082031 213.832031 C 204.464844 213.992188 207.109375 213.226563 211.566406 211.953125 C 212.683594 211.621094 206.105469 212.320313 199.71875 211.460938 "/>
</g>
</svg>
