<?xml version="1.0" encoding="UTF-8"?>
<svg version="1.1" viewBox="0 0 1052 1512" width="1280" height="1280" xmlns="http://www.w3.org/2000/svg">
<path transform="translate(490,200)" d="m0 0h94l67 3 43 3 71 8 63 9 42 8 32 7 57 12 5 2 1 1-1 710-2 19-6 26-9 27-13 28-9 14-11 16-7 9-12 14-24 24-11 9-10 8-19 14-11 7-10 6-24 14-17 9-40 18-23 9-36 12-30 9-28 7-47 9-22 3h-26l-33-5-45-9-36-10-52-17-24-10-26-12-16-7-23-13-15-9-13-8-19-14-12-9-15-13-16-15-12-13-9-11-10-13-8-13-10-17-9-19-10-30-6-29-2-18v-708l10-3 66-14 29-6 32-6 60-8 33-4 47-5 45-3z" fill="#E7212A"/>
<path transform="translate(884,724)" d="m0 0 3 1v260l-3 27-6 21-5 14-8 16-9 17-13 20-13 15-7 9-13 13-11 9-9 8-14 10-19 13-26 15-31 16-24 10-17 7-36 12-39 11-30 7-18 3h-12l-26-5-27-7-35-10-21-7-21-8-27-11-18-8-22-12-18-10-21-14-19-14-13-11-11-11-8-7-9-10-9-12v-2h-2l-12-18-6-10-9-19-6-16 1-5 5-2 68-17 25-7 18-6 8-3 17-5 8-2 9-3 13-5 8-2v-2l6 1 2 2 11 3 12-1 18-6 30-15 13-8 6-4 5-1-1 9-3 21 1 16 4 12 6 10 8 6-1 7-3 8 1 7 3 5 3 2 7-1 9-4h8l-1 11 3 6 1 1h16l9-5 5-6 1-3v-14l-5-9-9-9-9-6-1-1v-8l4-9 1-2 3 1 4 6 7 3 5 1h8l5-3h4l3 5 2 1h7l8-3 5-4 4-7v-8l-3-8-5-5-9-6-10-5-3-4v-3h-2l-1-3v-9l14-18 22-22 5-4h2l2-4 13-10 20-14 10-6 17-10 17-9 13-7h6l4 5 5 1 8-4 9-11 4-8 15-8 19-11 12-6 20-12 18-11 10-6 20-13 19-13 14-9z" fill="#E7222A"/>
<path transform="translate(257,445)" d="m0 0 3 1 6 12 5 12 10 19 8 16 10 17 11 17 10 15 3 3 3 1-4-16-4-18v-30l3-11 7-14 7-8 3 1 7 25 10 32 10 27 12 30 8 16 8 14 6 11 10 16 4 5 13 17 11 13 7 8 9 9 5 6 8 7 10 9 8 6 19 14 18 11 20 12 15 12 8 11 4 9 1 9-1 10 2 1 2-9v-15l-5-15-8-10-1-3-4-2-10-9-4-26v-36l4-30h4l16 12 2 1v-22l4-25 6-20 7-16 3-2 4 16 8 16 3 5 3 1-3-13 1-18 4-17 6-16 7-12 11-14 3-3h2v34l2 24 3 18 2 5h1v-21l2-18 7-24 6-13 6-10 12-14 8-7 16-10 3-2 3 1-8 17-9 23-6 19-3 17-2 17v14l3 1 2-17 7-24 9-21 12-20 8-11 17-17 16-11 17-8 13-5 3 1-8 10-9 12-7 11-10 15-10 18-10 22-8 20-5 15 4-4 10-18 11-17 8-12 8-10 11-14 14-15 8-7 11-10 15-10 16-8 15-6 21-3h9v4l-26 24-45 45-1 2h-2l-2 4-8 9-7 8-4 5h-2l1 2 12-8 10-6 13-5 8-2 12-1h11l7 2-5 6-19 13-14 11-13 11-11 9-10 9-3 1-2 4-8 7-4 5-4 4h-2l-2 4-8 8-9 11-12 15-13 18-8 13-10 16-15 25-11 18-9 12-10 14-7 9-3 3-4 1h-27l-19-1v3l23 4 36 4 25 5 17 6 14 8 5 4 2 3v8l-4 8-4 2-5-5h-8l-15 6-22 12-20 12-13 8-16 12-16 13-15 14-11 11-9 11-10 11-10 14-11 17-10 18-6 13-2 9v12l6 2 9 6 5 5 5 6 1 8-4 6-4 2h-6l-2-11-6-5-7-2-10 1-6 3h-3l1-6 9-10 1-4-7-2-9-7-6-10-3-8-1-7v-14l2-12 8-26 2-8-8 3-14 9-13 9-16 9-16 8-22 8-4 1h-7l-23-7-9-7-4-3h-2l-5-5-4-2v7l-2 1-1-9-3-3-5-9 1-5 5-4h3l1-2 1 1h5l1-1 9-2 10-5h2v-2h6l1-3 4-1 2-1-12 1-6 1-1-1-10 1-4 1-7 1-1 3-5-3-17-3-2-2-2-13 1-15 4-2h34l37-2 24-4 19-5 22-8 20-10 10-7-34-2-34-4-36-7-22-6-25-10-19-9-19-11-11-8-9-8v-1l34-2 15-3 3-1v-4l-22-1-21-3-16-5-15-8-10-8-10-10-3-4v-3l12 2 31 6 19 2h14l5-1-1-5-6-2-37-7-10-3-17-8-8-6-7-6v-2h-2l-10-13-8-15-1-6 6 2 23 11 18 7 35 10 15 2 1-3-2-4-26-8-18-8-15-8-13-9-11-10-9-12-7-14-5-17v-10h4l8 8 11 8 21 14 12 7 16 8 23 11 5 2h5l-3-7-11-8-11-7-12-9-10-9-10-8-11-11-13-18-8-16-4-15v-16l5-19h4l8 11 13 19 3 3v2h2l6 7v2h2l9 11 9 10 8 8 8 7 12 12 3 2 4-1-4-8-1-3h-2l-9-11-11-13-15-20-9-17-6-17-4-17v-10l4-12 8-17z" fill="#100C0C"/>
<path transform="translate(158,238)" d="m0 0h1v704l2 36 2 17 5 24 6 20 10 23 6 11 12 20 14 18 10 11 7 8 9 9 11 9 8 7 28 20 21 13 14 8 23 12 35 15 30 11 30 10 20 6 24 6 19 4 21 2 19-1 31-6 28-7 30-9 30-10 24-10 29-13 17-9 23-14 9-5 17-12 13-10 16-13 7-6 7-8 5-4 5-6 6-5 9-12 5-7h2l2-5 11-18 4-7 8-18 9-27 6-26 2-39 1-716h7l46 10 9 2 2 2-1 710-2 19-6 26-9 27-13 28-9 14-11 16-7 9-12 14-24 24-11 9-10 8-19 14-11 7-10 6-24 14-17 9-40 18-23 9-36 12-30 9-28 7-47 9-22 3h-26l-33-5-45-9-36-10-52-17-24-10-26-12-16-7-23-13-15-9-13-8-19-14-12-9-15-13-16-15-12-13-9-11-10-13-8-13-10-17-9-19-10-30-6-29-2-18v-708l10-3z" fill="#CE980E"/>
<path transform="translate(172,235)" d="m0 0h2l1 465 27-7 4 1 14 15 4 4v2l-6 2-2 3v7l4 8 9 10 5 6 14 10 14 8 1 4-2 3 1 7 8 8 14 10 19 11 12 7 11 5 17 6 21 7 28 7 35 6 19 2v2l-24 7-16 4-13 2-3-7-24-7-12-5-13-7-12-11-9-4-7 3-4 6-3 11 1 10 5 10-1 3-7 3-1 2-1 37-1 2 5 1 2 9 2 3 1 11 1 2 1 16 1-4 3-9 4 2v3h2l4 9v9l4 1 3 4h2v-5l5-1 3 3 9 3 4 4v2l3 1-2 4-15 6-9 3-14 4-18 5-7 3-19 6-25 7-37 9-28 7-1 5 6 16 11 23 14 21 1 3h2l12 16 11 12 10 9 8 8 17 13 18 13 21 13 24 13 16 8 25 11 26 10 22 8 35 10 26 7 23 5 11 2h12l28-5 35-9 40-12 22-8 22-9 23-10 29-15 27-16 11-8 18-13 11-10 11-9 12-12 7-9 11-13 13-21 10-18 9-20 7-23 3-20 1-12v-260l-5 2-13 9-17 11-10 7-17 11-13 8-30 18-17 10-12 6-19 11-6 2-1-1-2-10-7-8-16-10-10-5-17-5-18-4 2-4 11-14 18-27 13-22 10-16 7-12 10-15 12-16 10-13 9-10 7-7 7-8 13-13 8-7 14-13 17-13 10-8 17-12 11-8 4-5-1-7-5-5-10-3h-27l6-7 44-44 8-7 7-7 1-2-1-9-3-3-12-2-16 1-17 4-16 7-18 11-13 10-11 10h-2l2-5 9-10 4-6-1-9-3-2-7-2 5-5 15-9 14-10 15-11 16-11 11-9 18-13 6-5 2-6v-120l1-13 15 3-1 717-2 39-6 26-10 30-7 15-6 11-11 17-1 2h-2l-2 4-8 11-4 5h-2l-2 4h-2l-2 4h-2l-2 4-6 5-2 3h-2l-2 4-8 7-16 13-11 8-14 10-9 6-11 6-26 15-21 10-28 12-21 8-22 7-38 11-36 8-12 2-19 1-21-2-31-7-26-7-36-12-25-9-26-11-24-11-24-13-21-13-17-12-19-14-12-11-8-7-10-10-9-11-7-8-12-17-7-11-14-28-6-16-5-18-5-26-2-29-1-18v-475l1-229z" fill="#FDFDFD"/>
<path transform="translate(258,433)" d="m0 0 5 1 4 5 18 38 12 22 9 14 1 1 1-2v-12l2-13 3-10 8-15 6-8 9-6h6l5 8 10 38 12 37 3 8 5 13 3 7 6 13 6 12v3h2l2 4v3h2l7 14 3 5 10 14 9-2 50-20 21-8 29-13 30-13 33-16 10-5 4-6 5-9 9-13h2v-2h2v-2l13-9h7l6 7 2 2 5-8 9-11 12-11h2v-2l11-7 14-7 8-1 4 4 1 7 6-3 15-11 17-10 9-4 15-6h5l1-2 9 3 3 5v6l-7 9-8 10-1 2 8-7 15-12 17-11 20-9 17-4 16-1 12 2 4 4 1 9-7 8-8 8-8 7-43 43h26l10 3 5 4 2 4-1 7-9 8-16 11-12 9-25 20-13 12-15 14-9 9-7 8-8 8-10 13-12 16-10 15-8 13-10 17-13 21-13 20-10 14-10 13 13 2 19 5 9 4 11 6 11 8 6 7 2 12-5 10-9 10-9 3-5-3-2-4-8 2-13 7-22 12-10 6-13 8-22 16-9 7-5 5-10 9-16 16-12 16v12h2l3 6 17 9 6 5 4 7 1 4v8l-4 7-7 6-7 2h-7l-5-4v-3l-7 3-2 1h-8l-10-3-9-9-2 6-2 5v8l11 8 9 9 4 8v14l-4 7-6 5-6 3h-16l-4-5-1-6 2-8-11 2-9 4-6-1-4-4-2-6 1-8 3-6v-5l-9-7-7-14-2-7-1-16 3-21 1-8-8 3-8 6-12 7-19 9-12 5-12 4-12 1-14-4-2-2-3-1v2l-6 2 1-4-2-1v-2l-4-2v-2l-9-2-3-3h-4l-1 5h-2l-1 2-3-6-3-1v-9l-2-1-2-5v-3h-2v-3l-4-1-3 15-2-4-1-15-1-2-1-11-2-3-2-9-4-1 1-39 4-4 5-2-2-6-3-6-1-10 4-13 5-6 6-2 9 4 7 7 10 7 17 8 21 6 7 3 2 6 13-2 16-4 22-6h2v-2h-10l-28-4-29-6-25-7-24-9-10-4-14-7-22-13-11-8-10-9-3-4v-5l2-3v-3l-17-10-13-10-9-10-7-10-1-3v-7l3-4 6-1-7-8-7-7-5-6-2-1-12-26v-11l6-4h9l-4-8-6-8-5-9-6-13-2-10v-18l3-5 7-3h5l10 9 8 8 7 5 2-1-6-8-8-10-6-9-5-13-3-11-1-7v-14l3-17 5-12 4-4 8-1 6 5 8 16 3 4v2h2l-1-10-4-16v-10l3-12 8-16 7-13 8-9zm-1 12-14 28-3 10v10l5 21 5 13 9 17 13 17 13 16 9 11h2l2 4 3 8-5-1-8-7-12-12-8-7-9-9-9-11-2-3h-2l-2-4-4-5h-2l-2-4-13-18-8-12-4-2-3 9-3 11v16l4 15 8 16 14 19 13 13 10 8 9 8 13 9 15 10 5 4 2 6-7-1-12-5-32-16-17-10-5-4-10-7-12-9-7-7-3 1v10l5 17 8 16 12 14 11 9 16 10 21 10 24 8 8 3 1 4-1 2-15-2-28-8-18-6-26-12-8-4h-2l1 6 8 15 8 10 2 3h2l2 4 10 8 15 8 11 4 35 7 11 2 2 3v3l-5 1h-14l-25-3-34-7h-3l1 4 9 10 9 8 13 8 14 6 19 4 29 2h3v4l-11 3-21 2-20 1 6 7 14 10 23 13 24 11 22 8 30 7 29 5 39 4 22 1-14 9-21 10-27 9-25 5-25 2-27 1h-27l-4 2-1 15 2 13 2 2 17 3 6 3v-3l9-1 2-1 10-1 3 1 11-2h5l-5 2-2 1v2h-6v2l-9 3-5 3-7 1-1 1h-5l-2-1v2l-4 1-5 4 1 7 5 8 2 1 1 9 2-1v-7l7 4 2 3 5 2 7 6 6 3 20 6h7l18-6 17-7 18-10 11-7 10-7 12-8 7-2-5 17-6 21-1 8v14l2 11 6 11 5 5 6 5 7 2-2 5-8 9-1 6 5-1 8-3 10 1 6 3 3 3 2 11h6l6-4 2-4-1-8-6-8-11-8-6-3h-2v-12l3-12 13-25 16-24 8-11 10-11 9-11 19-19 8-7 14-11 13-10 16-10 24-14 22-12 11-4h8l5 5 5-3 3-7v-8l-4-5-14-8-8-4-16-5-21-4-15-2-29-3-15-3v-3l19 1h27l5-2 8-9 6-9 13-18 7-11 17-28 9-15 9-14 8-12 16-21 12-14 7-8 4-4v-2l3-1 7-8 5-5 5-4v-2l4-2 12-11 11-9 17-14 16-11 12-9 3-4-7-2h-11l-16 2-15 5-11 6-10 7-3 2-1-2 3-1 7-8 9-11 4-4v-2h2l7-8 47-47 8-7 11-10-1-3h-9l-21 3-20 8-16 9-12 9-10 9-16 15-18 22-11 15-15 24-10 18-3 2 9-26 11-25 9-17 9-15 11-16 9-13 8-9 1-3-9 2-20 9-12 7-11 9-16 16-14 22-8 16-7 18-5 18-2 17-3-1v-14l4-30 6-20 6-16 6-15 6-12-3-1-16 10-9 7-11 12-7 10-7 14-7 23-2 10-1 12v21l-2-2-3-13-2-17-1-15v-34l-4 2-10 12-8 13-5 12-4 14-2 9-1 18 3 13-3-1-6-10-5-11-4-16-4 4-8 20-5 19-3 20v22l-9-6-10-8-3 1-4 30v36l4 26 12 11h2l2 4 7 9 5 15v15l-2 9-2-1 1-13-2-9-6-11-5-6-11-9-14-9-22-13-17-12-10-8-9-7-12-11-7-6-7-8-9-9-11-14-13-16-4-6-9-14-7-11-6-12-9-17-8-19-11-28-11-33-9-30-3-9-4 2-7 9-6 13-2 9v30l6 25 2 9-5-3-8-11-13-21-8-13-10-18-8-16-7-15-6-13-2-3z" fill="#CB940F"/>
<path transform="translate(887,235)" d="m0 0 15 3-1 467-1 129-1 73-2 59-2-1-2-3-2-14-3-73-1-151-8 4-11 8-17 11-10 7-17 11-13 8-30 18-17 10-12 6-19 11-6 2-1-1-2-10-7-8-16-10-10-5-17-5-18-4 2-4 11-14 18-27 13-22 10-16 7-12 10-15 12-16 10-13 9-10 7-7 7-8 13-13 8-7 14-13 17-13 10-8 17-12 11-8 4-5-1-7-5-5-10-3h-27l6-7 44-44 8-7 7-7 1-2-1-9-3-3-12-2-16 1-17 4-16 7-18 11-13 10-11 10h-2l2-5 9-10 4-6-1-9-3-2-7-2 5-5 15-9 14-10 15-11 16-11 11-9 18-13 6-5 2-6v-120z" fill="#FDFDFD"/>
<path transform="translate(903,239)" d="m0 0 9 1 21 5 1 1v514l-1 205-2 22-4 22-8 25-8 20-8 16-9 15-8 12-13 17-9 9-2 3h-2l-2 4-8 7-12 12-14 11-19 14-18 11-25 14-27 13-33 14-22 8-33 10-31 8-27 5-4 1h-9l4-2 33-9 45-14 21-8 31-13 15-7 16-8 13-8 11-6 21-14 16-12 11-9 10-9 16-16 4-6h2l2-4 14-19 8-13 8-14 6-12 7-19 5-16 5-24 2-13 1-24z" fill="#100C0C"/>
<path transform="translate(158,238)" d="m0 0h1v229l-1 258v246l2 22 5 26 5 19 8 19 12 22 11 17 9 12 12 14 23 23 11 9 17 13 14 10 13 8 20 12 27 14 24 10 18 7 23 8 24 8 20 6 8 2v1l-12-1-30-7-17-4-30-9-28-11-23-10-25-12-22-12-21-13-8-6-13-10-11-9-10-9-9-9-8-7-9-10-11-14-8-11-13-22-7-14-8-19-7-24-4-21-2-27-1-61v-656l26-6z" fill="#100C0C"/>
<path transform="translate(866,437)" d="m0 0 16 1 5 3 3 5v6l-7 8-8 8-8 7-43 43h26l10 3 5 4 2 4-1 7-9 8-16 11-12 9-25 20-13 12-15 14-9 9-7 8-8 8-10 13-12 16-10 15-8 13-10 17-13 21-13 20-10 14-10 13 13 2 19 5 9 4 11 6 11 8 6 7 2 12-5 10-9 10-9 3-5-3-2-4-8 2-13 7-22 12-10 6-13 8-22 16-9 7-5 5-10 9-16 16-12 16v12h2l3 6 17 9 6 5 4 7 1 4v8l-4 7-7 6-7 2h-7l-5-4v-3l-7 3-2 1h-8l-10-3-9-9-2 6-2 5v8l11 8 9 9 4 8v14l-4 7-6 5-6 3h-16l-4-5-1-6 2-8-11 2-9 4-6-1-4-4-2-6 1-8 3-6v-5l-9-7-7-14-2-7-1-16 3-21 1-8-8 3-8 6-12 7-19 9-12 5-12 4-12 1-14-4-2-2-3-1v2l-6 2 1-4-2-1v-2l-4-2v-2l-9-2-3-3h-4l-1 5h-2l-1 2-3-6-3-1v-9l-2-1-2-5v-3h-2v-3l-4-1-3 15-2-4-1-15-1-2-1-11-2-3-2-9-4-1 1-39 4-4 5-2-2-6-3-6-1-10 4-13 5-6 6-2 9 4 7 7 10 7 17 8 21 6 7 3 2 6 13-2 16-4 22-6h2v-2h-10l-28-4-29-6-25-7-2-2h10l4-1 1 2-2 1 1 1 10 2v-2h10v2l4 1 2 1h11l5 3 3 2 11 2h2l4-2h8v-2l-11-2-15-2-17-3-12-3-9-2-22-6-23-10-17-8-19-11-8-6h3l13 8 16 9 24 11 22 8 30 7 29 5 39 4 23 1-5 5-14 8-17 8-27 9-25 5-25 2-27 1h-27l-3 1-1 15 2 13 1 1 17 3 5 3 1-2h2l1-2h6l2-1 11-1v2l6-2 14-1-5 4h-3l-3 3-4-1v2l-14 7-7 1-1 1h-5-2l-7 4-1 5 5 9v2l3 1 1 8 1-7 4 1 5 4v2l3-1 5 5 7 5 23 7h7l18-6 17-7 18-10 11-7 10-7 12-8 7-1-1 8-8 26-2 12v14l2 11 6 11 5 5 5 4 7 3-1 5-8 9-2 6 13-5 10 1 6 3 4 4 1 3v8l8-2 4-4 1-7-4-7-2-4-4-2-9-6-6-3-1-2v-10l3-12 13-25 16-24 8-11 10-11 9-11 20-20 8-7 14-11 13-10 16-10 24-14 22-12 11-4h8l5 5 4-2 3-7v-8l-5-5-10-6-10-5-16-5-21-4-15-2-29-3-13-3-2-1v-3h46l5-2 7-8 6-9 13-18 7-11 17-28 9-15 9-14 8-12 16-21 12-14 7-8 5-6 4-4h2l2-4 4-4h2l2-4 8-7 12-11 11-9 17-14 16-11 12-9 2-2-6-2h-11l-16 2-15 5-11 6-10 7-4 2v-3l5-5 9-10 7-8 2-3h2l2-4 52-52 8-7 10-9v-2h-9l-21 3-20 8-16 9-12 9-10 9-15 14-18 22-11 15-15 24-10 18-4 2 1-6 8-22 10-23 9-17 9-15 11-16 3-3-1 6 3-3 7-9 5-4 6-7 2-4 4-1 1-3v6l-7 9-8 10-1 2 8-7 15-12 17-11 20-9 17-4z" fill="#C8910F"/>
<path transform="translate(866,437)" d="m0 0 16 1 5 3 3 5v6l-7 8-8 8-8 7-43 43h26l10 3 5 4 2 4-1 7-9 8-16 11-12 9-25 20-13 12-15 14-9 9-7 8-8 8-10 13-12 16-10 15-8 13-10 17-13 21-13 20-10 14-10 13 13 2 19 5 9 4 11 6 11 8 6 7 2 12-5 10-9 10-9 3-5-3-2-4-8 2-13 7-22 12-10 6-13 8-22 16-9 7-5 5-10 9-16 16-12 16v12h2l3 6 17 9 6 5 3 5-1 15-3 5h-2l-2 4-6 3h-8l-5-3 1-2 11-3 6-4v-8l-4-6-8-5-10-5-7-8-4-11-5 2-2 7h-3l-2 5-8 14h-2v9l-5 14-3 5-3 4h-2v8l-3-1v-10l3-12 13-25 16-24 8-11 10-11 9-11 20-20 8-7 14-11 13-10 16-10 24-14 22-12 11-4h8l5 5 4-2 3-7v-8l-5-5-10-6-10-5-16-5-21-4-15-2-29-3-13-3-2-1v-3h46l5-2 7-8 6-9 13-18 7-11 17-28 9-15 9-14 8-12 16-21 12-14 7-8 5-6 4-4h2l2-4 4-4h2l2-4 8-7 12-11 11-9 17-14 16-11 12-9 2-2-6-2h-11l-16 2-15 5-11 6-10 7-4 2v-3l5-5 9-10 7-8 2-3h2l2-4 52-52 8-7 10-9v-2h-9l-21 3-20 8-16 9-12 9-10 9-15 14-18 22-11 15-15 24-10 18-4 2 1-6 8-22 10-23 9-17 9-15 11-16 3-3-1 6 3-3 7-9 5-4 6-7 2-4 4-1 1-3v6l-7 9-8 10-1 2 8-7 15-12 17-11 20-9 17-4z" fill="#CC950F"/>
<path transform="translate(599,551)" d="m0 0 1 3-4 10-6-1-3-2-8 5-8 16-8 22-7 30-4 1-5-2h-5l-4 5-3 11-5 31v28l3 25-5-1-17-11-19-13-13-11-11-9-18-18-9-11-10-11-12-18v-2l31-12 27-11 21-8 29-13 30-13 33-16z" fill="#FDFDFD"/>
<path transform="translate(901,239)" d="m0 0h2l1 664v56l-1 24-4 24-5 20-8 23-6 14-8 14-10 16-14 19-3 4h-2l-2 4-7 8-18 18-14 11-13 10-24 16-11 6-15 9-23 11-27 12-26 10-33 11-35 10-15 4 9-1 27-5 38-10 32-10 28-11 36-16 25-13 19-11 15-10 16-12 16-13 15-15 6-5 7-8 8-9 8-11 8-12 14-24 10-24 7-21 4-17 3-21 1-13 1-205v-515h2l1 12 1 566 1 64v58l-1 20-4 31-8 29-8 21-2 4-2 7-1 3h-2l-1 4-7 12-7 11-8 12-1 3h-2l-2 4-7 10-4 8-4 2v3l-4 1v2l-8 7-7 6-5 5-7 5h-2v2l-10 7-13 9-11 8-9 6-8 4-2 2-7 3-2 2-7 3-24 12-6 2-9 4-28 11-31 10-31 9-22 6-24 5-13 2-15 2h-12l-16 2h-10l-13-1-36-4h-11l-6-2-8-1-7-2-10-3-1-1-10-2-20-7-41-14-33-13-15-7-13-6-12-6-15-9-26-17-14-11-11-9-11-10-22-22-10-13-11-14-10-15-5-8-2-5-6-11-6-16-4-13-4-16-4-18-1-6-1-17v-58l-2-15v-67l1-38 1-92v-421l1-28 2 1v664l1 49 2 27 4 21 5 17 5 15 5 11 8 16 12 20 8 11 8 10 13 15 15 14 7 7 14 11 13 10 11 8 22 13 18 10 31 15 27 11 21 8 34 10 24 5 16 4 8 1-14-4-22-7-30-10-19-7-13-6-17-7-29-15-16-10-18-11-10-8-12-9-11-9-12-11-6-5-7-8-7-7-9-11-13-18-12-21-8-16-6-14-6-23-5-29-1-15v-246l1-188h1v405l2 36 2 17 5 24 6 20 10 23 6 11 12 20 14 18 10 11 7 8 9 9 11 9 8 7 28 20 21 13 14 8 23 12 35 15 30 11 30 10 20 6 24 6 19 4 21 2 19-1 31-6 28-7 30-9 30-10 24-10 29-13 17-9 23-14 9-5 17-12 13-10 16-13 7-6 7-8 5-4 5-6 6-5 9-12 5-7h2l2-5 11-18 4-7 8-18 9-27 6-26 2-39z" fill="#B57C11"/>
<path transform="translate(900,705)" d="m0 0h1v250l-2 39-6 26-10 30-7 15-6 11-11 17-1 2h-2l-2 4-8 11-4 5h-2l-2 4h-2l-2 4h-2l-2 4-6 5-2 3h-2l-2 4-8 7-16 13-11 8-14 10-9 6-11 6-26 15-21 10-28 12-21 8-22 7-38 11-36 8-12 2-19 1-21-2-31-7-26-7-36-12-25-9-26-11-24-11-24-13-21-13-17-12-19-14-12-11-8-7-10-10-9-11-7-8-12-17-7-11-14-28-6-16-5-18-5-26-2-29-1-18v-48l1-174h1l2 168 2 23v9l-1 7v48l3 23 7 28 3 7v3h2v2h3l-1-6 5-5 5-2 23-4 38-10 21-5 10-3 7-3 12-3 4-3 1-3 7-3 6-2-2-7 1-5h2l1-9-1-17-2-2-1 5-1 23h-2v2h2l-2 4h-2l-1-17 1-2h-4v-4l-2-1v-34l4 4 1 11 1 2 1 16 1-4 3-9 4 2v3h2l4 9v9l4 1 3 4h2v-5l5-1 3 3 9 3 4 4v2l3 1-2 4-15 6-9 3-14 4-18 5-7 3-19 6-25 7-37 9-28 7-1 5 6 16 11 23 14 21 1 3h2l12 16 11 12 10 9 8 8 17 13 18 13 21 13 24 13 16 8 25 11 26 10 22 8 35 10 26 7 23 5 11 2h12l28-5 35-9 40-12 22-8 22-9 23-10 29-15 27-16 11-8 18-13 11-10 11-9 12-12 7-9 11-13 13-21 10-18 9-20 7-23 3-20 1-12v-260l2 1 1 149 3 73 2 12h1l1 5 2-58 1-73z" fill="#E8E4E9"/>
<path transform="translate(903,239)" d="m0 0h5v11l-1 24-1 8-1 123v337l1 145 1 11 1 64 1 9 3 3 4-1h2l5 13 2-5 2-2 1-4v-11l1-9v-15l1-14 1-142 1-116v-406l-1-7-1-4h2v-6l2 1v514l-1 205-2 22-4 22-8 25-8 20-8 16-9 15-8 12-13 17-9 9-2 3h-2l-2 4-8 7-12 12-14 11-19 14-18 11-25 14-27 13-33 14-22 8-33 10-31 8-27 5-4 1h-9l4-2 33-9 45-14 21-8 31-13 15-7 16-8 13-8 11-6 21-14 16-12 11-9 10-9 16-16 4-6h2l2-4 14-19 8-13 8-14 6-12 7-19 5-16 5-24 2-13 1-24z" fill="#271716"/>
<path transform="translate(783,446)" d="m0 0 10 3 2 2v6l-4 2-4 7-3 1-1 3-7 6-6 9-3 1 2-9 8-10 7-9-10 3-18 8-12 7-11 9-15 15-14 22-8 16-7 18-5 18-3 17-4-1v-14l4-30 6-20 6-16 6-15 6-12-5 2-13 8-9 7-10 11-7 10-7 14-7 23-2 10-1 12v21h-3l-3-9-3-23-1-15v-23l1-11-6 5-11 15-8 16-5 17-2 9-1 18 2 9v4l-4-1-6-10-5-11-3-14h-2l-8 19-5 17-4 25-1 22-5-2-14-11h-2l-4 30v36l4 26 11 10 5 5 7 9 5 15v15l-3 9-3-1 1-13-2-9-6-11-4-4v-2l-4-2-8-7-25-15-11-7 3-1 15 9 4-1-12-7-3-3-18-12-8-7-10-8-4-3v-2l-4-1-4-4v-2l-4-1-2-3-3-1-5-6v-2l-3-1-9-11v-2h-2v-2h-2v-2l-4-2-6-8-4-6-4-4-4-5v-2l-4-2-1-3-5-5-3-5-3-4 2-3-3-4-1-6-16-32-10-23-9-26-7-21-10-35-4-11-7-1 2-2h6l5 8 10 38 12 37 3 8 5 13 3 7 6 13 6 12v3h2l2 4v3h2l7 14 3 5 12 17 10 15 11 13 9 10 7 8 12 12 11 9 13 11 15 10 22 14h2l-3-24v-28l6-36 3-8 4-4 9 1 4 1 7-30 9-24 7-14 9-6 5 3 4 1 3-10 3-7 7-12 9-13h2v-2h2v-2l13-9h7l6 7 2 2 5-8 9-11 12-11h2v-2l11-7 14-7 8-1 4 4 1 7 6-3 15-11 17-10 9-4 15-6h5z" fill="#CC950E"/>
<path transform="translate(158,238)" d="m0 0h1v229l-1 258v246l2 22 5 26 5 19 8 19 12 22 11 17 9 12 12 14 23 23 11 9 17 13 14 10 13 8 20 12 27 14 24 10 18 7 23 8 24 8 20 6 8 2v1l-12-1-30-7-17-4-30-9-28-11-23-10-25-12-22-12-21-13-8-6-13-10-11-9-10-9-9-9-8-7-9-10-11-14-8-11-13-22-7-14-8-19-7-24-4-21-2-27-1-61v-656l2 1v452l1 92 1 45v112l1 27 2 12v8l2 9 2 4 1 8 3 7 1 7 1 3 2 1 5 13v2l2 1 6 9 2 4 4 6-2-5-1-6-4-9-5-15v-9h2l2 2 1-5-2-18-2-9-1-16-1-20 2-9 1-24-1-1-2-16h-2l-1 5-4 2v-2h-2l-3-7 2-1-3-5v-8l3-7 4-3 3 1 2 4 2-2 1-5 2-284 1-357z" fill="#392614"/>
<path transform="translate(632,3)" d="m0 0h2l15 43 3 9h61l-5 5-18 14-16 13-8 6 2 9 13 44 1 6-7-4-10-8-9-7-17-14-4-3-5 1-10 9-20 15-10 8-7 4 1-5 9-28 6-23 1-5-10-8-13-10-16-13-7-5v-1l61-1 6-17 9-30z" fill="#CE980E"/>
<path transform="translate(839,2)" d="m0 0h2l3 13 13 39 1 1h60l-5 5-13 11-28 22 4 17 12 39v3l-5-2-9-8-11-8-11-9-10-9-5 1-13 10-15 12-10 7-8 7h-2l3-10 8-30 3-7 3-11-1-4-26-20-18-14-1-2 61-1 10-30 5-17z" fill="#CE980E"/>
<path transform="translate(221,3)" d="m0 0 3 2 9 30 7 20h61l-5 5-10 8-13 11-14 10-5 5 7 26 8 26 2 4-1 3-6-4-9-8-11-8-13-11-5-4v-2l-4-1-17 13-11 9-16 12-5 4h-2l1-5 8-25 7-24 2-4-1-4-17-12-13-11-16-12v-1l61-1 13-38 4-12z" fill="#CE980E"/>
<path transform="translate(426,4)" d="m0 0h3l5 16 12 35h60v2l-12 9-11 9-12 10-10 7h-2l1 5 9 29 6 20 2 6-4-1-10-8-9-7-22-18-2-2-5 1-15 12-9 7-16 12-7 5-1-3 4-11 10-33 4-11-1-4-13-9-11-9-15-12-7-5v-1l62-1 3-10 10-30z" fill="#CE980E"/>
<path transform="translate(518,267)" d="m0 0h10l10 4 9 7 7 7 7 14 2 16-2 14-4 8-7 8-9 4-4 2-7 9-11 11-14 9-7 3-13 2h-15l-10-2-10-5-10-9-6-8-4-8-4-13-2-8-3 3-9 14-6 8-1 4 9 3 10 4 4 5 2 6v11l-3 14-4 8-8 10-9 6-7 2h-17l-11-4-11-8-6-9-4-11v-24l7-21 9-19 8-16 8-17 4-17 2-4h1v9l-4 16-9 19-5 9-3 7-8 19-3 13v8l3 9 6 12 8 7 9 3h18l10-4 7-7 3-6v-6l-4-3-13-3-4-4-3-7 1-14 4-10 6-8 10-12 4-10 1-11-4-20v-7l5-9h3l2 6 1 8 1 20 2 18 6 21 6 10 9 8 10 4 15 1 13-2 13-5 9-5 11-8-1-6-2-6v-12l4-10 6-5 7 1 4 5 3 7v4l4-2 3-7v-7l-6-10-4-4v-2l-4-2-7-3-6-1h-8l-6 2-3 6v9l3 12v7h-3l-4-9-3-10-1-9 2-13 6-9 5-4z" fill="#FDFAFA"/>
<path transform="translate(258,433)" d="m0 0 5 1 4 5 18 38 12 22 9 14 1 1 1-2v-12l2-13 3-10 8-15 6-8 5-4 7-1 4 4 5 16 9 31 12 36 11 27 8 17 10 19 2 7 2 4-2 3 3 3 3 5 2 4 3 1 2 4 3 3v2l3 1 2 5 3 1 3 4v2l2 1 6 8 2 1v2h2v2h2l6 8v2l3 1 4 5v2l4 2v2l4 1 1 3 4 1v2l4 2v2l4 1v2l4 2 12 10 4 3v2l5 2 18 12v2l6 2 7 5-1 2-6-1-13-8-6-2-17-12-10-8-11-9-7-7-4-3v-2l-3-1-7-8-9-9-11-14-13-16-4-6-9-14-7-11-6-12-9-17-8-19-11-28-11-33-9-30-2-8-4 2-7 10-5 11-2 9v30l6 25 1 9-4-1-6-7-12-19-10-16-9-16-9-17-10-21-6-13-3-3-2 6-8 15-5 13-1 4v10l5 21 5 13 9 17 13 17 13 16 8 9v2h2l5 8 1 4-5 1-10-9-11-11-8-7-10-10-9-11-1-3h-2l-6-7v-2h-2l-13-18-11-16-3-1-5 19v16l4 15 8 16 6 8-1 2-5-5-6-9-4-9-2-7-3-9v-12l1-10-5-1v31l-2-3-1-7v-14l3-17 5-12 4-4 8-1 6 5 8 16 3 4v2h2l-1-10-4-16v-10l3-12 8-16 7-13 8-9z" fill="#C0A405"/>
<path transform="translate(172,235)" d="m0 0h2l1 466h-2l-2-8v-3l-5-2-3-17v-96l-1-11-1-34v-46l-1 236h-1l-1-183v-70l1-229z" fill="#F2F8F9"/>
<path transform="translate(619,234)" d="m0 0 3 1v2h2l7 11 7 10 11 23 6 22 3 17 1 13v26l-3 22-5 17-5 10-8 9-3 2h-10l-12-6-6-5-5 1-5 5-5 4-7 2h-11l-14-7-8-8-5-10-3-10v-9h2l4 11 8 9 9 4h10l12-6 5-4 1-5-4-10-1-5v-27l8-39 1-11 3-3 2 1 6 18 4 10 3 12 1 10v12l-3 24-1 5v8l5 4 2 1 9-1 6-4 6-7 6-13 2-7 1-8v-15l-3-22-8-23-8-17-3-3v23l2 29-3 1-3-9-2-15-2-22-2-27z" fill="#FDFBFB"/>
<path transform="translate(283,789)" d="m0 0 5 2 11 7 16 9 24 11 22 8 30 7 29 5 39 4 23 1-5 5-14 8-17 8-27 9-25 5-25 2-27 1h-27l-3 1-1 15 2 13 1 1 17 3 5 3 1-2h2l1-2h6l2-1 11-1v2l6-2 14-1-5 4h-3l-3 3-4-1v2l-14 7-7 1-1 1h-5-2l-7 4-1 5 5 9v2l3 1 1 8 1-7 4 1 5 4v2l3-1 5 5 7 5 23 7 7 1v1h-25l-2 1-9-5-4-10h-2l-1 5-4 1v-5l-3-1-1-2h-3l-1 3-1-3-4-1-4-6-3-11h-2v-4l1-8 2-7-4-5-1-2h-2l-1 7v12l-1 5-4-1v-11l-3-5-2-9-1-34-2-6 4-3 3-1-2-6-3-6-1-10 4-13 5-6 6-2 9 4 7 7 10 7 17 8 21 6 7 3 2 6 13-2 16-4 22-6h2v-2h-10l-28-4-29-6-25-7-2-2h10l4-1 1 2-2 1 1 1 10 2v-2h10v2l4 1 2 1h11l5 3 3 2 11 2h2l4-2h8v-2l-11-2-15-2-17-3-12-3-9-2-22-6-23-10-17-8-19-11-8-6z" fill="#CD970E"/>
<path transform="translate(820,568)" d="m0 0h2v2l-12 9-14 12-9 9-8 7-12 12-7 8-8 8-10 13-12 16-10 15-8 13-10 17-13 21-13 20-10 14-10 13 13 2 19 5 9 4 11 6 11 8 6 7 2 12-5 10-9 10-9 3-5-3-2-4-8 2-13 7-22 12-10 6-13 8-22 16-9 7-5 5-10 9-16 16-12 16v12h2l3 6 17 9 6 5 3 5-1 15-3 5h-2l-2 4-6 3h-8l-5-3 1-2 11-3 6-4v-8l-4-6-8-5-10-5-7-8-4-11-5 2-2 7h-3l-2 5-8 14h-2v9l-5 14-3 5-3 4h-2v8l-3-1v-10l3-12 13-25 16-24 8-11 10-11 9-11 20-20 8-7 14-11 13-10 16-10 24-14 22-12 11-4h8l5 5 4-2 3-7v-8l-5-5-10-6-10-5-16-5-21-4-15-2-29-3-13-3-2-1v-3h46l5-2 2-1v3l4-2 6-8 9-11 3-5h2l1-4 5-8h2l1-4 5-8h2l1-5 6-8 3-6 6-11 7-10 7-12h2l1-4 14-19 4-5h2v-3h2l2-4 5-4 2-4h2l1-4h2l2-5h2v-2h2l2-4 10-10 9-7h2l2-4 5-3 3-5 5-2 2-5 9-6 4-1v-2z" fill="#CD960E"/>
<path transform="translate(126,248)" d="m0 0 2 1v664l1 49 2 27 4 21 5 17 5 15 5 11 8 16 12 20 8 11 8 10 13 15 15 14 7 7 14 11 13 10 11 8 22 13 18 10 31 15 27 11 21 8 34 10 24 5 16 4 8 1-14-4-22-7-30-10-19-7-13-6-17-7-29-15-16-10-18-11-10-8-12-9-11-9-12-11-6-5-7-8-7-7-9-11-13-18-12-21-8-16-6-14-6-23-5-29-1-15v-246l1-188h1v405l2 36 2 17 5 24 6 20 10 23 6 11 12 20 14 18 10 11 7 8 9 9 11 9 8 7 28 20 21 13 14 8 23 12 35 15 30 11 30 10 20 6 24 6 19 4 10 1 9 2 10 1v2h-10l-13-1-36-4h-11l-6-2-8-1-7-2-10-3-1-1-10-2-20-7-41-14-33-13-15-7-13-6-12-6-15-9-26-17-14-11-11-9-11-10-22-22-10-13-11-14-10-15-5-8-2-5-6-11-6-16-4-13-4-16-4-18-1-6-1-17v-58l-2-15v-67l1-38 1-92v-421z" fill="#B57C12"/>
<path transform="translate(159,720)" d="m0 0h1l2 168 2 23v9l-1 7v48l3 23 7 28 3 7v3h2v2h3l-1-6 5-5 5-2 23-4 38-10 21-5 10-3 7-3 12-3 4-3 1-3 7-3 6-2-2-7 1-5h2l1-9-1-17-2-2-1 5-1 23h-2v2h2l-2 4h-2l-1-17 1-2h-4v-4l-2-1v-34l4 4 1 11 1 2 1 16 1-4 3-9 4 2v3h2l4 9v9l4 1 3 4h2v-5l5-1 3 3 9 3 4 4v2l3 1-2 4-15 6-9 3-14 4-18 5-7 3-19 6-25 7-37 9-28 7-1 5 6 16 11 23 14 21 1 3h2l12 16 11 12 10 9 8 8 17 13 18 13 21 13 24 13 16 8 25 11 26 10 22 8 27 8-4 1-18-5-24-8-14-5h-7l-1-4h-10-3l-5-1-29-13-25-13-16-10-21-14-19-14-10-9-11-9-13-13-9-11-7-8-12-17-7-11-14-28-6-16-5-18-5-26-2-29-1-18v-48z" fill="#E5E4E9"/>
<path transform="translate(913,1156)" d="m0 0h2l9 28 2 5h41l-1 4-13 11-14 10-1 1 1 8 6 21 4 10-1 3-7-4-9-8-13-9-3-2-5 1-16 13-12 10-2-1 3-10 5-20 3-9-12-10-15-11-5-5 1-1h41l2-9 5-14 3-11z" fill="#CE980E"/>
<path transform="translate(358,1264)" d="m0 0h2l11 33v2h42l-4 5-11 9-15 11-1 3 9 27 4 11v2l-4-2-26-20-6-3-11 8-11 10-9 7h-2l3-10 8-27-1-5-17-12-10-8-3-4 4-1h36l9-27z" fill="#CE980E"/>
<path transform="translate(140,1158)" d="m0 0 3 1 5 17 5 15h42l-2 4-15 12-10 7-3 3 2 11 6 20 3 7v4l-5-2-9-8-16-12-3-2-4 1-9 7-13 11-6 5h-2l2-9 6-23 2-5-1-4-13-10-18-13v-2l41-1 7-18z" fill="#CE980E"/>
<path transform="translate(699,1263)" d="m0 0 3 1 6 22 4 11 41 1-2 4-11 8-11 9-7 5 12 36 1 5-6-3-16-13-11-8-4 1-11 8-10 9-7 6h-2l1-7 5-16 4-14-1-4-18-13-13-11v-1h42l1-7 7-21z" fill="#CE980E"/>
<path transform="translate(470,1302)" d="m0 0h2l3 12 4 10 2 8v4h43v3l-12 8-14 12-5 4 1 4 6 18 5 14-1 4-5-3-12-9-14-11-6 1-10 9-11 9-5 4h-3l3-10 5-20 3-6v-3l-17-13-13-10-2-1v-3h24l16-1 4-9 7-22z" fill="#CF980E"/>
<path transform="translate(587,1301)" d="m0 0 4 2 7 21 2 11 43-1-2 4-8 6-20 16 1 7 10 32v2l-4-1-16-12-12-10-5 1-11 9-10 9-7 5h-2l3-12 6-20 2-7-12-10-18-13-2-3 1-1h14l26-1 6-19 2-5z" fill="#CE980E"/>
<path transform="translate(246,1218)" d="m0 0 4 4 10 30h41v3l-16 12-13 10 1 9 10 30v3l-5-2-20-15-8-7-4 1-26 22-5 2 8-28 3-8-1-5-14-11-16-12v-2h41l1-7 5-15 2-5 1-8z" fill="#CE980E"/>
<path transform="translate(805,1216)" d="m0 0h2l5 12 8 23h35l6 1-4 4-16 12-9 7h-2l2 9 10 31v2l-5-1-13-11-13-10-5-1-10 8-10 9-10 8-2-1 7-24 4-12-1-5-12-9-13-10-6-4 3-2h38l8-24z" fill="#CE970E"/>
<path transform="translate(995,1081)" d="m0 0 4 1 11 32 41 1-2 4-14 10-14 11 2 10 9 28v3l-4-1-13-11-13-10-5-2-11 10-10 8-3 1v2l-6 4-1-5 10-33-2-4-17-13-11-8-1-3 40-1 8-24z" fill="#CE980E"/>
<path transform="translate(55,1082)" d="m0 0h2l5 19 4 12v3h43v2l-18 13-13 11 1 5 6 18 3 11 1 6-5-2-27-21-5 1-10 9-10 8-7 6h-2l1-6 4-13 5-20-9-8-15-11-8-6 3-2h37l4-8 8-24z" fill="#CE980E"/>
<path transform="translate(668,234)" d="m0 0 3 1 6 8 11 18 8 16 7 17 6 24 1 6 1 30-1 17-5 19-7 14-7 9-7 4-8 1-11-4-5-7-3-9-1-12 4 2 7 6 7 1 10-4 10-10 6-13 3-11v-21l-3-14-7-21-10-20-4-6v11l3 25v18l-5-1-4-15-3-22-2-27-1-29z" fill="#FDFAFA"/>
<path transform="translate(783,446)" d="m0 0 10 3 2 2v6l-4 2-4 7-3 1-1 3-7 6-6 9-3 1 2-9 8-10 7-9-10 3-18 8-12 7-11 9-15 15-14 22-8 16-7 18-5 18-3 17-4-1v-14l4-30 6-20 6-16 6-15 6-12-5 2-13 8-9 7-10 11-4 4-6 5-2-3v-9l13-14 7-6h2v-2l11-7 14-7 8-1 4 4 1 7 6-3 15-11 17-10 9-4 15-6h5z" fill="#CC950F"/>
<path transform="translate(338,449)" d="m0 0 4 2 4 11 8 28 8 25 7 21 11 27 8 17 10 19 2 7 2 4-2 3 3 3 3 5 2 4 3 1 2 4 3 3v2l3 1 2 5 3 1 3 4v2l2 1 6 8 2 1v2h2v2h2l6 8v2l3 1 4 5v2l4 2v2l4 1 1 3 4 1v2l4 2v2l4 1v2l4 2 12 10 4 3v2l5 2 18 12v2l6 2 7 5-1 2-6-1-13-8-6-2-17-12-10-8-11-9-7-7-4-3v-2l-3-1-7-8-9-9-11-14-13-16-4-6-9-14-7-11-6-12-9-17-8-19-11-28-11-33-9-30-2-8-4 2-6 8-4 4-3 6-3 16-1 31-2-1-3-6-1-29 1-11 8-17 8-11 5-4z" fill="#BFA505"/>
<path transform="translate(216,719)" d="m0 0 5 1 3 5 4-1 1 2h-2l4 7 12 12 14 9 16 7 19 4 29 2 3 1 1 4-9 3-10 2-33 2 10 9 5 5 17 10 16 8 19 9 17 6 17 5 15 3 16 3 9 2 18 2 5 1-1 4h-8l-1 1 3 2-8-1-11-2-7-1 3-2-4-2h-12l-5-3v-2h-10v2l-10-1-2-2 2-2-10 1-11-2-25-10-14-7-22-13-11-8-10-9-3-4v-5l2-3v-3l-17-10-13-10-9-10-7-10-1-3v-7z" fill="#CB950F"/>
<path transform="translate(905,887)" d="m0 0h1l1 11 1 64 1 9 3 3 4-1h2l5 13 2-5 2-2 1-4v-11l1-9v-15l1-7h1v29l-2 26-3 16-5 20-7 19-6 12-3 8-8 13-7 11-8 11-4 4h-2v2h-2l-2 5-1 2h-2v2h-2v2l-4 1-1 3h-2l-2 4-6 5-2 5h-2l-1 3h-3l-1 3-4 2h-3l-2 4-5 5-5 2v-3l1-2h2l2-4 3-1 1-2h3l1-5h3l1-3h2l1-4 6-5h2l1-3 5-2v-2h2l2-5h2l2-5 2-3h2v-3h2l2-6 3-1 2-5 4-7h2l1-4 4-11 2-9-1-5-2-1 3-6 1-8 1-3h2v-6l3-9 2-13 2-4 2-32z" fill="#1B1615"/>
<path transform="translate(675,836)" d="m0 0h7l1 3-14 8-5 3-9 5-1 3-10 6-13 8-22 16-9 7-5 5-10 9-16 16-12 16v12h2l3 6 17 9 6 5 3 5-1 15-3 5h-2l-2 4-6 3h-8l-5-3 1-2 11-3 6-4v-8l-4-6-8-5-10-5-7-8-4-11-5 2-2 7h-3l-2 5-8 14h-2v9l-5 14-3 5-3 4h-2v8l-3-1v-10l3-12 13-25 16-24 8-11 10-11 9-11 20-20 8-7 14-11 13-10 16-10 10-6 9-3 8-5z" fill="#C1A804"/>
<path transform="translate(201,518)" d="m0 0 1 3h2v22l3 9 3 10 7 12 3 4v2l5 2 9 11 10 10 10 8 9 8 13 9 15 10 6 5 1 6-5 1-14-6-32-16-17-10-5-4-10-7-12-9-7-7h-2v10l5 17 8 16 11 13 11 9-4 1-2-1v-2h-2v-2h-2v-2h-2l-7-8-10-14-6-16-2-4v-15h-4l-1 8 2 15 1 7-3-4-2-5-2-10v-18l3-5 7-3h5l10 9 8 8 7 5 2-1-6-8-8-10-6-9-5-13-2-12v-20l1-7h2z" fill="#CB940F"/>
<path transform="translate(808,1137)" d="m0 0 2 1-9 9-14 11-6 4-1 5h-4l-1 3-3-1-3 2-1 4-3 2 1 2-17 10-26 15-21 10-28 12-21 8-22 7-38 11-36 8-12 2-19 1-21-2-31-7-26-7-36-12-25-9-12-5v-2l-2-1 15 2 1 4 8-1 15 6 26 8 14 4 16 3 22 6 23 5 11 2h12l28-5 35-9 40-12 22-8 22-9 23-10 29-15 27-16 11-8 18-13 11-10z" fill="#F8E9E9"/>
<path transform="translate(546,949)" d="m0 0h1l3 10 6 8 8 5 8 4 6 5 2 4v8l-9 6-9 2 1 2 3 1h8l7-4 1-2h2l2-5 1-13h2l1 4v8l-4 7-7 6-7 2h-7l-5-4v-3l-7 3-2 1h-8l-10-3-9-9-2 6-2 5v8l11 8 9 9 4 8v14l-4 7-6 5-4 1 5-5 4-6 2-4v-10l-2-6-2-1v2h-3v5l-5-5-1-3-4-2-9-6-6-3 2-9 4-4 3-5 3-8 2-6v-7l1-2h2l2-6 8-13h3l2-7z" fill="#CA930F"/>
<path transform="translate(901,239)" d="m0 0h2l1 664v56l-1 24-4 24-5 20-8 23-6 14-8 14-10 16-14 19-3 4-5 3-28 28-17 13-15 11-15 10-26 15-16 8v-2l23-13 11-7 9-5 17-12 13-10 16-13 7-6 7-8 5-4 5-6 6-5 9-12 5-7h2l2-5 11-18 4-7 8-18 9-27 6-26 2-39z" fill="#BC930B"/>
<path transform="translate(154,951)" d="m0 0h1l1 34 3 15 3 19 5 20 4 9 8 17 12 22 4 5 4 7 3 3 1 3 3 3v2l3 1 5 6v2l3 1 4 5 1 3 2 1 2 5 3 2 3 5 5 6-1 3-5-1-4-1v-2l-4-2-4-3v-2l-4-1-17-17v-2l-3-1-10-12v-2h-2v-3h-2l-4-5v-2h-2l-8-14-7-11-6-11-2-5-6-11-4-11 1-2 1 3 2 1 5 13v2l2 1 6 9 2 4 4 6-2-5-1-6-4-9-5-15v-9h2l2 2 1-5-2-18-2-9-1-16-1-20z" fill="#1B1615"/>
<path transform="translate(830,520)" d="m0 0h17l12 3 2 3 4 2-1 4h-2l-2 4-5 5-9 6-8 6-4 4-8 7-5 3-3 4h-3v2l-5 3-6 4h-2l-2 5-5 2-1 4-4 4-4 2-3 3-11 9-9 9-1 2h-2v2h-2l-2 5h-2l-1 4-2 1-2 4-6 5-1 2h-2v3l-5 5-15 20-1 3h-2l-2 5-7 11-8 13-6 11-6 9-1 3h-2l-2 5-4 7h-2l-2 5-4 7-3 3-6 8-8 10-2 5-6 1 2-6 10-14 13-18 7-11 17-28 9-15 9-14 8-12 16-21 12-14 7-8 5-6 4-4h2l2-4 4-4h2l2-4 8-7 12-11 11-9 17-14 16-11 11-8 5-3h2v-2l-4-1-17-1-8-3-1-3z" fill="#E2AA05"/>
<path transform="translate(858,440)" d="m0 0h23l7 4 1 6-1 2-5 3-10 9-7 6-6 7h-2l-2 4h-2l-2 4-4 5h-2v2h-2v2h-2v2l-4 4-5 3-4 2-2 4-8 9-5 3h-2l-1 4-3 5h-2v2l3 1-5 3-3 3-15 10-4 2v-3l5-5 9-10 7-8 2-3h2l2-4 52-52 8-7 10-9v-2h-9l-21 3-20 8-16 9-12 9-10 9-15 14-18 22-8 10h-2l3-10 8-11 3-3 4-5 3-5 7-8 21-21 9-6 8-4 7-5 9-4h2v-2l9-4 7-1 6-2z" fill="#E1A905"/>
<path transform="translate(914,1047)" d="m0 0 1 3-2 7-1 3h-2l-1 4-7 12-7 11-8 12-1 3h-2l-2 4-7 10-4 8-4 2v3l-4 1v2l-8 7-7 6-5 5-7 5h-2v2l-10 7-13 9-11 8-9 6-8 4-2 2-7 3-2 2-7 3-24 12-6 2-9 4-28 11-31 10-31 9-22 6-24 5-13 2-15 2h-12l-16 1-17-2v-1h15l19-2 29-6 24-6 30-9 30-10 24-10 29-13 6-2 16-8 21-12 17-11 14-10 18-14 10-9 23-23v3l-9 10-17 17-14 11-13 10-24 16-11 6-15 9-23 11-27 12-26 10-33 11-35 10-15 4 9-1 27-5 38-10 32-10 28-11 36-16 25-13 19-11 15-10 16-12 16-13 15-15 6-5 7-8 8-9 8-11 8-12 14-24 6-13z" fill="#B57C12"/>
<path transform="translate(363,904)" d="m0 0h3l1 3h17v4l-12 7h-2l-1 3h-1l-1 5h-1l-1 18v9l2-2 1 9 1-14h2v7l2 3-1 2h2v6h2v2h2l1-9 4-1v-7l2-13 3-3 1 11 2-3v2h3l4 12-2 4-3 2h-2l-2 5 1 4 12-3 4 1-15 5h-7l-23-7-9-7-4-3h-2l-5-5-4-2v7l-2 1-1-9-3-3-5-9 1-5 5-4h3l1-2 1 1h5l1-1 9-2 10-5h2v-2h6l1-3 4-1 2-1-12 1-6 1-1-1h-10v-2l13-1z" fill="#271716"/>
<path transform="translate(158,537)" d="m0 0h1v405l2 36 2 17 5 24 6 20 10 23 6 11 12 20 14 18 10 11 7 8 9 9 11 9 8 7 28 20 21 13 14 8 23 12 35 15 30 11 30 10 20 6 12 3v1l-10-1-18-5-22-7-30-10-19-7-13-6-17-7-29-15-16-10-18-11-10-8-12-9-11-9-12-11-6-5-7-8-7-7-9-11-13-18-12-21-8-16-6-14-6-23-5-29-1-15v-246z" fill="#C0A904"/>
<path transform="translate(754,1430)" d="m0 0 3 1 5 17 7 21v5l-7 3-8 1-7-6-15-11 3 11 3 8v3l-11 4-4-1-7-25-3-14 1-4 12-2 14 10 8 6-2-9-4-11v-2l9-3z" fill="#CE980E"/>
<path transform="translate(253,1410)" d="m0 0 25 10 8 5 3 4v7l-2 4-6 3 2 4 1 1v9l-6 7h-10l-15-5-17-7 1-5 13-30zm10 16-3 5 2 3 4 1h7l2-3-1-4-3-2zm-6 15-2 3v5l8 4h6l1-6-4-4-5-2z" fill="#CE980E"/>
<path transform="translate(306,922)" d="m0 0 4 4 1 11 1 2 1 16 1-4 3-9 4 2v3h2l4 9v9l4 1 3 4h2v-5l5-1 3 3 9 3 4 4v2l3 1-2 4-15 6-9 3-14 4-18 5-7 3-19 6-25 7-37 9-28 7-1 5 2 9-2-2-1-5-5 2v-2h2l-1-6 5-5 5-2 23-4 38-10 21-5 10-3 7-3 12-3 4-3 1-3 7-3 6-2-2-7 1-5h2l1-9-1-17-2-2-1 5-1 23h-2v2h2l-2 4h-2l-1-17 1-2h-4v-4l-2-1z" fill="#FAE9E9"/>
<path transform="translate(892,1369)" d="m0 0h7l7 4 2 3v9l-3 5 11 4 9 5-1 3-14 7-12-7-10-2 8 16v2l-10 6-5-1-18-34-2-4 22-12zm-4 12-8 4 1 6 5 2 6-4 2-2v-5l-1-1z" fill="#CE980E"/>
<path transform="translate(490,1466)" d="m0 0h8l7 1-1 15h15l1-14 2-1 13 1v44h-16v-17l-15-1-1 18h-15l-1-5 2-40z" fill="#CE980E"/>
<path transform="translate(932,245)" d="m0 0 2 1v514l-1 205-2 22-4 22-8 25-8 20-8 16-3 5h-2l2-5 6-11 3-7 5-11 7-21 5-19 3-22 1-17v-43l1-135 1-116v-406l-1-7-1-4h2z" fill="#271716"/>
<path transform="translate(330,1441)" d="m0 0h13l10 3 8 7 3 5v16l-4 8-6 5-8 3-12-1-10-4-8-7-3-7v-10l5-10 8-7zm8 10-6 3-3 5-1 10 3 5 4 3h8l5-6 1-3v-11l-5-5z" fill="#CE980E"/>
<path transform="translate(322,823)" d="m0 0 10 3 22 8 33 9 21 4 28 4 10 1v2l-24 7-16 4-13 2-3-7-24-7-12-5-13-7-12-11-9-4z" fill="#FDFBFB"/>
<path transform="translate(126,248)" d="m0 0 2 1v652l-1 12-2-4-2-15v-67l1-38 1-92v-421z" fill="#B57C12"/>
<path transform="translate(886,725)" d="m0 0 2 1 1 149 3 73 2 12h1l1 5 2-58h1v50l-1 28-2 15-3 14-4 10-4-1v-6l-7 22-5 13-10 19-11 19-13 18-12 13v-3l11-13 9-12 13-22 8-16 7-15 7-23 3-20 1-12z" fill="#FAE9E9"/>
<path transform="translate(581,1465)" d="m0 0 3 1v10l-12 1h-12l1 6 22-1 1 9-3 1h-20v9l26-1 1 2v9l-19 1h-24v-45z" fill="#CE980E"/>
<path transform="translate(326,876)" d="m0 0 68 1v1l-25 2-27 1h-27l-3 1-1 15 2 13 1 1 17 3 5 3 1-2h2l1-2h6l2-1 11-1v2l6-2 14-1-5 4h-3l-3 3-4-1v2l-14 7-7 1-1 1h-5-2l-7 4-1 5 5 9v2l3 1 1 8 1-7 4 1 5 4v2l3-1 5 5 7 5 23 7 7 1v1h-25l-2 1-9-5-4-10h-2l-1 5-4 1v-5l-3-1-1-2h-3l-1 3-1-3-4-1-4-6-3-11h-2v-4l1-8 2-7-4-5-1-2h-2l-1 7v12l-1 5-4-1v-11l-3-5-2-9 1-17 1-15 1-2z" fill="#B57B12"/>
<path transform="translate(201,1387)" d="m0 0 6 1 9 4-2 5-9 17-2 5 1 6 6 3h6l5-8 7-16 2-4 5 1 9 4-3 9-9 19-6 7-5 2-10-1-14-7-7-7-2-4v-8l5-12z" fill="#CE980E"/>
<path transform="translate(849,1391)" d="m0 0h4l8 16 6 13v7l-5 8-10 7-9 3h-13l-6-5-11-23-1-8 12-5 7 15 5 10 4 4 5-1 5-2 1-4-5-15-6-11 1-4z" fill="#CF980F"/>
<path transform="translate(699,1447)" d="m0 0h5l2 4v5l-14 3-10 3v6l15-4 9-1 3 7v2l-23 6v6l9-1 14-3 5 1 1 8-9 3-26 6h-6l-2-6-6-32-1-6 23-4z" fill="#CE980E"/>
<path transform="translate(549,1159)" d="m0 0 9 1 7 4 3 6 1 4v17l-4 10-6 4h-14l-5-3-4-5-2-4-1-13 1-9 5-8 5-3z" fill="#FBEAE9"/>
<path transform="translate(547,1103)" d="m0 0h11l2 3v12h14l1-14 1-1h11l1 1 1 15v25l-1 2h-12l-1-2-1-15h-14v15l-1 2h-11l-2-2v-38z" fill="#FBEAE9"/>
<path transform="translate(304,871)" d="m0 0m-1 1 3 2 1 4 1 34 2 9 3 5-1 11h2l2-4v-12l1-7h4l3 4 2 4-3 11 1 5h-2v2l3-1 3 12 4 6 3 1 1 2 1-2 4-1 1 3 2 1 1 4h3v-6l4 1 4 10 8 4 7-1 20 1v-2l18-6 17-7 18-10 5-3 2 1-9 6-9 5-20 10-7 2-7 3-1 4 11-2 12-5 6-1-5 4-15 6-12 4-12 1-14-4-2-2-3-1v2l-6 2 1-4-2-1v-2l-4-2v-2l-9-2-3-3h-4l-1 5h-2l-1 2-3-6-3-1v-9l-2-1-2-5v-3h-2v-3l-4-1-3 15-2-4-1-15-1-2-1-11-2-3-2-9-4-1 1-39z" fill="#D0990D"/>
<path transform="translate(116,1342)" d="m0 0h14l9 4 8 7 4 8v9l-4 1-8-4-3-9-6-4-6 1-5 5-4 6 1 7 5 4 7 1 3-3 4 1 6 8-1 4-6 3h-11l-10-5-7-6-5-9-1-8 3-9 6-8z" fill="#CE970E"/>
<path transform="translate(127,245)" d="m0 0 2 1v452l1 92 1 45v112l1 27 2 12v8l2 9 2 4 1 8 3 7v5l-2-4v-2l-3-1-5-19-3-21-1-18-1-61z" fill="#251716"/>
<path transform="translate(197,679)" d="m0 0 3 1v2l4 1 2 1 3 11 4 2 7 6 5 3 12 8 13 5h2l-15-7v-2l6 2 13 6 33 7 17 3 3 4-1 4-5 1h-14l-25-3-34-7-5-3-1 2-4-6-3-1 1-3 6-1-7-8-7-7-5-6-2-1z" fill="#CC950F"/>
<path transform="translate(636,1458)" d="m0 0h12l9 6 2 3-1 4-6 2h-5l-4-3h-7l-5 5-1 2 1 9 2 5 4 3h6l5-3 2-7h12l1 1v6l-6 9-7 4-10 2-11-1-6-4-5-6-3-8v-11l3-7 5-5 6-4z" fill="#CE980E"/>
<path transform="translate(506,1159)" d="m0 0 9 1 6 4 4 5 2 6v14l-3 9-5 5-3 2h-15l-5-3-3-3 1-5 8-1 2 1v3l7-1 3-5v-2h-13l-6-3-3-4-1-3v-9l4-6 6-4z" fill="#FBEAE9"/>
<path transform="translate(510,1103)" d="m0 0h13l3 3 8 21 6 14v5h-12l-4-6h-14l-4 6h-11l-1-3 12-31z" fill="#FEFEFE"/>
<path transform="translate(400,1103)" d="m0 0h11l4 4 8 21 4 10v8l-1 1-9-1-5-6h-15l-2 6-1 1-9-1-3-3 8-19 6-16z" fill="#FEFEFE"/>
<path transform="translate(287,910)" d="m0 0 4 2 1 15v41l-2 18-7-2-3-3-1-5h-2l-3-14-1-15v-20l3-12 5 1 1-4h5z" fill="#E4E3E7"/>
<path transform="translate(635,509)" d="m0 0h7l6 7 2 2 6-8 1 2v6h3l4-4-2 6-5 9-5 12-6 21-2 18v21h-3l-3-9-3-23-1-15v-23l1-11h-2l2-4 5-2-1-3-5 1-4 1z" fill="#CD960F"/>
<path transform="translate(338,579)" d="m0 0 3 1 6 15 12 21 8 11 9 12 9 11 7 7 2 1v2l-6-1-11-6-14-10-11-10-6-5-7-10-4-11v-17z" fill="#CB940F"/>
<path transform="translate(221,507)" d="m0 0 4 1 4 7v3h2l6 12 7 9v2h2l9 11 3 1-10-20-5-13-3-9 3-3 2 2 6 17 9 17 13 17 13 16 8 9v2h2l5 8 1 4-5 1-10-9-11-11-8-7-10-10-9-11-1-3h-2l-6-7v-2h-2l-13-18-4-6-1-9z" fill="#DDA506"/>
<path transform="translate(265,779)" d="m0 0 6 1 2 1v2l4 2 17 12 24 13 25 11 14 5 17 5 15 3 16 3 9 2 18 2 5 1-1 4h-8l-1 1 3 2-8-1-11-2-7-1 3-2-4-2h-12l-5-3v-2h-10v2l-10-1-2-2 2-2-10 1-15-5-19-8-3-4h-4l-2-4h-6l-11-6v-2l-5-1-14-9v-2l-4-1-1-3-5-2v-2l-4-2z" fill="#E6AE04"/>
<path transform="translate(480,926)" d="m0 0h4l-1 8-7 23h-1v-6l-4 2-2 7 1 5-3 9-2 8 1 13 4 12-1 3-4-9-2-7-1-16 3-21 1-8-8 3-8 6-12 7-8 4-9 2-16 6h-7l1-5 7-3 9-3 17-8 15-9 5-5 13-9 12-8z" fill="#CB930F"/>
<path transform="translate(242,454)" d="m0 0 1 4-6 12-3 11 1 25h2l2 6 1 4h2l6 14 4 10 6 10v3l-4-1-8-9v-2h-2l-9-12-4-9v-2h-2l-4-8v-2h-4v8l-8-10h-2l-5 19v16l4 15 8 16 6 8-1 2-5-5-6-9-4-9-2-7-3-9v-12l1-10-5-1v31l-2-3-1-7v-14l3-17 5-12 4-4 8-1 6 5 8 16 3 4v2h2l-1-10-4-16v-10l3-12 8-16z" fill="#C0AA03"/>
<path transform="translate(373,1218)" d="m0 0 15 2 1 4 8-1 15 6 26 8 14 4 16 3 22 6 23 5 11 2h12l23-4h5l-3 2-27 5-19-1 8 1h21l35-7 19-5 5-2 8-2 5-2 16-4 4 1-16 5-27 8-36 8-12 2-19 1-21-2-31-7-26-7-36-12-25-9-12-5v-2z" fill="#E3E3E9"/>
<path transform="translate(392,601)" d="m0 0 3 3 5 9 3 3 3 5 2 4 3 1 2 4 3 3v2l3 1 2 5 3 1 3 4v2l2 1 6 8 2 1v2h2v2h2l6 8v2l3 1 4 5v2l4 2v2l4 1 1 3 4 1v2l4 2v2l4 1v2l4 2 12 10 4 3v2l5 2 18 12v2l6 2 7 5-1 2-6-1-13-8-6-2-17-12-10-8-11-9-7-7-4-3v-2l-3-1-7-8-9-9-11-14-13-16-4-6-9-14-3-8-5-8z" fill="#E0A805"/>
<path transform="translate(903,239)" d="m0 0h5v11l-1 24-1 8-1 123v499l-2-1z" fill="#271716"/>
<path transform="translate(376,1451)" d="m0 0 9 1 25 4 2 1-1 9-13-1-9-2-1 8 17 2 1 5-2 4-18-1-2 7-1 9-9-1-6-2 1-9 5-27z" fill="#CE980E"/>
<path transform="translate(944,1333)" d="m0 0h1v12l-1 21 10 13 1 3-11 7h-4l-6-10-5-5-18-6-9-4 1-3 6-4 4-3 6 1 13 6-1-7v-9l4-5z" fill="#CE970E"/>
<path transform="translate(803,1413)" d="m0 0h2l2 6v5l-9 3h-3l5 17 7 14-1 3-11 4-4-2-6-15-5-12-3-1-8 4-4-1-2-6v-4l25-9z" fill="#CF980E"/>
<path transform="translate(164,1364)" d="m0 0 11 6 2 4-7 11-7 14v3l12 7 6 2v5l-3 7-6-2-26-15-5-3 1-4 7-10 9-15z" fill="#CE980E"/>
<path transform="translate(438,1462)" d="m0 0 21 1 23 2 1 3-1 9h-15l-2 26-1 6h-9l-5-1 1-23 1-11-11-1-4-2z" fill="#CE980E"/>
<path transform="translate(331,630)" d="m0 0 4 2 6 10 17 17 10 8 9 8 9 6 8 5v1h-7l-23-7-17-9-9-8-8-13v-18z" fill="#CA920F"/>
<path transform="translate(842,1117)" d="m0 0v3l-9 10-17 17-14 11-13 10-24 16-11 6-15 9-23 11-27 12-26 10-33 11-35 10-15 4 9-1 27-5 11-3h5v2l-18 5-24 5-13 2-15 2h-12l-16 1-17-2v-1h15l19-2 29-6 24-6 30-9 30-10 24-10 29-13 6-2 16-8 21-12 17-11 14-10 18-14 10-9z" fill="#BD920B"/>
<path transform="translate(283,789)" d="m0 0 5 2 11 7 16 9 24 11 22 8 30 7 29 5 39 4 23 1-2 3h-2v-2l-19 2 2 5-1 2-7 1-10 3-7 1 1-2 9-2v-2h-10l-28-4-29-6-25-7-2-2h10l4-1 1 2-2 1 1 1 10 2v-2h10v2l4 1 2 1h11l5 3 3 2 11 2h2l4-2h8v-2l-11-2-15-2-17-3-12-3-9-2-22-6-23-10-17-8-19-11-8-6z" fill="#C9910F"/>
<path transform="translate(359,921)" d="m0 0 4 2v40h-4l-3-3-2-1-1-5h-4v-2l-4-1-4-3-6-2-1-3-5-5-1-5 5-4 10-2 8-2z" fill="#100C0C"/>
<path transform="translate(560,932)" d="m0 0 3 1-6 8v12h2l3 6 17 9 6 5 3 5-1 15-3 5h-2l-2 4-6 3h-8l-5-3 1-2 11-3 6-4v-8l-4-6-8-5-10-5-7-8-4-11v-3l3-5 8-6z" fill="#CA930F"/>
<path transform="translate(634,1103)" d="m0 0h11l4 3 4 9 4-1 6-10 2-1h10l1 4-10 15-4 8-1 14-2 2h-7l-2-1-1-3-1-13-11-18-3-5z" fill="#FDFDFD"/>
<path transform="translate(546,949)" d="m0 0h1l3 10 6 8 8 5 8 4 6 5 2 4v6l-5 4-4-1-4-8-7-3h-11l-3 2-1 8-5-1-6-5 1-7 5-8 2-15z" fill="#130D0D"/>
<path transform="translate(599,1103)" d="m0 0h11l2 2 1 30 4 1 13 1 2 1 1 5-2 3-13 1h-15l-5-3v-38z" fill="#FEFEFE"/>
<path transform="translate(161,823)" d="m0 0h1l1 16 1 47 2 10h2l5 10 2 6v15l-3 11-7 9-1 5v13l2 27 2 5 4 18 4 14 4 2 1 7h-3v-2h-2l-4-10-8-33-2-20v-46l1-14-1-16-1-9z" fill="#F3F9FA"/>
<path transform="translate(439,1102)" d="m0 0 8 1 1 2 1 30 20 2 1 8-3 2h-29l-3-3v-39l1-2z" fill="#FEFEFE"/>
<path transform="translate(319,837)" d="m0 0 5 2 12 10 16 8 20 8 7 2 1 2-18 1-24-3-12-4-9-7-2-3v-8z" fill="#120D0D"/>
<path transform="translate(336,448)" d="m0 0h6l5 8 10 38 12 37 3 8 5 13 3 7 6 13 6 12v3h2l2 4v3h2l7 14 3 5 12 17 10 15 11 13 9 10 7 8 12 12 6 5-1 2-3-3-4-1v-2l-4-1-2-3-3-1-5-6v-2l-3-1-9-11v-2h-2v-2h-2v-2l-4-2-6-8-4-6-4-4-4-5v-2l-4-2-1-3-5-5-3-5-3-4 2-3-3-4-1-6-16-32-10-23-9-26-7-21-10-35-4-11-7-1z" fill="#CD960F"/>
<path transform="translate(369,879)" d="m0 0h16v1l-18 3-9 1h-23l-1 2-4 1-1 2h-2l1 7v6l-1 7v2l9 1 3-1h7l2 2-4 1-7 1-1 3-5-3-17-3-2-2-2-13 1-15 4-2h34z" fill="#271715"/>
<path transform="translate(537,1031)" d="m0 0 3 1 2 6v10l-5 9-6 5-3 3h-16l-4-5-1-6 2-8-11 2-3 1 1-3 3-2v-4h-7v-2l8-3 10 1 6 3 4 4 1 3v8l8-2 4-4 1-7v-8h3z" fill="#C7900F"/>
<path transform="translate(331,677)" d="m0 0 5 1 6 5 15 9 21 10 17 6 1 3h-13l-21-2-14-5-8-6-5-8-4-11z" fill="#C8910F"/>
<path transform="translate(575,1160)" d="m0 0h32l3 2-1 7-8 11-5 14-2 9-1 1h-8l-1-1 1-9 5-13 6-10-20-1-1-1z" fill="#FAE9E9"/>
<path transform="translate(318,828)" d="m0 0h5v2h2v2l5 2 7 6 1 3 5 1v2l6 2h2v3h5l7 2 14 5 6 2 4 1 1 4h2l-1 3-16-3-3-2v-2l-16-2-16-8-8-6-6-7-3-2-4 1-2 6-4 1v9l1 6h-3l-2-6v-15h2l2-5 3-4z" fill="#E3AB05"/>
<path transform="translate(306,922)" d="m0 0 4 4 1 11 1 2 1 16 1-4 3-9 4 2v3h2l4 9v9l4 1 3 4h2v-5l5-1 3 3 7 2-2 2-10-2-2 12h-11v2l2 1-5 1-3-3 1-17-1-17-2-2-1 5-1 23h-2v2h2l-2 4h-2l-1-17 1-2h-4v-4l-2-1z" fill="#E5E3E9"/>
<path transform="translate(201,518)" d="m0 0 1 3h2v22l3 9 3 10 7 12 3 4v2l5 2 7 9 1 3 4 5v2l8 4v2l5 2 4 6-4-2-8-6-5-3-5-5v-3h-2l-1-1h-4v-2l-6-2-8-10-6-9-5-13-2-12v-20l1-7h2z" fill="#BFAA03"/>
<path transform="translate(385,1235)" d="m0 0 9 2 22 6 20 4 16 4 31 4 22 5 10 1 9 2 10 1v2h-10l-13-1-36-4h-11l-6-2-8-1-7-2-10-3-1-1-10-2-20-7-17-6z" fill="#B07911"/>
<path transform="translate(469,1159)" d="m0 0h6l2 2v42l-2 2-9-1-1-2v-21l-1-3-11 1-1-5 8-7 5-5z" fill="#FEFEFE"/>
<path transform="translate(275,1174)" d="m0 0 4 1 3 2v2l5 2 11 6 6 4 14 8v2l7 2 4 3 7 3 17 8 5 2 9 3 5 3 14 6 1 2-7-1-12-4-15-6-6-1-1-2-21-9-21-10-5-3-9-5-12-9-3-1-1-7z" fill="#100C0C"/>
<path transform="translate(703,472)" d="m0 0 3 1-4 1 1 2 5 2-1 8-5 8-1-2 4-9-5 2-13 8-9 7-10 11-4 4-6 5-2-3v-9l13-14 7-6h2v-2l11-7z" fill="#CB940F"/>
<path transform="translate(554,1162)" d="m0 0 6 1 5 4 2 9v12l-2 8-4 5-4 2h-11l-5-2-4-5-2-7v-14l2-6 5-5 4-1-2 11v15l2 7 3 2 6-1 2-3 2-10v-10l-5-11z" fill="#FEFEFE"/>
<path transform="translate(449,946)" d="m0 0 2 1-9 6-9 5-20 10-7 2-7 3-1 4 11-2 12-5 6-1-5 4-15 6-12 4-12 1-14-4-2-2-3-1v2l-6 2 1-4-2-1v-2l-4-2v-2l-9-2-5-6-2-1v-3l4-1 1 3 2 1 1 4h3v-6l4 1 4 10 8 4 7-1 20 1v-2l18-6 17-7 18-10z" fill="#CC950E"/>
<path transform="translate(587,980)" d="m0 0h2l1 4v8l-4 7-7 6-7 2h-7l-5-4v-3l-8 3-9-1-6-3-1-5 8 1h3l-2-10 4-3h11l7 3 3 4 2 5 5-1 3-2-2 4-7 4-9 2 1 2 3 1h8l7-4 1-2h2l2-5z" fill="#CB940F"/>
<path transform="translate(684,793)" d="m0 0 5 1 9 4 14 8 6 7v7l-5 10-7 4-5 3 2 4 6-1 6-5 3-4h2l2-6 3-3 1 2-6 9-7 8-9 3-5-3-2-4-8 2-13 7-20 11h-2l2-4 12-6 9-6 5-2v-3l-7 1-17 9-2 2-6 1 3-3 22-12 14-7 6-2h8l5 5 4-2 3-7v-8l-5-5-10-6-16-8z" fill="#C8900F"/>
<path transform="translate(172,235)" d="m0 0h2v359h-1l-1-150-1-200-2-7z" fill="#FAE9E9"/>
<path transform="translate(193,578)" d="m0 0h5l10 9 8 8-3 1-8-7-4-2 3 7 5 6 15 10 1 3-5-2-13-10-8-7-3-3h-2v10l5 17 8 16 11 13 11 9-4 1-2-1v-2h-2v-2h-2v-2h-2l-7-8-10-14-6-16-2-4v-15h-4l-1 8 2 15 1 7-3-4-2-5-2-10v-18l3-5z" fill="#C9920F"/>
<path transform="translate(254,1152)" d="m0 0 5 1 13 10 17 12 21 13 14 8 23 12 35 15 30 11 30 10 20 6 12 3v1l-10-1-18-5-22-7-30-10-19-7-13-6-17-7-29-15-16-10-18-11-10-8-12-9-6-5z" fill="#BB8B0E"/>
<path transform="translate(465,844)" d="m0 0h13l-1 4-14 8-17 8-14 5-22 4-10-1 2-3 8-3h8v-2l25-8 13-4 3-1v-2-3l-2-1z" fill="#E3AB05"/>
<path transform="translate(325,472)" d="m0 0 1 2-5 11-2 9v30l6 25 1 9-4-1-6-7 1-2 4 4 2 3-1-7-4-5-4-4-4-7v-3h-2l-4-8-4-5-2-7-1-1v-6h-2l-1-7 4 5 8 13 1 1 1-2v-12l2-13 1 4v12l1 19 3 6 1-30 3-16 5-9z" fill="#C9920F"/>
<path transform="translate(459,942)" d="m0 0h2l1 4-3 4h-3l-1 3-2 1-1 3-14 8-8 4-9 2-16 6h-7l1-5 7-3 9-3 17-8 15-9 9-6z" fill="#C1A903"/>
<path transform="translate(601,317)" d="m0 0 4 2 3 23-2 29-1 2-4-1-4-10-1-5v-21l3-14z" fill="#E52E27"/>
<path transform="translate(473,951)" d="m0 0h2v9l-2 12v14l2 11 6 11 2 3-1 4-4 2-8-5-5-17-1-13 3-11 2-6-1-7 3-6z" fill="#C0A903"/>
<path transform="translate(673,784)" d="m0 0h6l10 4 8 5 10 3 11 9 3 6v5l3 1 1 3-4 9-7 8-5 4-6 1-3-3 1-3 11-6 5-10v-7l-5-6-17-10-13-5-3-3-6-3z" fill="#E7AF04"/>
<path transform="translate(197,654)" d="m0 0 6 2v4l-4 2-4 1v5h2l1-2 3 4v2h2l4 7 5 5 7 9 1 3h2l5 5 7 6 3 2v3l9 3 7 4-3 1-15-6-11-8-6-4-9-7-3-7v-4l-6-2-5-6-2-8v-11z" fill="#E0A805"/>
<path transform="translate(154,880)" d="m0 0h1l1 28v16h-2l-2-16h-2l-1 5-4 2v-2h-2l-3-7 2-1-3-5v-8l3-7 4-3 3 1 2 4 2-2z" fill="#1B1615"/>
<path transform="translate(387,933)" d="m0 0 1 4 1 7 2-3v2h3l4 12-2 4-3 2h-2l-2 5 1 4-16-2-7-4 1-4 1-14h2v7l2 3-1 2h2v6h2v2h2l1-9 4-1v-7l2-13z" fill="#1C1615"/>
<path transform="translate(795,1169)" d="m0 0 4 1-2 3h-2v3l-3 2h-3l-1 2-2 2h-3v2l-4 2h-3v2l-8 4h-2l-1 3-9 5-17 9-18 6 1-3 5-3 5-2 5-3h2l1-3 10-6 12-6 5-1v-2l3-3 5-2 11-6z" fill="#100C0C"/>
<path transform="translate(188,593)" d="m0 0h4l1 15 8 20 12 17 4 3v2h2v2h2v2h2v2l-5-2v-2h-3v-2h-2l-4-4-7-2-6-8-5-9-3-11-2-16z" fill="#C0A405"/>
<path transform="translate(548,1105)" d="m0 0h10l1 14 3 3-3 6-1 15-1 2-8-1-1-2z" fill="#FEFEFE"/>
<path transform="translate(216,719)" d="m0 0 5 1 5 8 7 9 10 10 15 10 6 3v2l-4 1-1-3-7 1-9-5-9-7-5-5-8-9-4-6v-2h-2v-7z" fill="#E6AE04"/>
<path transform="translate(513,1163)" d="m0 0 7 2 4 7 1 3v14l-3 8-5 5-3 1h-14l-4-4v-3l5-1 2 1v2l6 1 4-2 3-9-3-4 2-4 1-6-2-7-2-2z" fill="#FEFEFE"/>
<path transform="translate(636,510)" d="m0 0 5 1-1 3-6 4-3 5-11 14-6 10-1-2h-2l-1 4-5-1 3-6-2-2 12-18h2v-2h2v-2l7-5z" fill="#CB950F"/>
<path transform="translate(578,1105)" d="m0 0h8v37l-1 2h-7l-1-1-2-15-2-3v-4h2l2-15z" fill="#FDFDFD"/>
<path transform="translate(599,1103)" d="m0 0h11l2 2 1 30 4 1 13 1 2 1 1 5-2 3-13 1h-15l-5-3v-38zm2 2-1 1v37l4 2 8-1 3-2-1-4-3-1-1-7v-25z" fill="#FBEAE9"/>
<path transform="translate(159,238)" d="m0 0h6v4l-2 4-1 6-2 209h-1z" fill="#E3E3E9"/>
<path transform="translate(634,1103)" d="m0 0h11l4 3 4 9 4-1 6-10 2-1h10l1 4-10 15-4 8-1 14-2 2h-7l-2-1-1-3-1-13-11-18-3-5zm5 2-1 5 10 14 3 6 1 11 1 2 5-1 1-2 2-14 5-9 6-9-2-3-5 2-8 11-3 1-3-3-5-10-1-1z" fill="#FAE9E9"/>
<path transform="translate(339,968)" d="m0 0 10 2h4l4 4v2l3 1-2 4-15 6h-7l-8 1-3-2 1-5 7-1 4 1v-7z" fill="#FDFDFD"/>
<path transform="translate(537,1031)" d="m0 0 3 1 2 6v10l-5 9-7 6-3 1h-14l-3-4v-6l5 1v3l5-1 7-2v-2l5-3 2-4v-13h3z" fill="#BFA804"/>
<path transform="translate(632,1247)" d="m0 0m-5 1h5v2l-18 5-24 5-13 2-15 2h-12l-16 1-17-2v-1h15l19-2 20-4h9v1l9-1 27-5z" fill="#B68010"/>
<path transform="translate(373,1218)" d="m0 0 15 2 1 4 8-1 15 6 26 8 14 4 8 1v2l12 3 4 3-15-2-6-3-13-2-16-5-22-7-12-3-17-7v-2z" fill="#F3F9FA"/>
<path transform="translate(597,250)" d="m0 0h5l1 4-6 5-3 2v3h8l3 1 1 6-6 9-5 5-4 2h-5l5-5 8-7v-1l-10-2-2-3v-9l5-7z" fill="#FDFAFA"/>
<path transform="translate(903,239)" d="m0 0h5v11l-1 24-1 8-1 123h-1l-1-77z" fill="#251815"/>
<path transform="translate(549,1167)" d="m0 0 5 1 3 6v18l-3 5h-6l-3-5-1-15 2-7z" fill="#E43127"/>
<path transform="translate(157,725)" d="m0 0h1l1 217 1 18v33h-1l-2-22z" fill="#BB870F"/>
<path transform="translate(287,898)" d="m0 0 4 1v13h-3l-3 1-3-1-1 4-5-1-1 7-1 8-1 13h-1l-1-21-1-12 3-8 4-2 3 2 1-2z" fill="#F2F8F9"/>
<path transform="translate(837,1120)" d="m0 0 2 1-27 27-17 13-15 11-15 10-26 15-16 8v-2l23-13 11-7 9-5 17-12 13-10 16-13 7-6 7-8 5-4 4-4z" fill="#C7A209"/>
<path transform="translate(400,1103)" d="m0 0h11l4 4 8 21 4 10v8l-1 1-9-1-5-6h-15l-2 6-1 1-9-1-3-3 8-19 6-16zm2 1-2 1-7 16-6 16-1 1v6l8 1 4-7 2-1h11l4 1 2 5 1 2h6l1-5-6-18-5-12-3-5z" fill="#FAE9E9"/>
<path transform="translate(236,511)" d="m0 0 4 2v3h2l6 14 4 10 6 10v3l-4-1-8-9v-2h-2l-9-12 1-2h2l-2-3v-5l1-2z" fill="#CE970F"/>
<path transform="translate(601,290)" d="m0 0 3 1-1 2-2-1-1 13-1 8 1 3 5-1 3 10 2 11-1 19-2 18-4 2-1-2h3l2-31-3-23-3-2-4 19v21l3 13-3-3-2-9-1-24-2 2 1-7 5-25 1-11z" fill="#FBEAE9"/>
<path transform="translate(363,904)" d="m0 0h3l1 3h17v4l-12 7h-2l-1 3h-1l-1 5h-1l-1 18v9l2-2v11l-2 1-2-1-1-39-2-3 4-2v-2h6l1-3 4-1 2-1-12 1-6 1-1-1h-10v-2l13-1z" fill="#261716"/>
<path transform="translate(831,518)" d="m0 0h19l10 3 5 4 2 4-1 7-9 8-16 11-12 9-7 5-2-2 3-3 5-3 7-6h2l1-3 8-6 11-8h2l2-4 3-3v-3l-5-1-3-3 1-1-10-2-17-1z" fill="#CD970E"/>
<path transform="translate(532,958)" d="m0 0 1 2-9 15-4 8 4-2-1 10-3 6-2 5-5 8h-2v8l-3-1v-10l3-12 13-25z" fill="#C0A107"/>
<path transform="translate(820,568)" d="m0 0h2v2l-12 9-14 12-9 9-8 7-12 12-7 8-8 8-2 3h-2l2-6 3-1 1-4h2l2-5h2v-2h2l2-4 10-10 9-7h2l2-4 5-3 3-5 5-2 2-5 9-6 4-1v-2z" fill="#C7900F"/>
<path transform="translate(887,235)" d="m0 0 4 2-2 1-1 132-2-2v-120z" fill="#FAE9E9"/>
<path transform="translate(842,1117)" d="m0 0v3l-9 10-17 17-14 11-13 10-24 16-11 6-15 9-14 7-3-1 21-11 17-10 17-11 14-10 18-14 10-9z" fill="#B57C12"/>
<path transform="translate(613,1241)" d="m0 0v3l-4 2-9 2-10 3-25 6-21 4h-21l-10-2v-1h9l12 1 27-5h3v-2l8-2 18-2 8-3z" fill="#F9FAFA"/>
<path transform="translate(364,832)" d="m0 0 3 1-2 2 1 1 10 2v-2h10v2l4 1 2 1h11l5 3 3 2 11 2 6 2v1l-12-1-24-4-31-8-9-3 4-1h6z" fill="#CE990E"/>
<path transform="translate(306,922)" d="m0 0 4 4 1 11 1 2 1 16 1-4 2-7h1v13l-1 17h-2v2h2l-2 4h-2l-1-17 1-2h-4v-4l-2-1z" fill="#E3E3E9"/>
<path transform="translate(510,1103)" d="m0 0h13l3 3 8 21 6 14v5h-12l-4-6h-14l-4 6h-11l-1-3 12-31zm3 1-3 3-3 7-7 19-2 4v6l2 1h6l3-5 2-1h12l3 1 4 6h7l1-4-8-21-6-14-4-2z" fill="#FBEAE9"/>
<path transform="translate(304,871)" d="m0 0m-1 1 3 2 1 4 1 34 2 9 3 5-1 13-2-2-1-11-2-3-2-9-4-1 1-39z" fill="#CD9B0D"/>
<path transform="translate(242,454)" d="m0 0 1 4-6 12-3 11 1 25h2v7l1 5-1 1v5l2 3-2 2-4-5-2-6h-2l-8-16-3-5-2-1h-9l1-2 8-1 6 5 8 16 3 4v2h2l-1-10-4-16v-10l3-12 8-16z" fill="#C68F0F"/>
<path transform="translate(388,280)" d="m0 0h1v9l-4 16-9 19-5 9-9 21-3-3 2-7 10-19 6-14 5-10 4-17z" fill="#F8E9E9"/>
<path transform="translate(292,506)" d="m0 0h2l2 5h4l2 6 5 7 1 5h2l5 10 1 3 4 2 4 6v6l-12-12-13-21-5-8z" fill="#DEA706"/>
<path transform="translate(469,1159)" d="m0 0h6l2 2v42l-2 2-9-1-1-2v-21l-1-3-11 1-1-5 8-7 5-5zm2 1-5 3-2 5-4 1v2l-3 1v3l8-1 1 1 2 26 5 1 2-2 1-4v-27l-1-8z" fill="#FBEAE9"/>
<path transform="translate(347,1209)" d="m0 0 5 1 30 13 30 11 30 10 20 6 12 3v1l-10-1-18-5-22-7-30-10-19-7-13-6v-2l-9-3-6-3z" fill="#C0940C"/>
<path transform="translate(439,1102)" d="m0 0 8 1 1 2 1 30 20 2 1 8-3 2h-29l-3-3v-39l1-2zm-1 2-1 1-1 9v26l2 5h26l4-4-1-3h-12l-8-2-1-31-5-1z" fill="#FAE9E9"/>
<path transform="translate(581,975)" d="m0 0 4 2 2 3v13l-3 5h-2l-2 4-6 3h-8l-5-3 1-2 11-3 6-4 2-4v-6l-2-5z" fill="#C0AB03"/>
<path transform="translate(230,916)" d="m0 0 2 4 1 11-1 18 2 9v7l-5 2-2-3v-38z" fill="#F3F9FA"/>
<path transform="translate(301,874)" d="m0 0h1v37l-1 2 5 1v2h-2l1 51-1 4h-3l-1-55v-18z" fill="#E7E4E9"/>
<path transform="translate(188,580)" d="m0 0h9l1 1v6h-4l-2 6h-4l-1 8 2 15 1 7-3-4-2-5-2-10v-18l3-5z" fill="#CC950F"/>
<path transform="translate(634,517)" d="m0 0h4l1 3-2 6v18l1 17v16l2 14 1 2 1-17 1-7h1v32h-3l-3-9-3-23-1-15v-23l1-11h-2z" fill="#B57C12"/>
<path transform="translate(787,451)" d="m0 0h5v2h3v4l-4 2-4 7-3 1-1 3-7 6-6 9-3 1 2-9 8-10 6-7 3-3z" fill="#E1A905"/>
<path transform="translate(201,518)" d="m0 0 1 3h2v22l3 9 2 9-4-2-4-4v-3h-2l-1-5v-20l1-7h2z" fill="#E4AD04"/>
<path transform="translate(460,1243)" d="m0 0 8 1 22 6 23 5 11 2h12l23-4h5l-3 2-27 5-12-1-15-1-5-2-14-2-5-2-7-2-16-6z" fill="#FAEAE9"/>
<path transform="translate(262,783)" d="m0 0 5 2 7 7 3 1 3 3 13 8 3 1v2l6 2 5 3h7l2 5 4-1v2l3 1-1 1 19 8 11 4-4 1-18-7-10-4-14-7-22-13-11-8-10-9z" fill="#CD990E"/>
<path transform="translate(720,816)" d="m0 0 4 1 1 3-4 9-7 8-5 4-6 1-3-3 1-3 11-6 5-10 1-3z" fill="#C0AB03"/>
<path transform="translate(317,945)" d="m0 0 4 3 1 18-2 8-2 6 2 6-2 2h-7v-6l5-6h-2v-2h2v-2l-2-1h2v-22z" fill="#F3F8F9"/>
<path transform="translate(549,936)" d="m0 0 1 3-4 9-3 4h-2l-2 7h-3l-2 5-8 14h-2l-1 4-4 2 2-6 11-18 3-7 7-10 4-5z" fill="#DFA905"/>
<path transform="translate(485,1026)" d="m0 0 4 2-4 13-1 2 7-3h8l1 4-5 5h-11l-3-3-1-7 2-10z" fill="#C1AA04"/>
<path transform="translate(319,825)" d="m0 0 8 3 8 7 11 8 17 8 9 3v2l-6-1-9-2-6-2v-3l-4 1-5-3-4-2-4-6-9-6v-2h-2v-2l-9 2-5 8-1-3 6-8z" fill="#CD990D"/>
<path transform="translate(170,236)" d="m0 0h3v189h-1l-1-181-2-7z" fill="#E3E3E9"/>
<path transform="translate(500,1163)" d="m0 0h3l-1 16 5 6-2 3-6-1-5-4-1-2v-10l3-5h2v-2z" fill="#FEFEFE"/>
<path transform="translate(332,882)" d="m0 0 6 1-3 1-1 2-4 1-1 2h-2l1 7-3 3-4-2-2-3-3 1v-2h-2l1-9 7-1z" fill="#1B1615"/>
<path transform="translate(820,1151)" d="m0 0 4 2v2l-4 3-6 4-1 2h-3v2h-2v2h-2v2h-3v2l-4 2h-3l-1 2v-3l3-3-3-2 4-4 5-3h3l1-3 5-2 5-4z" fill="#1C1716"/>
<path transform="translate(404,1113)" d="m0 0 4 1 2 2 2 9v5l-2 2h-9l-2-1 1-10 3-7z" fill="#FBEAE9"/>
<path transform="translate(715,682)" d="m0 0 1 3-12 21-12 19-10 16-8 12-8 11-2 3h-2l2-5 6-8 4-7h2l2-5 10-15 21-35z" fill="#BB8410"/>
<path transform="translate(201,587)" d="m0 0 5 2 9 7 13 13-1 3-4-2-11-7-8-7-3-5z" fill="#E7AF04"/>
<path transform="translate(336,448)" d="m0 0h6l5 8 10 38 10 31-3-1-9-27-10-35-4-11-7-1z" fill="#C68F0F"/>
<path transform="translate(480,926)" d="m0 0h4l-1 8-2 6h-2v2h-2l-2-4-2-2h-2l-2 4-3 2-5-1 4-6 12-8z" fill="#DEA606"/>
<path transform="translate(193,588)" d="m0 0 4 1 3 3-1 2-3-3h-2v10l5 17 8 16 11 13 11 9-4 1-2-1v-2h-2v-2h-2v-2h-2l-7-8-10-14-6-16-2-4v-18z" fill="#C28A10"/>
<path transform="translate(515,1115)" d="m0 0 5 1 2 6v10l-7 1-4-1v-7l3-9z" fill="#FBEAE9"/>
<path transform="translate(274,631)" d="m0 0 5 1 11 8 5 3 1 3-1 2-6-2-9-4-4-2v-4h-8l2-3 3-1z" fill="#E7AF04"/>
<path transform="translate(597,829)" d="m0 0 19 1-2 4-8 7-4 4h-3l1-9-3-3z" fill="#D39B0A"/>
<path transform="translate(866,437)" d="m0 0 16 1 5 3 3 5-1 4-1-6-4-1-3-2h-23l-9 2-1 1-9 2-4 2-4-1 4-3 16-5z" fill="#CD990D"/>
<path transform="translate(439,658)" d="m0 0 4 2 9 11 17 17 6 5-1 2-3-3-4-1v-2l-4-1-2-3-3-1-5-6v-2l-3-1-9-11v-2h-2z" fill="#CC960F"/>
<path transform="translate(837,1120)" d="m0 0 2 1-27 27-17 13h-3l5-6 14-11 8-7 7-8 5-4 4-4z" fill="#C7A109"/>
<path transform="translate(302,1186)" d="m0 0 10 3 10 6 25 13v2l6 2 9 4-3 1-20-9-23-12-14-9z" fill="#C08E0E"/>
<path transform="translate(335,461)" d="m0 0 3 1 7 25 10 32 4 11-1 3-5-13-3-7-1-8h-2l-3-13-2-4-4-16-1-6-7 2 2-4z" fill="#281816"/>
<path transform="translate(674,492)" d="m0 0 4 1-1 4h-2v2l-5 3-3 1-2 3-2 4v5l-5 5-2-3 1-7 9-11z" fill="#C0AB03"/>
<path transform="translate(899,996)" d="m0 0h1l-1 11-5 20-8 23-2 2 2-13 8-26 2-10 2-2z" fill="#BC900C"/>
<path transform="translate(424,270)" d="m0 0h3l1 6-3-3-3 9 1 13 2 9 1 5v7l-3 7-7 10-6 5 2-4 6-7 4-10 1-11-4-20v-7z" fill="#FBEAE9"/>
<path transform="translate(619,234)" d="m0 0 3 1v2h2l4 6-1 2-4-5-1-1v15l2 35v15h-1l-2-22-2-27z" fill="#FBEAE9"/>
<path transform="translate(506,1167)" d="m0 0 5 1 3 3v7l-3 4-7-1-1-1v-10z" fill="#E23B24"/>
<path transform="translate(188,593)" d="m0 0h4l1 15 5 13-3 1-6-8-3-14z" fill="#E7AF04"/>
<path transform="translate(595,786)" d="m0 0 6 2 5 3 9 3v2l-16 5h-5l4-6-2-6z" fill="#D9A107"/>
<path transform="translate(594,808)" d="m0 0 9 3 9 1 1 3-12 6-5 3h-2l1-4 1-1v-6l-2-2z" fill="#DEA606"/>
<path transform="translate(723,1209)" d="m0 0 2 1-4 5 14-6 4 1-18 8h-5l-15 7-4-1 4-3 7-4v-2h2v2l4-1 2-4z" fill="#1A1514"/>
<path transform="translate(803,571)" d="m0 0 2 1-11 10-8 7-34 34-6 7v-3l12-13 7-8h2l2-4 4-4h2l2-4 8-7 12-11z" fill="#CD960D"/>
<path transform="translate(668,234)" d="m0 0 3 1v2h-2l1 2 2 49 2 16v9h-1l-3-22-2-27-1-29z" fill="#FAE9E9"/>
<path transform="translate(304,916)" d="m0 0 3 1v39l1 5-3 1-1-7z" fill="#FAFBFB"/>
<path transform="translate(564,761)" d="m0 0 4 2 4 11v18l-2 3-2-16-6-10 1-4z" fill="#DFA706"/>
<path transform="translate(307,730)" d="m0 0 2 2-1 4-5 1h-14l-25-3-5-1v-1l43 1 5 2z" fill="#B57C12"/>
<path transform="translate(258,433)" d="m0 0 5 1 4 5 9 19 8 16-1 3-9-17-7-15-4-7-2-2-5 1-5 6-7 11-1-2 5-9 8-9z" fill="#C58E10"/>
<path transform="translate(255,1164)" d="m0 0 7 1v2l4 1 9 4v9l-5-2-7-5-3-3-2-1v-2l-3-1z" fill="#1B1615"/>
<path transform="translate(428,276)" d="m0 0h1l1 8 1 20 2 18 6 21 5 10-3-1-5-10-4-10-3-16z" fill="#F9E9E9"/>
<path transform="translate(587,260)" d="m0 0h1l1 7 2 3 9 1 3 1v-7h2l1 6-6 9-5 5-4 2h-5l5-5 8-7v-1l-10-2-2-3z" fill="#FAEAE9"/>
<path transform="translate(862,1089)" d="m0 0h2l-2 5-14 19-3 4-8 4-1-2 6-5 9-12 5-7h2l2-5z" fill="#C2970B"/>
<path transform="translate(205,520)" d="m0 0h1v21l4 15 8 16 6 8-1 2-5-5-6-9-4-9-2-7-3-9v-12z" fill="#C78F0F"/>
<path transform="translate(211,493)" d="m0 0 7 1 5 6 10 20h2l-1-10-1-7 2 4 3 11-1 1v5l2 3-2 2-4-5-2-6h-2l-8-16-3-5-2-1h-9l1-2z" fill="#BC8410"/>
<path transform="translate(315,853)" d="m0 0 7 6 6 4 10 3 29 4v1h-20l-15-3-10-5-7-7z" fill="#B57C12"/>
<path transform="translate(388,280)" d="m0 0h1v9l-4 16-7 15-1-4 1-3v-3l5-13 4-16z" fill="#FAE9E9"/>
<path transform="translate(650,857)" d="m0 0 4 1-10 6-13 8-22 16-5 3 2-4 10-8 6-4 4-3h2v-2l16-9z" fill="#C8900F"/>
<path transform="translate(275,968)" d="m0 0 2 4v4h2l2 7 7 2 2 1 1-18h1v16l-2 6h-8l-4-5-3-10z" fill="#F3F9FA"/>
<path transform="translate(778,448)" d="m0 0h6l-2 6-7 2-4 3-9-2 1-3z" fill="#E3AB05"/>
<path transform="translate(325,952)" d="m0 0h2l1 3 7 3 1 2 5 3-4 2-1 5h-2l-1 2-3-6-3-1v-9l-2-1z" fill="#C2A904"/>
<path transform="translate(197,654)" d="m0 0 6 2v4l-4 2-4 1 2 6 4 9 1 4h-2l-5-6-2-8v-11z" fill="#C0AA03"/>
<path transform="translate(331,864)" d="m0 0 15 1 19 2h2l1-2-2-1 11 2 3 3-18 1-24-3-7-2z" fill="#241716"/>
<path transform="translate(684,535)" d="m0 0 1 4-3 13-2 16v13l2-6h1l-1 13-1 3-4-1v-14l4-30z" fill="#B57C12"/>
<path transform="translate(534,320)" d="m0 0 5 2 1 2v8l-3 3-5-1-1-2v-8z" fill="#E52C28"/>
<path transform="translate(594,776)" d="m0 0h19v1l-13 1v1l12 1 6 2 29 3 6 1v1h-8l-36-4-13-3-2-1z" fill="#B57C12"/>
<path transform="translate(732,547)" d="m0 0h6l-2 5-4 9-3 5-5 3 2-10z" fill="#E1A905"/>
<path transform="translate(587,980)" d="m0 0h2l1 4v8l-4 7-7 6-7 2h-7l-5-4v-3l-4-1h5l2 4 3 1h8l7-4 1-2h2l2-5z" fill="#C58E10"/>
<path transform="translate(221,1121)" d="m0 0 4 2 8 7 9 9 11 9 3 4-5-1-15-14-5-4-7-8z" fill="#BE920C"/>
<path transform="translate(721,1204)" d="m0 0 2 1-3 3-15 7-26 11h-2v-2l40-18z" fill="#BE8D0D"/>
<path transform="translate(449,946)" d="m0 0 2 1-9 6-9 5-20 10-7 2-3 2-3-1 3-3 21-8 20-11z" fill="#C78F0F"/>
<path transform="translate(350,1221)" d="m0 0 5 1 15 6 14 4 1-1 4-1 10 5v2l-15-2-20-7-14-6z" fill="#211615"/>
<path transform="translate(365,920)" d="m0 0 2 1v5h-1l-1 18v9l2-2v11l-2 1-2-1-1-39-1-2z" fill="#1C1716"/>
<path transform="translate(599,551)" d="m0 0 1 3-4 10-6-1-3-2-2-1-1-2z" fill="#FCF8F7"/>
<path transform="translate(673,800)" d="m0 0 8 1 8 3-2 4-4 2-5-1-6-6z" fill="#BF8710"/>
<path transform="translate(276,629)" d="m0 0 5 2 10 7 6 5 1 6-5 1-14-6-6-3v-1l7 1 9 4 6 3-1-5-9-6-8-5z" fill="#BF8610"/>
<path transform="translate(636,510)" d="m0 0 5 1-1 3-6 4-2 4-5 3-4 3v-4l3-5 5-6z" fill="#C0AA03"/>
<path transform="translate(875,444)" d="m0 0 4 2v1l-26 3-15 5-12 5 1-3 12-5 11-4 12-2 5-1z" fill="#C8910F"/>
<path transform="translate(415,1237)" d="m0 0 9 1 30 10 20 5v1l-10-1-18-5-22-7-9-3z" fill="#B98C0D"/>
<path transform="translate(613,1241)" d="m0 0v3l-4 2-9 2-10 3-11 3-4-1 8-4 7-1 8-3z" fill="#F9FBFC"/>
<path transform="translate(730,546)" d="m0 0h1l-1 8-3 5-2 9 3-2-2 6-6 9h-2l1-6 8-22z" fill="#BB8211"/>
<path transform="translate(312,504)" d="m0 0 3 3 1 4v18l-2-1-3-6v-17z" fill="#E7AF04"/>
<path transform="translate(160,978)" d="m0 0h1l2 17 5 24 1 7h-2l-3-12v-5h-2l-2-10z" fill="#C09F07"/>
<path transform="translate(206,496)" d="m0 0v3l-3 7-3 12-1 9v24l-2-3-1-7v-14l3-17 5-12z" fill="#C38B10"/>
<path transform="translate(550,948)" d="m0 0 4 4 2 9 3 1v3l4 4-2 1-8-7-4-7v-7z" fill="#E7AF04"/>
<path transform="translate(425,271)" d="m0 0 2 2 1 3v10l-1 3-4 2-2-3 1-9z" fill="#F3F9FA"/>
<path transform="translate(225,724)" d="m0 0 4 1-2 1 4 7 12 12 14 9 8 4-4 1-8-4-12-9-12-12-4-6z" fill="#BF8710"/>
<path transform="translate(404,1116)" d="m0 0 3 1 2 8v5l-1 1-7-1 1-9z" fill="#DE4D20"/>
<path transform="translate(163,1009)" d="m0 0h1l3 13v4l3 1 4 12 1 7 2 5-1 3-7-16-6-23z" fill="#BA8C0D"/>
<path transform="translate(317,945)" d="m0 0 4 3 1 18-5 3-1-20z" fill="#FDFDFD"/>
<path transform="translate(746,639)" d="m0 0 1 3-9 11-13 18-6 10h-2l2-5 10-15 14-18z" fill="#B98310"/>
<path transform="translate(561,768)" d="m0 0 5 5 3 6 2 13 1-14h1v15l-3 9-3-1 1-13-2-9-5-9z" fill="#B77F11"/>
<path transform="translate(401,1224)" d="m0 0 9 2 19 7 27 8-4 1-18-5-24-8-9-4z" fill="#FBEAE9"/>
<path transform="translate(325,1194)" d="m0 0 4 1 4 2 7 2 1 2 4 1v4l-6-1-13-7z" fill="#F1F4F6"/>
<path transform="translate(325,472)" d="m0 0 1 2-5 11-2 9-1 30h-1l-1-9v-17l3-16 5-9z" fill="#B57C11"/>
<path transform="translate(336,456)" d="m0 0h3l2 5 1 16-2-4-3-11-4 2-6 8-1-4 3-1 1-4h2l2-4z" fill="#B77E11"/>
<path transform="translate(481,1029)" d="m0 0 1 4-1 8 1 7 12 1-2 2-7 1-6-5-2-6 1-8z" fill="#C7900F"/>
<path transform="translate(274,725)" d="m0 0h7l17 3 7 1v4l-12-1-6-3-13-3z" fill="#E7AF04"/>
<path transform="translate(536,994)" d="m0 0 15 3 3 1-2 4h-9l-6-3z" fill="#C0AC03"/>
<path transform="translate(439,1104)" d="m0 0h6l1 1v8l-2 3-4-1v-2h-2z" fill="#F3F9FA"/>
<path transform="translate(449,839)" d="m0 0 16 1 17 2v1h-23l-21-2v-1z" fill="#241716"/>
<path transform="translate(516,1118)" d="m0 0 3 1 1 11-1 1h-6l-1-5 3-7z" fill="#DD511F"/>
<path transform="translate(601,891)" d="m0 0 3 1-10 9-8 7-13 13-1-3 6-6h2l2-4h2v-2l8-7 4-2v-2z" fill="#CB930F"/>
<path transform="translate(304,873)" d="m0 0 2 1 1 4v34h-1l-1-9-1-20-1-3z" fill="#E7AF04"/>
<path transform="translate(543,292)" d="m0 0 7 6 5 9 1 7-5 10-3 2-4-1-2-12 3 4 1 7 4-2 3-7v-7l-6-10-4-4z" fill="#FBEAE9"/>
<path transform="translate(597,1162)" d="m0 0 9 1 1 4-4 5-4-2v-2l-4-1-1-3z" fill="#FEFEFE"/>
<path transform="translate(199,552)" d="m0 0h2l5 16 8 13 7 9-1 2-9-11-6-9-5-13z" fill="#C38C10"/>
<path transform="translate(614,533)" d="m0 0 4 1-2 5-3 6h-2l-1 4-5-1 7-12z" fill="#C0AC03"/>
<path transform="translate(473,951)" d="m0 0h2v9l-2 12h-1v-8l-3-1-1-5 3-6z" fill="#BEA006"/>
<path transform="translate(282,684)" d="m0 0 16 3v4l-4 1-1-1-10-1v-2l-3-1v-2z" fill="#E5AD04"/>
<path transform="translate(544,950)" d="m0 0 1 2-3 10-1 10h-2v-3l-8 5 2-5 3-3h2l2-5v-7z" fill="#C08A0F"/>
<path transform="translate(193,588)" d="m0 0 4 1 3 3-1 2-3-3h-2v10l5 17 1 4-3-1-5-13v-18z" fill="#C08810"/>
<path transform="translate(373,1218)" d="m0 0 15 2 1 4h2v2l10 3-3 1-21-8-2-1v-2z" fill="#F0EFF1"/>
<path transform="translate(643,852)" d="m0 0h2v2l-10 6-9 5-3 3-5 3-9 7-2-1 8-7 13-9z" fill="#C48C10"/>
<path transform="translate(460,1243)" d="m0 0 8 1 20 6 1 2 3 2-6-1-9-2-5-3-10-3z" fill="#F9EDED"/>
<path transform="translate(198,660)" d="m0 0 5 1-2 1 5 12 2 6-5-5v-3h-2l-4-4h-2v-5l3-2z" fill="#C8900F"/>
<path transform="translate(794,464)" d="m0 0 2 1-1 1 2 2-11 9-4 4h-2l2-5 9-10z" fill="#F0ECEE"/>
<path transform="translate(581,975)" d="m0 0 4 2 2 3v9l-3 1-5-10z" fill="#E7AF04"/>
<path transform="translate(230,593)" d="m0 0 5 3 2 5 8 4v2l5 2 4 6-4-2-8-6-5-3-5-5v-3h-2z" fill="#E6AE04"/>
<path transform="translate(336,448)" d="m0 0h6l5 8 3 12v7l-2-2-5-18-2-4-7-1z" fill="#C48C10"/>
<path transform="translate(672,238)" d="m0 0 5 5 11 18 5 9-1 3-6-10-4-8v-2h-2l-4-6-3-6z" fill="#FBEAE9"/>
<path transform="translate(613,1239)" d="m0 0m-4 1h4v2l-19 5h-3l-1 2-14 1 4-2z" fill="#FBEAE9"/>
<path transform="translate(276,1167)" d="m0 0 4 2 20 13 8 5-2 1-10-4-5-5-14-10z" fill="#C4970C"/>
<path transform="translate(207,1101)" d="m0 0 5 5 12 14 2 4-8-5-8-10-3-6z" fill="#BF9C08"/>
<path transform="translate(747,636)" d="m0 0 2 3-4 2-14 19-4 2 4-7 7-9h2v-3h2l2-4z" fill="#CE970F"/>
<path transform="translate(899,996)" d="m0 0h1l-1 11-3 13h-2l-1 6h-2l2-10 3-13 2-2z" fill="#C39E09"/>
<path transform="translate(781,1166)" d="m0 0 2 1-14 10-5 1 2-3h2l1-5 4-2 2 1 1-2z" fill="#EAE5E9"/>
<path transform="translate(317,942)" d="m0 0 4 2v3h2l3 8-3 2v12l-2 1-1-22-4-5z" fill="#F7EAEA"/>
<path transform="translate(896,944)" d="m0 0h1v22l-2-1-2-3-1-10z" fill="#F3F9FA"/>
<path transform="translate(190,580)" d="m0 0h7l1 1v6h-5l-2 1-4-3 2-4z" fill="#C0AC03"/>
<path transform="translate(210,563)" d="m0 0 2 2 5 9 3 4v2l5 2 2 2-1 4-8-7-6-11-2-2z" fill="#DFAA05"/>
<path transform="translate(820,568)" d="m0 0h2v2l-12 9-9 8-1-4 4-4 8-6h3v-2z" fill="#C8930E"/>
<path transform="translate(841,550)" d="m0 0m-1 1m-2 1h2l1 3-12 9-7 5-2-2 3-3 5-3 7-6h2z" fill="#CE980E"/>
<path transform="translate(906,240)" d="m0 0h1l1 10-1 24-1 8h-1v-36z" fill="#1C1716"/>
<path transform="translate(552,1261)" d="m0 0m-35 1h35l-2 2-16 1-17-2z" fill="#BF8D0E"/>
<path transform="translate(595,786)" d="m0 0 6 2 5 3 9 3v2l-9-1-5-4-2-1 2 5-3 2-1-6z" fill="#BF8710"/>
<path transform="translate(932,245)" d="m0 0 2 1v29l-2 1v-14l-1-7-1-4h2z" fill="#211716"/>
<path transform="translate(594,808)" d="m0 0 9 3 9 1 1 3h-2v-2h-10l-2-1v6l-2 3 1 2-4 1 1-4 1-1v-6l-2-2z" fill="#BE8610"/>
<path transform="translate(536,693)" d="m0 0h1l1 17-2-1v-2h-3l-2-6 1-6 3 2z" fill="#E7AF04"/>
<path transform="translate(377,676)" d="m0 0 4 2 13 8v1h-7l-14-4 4-1 5 1-5-5z" fill="#BF8710"/>
<path transform="translate(600,593)" d="m0 0h1l3 16v4l-4-1-6-10 1-3v2h2l2 3z" fill="#BC8411"/>
<path transform="translate(353,972)" d="m0 0 4 2v2l3 1-2 4-15 6h-5l3-2h3v-2l9-3 1-4z" fill="#F7E9E9"/>
<path transform="translate(370,647)" d="m0 0 7 1v3l5 2 5 3 1-3 6 5v2l-6-1-11-6-7-5z" fill="#BC8311"/>
<path transform="translate(368,335)" d="m0 0 1 3-7 16-3-3 2-7 5-8z" fill="#FBECEC"/>
<path transform="translate(347,1209)" d="m0 0 5 1 27 12-3 1-10-3-4-2v-2l-9-3-6-3z" fill="#C5960C"/>
<path transform="translate(324,939)" d="m0 0 2 4 3 9 1 4-3-1v-3h-3l-1-5h-2l-1-4h2v-3z" fill="#CF940F"/>
<path transform="translate(154,951)" d="m0 0h1v30l-2-3-1-20z" fill="#1C1716"/>
<path transform="translate(276,580)" d="m0 0 4 2 14 14 3 1v2h2v-5l2 2 1 4-5 1-10-9-11-11z" fill="#BE8510"/>
<path transform="translate(792,1159)" d="m0 0 2 1-4 5-10 7-4 3-4-1 12-9z" fill="#C6A308"/>
<path transform="translate(862,1089)" d="m0 0h2l-2 5-9 12h-1v-6l4-5h2l2-5z" fill="#C0930C"/>
<path transform="translate(205,520)" d="m0 0h1v21l1 11-2-1-2-8v-12z" fill="#BD8C0E"/>
<path transform="translate(365,525)" d="m0 0h2l4 11 6 16 2 4h-3l-10-26z" fill="#CD960F"/>
<path transform="translate(582,571)" d="m0 0h2l-2 10-3 7h-2l-1-6 2-3h2v-6z" fill="#DFA706"/>
<path transform="translate(237,483)" d="m0 0 2 2v7l3 12-1 4-3-3-2-14z" fill="#E7AF04"/>
<path transform="translate(624,304)" d="m0 0h1l3 18 1-12h1l1 17-3 1-3-9-1-5z" fill="#FBEAE9"/>
<path transform="translate(675,834)" d="m0 0 2 1-3 3-16 8-2 2-6 1 3-3z" fill="#C38B10"/>
<path transform="translate(331,1202)" d="m0 0 11 5 5 1v2l6 2 9 4-3 1-20-9-8-4z" fill="#B67D11"/>
<path transform="translate(202,596)" d="m0 0 4 1 9 7 10 7v2l-5-2-13-10z" fill="#BF8610"/>
<path transform="translate(706,471)" d="m0 0h5l1 6-1 2-9-3v-2l4-1z" fill="#C0A804"/>
<path transform="translate(432,326)" d="m0 0h2l5 17 5 10-3-1-5-10-4-10z" fill="#FBEAE9"/>
<path transform="translate(604,1105)" d="m0 0h6v6l-1 2-5-1-1-1v-5z" fill="#F3F9FA"/>
<path transform="translate(197,1090)" d="m0 0 4 1 6 9 3 6-1 2-10-13z" fill="#BF900D"/>
<path transform="translate(173,1042)" d="m0 0h2l9 20v2h-2l-2-6-3-1-2-8z" fill="#C2A207"/>
<path transform="translate(471,973)" d="m0 0h1l2 20 4 10v2h-2l-4-9-1-3z" fill="#C08810"/>
<path transform="translate(673,844)" d="m0 0m-2 1 4 2-16 8-5 2 2-4 12-6z" fill="#C8900F"/>
<path transform="translate(374,675)" d="m0 0 3 1v2l4 2 1 3 2 1-7-1-6-3 1-4z" fill="#E7AF04"/>
<path transform="translate(725,822)" d="m0 0 1 2-6 9-7 8-3 1 2-4 6-7h2l2-6z" fill="#C58E10"/>
<path transform="translate(207,641)" d="m0 0 5 2 5 5v2h2v2h2v2h2v2l-5-2v-2h-3v-2h-2z" fill="#E7AF04"/>
<path transform="translate(276,629)" d="m0 0 5 2 10 7 6 5v5h-2l-1-5-9-6-8-5z" fill="#C28A10"/>
<path transform="translate(543,1044)" d="m0 0h1l-1 9-7 8-6 2 5-5 6-9h2z" fill="#C38B10"/>
<path transform="translate(771,1175)" d="m0 0 3 1-19 12-2-1 4-4 9-5z" fill="#C8A009"/>
<path transform="translate(885,1043)" d="m0 0 1 4-3 10-1 2h-2l-2 4-1-2 7-17z" fill="#C1A007"/>
<path transform="translate(232,592)" d="m0 0 7 6 10 9 3 3-5-2-2-1v-2l-5-2-8-8z" fill="#C28A10"/>
<path transform="translate(350,472)" d="m0 0 2 3 5 19v2h-2l-6-20z" fill="#C58D10"/>
<path transform="translate(842,1112)" d="m0 0v3h-2l-2 4h-2l-2 4h-2l-2 4-7 5 2-4 10-10z" fill="#FBEAE9"/>
<path transform="translate(312,939)" d="m0 0 1 4 5-2-3 10-1 7-2-4z" fill="#C0AC03"/>
<path transform="translate(357,859)" d="m0 0 11 1 5 4 6 1v2l-10-2-12-5z" fill="#C48D10"/>
<path transform="translate(650,857)" d="m0 0 4 1-20 12v-3l8-5z" fill="#C68E0F"/>
<path transform="translate(598,591)" d="m0 0h1l1 5v11l-3-3-2-11z" fill="#E7AF04"/>
<path transform="translate(210,502)" d="m0 0 6 2 2 7-5-5h-2l-4 14-1-4 3-12z" fill="#B88011"/>
<path transform="translate(374,644)" d="m0 0 5 1 5 7v2l-5-2-2-1v-3h-4z" fill="#E7AF04"/>
<path transform="translate(798,585)" d="m0 0h2l-2 4-11 11-4 1v-2h2l2-4 5-3 3-5z" fill="#C58E0F"/>
<path transform="translate(423,329)" d="m0 0 3 1 5 19-1 4-4-13-2-8-4 3 1-4z" fill="#FBEAE9"/>
<path transform="translate(424,270)" d="m0 0h3l1 6-3-3-4 14-2-1v-7z" fill="#F5E8E9"/>
<path transform="translate(808,1148)" d="m0 0 2 1-11 9-5 4-2-1 5-6 5-4 5-2z" fill="#CA9E0B"/>
<path transform="translate(455,676)" d="m0 0 4 2 10 10 6 5-1 2-3-3-4-1-3-5-7-6v-2h-2z" fill="#C18A0F"/>
<path transform="translate(805,461)" d="m0 0 2 2-5 4-8 6-3 2 1-4 11-9z" fill="#CC990D"/>
<path transform="translate(198,622)" d="m0 0 3 1 7 12 4 5-1 3-11-15z" fill="#C68E0F"/>
<path transform="translate(520,1046)" d="m0 0h1v8h6l-4 3-5 2-4-1 2-3h2z" fill="#B57C12"/>
<path transform="translate(544,376)" d="m0 0h2l3 11-2 5-2-3-1-4z" fill="#FBEAE9"/>
<path transform="translate(627,271)" d="m0 0 5 3 1 4-4-3-1 20h-1l-1-23z" fill="#FBEAE9"/>
<path transform="translate(669,237)" d="m0 0h3l4 7v3h-6z" fill="#F2F8F9"/>
<path transform="translate(387,1218)" d="m0 0 9 3 5 2-1 2-8-1h-3z" fill="#E8E5E9"/>
<path transform="translate(593,1186)" d="m0 0h1v8l-3 3-2-1v-6z" fill="#FBFCFD"/>
<path transform="translate(331,864)" d="m0 0 15 1 6 1v2l-14-1-7-2z" fill="#271716"/>
<path transform="translate(378,312)" d="m0 0 2 1-2 3-2 8-4 2 1-6 3-7z" fill="#F6EFEF"/>
<path transform="translate(166,1115)" d="m0 0 5 2 2 1v3l4 2 2 5-4-2-8-8z" fill="#E3AC05"/>
<path transform="translate(944,1245)" d="m0 0 2 1 3 8-1 3-4-2-1-6z" fill="#BB8311"/>
<path transform="translate(556,999)" d="m0 0h5l2 4 3 1h11l-1 2-4 1h-7l-5-4v-3z" fill="#C38B10"/>
<path transform="translate(505,1254)" d="m0 0 13 2 1 2h-12l-5-2z" fill="#F9ECEB"/>
<path transform="translate(735,1209)" d="m0 0 4 1-18 8-2-1 5-4z" fill="#261716"/>
<path transform="translate(242,1140)" d="m0 0 4 2 10 9-4 1-10-11z" fill="#C09A09"/>
<path transform="translate(491,718)" d="m0 0 6 2 11 8v2l-5-2-12-9z" fill="#C48C10"/>
<path transform="translate(839,527)" d="m0 0h16l4 2v2l-4 3-2-1 2-2-6-2-10-1z" fill="#C7900F"/>
<path transform="translate(676,271)" d="m0 0 4 2 4 6-1 2-4-6-1 11h-1z" fill="#FBEAE9"/>
<path transform="translate(539,1258)" d="m0 0h14l-4 2-5 1h-9l1-2z" fill="#F4F9FA"/>
<path transform="translate(329,980)" d="m0 0 7 1-4 4-4 2-3-1 1-5z" fill="#F3F9FA"/>
<path transform="translate(424,969)" d="m0 0 3 1-8 4-9 4-2-1 3-3z" fill="#C58D10"/>
<path transform="translate(316,548)" d="m0 0 4 2 3 5 1-6 2 3v6l-4-1-6-7z" fill="#BC8311"/>
<path transform="translate(786,478)" d="m0 0v3l-8 9h-2l-2 4-3 2 1-4 5-5z" fill="#B57C12"/>
<path transform="translate(479,1044)" d="m0 0 1 2h2v2l12 1-2 2-7 1-6-5z" fill="#C18910"/>
<path transform="translate(319,837)" d="m0 0 5 2 9 8-2 1-8-7h-4l-2 1z" fill="#251615"/>
<path transform="translate(705,479)" d="m0 0h3l-1 7-5 8-1-2 4-9-5 1z" fill="#B57C12"/>
<path transform="translate(721,1204)" d="m0 0 2 1-3 3-6 3-8 1 2-2z" fill="#C2940C"/>
<path transform="translate(307,920)" d="m0 0 4 4 2 7-1 8-2-2-1-11-2-3z" fill="#C0AB03"/>
<path transform="translate(746,639)" d="m0 0 1 3-9 11-3 3 1-4z" fill="#BB8610"/>
<path transform="translate(789,473)" d="m0 0h2l-1 4-6 4-4 3-1-4 4-1z" fill="#BF8F0D"/>
<path transform="translate(589,1248)" d="m0 0 2 2-9 3-7 1 3-3 5-2z" fill="#F5FAFA"/>
<path transform="translate(411,965)" d="m0 0h4v2l-9 3-3 2-3-1 3-3z" fill="#C8910F"/>
<path transform="translate(675,803)" d="m0 0h7l4 2-2 3-5-1z" fill="#E7AF04"/>
<path transform="translate(332,633)" d="m0 0 4 4v2h-4l1 6-2 2v-12z" fill="#D4AC03"/>
<path transform="translate(254,436)" d="m0 0 2 1-5 6-7 11-1-2 5-9z" fill="#C7900F"/>
<path transform="translate(681,311)" d="m0 0h1v18l-5-1-1-7 2 3 3 3z" fill="#FBEAE9"/>
<path transform="translate(944,1333)" d="m0 0 1 4-2 4-5 1 1-5z" fill="#B98011"/>
<path transform="translate(485,1016)" d="m0 0 10 5v4l-11-7z" fill="#E7AF04"/>
<path transform="translate(899,996)" d="m0 0h1l-1 11-2 8h-1v-12l2-2z" fill="#BB8A0E"/>
<path transform="translate(340,957)" d="m0 0 4 4v6l-7-6v-3z" fill="#CC990D"/>
<path transform="translate(582,908)" d="m0 0 1 3-10 10-1-3 6-6h2z" fill="#C8910F"/>
<path transform="translate(369,828)" d="m0 0h14l3 4-9-1-8-2z" fill="#201716"/>
<path transform="translate(730,546)" d="m0 0h1l-1 8-3 5-2 7h-1l1-8z" fill="#C18910"/>
<path transform="translate(668,495)" d="m0 0 2 1-10 11-2 3h-2l2-4z" fill="#C68F0F"/>
<path transform="translate(221,1121)" d="m0 0 4 2 7 6 2 5-3-1-7-8z" fill="#BF8E0E"/>
<path transform="translate(304,967)" d="m0 0h1v12l-2 2v-2h-2l1-3-1-4 3-1z" fill="#EFF4F6"/>
<path transform="translate(318,835)" d="m0 0 4 1 6 5h-3l-4-3h-2l-3 7-1-3 1-6z" fill="#BF8710"/>
<path transform="translate(336,448)" d="m0 0h6l3 4 1 8-2-2-3-7-7-1z" fill="#C18910"/>
<path transform="translate(706,1218)" d="m0 0h2v4l-7 3-4-1 4-3z" fill="#1B1615"/>
<path transform="translate(179,1058)" d="m0 0 3 4v2l4 1 1 5-2 2-6-11z" fill="#BB8E0C"/>
<path transform="translate(489,1031)" d="m0 0v3l-2 6 5-1-2 3-6 1 3-10z" fill="#B57C12"/>
<path transform="translate(616,879)" d="m0 0m-1 1 1 3-11 8v-3z" fill="#CD960F"/>
<path transform="translate(371,702)" d="m0 0 6 1 7 3v1h-9l-2-1v-3z" fill="#E7AF04"/>
<path transform="translate(812,456)" d="m0 0 3 1-1 3-3 2h-5v-2z" fill="#CB950E"/>
<path transform="translate(374,1222)" d="m0 0 11 2 4 4-5-1-10-4z" fill="#C08B0F"/>
<path transform="translate(308,961)" d="m0 0h4v8l-4-2-1-4z" fill="#F2F8F9"/>
<path transform="translate(463,936)" d="m0 0 2 1-4 5-8 4-2-1 8-6z" fill="#CF970C"/>
<path transform="translate(407,836)" d="m0 0h14l6 2v1l-14-1-6-1z" fill="#221716"/>
<path transform="translate(592,281)" d="m0 0 4 1-5 5h-5l5-5z" fill="#FBEFEE"/>
<path transform="translate(207,1101)" d="m0 0 5 5 3 6-1 2-4-5-3-6z" fill="#BF980A"/>
<path transform="translate(604,792)" d="m0 0 10 1 1 3-9-1z" fill="#C28B10"/>
<path transform="translate(439,658)" d="m0 0 4 2 6 7-1 3v-2h-2l-4-5-3-1z" fill="#C18C0F"/>
<path transform="translate(789,541)" d="m0 0v3l2 2-9 5v-3l5-5z" fill="#BC8411"/>
<path transform="translate(950,1377)" d="m0 0 4 2 1 3-6 2v-2l-2-1h3z" fill="#B88011"/>
<path transform="translate(401,1224)" d="m0 0 9 2 6 3-4 1-11-5z" fill="#F6E8E9"/>
<path transform="translate(308,861)" d="m0 0 3 3 1 4-8 4-2 2 1-4 6-3z" fill="#FBEAE9"/>
<path transform="translate(338,579)" d="m0 0 3 1 2 7-3-1-2 2z" fill="#C38B10"/>
<path transform="translate(794,464)" d="m0 0 2 1-1 1 2 2-7 5v-6z" fill="#E4E3E9"/>
<path transform="translate(586,995)" d="m0 0 1 2-4 5-4 3h-2l1-3z" fill="#C78F0F"/>
<path transform="translate(207,550)" d="m0 0 2 3 4 11-4-2-2-8z" fill="#C48C10"/>
<path transform="translate(371,543)" d="m0 0 3 1 3 8 2 4h-3z" fill="#CA920F"/>
<path transform="translate(795,460)" d="m0 0 1 2 3 1-1 4-4-1h-2l2-4z" fill="#F3F3F4"/>
<path transform="translate(883,439)" d="m0 0 4 2 3 5-1 4-1-6-4-1-2-3z" fill="#CD990E"/>
<path transform="translate(258,433)" d="m0 0 5 1 4 5h-3l-3-3h-6z" fill="#C38B10"/>
<path transform="translate(556,1402)" d="m0 0" fill="#C0AC03"/>
</svg>
