<svg viewBox="0 0 466.1 557.8" xmlns="http://www.w3.org/2000/svg"><g fill-rule="evenodd"><path d="m233 557.8c-28.1 0-54.4-9.4-77.8-23.2a235 235 0 0 1 -27.1-18.5c-18.5 5.3-36.7 9.2-57.5 9.2-17.5 0-31.3-3-40.1-9.4a30.55 30.55 0 0 1 -6.9-7 26.35 26.35 0 0 1 -4.3-9.3 34.51 34.51 0 0 1 -.9-7.1v-69.7c0-.3-.1-.4-.1-.7-1.1-8 .7-16.6 5.7-25.9a100.25 100.25 0 0 1 8.9-13.5 505.37 505.37 0 0 1 -23.55-85.7c-2-11.5-3.8-23.3-5.1-35.6-1.3-13-2.4-25.6-3.1-37.9-3.5-66.2 1.2-138.7 11.5-184.4l2.2-9.7 9.6-2.8h.1c9.7-2.8 19.2-5.3 28.3-7.4s19-4.2 29.3-6.1c50.5-9.3 103.2-13.1 150.85-13.1a900.79 900.79 0 0 1 104.3 6.1c5.4.7 11.2 1.3 17.4 2.3a623.75 623.75 0 0 1 87 18.2l9.6 2.8 2.2 9.7h.1c2 9.3 3.8 19.3 5.4 29.9 1.8 11.7 3.1 23.2 4 34.1 5.4 61 4.2 136.4-6.3 193.8v.1c-1.8 9.9-3.9 19.7-6.3 29.7s-5.1 19.8-8.1 29.5c-2.7 8.9-5.7 17.7-8.9 26.2a124.17 124.17 0 0 1 8.9 13.5c4.9 9.3 6.7 17.9 5.5 25.9v.7l-.1 69.7c0 16.1-9.8 25.9-27.5 30.4a57.66 57.66 0 0 1 -8.6 1.6c-3.4.4-6.5.7-9 .8-2 .1-4.2.1-6.9.1-20.8 0-39.1-3.9-57.5-9.2a248.43 248.43 0 0 1 -27.1 18.5c-23.6 13.9-50 23.4-78.1 23.4z" fill="#259254"/><path d="m233 546.2c-25.8 0-50.2-8.9-72-21.6a235.89 235.89 0 0 1 -30.4-21.3c-19.6 5.7-38.6 10.4-60 10.4-15-.1-26.4-2.3-33.2-7.3a19 19 0 0 1 -4.2-4.3 18 18 0 0 1 -2.6-5.4 15.8 15.8 0 0 1 -.5-4.3v-69.9h.1c-.1-.7-.3-1.4-.4-2.2-.8-5.5.7-11.7 4.4-18.9 2.6-5 6.6-10.5 11.7-16.7a491.13 491.13 0 0 1 -25.25-89.7v-.1c-2-10.9-3.6-22.7-5-34.7-1.3-12.3-2.3-24.8-3-37.4-3.5-65.3 1.1-136.5 11.1-181.2l.8-3.1 3-.8c9.2-2.7 18.5-5.1 27.8-7.3s18.9-4.2 28.6-5.9c49.8-9.2 101.8-12.8 148.9-12.8a893 893 0 0 1 102.9 5.9c5.7.7 11.3 1.3 17.1 2.2 29.3 4.2 58.3 10 85.4 17.9l3 .8.7 3.1c2 8.9 3.8 18.6 5.3 29 1.6 10.8 3 22.1 3.9 33.5 5.4 60.3 4.3 134.6-5.9 190.9h-.1c-1.8 9.7-3.8 19.4-6.1 29.1s-5 19.3-8 28.7c-3.4 10.9-7 21.4-11.2 31.8a98.09 98.09 0 0 1 11.9 16.7c3.8 7.2 5.3 13.4 4.4 18.9-.1.8-.3 1.5-.4 2.2h.1v69.9c0 9.8-6.7 16.1-18.8 19a47.83 47.83 0 0 1 -7.3 1.3 74 74 0 0 1 -8.1.8c-2 0-4 .1-6.3.1-21.4 0-40.5-4.7-60-10.4a235.89 235.89 0 0 1 -30.35 21.3c-21.7 12.9-46.1 21.8-72 21.8z"/><path d="m441.75 119.5c-.4-4.9-.7-9.7-1.2-14.4-.7-8.4-1.5-16.2-2.4-23.6a9 9 0 0 0 -.3-1.6c-64.85-17.9-139.5-24.6-204.85-24.6s-139.95 6.7-204.95 24.6a3.75 3.75 0 0 1 -.05 1.1c-1.5 12.1-2.7 25.1-3.6 38.6 7.3-2 14.8-3.9 22.5-5.5 10-2.3 20-4.3 30.1-6.1 51.9-9.3 106.7-13.1 156.1-13.1a938.56 938.56 0 0 1 108 6.1c5.8.7 11.7 1.3 17.9 2.2a659.11 659.11 0 0 1 82.8 16.3z" fill="#fbe106"/><path d="m443.65 162.7c-.3-12-.7-23.9-1.3-35.3a663.34 663.34 0 0 0 -84.35-16.9c-5.7-.8-11.6-1.6-17.7-2.3a945.14 945.14 0 0 0 -107.2-5.9c-49.1 0-103.3 3.8-154.9 13-10.1 1.8-20 3.8-29.7 5.9-8.4 1.9-16.6 4-24.7 6.2-.7 11.5-1.2 23.3-1.3 35.3 8-2.3 16.1-4.3 24.4-6.2 10-2.2 20-4.2 30.1-6.1 51.9-9.3 106.7-13 156.1-13a984.43 984.43 0 0 1 108 5.9c5.8.7 11.7 1.5 17.9 2.3 29 4.1 57.7 9.6 84.7 17.1z" fill="#259254"/><path d="m427.85 128.8 4 24.3-5.4-1.2-1.3-6.5-5.8-1.2-3.6 5.4-5.5-1.1 13.6-20.5z"/><path d="m423.95 137-1.7 2.9 2.1.4z" fill="#259254"/><path d="m409.15 136a1 1 0 0 0 .1.3l.1.1a7.45 7.45 0 0 1 1.1 2.4 10.5 10.5 0 0 1 -.1 3.1 7.69 7.69 0 0 1 -1.4 2.7 6.39 6.39 0 0 1 -1.5 1.3h-.1a5 5 0 0 1 -2.4.9 6.61 6.61 0 0 1 -2.8 0l-10.5-1.9 4-22.3 10.5 1.9a5.33 5.33 0 0 1 3 1.2 6.43 6.43 0 0 1 2.3 3.6 16.2 16.2 0 0 1 .1 2.2 6 6 0 0 1 -2.4 4.5z"/><path d="m403.05 137.6-4.6-.8-.7 4.4 4.6.8h.3a4.48 4.48 0 0 0 1.1-.1 2.1 2.1 0 0 0 1.1-.8v-.1a.1.1 0 0 0 .1-.1c0-.1.1-.4.1-.5v-.3a.6.6 0 0 0 .1-.4 1.56 1.56 0 0 0 -.7-1.3 1.42 1.42 0 0 0 -1.4-.8z" fill="#259254"/><path d="m400 128.4-.5 3.5 4.9.9a2.2 2.2 0 0 0 .8-.1c.1 0 .3-.1.4-.1v-.1h.1c.1-.1.3-.4.4-.5a2.61 2.61 0 0 1 .3-.8v-.4a2.22 2.22 0 0 0 -.5-1.1.85.85 0 0 0 -.5-.3z" fill="#259254"/><path d="m391.05 126.5-10-1.5-.5 3.5 9.3 1.5-.8 4.7-9.3-1.4-.7 4.4 10.7 1.8-.8 4.7-16-2.4 3.6-22.4 15.3 2.4z"/><path d="m368.85 128.7c.5-.4 1.1-.8 1.3-1.3a6.2 6.2 0 0 0 .9-3 8 8 0 0 0 -.4-2.7 5.75 5.75 0 0 0 -2.8-3.4 7.2 7.2 0 0 0 -2.6-.8l-10.1-1.2h-.5v.4l-2.65 21.6v.4l.4.1 10.1 1.2a12 12 0 0 0 1.9 0h.5l.4-.1a6.82 6.82 0 0 0 3.4-1.9 7.11 7.11 0 0 0 1.8-3.8 6.42 6.42 0 0 0 -.1-3.1 8.74 8.74 0 0 0 -1.5-2.4z"/><path d="m365.15 132.7a2.13 2.13 0 0 0 -.7-1.5 3.48 3.48 0 0 0 -1.5-.7l-4.6-.5-.5 4.5 4.3.5a5.43 5.43 0 0 0 1.8 0c.1-.1.3-.1.3-.3a3.45 3.45 0 0 0 .8-.9 3.75 3.75 0 0 0 .1-1.1z" fill="#259254"/><path d="m359.35 121.7-.4 3.5 5 .7h.2a1.09 1.09 0 0 0 .9-.4 2.2 2.2 0 0 0 .5-1.2 1.1 1.1 0 0 0 0-.8v-.2c-.3-.4-.5-.8-1.1-.8z" fill="#259254"/><path d="m326.75 126 5.5-12.4 5.8.4-1.9 22.6-5.4-.5.8-8.9-3.9 8.6-3.6-.2-2.4-9.2-.9 8.9-5.2-.6 2-22.5 5.8.6z"/><path d="m313.25 116.9-10.3-.8-.2 3.7 9.5.6-.4 4.9-9.4-.7-.3 4.5 10.7.8-.3 4.8-16-1.2 1.4-22.5 15.6 1.1z"/><path d="m286.75 124.9-5.4-.3-.3 8-5.3-.3.8-22.7 10.3.4a8.29 8.29 0 0 1 3.6.8 6.38 6.38 0 0 1 2.7 2.7 5.77 5.77 0 0 1 .9 2.6 13.52 13.52 0 0 1 -.3 4 6.52 6.52 0 0 1 -2.2 3.4c-1 1.1-3.1 1.4-4.8 1.4z"/><path d="m40.65 434.9.1 57.5a10.28 10.28 0 0 0 .1 1.8 8.38 8.38 0 0 0 .9 1.9 8.51 8.51 0 0 0 1.9 1.9c4.7 3.5 14 5.1 26.8 5.1 23.9 0 45.2-6.3 68-13.2 1.9-.5 3.8-1.2 5.8-1.8 4.2-1.2 8.6-2.4 13-3.5s8.8-2 12.9-3a331.56 331.56 0 0 1 62.7-6.2 312 312 0 0 1 42.9 3c2.3.3 4.7.7 7.3 1.1a314.47 314.47 0 0 1 38.6 8.6c1.9.5 3.9 1.2 5.8 1.8 22.8 6.9 44 13.2 68 13.2 1.9 0 3.9 0 5.8-.1a64.72 64.72 0 0 0 7.3-.7c2.2-.3 4.2-.7 6.1-1.1 6.9-1.8 10.7-4.6 10.7-8.8v-57.5a22.68 22.68 0 0 1 -5 2c-7.8 2.6-18.6 3.5-32.1 3.2-12.7-.3-28.9-3.8-47.2-7.7-11.9-2.4-24.7-5.1-37.5-7.3h-.3c-7.2-1.2-16.6-2.3-27-3.1-2.3-.3-4.3-.4-6.1-.5-12.4-.9-25.5-1.5-37.2-1.5-17 0-36.6 1.1-52.9 2.8-3.4.4-6.5.8-9.2 1.1s-5.5.8-8.1 1.2h-.1c-13 2-25.8 4.9-37.6 7.3-18.3 3.9-34.4 7.4-47.1 7.7h-.1c-13.5.3-24.3-.7-32.2-3.2a27.46 27.46 0 0 1 -5-2z" fill="#259254"/><path d="m288.85 117.6a2.88 2.88 0 0 0 -.3-1.6 2.11 2.11 0 0 0 -2-1.1l-4.7-.1-.1 5 4.4.3a4.1 4.1 0 0 0 1.1-.1 2 2 0 0 0 1.2-.8 4.19 4.19 0 0 0 .4-1.6z" fill="#259254"/><path d="m266.25 109 8.7 23h-5.7l-2.3-6.2-6.1-.1-2.5 6.1-5.5-.2 9.3-22.6z"/><path d="m264.15 117.9-1.2 3.1h2.3z" fill="#259254"/><path d="m234.75 131.4h-.7v-5.2h5.4v4.2l-2 4.2h-3.9z"/><path d="m224.35 108.6 8.9 22.8h-5.5l-2.5-6.1h-5.9l-2.4 6.1h-5.7l9-22.8z"/><path d="m187.15 122.7 3.9-12.9 5.9-.3.8 22.7-5.4.1-.2-8.9-2.9 9.1-3.8.1-3.3-8.8.2 8.9-5.2.2-.8-22.7 5.8-.1z"/><path d="m222.35 117.5-1.2 2.9h2.2z" fill="#259254"/><path d="m172.25 115.6-10.1.7.1 3.5 9.5-.7.4 4.9-9.5.6.3 4.6 10.8-.8.3 4.9-16.1 1-1.5-22.5 15.4-1.1z"/><path d="m153.35 116.5h.1v.1a14.34 14.34 0 0 1 .7 2.8v.1a10.89 10.89 0 0 1 -.3 3 5.77 5.77 0 0 1 -2.6 3.5 8.07 8.07 0 0 1 -3.9 1.2l-5.3.4.5 7.8-5.4.4-1.5-22.7 10.7-.8a9 9 0 0 1 2.8.4.6.6 0 0 1 .4.1 10.59 10.59 0 0 1 2 1.2 6.88 6.88 0 0 1 1.8 2.5z"/><path d="m146.25 122.5-4.5.4-.3-5.1 4.7-.3a2 2 0 0 1 1.5.3 1.58 1.58 0 0 1 .7.7c0 .1.1.4.1.5a4.87 4.87 0 0 1 .1 1.2 1.94 1.94 0 0 1 -.3 1.3c-.3.8-1.1 1-2 1z" fill="#259254"/><path d="m124.95 114.4 11.4 21.8-5.6.6-3.1-5.8-6 .6-1.7 6.2-5.7.7 6.6-23.7z"/><path d="m89.35 132.5 2.5-13.4 6-.8 3.1 22.4-5.3.8-1.2-8.9-1.9 9.3-3.8.5-4.3-8.3 1.2 8.7-5.2.9-3.1-22.6 5.8-.8z"/><path d="m63.25 139.2.1.3a2.2 2.2 0 0 0 1.6 2 5.33 5.33 0 0 0 2.8-.1c.1 0 .4 0 .5-.1a3.66 3.66 0 0 0 1.5-1.1l.1-.1v-.1a3 3 0 0 0 .3-1.6l-3-15.1 5.3-.9 3 15.1v.3a8.6 8.6 0 0 1 .1 1.6 6.93 6.93 0 0 1 -1.3 3.8 9 9 0 0 1 -3.2 2.6 14.43 14.43 0 0 1 -4 .9h-.5c-.1.1-.1.1-.3.1a10.62 10.62 0 0 1 -4.9-1.1c-.1-.1-.1-.1-.3-.1 0-.1-.1-.1-.3-.3s-.3-.1-.3-.3a7.77 7.77 0 0 1 -2.4-4.2l-3-15.1 5.3-1.1z"/><path d="m123.85 123.4-.8 3.1 2.3-.1z" fill="#259254"/><path d="m41.95 135.8 5.7-8.6 6.9-1.5-7.3 11.2 11.4 11.1-6.2 1.3-8.1-7.9-.9 1.3 1.8 8.1-5.3 1.1-4.7-22.1 5.2-1.1z"/><path d="m386.45 429.4a311.85 311.85 0 0 0 21.2-42.5c-.1-.1-.3-.3-.3-.4l.8-.8c4.7-11.6 9-23.6 12.8-35.9 2.8-9.3 5.4-18.7 7.7-28.2 2.3-9.3 4.3-18.9 6.1-28.5 6.6-36.2 9.4-80 9-122.8a618.93 618.93 0 0 0 -85.9-17.3c-5.7-.8-11.6-1.6-17.7-2.3a945.14 945.14 0 0 0 -107.15-5.9c-49.1 0-103.3 3.6-154.9 12.9-10.1 1.8-20 3.8-29.7 5.9-8.8 2-17.5 4.2-26.2 6.6-.1 17.3.3 34.8 1.1 51.9.8 12.8 1.8 25.1 3 36.8 1.3 11.9 3 23.2 4.9 33.9v.1a467.79 467.79 0 0 0 26.7 92.5l.8.8c-.1.1-.3.3-.3.4a311.85 311.85 0 0 0 21.2 42.5c11.5-.5 26.4-3.6 43.2-7.2 11.9-2.6 24.7-5.3 38.3-7.4v-.1c2.7-.4 5.5-.8 8.5-1.2s6.3-.7 9.4-1.1a533 533 0 0 1 54-3c12.3 0 25.6.5 38 1.5 2.4.1 4.4.4 6.1.5 10.1.8 19.7 2 27.9 3.2l.3.1c13.4 2.2 26.2 4.9 37.9 7.4 16.9 3.9 31.9 7 43.3 7.6z" fill="#fbe106"/><path d="m166.35 515.4c20.4 11.9 42.9 20.1 66.6 20.1s46.4-8.2 66.8-20.1a222.3 222.3 0 0 0 23.3-15.9c-1.5-.4-2.8-.8-4.3-1.2a291.63 291.63 0 0 0 -37.2-8.5c-2.3-.3-4.7-.7-7.2-.9a303.08 303.08 0 0 0 -41.4-2.8 310.53 310.53 0 0 0 -60.7 6.1c-4.3.8-8.4 1.8-12.4 2.7-4 1.1-8.2 2.2-12.5 3.5-1.5.4-3 .8-4.3 1.2a202.49 202.49 0 0 0 23.3 15.8z" fill="#fbe106"/><path d="m249.55 514.3h-4a4.4 4.4 0 0 1 -3 1.9 4.11 4.11 0 0 1 -2.2 0 2.28 2.28 0 0 1 -1.1-.3 5.24 5.24 0 0 1 -3.1-3.8v-.1a8.85 8.85 0 0 1 0-2.3 4.55 4.55 0 0 1 .8-1.9c.3-.3.4-.7.7-.8a5.83 5.83 0 0 1 1.5-1.1.77.77 0 0 0 .3-.1 3.81 3.81 0 0 1 1.9-.4 5.19 5.19 0 0 1 2.4.5 4.94 4.94 0 0 1 1.9 1.6h3.8a8.32 8.32 0 0 0 -3.4-4.2 5.39 5.39 0 0 0 -2.2-.9 8.51 8.51 0 0 0 -4.2-.1 6.94 6.94 0 0 0 -3.6 1.6c-.1.1-.3.1-.4.3l-.4.4a10.77 10.77 0 0 0 -1.8 2.4c-.1.1-.1.3-.3.4-.1.5-.4 1.1-.5 1.6a11.91 11.91 0 0 0 .1 4.2c0 .1.1.3.1.4a9 9 0 0 0 1.2 2.4 12.57 12.57 0 0 0 2 2 8.79 8.79 0 0 0 5.1 1.6 10.19 10.19 0 0 0 4-.8 8.88 8.88 0 0 0 2.4-1.8 7.62 7.62 0 0 0 2-2.7z"/><path d="m224.75 519.5v-3.6h3.2v3.6z"/><path d="m415.35 395.9a328.28 328.28 0 0 1 -16.7 33.6c7.7-.3 13.8-1.1 18.5-2.6 5.1-1.8 8.1-4.3 8.6-8.1.4-3.2-.5-7.3-3.2-12.4a82.8 82.8 0 0 0 -7.2-10.5z" fill="#259254"/><path d="m67.35 429.5a362.31 362.31 0 0 1 -16.7-33.6 70.66 70.66 0 0 0 -7 10.5c-2.7 5.1-3.8 9.2-3.2 12.4.5 3.8 3.5 6.3 8.6 8.1 4.5 1.5 10.7 2.3 18.3 2.6z" fill="#259254"/><path d="m97.85 357.6c22.4-3.9 30.6-11.7 34.7-15.6 5.5-5.4 5.4-14.4.5-20.8-4.6-5.8-8-8.1-16.3-3.9-5.1 2.7-9.6 7.2-14.7 8.2-9.7 2.2-21.9.8-35.9.8-4.5 0-4.9-3.9-.4-5.8 2.7-1.2 5.5-.9 7.8-1.6a3.26 3.26 0 0 0 2.4-2.4c0-3.8-2-4.3-4.9-4-5.7.7-14.3 6.6-14.3 6.6-10.3-4.2-8-12.4-1.1-21.7 1.9-2.6 3.1-5.1 5.7-8 3-3.1 7.3-6.3 10.9-9.6 3-3.8 7.4-6.5 9.7-11.1a108.05 108.05 0 0 0 7.8-18.5l1.1-18.1c4.6 2.7 9 4.9 13.1 5.5-.9-1.6-2.6-3.4-2.3-5 .8-7.6 7.2-14.8 16.3-22.5-1.8 5-12 20.6-4.6 25.1 4.5-21.4 23.1-40.9 39.3-44-17.3 17.5-25.4 32.9-21.4 44.9 19.8-40.7 62-70.4 97.5-76.6-21.9 16.9-41.7 33.6-55.7 63.1 34.5-34 70.5-55.2 120.6-63.4-31 14.4-60.6 32.2-77.7 62.3 49.6-33.6 95.4-46.4 137.2-40.5-32.9 6.9-64.9 17.5-90.4 48.6 46.9-27.5 92-30.8 136.5-14.2-40.2.8-95.8 12.1-117.2 32.1 34.9-10.5 89-9.3 120.7 7-34.1-3.1-81.1 0-99.3 13.8 39.8-5 98.9 12 117.2 32.8a298.14 298.14 0 0 0 -93.6-12.7c36.3 8 68.9 20.6 82.3 35.9-25.4-10-52.1-16.2-81.5-16.5 26.3 6.2 63.4 19.8 75.3 41.7-22.7-13.4-48.4-23.7-76.8-23.9 31.8 10 50.2 27.1 55.7 44-17-15.9-38.7-28.2-71.9-31.3-14-.1-29 11.7-39.4 25.6-11.2 1.8-23.2.4-31.4 1.6-10.7 1.6-17.1 5.3-18.3 12.8-6.7-.4-9.4-1.8-8.1-3.9 1.2-1.9-2.6-1.1-5.7-1.9-2.3-.7-4.3-2.7-3.1-5.3 2.3-4.6 13-8.6 23.6-11.2 3.5-.9 9.4-1.2 12.7-1.9a23.92 23.92 0 0 0 10.1-4.9c6.6-5-.7-14.6-3.5-11.7-10 10-23.3 13.2-36.7 12.1-13.2-.9-26.7-8.1-38.7-11.1-5 3.5-10.3 14.8-16.6 18.9-7 4.6-17.9 7.3-29.9 7.6-8.2.1-13-.8-16.9.8-4.9 2-4.3 6.5-9.3 9.3-4.9 3-4.5-1.9-7.4-2.6-4.5-.9-9 0-9.6-3.5-.5-2.7 2.6-5.1 7.1-7.4 2.4-.9 4.9-3.3 8.8-4z"/><path d="m251.55 519.5v-3.6h3.4v3.6z"/><path d="m68.65 454.7 4.6-.5 14.7 28.3-5.9.7-4.2-8-9.3 1-2.4 8.6-6 .7z" fill="#fbe106"/><path d="m71.95 463.2-2.1 7.8 5.7-.5z" fill="#007c3d"/><path d="m92.85 460.8s.4 1.6.5 1.3c.1 0 .1.1.3.1a.44.44 0 0 0 .3.1 18.32 18.32 0 0 0 3.9.9c1.8.4 3.6.7 5.5 1.1 3.5.8 7 2.3 7.7 6.2a6.92 6.92 0 0 1 0 3.5 7.71 7.71 0 0 1 -2.8 4.7 15.34 15.34 0 0 1 -6.3 2.6 17.43 17.43 0 0 1 -5 .3 8.65 8.65 0 0 1 -6.6-4.2 15.5 15.5 0 0 1 -1.5-4.6l5.5-1.1a7.89 7.89 0 0 0 .8 3.1 3.54 3.54 0 0 0 2 1.6 8.51 8.51 0 0 0 3.9 0 6.14 6.14 0 0 0 2.6-.8 3.92 3.92 0 0 0 1.5-1.3 2.11 2.11 0 0 0 .5-1.1 1.84 1.84 0 0 0 -.3-1.9 3.13 3.13 0 0 0 -1.1-.9 21.36 21.36 0 0 0 -3.4-.9c-2.8-.7-5.7-1.2-8.4-2a7.16 7.16 0 0 1 -3.6-2 6.26 6.26 0 0 1 -1.6-4.2 8 8 0 0 1 4.2-7.8 15.94 15.94 0 0 1 4.2-1.5 12.53 12.53 0 0 1 4.7-.1 9.2 9.2 0 0 1 6.1 3.4 10.64 10.64 0 0 1 1.6 4.3l-5.4 1.1c-.1-.5-.3-1.2-.4-1.8a3.12 3.12 0 0 0 -1.6-1.6 8.35 8.35 0 0 0 -6.2.5 2.69 2.69 0 0 0 -1.6 3z" fill="#fbe106"/><path d="m120.25 446.5 4.4-1.1 18.5 26-5.7 1.5-5.4-7.4-9 2.3-1.2 9-5.7 1.4z" fill="#fbe106"/><path d="m124.55 454.6-1 8.1 5.6-1.5z" fill="#007c3d"/><path d="m144.75 441.6 14.6 17-3.4-18.9 5.5-.9 5.2 28.9-5.4.9-14.6-17 3.4 19-5.6 1-5.1-28.9z" fill="#fbe106"/><path d="m189.55 434.7.5 5-9.1 1 2.5 24.3-5.5.6-2.6-24.4-9 1-.6-4.9z" fill="#fbe106"/><path d="m213.45 432 .4 5-14.1 1 .4 6.6 13.1-.8.3 4.8-12.9 1 .5 7.9 14.8-1 .3 5-20.4 1.3-2-29.3z" fill="#fbe106"/><path d="m251.05 432-.7 11.2 11.9-10.6 7.3.4-12.7 11.3 10.8 18-6.6-.3-8.2-13.9-2.9 2.4-.5 10.8-5.5-.3 1.4-29.4z" fill="#fbe106"/><path d="m271.85 444.1a13.68 13.68 0 0 1 4.7-7c.4-.3.8-.5 1.2-.8a11.68 11.68 0 0 1 8-1.6h.1a12.23 12.23 0 0 1 8.2 4.6h.1v.1a14.8 14.8 0 0 1 .8 1.3c.3.4.5.9.8 1.4a17.15 17.15 0 0 1 1.1 8.9 16.72 16.72 0 0 1 -1.9 6.2 9.78 9.78 0 0 1 -3.6 4.4v.1c-.4.3-.8.5-1.2.8s-.8.4-1.2.7a12 12 0 0 1 -6.9.9c-.4 0-.9-.1-1.3-.1s-.9-.3-1.4-.4a12.86 12.86 0 0 1 -5.5-4v-.1h-.1a14.8 14.8 0 0 1 -.8-1.3c-.3-.4-.5-.9-.8-1.3a18.15 18.15 0 0 1 -1.2-6.7 17 17 0 0 1 .9-6.1z" fill="#fbe106"/><path d="m284.35 439.3a6 6 0 0 0 -4.7 2.2 11.52 11.52 0 0 0 -2.7 5.4 17.43 17.43 0 0 0 -.3 5.5 10 10 0 0 0 2.4 5.3 7.84 7.84 0 0 0 4.4 1.8 6.74 6.74 0 0 0 5.8-3.5 16.5 16.5 0 0 0 2-7.1 11.29 11.29 0 0 0 -1.8-6.7 6 6 0 0 0 -5.1-2.9z" fill="#007c3d"/><path d="m326.75 442.6-1.1 4.9-8.9-1.9-5.1 23.9c-1.8-.4-3.6-.7-5.4-1.1l5-24-8.9-1.9 1.1-4.9z" fill="#fbe106"/><path d="m325.55 467.5a15.76 15.76 0 0 1 0-10.5c.3-.5.4-1.2.7-1.8a14.4 14.4 0 0 1 8-8.4 11.58 11.58 0 0 1 8.2-.3c.4.1.9.3 1.4.4.4.3.8.4 1.2.7a12.55 12.55 0 0 1 5.5 6.5 17.89 17.89 0 0 1 0 10.5c-1.2 3.9-3.5 7.6-7.3 9.6h-.1a3.08 3.08 0 0 1 -1.2.5 11.58 11.58 0 0 1 -8.2.3c-.4-.1-.9-.3-1.3-.4-.4-.3-.8-.4-1.2-.7a10.58 10.58 0 0 1 -5.7-6.4z" fill="#fbe106"/><path d="m340.25 451.1h-.8a7.88 7.88 0 0 0 -4.6 1.3c-2 1.5-3.1 4-3.8 6.3-.8 2.6-1.3 5.7 0 8.1v.1a6.5 6.5 0 0 0 11 1.2 13 13 0 0 0 3.2-6.9c.5-2.6.5-5.1-.9-7.3a7.1 7.1 0 0 0 -4.1-2.8z" fill="#007c3d"/><path d="m364.65 452.8-2.6 11.1 13.5-8.5 7.2 1.6-14.4 9 7.6 19.6c-2.2-.5-4.3-.9-6.5-1.5l-5.8-15.1-3.1 1.9-2.4 10.7c-1.8-.4-3.6-.8-5.4-1.3l6.6-28.6z" fill="#fbe106"/><path d="m380.25 468.3a12.9 12.9 0 0 1 4.7-7c.4-.3.8-.5 1.2-.8a13 13 0 0 1 8-1.8h.1a12.36 12.36 0 0 1 6.1 2.6 11.51 11.51 0 0 1 3.1 3.5 15.43 15.43 0 0 1 1.6 3.8 18.76 18.76 0 0 1 -.1 8.5c-.1.7-.3 1.2-.4 1.8a14.37 14.37 0 0 1 -3.55 6.1 12.49 12.49 0 0 1 -10.4 3.5 3.08 3.08 0 0 1 -1.3-.3 11.69 11.69 0 0 1 -6.9-4.4 12 12 0 0 1 -2.6-5.3 22.05 22.05 0 0 1 .5-10.2z" fill="#fbe106"/><path d="m392.05 483.6a7.4 7.4 0 0 0 6.5-4.5 20.93 20.93 0 0 0 1.3-7.6 8.41 8.41 0 0 0 -2.8-6.3 5.81 5.81 0 0 0 -4.2-1.6 6.07 6.07 0 0 0 -5 2.4 14.63 14.63 0 0 0 -2.7 6.7c-.3 3.1-.1 6.3 2.2 8.8a6.27 6.27 0 0 0 4.7 2.1z" fill="#007c3d"/><path d="m93.35 295.5c1.1-.5 5.4-1.2 5.9-1.8a2.58 2.58 0 0 0 .9-.9c.4-.4 3.5-4 3.5-4.7 0-1.3-2-2.3-3-2.3a7.49 7.49 0 0 0 -4.9 2.2c-1.3 2-1.7 4.6-2.4 7.5z" fill="#259254"/><path d="m149.05 238.7c9.7-21.3 34.3-49 52.5-64.5-20.1 8.4-57.5 40.4-52.5 64.5z" fill="#259254"/><path d="m181.35 244.7c15.4-29.8 51.7-55.8 60.4-62-15.9 5.1-67 37-60.4 62z" fill="#259254"/><path d="m122.05 237.9c1.3-9.6 5.8-19.6 9.4-26-5.8 4.3-13.4 15.4-9.4 26z" fill="#259254"/><path d="m190.65 288c8.4-17.5 37.2-37.5 51.4-46.3-15.3 1.2-48.7 16.5-51.4 46.3z" fill="#259254"/><path d="m229 236.6c15.2-17.9 50.3-35.9 66.4-42.9-18 0-66.4 20.5-66.4 42.9z" fill="#259254"/><path d="m237.05 276.7a109.75 109.75 0 0 1 30.1-20.8c-13.5-1.6-28 10.4-30.1 20.8z" fill="#259254"/><path d="m251.55 252c19.2-17.4 43.2-26.3 71.4-35.5-13.9-1.6-57.9 8.2-71.4 35.5z" fill="#259254"/><path d="m227.15 302.7c14.3-15 33.5-22.9 46.1-27.2-16.1-2.2-37.3 3.7-46.1 27.2z" fill="#259254"/><path d="m266.85 267.3c9.6-5.7 22.1-9.2 31.4-11.6 18.1-5 33.2-5.7 47.8-7-20.4-5.9-70.7-.8-79.2 18.6z" fill="#259254"/><path d="m289.05 281.8c14.7-4 52.9-2.8 70.3-1.1-13.5-8.9-61.6-9.2-70.3 1.1z" fill="#259254"/><path d="m274.65 302c7.7-5.4 20.2-10.1 33.5-11.6-11-2-26.3-2.8-33.5 11.6z" fill="#259254"/><path d="m297.75 302.7c15.5-3.6 37.6-1.8 53.4.1-6.6-4.7-39.7-12.1-53.4-.1z" fill="#259254"/><path d="m279.75 317.1c5.9-3.9 18.6-5 26.2-4.7-8.4-5-21.3-4.2-26.2 4.7z" fill="#259254"/><path d="m307.85 322.8c18.8-5.8 29-2.8 40.9-1.9-7.7-4.5-28.5-10.9-40.9 1.9z" fill="#259254"/><path d="m305.65 332.4c20.8-.5 19.3 1.6 29.5 4.7-1.8-2.8-12.6-13.2-29.5-4.7z" fill="#259254"/><path d="m110.45 237.4a14.49 14.49 0 0 1 -1.3-11.5c-2.6 1.9-4.2 8.9 1.3 11.5z" fill="#259254"/></g><path d="m209.31 513.8 3.27-.32a3.94 3.94 0 0 0 1.19 2.42 3.64 3.64 0 0 0 2.44.77 3.72 3.72 0 0 0 2.44-.69 2 2 0 0 0 .82-1.6 1.5 1.5 0 0 0 -.34-1 2.72 2.72 0 0 0 -1.21-.72c-.4-.14-1.29-.38-2.69-.73a9.21 9.21 0 0 1 -3.79-1.64 4.34 4.34 0 0 1 -1.53-3.35 4.29 4.29 0 0 1 .72-2.38 4.55 4.55 0 0 1 2.08-1.68 8.21 8.21 0 0 1 3.27-.58 7 7 0 0 1 4.71 1.37 4.83 4.83 0 0 1 1.66 3.67l-3.35.14a2.91 2.91 0 0 0 -.93-1.84 3.41 3.41 0 0 0 -2.13-.56 3.87 3.87 0 0 0 -2.29.6 1.22 1.22 0 0 0 -.53 1 1.28 1.28 0 0 0 .5 1 8.58 8.58 0 0 0 3.08 1.11 16.49 16.49 0 0 1 3.63 1.2 4.77 4.77 0 0 1 1.84 1.69 5.24 5.24 0 0 1 -.14 5.33 4.67 4.67 0 0 1 -2.24 1.85 9.5 9.5 0 0 1 -3.62.61 7.21 7.21 0 0 1 -4.84-1.46 6.33 6.33 0 0 1 -2.02-4.21z" stroke="#231f20" stroke-miterlimit="10" stroke-width=".25"/></svg>