<?xml version="1.0" encoding="UTF-8"?>
<svg xmlns="http://www.w3.org/2000/svg" xmlns:xlink="http://www.w3.org/1999/xlink" width="193.68pt" height="234.72pt" viewBox="0 0 193.68 234.72" version="1.1">
<defs>
<clipPath id="clip1">
  <path d="M 0 0 L 193.679688 0 L 193.679688 234.71875 L 0 234.71875 Z M 0 0 "/>
</clipPath>
</defs>
<g id="surface1">
<g clip-path="url(#clip1)" clip-rule="nonzero">
<path style=" stroke:none;fill-rule:nonzero;fill:rgb(13.699341%,12.199402%,12.5%);fill-opacity:1;" d="M 193.679688 0 L 193.679688 75.097656 C 193.679688 89.496094 191.664063 103.246094 187.992188 116.425781 C 184.105469 130.246094 178.273438 143.496094 171 156.023438 C 163.367188 169.128906 154.007813 181.441406 143.566406 192.960938 C 132.121094 205.488281 119.304688 217.078125 105.695313 227.734375 L 98.570313 233.351563 L 96.839844 234.71875 L 95.113281 233.351563 L 87.984375 227.734375 C 74.375 217.078125 61.558594 205.488281 50.113281 192.960938 C 39.671875 181.441406 30.3125 169.128906 22.679688 156.023438 C 15.40625 143.496094 9.574219 130.246094 5.6875 116.425781 C 2.015625 103.246094 0 89.496094 0 75.097656 L 0 0 L 193.679688 0 "/>
</g>
<path style=" stroke:none;fill-rule:nonzero;fill:rgb(98.799133%,91.398621%,1.998901%);fill-opacity:1;" d="M 190.871094 2.878906 L 190.871094 75.097656 C 190.871094 104.257813 182.519531 130.679688 168.550781 154.582031 C 152.785156 181.65625 129.816406 205.273438 103.894531 225.503906 L 96.839844 231.121094 L 89.785156 225.503906 C 63.863281 205.273438 40.894531 181.65625 25.128906 154.582031 C 11.160156 130.679688 2.808594 104.257813 2.808594 75.097656 L 2.808594 2.878906 L 190.871094 2.878906 "/>
<path style=" stroke:none;fill-rule:nonzero;fill:rgb(13.699341%,12.199402%,12.5%);fill-opacity:1;" d="M 179.28125 75.097656 C 179.28125 133.199219 143.0625 180.214844 96.839844 216.433594 C 50.617188 180.214844 14.402344 133.199219 14.402344 75.097656 L 179.28125 75.097656 "/>
<path style=" stroke:none;fill-rule:nonzero;fill:rgb(13.699341%,12.199402%,12.5%);fill-opacity:1;" d="M 179.28125 14.472656 L 179.28125 48.238281 L 14.402344 48.238281 L 14.402344 14.472656 L 179.28125 14.472656 "/>
<path style=" stroke:none;fill-rule:nonzero;fill:rgb(13.699341%,12.199402%,12.5%);fill-opacity:1;" d="M 176.257813 53.136719 L 176.328125 53.28125 L 176.472656 58.824219 L 176.472656 58.96875 L 175.535156 58.96875 L 175.535156 58.894531 C 175.390625 58.175781 175.105469 57.601563 174.742188 57.023438 C 174.382813 56.449219 173.878906 56.015625 173.304688 55.585938 C 172.726563 55.152344 172.078125 54.863281 171.503906 54.648438 C 170.855469 54.433594 170.207031 54.289063 169.488281 54.289063 C 168.984375 54.289063 168.480469 54.359375 168.046875 54.503906 C 167.6875 54.574219 167.328125 54.71875 166.96875 54.9375 C 166.679688 55.152344 166.464844 55.441406 166.320313 55.65625 C 166.175781 55.871094 166.105469 56.160156 166.105469 56.375 C 166.105469 56.59375 166.105469 56.734375 166.175781 56.878906 C 166.246094 57.023438 166.320313 57.167969 166.390625 57.3125 C 166.535156 57.457031 166.753906 57.671875 166.96875 57.886719 C 167.257813 58.03125 167.542969 58.246094 167.832031 58.390625 C 168.121094 58.535156 168.480469 58.753906 169.054688 58.96875 C 169.632813 59.183594 170.351563 59.472656 171.289063 59.832031 C 172.585938 60.335938 173.59375 60.769531 174.457031 61.273438 C 175.320313 61.703125 176.039063 62.136719 176.472656 62.640625 C 176.902344 63.070313 177.265625 63.503906 177.480469 64.007813 C 177.695313 64.511719 177.839844 65.089844 177.839844 65.664063 C 177.839844 66.382813 177.625 67.03125 177.265625 67.679688 C 176.902344 68.257813 176.328125 68.832031 175.609375 69.40625 C 174.886719 69.910156 174.097656 70.273438 173.160156 70.558594 C 172.296875 70.777344 171.289063 70.921875 170.207031 70.921875 C 169.847656 70.921875 169.488281 70.921875 169.199219 70.847656 C 168.839844 70.847656 168.550781 70.777344 168.265625 70.777344 C 167.902344 70.703125 167.542969 70.632813 167.183594 70.488281 C 166.824219 70.414063 166.390625 70.273438 165.960938 70.128906 C 165.671875 70.054688 165.457031 69.984375 165.238281 69.984375 C 165.023438 69.910156 164.878906 69.910156 164.734375 69.910156 C 164.59375 69.910156 164.449219 69.910156 164.304688 69.984375 C 164.160156 69.984375 164.015625 70.054688 163.945313 70.128906 C 163.800781 70.199219 163.65625 70.273438 163.511719 70.414063 C 163.441406 70.558594 163.296875 70.703125 163.222656 70.847656 L 163.152344 70.921875 L 162.359375 70.921875 L 162.359375 64.296875 L 163.222656 64.296875 L 163.222656 64.367188 C 163.441406 65.304688 163.800781 66.023438 164.230469 66.742188 C 164.664063 67.390625 165.238281 67.894531 165.886719 68.398438 C 166.535156 68.832031 167.183594 69.191406 167.902344 69.40625 C 168.625 69.625 169.34375 69.769531 170.136719 69.769531 C 170.714844 69.769531 171.214844 69.695313 171.648438 69.550781 C 172.152344 69.480469 172.511719 69.265625 172.871094 69.046875 C 173.230469 68.832031 173.449219 68.542969 173.664063 68.257813 C 173.808594 67.96875 173.878906 67.679688 173.878906 67.390625 C 173.878906 67.03125 173.734375 66.671875 173.519531 66.3125 C 173.375 66.167969 173.230469 65.953125 173.015625 65.808594 C 172.800781 65.664063 172.585938 65.449219 172.296875 65.304688 C 172.007813 65.160156 171.648438 64.945313 171.144531 64.726563 C 170.714844 64.511719 170.0625 64.296875 169.414063 64.007813 C 168.40625 63.648438 167.542969 63.289063 166.824219 63 C 166.105469 62.640625 165.527344 62.351563 165.097656 62.136719 C 164.664063 61.847656 164.304688 61.558594 163.945313 61.273438 C 163.65625 60.910156 163.367188 60.625 163.078125 60.265625 C 162.863281 59.976563 162.648438 59.617188 162.574219 59.257813 C 162.433594 58.824219 162.359375 58.464844 162.359375 58.03125 C 162.359375 57.382813 162.503906 56.734375 162.863281 56.160156 C 163.222656 55.585938 163.65625 55.007813 164.304688 54.574219 C 164.953125 54.070313 165.742188 53.710938 166.535156 53.496094 C 167.328125 53.207031 168.191406 53.136719 169.199219 53.136719 C 169.558594 53.136719 169.921875 53.136719 170.28125 53.136719 C 170.566406 53.207031 170.929688 53.207031 171.289063 53.28125 C 171.503906 53.351563 171.792969 53.425781 172.152344 53.496094 C 172.441406 53.640625 172.726563 53.710938 173.089844 53.855469 C 173.449219 54 173.808594 54.070313 174.023438 54.144531 C 174.238281 54.214844 174.457031 54.289063 174.601563 54.289063 C 174.671875 54.289063 174.816406 54.214844 174.886719 54.214844 C 174.960938 54.214844 175.105469 54.144531 175.105469 54.070313 C 175.175781 54.070313 175.246094 53.929688 175.320313 53.785156 C 175.390625 53.640625 175.464844 53.425781 175.535156 53.207031 L 175.535156 53.136719 L 176.257813 53.136719 "/>
<path style=" stroke:none;fill-rule:nonzero;fill:rgb(13.699341%,12.199402%,12.5%);fill-opacity:1;" d="M 149.902344 65.734375 L 142.414063 65.734375 L 141.550781 67.320313 C 141.335938 67.679688 141.121094 68.183594 141.121094 68.542969 C 141.121094 68.902344 141.335938 69.265625 141.769531 69.480469 C 141.910156 69.550781 142.128906 69.625 142.488281 69.625 C 142.847656 69.695313 143.28125 69.769531 143.855469 69.769531 L 144 69.769531 L 144 70.488281 L 136.511719 70.488281 L 136.511719 69.769531 L 136.65625 69.769531 C 137.59375 69.695313 138.3125 69.265625 138.816406 68.6875 C 139.390625 68.113281 139.824219 67.390625 140.328125 66.601563 L 148.03125 53.207031 L 148.105469 53.136719 L 148.535156 53.136719 L 148.609375 53.207031 L 151.777344 58.824219 L 151.777344 70.488281 L 149.039063 70.488281 L 149.039063 69.769531 L 149.617188 69.769531 C 149.832031 69.769531 150.40625 69.769531 150.839844 69.695313 C 151.199219 69.625 151.558594 69.40625 151.558594 69.046875 C 151.558594 69.046875 151.558594 68.976563 151.558594 68.902344 C 151.558594 68.832031 151.488281 68.761719 151.488281 68.6875 C 151.488281 68.617188 151.414063 68.542969 151.34375 68.398438 C 151.273438 68.257813 151.199219 68.039063 150.984375 67.753906 Z M 151.777344 58.824219 L 151.777344 70.488281 Z M 151.777344 58.824219 L 156.382813 66.960938 C 156.527344 67.246094 156.742188 67.535156 156.886719 67.753906 C 157.03125 68.039063 157.175781 68.257813 157.320313 68.472656 C 157.679688 68.902344 157.96875 69.191406 158.328125 69.40625 C 158.6875 69.625 159.046875 69.769531 159.625 69.769531 L 159.769531 69.769531 L 159.769531 70.488281 L 151.777344 70.488281 L 151.777344 58.824219 "/>
<path style=" stroke:none;fill-rule:nonzero;fill:rgb(98.799133%,91.398621%,1.998901%);fill-opacity:1;" d="M 149.183594 64.585938 L 146.230469 59.183594 L 143.136719 64.585938 L 149.183594 64.585938 "/>
<path style=" stroke:none;fill-rule:nonzero;fill:rgb(13.699341%,12.199402%,12.5%);fill-opacity:1;" d="M 132.910156 53.136719 L 132.910156 53.28125 L 133.054688 58.824219 L 133.054688 58.96875 L 132.191406 58.96875 L 132.121094 58.894531 C 131.976563 58.175781 131.761719 57.601563 131.398438 57.023438 C 130.96875 56.449219 130.535156 56.015625 129.960938 55.585938 C 129.3125 55.152344 128.734375 54.863281 128.089844 54.648438 C 127.441406 54.433594 126.792969 54.289063 126.070313 54.289063 C 125.566406 54.289063 125.0625 54.359375 124.703125 54.503906 C 124.273438 54.574219 123.910156 54.71875 123.625 54.9375 C 123.335938 55.152344 123.046875 55.441406 122.902344 55.65625 C 122.761719 55.871094 122.6875 56.160156 122.6875 56.375 C 122.6875 56.59375 122.761719 56.734375 122.761719 56.878906 C 122.832031 57.023438 122.902344 57.167969 123.046875 57.3125 C 123.191406 57.457031 123.335938 57.671875 123.625 57.886719 C 123.839844 58.03125 124.128906 58.246094 124.488281 58.390625 C 124.703125 58.535156 125.136719 58.753906 125.714844 58.96875 C 126.289063 59.183594 127.007813 59.472656 127.871094 59.832031 C 129.167969 60.335938 130.246094 60.769531 131.113281 61.273438 C 131.976563 61.703125 132.625 62.136719 133.054688 62.640625 C 133.488281 63.070313 133.847656 63.503906 134.0625 64.007813 C 134.28125 64.511719 134.425781 65.089844 134.425781 65.664063 C 134.425781 66.382813 134.207031 67.03125 133.847656 67.679688 C 133.488281 68.257813 132.984375 68.832031 132.265625 69.40625 C 131.542969 69.910156 130.679688 70.273438 129.816406 70.558594 C 128.878906 70.777344 127.871094 70.921875 126.792969 70.921875 C 126.433594 70.921875 126.144531 70.921875 125.785156 70.847656 C 125.496094 70.847656 125.136719 70.777344 124.847656 70.777344 C 124.558594 70.703125 124.199219 70.632813 123.769531 70.488281 C 123.40625 70.414063 122.976563 70.273438 122.542969 70.128906 C 122.328125 70.054688 122.039063 69.984375 121.894531 69.984375 C 121.679688 69.910156 121.464844 69.910156 121.320313 69.910156 C 121.175781 69.910156 121.03125 69.910156 120.960938 69.984375 C 120.816406 69.984375 120.671875 70.054688 120.527344 70.128906 C 120.382813 70.199219 120.238281 70.273438 120.097656 70.414063 C 120.023438 70.558594 119.878906 70.703125 119.808594 70.847656 L 119.808594 70.921875 L 118.945313 70.921875 L 118.945313 64.296875 L 119.808594 64.296875 L 119.808594 64.367188 C 120.097656 65.304688 120.382813 66.023438 120.816406 66.742188 C 121.246094 67.390625 121.824219 67.894531 122.472656 68.398438 C 123.121094 68.832031 123.839844 69.191406 124.558594 69.40625 C 125.207031 69.625 125.929688 69.769531 126.71875 69.769531 C 127.296875 69.769531 127.800781 69.695313 128.304688 69.550781 C 128.734375 69.480469 129.167969 69.265625 129.457031 69.046875 C 129.816406 68.832031 130.105469 68.542969 130.246094 68.257813 C 130.390625 67.96875 130.464844 67.679688 130.464844 67.390625 C 130.464844 67.246094 130.464844 67.03125 130.390625 66.886719 C 130.320313 66.671875 130.246094 66.527344 130.105469 66.3125 C 129.960938 66.167969 129.816406 65.953125 129.601563 65.808594 C 129.382813 65.664063 129.167969 65.449219 128.878906 65.304688 C 128.664063 65.160156 128.230469 64.945313 127.800781 64.726563 C 127.296875 64.511719 126.71875 64.296875 126 64.007813 C 124.992188 63.648438 124.199219 63.289063 123.480469 63 C 122.761719 62.640625 122.183594 62.351563 121.753906 62.136719 C 121.320313 61.847656 120.886719 61.558594 120.601563 61.273438 C 120.238281 60.910156 119.953125 60.625 119.734375 60.265625 C 119.449219 59.976563 119.304688 59.617188 119.160156 59.257813 C 119.015625 58.824219 118.945313 58.464844 118.945313 58.03125 C 118.945313 57.382813 119.160156 56.734375 119.449219 56.160156 C 119.808594 55.585938 120.3125 55.007813 120.960938 54.574219 C 121.609375 54.070313 122.328125 53.710938 123.121094 53.496094 C 123.910156 53.207031 124.847656 53.136719 125.785156 53.136719 C 126.144531 53.136719 126.503906 53.136719 126.863281 53.136719 C 127.222656 53.207031 127.511719 53.207031 127.871094 53.28125 C 128.160156 53.351563 128.449219 53.425781 128.734375 53.496094 C 129.023438 53.640625 129.382813 53.710938 129.742188 53.855469 C 130.105469 54 130.390625 54.070313 130.609375 54.144531 C 130.894531 54.214844 131.039063 54.289063 131.183594 54.289063 C 131.328125 54.289063 131.398438 54.214844 131.542969 54.214844 C 131.617188 54.214844 131.6875 54.144531 131.761719 54.070313 C 131.832031 54.070313 131.902344 53.929688 131.976563 53.785156 C 131.976563 53.640625 132.046875 53.425781 132.121094 53.207031 L 132.191406 53.136719 L 132.910156 53.136719 "/>
<path style=" stroke:none;fill-rule:nonzero;fill:rgb(13.699341%,12.199402%,12.5%);fill-opacity:1;" d="M 103.824219 53.28125 C 105.550781 53.207031 107.136719 53.351563 108.503906 53.785156 C 109.945313 54.144531 111.167969 54.792969 112.320313 55.585938 C 113.398438 56.449219 114.191406 57.382813 114.769531 58.464844 C 115.273438 59.542969 115.558594 60.695313 115.558594 61.921875 C 115.558594 63 115.34375 64.007813 114.984375 65.015625 C 114.550781 65.953125 113.976563 66.816406 113.113281 67.679688 C 112.609375 68.113281 112.105469 68.542969 111.527344 68.976563 C 110.953125 69.335938 110.304688 69.625 109.65625 69.910156 C 108.792969 70.273438 107.929688 70.488281 106.992188 70.703125 C 105.984375 70.847656 104.976563 70.921875 103.96875 70.921875 C 103.03125 70.921875 102.023438 70.847656 101.089844 70.703125 C 100.222656 70.558594 99.289063 70.34375 98.496094 70.054688 C 97.414063 69.625 96.480469 69.046875 95.542969 68.328125 C 94.679688 67.609375 93.960938 66.816406 93.382813 65.808594 C 93.097656 65.230469 92.808594 64.65625 92.664063 64.007813 C 92.449219 63.359375 92.375 62.640625 92.375 61.921875 C 92.375 60.695313 92.664063 59.542969 93.238281 58.464844 C 93.816406 57.382813 94.609375 56.449219 95.761719 55.65625 C 96.191406 55.296875 96.625 55.007813 97.054688 54.71875 C 97.558594 54.433594 98.0625 54.214844 98.640625 54 C 99.359375 53.710938 100.222656 53.496094 101.089844 53.425781 C 101.953125 53.28125 102.816406 53.207031 103.824219 53.28125 "/>
<path style=" stroke:none;fill-rule:nonzero;fill:rgb(98.799133%,91.398621%,1.998901%);fill-opacity:1;" d="M 103.96875 54.359375 C 103.03125 54.359375 102.167969 54.503906 101.449219 54.9375 C 100.726563 55.296875 100.078125 55.871094 99.578125 56.59375 C 99.214844 57.238281 98.855469 58.03125 98.710938 58.894531 C 98.496094 59.832031 98.351563 60.839844 98.351563 62.0625 C 98.351563 63.503906 98.496094 64.726563 98.855469 65.734375 C 99.144531 66.816406 99.648438 67.609375 100.296875 68.328125 C 100.726563 68.761719 101.230469 69.121094 101.878906 69.335938 C 102.457031 69.550781 103.175781 69.695313 103.96875 69.695313 C 104.472656 69.695313 104.976563 69.625 105.480469 69.550781 C 105.910156 69.40625 106.273438 69.265625 106.632813 69.121094 C 107.0625 68.832031 107.496094 68.472656 107.855469 68.113281 C 108.214844 67.679688 108.503906 67.175781 108.792969 66.601563 C 109.007813 66.097656 109.222656 65.375 109.367188 64.65625 C 109.441406 63.9375 109.511719 63.070313 109.511719 62.136719 C 109.511719 59.976563 109.296875 58.320313 108.71875 57.238281 C 108.503906 56.734375 108.214844 56.230469 107.855469 55.871094 C 107.566406 55.511719 107.207031 55.222656 106.777344 55.007813 C 106.34375 54.792969 105.910156 54.574219 105.480469 54.503906 C 105.046875 54.359375 104.542969 54.359375 103.96875 54.359375 "/>
<path style=" stroke:none;fill-rule:nonzero;fill:rgb(13.699341%,12.199402%,12.5%);fill-opacity:1;" d="M 75.167969 64.367188 L 80.929688 53.566406 L 81 53.496094 L 90 53.496094 L 90 54.214844 L 89.136719 54.214844 C 88.847656 54.214844 88.558594 54.289063 88.34375 54.289063 C 88.054688 54.359375 87.839844 54.359375 87.695313 54.503906 C 87.550781 54.503906 87.480469 54.574219 87.335938 54.71875 C 87.265625 54.792969 87.191406 54.863281 87.121094 55.007813 C 87.046875 55.078125 87.046875 55.222656 86.976563 55.511719 C 86.976563 55.726563 86.976563 56.089844 86.976563 56.449219 L 86.976563 67.535156 C 86.976563 67.894531 86.976563 68.257813 86.976563 68.542969 C 87.046875 68.761719 87.046875 68.976563 87.121094 69.046875 C 87.191406 69.121094 87.265625 69.191406 87.335938 69.335938 C 87.480469 69.40625 87.625 69.480469 87.769531 69.550781 C 87.910156 69.625 88.128906 69.695313 88.34375 69.695313 C 88.558594 69.769531 88.847656 69.769531 89.136719 69.769531 L 90 69.769531 L 90 70.488281 L 78.40625 70.488281 L 78.40625 69.769531 L 79.273438 69.769531 C 79.558594 69.769531 79.847656 69.769531 80.136719 69.695313 C 80.351563 69.695313 80.570313 69.625 80.710938 69.550781 C 80.855469 69.480469 81 69.40625 81.074219 69.335938 C 81.144531 69.265625 81.214844 69.121094 81.289063 68.976563 C 81.359375 68.902344 81.433594 68.761719 81.433594 68.542969 C 81.433594 68.257813 81.503906 67.894531 81.503906 67.535156 L 81.503906 55.65625 L 73.441406 70.414063 L 73.367188 70.488281 L 72.863281 70.488281 L 72.792969 70.414063 L 64.65625 55.726563 L 64.65625 67.03125 C 64.65625 67.390625 64.65625 67.753906 64.65625 67.96875 C 64.65625 68.257813 64.726563 68.398438 64.726563 68.472656 C 64.800781 68.6875 64.871094 68.832031 65.015625 68.976563 C 65.160156 69.121094 65.375 69.265625 65.59375 69.40625 C 65.808594 69.550781 66.097656 69.625 66.382813 69.695313 C 66.742188 69.769531 67.175781 69.769531 67.679688 69.769531 L 67.824219 69.769531 L 67.824219 70.488281 L 60.121094 70.488281 L 60.121094 69.769531 L 60.480469 69.769531 C 60.695313 69.769531 60.910156 69.769531 61.128906 69.769531 C 61.34375 69.695313 61.558594 69.695313 61.777344 69.625 C 61.992188 69.550781 62.136719 69.480469 62.28125 69.40625 C 62.425781 69.335938 62.570313 69.191406 62.640625 69.121094 C 62.785156 69.046875 62.855469 68.902344 62.929688 68.761719 C 63 68.617188 63.074219 68.472656 63.144531 68.257813 C 63.144531 68.257813 63.144531 68.113281 63.144531 67.96875 C 63.144531 67.753906 63.144531 67.464844 63.144531 67.03125 L 63.144531 56.449219 C 63.144531 56.089844 63.144531 55.726563 63.144531 55.441406 C 63.074219 55.222656 63.074219 55.078125 63 54.9375 C 62.929688 54.863281 62.855469 54.792969 62.785156 54.71875 C 62.640625 54.648438 62.496094 54.503906 62.351563 54.433594 C 62.207031 54.359375 61.992188 54.359375 61.777344 54.289063 C 61.488281 54.289063 61.273438 54.214844 60.984375 54.214844 L 60.121094 54.214844 L 60.121094 53.496094 L 69.191406 53.496094 L 69.265625 53.566406 L 75.167969 64.367188 "/>
<path style=" stroke:none;fill-rule:nonzero;fill:rgb(13.699341%,12.199402%,12.5%);fill-opacity:1;" d="M 58.175781 69.769531 L 58.175781 70.488281 L 46.585938 70.488281 L 46.585938 69.769531 L 47.449219 69.769531 C 47.734375 69.769531 48.023438 69.769531 48.3125 69.695313 C 48.527344 69.695313 48.742188 69.625 48.886719 69.550781 C 49.03125 69.480469 49.175781 69.40625 49.246094 69.335938 C 49.320313 69.265625 49.390625 69.121094 49.464844 68.976563 C 49.535156 68.902344 49.609375 68.761719 49.609375 68.542969 C 49.609375 68.257813 49.679688 67.894531 49.679688 67.535156 L 49.679688 56.519531 C 49.679688 56.089844 49.609375 55.726563 49.609375 55.441406 C 49.609375 55.222656 49.535156 55.078125 49.464844 54.9375 C 49.464844 54.863281 49.390625 54.792969 49.246094 54.71875 C 49.175781 54.648438 49.03125 54.503906 48.816406 54.433594 C 48.671875 54.359375 48.457031 54.359375 48.238281 54.289063 C 48.023438 54.289063 47.734375 54.214844 47.449219 54.214844 L 46.585938 54.214844 L 46.585938 53.496094 L 58.175781 53.496094 L 58.175781 54.214844 L 57.3125 54.214844 C 57.023438 54.214844 56.734375 54.289063 56.519531 54.289063 C 56.230469 54.359375 56.015625 54.433594 55.871094 54.503906 C 55.726563 54.503906 55.65625 54.574219 55.511719 54.71875 C 55.441406 54.792969 55.367188 54.863281 55.296875 55.007813 C 55.222656 55.078125 55.222656 55.222656 55.152344 55.511719 C 55.152344 55.726563 55.152344 56.089844 55.152344 56.519531 L 55.152344 67.535156 C 55.152344 67.96875 55.152344 68.257813 55.152344 68.542969 C 55.222656 68.761719 55.222656 68.976563 55.296875 69.046875 C 55.367188 69.121094 55.441406 69.191406 55.511719 69.335938 C 55.65625 69.40625 55.800781 69.480469 55.945313 69.550781 C 56.089844 69.625 56.304688 69.695313 56.519531 69.695313 C 56.734375 69.769531 57.023438 69.769531 57.3125 69.769531 L 58.175781 69.769531 "/>
<path style=" stroke:none;fill-rule:nonzero;fill:rgb(13.699341%,12.199402%,12.5%);fill-opacity:1;" d="M 30.023438 64.367188 L 35.785156 53.566406 L 35.785156 53.496094 L 44.855469 53.496094 L 44.855469 54.214844 L 43.992188 54.214844 C 43.632813 54.214844 43.414063 54.289063 43.128906 54.289063 C 42.910156 54.359375 42.695313 54.359375 42.480469 54.503906 C 42.40625 54.503906 42.265625 54.574219 42.191406 54.71875 C 42.121094 54.792969 41.976563 54.863281 41.90625 55.007813 C 41.90625 55.078125 41.832031 55.222656 41.832031 55.511719 C 41.761719 55.726563 41.761719 56.089844 41.761719 56.449219 L 41.761719 67.535156 C 41.761719 67.894531 41.761719 68.257813 41.832031 68.542969 C 41.832031 68.761719 41.90625 68.976563 41.90625 69.046875 C 41.976563 69.121094 42.046875 69.191406 42.191406 69.335938 C 42.265625 69.40625 42.40625 69.480469 42.550781 69.550781 C 42.769531 69.625 42.984375 69.695313 43.199219 69.695313 C 43.414063 69.769531 43.703125 69.769531 43.992188 69.769531 L 44.855469 69.769531 L 44.855469 70.488281 L 33.265625 70.488281 L 33.265625 69.769531 L 34.054688 69.769531 C 34.414063 69.769531 34.703125 69.769531 34.917969 69.695313 C 35.136719 69.695313 35.351563 69.625 35.570313 69.550781 C 35.710938 69.480469 35.785156 69.40625 35.855469 69.335938 C 36 69.265625 36.074219 69.121094 36.144531 68.976563 C 36.214844 68.902344 36.214844 68.761719 36.214844 68.542969 C 36.289063 68.257813 36.289063 67.894531 36.289063 67.535156 L 36.289063 55.65625 L 28.296875 70.414063 L 28.222656 70.488281 L 27.648438 70.488281 L 27.648438 70.414063 L 19.441406 55.726563 L 19.441406 67.03125 C 19.441406 67.390625 19.511719 67.753906 19.511719 67.96875 C 19.511719 68.257813 19.511719 68.398438 19.511719 68.472656 C 19.585938 68.6875 19.726563 68.832031 19.871094 68.976563 C 20.015625 69.121094 20.160156 69.265625 20.375 69.40625 C 20.59375 69.550781 20.878906 69.625 21.238281 69.695313 C 21.601563 69.769531 22.03125 69.769531 22.464844 69.769531 L 22.609375 69.769531 L 22.609375 70.488281 L 14.976563 70.488281 L 14.976563 69.769531 L 15.335938 69.769531 C 15.550781 69.769531 15.769531 69.769531 15.984375 69.769531 C 16.199219 69.695313 16.414063 69.695313 16.632813 69.625 C 16.777344 69.550781 16.992188 69.480469 17.136719 69.40625 C 17.28125 69.335938 17.425781 69.191406 17.496094 69.121094 C 17.570313 69.046875 17.640625 68.902344 17.785156 68.761719 C 17.855469 68.617188 17.929688 68.472656 17.929688 68.257813 C 17.929688 68.257813 18 68.113281 18 67.96875 C 18 67.753906 18 67.464844 18 67.03125 L 18 56.449219 C 18 56.089844 18 55.726563 17.929688 55.441406 C 17.929688 55.222656 17.855469 55.078125 17.855469 54.9375 C 17.785156 54.863281 17.710938 54.792969 17.570313 54.71875 C 17.496094 54.648438 17.351563 54.503906 17.207031 54.433594 L 17.136719 54.433594 L 17.207031 54.433594 C 17.136719 54.433594 17.136719 54.433594 17.136719 54.433594 C 16.992188 54.359375 16.777344 54.359375 16.558594 54.289063 C 16.34375 54.289063 16.054688 54.214844 15.769531 54.214844 L 14.976563 54.214844 L 14.976563 53.496094 L 23.976563 53.496094 L 24.046875 53.566406 L 30.023438 64.367188 "/>
<path style=" stroke:none;fill-rule:nonzero;fill:rgb(98.799133%,91.398621%,1.998901%);fill-opacity:1;" d="M 24.265625 94.609375 C 26.929688 94.609375 29.160156 92.449219 29.160156 89.710938 C 29.160156 87.046875 26.929688 84.816406 24.265625 84.816406 C 21.527344 84.816406 19.296875 87.046875 19.296875 89.710938 C 19.296875 92.449219 21.527344 94.609375 24.265625 94.609375 "/>
<path style=" stroke:none;fill-rule:nonzero;fill:rgb(98.799133%,91.398621%,1.998901%);fill-opacity:1;" d="M 36.144531 90.648438 C 38.878906 90.648438 41.039063 88.414063 41.039063 85.679688 C 41.039063 83.015625 38.878906 80.785156 36.144531 80.785156 C 33.480469 80.785156 31.246094 83.015625 31.246094 85.679688 C 31.246094 88.414063 33.480469 90.648438 36.144531 90.648438 "/>
<path style=" stroke:none;fill-rule:nonzero;fill:rgb(98.799133%,91.398621%,1.998901%);fill-opacity:1;" d="M 40.96875 99.144531 C 43.632813 99.144531 45.863281 96.910156 45.863281 94.246094 C 45.863281 91.511719 43.632813 89.351563 40.96875 89.351563 C 38.230469 89.351563 36.074219 91.511719 36.074219 94.246094 C 36.074219 96.910156 38.230469 99.144531 40.96875 99.144531 "/>
<path style=" stroke:none;fill-rule:nonzero;fill:rgb(98.799133%,91.398621%,1.998901%);fill-opacity:1;" d="M 31.535156 103.96875 C 34.199219 103.96875 36.433594 101.734375 36.433594 99.070313 C 36.433594 96.335938 34.199219 94.105469 31.535156 94.105469 C 28.800781 94.105469 26.640625 96.335938 26.640625 99.070313 C 26.640625 101.734375 28.800781 103.96875 31.535156 103.96875 "/>
<path style=" stroke:none;fill-rule:nonzero;fill:rgb(98.799133%,91.398621%,1.998901%);fill-opacity:1;" d="M 43.054688 113.472656 C 45.71875 113.472656 47.953125 111.3125 47.953125 108.574219 C 47.953125 105.910156 45.71875 103.679688 43.054688 103.679688 C 40.320313 103.679688 38.089844 105.910156 38.089844 108.574219 C 38.089844 111.3125 40.320313 113.472656 43.054688 113.472656 "/>
<path style=" stroke:none;fill-rule:nonzero;fill:rgb(98.799133%,91.398621%,1.998901%);fill-opacity:1;" d="M 71.710938 109.726563 C 74.375 109.726563 76.609375 107.566406 76.609375 104.832031 C 76.609375 102.167969 74.375 99.9375 71.710938 99.9375 C 68.976563 99.9375 66.742188 102.167969 66.742188 104.832031 C 66.742188 107.566406 68.976563 109.726563 71.710938 109.726563 "/>
<path style=" stroke:none;fill-rule:nonzero;fill:rgb(98.799133%,91.398621%,1.998901%);fill-opacity:1;" d="M 147.886719 92.808594 C 150.625 92.808594 152.855469 90.574219 152.855469 87.910156 C 152.855469 85.175781 150.625 82.945313 147.886719 82.945313 C 145.222656 82.945313 142.992188 85.175781 142.992188 87.910156 C 142.992188 90.574219 145.222656 92.808594 147.886719 92.808594 "/>
<path style=" stroke:none;fill-rule:nonzero;fill:rgb(98.799133%,91.398621%,1.998901%);fill-opacity:1;" d="M 57.527344 116.855469 C 60.265625 116.855469 62.425781 114.625 62.425781 111.960938 C 62.425781 109.222656 60.265625 107.0625 57.527344 107.0625 C 54.863281 107.0625 52.632813 109.222656 52.632813 111.960938 C 52.632813 114.625 54.863281 116.855469 57.527344 116.855469 "/>
<path style=" stroke:none;fill-rule:nonzero;fill:rgb(98.799133%,91.398621%,1.998901%);fill-opacity:1;" d="M 51.839844 125.785156 C 54.503906 125.785156 56.734375 123.625 56.734375 120.886719 C 56.734375 118.222656 54.503906 116.0625 51.839844 116.0625 C 49.105469 116.0625 46.945313 118.222656 46.945313 120.886719 C 46.945313 123.625 49.105469 125.785156 51.839844 125.785156 "/>
<path style=" stroke:none;fill-rule:nonzero;fill:rgb(98.799133%,91.398621%,1.998901%);fill-opacity:1;" d="M 80.28125 97.199219 C 83.015625 97.199219 85.175781 95.039063 85.175781 92.304688 C 85.175781 89.640625 83.015625 87.40625 80.28125 87.40625 C 77.617188 87.40625 75.382813 89.640625 75.382813 92.304688 C 75.382813 95.039063 77.617188 97.199219 80.28125 97.199219 "/>
<path style=" stroke:none;fill-rule:nonzero;fill:rgb(98.799133%,91.398621%,1.998901%);fill-opacity:1;" d="M 68.257813 92.015625 C 70.921875 92.015625 73.152344 89.855469 73.152344 87.121094 C 73.152344 84.457031 70.921875 82.222656 68.257813 82.222656 C 65.519531 82.222656 63.359375 84.457031 63.359375 87.121094 C 63.359375 89.855469 65.519531 92.015625 68.257813 92.015625 "/>
<path style=" stroke:none;fill-rule:nonzero;fill:rgb(98.799133%,91.398621%,1.998901%);fill-opacity:1;" d="M 81.144531 117.433594 C 83.878906 117.433594 86.039063 115.273438 86.039063 112.535156 C 86.039063 109.871094 83.878906 107.640625 81.144531 107.640625 C 78.480469 107.640625 76.246094 109.871094 76.246094 112.535156 C 76.246094 115.273438 78.480469 117.433594 81.144531 117.433594 "/>
<path style=" stroke:none;fill-rule:nonzero;fill:rgb(98.799133%,91.398621%,1.998901%);fill-opacity:1;" d="M 90 104.257813 C 92.664063 104.257813 94.894531 102.097656 94.894531 99.359375 C 94.894531 96.695313 92.664063 94.464844 90 94.464844 C 87.265625 94.464844 85.03125 96.695313 85.03125 99.359375 C 85.03125 102.097656 87.265625 104.257813 90 104.257813 "/>
<path style=" stroke:none;fill-rule:nonzero;fill:rgb(98.799133%,91.398621%,1.998901%);fill-opacity:1;" d="M 98.496094 114.335938 C 101.230469 114.335938 103.390625 112.175781 103.390625 109.441406 C 103.390625 106.703125 101.230469 104.542969 98.496094 104.542969 C 95.90625 104.542969 93.671875 106.703125 93.671875 109.441406 C 93.671875 112.175781 95.90625 114.335938 98.496094 114.335938 "/>
<path style=" stroke:none;fill-rule:nonzero;fill:rgb(98.799133%,91.398621%,1.998901%);fill-opacity:1;" d="M 92.375 127.945313 C 95.039063 127.945313 97.199219 125.785156 97.199219 123.046875 C 97.199219 120.382813 95.039063 118.152344 92.375 118.152344 C 89.640625 118.152344 87.480469 120.382813 87.480469 123.046875 C 87.480469 125.785156 89.640625 127.945313 92.375 127.945313 "/>
<path style=" stroke:none;fill-rule:nonzero;fill:rgb(98.799133%,91.398621%,1.998901%);fill-opacity:1;" d="M 103.753906 95.113281 C 106.488281 95.113281 108.648438 92.878906 108.648438 90.144531 C 108.648438 87.480469 106.488281 85.246094 103.753906 85.246094 C 101.089844 85.246094 98.855469 87.480469 98.855469 90.144531 C 98.855469 92.878906 101.089844 95.113281 103.753906 95.113281 "/>
<path style=" stroke:none;fill-rule:nonzero;fill:rgb(100%,94.898987%,0%);fill-opacity:1;" d="M 107.28125 88.558594 C 110.015625 88.558594 112.175781 86.328125 112.175781 83.59375 C 112.175781 80.929688 110.015625 78.695313 107.28125 78.695313 C 104.617188 78.695313 102.382813 80.929688 102.382813 83.59375 C 102.382813 86.328125 104.617188 88.558594 107.28125 88.558594 "/>
<path style=" stroke:none;fill-rule:nonzero;fill:rgb(98.799133%,91.398621%,1.998901%);fill-opacity:1;" d="M 108.289063 125.710938 C 110.953125 125.710938 113.183594 123.480469 113.183594 120.816406 C 113.183594 118.078125 110.953125 115.992188 108.289063 115.992188 C 105.550781 115.992188 103.390625 118.078125 103.390625 120.816406 C 103.390625 123.480469 105.550781 125.710938 108.289063 125.710938 "/>
<path style=" stroke:none;fill-rule:nonzero;fill:rgb(98.799133%,91.398621%,1.998901%);fill-opacity:1;" d="M 117.144531 120.886719 C 119.878906 120.886719 122.113281 118.726563 122.113281 116.0625 C 122.113281 113.398438 119.878906 111.167969 117.144531 111.167969 C 114.480469 111.167969 112.246094 113.398438 112.246094 116.0625 C 112.246094 118.726563 114.480469 120.886719 117.144531 120.886719 "/>
<path style=" stroke:none;fill-rule:nonzero;fill:rgb(98.799133%,91.398621%,1.998901%);fill-opacity:1;" d="M 112.03125 104.617188 C 114.769531 104.617188 117 102.382813 117 99.71875 C 117 96.984375 114.769531 94.824219 112.03125 94.824219 C 109.367188 94.824219 107.136719 96.984375 107.136719 99.71875 C 107.136719 102.382813 109.367188 104.617188 112.03125 104.617188 "/>
<path style=" stroke:none;fill-rule:nonzero;fill:rgb(98.799133%,91.398621%,1.998901%);fill-opacity:1;" d="M 120.167969 111.960938 C 122.902344 111.960938 125.136719 109.726563 125.136719 106.992188 C 125.136719 104.328125 122.902344 102.097656 120.167969 102.097656 C 117.503906 102.097656 115.273438 104.328125 115.273438 106.992188 C 115.273438 109.726563 117.503906 111.960938 120.167969 111.960938 "/>
<path style=" stroke:none;fill-rule:nonzero;fill:rgb(98.799133%,91.398621%,1.998901%);fill-opacity:1;" d="M 131.257813 107.207031 C 133.992188 107.207031 136.152344 104.976563 136.152344 102.3125 C 136.152344 99.574219 133.992188 97.414063 131.257813 97.414063 C 128.59375 97.414063 126.359375 99.574219 126.359375 102.3125 C 126.359375 104.976563 128.59375 107.207031 131.257813 107.207031 "/>
<path style=" stroke:none;fill-rule:nonzero;fill:rgb(98.799133%,91.398621%,1.998901%);fill-opacity:1;" d="M 124.992188 97.054688 C 127.726563 97.054688 129.886719 94.824219 129.886719 92.160156 C 129.886719 89.425781 127.726563 87.191406 124.992188 87.191406 C 122.328125 87.191406 120.097656 89.425781 120.097656 92.160156 C 120.097656 94.824219 122.328125 97.054688 124.992188 97.054688 "/>
<path style=" stroke:none;fill-rule:nonzero;fill:rgb(98.799133%,91.398621%,1.998901%);fill-opacity:1;" d="M 120.527344 88.414063 C 123.191406 88.414063 125.425781 86.257813 125.425781 83.519531 C 125.425781 80.855469 123.191406 78.625 120.527344 78.625 C 117.792969 78.625 115.632813 80.855469 115.632813 83.519531 C 115.632813 86.257813 117.792969 88.414063 120.527344 88.414063 "/>
<path style=" stroke:none;fill-rule:nonzero;fill:rgb(98.799133%,91.398621%,1.998901%);fill-opacity:1;" d="M 64.511719 131.976563 C 67.246094 131.976563 69.40625 129.742188 69.40625 127.078125 C 69.40625 124.34375 67.246094 122.183594 64.511719 122.183594 C 61.847656 122.183594 59.617188 124.34375 59.617188 127.078125 C 59.617188 129.742188 61.847656 131.976563 64.511719 131.976563 "/>
<path style=" stroke:none;fill-rule:nonzero;fill:rgb(98.799133%,91.398621%,1.998901%);fill-opacity:1;" d="M 57.886719 139.679688 C 60.625 139.679688 62.785156 137.519531 62.785156 134.785156 C 62.785156 132.121094 60.625 129.886719 57.886719 129.886719 C 55.152344 129.886719 52.992188 132.121094 52.992188 134.785156 C 52.992188 137.519531 55.152344 139.679688 57.886719 139.679688 "/>
<path style=" stroke:none;fill-rule:nonzero;fill:rgb(98.799133%,91.398621%,1.998901%);fill-opacity:1;" d="M 138.601563 100.585938 C 141.265625 100.585938 143.496094 98.351563 143.496094 95.617188 C 143.496094 92.953125 141.265625 90.71875 138.601563 90.71875 C 135.863281 90.71875 133.703125 92.953125 133.703125 95.617188 C 133.703125 98.351563 135.863281 100.585938 138.601563 100.585938 "/>
<path style=" stroke:none;fill-rule:nonzero;fill:rgb(98.799133%,91.398621%,1.998901%);fill-opacity:1;" d="M 97.992188 138.601563 C 100.726563 138.601563 102.886719 136.441406 102.886719 133.703125 C 102.886719 131.039063 100.726563 128.808594 97.992188 128.808594 C 95.398438 128.808594 93.167969 131.039063 93.167969 133.703125 C 93.167969 136.441406 95.398438 138.601563 97.992188 138.601563 "/>
<path style=" stroke:none;fill-rule:nonzero;fill:rgb(98.799133%,91.398621%,1.998901%);fill-opacity:1;" d="M 68.398438 92.089844 C 71.0625 92.089844 73.296875 89.929688 73.296875 87.191406 C 73.296875 84.527344 71.0625 82.296875 68.398438 82.296875 C 65.664063 82.296875 63.433594 84.527344 63.433594 87.191406 C 63.433594 89.929688 65.664063 92.089844 68.398438 92.089844 "/>
<path style=" stroke:none;fill-rule:nonzero;fill:rgb(98.799133%,91.398621%,1.998901%);fill-opacity:1;" d="M 166.679688 91.871094 C 169.414063 91.871094 171.574219 89.710938 171.574219 86.976563 C 171.574219 84.3125 169.414063 82.078125 166.679688 82.078125 C 164.015625 82.078125 161.785156 84.3125 161.785156 86.976563 C 161.785156 89.710938 164.015625 91.871094 166.679688 91.871094 "/>
<path style=" stroke:none;fill-rule:nonzero;fill:rgb(98.799133%,91.398621%,1.998901%);fill-opacity:1;" d="M 159.265625 105.40625 C 162 105.40625 164.160156 103.175781 164.160156 100.511719 C 164.160156 97.777344 162 95.617188 159.265625 95.617188 C 156.527344 95.617188 154.367188 97.777344 154.367188 100.511719 C 154.367188 103.175781 156.527344 105.40625 159.265625 105.40625 "/>
<path style=" stroke:none;fill-rule:nonzero;fill:rgb(98.799133%,91.398621%,1.998901%);fill-opacity:1;" d="M 151.414063 112.824219 C 154.152344 112.824219 156.3125 110.59375 156.3125 107.929688 C 156.3125 105.191406 154.152344 103.03125 151.414063 103.03125 C 148.753906 103.03125 146.519531 105.191406 146.519531 107.929688 C 146.519531 110.59375 148.753906 112.824219 151.414063 112.824219 "/>
<path style=" stroke:none;fill-rule:nonzero;fill:rgb(98.799133%,91.398621%,1.998901%);fill-opacity:1;" d="M 125.425781 152.566406 C 128.160156 152.566406 130.320313 150.335938 130.320313 147.671875 C 130.320313 144.9375 128.160156 142.777344 125.425781 142.777344 C 122.761719 142.777344 120.527344 144.9375 120.527344 147.671875 C 120.527344 150.335938 122.761719 152.566406 125.425781 152.566406 "/>
<path style=" stroke:none;fill-rule:nonzero;fill:rgb(98.799133%,91.398621%,1.998901%);fill-opacity:1;" d="M 141.625 146.230469 C 144.359375 146.230469 146.59375 144 146.59375 141.265625 C 146.59375 138.601563 144.359375 136.367188 141.625 136.367188 C 138.960938 136.367188 136.726563 138.601563 136.726563 141.265625 C 136.726563 144 138.960938 146.230469 141.625 146.230469 "/>
<path style=" stroke:none;fill-rule:nonzero;fill:rgb(98.799133%,91.398621%,1.998901%);fill-opacity:1;" d="M 143.0625 119.664063 C 145.726563 119.664063 147.960938 117.503906 147.960938 114.839844 C 147.960938 112.175781 145.726563 109.945313 143.0625 109.945313 C 140.328125 109.945313 138.097656 112.175781 138.097656 114.839844 C 138.097656 117.503906 140.328125 119.664063 143.0625 119.664063 "/>
<path style=" stroke:none;fill-rule:nonzero;fill:rgb(98.799133%,91.398621%,1.998901%);fill-opacity:1;" d="M 110.160156 157.03125 C 112.894531 157.03125 115.054688 154.871094 115.054688 152.136719 C 115.054688 149.472656 112.894531 147.238281 110.160156 147.238281 C 107.496094 147.238281 105.265625 149.472656 105.265625 152.136719 C 105.265625 154.871094 107.496094 157.03125 110.160156 157.03125 "/>
<path style=" stroke:none;fill-rule:nonzero;fill:rgb(98.799133%,91.398621%,1.998901%);fill-opacity:1;" d="M 127.800781 162.792969 C 130.464844 162.792969 132.695313 160.632813 132.695313 157.894531 C 132.695313 155.230469 130.464844 153 127.800781 153 C 125.0625 153 122.902344 155.230469 122.902344 157.894531 C 122.902344 160.632813 125.0625 162.792969 127.800781 162.792969 "/>
<path style=" stroke:none;fill-rule:nonzero;fill:rgb(98.799133%,91.398621%,1.998901%);fill-opacity:1;" d="M 119.375 166.464844 C 122.039063 166.464844 124.273438 164.230469 124.273438 161.566406 C 124.273438 158.832031 122.039063 156.671875 119.375 156.671875 C 116.640625 156.671875 114.480469 158.832031 114.480469 161.566406 C 114.480469 164.230469 116.640625 166.464844 119.375 166.464844 "/>
<path style=" stroke:none;fill-rule:nonzero;fill:rgb(98.799133%,91.398621%,1.998901%);fill-opacity:1;" d="M 105.550781 170.566406 C 108.289063 170.566406 110.449219 168.335938 110.449219 165.671875 C 110.449219 162.9375 108.289063 160.777344 105.550781 160.777344 C 102.886719 160.777344 100.65625 162.9375 100.65625 165.671875 C 100.65625 168.335938 102.886719 170.566406 105.550781 170.566406 "/>
<path style=" stroke:none;fill-rule:nonzero;fill:rgb(98.799133%,91.398621%,1.998901%);fill-opacity:1;" d="M 100.078125 148.320313 C 102.816406 148.320313 104.976563 146.160156 104.976563 143.425781 C 104.976563 140.761719 102.816406 138.527344 100.078125 138.527344 C 97.414063 138.527344 95.257813 140.761719 95.257813 143.425781 C 95.257813 146.160156 97.414063 148.320313 100.078125 148.320313 "/>
<path style=" stroke:none;fill-rule:nonzero;fill:rgb(98.799133%,91.398621%,1.998901%);fill-opacity:1;" d="M 96.839844 159.40625 C 99.503906 159.40625 101.734375 157.175781 101.734375 154.511719 C 101.734375 151.777344 99.503906 149.617188 96.839844 149.617188 C 94.175781 149.617188 91.945313 151.777344 91.945313 154.511719 C 91.945313 157.175781 94.175781 159.40625 96.839844 159.40625 "/>
<path style=" stroke:none;fill-rule:nonzero;fill:rgb(98.799133%,91.398621%,1.998901%);fill-opacity:1;" d="M 79.34375 161.136719 C 82.007813 161.136719 84.238281 158.976563 84.238281 156.238281 C 84.238281 153.574219 82.007813 151.34375 79.34375 151.34375 C 76.609375 151.34375 74.449219 153.574219 74.449219 156.238281 C 74.449219 158.976563 76.609375 161.136719 79.34375 161.136719 "/>
<path style=" stroke:none;fill-rule:nonzero;fill:rgb(98.799133%,91.398621%,1.998901%);fill-opacity:1;" d="M 76.824219 146.230469 C 79.488281 146.230469 81.71875 144 81.71875 141.265625 C 81.71875 138.601563 79.488281 136.367188 76.824219 136.367188 C 74.089844 136.367188 71.855469 138.601563 71.855469 141.265625 C 71.855469 144 74.089844 146.230469 76.824219 146.230469 "/>
<path style=" stroke:none;fill-rule:nonzero;fill:rgb(98.799133%,91.398621%,1.998901%);fill-opacity:1;" d="M 67.96875 152.28125 C 70.703125 152.28125 72.863281 150.046875 72.863281 147.382813 C 72.863281 144.648438 70.703125 142.488281 67.96875 142.488281 C 65.304688 142.488281 63.074219 144.648438 63.074219 147.382813 C 63.074219 150.046875 65.304688 152.28125 67.96875 152.28125 "/>
<path style=" stroke:none;fill-rule:nonzero;fill:rgb(98.799133%,91.398621%,1.998901%);fill-opacity:1;" d="M 82.871094 174.382813 C 85.535156 174.382813 87.769531 172.152344 87.769531 169.488281 C 87.769531 166.75 85.535156 164.59375 82.871094 164.59375 C 80.136719 164.59375 77.976563 166.75 77.976563 169.488281 C 77.976563 172.152344 80.136719 174.382813 82.871094 174.382813 "/>
<path style=" stroke:none;fill-rule:nonzero;fill:rgb(98.799133%,91.398621%,1.998901%);fill-opacity:1;" d="M 88.632813 184.609375 C 91.296875 184.609375 93.527344 182.449219 93.527344 179.710938 C 93.527344 177.046875 91.296875 174.816406 88.632813 174.816406 C 85.894531 174.816406 83.734375 177.046875 83.734375 179.710938 C 83.734375 182.449219 85.894531 184.609375 88.632813 184.609375 "/>
<path style=" stroke:none;fill-rule:nonzero;fill:rgb(98.799133%,91.398621%,1.998901%);fill-opacity:1;" d="M 95.976563 176.6875 C 98.570313 176.6875 100.800781 174.527344 100.800781 171.792969 C 100.800781 169.128906 98.570313 166.894531 95.976563 166.894531 C 93.238281 166.894531 91.082031 169.128906 91.082031 171.792969 C 91.082031 174.527344 93.238281 176.6875 95.976563 176.6875 "/>
<path style=" stroke:none;fill-rule:nonzero;fill:rgb(98.799133%,91.398621%,1.998901%);fill-opacity:1;" d="M 64.441406 101.59375 C 67.105469 101.59375 69.335938 99.359375 69.335938 96.695313 C 69.335938 93.960938 67.105469 91.800781 64.441406 91.800781 C 61.703125 91.800781 59.542969 93.960938 59.542969 96.695313 C 59.542969 99.359375 61.703125 101.59375 64.441406 101.59375 "/>
<path style=" stroke:none;fill-rule:nonzero;fill:rgb(98.799133%,91.398621%,1.998901%);fill-opacity:1;" d="M 154.078125 44.785156 C 152.714844 44.785156 151.414063 44.710938 150.121094 44.566406 C 148.824219 44.425781 147.527344 44.207031 146.375 43.921875 C 145.152344 43.632813 144 43.273438 142.921875 42.839844 C 141.839844 42.40625 140.832031 41.902344 139.96875 41.398438 C 139.03125 40.824219 138.238281 40.175781 137.449219 39.527344 C 136.726563 38.808594 136.078125 38.015625 135.574219 37.222656 C 135 36.359375 134.640625 35.496094 134.351563 34.488281 C 134.0625 33.550781 133.921875 32.617188 133.921875 31.609375 C 133.921875 30.601563 134.0625 29.59375 134.351563 28.65625 C 134.640625 27.71875 135 26.855469 135.574219 25.992188 C 136.152344 25.128906 136.800781 24.335938 137.519531 23.617188 C 138.238281 22.894531 139.105469 22.246094 140.113281 21.601563 C 141.046875 21.023438 142.054688 20.519531 143.136719 20.089844 C 144.214844 19.585938 145.441406 19.222656 146.664063 18.9375 C 147.960938 18.574219 149.328125 18.359375 150.625 18.214844 C 151.992188 18.070313 153.433594 18 154.800781 18 C 155.878906 18 156.886719 18 157.824219 18.070313 C 158.761719 18.144531 159.625 18.289063 160.558594 18.433594 C 162 18.71875 163.367188 19.222656 164.519531 19.585938 L 164.59375 19.65625 L 165.960938 18.792969 L 166.609375 18.574219 L 169.488281 18.574219 L 169.488281 19.726563 L 169.777344 28.222656 L 169.777344 29.375 L 165.671875 29.375 L 165.3125 28.726563 C 164.734375 27.503906 164.089844 26.425781 163.367188 25.558594 C 162.648438 24.695313 161.929688 23.976563 161.136719 23.472656 C 160.273438 22.894531 159.40625 22.535156 158.472656 22.246094 C 157.464844 21.960938 156.382813 21.816406 155.160156 21.816406 C 153.648438 21.816406 152.425781 22.03125 151.273438 22.464844 C 150.265625 22.824219 149.328125 23.398438 148.679688 24.191406 C 147.886719 24.984375 147.382813 25.921875 147.023438 27 C 146.59375 28.152344 146.449219 29.519531 146.449219 31.03125 C 146.449219 31.894531 146.519531 32.6875 146.664063 33.40625 C 146.734375 34.128906 146.953125 34.777344 147.167969 35.351563 C 147.457031 35.929688 147.742188 36.433594 148.105469 36.863281 C 148.390625 37.367188 148.753906 37.726563 149.113281 38.089844 C 149.542969 38.449219 150.046875 38.734375 150.550781 39.023438 C 151.054688 39.238281 151.632813 39.527344 152.207031 39.671875 C 152.855469 39.886719 153.503906 39.960938 154.222656 40.105469 C 154.871094 40.175781 155.59375 40.175781 156.457031 40.175781 C 157.535156 40.175781 158.617188 40.105469 159.625 39.886719 C 160.558594 39.742188 161.496094 39.457031 162.359375 39.097656 C 163.222656 38.664063 163.871094 38.304688 164.449219 37.945313 C 165.023438 37.441406 165.601563 36.9375 166.320313 36.144531 L 166.824219 35.566406 L 167.542969 35.855469 L 169.777344 36.71875 L 171.144531 37.222656 L 170.28125 38.449219 C 169.703125 39.238281 168.839844 40.105469 167.902344 40.894531 C 167.039063 41.617188 166.03125 42.265625 164.808594 42.769531 C 164.089844 43.054688 163.367188 43.34375 162.574219 43.632813 C 161.785156 43.847656 160.992188 44.0625 160.128906 44.207031 C 159.191406 44.425781 158.257813 44.566406 157.320313 44.640625 C 156.382813 44.710938 155.304688 44.785156 154.078125 44.785156 "/>
<path style=" stroke:none;fill-rule:nonzero;fill:rgb(98.799133%,91.398621%,1.998901%);fill-opacity:1;" d="M 129.960938 27.433594 L 126.648438 27.433594 L 126.359375 26.855469 C 126 26.28125 125.496094 25.558594 124.847656 24.984375 C 124.273438 24.40625 123.625 23.902344 122.976563 23.617188 C 122.257813 23.183594 121.390625 22.894531 120.601563 22.679688 C 119.664063 22.464844 118.800781 22.390625 117.9375 22.390625 C 117.503906 22.390625 117.070313 22.320313 116.714844 22.320313 C 116.28125 22.320313 115.992188 22.320313 115.703125 22.320313 L 111.527344 22.320313 L 111.527344 29.089844 L 112.96875 29.089844 C 113.328125 29.089844 113.761719 29.015625 114.191406 29.015625 C 114.625 28.945313 114.984375 28.945313 115.273438 28.871094 C 116.136719 28.726563 116.785156 28.367188 117.359375 27.863281 C 117.863281 27.359375 118.296875 26.710938 118.511719 25.921875 L 118.726563 25.054688 L 122.257813 25.054688 L 122.257813 37.007813 L 118.65625 37.007813 L 118.511719 36.144531 C 118.296875 35.351563 117.9375 34.632813 117.359375 34.054688 C 116.855469 33.550781 116.136719 33.191406 115.414063 33.046875 C 115.054688 32.976563 114.695313 32.902344 114.265625 32.902344 C 113.832031 32.832031 113.398438 32.832031 112.96875 32.832031 L 111.527344 32.832031 L 111.527344 38.375 C 111.527344 38.734375 111.527344 38.953125 111.601563 39.167969 C 111.601563 39.382813 111.671875 39.527344 111.671875 39.671875 C 111.742188 39.742188 111.742188 39.816406 111.816406 39.816406 C 111.886719 39.886719 111.960938 39.960938 112.03125 40.03125 C 112.175781 40.03125 112.390625 40.105469 112.535156 40.175781 C 112.824219 40.246094 113.113281 40.246094 113.398438 40.320313 C 113.832031 40.320313 114.191406 40.320313 114.625 40.390625 C 115.199219 40.390625 115.703125 40.390625 116.351563 40.390625 C 116.785156 40.390625 117.359375 40.390625 118.007813 40.390625 C 118.152344 40.390625 118.296875 40.390625 118.511719 40.390625 C 118.871094 40.390625 119.230469 40.390625 119.59375 40.320313 C 119.953125 40.320313 120.238281 40.320313 120.601563 40.246094 C 121.679688 40.175781 122.542969 40.03125 123.335938 39.742188 C 124.128906 39.457031 124.847656 39.023438 125.714844 38.449219 C 126.214844 38.089844 126.71875 37.585938 127.367188 37.007813 C 128.015625 36.433594 128.664063 35.710938 129.382813 34.992188 L 129.742188 34.632813 L 133.558594 34.632813 L 133.199219 36.070313 L 131.183594 43.34375 L 130.96875 44.136719 L 94.894531 44.136719 L 94.894531 40.609375 L 95.976563 40.609375 C 96.191406 40.609375 96.40625 40.609375 96.769531 40.535156 C 96.984375 40.535156 97.34375 40.535156 97.777344 40.464844 C 98.28125 40.464844 98.640625 40.390625 98.785156 40.390625 C 99 40.320313 99.214844 40.320313 99.359375 40.246094 C 99.578125 40.246094 99.792969 40.175781 99.9375 40.105469 C 100.007813 40.03125 100.078125 40.03125 100.078125 39.960938 L 100.152344 39.886719 C 100.152344 39.816406 100.152344 39.742188 100.152344 39.671875 L 100.152344 23.257813 C 100.152344 23.183594 100.152344 23.113281 100.152344 23.039063 C 100.078125 23.039063 100.078125 22.96875 100.078125 22.96875 C 100.078125 22.96875 100.078125 22.96875 100.007813 22.894531 C 99.792969 22.824219 99.578125 22.753906 99.289063 22.679688 C 99.144531 22.609375 98.855469 22.535156 98.570313 22.535156 C 98.28125 22.464844 97.992188 22.390625 97.632813 22.320313 C 97.273438 22.320313 96.910156 22.246094 96.625 22.246094 C 96.480469 22.175781 96.191406 22.175781 95.90625 22.175781 L 94.894531 22.03125 L 94.894531 18.574219 L 129.960938 18.574219 L 129.960938 27.433594 "/>
<path style=" stroke:none;fill-rule:nonzero;fill:rgb(98.799133%,91.398621%,1.998901%);fill-opacity:1;" d="M 79.992188 44.785156 C 78.839844 44.785156 77.761719 44.710938 76.679688 44.640625 C 75.671875 44.566406 74.664063 44.425781 73.585938 44.207031 C 72.578125 44.0625 71.640625 43.847656 70.847656 43.632813 C 70.273438 43.488281 69.769531 43.34375 69.265625 43.199219 L 68.617188 43.777344 L 68.328125 44.136719 L 65.230469 44.136719 L 65.160156 43.128906 L 64.511719 35.855469 L 64.441406 34.558594 L 67.824219 34.558594 L 68.183594 35.136719 C 68.398438 35.425781 68.90625 36 69.480469 36.503906 C 70.414063 37.367188 71.496094 38.160156 72.074219 38.59375 C 72.503906 38.878906 73.007813 39.238281 73.585938 39.457031 C 74.089844 39.742188 74.664063 40.03125 75.3125 40.246094 C 75.886719 40.390625 76.464844 40.609375 77.183594 40.679688 C 77.90625 40.824219 78.625 40.824219 79.414063 40.824219 C 80.640625 40.824219 82.222656 40.679688 83.304688 39.960938 C 83.953125 39.601563 84.382813 39.097656 84.382813 38.230469 C 84.382813 37.65625 83.953125 37.222656 83.449219 36.792969 C 82.441406 36 80.929688 35.566406 79.921875 35.351563 C 78.40625 35.0625 77.257813 34.777344 76.246094 34.558594 C 76.105469 34.558594 76.03125 34.558594 75.960938 34.558594 C 75.382813 34.414063 74.808594 34.273438 74.230469 34.128906 C 73.585938 33.984375 73.007813 33.910156 72.503906 33.769531 C 71.207031 33.40625 70.054688 33.046875 69.121094 32.542969 C 68.113281 32.039063 67.246094 31.464844 66.601563 30.816406 C 65.878906 30.097656 65.375 29.375 65.015625 28.585938 C 64.585938 27.792969 64.441406 27 64.441406 26.0625 C 64.441406 25.488281 64.511719 24.984375 64.726563 24.40625 C 64.945313 23.832031 65.230469 23.328125 65.59375 22.824219 C 65.953125 22.320313 66.382813 21.816406 66.886719 21.382813 C 67.390625 21.023438 67.96875 20.59375 68.617188 20.230469 C 69.265625 19.871094 69.984375 19.585938 70.777344 19.296875 C 71.496094 19.007813 72.359375 18.792969 73.296875 18.574219 C 74.304688 18.359375 75.382813 18.214844 76.464844 18.070313 C 77.542969 18 78.625 17.929688 79.703125 18 C 81.074219 18 82.585938 18.214844 84.097656 18.503906 C 85.535156 18.792969 86.90625 19.222656 88.199219 19.65625 L 89.351563 18.792969 L 90 18.574219 L 92.953125 18.574219 L 92.953125 26.929688 L 92.878906 28.007813 L 89.136719 28.007813 L 88.847656 27.503906 C 88.273438 26.496094 87.625 25.777344 86.90625 25.128906 C 86.113281 24.40625 85.246094 23.832031 84.238281 23.183594 C 83.59375 22.753906 82.800781 22.390625 82.007813 22.175781 C 81.289063 21.960938 80.496094 21.816406 79.777344 21.816406 C 79.128906 21.816406 78.480469 21.886719 77.90625 22.03125 C 77.328125 22.175781 76.753906 22.390625 76.175781 22.753906 C 75.742188 22.96875 75.382813 23.257813 75.238281 23.542969 C 75.097656 23.761719 75.023438 23.976563 75.023438 24.191406 C 75.023438 24.480469 75.023438 24.695313 75.167969 24.839844 C 75.3125 25.128906 75.601563 25.34375 75.960938 25.558594 C 76.390625 25.777344 76.96875 26.0625 77.6875 26.28125 C 78.480469 26.496094 79.34375 26.710938 80.351563 26.929688 C 81.074219 27.070313 81.503906 27.214844 82.007813 27.359375 C 82.585938 27.503906 83.089844 27.648438 83.664063 27.71875 C 85.320313 28.078125 86.90625 28.441406 88.414063 29.015625 C 89.929688 29.59375 91.441406 30.382813 92.808594 31.464844 C 93.527344 32.113281 94.105469 32.832031 94.535156 33.625 C 94.894531 34.488281 95.113281 35.351563 95.113281 36.359375 C 95.113281 37.007813 95.039063 37.585938 94.753906 38.230469 C 94.535156 38.808594 94.246094 39.382813 93.742188 39.960938 C 93.382813 40.535156 92.878906 41.039063 92.304688 41.472656 C 91.726563 41.902344 91.082031 42.265625 90.433594 42.625 C 88.777344 43.488281 87.046875 43.992188 85.320313 44.351563 C 83.59375 44.640625 81.792969 44.785156 79.992188 44.785156 "/>
<path style=" stroke:none;fill-rule:nonzero;fill:rgb(98.799133%,91.398621%,1.998901%);fill-opacity:1;" d="M 62.855469 44.136719 L 42.191406 44.136719 L 42.191406 40.679688 L 43.273438 40.609375 C 43.992188 40.535156 44.640625 40.535156 45.359375 40.464844 C 46.800781 40.246094 46.871094 40.03125 46.222656 39.238281 L 45.074219 37.441406 L 32.472656 37.441406 L 31.390625 39.3125 C 31.105469 39.742188 31.246094 40.105469 32.183594 40.320313 C 32.617188 40.390625 32.976563 40.464844 33.335938 40.464844 C 33.769531 40.535156 34.273438 40.609375 34.632813 40.609375 L 35.710938 40.679688 L 35.710938 44.136719 L 20.230469 44.136719 L 20.230469 40.609375 L 21.382813 40.609375 C 21.816406 40.609375 22.320313 40.535156 22.753906 40.390625 C 23.183594 40.320313 23.6875 40.105469 24.121094 39.886719 C 24.550781 39.671875 24.910156 39.457031 25.273438 39.167969 C 25.558594 38.878906 25.847656 38.59375 26.0625 38.230469 L 38.808594 18.792969 L 39.167969 18.289063 L 43.703125 18.289063 L 44.0625 18.71875 L 58.390625 38.878906 C 58.609375 39.097656 58.824219 39.382813 59.039063 39.601563 C 59.328125 39.816406 59.617188 40.03125 59.90625 40.175781 C 60.191406 40.320313 60.480469 40.390625 60.769531 40.464844 C 61.128906 40.535156 61.414063 40.609375 61.777344 40.609375 L 62.855469 40.609375 L 62.855469 44.136719 "/>
<path style=" stroke:none;fill-rule:nonzero;fill:rgb(13.699341%,12.199402%,12.5%);fill-opacity:1;" d="M 42.191406 33.40625 L 38.59375 28.222656 L 35.136719 33.40625 L 42.191406 33.40625 "/>
<path style=" stroke:none;fill-rule:nonzero;fill:rgb(98.799133%,91.398621%,1.998901%);fill-opacity:1;" d="M 69.769531 94.535156 C 74.808594 96.40625 83.304688 102.238281 91.65625 110.664063 C 97.34375 116.496094 103.03125 123.480469 107.425781 131.328125 C 110.089844 128.230469 113.113281 125.425781 116.496094 122.617188 C 119.375 120.238281 122.542969 118.152344 125.855469 116.0625 C 126.648438 115.558594 127.441406 115.054688 128.230469 114.480469 C 123.769531 108 118.007813 99.9375 114.40625 94.824219 C 113.039063 92.878906 112.105469 91.585938 111.742188 91.078125 C 111.097656 90.144531 110.304688 88.992188 112.175781 87.695313 C 113.976563 86.398438 114.839844 87.550781 115.488281 88.488281 C 116.351563 89.710938 117.070313 90.71875 118.152344 92.230469 C 121.894531 97.558594 127.800781 105.910156 131.976563 111.960938 C 133.992188 110.519531 136.007813 109.007813 138.023438 107.351563 L 156.742188 91.078125 C 157.609375 90.289063 159.046875 89.425781 160.488281 91.152344 C 162 92.878906 160.703125 93.886719 159.839844 94.609375 L 140.902344 110.808594 C 138.023438 113.183594 136.078125 114.550781 133.34375 116.351563 C 135.71875 119.160156 135.433594 121.464844 135.574219 123.335938 C 136.800781 122.902344 138.023438 122.472656 139.246094 122.039063 C 144.070313 120.382813 148.96875 118.945313 153.433594 117.71875 C 156.601563 116.929688 161.0625 115.847656 162 116.640625 C 163.007813 117.359375 160.488281 120.023438 157.320313 122.6875 C 156.023438 123.839844 154.585938 125.136719 153.144531 126.359375 C 148.320313 130.609375 142.992188 135.289063 138.382813 138.238281 C 135.433594 140.039063 132.40625 141.625 129.742188 142.777344 C 126.863281 143.929688 124.273438 144.648438 122.542969 144.648438 C 118.800781 144.71875 115.632813 144.71875 112.824219 144.648438 C 109.511719 144.574219 106.632813 144.574219 103.753906 144.71875 C 103.753906 144.792969 103.679688 144.863281 103.679688 144.9375 C 100.945313 150.265625 98.0625 156.527344 96.625 164.230469 C 95.976563 167.6875 96.191406 171.359375 95.761719 175.320313 C 95.328125 178.777344 95.183594 182.304688 95.183594 185.761719 C 95.6875 184.96875 96.265625 184.246094 96.769531 183.457031 C 97.34375 182.59375 97.921875 181.582031 98.425781 180.648438 C 98.855469 179.929688 99.289063 179.136719 99.71875 178.488281 C 101.160156 176.328125 102.742188 174.527344 104.472656 173.015625 C 106.199219 171.503906 108 170.351563 109.871094 169.199219 C 112.246094 167.832031 115.199219 166.75 118.367188 166.175781 C 120.167969 165.886719 126.9375 165.457031 129.023438 167.542969 C 129.382813 168.695313 128.808594 171.070313 128.230469 172.152344 C 127.726563 173.230469 127.007813 174.382813 125.855469 175.679688 C 123.910156 177.984375 121.246094 180.71875 118.222656 182.953125 C 115.847656 184.75 113.257813 186.191406 110.734375 186.910156 C 108.070313 187.703125 105.550781 187.847656 103.464844 187.992188 C 102.671875 187.992188 101.953125 188.0625 101.734375 188.0625 C 100.152344 188.28125 99.503906 188.855469 98.570313 189.792969 C 97.488281 190.800781 96.265625 192.167969 95.328125 193.464844 C 95.328125 194.328125 95.328125 195.191406 95.398438 196.054688 C 95.472656 199.65625 95.617188 203.039063 95.542969 205.921875 C 95.472656 207.070313 95.472656 208.152344 93.167969 208.078125 C 90.9375 208.078125 90.9375 206.929688 91.007813 205.777344 C 91.082031 203.039063 90.9375 199.726563 90.863281 196.199219 C 90.792969 194.6875 90.71875 193.175781 90.71875 191.664063 C 87.480469 189.503906 82.726563 186.480469 78.335938 183.671875 C 75.3125 181.800781 72.433594 179.929688 70.273438 178.488281 C 69.121094 177.769531 67.609375 176.832031 66.3125 175.96875 C 63.074219 173.878906 61.128906 172.65625 57.097656 169.488281 C 52.128906 165.527344 49.175781 159.550781 46.152344 153.433594 C 45.71875 152.566406 45.289063 151.632813 44.929688 150.839844 C 43.777344 148.609375 42.839844 146.808594 41.90625 145.007813 C 40.175781 141.839844 38.519531 138.816406 37.296875 135.9375 C 36.289063 133.488281 35.28125 131.039063 34.199219 128.449219 C 31.03125 120.671875 27.074219 111.023438 24.40625 105.839844 C 23.90625 104.832031 23.976563 103.320313 24.839844 102.671875 C 25.703125 102.097656 27.289063 102.457031 28.082031 103.246094 C 37.367188 113.398438 46.296875 125.785156 53.136719 135.433594 C 54.503906 137.375 55.800781 139.175781 57.3125 141.265625 C 64.296875 150.839844 69.625 162.359375 74.734375 173.230469 C 75.097656 174.023438 75.457031 174.816406 76.609375 177.191406 C 77.90625 178.054688 79.34375 178.921875 80.785156 179.855469 C 84.097656 182.015625 87.625 184.246094 90.648438 186.191406 C 90.648438 179.0625 90.863281 169.921875 92.230469 163.007813 C 93.886719 155.015625 96.839844 148.464844 99.648438 142.921875 C 99.863281 142.414063 100.078125 141.984375 100.367188 141.550781 C 100.441406 141.121094 100.585938 140.832031 100.800781 140.6875 C 101.953125 138.742188 103.105469 136.871094 104.398438 135.144531 C 100.078125 127.007813 94.320313 119.734375 88.414063 113.832031 C 80.570313 105.910156 72.71875 100.441406 68.183594 98.785156 C 67.105469 98.425781 66.097656 97.992188 66.816406 95.902344 C 67.609375 93.742188 68.6875 94.175781 69.769531 94.535156 "/>
<path style=" stroke:none;fill-rule:nonzero;fill:rgb(13.699341%,12.199402%,12.5%);fill-opacity:1;" d="M 69.40625 172.582031 C 64.800781 162.71875 59.90625 152.496094 53.640625 143.929688 C 52.632813 142.488281 51.046875 140.328125 49.464844 138.023438 C 45.289063 132.265625 40.390625 125.351563 35.0625 118.585938 C 36.214844 121.390625 37.367188 124.128906 38.449219 126.71875 C 39.671875 129.816406 40.824219 132.625 41.472656 134.136719 C 42.625 136.871094 44.207031 139.75 45.863281 142.847656 C 46.945313 144.9375 48.097656 147.023438 48.960938 148.824219 C 49.390625 149.6875 49.824219 150.550781 50.257813 151.414063 C 52.992188 157.03125 55.726563 162.574219 59.90625 165.886719 C 63.792969 168.984375 65.59375 170.136719 68.761719 172.152344 C 68.976563 172.296875 69.191406 172.441406 69.40625 172.582031 "/>
<path style=" stroke:none;fill-rule:nonzero;fill:rgb(13.699341%,12.199402%,12.5%);fill-opacity:1;" d="M 102.023438 183.527344 C 102.457031 183.457031 102.816406 183.457031 103.175781 183.457031 C 105.046875 183.3125 107.351563 183.167969 109.511719 182.59375 C 111.457031 182.015625 113.542969 180.792969 115.558594 179.28125 C 118.222656 177.335938 120.671875 174.816406 122.398438 172.800781 C 123.191406 171.863281 123.695313 171.144531 124.054688 170.425781 C 122.398438 170.28125 120.671875 170.425781 119.089844 170.640625 C 116.496094 171.070313 114.046875 172.007813 112.175781 173.089844 C 110.519531 174.097656 108.9375 175.175781 107.425781 176.472656 C 105.984375 177.695313 104.6875 179.136719 103.535156 180.9375 C 103.105469 181.582031 102.742188 182.230469 102.382813 182.878906 C 102.238281 183.097656 102.167969 183.3125 102.023438 183.527344 "/>
<path style=" stroke:none;fill-rule:nonzero;fill:rgb(13.699341%,12.199402%,12.5%);fill-opacity:1;" d="M 116.855469 140.183594 C 118.585938 140.183594 120.457031 140.183594 122.472656 140.113281 C 123.695313 140.113281 125.640625 139.535156 128.015625 138.527344 C 130.464844 137.519531 133.273438 136.078125 135.9375 134.351563 C 140.113281 131.761719 145.007813 127.441406 149.542969 123.480469 C 146.664063 124.34375 143.714844 125.28125 140.761719 126.289063 C 135.792969 128.015625 131.039063 129.960938 127.296875 131.976563 C 125.425781 132.984375 123.480469 134.28125 121.246094 136.152344 C 119.878906 137.230469 118.441406 138.601563 116.855469 140.183594 "/>
<path style=" stroke:none;fill-rule:nonzero;fill:rgb(13.699341%,12.199402%,12.5%);fill-opacity:1;" d="M 127.585938 120.3125 C 127.441406 120.382813 127.367188 120.457031 127.222656 120.457031 C 123.910156 122.6875 121.894531 123.984375 119.304688 126.144531 C 114.191406 130.390625 109.945313 134.785156 106.488281 140.113281 C 107.855469 140.039063 109.222656 140.039063 110.734375 140.113281 C 113.542969 136.945313 116.0625 134.566406 118.367188 132.625 C 120.742188 130.609375 122.976563 129.167969 125.136719 128.015625 C 127.007813 127.007813 127.871094 126.648438 130.105469 125.710938 C 129.960938 124.414063 129.601563 123.335938 129.097656 122.398438 C 128.664063 121.609375 128.160156 120.960938 127.585938 120.3125 "/>
</g>
</svg>
