<?xml version="1.0" encoding="UTF-8"?>
<svg xmlns="http://www.w3.org/2000/svg" xmlns:xlink="http://www.w3.org/1999/xlink" width="467.78pt" height="467.78pt" viewBox="0 0 467.78 467.78" version="1.1">
<g id="surface1">
<path style=" stroke:none;fill-rule:nonzero;fill:rgb(0%,65.098572%,31.399536%);fill-opacity:1;" d="M 233.929688 -0.00390625 C 298.296875 -0.00390625 356.761719 26.203125 399.167969 68.613281 C 441.503906 111.019531 467.785156 169.484375 467.785156 233.925781 C 467.785156 298.292969 441.503906 356.757813 399.167969 399.09375 C 356.761719 441.5 298.296875 467.78125 233.929688 467.78125 C 169.488281 467.78125 111.023438 441.5 68.617188 399.09375 C 26.28125 356.757813 0 298.292969 0 233.925781 C 0 169.484375 26.28125 111.019531 68.617188 68.613281 C 111.023438 26.203125 169.488281 -0.00390625 233.929688 -0.00390625 "/>
<path style=" stroke:none;fill-rule:nonzero;fill:rgb(78.799438%,85.099792%,61.999512%);fill-opacity:1;" d="M 233.929688 2.949219 C 170.351563 2.949219 112.609375 28.867188 70.777344 70.773438 C 28.945313 112.605469 3.023438 170.277344 3.023438 233.925781 C 3.023438 297.429688 28.945313 355.171875 70.777344 397.003906 C 112.609375 438.835938 170.351563 464.757813 233.929688 464.757813 C 297.433594 464.757813 355.175781 438.835938 397.007813 397.003906 C 438.839844 355.171875 464.832031 297.429688 464.832031 233.925781 C 464.832031 170.277344 438.839844 112.605469 397.007813 70.773438 C 355.175781 28.867188 297.433594 2.949219 233.929688 2.949219 "/>
<path style=" stroke:none;fill-rule:nonzero;fill:rgb(13.699341%,12.199402%,12.5%);fill-opacity:1;" d="M 412.273438 308.949219 L 416.015625 299.085938 L 411.910156 295.914063 L 415.296875 287.058594 L 439.34375 308.371094 L 435.742188 317.875 L 403.632813 317.660156 L 407.089844 308.589844 L 412.273438 308.949219 "/>
<path style=" stroke:none;fill-rule:nonzero;fill:rgb(78.799438%,85.099792%,61.999512%);fill-opacity:1;" d="M 419.039063 309.453125 L 430.273438 310.242188 L 421.414063 303.261719 L 419.039063 309.453125 "/>
<path style=" stroke:none;fill-rule:nonzero;fill:rgb(13.699341%,12.199402%,12.5%);fill-opacity:1;" d="M 447.695313 279.644531 L 446.257813 288.789063 L 428.542969 285.980469 C 426.816406 285.765625 425.160156 285.1875 423.71875 284.394531 C 422.207031 283.605469 420.984375 282.523438 420.046875 281.15625 C 419.039063 279.859375 418.390625 278.492188 418.175781 277.125 C 417.742188 275.253906 417.742188 273.019531 418.175781 270.570313 C 418.390625 269.058594 418.753906 267.546875 419.257813 265.890625 C 419.6875 264.164063 420.335938 262.796875 421.128906 261.789063 C 421.921875 260.707031 422.929688 259.773438 424.152344 259.050781 C 425.449219 258.261719 426.671875 257.757813 427.894531 257.613281 C 429.910156 257.324219 431.566406 257.324219 433.078125 257.539063 L 450.792969 260.347656 L 449.28125 269.492188 L 431.207031 266.613281 C 429.550781 266.394531 428.257813 266.613281 427.175781 267.402344 C 426.097656 268.125 425.449219 269.277344 425.230469 270.933594 C 424.945313 272.515625 425.230469 273.8125 425.953125 274.820313 C 426.742188 275.898438 427.96875 276.546875 429.550781 276.765625 L 447.695313 279.644531 "/>
<path style=" stroke:none;fill-rule:nonzero;fill:rgb(13.699341%,12.199402%,12.5%);fill-opacity:1;" d="M 436.753906 217.507813 C 441.71875 217.363281 445.535156 218.589844 448.34375 221.179688 C 451.222656 223.84375 452.734375 227.589844 452.878906 232.484375 C 453.023438 237.453125 451.871094 241.410156 449.28125 244.21875 C 446.6875 246.882813 442.945313 248.394531 438.121094 248.539063 C 434.59375 248.683594 431.710938 248.179688 429.40625 247.101563 C 427.105469 246.019531 425.304688 244.4375 424.007813 242.203125 C 422.640625 240.042969 421.921875 237.308594 421.847656 233.925781 C 421.703125 230.539063 422.136719 227.730469 423.144531 225.429688 C 424.152344 223.195313 425.808594 221.324219 428.113281 219.882813 C 430.34375 218.445313 433.296875 217.652344 436.753906 217.507813 "/>
<path style=" stroke:none;fill-rule:nonzero;fill:rgb(78.799438%,85.099792%,61.999512%);fill-opacity:1;" d="M 437.039063 226.796875 C 434.015625 226.941406 431.855469 227.515625 430.558594 228.738281 C 429.265625 229.890625 428.6875 231.476563 428.761719 233.421875 C 428.832031 235.363281 429.550781 236.875 430.847656 237.957031 C 432.214844 238.964844 434.519531 239.46875 437.902344 239.324219 C 440.710938 239.253906 442.800781 238.605469 444.023438 237.453125 C 445.320313 236.226563 445.894531 234.644531 445.824219 232.699219 C 445.753906 230.828125 445.03125 229.386719 443.664063 228.234375 C 442.367188 227.15625 440.136719 226.722656 437.039063 226.796875 "/>
<path style=" stroke:none;fill-rule:nonzero;fill:rgb(13.699341%,12.199402%,12.5%);fill-opacity:1;" d="M 416.664063 186.546875 L 446.257813 181.292969 L 448.921875 196.554688 C 449.425781 199.363281 449.566406 201.597656 449.351563 203.179688 C 449.136719 204.765625 448.414063 206.132813 447.265625 207.285156 C 446.113281 208.363281 444.601563 209.15625 442.726563 209.445313 C 441.070313 209.730469 439.632813 209.660156 438.265625 209.15625 C 436.96875 208.652344 435.816406 207.859375 434.878906 206.78125 C 434.304688 206.058594 433.726563 205.125 433.152344 203.757813 C 433.007813 204.90625 432.792969 205.773438 432.503906 206.347656 C 432.289063 206.707031 431.855469 207.285156 431.207031 208.074219 C 430.488281 208.867188 429.984375 209.445313 429.550781 209.730469 L 421.777344 215.636719 L 419.976563 205.269531 L 428.113281 198.789063 C 429.191406 197.996094 429.839844 197.277344 430.128906 196.773438 C 430.488281 196.050781 430.558594 195.261719 430.414063 194.394531 L 430.273438 193.605469 L 418.246094 195.691406 L 416.664063 186.546875 "/>
<path style=" stroke:none;fill-rule:nonzero;fill:rgb(78.799438%,85.099792%,61.999512%);fill-opacity:1;" d="M 435.886719 192.597656 L 436.535156 196.484375 C 436.609375 196.84375 436.894531 197.636719 437.398438 198.789063 C 437.617188 199.363281 437.976563 199.867188 438.550781 200.15625 C 439.128906 200.445313 439.703125 200.515625 440.351563 200.371094 C 441.359375 200.226563 442.007813 199.796875 442.441406 199.074219 C 442.800781 198.429688 442.871094 197.203125 442.585938 195.546875 L 441.863281 191.515625 L 435.886719 192.597656 "/>
<path style=" stroke:none;fill-rule:nonzero;fill:rgb(13.699341%,12.199402%,12.5%);fill-opacity:1;" d="M 416.519531 169.554688 L 412.558594 159.765625 L 407.449219 160.269531 L 403.847656 151.484375 L 435.960938 150.691406 L 439.777344 160.125 L 416.160156 181.867188 L 412.488281 172.796875 L 416.519531 169.554688 "/>
<path style=" stroke:none;fill-rule:nonzero;fill:rgb(78.799438%,85.099792%,61.999512%);fill-opacity:1;" d="M 421.847656 165.378906 L 430.632813 158.253906 L 419.328125 159.1875 L 421.847656 165.378906 "/>
<path style=" stroke:none;fill-rule:nonzero;fill:rgb(13.699341%,12.199402%,12.5%);fill-opacity:1;" d="M 403.703125 129.667969 L 408.960938 126.285156 L 416.808594 138.308594 L 406.007813 145.292969 C 402.984375 143.996094 400.609375 142.699219 398.878906 141.261719 C 397.152344 139.890625 395.496094 137.949219 393.910156 135.5 C 391.96875 132.546875 390.886719 129.738281 390.671875 127.21875 C 390.457031 124.628906 391.03125 122.179688 392.398438 119.875 C 393.769531 117.5 395.710938 115.484375 398.304688 113.828125 C 401.113281 112.027344 403.847656 111.019531 406.65625 110.804688 C 409.390625 110.660156 412.054688 111.308594 414.503906 112.820313 C 416.449219 113.972656 418.320313 116.058594 420.191406 118.941406 C 421.992188 121.675781 423.144531 123.980469 423.503906 125.636719 C 423.863281 127.363281 423.863281 129.019531 423.359375 130.605469 C 422.929688 132.261719 421.992188 133.773438 420.695313 135.285156 L 414.503906 128.660156 C 415.222656 127.722656 415.585938 126.714844 415.65625 125.636719 C 415.65625 124.628906 415.296875 123.476563 414.574219 122.324219 C 413.425781 120.667969 411.984375 119.660156 410.113281 119.445313 C 408.238281 119.15625 406.078125 119.875 403.488281 121.53125 C 400.753906 123.332031 399.167969 125.132813 398.664063 126.859375 C 398.160156 128.660156 398.519531 130.460938 399.671875 132.332031 C 400.246094 133.195313 400.894531 133.914063 401.6875 134.5625 C 402.480469 135.210938 403.488281 135.789063 404.710938 136.4375 L 407.089844 134.925781 L 403.703125 129.667969 "/>
<path style=" stroke:none;fill-rule:nonzero;fill:rgb(13.699341%,12.199402%,12.5%);fill-opacity:1;" d="M 368.566406 61.484375 L 387.289063 77.828125 L 383.113281 82.652344 L 371.375 72.429688 L 368.207031 76.027344 L 379.152344 85.53125 L 375.121094 90.140625 L 364.175781 80.636719 L 360.289063 85.101563 L 372.382813 95.613281 L 367.921875 100.796875 L 348.839844 84.164063 L 368.566406 61.484375 "/>
<path style=" stroke:none;fill-rule:nonzero;fill:rgb(13.699341%,12.199402%,12.5%);fill-opacity:1;" d="M 334.441406 40.171875 L 346.464844 46.867188 C 348.839844 48.164063 350.640625 49.605469 351.71875 51.042969 C 352.800781 52.484375 353.519531 54.066406 353.808594 55.796875 C 354.097656 57.597656 354.023438 59.324219 353.59375 61.195313 C 353.089844 63.066406 352.367188 64.867188 351.359375 66.667969 C 349.847656 69.476563 348.265625 71.492188 346.824219 72.644531 C 345.3125 73.867188 343.726563 74.660156 342 75.09375 C 340.273438 75.523438 338.6875 75.523438 337.175781 75.164063 C 335.089844 74.660156 333.359375 73.941406 331.921875 73.148438 L 319.824219 66.453125 L 334.441406 40.171875 "/>
<path style=" stroke:none;fill-rule:nonzero;fill:rgb(78.799438%,85.099792%,61.999512%);fill-opacity:1;" d="M 339.265625 50.613281 L 331.273438 65.011719 L 333.289063 66.09375 C 334.945313 67.027344 336.3125 67.53125 337.175781 67.53125 C 338.113281 67.605469 339.046875 67.242188 339.984375 66.523438 C 340.921875 65.804688 342 64.363281 343.152344 62.277344 C 344.664063 59.46875 345.3125 57.378906 344.953125 55.796875 C 344.59375 54.285156 343.367188 52.914063 341.28125 51.765625 L 339.265625 50.613281 "/>
<path style=" stroke:none;fill-rule:nonzero;fill:rgb(13.699341%,12.199402%,12.5%);fill-opacity:1;" d="M 288.648438 40.460938 L 296.136719 44.5625 C 295.128906 46.722656 293.832031 48.378906 292.390625 49.675781 C 290.953125 50.898438 289.222656 51.765625 287.351563 52.125 C 285.480469 52.554688 283.246094 52.484375 280.65625 51.910156 C 277.414063 51.1875 274.894531 50.179688 273.097656 48.8125 C 271.296875 47.445313 269.855469 45.5 268.921875 42.835938 C 267.910156 40.171875 267.839844 37.003906 268.558594 33.332031 C 269.640625 28.507813 271.726563 25.050781 274.824219 22.964844 C 277.992188 20.875 281.953125 20.371094 286.703125 21.378906 C 290.375 22.171875 293.113281 23.539063 294.910156 25.484375 C 296.710938 27.429688 297.792969 30.09375 298.222656 33.402344 L 289.800781 33.476563 C 289.726563 32.539063 289.511719 31.820313 289.296875 31.316406 C 288.9375 30.523438 288.433594 29.804688 287.785156 29.300781 C 287.136719 28.796875 286.34375 28.4375 285.480469 28.21875 C 283.390625 27.789063 281.664063 28.292969 280.222656 29.730469 C 279.070313 30.738281 278.28125 32.613281 277.703125 35.203125 C 276.984375 38.515625 277.054688 40.820313 277.777344 42.261719 C 278.496094 43.699219 279.792969 44.5625 281.519531 44.925781 C 283.320313 45.355469 284.6875 45.140625 285.839844 44.347656 C 286.921875 43.554688 287.855469 42.261719 288.648438 40.460938 "/>
<path style=" stroke:none;fill-rule:nonzero;fill:rgb(13.699341%,12.199402%,12.5%);fill-opacity:1;" d="M 239.398438 15.402344 L 262.222656 16.988281 L 261.792969 23.46875 L 248.183594 22.53125 L 247.824219 27.714844 L 259.414063 28.578125 L 258.984375 34.628906 L 247.390625 33.835938 L 246.527344 46.074219 L 237.238281 45.429688 L 239.398438 15.402344 "/>
<path style=" stroke:none;fill-rule:nonzero;fill:rgb(13.699341%,12.199402%,12.5%);fill-opacity:1;" d="M 175.03125 23.253906 L 202.535156 16.914063 L 204.191406 24.117188 L 194.976563 26.277344 L 200.089844 48.308594 L 191.015625 50.394531 L 185.976563 28.363281 L 176.6875 30.453125 L 175.03125 23.253906 "/>
<path style=" stroke:none;fill-rule:nonzero;fill:rgb(13.699341%,12.199402%,12.5%);fill-opacity:1;" d="M 152.28125 63.355469 L 141.480469 35.277344 L 155.953125 29.730469 C 158.617188 28.722656 160.777344 28.148438 162.359375 28.074219 C 163.945313 28.003906 165.382813 28.4375 166.753906 29.300781 C 168.121094 30.234375 169.128906 31.605469 169.777344 33.332031 C 170.425781 34.914063 170.566406 36.355469 170.351563 37.796875 C 170.136719 39.164063 169.558594 40.460938 168.695313 41.539063 C 168.121094 42.332031 167.257813 43.050781 166.03125 43.84375 C 167.183594 43.773438 168.121094 43.84375 168.695313 43.988281 C 169.128906 44.132813 169.777344 44.421875 170.640625 44.925781 C 171.574219 45.5 172.152344 45.933594 172.511719 46.21875 L 179.855469 52.773438 L 170.0625 56.515625 L 162.144531 49.746094 C 161.136719 48.8125 160.34375 48.308594 159.695313 48.164063 C 158.976563 47.949219 158.113281 48.019531 157.320313 48.308594 L 156.601563 48.597656 L 160.992188 60.042969 L 152.28125 63.355469 "/>
<path style=" stroke:none;fill-rule:nonzero;fill:rgb(78.799438%,85.099792%,61.999512%);fill-opacity:1;" d="M 154.585938 43.339844 L 158.183594 41.898438 C 158.617188 41.757813 159.335938 41.324219 160.34375 40.675781 C 160.921875 40.316406 161.28125 39.8125 161.425781 39.234375 C 161.640625 38.589844 161.566406 38.011719 161.351563 37.363281 C 160.992188 36.5 160.414063 35.925781 159.695313 35.636719 C 158.902344 35.347656 157.753906 35.5625 156.167969 36.140625 L 152.351563 37.578125 L 154.585938 43.339844 "/>
<path style=" stroke:none;fill-rule:nonzero;fill:rgb(13.699341%,12.199402%,12.5%);fill-opacity:1;" d="M 112.03125 70.484375 C 109.367188 66.308594 108.503906 62.347656 109.367188 58.605469 C 110.304688 54.859375 112.753906 51.691406 116.929688 49.101563 C 121.175781 46.4375 125.136719 45.5 128.878906 46.363281 C 132.550781 47.226563 135.71875 49.675781 138.3125 53.78125 C 140.183594 56.730469 141.191406 59.539063 141.335938 62.058594 C 141.550781 64.578125 141.046875 66.957031 139.824219 69.261719 C 138.527344 71.492188 136.511719 73.507813 133.703125 75.234375 C 130.824219 77.035156 128.160156 78.042969 125.710938 78.332031 C 123.265625 78.621094 120.816406 78.117188 118.441406 76.820313 C 115.992188 75.597656 113.832031 73.507813 112.03125 70.484375 "/>
<path style=" stroke:none;fill-rule:nonzero;fill:rgb(78.799438%,85.099792%,61.999512%);fill-opacity:1;" d="M 119.878906 65.589844 C 121.535156 68.179688 123.121094 69.765625 124.777344 70.269531 C 126.433594 70.773438 128.089844 70.554688 129.742188 69.546875 C 131.472656 68.46875 132.40625 67.101563 132.625 65.445313 C 132.910156 63.714844 132.121094 61.484375 130.320313 58.605469 C 128.878906 56.226563 127.296875 54.789063 125.566406 54.285156 C 123.910156 53.78125 122.257813 53.996094 120.601563 55.074219 C 119.015625 56.085938 118.078125 57.378906 117.863281 59.109375 C 117.574219 60.835938 118.296875 62.996094 119.878906 65.589844 "/>
<path style=" stroke:none;fill-rule:nonzero;fill:rgb(13.699341%,12.199402%,12.5%);fill-opacity:1;" d="M 76.753906 82.003906 L 87.984375 71.492188 C 90.503906 69.1875 92.878906 68.035156 95.183594 68.109375 C 97.488281 68.109375 99.648438 69.1875 101.664063 71.347656 C 103.753906 73.578125 104.6875 75.957031 104.542969 78.476563 C 104.328125 80.925781 102.886719 83.445313 100.152344 86.035156 L 96.40625 89.492188 L 104.039063 97.628906 L 97.199219 104.035156 L 76.753906 82.003906 "/>
<path style=" stroke:none;fill-rule:nonzero;fill:rgb(78.799438%,85.099792%,61.999512%);fill-opacity:1;" d="M 92.304688 85.027344 L 93.960938 83.515625 C 95.257813 82.292969 95.976563 81.210938 96.046875 80.203125 C 96.191406 79.269531 95.902344 78.476563 95.257813 77.757813 C 94.609375 77.035156 93.816406 76.675781 92.878906 76.605469 C 92.015625 76.605469 90.9375 77.179688 89.640625 78.332031 L 87.695313 80.132813 L 92.304688 85.027344 "/>
<path style=" stroke:none;fill-rule:nonzero;fill:rgb(13.699341%,12.199402%,12.5%);fill-opacity:1;" d="M 68.257813 123.476563 L 73.367188 116.277344 C 74.59375 116.996094 75.671875 117.429688 76.609375 117.429688 C 78.191406 117.429688 79.488281 116.78125 80.640625 115.339844 C 81.503906 114.332031 81.863281 113.324219 81.863281 112.386719 C 81.792969 111.453125 81.503906 110.730469 80.855469 110.226563 C 80.207031 109.722656 79.488281 109.507813 78.550781 109.652344 C 77.6875 109.867188 76.175781 110.730469 74.230469 112.316406 C 70.921875 114.90625 68.183594 116.347656 65.878906 116.78125 C 63.648438 117.140625 61.558594 116.636719 59.761719 115.125 C 58.535156 114.1875 57.671875 112.890625 57.167969 111.378906 C 56.664063 109.796875 56.664063 108.066406 57.167969 106.195313 C 57.742188 104.253906 58.96875 102.09375 60.910156 99.714844 C 63.359375 96.691406 65.734375 94.890625 68.113281 94.171875 C 70.488281 93.523438 73.007813 94.027344 75.671875 95.683594 L 70.558594 102.8125 C 69.40625 102.164063 68.328125 101.949219 67.390625 102.09375 C 66.457031 102.308594 65.519531 102.882813 64.726563 103.890625 C 64.007813 104.757813 63.71875 105.546875 63.71875 106.269531 C 63.71875 106.988281 64.007813 107.5625 64.511719 107.925781 C 64.871094 108.210938 65.304688 108.355469 65.953125 108.210938 C 66.527344 108.140625 67.464844 107.5625 68.761719 106.484375 C 72 103.890625 74.519531 102.234375 76.320313 101.371094 C 78.121094 100.578125 79.777344 100.292969 81.289063 100.507813 C 82.800781 100.722656 84.238281 101.371094 85.535156 102.378906 C 87.046875 103.605469 88.054688 105.117188 88.632813 106.988281 C 89.28125 108.859375 89.28125 110.730469 88.703125 112.820313 C 88.128906 114.835938 86.976563 116.925781 85.105469 119.226563 C 81.9375 123.1875 78.910156 125.277344 76.175781 125.5625 C 73.367188 125.925781 70.777344 125.203125 68.257813 123.476563 "/>
<path style=" stroke:none;fill-rule:nonzero;fill:rgb(13.699341%,12.199402%,12.5%);fill-opacity:1;" d="M 23.976563 170.058594 L 27.214844 161.996094 L 46.871094 157.746094 L 31.464844 151.484375 L 34.777344 143.347656 L 62.640625 154.652344 L 59.328125 162.789063 L 39.816406 167.035156 L 55.152344 173.226563 L 51.839844 181.292969 L 23.976563 170.058594 "/>
<path style=" stroke:none;fill-rule:nonzero;fill:rgb(13.699341%,12.199402%,12.5%);fill-opacity:1;" d="M 30.527344 215.851563 C 25.632813 214.988281 22.105469 212.972656 19.945313 209.804688 C 17.710938 206.636719 16.992188 202.675781 17.855469 197.851563 C 18.71875 192.957031 20.734375 189.355469 23.832031 187.125 C 26.929688 184.964844 30.886719 184.242188 35.640625 185.109375 C 39.097656 185.757813 41.832031 186.835938 43.847656 188.347656 C 45.863281 189.933594 47.304688 191.949219 48.167969 194.324219 C 48.960938 196.773438 49.105469 199.578125 48.527344 202.890625 C 47.953125 206.203125 46.945313 208.867188 45.503906 210.882813 C 44.0625 212.898438 42.046875 214.339844 39.527344 215.347656 C 36.9375 216.285156 33.984375 216.429688 30.527344 215.851563 "/>
<path style=" stroke:none;fill-rule:nonzero;fill:rgb(78.799438%,85.099792%,61.999512%);fill-opacity:1;" d="M 32.183594 206.707031 C 35.136719 207.210938 37.367188 207.066406 38.878906 206.203125 C 40.390625 205.269531 41.328125 203.898438 41.617188 201.957031 C 41.976563 200.011719 41.617188 198.355469 40.535156 197.058594 C 39.457031 195.765625 37.222656 194.828125 33.910156 194.253906 C 31.175781 193.746094 29.015625 193.964844 27.503906 194.828125 C 26.0625 195.765625 25.128906 197.132813 24.769531 199.074219 C 24.480469 200.949219 24.839844 202.53125 25.992188 203.898438 C 27.070313 205.195313 29.160156 206.132813 32.183594 206.707031 "/>
<path style=" stroke:none;fill-rule:nonzero;fill:rgb(13.699341%,12.199402%,12.5%);fill-opacity:1;" d="M 15.625 250.484375 L 15.191406 222.332031 L 22.609375 222.1875 L 22.753906 231.691406 L 45.359375 231.261719 L 45.574219 240.546875 L 22.894531 240.980469 L 23.113281 250.339844 L 15.625 250.484375 "/>
<path style=" stroke:none;fill-rule:nonzero;fill:rgb(13.699341%,12.199402%,12.5%);fill-opacity:1;" d="M 36.433594 286.269531 C 31.609375 286.988281 27.648438 286.269531 24.480469 283.964844 C 21.382813 281.730469 19.441406 278.132813 18.648438 273.308594 C 17.855469 268.410156 18.574219 264.378906 20.808594 261.285156 C 23.039063 258.1875 26.566406 256.242188 31.320313 255.523438 C 34.847656 254.949219 37.726563 255.09375 40.175781 255.882813 C 42.550781 256.746094 44.566406 258.117188 46.152344 260.132813 C 47.734375 262.148438 48.816406 264.8125 49.320313 268.125 C 49.824219 271.4375 49.753906 274.316406 49.03125 276.691406 C 48.3125 279.066406 46.871094 281.085938 44.785156 282.8125 C 42.695313 284.539063 39.960938 285.691406 36.433594 286.269531 "/>
<path style=" stroke:none;fill-rule:nonzero;fill:rgb(78.799438%,85.099792%,61.999512%);fill-opacity:1;" d="M 35.0625 277.050781 C 38.089844 276.546875 40.105469 275.683594 41.257813 274.386719 C 42.40625 273.019531 42.769531 271.4375 42.480469 269.492188 C 42.191406 267.546875 41.328125 266.109375 39.816406 265.242188 C 38.375 264.378906 36 264.164063 32.6875 264.667969 C 29.878906 265.171875 27.9375 266.035156 26.785156 267.332031 C 25.703125 268.699219 25.34375 270.355469 25.632813 272.300781 C 25.921875 274.101563 26.785156 275.46875 28.296875 276.402344 C 29.734375 277.339844 32.039063 277.554688 35.0625 277.050781 "/>
<path style=" stroke:none;fill-rule:nonzero;fill:rgb(13.699341%,12.199402%,12.5%);fill-opacity:1;" d="M 347.542969 386.058594 L 354.097656 380.371094 L 373.535156 385.484375 L 362.664063 372.957031 L 369.289063 367.195313 L 389.015625 389.875 L 382.390625 395.636719 L 363.023438 390.523438 L 373.894531 402.980469 L 367.273438 408.738281 L 347.542969 386.058594 "/>
<path style=" stroke:none;fill-rule:nonzero;fill:rgb(13.699341%,12.199402%,12.5%);fill-opacity:1;" d="M 44.425781 300.09375 L 43.777344 291.667969 C 46.078125 291.308594 48.167969 291.453125 50.039063 292.027344 C 51.910156 292.53125 53.496094 293.46875 54.863281 294.835938 C 56.230469 296.203125 57.382813 298.148438 58.320313 300.667969 C 59.472656 303.691406 59.976563 306.355469 59.902344 308.589844 C 59.6875 310.890625 58.824219 313.195313 57.097656 315.429688 C 55.441406 317.660156 52.847656 319.460938 49.320313 320.828125 C 44.710938 322.628906 40.679688 322.773438 37.222656 321.261719 C 33.769531 319.746094 31.175781 316.722656 29.449219 312.1875 C 28.078125 308.660156 27.71875 305.636719 28.367188 303.042969 C 29.015625 300.453125 30.671875 298.074219 33.265625 295.988281 L 37.871094 302.972656 C 37.152344 303.621094 36.574219 304.125 36.359375 304.554688 C 35.855469 305.277344 35.566406 306.066406 35.496094 306.933594 C 35.425781 307.796875 35.496094 308.589844 35.855469 309.523438 C 36.574219 311.46875 37.945313 312.691406 39.960938 313.125 C 41.398438 313.410156 43.414063 313.125 45.9375 312.1875 C 49.03125 310.964844 50.976563 309.667969 51.839844 308.300781 C 52.632813 306.859375 52.632813 305.347656 51.984375 303.621094 C 51.40625 301.964844 50.398438 300.882813 49.175781 300.378906 C 47.878906 299.949219 46.296875 299.804688 44.425781 300.09375 "/>
<path style=" stroke:none;fill-rule:nonzero;fill:rgb(13.699341%,12.199402%,12.5%);fill-opacity:1;" d="M 322.703125 418.820313 C 320.183594 414.570313 319.390625 410.613281 320.328125 406.867188 C 321.265625 403.125 323.785156 399.957031 328.03125 397.4375 C 332.28125 394.84375 336.3125 394.050781 339.984375 394.917969 C 343.65625 395.851563 346.824219 398.371094 349.273438 402.546875 C 351.070313 405.570313 352.078125 408.308594 352.222656 410.828125 C 352.367188 413.421875 351.792969 415.796875 350.496094 418.027344 C 349.273438 420.1875 347.183594 422.203125 344.304688 423.933594 C 341.425781 425.660156 338.761719 426.667969 336.238281 426.882813 C 333.792969 427.101563 331.414063 426.523438 328.96875 425.226563 C 326.59375 423.933594 324.503906 421.773438 322.703125 418.820313 "/>
<path style=" stroke:none;fill-rule:nonzero;fill:rgb(78.799438%,85.099792%,61.999512%);fill-opacity:1;" d="M 330.695313 414.066406 C 332.28125 416.660156 333.863281 418.246094 335.519531 418.75 C 337.175781 419.324219 338.832031 419.109375 340.488281 418.101563 C 342.214844 417.09375 343.152344 415.722656 343.441406 414.066406 C 343.726563 412.339844 343.007813 410.109375 341.28125 407.226563 C 339.769531 404.78125 338.257813 403.339844 336.601563 402.765625 C 334.945313 402.261719 333.289063 402.476563 331.632813 403.484375 C 329.976563 404.492188 329.039063 405.789063 328.753906 407.515625 C 328.464844 409.246094 329.113281 411.402344 330.695313 414.066406 "/>
<path style=" stroke:none;fill-rule:nonzero;fill:rgb(13.699341%,12.199402%,12.5%);fill-opacity:1;" d="M 285.625 416.660156 L 312.191406 407.011719 L 314.710938 413.996094 L 305.785156 417.234375 L 313.558594 438.476563 L 304.847656 441.644531 L 297.070313 420.402344 L 288.144531 423.644531 L 285.625 416.660156 "/>
<path style=" stroke:none;fill-rule:nonzero;fill:rgb(13.699341%,12.199402%,12.5%);fill-opacity:1;" d="M 253.945313 438.117188 C 253.007813 433.292969 253.65625 429.261719 255.816406 426.09375 C 257.976563 422.851563 261.433594 420.835938 266.183594 419.898438 C 271.152344 418.890625 275.183594 419.539063 278.351563 421.628906 C 281.519531 423.714844 283.535156 427.171875 284.472656 431.925781 C 285.121094 435.378906 285.121094 438.332031 284.398438 440.78125 C 283.679688 443.15625 282.3125 445.246094 280.367188 446.898438 C 278.425781 448.554688 275.761719 449.707031 272.519531 450.355469 C 269.207031 451.003906 266.328125 451.003906 263.953125 450.355469 C 261.574219 449.707031 259.488281 448.339844 257.6875 446.324219 C 255.886719 444.308594 254.59375 441.570313 253.945313 438.117188 "/>
<path style=" stroke:none;fill-rule:nonzero;fill:rgb(78.799438%,85.099792%,61.999512%);fill-opacity:1;" d="M 263.089844 436.386719 C 263.664063 439.339844 264.601563 441.429688 265.96875 442.507813 C 267.335938 443.589844 268.992188 443.949219 270.863281 443.589844 C 272.808594 443.15625 274.246094 442.21875 275.039063 440.78125 C 275.902344 439.269531 275.976563 436.890625 275.328125 433.582031 C 274.824219 430.773438 273.816406 428.898438 272.449219 427.820313 C 271.078125 426.738281 269.496094 426.378906 267.550781 426.8125 C 265.679688 427.171875 264.382813 428.109375 263.519531 429.621094 C 262.65625 431.132813 262.511719 433.363281 263.089844 436.386719 "/>
<path style=" stroke:none;fill-rule:nonzero;fill:rgb(13.699341%,12.199402%,12.5%);fill-opacity:1;" d="M 238.824219 441.355469 L 246.816406 444.09375 C 246.167969 446.324219 245.304688 448.195313 244.152344 449.707031 C 242.855469 451.21875 241.414063 452.300781 239.617188 453.019531 C 237.816406 453.738281 235.585938 454.027344 232.921875 453.957031 C 229.679688 453.8125 227.015625 453.234375 225 452.226563 C 222.910156 451.21875 221.183594 449.492188 219.816406 447.042969 C 218.375 444.597656 217.726563 441.5 217.871094 437.757813 C 218.015625 432.789063 219.457031 429.042969 222.191406 426.453125 C 224.929688 423.859375 228.742188 422.707031 233.566406 422.851563 C 237.382813 422.996094 240.335938 423.859375 242.425781 425.445313 C 244.511719 427.027344 246.023438 429.476563 246.960938 432.644531 L 238.753906 434.226563 C 238.464844 433.292969 238.246094 432.570313 237.886719 432.140625 C 237.457031 431.421875 236.808594 430.84375 236.089844 430.484375 C 235.296875 430.050781 234.503906 429.835938 233.566406 429.765625 C 231.480469 429.691406 229.824219 430.484375 228.671875 432.140625 C 227.734375 433.363281 227.230469 435.378906 227.160156 438.042969 C 227.015625 441.355469 227.449219 443.660156 228.457031 444.957031 C 229.390625 446.253906 230.832031 446.898438 232.632813 446.972656 C 234.433594 447.042969 235.800781 446.539063 236.734375 445.605469 C 237.671875 444.667969 238.390625 443.226563 238.824219 441.355469 "/>
<path style=" stroke:none;fill-rule:nonzero;fill:rgb(13.699341%,12.199402%,12.5%);fill-opacity:1;" d="M 187.199219 417.957031 L 211.609375 422.707031 L 210.382813 429.042969 L 195.046875 426.09375 L 194.183594 430.773438 L 208.367188 433.507813 L 207.214844 439.554688 L 193.03125 436.75 L 191.878906 442.582031 L 207.574219 445.675781 L 206.28125 452.371094 L 181.441406 447.476563 L 187.199219 417.957031 "/>
<path style=" stroke:none;fill-rule:nonzero;fill:rgb(13.699341%,12.199402%,12.5%);fill-opacity:1;" d="M 155.519531 406.363281 L 168.335938 411.546875 C 170.785156 412.554688 172.726563 413.707031 174.023438 415.078125 C 175.246094 416.371094 176.183594 417.882813 176.6875 419.539063 C 177.121094 421.269531 177.265625 422.996094 177.046875 424.941406 C 176.832031 426.8125 176.328125 428.683594 175.535156 430.554688 C 174.382813 433.582031 173.089844 435.738281 171.71875 437.109375 C 170.425781 438.476563 168.910156 439.484375 167.257813 440.058594 C 165.601563 440.707031 164.015625 440.925781 162.503906 440.707031 C 160.414063 440.492188 158.542969 440.058594 157.03125 439.414063 L 144.214844 434.226563 L 155.519531 406.363281 "/>
<path style=" stroke:none;fill-rule:nonzero;fill:rgb(78.799438%,85.099792%,61.999512%);fill-opacity:1;" d="M 161.566406 416.15625 L 155.375 431.421875 L 157.535156 432.285156 C 159.335938 433.003906 160.703125 433.292969 161.566406 433.21875 C 162.503906 433.148438 163.367188 432.644531 164.230469 431.851563 C 165.097656 430.988281 165.960938 429.476563 166.824219 427.246094 C 168.046875 424.292969 168.335938 422.132813 167.832031 420.621094 C 167.328125 419.109375 165.960938 417.957031 163.726563 417.019531 L 161.566406 416.15625 "/>
<path style=" stroke:none;fill-rule:nonzero;fill:rgb(13.699341%,12.199402%,12.5%);fill-opacity:1;" d="M 114.910156 400.53125 C 117.574219 396.355469 120.816406 393.90625 124.632813 393.117188 C 128.375 392.324219 132.335938 393.261719 136.441406 395.925781 C 140.617188 398.660156 143.136719 401.828125 143.929688 405.570313 C 144.71875 409.316406 143.855469 413.203125 141.191406 417.234375 C 139.320313 420.1875 137.230469 422.277344 135 423.570313 C 132.769531 424.796875 130.390625 425.300781 127.871094 425.15625 C 125.28125 425.011719 122.617188 424.003906 119.808594 422.203125 C 117 420.332031 114.910156 418.386719 113.617188 416.226563 C 112.390625 414.140625 111.816406 411.691406 111.886719 409.027344 C 112.03125 406.292969 113.039063 403.484375 114.910156 400.53125 "/>
<path style=" stroke:none;fill-rule:nonzero;fill:rgb(78.799438%,85.099792%,61.999512%);fill-opacity:1;" d="M 122.6875 405.570313 C 121.03125 408.164063 120.3125 410.253906 120.527344 411.980469 C 120.816406 413.707031 121.679688 415.148438 123.335938 416.15625 C 124.992188 417.234375 126.648438 417.597656 128.304688 417.09375 C 129.886719 416.589844 131.617188 414.933594 133.488281 412.125 C 135 409.75 135.648438 407.660156 135.433594 405.933594 C 135.144531 404.277344 134.207031 402.835938 132.550781 401.828125 C 131.039063 400.75 129.382813 400.53125 127.726563 401.035156 C 126.070313 401.46875 124.34375 403.050781 122.6875 405.570313 "/>
<path style=" stroke:none;fill-rule:nonzero;fill:rgb(13.699341%,12.199402%,12.5%);fill-opacity:1;" d="M 84.238281 381.164063 L 91.296875 386.5625 C 90.503906 387.714844 90.070313 388.796875 90.070313 389.804688 C 89.929688 391.316406 90.574219 392.683594 91.945313 393.835938 C 92.953125 394.699219 93.886719 395.132813 94.894531 395.132813 C 95.832031 395.132813 96.550781 394.84375 97.054688 394.195313 C 97.632813 393.621094 97.777344 392.898438 97.703125 391.964844 C 97.558594 391.027344 96.769531 389.589844 95.257813 387.5 C 92.734375 384.1875 91.367188 381.378906 91.078125 379.078125 C 90.71875 376.773438 91.367188 374.757813 92.878906 372.957031 C 93.886719 371.804688 95.183594 371.011719 96.769531 370.507813 C 98.351563 370.078125 100.078125 370.148438 101.953125 370.722656 C 103.824219 371.300781 105.910156 372.667969 108.289063 374.683594 C 111.167969 377.203125 112.96875 379.652344 113.542969 382.101563 C 114.121094 384.476563 113.542969 386.996094 111.742188 389.589844 L 104.832031 384.261719 C 105.550781 383.035156 105.839844 382.027344 105.625 381.019531 C 105.480469 380.085938 104.902344 379.148438 103.96875 378.355469 C 103.105469 377.636719 102.382813 377.277344 101.664063 377.203125 C 100.945313 377.203125 100.367188 377.492188 99.9375 377.996094 C 99.574219 378.355469 99.503906 378.789063 99.574219 379.363281 C 99.648438 379.941406 100.222656 380.949219 101.230469 382.246094 C 103.679688 385.554688 105.335938 388.148438 106.054688 390.019531 C 106.777344 391.820313 107.0625 393.476563 106.777344 394.988281 C 106.488281 396.570313 105.839844 397.941406 104.761719 399.164063 C 103.464844 400.605469 101.878906 401.613281 100.078125 402.117188 C 98.207031 402.691406 96.265625 402.621094 94.246094 401.972656 C 92.230469 401.394531 90.144531 400.101563 87.984375 398.226563 C 84.097656 394.84375 82.078125 391.820313 81.863281 389.011719 C 81.648438 386.203125 82.441406 383.613281 84.238281 381.164063 "/>
<path style=" stroke:none;fill-rule:nonzero;fill:rgb(0%,65.098572%,31.399536%);fill-opacity:1;" d="M 66.167969 343.722656 C 69.550781 343.722656 72.289063 346.460938 72.289063 349.84375 C 72.289063 353.15625 69.550781 355.890625 66.167969 355.890625 C 62.785156 355.890625 60.046875 353.15625 60.046875 349.84375 C 60.046875 346.460938 62.785156 343.722656 66.167969 343.722656 "/>
<path style=" stroke:none;fill-rule:nonzero;fill:rgb(0%,65.098572%,31.399536%);fill-opacity:1;" d="M 401.761719 343.722656 C 405.070313 343.722656 407.808594 346.460938 407.808594 349.84375 C 407.808594 353.15625 405.070313 355.890625 401.761719 355.890625 C 398.375 355.890625 395.640625 353.15625 395.640625 349.84375 C 395.640625 346.460938 398.375 343.722656 401.761719 343.722656 "/>
<path style=" stroke:none;fill-rule:nonzero;fill:rgb(100%,100%,100%);fill-opacity:1;" d="M 143.351563 304.339844 C 88.414063 279.570313 119.878906 204.402344 150.984375 204.402344 C 164.878906 167.324219 200.519531 146.15625 250.414063 167.683594 C 266.113281 162.859375 304.488281 153.429688 319.96875 212.972656 C 346.320313 228.523438 356.398438 249.621094 355.320313 269.492188 C 353.808594 296.78125 325.726563 320.109375 301.175781 326.371094 C 252.359375 338.898438 180.359375 341.925781 143.351563 304.339844 "/>
<path style="fill:none;stroke-width:29.9989;stroke-linecap:butt;stroke-linejoin:miter;stroke:rgb(0%,65.098572%,31.399536%);stroke-opacity:1;stroke-miterlimit:4;" d="M 1433.515625 1634.401562 C 884.140625 1882.096875 1198.789063 2633.776562 1509.84375 2633.776562 C 1648.789063 3004.557812 2005.195313 3216.2375 2504.140625 3000.964062 C 2661.132813 3049.20625 3044.882813 3143.503125 3199.6875 2548.073437 C 3463.203125 2392.565625 3563.984375 2181.589062 3553.203125 1982.878125 C 3538.085938 1709.9875 3257.265625 1476.70625 3011.757813 1414.089062 C 2523.59375 1288.815625 1803.59375 1258.542187 1433.515625 1634.401562 Z M 1433.515625 1634.401562 " transform="matrix(0.1,0,0,-0.1,0,467.78)"/>
<path style=" stroke:none;fill-rule:nonzero;fill:rgb(0%,65.098572%,31.399536%);fill-opacity:1;" d="M 221.472656 355.675781 L 249.046875 360.355469 L 281.808594 362.226563 L 293.257813 369.644531 L 306.648438 369.210938 L 317.230469 378.714844 L 320.902344 372.667969 L 319.894531 347.828125 L 303.695313 330.332031 L 285.40625 293.394531 L 284.542969 261.859375 L 291.3125 257.179688 L 295.777344 249.042969 L 312.839844 221.972656 L 307.007813 213.402344 L 303.480469 197.132813 L 289.726563 188.277344 L 283.390625 177.691406 L 275.902344 169.914063 L 280.367188 162.355469 L 284.472656 158.683594 L 291.671875 157.820313 L 297.71875 162.285156 L 318.097656 161.421875 L 311.039063 153.714844 L 307.152344 143.277344 L 304.847656 130.605469 L 303.984375 108.789063 L 296.785156 102.597656 L 296.351563 92.011719 L 292.824219 88.410156 L 286.632813 81.429688 L 278.710938 81.285156 L 280.441406 97.269531 L 290.015625 98.78125 L 293.039063 107.78125 L 292.03125 120.164063 L 274.320313 126.789063 L 266.761719 137.371094 L 262.945313 141.90625 L 261.9375 151.914063 L 255.457031 159.980469 L 247.105469 173.011719 L 243.71875 188.058594 L 232.414063 195.90625 L 222.695313 214.050781 L 208.441406 244.941406 L 196.414063 245.949219 L 187.847656 236.085938 L 171.144531 234.644531 L 162.433594 236.589844 L 159.984375 244.003906 L 151.488281 249.621094 L 142.847656 262.003906 L 138.742188 273.019531 L 129.742188 287.636719 L 132.625 293.46875 L 139.464844 292.964844 L 143.566406 304.773438 L 152.566406 309.308594 L 160.054688 308.15625 L 157.320313 316.507813 L 165.457031 328.386719 L 158.6875 356.109375 L 198.9375 356.46875 L 221.472656 355.675781 "/>
<path style=" stroke:none;fill-rule:nonzero;fill:rgb(100%,94.898987%,0%);fill-opacity:1;" d="M 197.640625 342.210938 C 205.128906 341.5625 189.144531 345.597656 179.929688 342.570313 C 169.414063 339.332031 161.425781 324.066406 150.480469 317.15625 C 145.585938 314.058594 140.257813 311.394531 136.222656 308.085938 C 128.160156 301.53125 129.527344 294.1875 130.320313 283.460938 C 130.753906 277.410156 133.847656 275.324219 135.214844 270.140625 C 137.089844 262.796875 135.144531 255.8125 134.0625 251.203125 C 138.886719 252.644531 143.496094 252.714844 147.238281 254.875 C 156.816406 260.492188 159.839844 270.355469 151.054688 288.140625 C 149.6875 290.949219 150.910156 294.476563 151.847656 297.140625 C 154.726563 304.773438 157.894531 306.933594 164.089844 309.523438 C 165.527344 310.101563 167.113281 312.261719 168.910156 312.691406 C 175.679688 314.5625 183.023438 313.914063 188.496094 314.347656 C 194.902344 314.851563 201.382813 315.429688 207.863281 316.003906 C 210.097656 316.21875 213.046875 318.882813 213.625 317.730469 C 215.640625 313.410156 213.480469 301.171875 212.6875 297.859375 C 209.230469 283.890625 219.382813 273.523438 219.382813 258.835938 C 219.382813 249.332031 235.367188 237.882813 235.367188 241.269531 C 235.367188 247.890625 234.433594 254.15625 236.160156 260.132813 C 238.390625 267.765625 245.519531 274.460938 246.238281 281.660156 C 247.175781 291.667969 248.039063 295.914063 247.175781 305.925781 C 246.382813 317.15625 238.679688 325.292969 243 329.898438 C 244.441406 331.410156 247.175781 331.699219 252 332.707031 C 262.511719 334.722656 275.398438 319.027344 277.488281 307.796875 C 279.863281 294.90625 273.023438 291.957031 273.023438 278.058594 C 273.023438 274.386719 273.960938 271.796875 275.617188 269.925781 C 282.238281 262.21875 302.113281 267.261719 308.449219 260.925781 C 309.3125 260.058594 311.472656 256.027344 309.167969 252.859375 C 308.449219 251.851563 308.519531 251.5625 309.3125 251.707031 C 310.390625 251.78125 312.480469 252.859375 314.425781 254.730469 C 316.007813 256.316406 317.015625 258.476563 317.089844 260.707031 C 317.089844 262.722656 316.296875 264.667969 315.214844 266.253906 C 310.894531 272.875 299.664063 275.324219 299.878906 282.597656 C 300.023438 286.410156 305.136719 291.378906 309.742188 297.066406 C 314.207031 302.539063 318.742188 308.875 318.238281 314.277344 C 317.519531 322.269531 304.847656 337.53125 299.089844 341.851563 C 294.625 345.164063 286.34375 347.828125 276.121094 348.980469 C 265.96875 351.429688 246.238281 342.570313 241.847656 349.699219 C 238.320313 354.8125 234.863281 359.925781 231.335938 364.964844 C 228.960938 368.707031 230.328125 380.660156 228.238281 382.675781 C 222.480469 388.4375 212.832031 397.078125 210.167969 388.582031 C 212.328125 377.058594 200.878906 374.898438 206.28125 363.667969 C 209.664063 356.539063 222.910156 341.707031 211.679688 341.707031 C 206.351563 341.421875 202.96875 342.570313 197.640625 342.210938 "/>
<path style="fill:none;stroke-width:29.9989;stroke-linecap:butt;stroke-linejoin:miter;stroke:rgb(13.699341%,12.199402%,12.5%);stroke-opacity:1;stroke-miterlimit:4;" d="M 1976.40625 1255.690625 C 2051.289063 1262.175 1891.445313 1221.823437 1799.296875 1252.096875 C 1694.140625 1284.479687 1614.257813 1437.135937 1504.804688 1506.2375 C 1455.859375 1537.214062 1402.578125 1563.854687 1362.226563 1596.940625 C 1281.601563 1662.4875 1295.273438 1735.925 1303.203125 1843.190625 C 1307.539063 1903.698437 1338.476563 1924.557812 1352.148438 1976.39375 C 1370.898438 2049.83125 1351.445313 2119.675 1340.625 2165.76875 C 1388.867188 2151.354687 1434.960938 2150.651562 1472.382813 2129.05 C 1568.164063 2072.878125 1598.398438 1974.245312 1510.546875 1796.39375 C 1496.875 1768.307812 1509.101563 1733.034375 1518.476563 1706.39375 C 1547.265625 1630.065625 1578.945313 1608.464062 1640.898438 1582.565625 C 1655.273438 1576.784375 1671.132813 1555.182812 1689.101563 1550.885937 C 1756.796875 1532.175 1830.234375 1538.659375 1884.960938 1534.323437 C 1949.023438 1529.284375 2013.828125 1523.503125 2078.632813 1517.760937 C 2100.976563 1515.6125 2130.46875 1488.971875 2136.25 1500.495312 C 2156.40625 1543.698437 2134.804688 1666.08125 2126.875 1699.20625 C 2092.304688 1838.89375 2193.828125 1942.565625 2193.828125 2089.440625 C 2193.828125 2184.479687 2353.671875 2298.971875 2353.671875 2265.104687 C 2353.671875 2198.89375 2344.335938 2136.2375 2361.601563 2076.471875 C 2383.90625 2000.14375 2455.195313 1933.190625 2462.382813 1861.198437 C 2471.757813 1761.120312 2480.390625 1718.659375 2471.757813 1618.542187 C 2463.828125 1506.2375 2386.796875 1424.870312 2430 1378.815625 C 2444.414063 1363.698437 2471.757813 1360.807812 2520 1350.729687 C 2625.117188 1330.573437 2753.984375 1487.526562 2774.882813 1599.83125 C 2798.632813 1728.7375 2730.234375 1758.229687 2730.234375 1897.214062 C 2730.234375 1933.932812 2739.609375 1959.83125 2756.171875 1978.542187 C 2822.382813 2055.6125 3021.132813 2005.182812 3084.492188 2068.542187 C 3093.125 2077.214062 3114.726563 2117.526562 3091.679688 2149.20625 C 3084.492188 2159.284375 3085.195313 2162.175 3093.125 2160.729687 C 3103.90625 2159.9875 3124.804688 2149.20625 3144.257813 2130.495312 C 3160.078125 2114.635937 3170.15625 2093.034375 3170.898438 2070.729687 C 3170.898438 2050.573437 3162.96875 2031.120312 3152.148438 2015.260937 C 3108.945313 1949.05 2996.640625 1924.557812 2998.789063 1851.823437 C 3000.234375 1813.698437 3051.367188 1764.010937 3097.421875 1707.135937 C 3142.070313 1652.409375 3187.421875 1589.05 3182.382813 1535.026562 C 3175.195313 1455.104687 3048.476563 1302.4875 2990.898438 1259.284375 C 2946.25 1226.159375 2863.4375 1199.51875 2761.210938 1187.995312 C 2659.6875 1163.503125 2462.382813 1252.096875 2418.476563 1180.807812 C 2383.203125 1129.675 2348.632813 1078.542187 2313.359375 1028.151562 C 2289.609375 990.729687 2303.28125 871.198437 2282.382813 851.042187 C 2224.804688 793.425 2128.320313 707.01875 2101.679688 791.979687 C 2123.28125 907.214062 2008.789063 928.815625 2062.8125 1041.120312 C 2096.640625 1112.409375 2229.101563 1260.729687 2116.796875 1260.729687 C 2063.515625 1263.58125 2029.6875 1252.096875 1976.40625 1255.690625 Z M 1976.40625 1255.690625 " transform="matrix(0.1,0,0,-0.1,0,467.78)"/>
<path style=" stroke:none;fill-rule:nonzero;fill:rgb(13.699341%,12.199402%,12.5%);fill-opacity:1;" d="M 243.792969 147.597656 C 243.792969 164.085938 257.183594 177.476563 273.527344 177.476563 C 290.015625 177.476563 303.480469 164.085938 303.480469 147.597656 C 303.480469 131.253906 290.015625 117.789063 273.527344 117.789063 C 257.183594 117.789063 243.792969 131.253906 243.792969 147.597656 Z M 273.527344 116.636719 C 290.664063 116.636719 304.703125 130.53125 304.703125 147.597656 C 304.703125 164.730469 290.664063 178.699219 273.527344 178.699219 C 256.535156 178.699219 242.640625 164.730469 242.640625 147.597656 C 242.640625 130.53125 256.535156 116.636719 273.527344 116.636719 "/>
<path style=" stroke:none;fill-rule:nonzero;fill:rgb(13.699341%,12.199402%,12.5%);fill-opacity:1;" d="M 248.328125 141.835938 L 248.328125 142.339844 L 248.183594 142.339844 C 248.183594 142.195313 248.257813 142.050781 248.328125 141.835938 Z M 248.328125 136.003906 L 248.328125 136.363281 C 247.609375 138.09375 246.886719 140.035156 246.527344 141.765625 C 245.734375 141.621094 244.800781 141.621094 243.9375 141.765625 C 244.441406 139.171875 245.230469 136.722656 246.3125 134.421875 C 246.960938 134.996094 247.679688 135.570313 248.328125 136.003906 Z M 248.328125 136.363281 C 248.328125 136.292969 248.398438 136.21875 248.398438 136.074219 L 248.328125 136.003906 Z M 257.542969 170.058594 C 256.535156 169.339844 255.527344 168.546875 254.59375 167.613281 C 253.945313 168.261719 253.078125 168.691406 252.289063 169.195313 C 253.871094 170.78125 255.601563 172.21875 257.542969 173.371094 Z M 257.542969 154.941406 L 257.542969 167.828125 C 256.96875 167.394531 256.320313 166.890625 255.742188 166.386719 C 257.328125 164.15625 257.6875 161.058594 255.960938 155.515625 Z M 257.542969 135.429688 L 257.542969 151.125 L 255.238281 151.699219 C 253.726563 146.875 251.351563 143.636719 248.328125 142.410156 L 248.328125 141.835938 C 248.761719 140.253906 249.335938 138.164063 250.054688 136.796875 C 252 137.371094 254.375 137.15625 257.542969 135.429688 Z M 276.121094 121.890625 C 276.121094 124.484375 277.632813 127.292969 282.238281 130.746094 L 279.71875 134.347656 C 275.113281 132.546875 270.144531 132.476563 265.390625 134.347656 L 263.519531 131.394531 C 267.625 128.371094 269.929688 125.203125 270.289063 121.890625 C 272.230469 121.675781 274.105469 121.605469 276.121094 121.890625 Z M 273.527344 117.285156 C 274.824219 117.285156 275.976563 117.355469 277.199219 117.5 C 276.769531 118.363281 276.480469 119.300781 276.265625 120.164063 C 274.246094 119.875 272.230469 119.875 270.214844 120.09375 C 270.144531 119.300781 269.785156 118.363281 269.425781 117.570313 C 270.792969 117.429688 272.230469 117.285156 273.527344 117.285156 Z M 257.542969 151.125 L 257.542969 135.429688 C 258.480469 134.996094 259.414063 134.421875 260.425781 133.699219 L 263.089844 137.15625 C 259.992188 140.972656 258.335938 145.722656 258.625 150.835938 Z M 257.542969 167.828125 L 257.542969 154.941406 L 260.0625 154.148438 C 262.800781 158.179688 266.761719 161.203125 271.65625 162.570313 L 271.511719 166.027344 C 266.398438 166.027344 262.65625 167.253906 260.425781 169.773438 C 259.414063 169.125 258.480469 168.546875 257.542969 167.828125 Z M 257.542969 173.371094 L 257.542969 170.058594 C 258.191406 170.492188 258.769531 170.851563 259.414063 171.210938 C 259.054688 172.074219 258.695313 172.941406 258.550781 174.019531 C 258.191406 173.730469 257.902344 173.589844 257.617188 173.371094 C 257.617188 173.371094 257.617188 173.371094 257.542969 173.371094 Z M 288.71875 154.507813 L 288.71875 168.476563 C 287.855469 169.125 286.992188 169.773438 285.984375 170.347656 C 284.398438 168.261719 281.519531 166.890625 275.761719 166.820313 L 275.617188 162.355469 C 280.367188 161.132813 284.472656 158.324219 287.28125 153.933594 Z M 288.71875 134.5625 L 288.71875 149.324219 L 288 149.109375 C 288.214844 144.210938 286.703125 139.386719 283.464844 135.355469 L 285.769531 132.621094 C 286.777344 133.410156 287.785156 134.058594 288.71875 134.5625 Z M 288.71875 170.707031 C 288.144531 171.066406 287.496094 171.429688 286.777344 171.789063 C 287.136719 172.652344 287.425781 173.589844 287.640625 174.523438 C 288 174.378906 288.359375 174.164063 288.71875 173.949219 Z M 288.71875 168.476563 L 288.71875 154.507813 L 290.59375 155.226563 C 289.007813 160.050781 289.007813 164.15625 290.664063 166.964844 C 290.015625 167.46875 289.367188 167.972656 288.71875 168.476563 Z M 298.65625 141.1875 C 298.296875 139.460938 297.648438 137.804688 296.929688 136.21875 C 294.480469 136.722656 291.742188 136.148438 288.71875 134.5625 L 288.71875 149.324219 L 292.175781 150.332031 C 294.046875 144.859375 296.136719 142.554688 298.65625 141.691406 Z M 298.65625 135.570313 L 298.65625 135.644531 C 298.65625 135.644531 298.65625 135.644531 298.65625 135.570313 Z M 294.046875 170.058594 C 293.183594 169.554688 292.390625 168.980469 291.742188 168.402344 C 290.878906 169.195313 289.800781 170.058594 288.71875 170.707031 L 288.71875 173.949219 C 290.664063 172.941406 292.535156 171.429688 294.046875 170.058594 Z M 298.726563 141.402344 L 298.726563 141.691406 C 298.726563 141.621094 298.726563 141.476563 298.726563 141.402344 Z M 300.816406 134.058594 C 300.167969 134.707031 299.375 135.210938 298.726563 135.570313 L 298.726563 135.714844 C 299.449219 137.515625 300.023438 139.386719 300.382813 141.332031 C 301.320313 141.261719 302.257813 141.332031 303.335938 141.476563 C 302.832031 138.882813 301.894531 136.363281 300.816406 134.058594 Z M 298.65625 135.644531 L 298.65625 135.570313 C 298.65625 135.570313 298.65625 135.570313 298.726563 135.570313 L 298.726563 135.714844 C 298.65625 135.714844 298.65625 135.714844 298.65625 135.644531 Z M 298.65625 141.691406 L 298.65625 141.1875 C 298.65625 141.261719 298.65625 141.332031 298.726563 141.402344 L 298.726563 141.691406 C 298.65625 141.691406 298.65625 141.691406 298.65625 141.691406 "/>
</g>
</svg>
