<?xml version="1.0" encoding="UTF-8"?>
<!DOCTYPE svg PUBLIC "-//W3C//DTD SVG 1.1//EN" "http://www.w3.org/Graphics/SVG/1.1/DTD/svg11.dtd">
<!-- Creator: CorelDRAW 2020 (64-Bit) -->
<svg xmlns="http://www.w3.org/2000/svg" xml:space="preserve" width="83.61mm" height="105.947mm" version="1.1" style="shape-rendering:geometricPrecision; text-rendering:geometricPrecision; image-rendering:optimizeQuality; fill-rule:evenodd; clip-rule:evenodd"
viewBox="0 0 275.74 349.41"
 xmlns:xlink="http://www.w3.org/1999/xlink"
 xmlns:xodm="http://www.corel.com/coreldraw/odm/2003">
 <defs>
  <style type="text/css">
   <![CDATA[
    .fil0 {fill:black}
    .fil2 {fill:#FDB714}
    .fil4 {fill:#FDB714}
    .fil3 {fill:white}
    .fil1 {fill:white}
   ]]>
  </style>
 </defs>
 <g id="Plan_x0020_1">
  <metadata id="CorelCorpID_0Corel-Layer"/>
  <g id="_2662250358592">
   <circle class="fil0" cx="137.87" cy="211.54" r="137.87"/>
   <circle class="fil1" cx="137.87" cy="211.54" r="131.89"/>
   <circle class="fil0" cx="137.87" cy="211.54" r="125.72"/>
   <circle class="fil1" cx="137.87" cy="211.54" r="89.51"/>
   <circle class="fil0" cx="137.87" cy="211.54" r="83.21"/>
   <polygon class="fil2" points="204.04,18.83 184.59,18.76 178.11,0 171.86,18.66 152.32,18.83 168.07,30.42 162.1,49.38 178.25,37.82 194.26,49.25 188.28,30.38 "/>
   <polygon class="fil2" points="123.42,18.83 103.97,18.76 97.49,0 91.24,18.66 71.7,18.83 87.45,30.42 81.47,49.38 97.63,37.82 113.63,49.25 107.66,30.38 "/>
   <path class="fil3" d="M122.57 209.02c2.61,-0.84 3.98,3.26 1.17,4.14 -1.31,0.41 -2.37,-0.57 -2.64,-1.46 -0.41,-1.35 0.52,-2.37 1.47,-2.68zm28.96 0.04c2.58,-0.93 4.08,3.2 1.23,4.09 -2.45,0.76 -4.11,-3.05 -1.23,-4.09zm-49.06 -6.65l12.41 -0.11 -0.06 3.18 -8.61 0.09 0.03 3.64 8.46 -0.02 -0.06 3.37 -8.43 -0.01 -0.01 3.99 8.6 0.06 0.07 3.26 -12.45 -0.1 0.05 -17.36zm58.94 12.11c0.58,0.16 0.71,0.64 2,1.36 2.91,1.63 7.05,1.01 6.66,-1.19 -0.36,-2.09 -6.43,-1.56 -8.82,-4.05 -1.14,-1.19 -1.73,-3.02 -0.98,-5.06 2,-5.37 11.43,-3.8 13.19,-1.1 -0.2,0.45 -1.7,2.4 -2.04,2.74 -0.63,-0.38 -1.06,-0.81 -1.94,-1.2 -1.33,-0.59 -4.16,-1.15 -5.24,0.04 -2.34,2.57 4.75,2.79 7.49,4.42 2.49,1.48 2.74,4.77 1.45,6.89 -0.72,1.18 -2.11,2.18 -3.87,2.55 -1.89,0.39 -4.08,0.32 -5.85,-0.19 -2.63,-0.76 -3.27,-1.85 -4.03,-2.21 0.09,-0.55 1.68,-2.71 1.97,-3.01zm-28.9 -0.04c1.53,1.08 1.81,1.77 4.37,2.23 1.72,0.31 4.72,-0.2 4.15,-2.16 -0.56,-1.93 -6.33,-1.4 -8.86,-4 -2.09,-2.14 -1.7,-6.5 2.52,-8.08 3.15,-1.18 8.43,0 9.78,2.01l-2.06 2.74c-0.61,-0.37 -1.04,-0.82 -1.93,-1.21 -4.51,-1.95 -7.17,0.86 -4.77,2.13 2.19,1.16 7.14,1.04 8.72,4.12 0.83,1.62 0.55,3.79 -0.24,5.15 -2.02,3.49 -8.68,3.39 -11.99,1.36 -0.59,-0.36 -1.51,-0.94 -1.77,-1.44 0.12,-0.3 1.75,-2.6 2.1,-2.85zm-16.49 -49.65l0 32.89 -14.45 0.04 -0.05 -22.54c-1.39,0.98 -4.57,5.29 -5.68,6.84 -1.54,2.16 -3.3,5.29 -4.45,7.97 -5.82,13.64 -5.89,27.41 -0.02,41.06 1.58,3.67 4.57,8.68 7.12,11.58 0.59,0.67 2.31,2.87 3.04,3.33l-0.02 -21.58 14.51 -0.04 -0 32.03c1.67,1.44 11.44,4.23 14.49,4.43l0 -36.44c1.63,-0.11 13.59,-0.18 14.52,0.06l-0 36.39c3.86,-0.46 7.58,-1.57 11.1,-2.88 1.07,-0.4 2.42,-1.14 3.39,-1.39l-0.02 -32.11c0.75,-0.24 13.85,-0.23 14.54,0.01l-0.01 21.53c1.2,-0.54 5.22,-6.06 5.75,-6.82 1.72,-2.46 3.05,-5.02 4.44,-7.99 2.73,-5.86 4.38,-13.19 4.38,-20.58 0,-11.06 -3.21,-19.94 -8.75,-28.51 -0.88,-1.35 -1.71,-2.34 -2.69,-3.59 -0.62,-0.79 -2.35,-2.99 -3.16,-3.34l0.03 22.49 -14.47 -0.04 -0.06 -32.95c-3.26,-1.95 -10.69,-3.91 -14.51,-4.34l0.03 37.3 -14.45 0.09 -0.06 -37.36c-3.28,0.24 -12.6,2.91 -14.49,4.45z"/>
   <path class="fil2" d="M123.2 139.97c0.37,-0.53 1.81,-1.35 2.44,-1.84 0.35,-0.27 2.24,-1.63 2.47,-1.72 0.75,-0.28 6.37,-0.95 7.56,-1.1 -0.35,0.58 -2.23,1.52 -2.86,1.89 -1.21,0.71 -1.02,1.61 -1.72,2.75 -1.42,2.32 -5.37,1.63 -6.65,0.88 1.35,-0.05 2.54,0.22 3.54,-0.5 0.6,-0.42 1.46,-1.55 1.04,-2.73 -1.33,0.1 -0.96,0.88 -1.36,1.57 -0.7,1.2 -1.43,-0.1 -2.44,0.21 -0.69,0.21 -1.32,0.5 -2.02,0.6zm-2.54 -2.41c0.32,0.63 0.26,0.23 0.8,0.6l-3.13 1.86c-2.21,1.52 -3.39,4.28 -1.3,6.5 0.67,0.71 1.81,1.99 2.81,2.44 -0.38,-3.87 5.36,-3.87 8.07,-3.89 1.93,-0.02 3.84,0.16 5.74,0.33 2.03,0.18 3.82,0.08 5.85,0.16 4.57,0.17 10.8,1.6 15.35,2.66 1.32,0.31 3.56,1.09 4.72,1.23l-1.63 -2.23c-2.61,-2.81 -6.07,-5.72 -9.5,-7.39 -0.29,-0.14 -0.22,-0.09 -0.43,-0.26 0.24,-0.48 0.88,-0.74 1.56,-1.09 0.58,-0.3 1.21,-0.56 1.9,-0.76 1.86,-0.53 2.85,-0.49 4.76,-0.25 -0.89,-1.06 -6.24,-2.77 -8.22,-3.07 -6.16,-0.95 -8.86,-1.52 -15.22,-1.66 -4.84,-0.1 -3.29,-0.39 -8.66,2.62 -1.26,0.71 -2.37,1.51 -3.47,2.21z"/>
   <path class="fil3" d="M72.9 131.42c-0.58,-0.36 -3.26,-3.14 -1.72,-5.6 0.66,-1.05 4.06,-3.62 4.65,-3.75l3.38 4.5 -6.32 4.85zm23.99 -29.32l4.69 12.9 -3.79 1.19 -3.9 -7.34 -2.61 1.33c0.7,1.72 3.51,6.41 3.78,7.52l-2.74 1.21 -3.8 -7.27 -2.6 1.38 3.72 7.26 -2.63 1.45 -3.91 -7.29 -2.58 1.21 3.75 7.42 -2.57 1.7c-0.56,-0.42 -3.52,-4.57 -4.4,-5.67 -1.41,-1.78 -3.64,0.91 -6.23,2.7 -0.55,0.38 -1.28,1.1 -1.63,1.72 -0.5,0.9 -0.58,1.58 -0.46,2.72 -0.84,-0.72 -3.74,-5.15 -4.45,-5.59 -0.45,0.26 -1.92,1.36 -2.23,1.73 0.22,0.49 0.66,0.9 1.01,1.37l7.16 9.48c-0.02,0.03 -2.72,2.85 -2.86,2.91l-9.29 -9.74 -2.25 1.99 5.34 5.66 1.88 1.88c3.86,4.33 3.99,4.68 5.99,2.78 3.79,-3.6 12.09,-10.71 16.66,-13.08 0.51,-0.26 1.42,-0.62 1.67,-1.12 0.08,-0.16 0.16,-0.44 0.28,-0.72 0.18,0.37 0.1,0.33 0.42,0.63 1.37,-0.7 2.73,-1.4 4.1,-2.1 0.88,-0.54 0.42,-0.7 0.87,-1.27l0.42 0.61c0.72,-0.26 2.22,-1.15 3.02,-1.57 2.14,-0.85 4.27,-1.73 6.44,-2.51 1.44,-0.52 2.28,-0.92 1.51,-2.78 -1.81,-4.39 -3.27,-9.43 -5.02,-13.62l-2.73 0.93z"/>
   <g>
    <path class="fil2" d="M62.99 210.48c0.01,17.9 6.16,34.7 16.96,47.54 1.87,2.22 10.84,10.98 13.12,12.49l2.31 -4.05 -2.85 -2.31c-0.82,-0.87 -1.53,-1.27 -2.71,-2.45 -1.32,-1.32 -5.25,-5.19 -6.28,-6.69l-1.74 -2.17c-0.23,-0.33 -0.33,-0.49 -0.59,-0.81l-2.12 -3.04c-0.37,-0.6 -0.65,-1.08 -1.02,-1.65 -6.75,-10.4 -10.44,-24.3 -10.43,-36.72 0.01,-14.14 3.86,-25.83 10.73,-37.27l4.74 -6.57c0.16,0.2 0.25,0.78 0.33,1.06 0.09,0.39 0.2,0.74 0.29,1.11 0.2,0.78 0.39,1.44 0.61,2.18 0.42,1.41 0.93,2.79 1.45,4.13 0.54,1.39 1.09,2.61 1.71,3.88 0.34,0.68 1.45,3.04 2.03,3.63 0.14,-0.12 0.11,-0.06 0.25,-0.24l0.51 -0.9c0.22,-0.36 0.46,-0.72 0.7,-1.11l3.13 -4.4c0.28,-0.31 0.51,-0.63 0.81,-1.01 1.31,-1.61 1.03,-0.17 -0.8,-5.26 -2.27,-6.34 -2.61,-11.35 -2.5,-18.05 -0.74,0.28 -2.37,1.95 -3.04,2.45 -0.34,0.25 -0.36,0.32 -0.66,0.59 -3.61,3.28 -6.36,5.98 -9.23,9.91l-1.76 2.28c-1.75,2.2 -3.83,5.91 -5.24,8.45 -5.19,9.36 -8.72,22.19 -8.71,34.99z"/>
    <path class="fil2" d="M70.23 210.2c0.09,14.1 3.49,24.72 9.78,35.47 1.68,2.86 3.73,5.51 5.75,8.07 3,3.78 7.16,7.35 10.86,10.47l2.37 -4.03c-0.56,-0.64 -1.77,-1.53 -2.5,-2.1l-2.37 -2.23c-1.5,-1.34 -4.31,-4.43 -5.45,-5.99 -2.6,-3.56 -4.18,-5.37 -6.43,-9.76 -7.92,-15.46 -9.74,-32.22 -4.13,-49.4 1.2,-3.68 2.6,-6.78 4.37,-10.01 0.59,-1.08 0.58,-0.86 0.07,-2.04l-1.68 -4.21c-0.78,0.5 -3.57,5.98 -4.24,7.39 -1.25,2.64 -2.31,5.37 -3.25,8.34 -1.9,5.98 -3.19,13.25 -3.14,20.04z"/>
    <path class="fil2" d="M77.48 210.34c0.02,5.37 0.64,10.73 1.99,15.63 1.21,4.4 2.87,9.01 4.93,12.66 1.09,1.94 2.1,3.72 3.23,5.44 2.3,3.49 5.05,6.7 8.01,9.58l4.64 4.15 2.36 -4.04 -3.02 -2.69c-0.61,-0.44 -4,-4.09 -4.78,-5.13 -0.25,-0.34 -0.35,-0.43 -0.69,-0.85 -0.38,-0.47 -0.86,-1.13 -1.2,-1.6 -8.06,-11.09 -11.66,-23.65 -10.58,-37.89 0.36,-4.78 1.56,-9.65 3.15,-14.07 1.73,-4.81 2.35,-3.24 0.27,-6.48 -0.46,-0.72 -0.91,-1.56 -1.24,-2.35 -4.57,9.3 -7.1,16.94 -7.06,27.65z"/>
   </g>
   <path class="fil3" d="M55.87 149.19c-0.25,0.52 -1.67,2.34 -1.93,2.54 -0.93,0.72 -2.32,0.5 -3.25,-0.15 -2.46,-1.71 -1.4,-3.76 0.43,-5.75l4.75 3.36zm-0.17 -12.7c0.91,1.06 5.42,4.8 6.06,5.58 -0.81,1.2 -2.99,3.55 -4.07,4.58 -0.5,-0.16 -1.89,-1.27 -2.47,-1.68 -2.27,-1.63 -3.8,-3.3 -5.42,-2.26 -0.36,0.23 -1.44,1.87 -1.86,2.46 -1.27,1.74 -2.41,3.53 -1.16,6.3 0.88,1.93 2.52,2.87 4.4,3.53l0.38 0.21c-0.08,0.16 -2.07,2.8 -2.15,2.87l-5.09 -2.49c-3.07,-1.53 -2.99,-0.72 -4.34,1.88 -1.15,2.22 -1.08,4.38 0.54,5.83 1.09,0.97 4.45,2.21 5.01,2.8 -0.27,0.85 -1.85,4.01 -2.47,4.5 -1.79,1.41 -3.92,-0.94 -4.64,-1.67l-2.34 1.64c0.63,1.39 3.77,3.71 6.54,3.36 2.8,-0.36 3.85,-2.94 4.92,-5.15 1.97,-4.08 2.45,-3.92 -1.21,-5.69 -1.84,-0.89 -4.59,-1.68 -4.17,-3.18 0.19,-0.67 0.45,-1.32 0.88,-1.67l5.09 2.48c0.74,0.36 1.79,1.13 2.67,0.71 0.32,-0.15 2.59,-3.7 3.13,-4.41 0.56,-0.75 1,-1.43 1.57,-2.2l6.6 -8.62c3.03,-3.61 4.76,-3.62 1.62,-6.38l-6.03 -5.44c-0.47,0.22 -1.8,1.76 -1.99,2.12z"/>
   <path class="fil3" d="M141.63 108.38c-0.14,-1.41 0.12,-3.42 0.81,-4.28 0.78,-0.97 2.22,-1.41 3.88,-1.25 3.65,0.37 3.86,-0.19 3.65,1.25l-0.39 4.76 -7.96 -0.48zm-2.99 -0.22l-2.49 -0.15c-1.08,0 -0.78,-0.05 -0.91,-1.47 -0.15,-1.44 -0.16,-6.55 -1.61,-6.94 -0.84,-0.23 -6.29,-0.26 -7.25,3.1 -0.55,1.94 0.25,5.07 0.21,5.87 -0.03,0.54 -0.01,0.2 -0.13,0.37 -0.66,0.42 -4.65,0.63 -5.42,0.2 -0.66,-0.36 -0.94,-0.94 -1.05,-2.02 -0.17,-1.63 0.7,-2.45 0.02,-2.82 -0.44,-0.24 -1.88,-0.78 -2.3,-0.88 -0.89,1.06 -1.03,4.93 0.4,6.96 1.45,2.06 3.6,2.14 6.85,1.78 4.46,-0.5 5.07,0.08 4.55,-3.78 -0.43,-3.21 -1.34,-5.98 1.94,-5.79 0.59,0.03 0.13,-0.02 0.35,0.13 0.27,0.43 0.63,5.27 0.72,6.25 0.29,3.16 1.74,1.96 4.61,2.11 4.3,0.22 8.74,0.54 13.06,0.9 2.68,0.22 2.35,-1.26 2.49,-4.33 0.36,-7.73 2.07,-7.23 -5.5,-7.69 -2.36,-0.14 -4.17,0.31 -4.99,1.92l0 -2.29 -2.94 -0.17 -0.6 8.73z"/>
   <path class="fil3" d="M223.45 154.23c0.31,-0.31 1.39,-0.98 1.92,-1.27 0.7,-0.4 1.37,-0.99 2.5,-0.84 1.72,0.24 2.41,2.21 3.15,3.35 -0.33,0.49 -4.08,2.91 -4.82,3.11 -0.81,-0.54 -2.39,-3.13 -2.75,-4.35zm-0.19 5.71c-2.8,0.62 -4.61,-0.16 -5.53,-1.96 -0.43,0.1 -2.26,1.21 -2.52,1.54 0.46,1.2 2.22,2.72 3.68,3.26 2.6,0.96 3.84,0.16 6.06,-0.29l2.56 5.07c0.65,1.04 1.51,0.85 2.57,0.32l7.77 -3.83c0.86,-0.44 1.68,-0.86 2.59,-1.3 0.81,-0.39 1.95,-0.88 2.6,-1.3l-1.24 -2.6 -12.23 6c-0.1,-0.11 -1.76,-3.42 -1.86,-3.68 1.16,-0.57 2.38,-1.42 3.51,-2.2 0.8,-0.55 2.96,-1.63 3.16,-2.7 0.2,-1.07 -1.08,-2.72 -1.84,-3.94 -0.81,-1.29 -1.42,-2.17 -3.07,-2.8 -3.02,-1.16 -5.67,0.79 -8.41,2.63 -1.53,1.03 -0.87,2.24 0,4.1 0.59,1.27 2.14,3.48 2.18,3.68z"/>
   <path class="fil3" d="M219.08 148.2c-0.44,-0.43 -1.78,-1.96 -2.04,-2.56 -1,-2.31 2.57,-5.06 4.48,-3.49 0.53,0.44 0.68,0.74 1.06,1.18 0.39,0.45 0.79,0.73 0.94,1.25 -0.37,0.4 -0.68,0.63 -1.1,0.95 -0.38,0.29 -0.71,0.6 -1.08,0.88 -0.71,0.53 -1.54,1.47 -2.24,1.79zm-4.75 -5.75l-3.23 -3.32c0.24,-0.48 4.37,-4.47 4.78,-4.88 0.36,-0.36 4.57,-4.39 4.76,-4.9l-1.96 -1.96c-0.53,0.27 -2.09,2.02 -2.63,2.56l-7.97 7.95c-1.42,1.43 -0.07,2.38 0.78,3.22l8.59 9.84c1.46,1.78 2.35,0.62 4.77,-1.44l4.32 -3.63c0.44,-0.51 0.6,-1.4 0.2,-2.12l-2.37 -2.94c-2.09,-2.37 -4.73,-2.84 -7.45,-1.08 -2.27,1.47 -1.74,1.97 -2.58,2.7z"/>
   <path class="fil3" d="M226.58 253.53c0.77,0.29 1.56,0.74 2.34,1.14 0.85,0.43 1.58,0.77 2.42,1.21 0.63,0.33 4.29,2 4.79,2.53l-11 -2.27c-0.43,0.8 -1.43,2.58 -1.61,3.36 1.01,0.3 10.52,5.28 12.37,6.21 0.8,0.4 3.63,1.93 4.33,2.08 0.24,-0.62 0.97,-1.72 1.07,-2.34 -3.34,-1.48 -7.01,-3.62 -10.4,-5.21 -0.55,-0.26 -1.03,-0.62 -1.4,-0.81 0.82,0.07 2.29,0.48 3.22,0.68 1.78,0.39 9.49,2.04 10.24,2.03l1.34 -2.5c-0.43,-0.55 -3.29,-1.77 -4.08,-2.16 -2.29,-1.14 -10.97,-5.7 -12.48,-6.3 -0.37,0.36 -1.08,1.82 -1.16,2.36z"/>
   <path class="fil3" d="M26.14 245.91l0.81 2.43c1.27,-0.17 11.74,-4.34 12.52,-4.31 -0.64,0.62 -1.98,1.38 -2.73,1.91l-5.67 3.96c-0.69,0.49 -2.41,1.53 -2.81,2.05l0.9 2.67c0.85,-0.07 17.26,-6 17.63,-6.3l-0.81 -2.24c-1.03,0 -8.32,3.05 -10.27,3.53 0.35,-0.54 1.64,-1.27 2.2,-1.64l6.91 -4.81c0.01,-0.77 -0.88,-2.46 -1.05,-3.42 -1.01,0.1 -3.41,1.13 -4.49,1.5l-8.75 3.11c-1.29,0.45 -3.31,1.07 -4.4,1.57z"/>
   <path class="fil3" d="M231.12 242.03l0.63 0.31c0.21,0.07 0.42,0.13 0.63,0.21l3.91 1.4c1.67,0.61 3.6,1.11 5.08,1.92l-11.28 -0.92 -1.25 3.44c1.46,0.64 16.96,6.16 17.64,6.23l0.83 -2.42c-1.58,-0.55 -11.96,-4.1 -12.46,-4.56l13.68 1.12c0.28,-0.82 0.83,-2.04 0.98,-2.84l-17.51 -6.24 -0.89 2.36z"/>
   <path class="fil3" d="M44.3 281.26c0.13,0.31 1.27,1.75 1.65,2.01 0.92,-0.67 1.72,-1.34 2.59,-2.07 0.74,-0.62 7.1,-5.94 7.68,-6.2 -0.23,0.44 -0.64,0.93 -0.94,1.35l-7.02 9.78c0.2,0.41 1.6,2.07 1.89,2.31 0.57,-0.36 1.1,-0.88 1.73,-1.38 0.64,-0.51 1.24,-1.01 1.86,-1.51l7.2 -5.9c0.6,-0.48 1.18,-0.92 1.8,-1.43l1.8 -1.58c-0.25,-0.5 -0.03,-0.12 -0.39,-0.48l-1.17 -1.44 -4.28 3.4c-0.38,0.35 -0.58,0.54 -0.97,0.83 -0.39,0.29 -0.69,0.58 -1.09,0.87 -0.83,0.61 -1.3,1.19 -2.19,1.73 0.62,-1.18 6.55,-8.94 6.52,-9.23 -0.27,-0.48 -1.93,-2.51 -2.34,-2.77l-8.93 7.25c-0.7,0.62 -1.11,0.89 -1.81,1.52l-3.62 2.93z"/>
   <path class="fil3" d="M202.94 131.53c-1.44,-1.92 1.3,-5.41 3.56,-4.4 0.5,0.23 2.28,1.57 2.53,1.95l-2.64 3.5c-0.3,0.37 -0.48,0.8 -0.99,1.03l-2.46 -2.08zm-3.24 -2.45l-1.71 -1.26c-0.62,-0.53 -1.12,-1.12 -1.09,-1.94 0.04,-1.34 1.8,-2.78 2.82,-3.17 -0.09,-0.75 -0.86,-1.98 -1.11,-2.77 -0.89,0.27 -2.07,1.25 -2.65,1.81 -0.79,0.76 -1.39,1.67 -1.76,2.71 -1.59,4.48 3.95,6.98 7.42,9.93 0.6,0.51 3.25,2.73 3.91,2.83 1.37,0.19 2.39,-1.93 3.49,-3.25 0.69,-0.83 1.26,-1.68 1.96,-2.51 0.82,-0.96 1.58,-1.79 1.46,-2.9 -0.11,-1.06 -1.39,-1.7 -2.14,-2.3 -1.56,-1.26 -3.45,-3.06 -6.46,-1.93 -2.47,0.92 -3.38,2.52 -4.15,4.75z"/>
   <path class="fil3" d="M120.59 316.23c-0.03,-0.63 0.45,-3.16 0.59,-4.01 0.12,-0.68 -0.02,-1.6 0.64,-1.56 0.62,0.03 1.46,0.13 1.85,0.54 0.7,0.73 0.29,2.79 0.02,3.83 -0.42,1.64 -1.54,1.82 -3.1,1.2zm-4.4 9.83l2.78 0.37c0.52,-1 0.8,-5.9 1.2,-7.37 0.54,-0.19 1.72,0.1 2.14,0.47 0.59,0.52 0.51,1.42 0.41,2.37 -0.17,1.52 -0.75,3.42 -0.5,4.98l2.91 0.49c-0.3,-3.36 1.48,-6.85 -0.05,-8.65 -0.42,-0.49 -0.44,-0.2 -0.68,-0.79 1.23,-0.46 1.97,-1.34 2.26,-3.02 0.55,-3.12 1.02,-5.92 -3.11,-6.67 -0.44,-0.08 -4.47,-0.67 -4.53,-0.64 -0.28,0.15 -1.98,12.04 -2.17,13.73 -0.15,1.34 -0.7,3.5 -0.67,4.72z"/>
   <path class="fil3" d="M178.92 116.92c-0.47,-0.1 -1.37,-0.56 -1.76,-0.79 -0.58,-0.33 -1.33,-0.47 -1.87,-0.77 0.1,-0.64 1.95,-5.18 2.15,-6.49 -0.4,-0.2 -2.27,-0.93 -2.71,-0.95 -0.4,0.58 -1.06,3.07 -1.36,3.94 -0.68,1.97 -1.6,4.7 -3.09,6.12 -0.72,0.69 -1.34,1.25 -2.6,1.42 -1.07,0.15 -1.47,-0.17 -2.42,-0.28l-0.95 2.74c6.8,2.14 8.64,-3.01 9.67,-3.76 3.93,0.96 5.72,4.25 7.31,0.71 0.63,-1.39 5.72,-12.49 5.83,-13.21 -0.69,-0.25 -2.06,-1.02 -2.67,-1.07l-5.53 12.39z"/>
   <path class="fil3" d="M110.35 308.18c0.63,-0.23 1.45,0.12 1.73,0.49 0.44,0.59 0.22,1.31 0.03,2.04l-2.03 7.45c-0.28,1.06 -0.61,2.91 -1.47,3.29 -0.7,0.3 -1.68,-0.18 -1.92,-0.53 -0.58,-0.87 0.67,-4.47 1.05,-5.8 0.36,-1.26 0.69,-2.49 1.01,-3.72 0.4,-1.52 0.55,-2.83 1.6,-3.21zm-0.98 -2.65c-2.1,0.63 -2.6,2.16 -3.23,4.37 -0.57,2 -1.07,4.07 -1.65,6.04 -0.55,1.86 -1.48,4.35 -0.4,6.19 0.78,1.33 3.13,2.57 5.38,1.99 2.02,-0.51 2.6,-2.18 3.2,-4.33 0.56,-1.99 1.14,-4.05 1.64,-6.04 0.48,-1.91 1.53,-4.36 0.43,-6.19 -0.77,-1.28 -3.09,-2.71 -5.37,-2.03z"/>
   <path class="fil3" d="M169.01 104.51l-2.84 -0.7 -2.12 7.93 -6.71 -1.47c0.02,-0.95 1.77,-10.25 2.26,-12.59 0.13,-0.6 0.18,-0.65 -0.01,-0.85l-2.73 -0.5 -2.72 14.75c-0.28,2.02 1.95,1.99 3.63,2.27l4.62 1.08c4.4,1.11 3.71,1.4 5.42,-5.2l1.19 -4.72z"/>
   <path class="fil3" d="M154.1 307.97l-0.11 7.5c-0.01,2.41 0.13,5.3 -0.02,7.64 -0.56,-0.61 -3.6,-12.42 -4.36,-14.4l-2.91 0.3 5.41 18.01 4.33 -0.66 0.25 -18.75 -2.6 0.36z"/>
   <path class="fil3" d="M99.14 304.31c0.75,0.09 1.95,0.66 2.16,1.32 0.21,0.66 -0.47,2.02 -0.71,2.63 -0.93,2.34 -1.05,3.25 -3.83,1.85l2.37 -5.8zm-8.62 13.67l2.61 1.13 2.62 -6.45c2.46,0.31 5.23,3.71 8.12,-4.76 0.82,-2.4 0.28,-3.95 -1.33,-5.04 -0.66,-0.44 -4.16,-1.87 -5.06,-2.15 -0.11,0.12 -6.86,16.57 -6.96,17.27z"/>
   <path class="fil3" d="M182.14 313.22c-0.54,0.13 -2.15,0.89 -2.53,1.16 2.25,6.65 8.39,3.58 8.96,0.47 0.27,-1.46 -0.57,-3.37 -1.21,-4.24 -1.91,-2.57 -4.43,-2.25 -7.16,-3.87 -0.75,-0.45 -2.46,-2.24 -1.51,-3.45 0.37,-0.47 1.28,-0.9 1.92,-0.44 0.57,0.4 0.79,1.07 1.09,1.7l2.47 -1.06c-0.41,-2.25 -3.06,-4.87 -6.63,-2.74 -2.88,1.72 -2.42,5.03 -0.38,7.37 1.74,2 5.03,2.16 7.3,3.74 0.73,0.51 2.01,2.59 0.53,3.47 -1.77,1.05 -2.39,-0.94 -2.85,-2.09z"/>
   <path class="fil3" d="M83.48 308.35c-0.26,-0.36 -1.84,-1.25 -2.38,-1.37 -1.79,2.32 -1.92,5.3 0.74,6.95 3.34,2.06 5.41,0.18 6.62,-2.3 1.61,-3.29 -0.61,-5.76 -0.93,-8.58 -0.47,-4.05 3.1,-4.27 3.32,-2.34 0.09,0.74 -0.43,1.41 -0.67,1.92 0.22,0.25 0.11,0.17 0.47,0.38l1.92 0.98c3.5,-5.97 -3.05,-8.49 -5.59,-6.68 -0.79,0.56 -1.87,2 -2.23,3.22 -1.09,3.75 1.42,5.84 1.27,8.8 -0.07,1.34 -1.01,3.07 -2.48,2.47 -1.87,-0.77 -0.62,-2.33 -0.08,-3.45z"/>
   <path class="fil3" d="M232.79 236.69l18.09 4.17c0.24,-0.36 1.78,-7 1.84,-7.78l-2.54 -0.59 -1.22 4.82c-0.49,0.14 -4.72,-0.88 -5.27,-1.17 0.15,-1.09 0.83,-2.82 0.83,-3.9l-2.5 -0.53 -0.92 3.82c-0.51,0.09 -4.57,-0.82 -5.06,-1.18l1.1 -4.86 -2.56 -0.56c-0.32,0.86 -1.74,6.89 -1.79,7.76z"/>
   <path class="fil3" d="M37.16 270.65c0.29,0.59 3.87,6.27 4.33,6.61 0.71,-0.34 1.36,-0.91 2.11,-1.28 -0.13,-0.66 0.02,-0.1 -0.6,-1.1l-2.02 -3.27c0.31,-0.29 4.19,-2.74 4.6,-2.9 0.47,0.59 1.7,2.92 2.21,3.3l2.11 -1.34c-0.19,-0.75 -1.58,-2.43 -2.02,-3.37 0.32,-0.42 3.97,-2.71 4.41,-2.8l2.66 4.15c0.47,-0.19 1.71,-1.02 2.17,-1.34 -0.17,-0.56 -3.94,-6.39 -4.3,-6.71l-13.75 8.72c-0.64,0.43 -1.52,0.8 -1.89,1.32z"/>
   <path class="fil3" d="M62.94 301.01c0.7,0.3 5.18,4.04 6.19,4.71 0.62,-0.54 1.12,-1.37 1.62,-1.98 -0.69,-0.85 -3.57,-2.74 -3.87,-3.21 0.29,-0.48 2.99,-3.99 3.36,-4.22 0.49,0.24 2.38,1.9 3.07,2.35 0.34,-0.31 1.5,-1.68 1.62,-2.03 -0.39,-0.56 -2.71,-1.98 -3.04,-2.51 0.73,-1.31 2.22,-2.74 3.06,-4.04 0.4,0.13 1.63,1.15 2.04,1.48 0.41,0.33 0.61,0.47 1.01,0.8 0.36,0.29 0.62,0.65 1.04,0.77 0.27,-0.29 1.41,-1.72 1.55,-2.07l-6.16 -4.85c-0.54,0.37 -2.37,2.89 -2.92,3.61 -0.92,1.21 -1.94,2.49 -2.89,3.68 -0.54,0.68 -5.54,6.85 -5.69,7.54z"/>
   <path class="fil3" d="M184.59 297.6l8.28 14.06c0.38,0.61 0.76,1.55 1.25,1.93l6.75 -4.02 -1.34 -2.24c-0.99,0.45 -3.6,2.3 -4.33,2.42 -0.33,-0.33 -2.61,-4.19 -2.69,-4.61 0.44,-0.39 1.08,-0.71 1.65,-1.04 0.41,-0.24 1.36,-0.69 1.65,-1.06 -0.15,-0.48 -1.03,-1.83 -1.3,-2.2 -0.99,0.38 -2.6,1.74 -3.53,1.93 -0.45,-0.94 -2.41,-3.78 -2.54,-4.52 0.59,-0.22 3.66,-2 4.21,-2.47 -0.07,-0.55 0.1,-0.04 -0.23,-0.58l-0.96 -1.65c-0.55,0.13 -6.31,3.56 -6.88,4.05z"/>
   <path class="fil3" d="M217.71 268.44c0.45,0.38 1.33,0.88 1.9,1.26l11.59 7.68c0.59,0.38 1.55,1.17 2.17,1.27 0.26,-0.66 3.81,-5.96 4.27,-6.41 -0.3,-0.53 -1.68,-1.4 -2.26,-1.58 -0.37,0.62 -2.39,3.83 -2.78,4.13l-4.49 -2.96c0.23,-0.74 1.84,-2.59 2.15,-3.44 -0.54,-0.33 -1.73,-1.23 -2.27,-1.35l-1.85 2.87c-0.22,0.3 -0.09,0.16 -0.37,0.36 -0.58,-0.31 -3.8,-2.39 -4.18,-2.82 0.12,-0.66 2.35,-3.38 2.63,-4.19l-2.06 -1.47 -4.46 6.66z"/>
   <path class="fil3" d="M158.99 307.06l4.68 18.02 7.69 -1.95 -0.59 -2.53 -4.86 1.21 -1.44 -5.22 3.8 -1.07c0.01,-0.6 -0.37,-1.99 -0.58,-2.53l-2.99 0.73c-0.64,0.18 -0.9,0.29 -1.11,-0.42l-1.1 -4.44 4.84 -1.22 -0.59 -2.54 -7.75 1.96z"/>
   <path class="fil3" d="M23.03 233.39l1.72 7.77 2.53 -0.54c0.01,-0.63 -0.86,-4.22 -1.07,-4.84 0.49,-0.43 1.84,-0.55 2.59,-0.71 0.76,-0.16 2.08,-0.6 2.76,-0.57 0.28,0.8 0.64,3.33 1,3.83l2.42 -0.56c0.13,-0.79 -0.81,-2.87 -0.74,-3.96l4.87 -1.11c0.42,0.55 1.04,3.97 1.23,4.9l2.53 -0.56c0.05,-1.34 -1.4,-6.02 -1.66,-7.76l-18.19 4.1z"/>
   <path class="fil2" d="M157.64 158.58c-0.2,-0.82 -1.75,-2.52 -2.25,-2.95 -3.19,-2.67 -6.02,-3.92 -10.35,-5.15 -5.92,-1.68 -11.96,-2.22 -18.43,-2.42 0.52,0.49 7.09,2.55 7.65,2.73l23.38 7.79z"/>
   <path class="fil3" d="M206.89 281.12l12.66 11.95c0.39,0.35 0.46,0.58 0.99,0.76 0.35,-0.74 1.39,-1.36 1.79,-2.1 -0.73,-0.82 -5.18,-4.79 -5.46,-5.31 0.63,-0.81 1.45,-1.63 2.47,-2.61 -0.17,-0.47 -1.44,-1.58 -1.8,-1.85 -0.79,0.26 -1.87,1.96 -2.65,2.59 -0.45,-0.17 -3.95,-3.64 -4.05,-3.85 0.64,-0.84 3,-3.01 3.18,-3.49 -0.29,-0.41 -1.51,-1.53 -1.91,-1.7 -0.56,0.55 -4.97,5.05 -5.2,5.61z"/>
   <path class="fil3" d="M157.1 275.33c0.12,1.3 -0.56,1.77 -1.62,2.07 -3.01,0.86 -3.42,-1.94 -0.91,-2.71 1.11,-0.34 1.9,0.17 2.53,0.64zm-3.4 -5.32c1.02,-0.19 2.12,0.13 1.99,1.18 -0.07,0.55 -1.12,1.37 -1.8,1.45 -2.66,0.32 -2.78,-2.16 -0.19,-2.64zm-1.63 4.13c-0.27,0.64 -0.94,0.71 -1.36,1.85 -0.88,2.37 1.47,4.64 5.44,3.48 4.74,-1.38 4.72,-5.76 0.49,-6.41 0.21,-0.54 0.92,-0.88 1.24,-1.64 0.91,-2.17 -1.08,-4.48 -4.99,-3.46 -1.61,0.42 -3.17,1.36 -3.54,2.75 -0.26,0.95 0.07,1.81 0.57,2.37 0.8,0.9 1.07,0.58 2.15,1.05z"/>
   <path class="fil3" d="M129.69 309.19l-0.14 2.49 3.08 0.14 -0.57 15.92c0.6,0.16 2.38,0.24 2.91,0.09l0.58 -15.85 3.08 -0.01 0.06 -2.62 -9 -0.16z"/>
   <path class="fil3" d="M193.14 292.43l1.51 2.06c0.68,-0.21 1.65,-1.42 2.5,-1.75 2.71,3.44 5.62,7.59 8.37,11.16 0.37,0.48 0.79,1.25 1.28,1.55 0.57,-0.37 1.72,-1.24 2.21,-1.71 -0.1,-0.25 -0.94,-1.38 -1.14,-1.63 -0.84,-1.08 -8.23,-10.74 -8.32,-11.21 0.56,-0.53 2.03,-1.41 2.32,-1.8l-1.5 -2.07c-0.18,0.06 -6.68,4.75 -7.23,5.4z"/>
   <path class="fil3" d="M64.29 280.18c0.27,0.41 0.62,0.67 1,1.02 0.23,0.21 0.34,0.34 0.56,0.55 0.36,0.34 0.33,0.2 0.52,0.63 -0.29,0.63 -0.86,0.91 -1.39,1.44l-6.85 7.12c-0.93,0.99 -1.9,1.92 -2.79,2.89 0.14,0.24 1.69,1.75 2.05,2 0.5,-0.32 4.75,-4.86 5.55,-5.66 0.91,-0.92 1.79,-2.02 2.73,-2.85l2.89 -2.83 2.2 2.07c0.48,-0.49 1.45,-1.44 1.79,-1.91l-6.5 -6.25c-0.4,0.28 -1.47,1.45 -1.77,1.79z"/>
   <path class="fil3" d="M45.37 251.7l1.25 2.59c-0.92,0.7 -12.33,6.06 -14.3,7.18 0.13,0.39 1.05,2.32 1.35,2.57l14.22 -7.03c0.47,0.51 0.9,1.89 1.41,2.61 0.47,-0.05 1.99,-0.86 2.35,-1.08l-4.02 -8.04c-0.44,0.11 -1.95,0.81 -2.26,1.21z"/>
   <path class="fil3" d="M132.27 274.34c-0.68,0.47 -1.85,0.94 -3.02,0.55 -0.82,-0.27 -1.76,-1.31 -1.05,-2.42 1.1,-1.7 4.3,-1.07 4.07,1.86zm-0.14 1.72c-0.25,1.5 -0.79,2.41 -1.96,2.87 -1.65,0.66 -2.69,-0.31 -3.53,-0.91l-0.17 0.13c-0.36,0.36 -0.97,1.16 -1.09,1.57 2.62,2.43 6.48,1.99 8.1,-0.55 1.62,-2.53 1.73,-7.17 -0.58,-8.79 -2.64,-1.84 -6.94,-1.14 -7.41,2.35 -0.39,2.88 1.96,4.58 4.46,4.28 0.97,-0.11 1.47,-0.62 2.17,-0.96z"/>
   <path class="fil3" d="M138.01 270.19l0.3 6.54c0.34,0.2 1.24,0.38 1.72,0.43 0.77,-0.6 1.2,-1.12 2.68,-1.08 2.71,0.06 2.56,3.5 -0.56,3.45 -1.5,-0.02 -1.93,-0.55 -2.78,-1.03l-1.19 1.76c2.1,2.15 7.5,2.13 8.7,-1.25 0.92,-2.61 -0.99,-5.46 -3.99,-5.09 -1.35,0.16 -1.38,0.68 -2.31,1l-0.14 -2.7 5.46 -0.39 -0.11 -2.11 -7.78 0.49z"/>
   <path class="fil3" d="M141.26 309.32l0.87 18.53 2.85 -0.13c0.16,-0.92 -0.68,-18.51 -1.04,-18.62l-2.67 0.22z"/>
   <path class="fil3" d="M213.86 273.49c0.7,0.35 1.17,0.88 1.85,1.36 2.39,1.71 6.16,5.06 8.93,7.12 1.27,0.95 2.44,1.99 3.65,2.94 0.49,-0.27 0.66,-0.64 0.96,-1.02 0.29,-0.37 0.66,-0.71 0.9,-1.1 -0.34,-0.62 -1.22,-1.1 -1.72,-1.53l-3.66 -2.9c-0.65,-0.51 -1.22,-0.95 -1.85,-1.5l-5.46 -4.33c-0.43,-0.35 -1.47,-1.31 -1.89,-1.45 -0.36,0.4 -1.6,1.96 -1.71,2.41z"/>
   <path class="fil3" d="M202.22 285.31l12.39 13.84 2.12 -1.83 -11.62 -13.12c-0.44,-0.41 -0.36,-0.6 -0.83,-0.8l-2.06 1.91z"/>
   <path class="fil3" d="M229.31 171.38l1.05 2.55c0.79,-0.1 6.48,-2.62 7.7,-3.11 2.53,-1.03 5.25,-2.13 7.66,-3.2 -0.08,-0.6 -0.81,-1.95 -1.03,-2.7 -0.93,0.21 -2.95,1.2 -3.94,1.61 -1.88,0.78 -10.94,4.43 -11.43,4.86z"/>
   <path class="fil3" d="M182.86 122.14l2.57 1.26 7.72 -14.68 -2.51 -1.37c-0.49,0.49 -3.29,6.1 -3.92,7.24 -0.54,0.98 -3.74,6.94 -3.86,7.55z"/>
   <path class="fil3" d="M103.23 100.04l4.67 15.78c0.67,-0.02 2.08,-0.52 2.77,-0.76l-4.65 -15.88c-0.57,0.02 -2.39,0.55 -2.79,0.86z"/>
   <path class="fil3" d="M117.01 270.21l0.82 1.84c0.8,-0.16 1.58,-0.94 2.38,-1.22l-2.18 8.02 2.2 0.65c0.42,-0.61 2.9,-9.64 3.32,-11.05 -2.72,-1.54 -3.26,0.54 -6.53,1.76z"/>
   <path class="fil2" d="M140.6 155.02c-0.23,-0.73 -3.18,-2.12 -3.74,-2.36 -1.35,-0.57 -3.04,-1.27 -4.63,-1.61 0.2,0.54 2.56,2.93 2.99,3.38 0.84,0.87 0.74,0.56 2.32,0.51 1.04,-0.03 2.03,0.04 3.06,0.07z"/>
   <path class="fil3" d="M44.77 142.12c-1.88,0.38 -1.57,3.52 0.59,3.14 2.11,-0.38 1.4,-3.54 -0.59,-3.14z"/>
   <path class="fil3" d="M226.61 137.83c-2.03,0.85 -0.69,3.69 1.2,2.91 1.87,-0.77 0.78,-3.74 -1.2,-2.91z"/>
   <path class="fil3" d="M162.36 117.02c-1.9,0.78 -0.72,3.81 1.34,2.88 1.68,-0.76 0.67,-3.71 -1.34,-2.88z"/>
   <path class="fil3" d="M66.73 144.66c-2.03,0.8 -0.94,3.61 1,2.99 1.96,-0.62 0.98,-3.77 -1,-2.99z"/>
   <path class="fil3" d="M209.35 120.12c-2.36,0.54 -1.27,3.71 0.75,3.05 0.71,-0.23 1.31,-1.07 1.06,-1.93 -0.2,-0.67 -0.98,-1.31 -1.8,-1.12z"/>
   <path class="fil3" d="M122.74 114.38c-2.1,0.83 -0.84,3.62 0.99,2.98 2.05,-0.71 0.93,-3.74 -0.99,-2.98z"/>
   <path class="fil3" d="M158.33 116.37c-1.3,1.17 0.03,3.33 1.67,2.64 2.31,-0.97 0.13,-4.26 -1.67,-2.64z"/>
   <path class="fil3" d="M64.12 147.48c-2.08,1.02 -0.47,3.64 1.27,2.86 1.79,-0.8 0.71,-3.84 -1.27,-2.86z"/>
   <path class="fil3" d="M211.98 122.49c-2.12,0.94 -0.65,3.62 1.07,2.94 2.02,-0.8 0.81,-3.78 -1.07,-2.94z"/>
   <path class="fil3" d="M49.04 171.07c-2.66,1 0.16,4.59 1.85,2.32 0.27,-0.37 0.34,-0.87 0.18,-1.39 -0.22,-0.69 -1.11,-1.27 -2.02,-0.93z"/>
   <path class="fil3" d="M145.81 95.27c-2.14,0.84 -0.73,3.68 1.17,2.91 0.61,-0.25 1.2,-1.18 0.82,-2.11 -0.25,-0.6 -1.09,-1.16 -1.99,-0.8z"/>
   <path class="fil3" d="M50.74 167.73c-0.52,0.18 -0.6,0.17 -0.91,0.69 -0.77,1.27 0.53,2.76 1.88,2.31 1.78,-0.6 1.06,-3.69 -0.98,-2.99z"/>
   <path class="fil3" d="M126.52 113.96c-2.04,0.6 -1.27,3.56 0.88,3.02 1.79,-0.45 1.16,-3.61 -0.88,-3.02z"/>
   <path class="fil2" d="M130.68 155.35l1.22 -0.07c0.06,-0.68 -1.78,-2.68 -2.31,-3.13 0.1,0.49 0.74,1.64 1.1,3.2z"/>
   <g>
    <path class="fil4" d="M212.66 210.5c-0.01,17.9 -6.16,34.7 -16.96,47.54 -1.87,2.22 -10.84,10.98 -13.12,12.49l-2.31 -4.05 2.85 -2.31c0.82,-0.87 1.53,-1.27 2.71,-2.45 1.32,-1.32 5.25,-5.19 6.28,-6.69l1.74 -2.17c0.23,-0.33 0.33,-0.49 0.59,-0.81l2.12 -3.04c0.37,-0.6 0.65,-1.08 1.02,-1.65 6.75,-10.4 10.44,-24.3 10.43,-36.72 -0.01,-14.14 -3.86,-25.83 -10.73,-37.27l-4.74 -6.57c-0.16,0.2 -0.25,0.78 -0.33,1.06 -0.09,0.39 -0.2,0.74 -0.29,1.11 -0.2,0.78 -0.39,1.44 -0.61,2.18 -0.42,1.41 -0.93,2.79 -1.45,4.13 -0.54,1.39 -1.09,2.61 -1.71,3.88 -0.34,0.68 -1.45,3.04 -2.03,3.63 -0.14,-0.12 -0.11,-0.06 -0.25,-0.24l-0.51 -0.9c-0.22,-0.36 -0.46,-0.72 -0.7,-1.11l-3.13 -4.4c-0.28,-0.31 -0.51,-0.63 -0.81,-1.01 -1.31,-1.61 -1.03,-0.17 0.8,-5.26 2.27,-6.34 2.61,-11.35 2.5,-18.05 0.74,0.28 2.37,1.95 3.04,2.45 0.34,0.25 0.36,0.32 0.66,0.59 3.61,3.28 6.36,5.98 9.23,9.91l1.76 2.28c1.75,2.2 3.83,5.91 5.24,8.45 5.19,9.36 8.72,22.19 8.71,34.99z"/>
    <path class="fil4" d="M205.42 210.22c-0.09,14.1 -3.49,24.72 -9.78,35.47 -1.68,2.86 -3.73,5.51 -5.75,8.07 -3,3.78 -7.16,7.35 -10.86,10.47l-2.37 -4.03c0.56,-0.64 1.77,-1.53 2.5,-2.1l2.37 -2.23c1.5,-1.34 4.31,-4.43 5.45,-5.99 2.6,-3.56 4.18,-5.37 6.43,-9.76 7.92,-15.46 9.74,-32.22 4.13,-49.4 -1.2,-3.68 -2.6,-6.78 -4.37,-10.01 -0.59,-1.08 -0.58,-0.86 -0.07,-2.04l1.68 -4.21c0.78,0.5 3.57,5.98 4.24,7.39 1.25,2.64 2.31,5.37 3.25,8.34 1.9,5.98 3.19,13.25 3.14,20.04z"/>
    <path class="fil4" d="M198.16 210.36c-0.02,5.37 -0.64,10.73 -1.99,15.63 -1.21,4.4 -2.87,9.01 -4.93,12.66 -1.09,1.94 -2.1,3.72 -3.23,5.44 -2.3,3.49 -5.05,6.7 -8.01,9.58l-4.64 4.15 -2.36 -4.04 3.02 -2.69c0.61,-0.44 4,-4.09 4.78,-5.13 0.25,-0.34 0.35,-0.43 0.69,-0.85 0.38,-0.47 0.86,-1.13 1.2,-1.6 8.06,-11.09 11.66,-23.65 10.58,-37.89 -0.36,-4.78 -1.56,-9.65 -3.15,-14.07 -1.73,-4.81 -2.35,-3.24 -0.27,-6.48 0.46,-0.72 0.91,-1.56 1.24,-2.35 4.57,9.3 7.1,16.94 7.06,27.65z"/>
   </g>
  </g>
 </g>
</svg>
