<?xml version="1.0" encoding="UTF-8"?>
<svg version="1.1" viewBox="0 0 800 800" width="1280" height="1280" xmlns="http://www.w3.org/2000/svg">
<path transform="translate(380)" d="m0 0h40l25 2 32 5 30 7 36 12 24 10 26 13 20 12 15 10 19 14 13 11 20 18 13 13 7 8 12 14 15 20 10 15 12 20 12 23 10 22 9 25 7 23 6 26 5 32 2 25v40l-2 25-5 32-7 30-12 36-10 24-13 26-12 20-8 12-10 14-11 14-12 14-14 15-11 11-8 7-14 12-20 15-15 10-20 12-23 12-22 10-25 9-23 7-26 6-32 5-25 2h-40l-25-2-32-5-30-7-36-12-24-10-26-13-20-12-15-10-19-14-13-11-20-18-13-13-7-8-12-14-15-20-10-15-12-20-12-23-10-22-10-28-7-24-6-27-4-27-2-25v-40l2-25 5-32 7-30 12-36 10-24 13-26 12-20 8-12 10-14 11-14 12-14 14-15 11-11 8-7 14-12 20-15 15-10 20-12 23-12 22-10 25-9 23-7 26-6 32-5z" fill="#020000"/>
<path transform="translate(387,135)" d="m0 0h26l22 2 23 4 22 6 22 8 25 12 17 10 14 10 10 8 14 12 15 15 9 11 13 17 11 18 12 23 9 23 7 24 4 20 2 15 1 14v26l-2 22-4 23-7 25-9 24-11 22-11 18-14 19-9 10-7 8-13 13-11 9-17 13-18 11-23 12-23 9-20 6-24 5-15 2-14 1h-26l-22-2-23-4-22-6-22-8-25-12-17-10-14-10-10-8-14-12-15-15-9-11-13-17-11-18-12-23-9-23-7-24-4-20-2-15-1-13v-28l2-21 4-23 7-25 9-24 11-22 11-18 14-19 9-10 7-8 13-13 11-9 17-13 18-11 23-12 23-9 20-6 24-5 15-2z" fill="#D20916"/>
<path transform="translate(211,223)" d="m0 0h34l17 3 13 5 9 6 7 9 4 15 9 47 22 130 5 24 8 16 9 12 8 9 8 7 15 12 18 12 11-6 12-9 11-9 12-11 11-13 8-14 4-13 10-56 16-95 8-42 4-15 4-6 5-5 9-6 15-5 13-2h34l2 2-11 10-8 12-5 22-22 115-15 77-6 15-9 13-12 13-10 9-18 13-21 13-35 19-15 13h-3l-12-11-10-6-30-16-19-12-16-12-14-12-10-11-9-14-5-12-12-60-26-135-4-19-5-9-9-10-6-5z" fill="#FEB734"/>
<path transform="translate(380)" d="m0 0h40l25 2 32 5 30 7 36 12 24 10 26 13 20 12 15 10 19 14 13 11 20 18 13 13 7 8 12 14 15 20 10 15 12 20 12 23 10 22 9 25 7 23 6 26 5 32 2 25v40l-2 25-5 32-7 30-12 36-10 24-13 26-12 20-8 12-10 14-11 14-12 14-14 15-11 11-8 7-14 12-20 15-15 10-20 12-23 12-22 10-25 9-23 7-26 6-32 5-25 2h-40l-25-2-32-5-30-7-36-12-24-10-26-13-20-12-15-10-19-14-13-11-20-18-13-13-7-8-12-14-15-20-10-15-12-20-12-23-10-22-10-28-7-24-6-27-4-27-2-25v-40l2-25 5-32 7-30 12-36 10-24 13-26 12-20 8-12 10-14 11-14 12-14 14-15 11-11 8-7 14-12 20-15 15-10 20-12 23-12 22-10 25-9 23-7 26-6 32-5zm9 13-30 2-28 4-27 6-24 7-20 7-23 10-16 8-17 9-22 14-16 12-14 11-11 10-8 7-19 19-7 8-14 17-12 17-10 15-12 21-8 15-12 28-12 36-7 30-4 24-2 20-1 18v24l2 29 4 28 6 27 7 24 7 20 10 23 8 16 9 17 14 22 12 16 11 14 10 11 7 8 19 19 8 7 17 14 17 12 15 10 21 12 16 8 17 8 24 9 26 8 26 6 24 4 20 2 19 1h22l30-2 28-4 27-6 24-7 20-7 23-10 16-8 17-9 22-14 16-12 14-11 11-10 8-7 19-19 7-8 14-17 12-17 10-15 12-21 8-15 12-28 12-36 7-30 4-24 2-20 1-18v-24l-2-29-4-28-6-27-7-24-7-20-10-23-8-16-9-17-14-22-12-16-11-14-10-11-7-8-19-19-8-7-17-14-17-12-15-10-21-12-15-8-28-12-36-12-30-7-24-4-20-2-19-1z" fill="#030000"/>
<path transform="translate(395,161)" d="m0 0h8l10 3 8 7 2 5 6-1h10l8 3 5 6 2 10 2 2 5-1 4-3v7l-3 9-7 6-8 2h-3v23l-4 10-7 9-10 8-11 5-8 2h-4v5l12 2 22 6 17 7 14 8 5 5 4 9 1 3v8l-2 2h-4l-2 15-6 12-8 8-5 4 4 13 1 3-11 4-11 7-11 9-2 2v8l6 7 12 5 16 8 4 4v5l-5 5-5 2-1 2-4-1v-3h-3l-1 3-3-1-1-3-13-4-6 1-5-5v2h-4v-4l-4 2h-3l-1-4-3-2v-6l10-10-2-4-7-8-2-1-2 5-6 9-1 3 5 2 1 4-2 7-4 2-1 4-3 1-1 3-5 2-9 8-2 4-4-1-2 4-2-1-13-1-3-4 1-7 6-7 11-9 9-8 4-6 1-4-6-2-10-8-9-9-10-13 5-17 1-15h-2v10l-3 3h-7l-2-5-3-1-1-6 6-17 7-13 24-26 15-15 1-6-10-3h-16l-9 1-7-3-7-8-1-3v-9l-9-6-3-5v-6l5-7 11-7 10-5-5-6 2-6 9-8 17-9 9-1 1-8 7-8 9-4z" fill="#060202"/>
<path transform="translate(389,13)" d="m0 0h22l30 2 28 4 27 6 24 7 20 7 23 10 16 8 17 9 22 14 16 12 14 11 11 10 8 7 19 19 7 8 14 17 12 17 10 15 12 21 8 15 12 28 12 36 7 30 4 24 2 20 1 18v24l-2 29-4 28-6 27-7 24-7 20-10 23-8 16-9 17-14 22-12 16-11 14-10 11-7 8-19 19-8 7-17 14-17 12-15 10-21 12-15 8-28 12-36 12-30 7-24 4-20 2-19 1h-22l-30-2-28-4-27-6-24-7-20-7-23-10-16-8-17-9-22-14-16-12-14-11-11-10-8-7-19-19-7-8-14-17-12-17-10-15-12-21-8-15-12-28-12-36-7-30-4-24-2-20-1-18v-24l2-29 4-28 6-27 7-24 7-20 10-23 8-16 9-17 14-22 12-16 11-14 10-11 7-8 19-19 8-7 17-14 17-12 15-10 21-12 16-8 17-8 24-9 26-8 26-6 24-4 20-2zm-15 8-28 3-28 5-30 8-26 9-25 11-20 10-20 12-19 13-13 10-11 9-12 11-10 9-8 8-7 8-9 10-13 17-10 14-12 19-10 18-13 27-9 24-8 26-6 26-4 25-2 21v52l3 28 5 28 8 30 9 26 11 25 10 20 12 20 13 19 10 13 9 11 11 12 9 10 8 8 8 7 10 9 17 13 14 10 19 12 18 10 27 13 24 9 26 8 26 6 25 4 21 2h52l28-3 28-5 30-8 26-9 25-11 20-10 20-12 19-13 13-10 11-9 12-11 10-9 8-8 7-8 9-10 13-17 10-14 12-19 10-18 13-27 9-24 8-26 6-26 4-25 2-21v-52l-3-28-5-28-8-30-9-26-11-25-10-20-12-20-13-19-10-13-9-11-11-12-9-10-8-8-8-7-10-9-17-13-14-10-19-12-18-10-27-13-24-9-26-8-26-6-25-4-21-2z" fill="#FEB734"/>
<path transform="translate(395,126)" d="m0 0 29 1 23 3 27 6 24 8 25 11 18 10 18 12 13 10 15 13 17 17 9 11 13 17 13 21 8 15 10 24 7 21 6 27 3 23 1 29-2 29-5 28-7 25-10 25-8 16-10 18-12 17-8 10-12 14-17 17-11 9-17 13-21 13-15 8-24 10-21 7-27 6-23 3-29 1-29-2-28-5-25-7-25-10-16-8-18-10-17-12-10-8-14-12-17-17-9-11-13-17-13-21-8-15-10-24-7-21-6-27-3-23-1-29 2-29 5-28 7-25 10-25 8-16 10-18 12-17 8-10 12-14 17-17 11-9 17-13 21-13 15-8 24-10 21-7 27-6 23-3zm-8 9-22 2-23 4-22 6-22 8-25 12-17 10-14 10-10 8-14 12-15 15-9 11-13 17-11 18-12 23-9 23-7 24-4 20-2 15-1 13v28l2 21 4 23 7 25 9 24 11 22 11 18 14 19 9 10 7 8 13 13 11 9 17 13 18 11 23 12 23 9 20 6 24 5 15 2 14 1h26l22-2 23-4 22-6 22-8 25-12 17-10 14-10 10-8 14-12 15-15 9-11 13-17 11-18 12-23 9-23 7-24 4-20 2-15 1-14v-26l-2-22-4-23-7-25-9-24-11-22-11-18-14-19-9-10-7-8-13-13-11-9-17-13-18-11-23-12-23-9-20-6-24-5-15-2-14-1z" fill="#040000"/>
<path transform="translate(387,119)" d="m0 0h26l23 2 23 4 20 5 21 7 23 10 19 10 24 16 16 13 10 9 7 6 7 8 11 12 10 13 14 21 12 22 10 23 8 24 6 27 3 22 1 13v28l-3 29-5 25-7 24-11 27-12 23-14 21-10 13-11 13-23 23-14 11-12 9-19 12-23 12-28 11-25 7-21 4-16 2-14 1h-26l-23-2-23-4-20-5-21-7-23-10-19-10-21-14-13-10-13-11-23-23-11-14-11-15-11-18-11-21-11-28-7-25-4-21-2-16-1-14v-26l2-23 4-23 5-20 7-21 10-23 10-19 14-21 10-13 11-13 23-23 14-11 15-11 18-11 21-11 28-11 25-7 21-4 16-2zm8 7-29 2-28 5-25 7-25 10-16 8-18 10-17 12-10 8-14 12-17 17-9 11-13 17-13 21-8 15-10 24-7 21-6 27-3 23-1 29 2 29 5 28 7 25 10 25 8 16 10 18 12 17 8 10 12 14 17 17 11 9 17 13 21 13 15 8 24 10 21 7 27 6 23 3 29 1 29-2 28-5 25-7 25-10 16-8 18-10 17-12 10-8 14-12 17-17 9-11 13-17 13-21 8-15 10-24 7-21 6-27 3-23 1-29-2-29-5-28-7-25-10-25-8-16-10-18-12-17-8-10-12-14-17-17-11-9-17-13-21-13-15-8-24-10-21-7-27-6-23-3z" fill="#FEB734"/>
<path transform="translate(333,584)" d="m0 0h136v70h-136z" fill="#010000"/>
<path transform="translate(414,200)" d="m0 0h2l5 5 5 4 8 4 8 2v21l-4 11-4 6-5 5-9 7-13 5-12 2h-9l-12-2-6-2h-28l-6-4-4-6-1-7 3-7 5-4 9-3 10 2 6 4 5-2 6-7 1-7-3-6-7-6v-5l5-2 18 5-3 5 6-4 13-4 10-9z" fill="#FBFBFB"/>
<path transform="translate(132,556)" d="m0 0h8l9 3 6 4 8 8 5 8 3 9v11l-4 10-7 9-13 9-8 3h-15l-12-6-9-10-6-12-1-4v-10l3-9 8-10 11-8 9-4z" fill="#FEB734"/>
<path transform="translate(520,56)" d="m0 0 5 1 17 8 2 7 5 37 1 3 17-36 6 2 13 6-2 6-16 34-11 24-6-2-15-8-7-41-1-4-15 33-4 1-16-8 5-13 13-29z" fill="#FEB734"/>
<path transform="translate(672,515)" d="m0 0 5 2 16 9 25 15 13 8 1 3-10 16-7 2-40 3 22 13 10 6-1 4-8 14-5-1-24-14-27-15-5-3 2-5 10-16 8-1 31-1 8-1-29-17-5-3 2-5 7-12z" fill="#FEB734"/>
<path transform="translate(459,687)" d="m0 0h11l6 3 7 8 5 13 3 17-1 13-4 8-6 5-13 4-18 4h-3l-4-15-11-51v-3z" fill="#FEB734"/>
<path transform="translate(443,39)" d="m0 0 13 1 17 3 2 13 6 56v4l-21-3-2-7-1-9-18-3-3 9-2 5-14-2-7-2 2-6 16-33z" fill="#FEB734"/>
<path transform="translate(358,36)" d="m0 0h17l10 4 6 7 1 3v13l-4 8-7 5 13 16 8 10-2 2-15 1-7-7-7-8-5-6 1 22-2 1-16 1-5-48-2-22z" fill="#FEB734"/>
<path transform="translate(185,604)" d="m0 0 4 2 14 12 6 7 4 9v9l-4 7-7 6-4 2h-11l-3-1-3 25-2 9-8-6-5-5 2-28-5 5-10 11-8-6-5-5 2-5 13-14 9-11 13-14 7-8z" fill="#FEB734"/>
<path transform="translate(234,74)" d="m0 0h10l8 5 6 8 5 12v11l-3 6-5 4-11 6 2 6 6 12-8 5-9 4-14-27-18-33v-3l27-14z" fill="#FEB734"/>
<path transform="translate(119,497)" d="m0 0h2l14 31v10l-4 7-9 7-11 4h-13l-7-4-8-16-5 1-11 5-4-1-6-13v-3l37-17z" fill="#FEB734"/>
<path transform="translate(631,580)" d="m0 0 5 2 14 13 8 7 10 9 6 8 2 5v11l-4 8-7 7-5 3-4 1h-8l-10-4-13-11-11-10-8-7-6-5 2-4 9-10 4 1 15 14 11 9 7 6 6 1 3-3-2-6-8-8-11-9-15-14 2-5z" fill="#FEB734"/>
<path transform="translate(124,161)" d="m0 0 5 2 9 7-6 9-8 10 5 5h3l13-16 7 4 6 5-2 5-10 13 1 3 4 3h2l12-16 3-2 12 9-2 5-11 14-10 13-3 3-16-12-15-12-24-18 2-5 13-16 9-12z" fill="#FEB734"/>
<path transform="translate(669,155)" d="m0 0 4 2 18 22 6 8-5 5-8 6-12-14-2-3-4 1-4 4 8 10 5 6v3l-11 9-4-2-8-10-3-4-5 2-2 4 11 13 3 5-9 8-5 2-8-10-18-22 5-6 10-8 11-9 17-14z" fill="#FEB734"/>
<path transform="translate(530,663)" d="m0 0h2l6 14v2l-21 9 3 8 9-3 12-5 6 12 1 4-19 8h-2l3 8 6-1 17-7 6 12v4l-37 16-3-1-23-54-3-7v-3z" fill="#FEB734"/>
<path transform="translate(307,46)" d="m0 0h4l4 12v4l-21 7 1 6 1 2 9-2 13-4 5 14-1 3-18 6h-2l2 10 19-7 5-1 5 14v2l-38 13h-3l-14-41-8-25 10-4z" fill="#FEB734"/>
<path transform="translate(355,692)" d="m0 0 42 2 1 2-1 15h-13l-12-1v10l23 1v12l-1 5h-10l-13-1v10h14l10 1v15l-1 2-41-2-1-1v-19l2-39z" fill="#FEB734"/>
<path transform="translate(606,114)" d="m0 0h14l11 4 11 8 8 9-6 9-4 5-3-1-7-8-9-4h-10l-6 4-4 7v11l4 7 6 5 9 4-6 9-5 6-10-4-9-7-8-9-4-9-1-5v-8l3-10 6-10 7-7 9-5z" fill="#FEB734"/>
<path transform="translate(291,676)" d="m0 0 7 1 12 3 1 2-1 20v19l18-35 8 1 11 3-2 5-15 27-16 28-2 3-9-1-13-4v-31z" fill="#FEB734"/>
<path transform="translate(691,444)" d="m0 0 9 1 9 2-5 11-1 3v7l5 1h2l2-5 6-9 5-4 3-1h11l11 4 7 8 2 7-1 12-5 13-2 4-9-1-9-2 6-12 1-3v-9l-4-1-4 4-6 9-6 5-2 1h-13l-8-3-6-4-3-5-1-4v-12l5-15z" fill="#FEB734"/>
<path transform="translate(88,450)" d="m0 0h13l8 5 5 8 3 10v13l-14 4-3-1v-11l-3-8-4-1-2 2-2 17-4 7-6 4-11 3-10-1-8-5-4-6-4-16v-11l14-4h3v10l2 10 2 3h5l1-2 2-16 3-6 6-5z" fill="#FEB734"/>
<path transform="translate(175,113)" d="m0 0 4 2 9 10v2l-9 4-7 6v6l7-1 10-4h10l7 4 8 9 3 10-2 9-4 6-7 7-12 7-4-1-9-10v-3l10-4 7-6 1-7-8 1-10 4h-9l-8-5-7-8-3-8 1-9 6-9 9-8z" fill="#FEB734"/>
<path transform="translate(591,621)" d="m0 0 4 2 7 9-2 4-9 7 3 5 14 17 13 16 2 5-10 9-4-2-11-13-11-14-9-11-4 2-9 7-4-4-6-8 1-3 10-8 16-13z" fill="#FEB734"/>
<path transform="translate(223,636)" d="m0 0 5 2 27 16 10 6-7 12-3 2-12-7-4 5-13 22-11 18-5-2-9-5 2-6 17-28 8-14-5-2-8-5 2-5z" fill="#FEB734"/>
<path transform="translate(333,584)" d="m0 0h136v70h-136zm4 4v62h128v-62z"/>
<path transform="translate(680,490)" d="m0 0 17 6 47 18 2 2-6 15-9-2-47-18-10-4 1-5z" fill="#FEB734"/>
<path transform="translate(269,665)" d="m0 0 5 1 11 5-1 5-19 39-9 19-2 1-14-7 1-5 19-39z" fill="#FEB734"/>
<path transform="translate(133,573)" d="m0 0 7 1 5 3 7 8 2 10-3 8-9 8-5 2h-9l-7-4-6-8-2-9 3-8 7-7z" fill="#030000"/>
<path transform="translate(377,281)" d="m0 0 3 3 14 31-2 10v13l3 10 6 9 3 25 4 15 4 10-5 5-4-2-8-10h-2l-10 16-5-2 8-16 3-12 1-7v-29l-4-26-7-27-4-12z" fill="#FEB734"/>
<path transform="translate(372,286)" d="m0 0 3 3 8 28 4 20 2 17v22l-3 17-5 13-5 7-6-2 8-20 2-10v-31l-4-22-8-26-3-9z" fill="#D20916"/>
<path transform="translate(391,164)" d="m0 0h15l9 4 6 7 1 2v6l-6 7-2 1h-13l-16-3-8-4-2-2 1-7 6-7z" fill="#D20916"/>
<path transform="translate(362,296)" d="m0 0h2l7 20 5 19 3 19v24l-3 14-5 12-3 5-7-4-4-3 1-4 7-15 4-16 1-10v-10l-2-18-5-19-3-11z" fill="#FEB734"/>
<path transform="translate(382,598)" d="m0 0 8 1 5 3 3 4 1 3v8l-4 10-9 13h-10l2-4 6-9h-8l-5-4-2-5v-10l4-6 5-3z" fill="#FEB734"/>
<path transform="translate(437,598)" d="m0 0 9 1 6 5 2 4v10l-4 9-9 13h-10l4-7 4-5-9-2-4-4-2-5v-7l4-8 5-3z" fill="#FEB734"/>
<path transform="translate(337,588)" d="m0 0h128v62h-128zm2 2v58h124v-58z" fill="#FEB734"/>
<path transform="translate(357,302)" d="m0 0 3 3 6 21 2 13v25l-4 18-8 16h-3l-2-2 1-5 5-12 3-17v-15l-3-19-6-18 2-4z" fill="#D20916"/>
<path transform="translate(418,332)" d="m0 0h17l4 9 1 4-5 10h-20l-5-10 1-4z" fill="#FEFEFE"/>
<path transform="translate(421,307)" d="m0 0h19l4 10-2 4-7 8h-16l-5-15z" fill="#FEFEFE"/>
<path transform="translate(348,311)" d="m0 0h2l5 15 3 15v27l-4 15-4 8h-3l-2-2 1-6 3-9 2-14v-11l-2-17-3-14v-5z" fill="#FEB734"/>
<path transform="translate(456,704)" d="m0 0h6l5 6 4 15v11l-4 4-7 1-7-31v-5z" fill="#050000"/>
<path transform="translate(381,273)" d="m0 0 16 1 1 5 2 1-4 28-2 3-14-30v-7z" fill="#FEFEFE"/>
<path transform="translate(348,600)" d="m0 0h14v40h-9l-1-31-4-1z" fill="#FEB734"/>
<path transform="translate(403,600)" d="m0 0h14v40h-9v-32h-5z" fill="#FEB734"/>
<path transform="translate(453,343)" d="m0 0h6l2 2-1 6-8 9-9 5h-3l-2-5v-6l5-9 1-1z" fill="#FEFEFE"/>
<path transform="translate(343,317)" d="m0 0 2 3 4 22v24l-4 16-3 3-3-4 1-5 3-10 1-7v-10l1-1v-7l-7-16 1-4z" fill="#D20916"/>
<path transform="translate(455,300)" d="m0 0 5 1 6 4 4 5 3 10v5h-3l-1-6h-1l-1 7h-3l-2-7v-4h-3l-1 4h-4v-18z" fill="#FEFEFE"/>
<path transform="translate(336,327)" d="m0 0 2 1 6 14v5l-6-1v12h-3l-1-7-2-1 1 3v7l-2-1v-9h-3v5h-1v-7l6-16z" fill="#FEFEFE"/>
<path transform="translate(391,223)" d="m0 0h6l5 4 2 4-1 7-4 3h-6l-5-4-2-5 1-6z" fill="#E0DDDD"/>
<path transform="translate(418,217)" d="m0 0h7l4 4 1 6-3 7-4 2-5-1-4-4-1-7 3-5z" fill="#E1E0E0"/>
<path transform="translate(403,360)" d="m0 0 6 4 5 25 4 11v2l-5 3-6-16-3-16z" fill="#D20916"/>
<path transform="translate(343,244)" d="m0 0h8l6 3 2 3-5 6-2 1h-10l-6-5 1-4z" fill="#0E0001"/>
<path transform="translate(232,93)" d="m0 0h6l5 5 1 7-5 5-5 2-7-13 1-4z" fill="#060000"/>
<path transform="translate(112,520)" d="m0 0 3 3 1 2v7l-4 4-9 1-5-6-1-4z" fill="#070000"/>
<path transform="translate(412,366)" d="m0 0 7 3 5 21 1 6-5 3-4-8-4-18z" fill="#FEB734"/>
<path transform="translate(188,627)" d="m0 0 4 2 4 5-1 6-5 4h-5l-6-5 2-4z" fill="#050000"/>
<path transform="translate(365,51)" d="m0 0h6l4 4v9l-2 2-10 1-1-6v-9z" fill="#090000"/>
<path transform="translate(400,339)" d="m0 0 7 5 6 12-1 3-4 1-6-5-5-8-1-5z" fill="#FEFEFE"/>
<path transform="translate(415,299)" d="m0 0h3l1 7-10 8-7 3-4-1 3-6 7-7z" fill="#FEFEFE"/>
<path transform="translate(455,56)" d="m0 0h1l2 18v5h-7l-5-1 1-5z" fill="#080000"/>
<path transform="translate(430,370)" d="m0 0h8l4 14-6 4h-2l-4-13z" fill="#FEB734"/>
<path transform="translate(422,370)" d="m0 0h5l5 18-2 4h-4l-4-15z" fill="#D20916"/>
<path transform="translate(438,606)" d="m0 0 5 1 3 5-2 6-3 2-5-1-2-2v-8z" fill="#0E0001"/>
<path transform="translate(383,606)" d="m0 0 5 1 2 3v6l-4 4-5-1-3-4 1-6z" fill="#0B0001"/>
<path transform="translate(402,281)" d="m0 0 5 1-3 21-5 6-1-4z" fill="#FEB734"/>
<path transform="translate(391,223)" d="m0 0h6l5 4 2 4-1 7-4 3h-6l-5-4-2-5 1-6zm1 2-3 3v6l4 4 5 1 3-2v-7l-5-5z" fill="#100001"/>
<path transform="translate(418,217)" d="m0 0h7l4 4 1 6-3 7-4 2-5-1-4-4-1-7 3-5zm1 2-3 3v8l3 3h5l3-4v-6l-3-4z" fill="#0B0001"/>
<path transform="translate(444,300)" d="m0 0 6 2 1 1 1 14h-5l-4-8-1-5z" fill="#FEFEFE"/>
<path transform="translate(345,246)" d="m0 0 8 1 3 3-4 4-2 1h-6l-5-3 2-4z" fill="#FEFEFE"/>
<path transform="translate(416,284)" d="m0 0 10 2 1 1v6l-12 3v-8z" fill="#FEB734"/>
<path transform="translate(397,247)" d="m0 0h2l-1 7 2 3h7l5-4 2-2 4 5-2 2-3-2-4 4-7 1-5-3-2-2v-3l-5 1v-2l6-4z" fill="#0D0001"/>
<path transform="translate(396,319)" d="m0 0 3 2v15l-4 3-1-2v-11z" fill="#FEFEFE"/>
<path transform="translate(409,282)" d="m0 0 5 1-2 15-5 2 1-13z" fill="#D20916"/>
<path transform="translate(444,367)" d="m0 0 2 2 3 12-5 2-4-13 1-2z" fill="#D20916"/>
<path transform="translate(461,325)" d="m0 0 4 4v9l-2 5-2-1z" fill="#FEFEFE"/>
<path transform="translate(439,291)" d="m0 0 6 2 9 5-1 2-6-2-8-4z" fill="#FEB734"/>
<path transform="translate(414,407)" d="m0 0h1v7l-4 2h-3l1-4z" fill="#FEFEFE"/>
<path transform="translate(430,425)" d="m0 0 3 1-2 4-4 4-3-1 3-5z" fill="#FEFEFE"/>
<path transform="translate(430,288)" d="m0 0 6 1v5l-7-1z" fill="#D20916"/>
</svg>
