<svg xmlns="http://www.w3.org/2000/svg" xmlns:xlink="http://www.w3.org/1999/xlink" id="Calque_1" x="0px" y="0px" viewBox="0 0 499.73 610.55" style="enable-background:new 0 0 499.73 610.55;" xml:space="preserve"><style type="text/css">	.st0{fill:url(#SVGID_1_);}	.st1{fill:url(#SVGID_2_);}	.st2{fill:#FFFFFF;}	.st3{fill:#E42C32;}	.st4{fill:#CDCCCC;}	.st5{opacity:0.71;}	.st6{opacity:0.64;}	.st7{opacity:0.72;}	.st8{stroke:#000000;stroke-miterlimit:10;}	.st9{stroke:#000000;stroke-width:2;stroke-miterlimit:10;}	.st10{fill:url(#SVGID_3_);}	.st11{fill:url(#SVGID_4_);}	.st12{fill:url(#SVGID_5_);}	.st13{fill:url(#SVGID_6_);}	.st14{fill:url(#SVGID_7_);}	.st15{fill:url(#SVGID_8_);}	.st16{fill:url(#SVGID_9_);}	.st17{fill:url(#SVGID_10_);}	.st18{fill:url(#SVGID_11_);}	.st19{fill:url(#SVGID_12_);}	.st20{fill:url(#SVGID_13_);}	.st21{fill:url(#SVGID_14_);}	.st22{fill:url(#SVGID_15_);}	.st23{fill:url(#SVGID_16_);}	.st24{fill:url(#SVGID_17_);}	.st25{fill:url(#SVGID_18_);}	.st26{fill:url(#SVGID_19_);}	.st27{fill:url(#SVGID_20_);}	.st28{fill:url(#SVGID_21_);}	.st29{fill:url(#SVGID_22_);}	.st30{fill:url(#SVGID_23_);}	.st31{fill:url(#SVGID_24_);}	.st32{fill:url(#SVGID_25_);}	.st33{fill:#FFFFFF;stroke:#FFFFFF;stroke-miterlimit:10;}	.st34{fill:#FFFFFF;stroke:#FFFFFF;stroke-width:2;stroke-miterlimit:10;}	.st35{clip-path:url(#SVGID_27_);fill:#BE1823;}	.st36{clip-path:url(#SVGID_27_);fill:#BE1824;}	.st37{clip-path:url(#SVGID_27_);fill:#BD1824;}	.st38{clip-path:url(#SVGID_27_);fill:#BC1824;}	.st39{clip-path:url(#SVGID_27_);fill:#BB1825;}	.st40{clip-path:url(#SVGID_27_);fill:#BA1825;}	.st41{clip-path:url(#SVGID_27_);fill:#B91826;}	.st42{clip-path:url(#SVGID_27_);fill:#B81826;}	.st43{clip-path:url(#SVGID_27_);fill:#B71827;}	.st44{clip-path:url(#SVGID_27_);fill:#B61827;}	.st45{clip-path:url(#SVGID_27_);fill:#B51828;}	.st46{clip-path:url(#SVGID_27_);fill:#B51928;}	.st47{clip-path:url(#SVGID_27_);fill:#B41928;}	.st48{clip-path:url(#SVGID_27_);fill:#B31929;}	.st49{clip-path:url(#SVGID_27_);fill:#B21929;}	.st50{clip-path:url(#SVGID_27_);fill:#B1192A;}	.st51{clip-path:url(#SVGID_27_);fill:#B0192A;}	.st52{clip-path:url(#SVGID_27_);fill:#B0192B;}	.st53{clip-path:url(#SVGID_27_);fill:#AF192B;}	.st54{clip-path:url(#SVGID_27_);fill:#AE192B;}	.st55{clip-path:url(#SVGID_27_);fill:#AE192C;}	.st56{clip-path:url(#SVGID_27_);fill:#AD192C;}	.st57{clip-path:url(#SVGID_27_);fill:#AC192C;}	.st58{clip-path:url(#SVGID_27_);fill:#AC192D;}	.st59{clip-path:url(#SVGID_27_);fill:#AB192D;}	.st60{clip-path:url(#SVGID_27_);fill:#AA192D;}	.st61{clip-path:url(#SVGID_27_);fill:#AA192E;}	.st62{clip-path:url(#SVGID_27_);fill:#A9192E;}	.st63{clip-path:url(#SVGID_27_);fill:#A8192F;}	.st64{clip-path:url(#SVGID_27_);fill:#A7192F;}	.st65{clip-path:url(#SVGID_27_);fill:#A61930;}	.st66{clip-path:url(#SVGID_27_);fill:#A51930;}	.st67{clip-path:url(#SVGID_27_);fill:#A41930;}	.st68{clip-path:url(#SVGID_27_);fill:#A41931;}	.st69{clip-path:url(#SVGID_27_);fill:#A31931;}	.st70{clip-path:url(#SVGID_27_);fill:#A21931;}	.st71{clip-path:url(#SVGID_27_);fill:#A21932;}	.st72{clip-path:url(#SVGID_27_);fill:#A11932;}	.st73{clip-path:url(#SVGID_27_);fill:#A01932;}	.st74{clip-path:url(#SVGID_27_);fill:#9F1933;}	.st75{clip-path:url(#SVGID_27_);fill:#9E1933;}	.st76{clip-path:url(#SVGID_27_);fill:#9D1833;}	.st77{clip-path:url(#SVGID_27_);fill:#9D1834;}	.st78{clip-path:url(#SVGID_27_);fill:#9C1834;}	.st79{clip-path:url(#SVGID_27_);fill:#9B1834;}	.st80{clip-path:url(#SVGID_27_);fill:#9A1835;}	.st81{clip-path:url(#SVGID_27_);fill:#991835;}	.st82{clip-path:url(#SVGID_27_);fill:#981835;}	.st83{clip-path:url(#SVGID_27_);fill:#981836;}	.st84{clip-path:url(#SVGID_27_);fill:#971836;}	.st85{clip-path:url(#SVGID_27_);fill:#961836;}	.st86{clip-path:url(#SVGID_27_);fill:#951836;}	.st87{clip-path:url(#SVGID_27_);fill:#941837;}	.st88{clip-path:url(#SVGID_29_);fill:#941837;}	.st89{clip-path:url(#SVGID_29_);fill:#951836;}	.st90{clip-path:url(#SVGID_29_);fill:#961836;}	.st91{clip-path:url(#SVGID_29_);fill:#971836;}	.st92{clip-path:url(#SVGID_29_);fill:#981836;}	.st93{clip-path:url(#SVGID_29_);fill:#981835;}	.st94{clip-path:url(#SVGID_29_);fill:#991835;}	.st95{clip-path:url(#SVGID_29_);fill:#9A1835;}	.st96{clip-path:url(#SVGID_29_);fill:#9B1834;}	.st97{clip-path:url(#SVGID_29_);fill:#9C1834;}	.st98{clip-path:url(#SVGID_29_);fill:#9D1834;}	.st99{clip-path:url(#SVGID_29_);fill:#9D1833;}	.st100{clip-path:url(#SVGID_29_);fill:#9E1933;}	.st101{clip-path:url(#SVGID_29_);fill:#9F1933;}	.st102{clip-path:url(#SVGID_29_);fill:#A01932;}	.st103{clip-path:url(#SVGID_29_);fill:#A11932;}	.st104{clip-path:url(#SVGID_29_);fill:#A21932;}	.st105{clip-path:url(#SVGID_29_);fill:#A21931;}	.st106{clip-path:url(#SVGID_29_);fill:#A31931;}	.st107{clip-path:url(#SVGID_29_);fill:#A41931;}	.st108{clip-path:url(#SVGID_29_);fill:#A41930;}	.st109{clip-path:url(#SVGID_29_);fill:#A51930;}	.st110{clip-path:url(#SVGID_29_);fill:#A61930;}	.st111{clip-path:url(#SVGID_29_);fill:#A7192F;}	.st112{clip-path:url(#SVGID_29_);fill:#A8192F;}	.st113{clip-path:url(#SVGID_29_);fill:#A9192E;}	.st114{clip-path:url(#SVGID_29_);fill:#AA192E;}	.st115{clip-path:url(#SVGID_29_);fill:#AA192D;}	.st116{clip-path:url(#SVGID_29_);fill:#AB192D;}	.st117{clip-path:url(#SVGID_29_);fill:#AC192D;}	.st118{clip-path:url(#SVGID_29_);fill:#AC192C;}	.st119{clip-path:url(#SVGID_29_);fill:#AD192C;}	.st120{clip-path:url(#SVGID_29_);fill:#AE192C;}	.st121{clip-path:url(#SVGID_29_);fill:#AE192B;}	.st122{clip-path:url(#SVGID_29_);fill:#AF192B;}	.st123{clip-path:url(#SVGID_29_);fill:#B0192B;}	.st124{clip-path:url(#SVGID_29_);fill:#B0192A;}	.st125{clip-path:url(#SVGID_29_);fill:#B1192A;}	.st126{clip-path:url(#SVGID_29_);fill:#B21929;}	.st127{clip-path:url(#SVGID_29_);fill:#B31929;}	.st128{clip-path:url(#SVGID_29_);fill:#B41928;}	.st129{clip-path:url(#SVGID_29_);fill:#B51928;}	.st130{clip-path:url(#SVGID_29_);fill:#B51828;}	.st131{clip-path:url(#SVGID_29_);fill:#B61827;}	.st132{clip-path:url(#SVGID_29_);fill:#B71827;}	.st133{clip-path:url(#SVGID_29_);fill:#B81826;}	.st134{clip-path:url(#SVGID_29_);fill:#B91826;}	.st135{clip-path:url(#SVGID_29_);fill:#BA1825;}	.st136{clip-path:url(#SVGID_29_);fill:#BB1825;}	.st137{clip-path:url(#SVGID_29_);fill:#BC1824;}	.st138{clip-path:url(#SVGID_29_);fill:#BD1824;}	.st139{clip-path:url(#SVGID_29_);fill:#BE1824;}	.st140{clip-path:url(#SVGID_29_);fill:#BE1823;}	.st141{fill:url(#SVGID_30_);}	.st142{clip-path:url(#SVGID_32_);fill:#BE1823;}	.st143{clip-path:url(#SVGID_32_);fill:#BE1824;}	.st144{clip-path:url(#SVGID_32_);fill:#BD1824;}	.st145{clip-path:url(#SVGID_32_);fill:#BC1824;}	.st146{clip-path:url(#SVGID_32_);fill:#BB1825;}	.st147{clip-path:url(#SVGID_32_);fill:#BA1825;}	.st148{clip-path:url(#SVGID_32_);fill:#B91826;}	.st149{clip-path:url(#SVGID_32_);fill:#B81826;}	.st150{clip-path:url(#SVGID_32_);fill:#B71827;}	.st151{clip-path:url(#SVGID_32_);fill:#B61827;}	.st152{clip-path:url(#SVGID_32_);fill:#B51828;}	.st153{clip-path:url(#SVGID_32_);fill:#B51928;}	.st154{clip-path:url(#SVGID_32_);fill:#B41928;}	.st155{clip-path:url(#SVGID_32_);fill:#B31929;}	.st156{clip-path:url(#SVGID_32_);fill:#B21929;}	.st157{clip-path:url(#SVGID_32_);fill:#B1192A;}	.st158{clip-path:url(#SVGID_32_);fill:#B0192A;}	.st159{clip-path:url(#SVGID_32_);fill:#B0192B;}	.st160{clip-path:url(#SVGID_32_);fill:#AF192B;}	.st161{clip-path:url(#SVGID_32_);fill:#AE192B;}	.st162{clip-path:url(#SVGID_32_);fill:#AE192C;}	.st163{clip-path:url(#SVGID_32_);fill:#AD192C;}	.st164{clip-path:url(#SVGID_32_);fill:#AC192C;}	.st165{clip-path:url(#SVGID_32_);fill:#AC192D;}	.st166{clip-path:url(#SVGID_32_);fill:#AB192D;}	.st167{clip-path:url(#SVGID_32_);fill:#AA192D;}	.st168{clip-path:url(#SVGID_32_);fill:#AA192E;}	.st169{clip-path:url(#SVGID_32_);fill:#A9192E;}	.st170{clip-path:url(#SVGID_32_);fill:#A8192F;}	.st171{clip-path:url(#SVGID_32_);fill:#A7192F;}	.st172{clip-path:url(#SVGID_32_);fill:#A61930;}	.st173{clip-path:url(#SVGID_32_);fill:#A51930;}	.st174{clip-path:url(#SVGID_32_);fill:#A41930;}	.st175{clip-path:url(#SVGID_32_);fill:#A41931;}	.st176{clip-path:url(#SVGID_32_);fill:#A31931;}	.st177{clip-path:url(#SVGID_32_);fill:#A21931;}	.st178{clip-path:url(#SVGID_32_);fill:#A21932;}	.st179{clip-path:url(#SVGID_32_);fill:#A11932;}	.st180{clip-path:url(#SVGID_32_);fill:#A01932;}	.st181{clip-path:url(#SVGID_32_);fill:#9F1933;}	.st182{clip-path:url(#SVGID_32_);fill:#9E1933;}	.st183{clip-path:url(#SVGID_32_);fill:#9D1833;}	.st184{clip-path:url(#SVGID_32_);fill:#9D1834;}	.st185{clip-path:url(#SVGID_32_);fill:#9C1834;}	.st186{clip-path:url(#SVGID_32_);fill:#9B1834;}	.st187{clip-path:url(#SVGID_32_);fill:#9A1835;}	.st188{clip-path:url(#SVGID_32_);fill:#991835;}	.st189{clip-path:url(#SVGID_32_);fill:#981835;}	.st190{clip-path:url(#SVGID_32_);fill:#981836;}	.st191{clip-path:url(#SVGID_32_);fill:#971836;}	.st192{clip-path:url(#SVGID_32_);fill:#961836;}	.st193{clip-path:url(#SVGID_32_);fill:#951836;}	.st194{clip-path:url(#SVGID_32_);fill:#941837;}	.st195{clip-path:url(#SVGID_34_);fill:#941837;}	.st196{clip-path:url(#SVGID_34_);fill:#951836;}	.st197{clip-path:url(#SVGID_34_);fill:#961836;}	.st198{clip-path:url(#SVGID_34_);fill:#971836;}	.st199{clip-path:url(#SVGID_34_);fill:#981836;}	.st200{clip-path:url(#SVGID_34_);fill:#981835;}	.st201{clip-path:url(#SVGID_34_);fill:#991835;}	.st202{clip-path:url(#SVGID_34_);fill:#9A1835;}	.st203{clip-path:url(#SVGID_34_);fill:#9B1834;}	.st204{clip-path:url(#SVGID_34_);fill:#9C1834;}	.st205{clip-path:url(#SVGID_34_);fill:#9D1834;}	.st206{clip-path:url(#SVGID_34_);fill:#9D1833;}	.st207{clip-path:url(#SVGID_34_);fill:#9E1933;}	.st208{clip-path:url(#SVGID_34_);fill:#9F1933;}	.st209{clip-path:url(#SVGID_34_);fill:#A01932;}	.st210{clip-path:url(#SVGID_34_);fill:#A11932;}	.st211{clip-path:url(#SVGID_34_);fill:#A21932;}	.st212{clip-path:url(#SVGID_34_);fill:#A21931;}	.st213{clip-path:url(#SVGID_34_);fill:#A31931;}	.st214{clip-path:url(#SVGID_34_);fill:#A41931;}	.st215{clip-path:url(#SVGID_34_);fill:#A41930;}	.st216{clip-path:url(#SVGID_34_);fill:#A51930;}	.st217{clip-path:url(#SVGID_34_);fill:#A61930;}	.st218{clip-path:url(#SVGID_34_);fill:#A7192F;}	.st219{clip-path:url(#SVGID_34_);fill:#A8192F;}	.st220{clip-path:url(#SVGID_34_);fill:#A9192E;}	.st221{clip-path:url(#SVGID_34_);fill:#AA192E;}	.st222{clip-path:url(#SVGID_34_);fill:#AA192D;}	.st223{clip-path:url(#SVGID_34_);fill:#AB192D;}	.st224{clip-path:url(#SVGID_34_);fill:#AC192D;}	.st225{clip-path:url(#SVGID_34_);fill:#AC192C;}	.st226{clip-path:url(#SVGID_34_);fill:#AD192C;}	.st227{clip-path:url(#SVGID_34_);fill:#AE192C;}	.st228{clip-path:url(#SVGID_34_);fill:#AE192B;}	.st229{clip-path:url(#SVGID_34_);fill:#AF192B;}	.st230{clip-path:url(#SVGID_34_);fill:#B0192B;}	.st231{clip-path:url(#SVGID_34_);fill:#B0192A;}	.st232{clip-path:url(#SVGID_34_);fill:#B1192A;}	.st233{clip-path:url(#SVGID_34_);fill:#B21929;}	.st234{clip-path:url(#SVGID_34_);fill:#B31929;}	.st235{clip-path:url(#SVGID_34_);fill:#B41928;}	.st236{clip-path:url(#SVGID_34_);fill:#B51928;}	.st237{clip-path:url(#SVGID_34_);fill:#B51828;}	.st238{clip-path:url(#SVGID_34_);fill:#B61827;}	.st239{clip-path:url(#SVGID_34_);fill:#B71827;}	.st240{clip-path:url(#SVGID_34_);fill:#B81826;}	.st241{clip-path:url(#SVGID_34_);fill:#B91826;}	.st242{clip-path:url(#SVGID_34_);fill:#BA1825;}	.st243{clip-path:url(#SVGID_34_);fill:#BB1825;}	.st244{clip-path:url(#SVGID_34_);fill:#BC1824;}	.st245{clip-path:url(#SVGID_34_);fill:#BD1824;}	.st246{clip-path:url(#SVGID_34_);fill:#BE1824;}	.st247{clip-path:url(#SVGID_34_);fill:#BE1823;}	.st248{fill:url(#SVGID_35_);}</style><g>	<g>		<defs>			<path id="SVGID_31_" d="M428.07,425.22c0,0,27.14-0.22,34.46,0.72c7.32,0.94,12.05,3.06-3.95,13.91    c-9.12,6.18-18.6,11.12-28.41,15.44c-9.84,4.33-28.23,11.95-33.53,7.4c-5.3-4.55,14.58-34.31,14.58-34.31    S418.31,426.65,428.07,425.22z"></path>		</defs>		<clipPath id="SVGID_1_">			<use xlink:href="#SVGID_31_" style="overflow:visible;"></use>		</clipPath>		<rect x="391.34" y="425" style="clip-path:url(#SVGID_1_);fill:#BE1823;" width="4.4" height="42.24"></rect>		<rect x="395.74" y="425" style="clip-path:url(#SVGID_1_);fill:#BE1823;" width="1.1" height="42.24"></rect>		<rect x="396.84" y="425" style="clip-path:url(#SVGID_1_);fill:#BE1824;" width="1.1" height="42.24"></rect>		<rect x="397.94" y="425" style="clip-path:url(#SVGID_1_);fill:#BD1824;" width="1.1" height="42.24"></rect>		<rect x="399.04" y="425" style="clip-path:url(#SVGID_1_);fill:#BC1824;" width="1.1" height="42.24"></rect>		<rect x="400.13" y="425" style="clip-path:url(#SVGID_1_);fill:#BB1825;" width="1.1" height="42.24"></rect>		<rect x="401.23" y="425" style="clip-path:url(#SVGID_1_);fill:#BB1825;" width="1.1" height="42.24"></rect>		<rect x="402.33" y="425" style="clip-path:url(#SVGID_1_);fill:#BA1825;" width="1.1" height="42.24"></rect>		<rect x="403.43" y="425" style="clip-path:url(#SVGID_1_);fill:#B91826;" width="1.1" height="42.24"></rect>		<rect x="404.52" y="425" style="clip-path:url(#SVGID_1_);fill:#B91826;" width="1.1" height="42.24"></rect>		<rect x="405.62" y="425" style="clip-path:url(#SVGID_1_);fill:#B81826;" width="1.1" height="42.24"></rect>		<rect x="406.72" y="425" style="clip-path:url(#SVGID_1_);fill:#B71827;" width="1.1" height="42.24"></rect>		<rect x="407.82" y="425" style="clip-path:url(#SVGID_1_);fill:#B71827;" width="1.1" height="42.24"></rect>		<rect x="408.92" y="425" style="clip-path:url(#SVGID_1_);fill:#B61827;" width="1.1" height="42.24"></rect>		<rect x="410.01" y="425" style="clip-path:url(#SVGID_1_);fill:#B51828;" width="1.1" height="42.24"></rect>		<rect x="411.11" y="425" style="clip-path:url(#SVGID_1_);fill:#B51928;" width="1.1" height="42.24"></rect>		<rect x="412.21" y="425" style="clip-path:url(#SVGID_1_);fill:#B41928;" width="1.1" height="42.24"></rect>		<rect x="413.31" y="425" style="clip-path:url(#SVGID_1_);fill:#B31929;" width="1.1" height="42.24"></rect>		<rect x="414.41" y="425" style="clip-path:url(#SVGID_1_);fill:#B31929;" width="1.1" height="42.24"></rect>		<rect x="415.5" y="425" style="clip-path:url(#SVGID_1_);fill:#B21929;" width="1.1" height="42.24"></rect>		<rect x="416.6" y="425" style="clip-path:url(#SVGID_1_);fill:#B1192A;" width="1.1" height="42.24"></rect>		<rect x="417.7" y="425" style="clip-path:url(#SVGID_1_);fill:#B1192A;" width="1.1" height="42.24"></rect>		<rect x="418.8" y="425" style="clip-path:url(#SVGID_1_);fill:#B0192A;" width="1.1" height="42.24"></rect>		<rect x="419.89" y="425" style="clip-path:url(#SVGID_1_);fill:#B0192B;" width="1.1" height="42.24"></rect>		<rect x="420.99" y="425" style="clip-path:url(#SVGID_1_);fill:#AF192B;" width="1.1" height="42.24"></rect>		<rect x="422.09" y="425" style="clip-path:url(#SVGID_1_);fill:#AE192B;" width="1.1" height="42.24"></rect>		<rect x="423.19" y="425" style="clip-path:url(#SVGID_1_);fill:#AE192C;" width="1.1" height="42.24"></rect>		<rect x="424.29" y="425" style="clip-path:url(#SVGID_1_);fill:#AD192C;" width="1.1" height="42.24"></rect>		<rect x="425.38" y="425" style="clip-path:url(#SVGID_1_);fill:#AC192C;" width="1.1" height="42.24"></rect>		<rect x="426.48" y="425" style="clip-path:url(#SVGID_1_);fill:#AC192D;" width="1.1" height="42.24"></rect>		<rect x="427.58" y="425" style="clip-path:url(#SVGID_1_);fill:#AB192D;" width="1.1" height="42.24"></rect>		<rect x="428.68" y="425" style="clip-path:url(#SVGID_1_);fill:#AA192D;" width="1.1" height="42.24"></rect>		<rect x="429.78" y="425" style="clip-path:url(#SVGID_1_);fill:#AA192E;" width="1.1" height="42.24"></rect>		<rect x="430.87" y="425" style="clip-path:url(#SVGID_1_);fill:#A9192E;" width="1.1" height="42.24"></rect>		<rect x="431.97" y="425" style="clip-path:url(#SVGID_1_);fill:#A9192E;" width="1.1" height="42.24"></rect>		<rect x="433.07" y="425" style="clip-path:url(#SVGID_1_);fill:#A8192F;" width="1.1" height="42.24"></rect>		<rect x="434.17" y="425" style="clip-path:url(#SVGID_1_);fill:#A7192F;" width="1.1" height="42.24"></rect>		<rect x="435.27" y="425" style="clip-path:url(#SVGID_1_);fill:#A7192F;" width="1.1" height="42.24"></rect>		<rect x="436.36" y="425" style="clip-path:url(#SVGID_1_);fill:#A61930;" width="1.1" height="42.24"></rect>		<rect x="437.46" y="425" style="clip-path:url(#SVGID_1_);fill:#A51930;" width="1.1" height="42.24"></rect>		<rect x="438.56" y="425" style="clip-path:url(#SVGID_1_);fill:#A51930;" width="1.1" height="42.24"></rect>		<rect x="439.66" y="425" style="clip-path:url(#SVGID_1_);fill:#A41930;" width="1.1" height="42.24"></rect>		<rect x="440.75" y="425" style="clip-path:url(#SVGID_1_);fill:#A41931;" width="1.1" height="42.24"></rect>		<rect x="441.85" y="425" style="clip-path:url(#SVGID_1_);fill:#A31931;" width="1.1" height="42.24"></rect>		<rect x="442.95" y="425" style="clip-path:url(#SVGID_1_);fill:#A21931;" width="1.1" height="42.24"></rect>		<rect x="444.05" y="425" style="clip-path:url(#SVGID_1_);fill:#A21932;" width="1.1" height="42.24"></rect>		<rect x="445.15" y="425" style="clip-path:url(#SVGID_1_);fill:#A11932;" width="1.1" height="42.24"></rect>		<rect x="446.24" y="425" style="clip-path:url(#SVGID_1_);fill:#A01932;" width="1.1" height="42.24"></rect>		<rect x="447.34" y="425" style="clip-path:url(#SVGID_1_);fill:#A01932;" width="1.1" height="42.24"></rect>		<rect x="448.44" y="425" style="clip-path:url(#SVGID_1_);fill:#9F1933;" width="1.1" height="42.24"></rect>		<rect x="449.54" y="425" style="clip-path:url(#SVGID_1_);fill:#9F1933;" width="1.1" height="42.24"></rect>		<rect x="450.64" y="425" style="clip-path:url(#SVGID_1_);fill:#9E1933;" width="1.1" height="42.24"></rect>		<rect x="451.73" y="425" style="clip-path:url(#SVGID_1_);fill:#9D1833;" width="1.1" height="42.24"></rect>		<rect x="452.83" y="425" style="clip-path:url(#SVGID_1_);fill:#9D1834;" width="1.1" height="42.24"></rect>		<rect x="453.93" y="425" style="clip-path:url(#SVGID_1_);fill:#9C1834;" width="1.1" height="42.24"></rect>		<rect x="455.03" y="425" style="clip-path:url(#SVGID_1_);fill:#9B1834;" width="1.1" height="42.24"></rect>		<rect x="456.12" y="425" style="clip-path:url(#SVGID_1_);fill:#9B1834;" width="1.1" height="42.24"></rect>		<rect x="457.22" y="425" style="clip-path:url(#SVGID_1_);fill:#9A1835;" width="1.1" height="42.24"></rect>		<rect x="458.32" y="425" style="clip-path:url(#SVGID_1_);fill:#991835;" width="1.1" height="42.24"></rect>		<rect x="459.42" y="425" style="clip-path:url(#SVGID_1_);fill:#991835;" width="1.1" height="42.24"></rect>		<rect x="460.52" y="425" style="clip-path:url(#SVGID_1_);fill:#981835;" width="1.1" height="42.24"></rect>		<rect x="461.61" y="425" style="clip-path:url(#SVGID_1_);fill:#981836;" width="1.1" height="42.24"></rect>		<rect x="462.71" y="425" style="clip-path:url(#SVGID_1_);fill:#971836;" width="1.1" height="42.24"></rect>		<rect x="463.81" y="425" style="clip-path:url(#SVGID_1_);fill:#961836;" width="1.1" height="42.24"></rect>		<rect x="464.91" y="425" style="clip-path:url(#SVGID_1_);fill:#961836;" width="1.1" height="42.24"></rect>		<rect x="466.01" y="425" style="clip-path:url(#SVGID_1_);fill:#951836;" width="1.1" height="42.24"></rect>		<rect x="467.1" y="425" style="clip-path:url(#SVGID_1_);fill:#941837;" width="1.1" height="42.24"></rect>		<rect x="468.2" y="425" style="clip-path:url(#SVGID_1_);fill:#941837;" width="1.1" height="42.24"></rect>		<rect x="469.3" y="425" style="clip-path:url(#SVGID_1_);fill:#941837;" width="5.28" height="42.24"></rect>	</g></g><g>	<g>		<defs>			<path id="SVGID_33_" d="M69.83,426.65c0,0-25.55-2.6-33.76-1.53s-12.92,2.64,4.43,15.82s54.6,28.03,57.42,28.23    c2.83,0.2,2.73,12.4,8.67,7.23c5.94-5.18-15.46-44.05-15.46-44.05S80.76,428.28,69.83,426.65z"></path>		</defs>		<clipPath id="SVGID_2_">			<use xlink:href="#SVGID_33_" style="overflow:visible;"></use>		</clipPath>		<rect x="23.15" y="424.04" style="clip-path:url(#SVGID_2_);fill:#941837;" width="5.55" height="57.53"></rect>		<rect x="28.7" y="424.04" style="clip-path:url(#SVGID_2_);fill:#941837;" width="1.16" height="57.53"></rect>		<rect x="29.87" y="424.04" style="clip-path:url(#SVGID_2_);fill:#941837;" width="1.16" height="57.53"></rect>		<rect x="31.03" y="424.04" style="clip-path:url(#SVGID_2_);fill:#951836;" width="1.16" height="57.53"></rect>		<rect x="32.2" y="424.04" style="clip-path:url(#SVGID_2_);fill:#961836;" width="1.16" height="57.53"></rect>		<rect x="33.36" y="424.04" style="clip-path:url(#SVGID_2_);fill:#961836;" width="1.16" height="57.53"></rect>		<rect x="34.53" y="424.04" style="clip-path:url(#SVGID_2_);fill:#971836;" width="1.16" height="57.53"></rect>		<rect x="35.69" y="424.04" style="clip-path:url(#SVGID_2_);fill:#981836;" width="1.16" height="57.53"></rect>		<rect x="36.86" y="424.04" style="clip-path:url(#SVGID_2_);fill:#981835;" width="1.16" height="57.53"></rect>		<rect x="38.02" y="424.04" style="clip-path:url(#SVGID_2_);fill:#991835;" width="1.16" height="57.53"></rect>		<rect x="39.18" y="424.04" style="clip-path:url(#SVGID_2_);fill:#991835;" width="1.16" height="57.53"></rect>		<rect x="40.35" y="424.04" style="clip-path:url(#SVGID_2_);fill:#9A1835;" width="1.16" height="57.53"></rect>		<rect x="41.51" y="424.04" style="clip-path:url(#SVGID_2_);fill:#9B1834;" width="1.16" height="57.53"></rect>		<rect x="42.68" y="424.04" style="clip-path:url(#SVGID_2_);fill:#9B1834;" width="1.16" height="57.53"></rect>		<rect x="43.84" y="424.04" style="clip-path:url(#SVGID_2_);fill:#9C1834;" width="1.16" height="57.53"></rect>		<rect x="45.01" y="424.04" style="clip-path:url(#SVGID_2_);fill:#9D1834;" width="1.16" height="57.53"></rect>		<rect x="46.17" y="424.04" style="clip-path:url(#SVGID_2_);fill:#9D1833;" width="1.16" height="57.53"></rect>		<rect x="47.34" y="424.04" style="clip-path:url(#SVGID_2_);fill:#9E1933;" width="1.16" height="57.53"></rect>		<rect x="48.5" y="424.04" style="clip-path:url(#SVGID_2_);fill:#9F1933;" width="1.16" height="57.53"></rect>		<rect x="49.67" y="424.04" style="clip-path:url(#SVGID_2_);fill:#9F1933;" width="1.16" height="57.53"></rect>		<rect x="50.83" y="424.04" style="clip-path:url(#SVGID_2_);fill:#A01932;" width="1.16" height="57.53"></rect>		<rect x="51.99" y="424.04" style="clip-path:url(#SVGID_2_);fill:#A01932;" width="1.16" height="57.53"></rect>		<rect x="53.16" y="424.04" style="clip-path:url(#SVGID_2_);fill:#A11932;" width="1.16" height="57.53"></rect>		<rect x="54.32" y="424.04" style="clip-path:url(#SVGID_2_);fill:#A21932;" width="1.16" height="57.53"></rect>		<rect x="55.49" y="424.04" style="clip-path:url(#SVGID_2_);fill:#A21931;" width="1.16" height="57.53"></rect>		<rect x="56.65" y="424.04" style="clip-path:url(#SVGID_2_);fill:#A31931;" width="1.16" height="57.53"></rect>		<rect x="57.82" y="424.04" style="clip-path:url(#SVGID_2_);fill:#A41931;" width="1.16" height="57.53"></rect>		<rect x="58.98" y="424.04" style="clip-path:url(#SVGID_2_);fill:#A41930;" width="1.16" height="57.53"></rect>		<rect x="60.15" y="424.04" style="clip-path:url(#SVGID_2_);fill:#A51930;" width="1.16" height="57.53"></rect>		<rect x="61.31" y="424.04" style="clip-path:url(#SVGID_2_);fill:#A51930;" width="1.16" height="57.53"></rect>		<rect x="62.48" y="424.04" style="clip-path:url(#SVGID_2_);fill:#A61930;" width="1.16" height="57.53"></rect>		<rect x="63.64" y="424.04" style="clip-path:url(#SVGID_2_);fill:#A7192F;" width="1.16" height="57.53"></rect>		<rect x="64.8" y="424.04" style="clip-path:url(#SVGID_2_);fill:#A7192F;" width="1.16" height="57.53"></rect>		<rect x="65.97" y="424.04" style="clip-path:url(#SVGID_2_);fill:#A8192F;" width="1.16" height="57.53"></rect>		<rect x="67.13" y="424.04" style="clip-path:url(#SVGID_2_);fill:#A9192E;" width="1.16" height="57.53"></rect>		<rect x="68.3" y="424.04" style="clip-path:url(#SVGID_2_);fill:#A9192E;" width="1.16" height="57.53"></rect>		<rect x="69.46" y="424.04" style="clip-path:url(#SVGID_2_);fill:#AA192E;" width="1.16" height="57.53"></rect>		<rect x="70.63" y="424.04" style="clip-path:url(#SVGID_2_);fill:#AA192D;" width="1.16" height="57.53"></rect>		<rect x="71.79" y="424.04" style="clip-path:url(#SVGID_2_);fill:#AB192D;" width="1.16" height="57.53"></rect>		<rect x="72.96" y="424.04" style="clip-path:url(#SVGID_2_);fill:#AC192D;" width="1.16" height="57.53"></rect>		<rect x="74.12" y="424.04" style="clip-path:url(#SVGID_2_);fill:#AC192C;" width="1.16" height="57.53"></rect>		<rect x="75.29" y="424.04" style="clip-path:url(#SVGID_2_);fill:#AD192C;" width="1.16" height="57.53"></rect>		<rect x="76.45" y="424.04" style="clip-path:url(#SVGID_2_);fill:#AE192C;" width="1.16" height="57.53"></rect>		<rect x="77.62" y="424.04" style="clip-path:url(#SVGID_2_);fill:#AE192B;" width="1.16" height="57.53"></rect>		<rect x="78.78" y="424.04" style="clip-path:url(#SVGID_2_);fill:#AF192B;" width="1.16" height="57.53"></rect>		<rect x="79.94" y="424.04" style="clip-path:url(#SVGID_2_);fill:#B0192B;" width="1.16" height="57.53"></rect>		<rect x="81.11" y="424.04" style="clip-path:url(#SVGID_2_);fill:#B0192A;" width="1.16" height="57.53"></rect>		<rect x="82.27" y="424.04" style="clip-path:url(#SVGID_2_);fill:#B1192A;" width="1.16" height="57.53"></rect>		<rect x="83.44" y="424.04" style="clip-path:url(#SVGID_2_);fill:#B1192A;" width="1.16" height="57.53"></rect>		<rect x="84.6" y="424.04" style="clip-path:url(#SVGID_2_);fill:#B21929;" width="1.16" height="57.53"></rect>		<rect x="85.77" y="424.04" style="clip-path:url(#SVGID_2_);fill:#B31929;" width="1.16" height="57.53"></rect>		<rect x="86.93" y="424.04" style="clip-path:url(#SVGID_2_);fill:#B31929;" width="1.16" height="57.53"></rect>		<rect x="88.1" y="424.04" style="clip-path:url(#SVGID_2_);fill:#B41928;" width="1.16" height="57.53"></rect>		<rect x="89.26" y="424.04" style="clip-path:url(#SVGID_2_);fill:#B51928;" width="1.16" height="57.53"></rect>		<rect x="90.43" y="424.04" style="clip-path:url(#SVGID_2_);fill:#B51828;" width="1.16" height="57.53"></rect>		<rect x="91.59" y="424.04" style="clip-path:url(#SVGID_2_);fill:#B61827;" width="1.16" height="57.53"></rect>		<rect x="92.75" y="424.04" style="clip-path:url(#SVGID_2_);fill:#B71827;" width="1.16" height="57.53"></rect>		<rect x="93.92" y="424.04" style="clip-path:url(#SVGID_2_);fill:#B71827;" width="1.16" height="57.53"></rect>		<rect x="95.08" y="424.04" style="clip-path:url(#SVGID_2_);fill:#B81826;" width="1.16" height="57.53"></rect>		<rect x="96.25" y="424.04" style="clip-path:url(#SVGID_2_);fill:#B91826;" width="1.16" height="57.53"></rect>		<rect x="97.41" y="424.04" style="clip-path:url(#SVGID_2_);fill:#B91826;" width="1.16" height="57.53"></rect>		<rect x="98.58" y="424.04" style="clip-path:url(#SVGID_2_);fill:#BA1825;" width="1.16" height="57.53"></rect>		<rect x="99.74" y="424.04" style="clip-path:url(#SVGID_2_);fill:#BB1825;" width="1.16" height="57.53"></rect>		<rect x="100.91" y="424.04" style="clip-path:url(#SVGID_2_);fill:#BB1825;" width="1.16" height="57.53"></rect>		<rect x="102.07" y="424.04" style="clip-path:url(#SVGID_2_);fill:#BC1824;" width="1.16" height="57.53"></rect>		<rect x="103.24" y="424.04" style="clip-path:url(#SVGID_2_);fill:#BD1824;" width="1.16" height="57.53"></rect>		<rect x="104.4" y="424.04" style="clip-path:url(#SVGID_2_);fill:#BE1824;" width="1.16" height="57.53"></rect>		<rect x="105.56" y="424.04" style="clip-path:url(#SVGID_2_);fill:#BE1823;" width="1.16" height="57.53"></rect>		<rect x="106.73" y="424.04" style="clip-path:url(#SVGID_2_);fill:#BE1823;" width="5.81" height="57.53"></rect>	</g></g><g>	<g>		<polygon class="st2" points="452.63,425.81 492.62,396.92 462.6,400.24 494.79,353.65 452.06,374.22 433.91,427.1 446.58,427.27      "></polygon>	</g>	<g>		<polygon class="st3" points="455.42,377.81 482.55,363.68 452.73,404.72 480.54,401.58 448.88,422.5 436.81,421.99   "></polygon>	</g></g><g>	<g>		<polygon class="st2" points="43.5,425.42 6.52,398.49 36.54,401.81 4.35,355.22 47.08,375.79 69.83,426.65 55.84,426.99   "></polygon>	</g>	<g>		<polygon class="st3" points="43.72,379.38 16.59,365.25 46.41,406.29 18.6,403.15 48.43,423.11 62.33,423.56   "></polygon>	</g></g><g>	<path class="st2" d="M497.59,68.69c-0.13-2.23,0.47-4.51-1.16-6.05c-1.09-1.03-1.24-0.64-5.14-0.73  c-27.21-0.62-144.37-2.22-239.95-61.35c-0.38-0.23-0.91-0.62-1.22-0.55c-0.3,0.07-1.11,0.57-1.11,0.57  C150.89,55.37,36.29,61.29,9.09,61.91c-3.9,0.09-4.05-0.3-5.14,0.73c-1.63,1.54-1.01,3.83-1.16,6.05  c-33.02,484.14,238.87,537.37,248.96,541.86C260.38,605.95,526.13,549.29,497.59,68.69z"></path></g><g>	<path class="st3" d="M485.31,80.09c-0.13-2.11,0.45-4.28-1.1-5.75c-1.04-0.98-1.18-0.61-4.89-0.69  c-25.86-0.59-137.22-2.11-228.06-58.31c-0.36-0.22-0.86-0.59-1.16-0.52c-0.29,0.07-1.05,0.54-1.05,0.54  C155.79,67.43,46.87,73.05,21.02,73.64c-3.71,0.08-3.85-0.29-4.89,0.69c-1.55,1.47-0.96,3.64-1.1,5.75  C-16.36,540.24,248.27,595.74,251.7,595.74C256.34,595.74,512.44,536.88,485.31,80.09z"></path></g><g>	<path class="st2" d="M465.74,98.31c-0.08-1.94,0.41-3.93-1.01-5.27c-0.95-0.9-1.08-0.56-4.48-0.64  c-23.71-0.54-125.79-1.94-209.08-53.46c-0.33-0.2-0.79-0.54-1.06-0.48c-0.26,0.06-0.96,0.49-0.96,0.49  C163.65,86.71,63.8,91.87,40.09,92.41c-3.4,0.08-3.53-0.26-4.48,0.64c-1.42,1.35-0.93,3.33-1.01,5.27  C16.91,518.36,246.47,572.73,251.13,572.73C255.44,572.73,483.43,518.36,465.74,98.31z"></path></g><g>	<linearGradient id="SVGID_3_" gradientUnits="userSpaceOnUse" x1="191.5245" y1="91.3389" x2="378.1321" y2="458.426">		<stop offset="0" style="stop-color:#E42C32"></stop>		<stop offset="0.4984" style="stop-color:#D02130"></stop>		<stop offset="1" style="stop-color:#C0182E"></stop>	</linearGradient>	<path class="st10" d="M455.26,108.07c-0.08-1.85,0.39-3.73-0.96-5.01c-0.9-0.85-1.03-0.53-4.26-0.6  c-22.56-0.52-119.68-1.84-198.91-50.86c-0.31-0.19-0.75-0.51-1.01-0.45c-0.25,0.06-0.92,0.47-0.92,0.47  c-81.33,45.42-176.33,50.33-198.89,50.85c-3.23,0.07-3.36-0.25-4.26,0.6c-1.35,1.28-0.9,3.17-0.96,5.01  C30.74,498.3,247.37,560.07,251.13,560.07C255.89,560.07,472.09,507.69,455.26,108.07z"></path></g><g>	<g>		<path class="st2" d="M339.94,220.84c0,0-1.78,2.05,0.4,4.33c2.17,2.28,7.39,7.77,11.53,9.68c4.15,1.91,4.37,2.19,13.12,2.02   c8.75-0.17,8.75,0.22,12.5-2.58s8.07-7.57,9.03-8.91s2.3-1.74-0.73-5.21s-6.27-6.92-7.23-7.83c-0.96-0.92-1.8-2.26-6.96-1.98   c-5.16,0.28-20.78,1.13-21.75,1.18c-0.97,0.05-2.75-0.39-4.6,1.96S339.94,220.84,339.94,220.84z"></path>	</g>	<g>		<path class="st2" d="M390.08,181.73c0,0-9.57,23.6-10.08,25.04c-0.51,1.45-1.1,2.46,2.6,7c3.7,4.54,4.33,5.21,5.05,5.97   c0.72,0.77,0.7,0.78,1.07,1.12c0.36,0.34,0.86,0.86,2.57,0.24c1.71-0.62,3.95-1.32,6.9-2.68c2.94-1.37,8.75-4.23,10.53-5.59   c1.79-1.37,2.19-3.47,3.05-6.54c0.86-3.07,2.42-10.09,2.59-12.97s-0.88-5.32-2.78-8.94s-3.87-7.15-4.25-7.82   c-0.38-0.67-1.51-2.52-5.13-1.39c-3.62,1.14-6.85,2.19-8.33,2.86S391.05,179.72,390.08,181.73z"></path>	</g>	<g>		<path class="st2" d="M361.52,162.12c0,0-10.26,6.17-15.81,10.56s-8.02,4.54-6.84,9.42c0,0,3.76,15.42,5.72,20.46   c1.96,5.05,0.84,6.73,12.28,6.28s13.68-0.73,15.92-1.01c2.24-0.28,3.7-0.62,4.54-1.35c0.84-0.73,5.16-9.42,8.13-17.32   c2.97-7.91,2.8-7.91,2.97-8.91c0.17-1.01,0.19-2.11-1.73-3.69c-1.92-1.58-15.21-11.67-19.69-14.08   C365.22,161.41,364.27,160.75,361.52,162.12z"></path>	</g>	<g>		<path class="st2" d="M336.01,142.12c-2.65,1.59-12.31,5.6-13.22,15s-1.09,9.91-1.17,11.33c-0.08,1.42-0.75,2.6,3.11,4.12   s8.2,2.99,9.42,3.2c1.21,0.2,1.35,1.85,6.9-2.02s13.54-9.27,17.62-12.29s5.56-5.11,5.07-10.94s-0.49-5.44-0.58-6.45   s0.25-1.51-2.69-2.52c-2.94-1.01-9.59-3.36-11.61-3.45C346.86,138,344.25,137.16,336.01,142.12z"></path>	</g>	<g>		<path class="st2" d="M321.22,151.52c0,0-10.33,11.31-11.73,27.36c-0.22,1.67,0.43,3.21,1.45,4.5c1.02,1.29,1.58,2.55,3.02-0.31   c1.44-2.86,6.49-11.01,7.24-19.59S321.22,151.52,321.22,151.52z"></path>	</g>	<g>		<path class="st2" d="M310.15,184.49c0,0-1.81,6.08,1.14,16.84s6.68,12.97,6.68,12.97S314.31,191.79,310.15,184.49z"></path>	</g>	<g>		<path class="st2" d="M339.96,226.98c0,0-7.15-5.72-11.52-8.66c-4.37-2.94-7.64-5.18-9.33-2.84s1.51,5.53,6.8,10.92   s13.62,10.85,18.84,11.77c5.21,0.93,5.91-0.68,6.11-1.27C351.06,236.31,351.48,235.64,339.96,226.98z"></path>	</g>	<g>		<path class="st2" d="M351.16,239.87c0,0,8.32,3.04,27.87,0.84c-1.48-1.28-5.68-3.3-13.84-3.38   C357.03,237.24,353.16,238.04,351.16,239.87z"></path>	</g>	<g>		<path class="st2" d="M351.99,131.61c0,0,12.11-3.28,26.91,0.25c6.14,1.68,8.28,2.34,7.84,3.86c-0.44,1.52-1.87,1.6-15.57,3.96   c-5.47,1.01-3.87,1.85-11.35-0.25c-7.48-2.1-11.02-2.61-12.45-3.53C346.44,135.48,345.93,133.46,351.99,131.61z"></path>	</g>	<g>		<path class="st2" d="M390.62,136.62c0,0,11.01,4.56,14.53,10.54C405.15,147.16,396.45,145.17,390.62,136.62z"></path>	</g>	<g>		<path class="st2" d="M408.79,152.48c0,0,1.08-0.9,3.21,2.8s5.58,8.94,7.37,16.9c1.79,7.96,1.35,12.56-2.07,16.48   c-0.5,0.5-1.18,1.4-2.69-1.68c-1.51-3.08-5.67-10.45-6.65-13.05c-0.98-2.6-1.31-7.39-1.26-10.56   C406.76,160.21,406.79,152.12,408.79,152.48z"></path>	</g>	<g>		<path class="st2" d="M420.18,186.58c0,0-4.28,5.59-5.87,14.75c-1.6,9.17-2.02,13.51-2.02,13.51s4.42-3.37,6.78-12.62   C421.41,192.96,421.17,189.82,420.18,186.58z"></path>	</g></g><g>	<g>		<path class="st2" d="M367.68,125.82c-0.29-11.93-0.68-19.15-1.09-19.15c-0.42,0-0.8,7.22-1.09,19.16c0.4-0.01,0.8-0.03,1.21-0.03   C367.02,125.79,367.35,125.81,367.68,125.82z"></path>	</g>	<g>		<path class="st2" d="M365.5,247.18c0.29,11.8,0.67,18.94,1.09,18.94c0.41,0,0.79-7.13,1.09-18.93c-0.33,0.01-0.65,0.02-0.98,0.02   C366.29,247.21,365.9,247.18,365.5,247.18z"></path>	</g>	<g>		<path class="st2" d="M381.37,108.05c-0.41-0.08-2.12,6.94-4.62,18.59c0.72,0.12,1.44,0.24,2.15,0.38   C380.82,115.27,381.78,108.12,381.37,108.05z"></path>	</g>	<g>		<path class="st2" d="M351.8,264.73c0.41,0.08,2.1-6.87,4.58-18.41c-0.72-0.12-1.43-0.25-2.14-0.39   C352.34,257.57,351.39,264.65,351.8,264.73z"></path>	</g>	<g>		<path class="st2" d="M395.64,112.15c-0.39-0.15-3.36,6.41-7.97,17.37c0.68,0.25,1.36,0.52,2.03,0.8   C393.76,119.14,396.03,112.3,395.64,112.15z"></path>	</g>	<g>		<path class="st2" d="M337.53,260.63c0.39,0.15,3.34-6.36,7.92-17.25c-0.68-0.25-1.36-0.52-2.02-0.8   C339.39,253.69,337.14,260.48,337.53,260.63z"></path>	</g>	<g>		<path class="st2" d="M408.91,118.82c-0.35-0.22-4.49,5.67-11.04,15.58c0.62,0.37,1.24,0.77,1.85,1.16   C405.77,125.34,409.26,119.05,408.91,118.82z"></path>	</g>	<g>		<path class="st2" d="M324.26,253.95c0.35,0.22,4.47-5.64,11-15.51c-0.62-0.38-1.23-0.78-1.83-1.17   C327.39,247.46,323.91,253.73,324.26,253.95z"></path>	</g>	<g>		<path class="st2" d="M420.7,127.85c-0.31-0.28-5.46,4.73-13.73,13.25c0.54,0.48,1.08,0.98,1.6,1.48   C416.41,133.66,421.01,128.13,420.7,127.85z"></path>	</g>	<g>		<path class="st2" d="M312.47,244.93c0.31,0.28,5.45-4.72,13.72-13.23c-0.54-0.49-1.07-0.99-1.59-1.49   C316.75,239.12,312.16,244.65,312.47,244.93z"></path>	</g>	<g>		<path class="st2" d="M302.55,233.88c0.25,0.33,6.24-3.64,15.96-10.48c-0.44-0.58-0.87-1.16-1.29-1.76   C307.85,228.96,302.3,233.54,302.55,233.88z"></path>	</g>	<g>		<path class="st2" d="M430.62,138.9c-0.25-0.33-6.23,3.63-15.93,10.45c0.44,0.57,0.88,1.16,1.3,1.75   C425.34,143.81,430.87,139.23,430.62,138.9z"></path>	</g>	<g>		<path class="st2" d="M294.85,221.18c0.18,0.37,6.82-2.42,17.64-7.34c-0.33-0.65-0.64-1.3-0.95-1.97   C300.98,217.32,294.67,220.8,294.85,221.18z"></path>	</g>	<g>		<path class="st2" d="M438.32,151.6c-0.18-0.37-6.78,2.41-17.55,7.3c0.33,0.65,0.65,1.3,0.96,1.95   C432.23,155.43,438.5,151.97,438.32,151.6z"></path>	</g>	<g>		<path class="st2" d="M443.52,165.5c-0.11-0.4-7.1,1.1-18.57,3.91c0.2,0.7,0.41,1.39,0.59,2.1   C436.85,168.14,443.63,165.9,443.52,165.5z"></path>	</g>	<g>		<path class="st2" d="M289.64,207.27c0.11,0.4,7.16-1.12,18.72-3.95c-0.2-0.7-0.4-1.4-0.57-2.11   C296.39,204.61,289.53,206.87,289.64,207.27z"></path>	</g>	<g>		<path class="st2" d="M446.06,180.14c-0.03-0.41-7.17-0.23-18.95,0.4c0.07,0.72,0.12,1.44,0.16,2.17   C439.01,181.49,446.09,180.55,446.06,180.14z"></path>	</g>	<g>		<path class="st2" d="M287.11,192.64c0.03,0.42,7.25,0.23,19.16-0.41c-0.07-0.72-0.12-1.45-0.17-2.18   C294.24,191.28,287.07,192.22,287.11,192.64z"></path>	</g>	<g>		<path class="st2" d="M427.15,191.86c-0.06,0.72-0.14,1.44-0.23,2.16c11.75,0.98,18.88,1.37,18.92,0.96   C445.89,194.57,438.84,193.43,427.15,191.86z"></path>	</g>	<g>		<path class="st2" d="M287.32,177.79c-0.05,0.41,7.1,1.57,18.93,3.15c0.07-0.73,0.15-1.45,0.24-2.17   C294.6,177.78,287.37,177.38,287.32,177.79z"></path>	</g>	<g>		<path class="st2" d="M290.29,163.24c-0.12,0.4,6.69,2.86,18.03,6.61c0.2-0.7,0.41-1.4,0.63-2.09   C297.44,164.58,290.41,162.84,290.29,163.24z"></path>	</g>	<g>		<path class="st2" d="M442.87,209.53c0.12-0.4-6.58-2.83-17.76-6.52c-0.2,0.7-0.4,1.39-0.62,2.08   C435.84,208.23,442.75,209.93,442.87,209.53z"></path>	</g>	<g>		<path class="st2" d="M295.91,149.49c-0.19,0.37,6.04,4.06,16.5,9.85c0.33-0.65,0.66-1.3,1.01-1.94   C302.69,152.13,296.1,149.12,295.91,149.49z"></path>	</g>	<g>		<path class="st2" d="M437.26,223.28c0.19-0.37-5.94-3.99-16.23-9.7c-0.32,0.65-0.65,1.3-0.99,1.93   C430.59,220.7,437.07,223.65,437.26,223.28z"></path>	</g>	<g>		<path class="st2" d="M429.19,235.75c0.26-0.33-5.09-5.02-14.15-12.54c-0.44,0.58-0.88,1.15-1.34,1.71   C423.12,231.97,428.93,236.07,429.19,235.75z"></path>	</g>	<g>		<path class="st2" d="M303.98,137.03c-0.26,0.33,5.19,5.11,14.39,12.74c0.44-0.58,0.89-1.16,1.35-1.72   C310.16,140.88,304.24,136.7,303.98,137.03z"></path>	</g>	<g>		<path class="st2" d="M314.22,126.27c-0.32,0.27,4.15,5.98,11.78,15.19c0.54-0.49,1.1-0.96,1.65-1.43   C319.58,131.21,314.53,126,314.22,126.27z"></path>	</g>	<g>		<path class="st2" d="M418.95,246.5c0.31-0.27-4.07-5.88-11.58-14.94c-0.54,0.49-1.09,0.96-1.64,1.42   C413.68,241.66,418.64,246.77,418.95,246.5z"></path>	</g>	<g>		<path class="st2" d="M406.89,255.17c0.36-0.21-2.91-6.53-8.6-16.83c-0.62,0.38-1.25,0.73-1.88,1.09   C402.61,249.44,406.54,255.38,406.89,255.17z"></path>	</g>	<g>		<path class="st2" d="M326.28,117.6c-0.36,0.21,2.97,6.64,8.75,17.1c0.62-0.38,1.26-0.74,1.89-1.1   C330.62,123.44,326.64,117.39,326.28,117.6z"></path>	</g>	<g>		<path class="st2" d="M393.44,261.45c0.39-0.14-1.65-6.96-5.34-18.14c-0.68,0.25-1.36,0.49-2.05,0.72   C390.29,255.02,393.05,261.59,393.44,261.45z"></path>	</g>	<g>		<path class="st2" d="M339.73,111.32c-0.39,0.14,1.68,7.08,5.43,18.42c0.68-0.26,1.37-0.5,2.06-0.73   C342.92,117.86,340.12,111.18,339.73,111.32z"></path>	</g>	<g>		<path class="st2" d="M379.05,265.13c0.41-0.06-0.33-7.16-1.88-18.84c-0.71,0.12-1.43,0.24-2.15,0.34   C377.15,258.22,378.64,265.2,379.05,265.13z"></path>	</g>	<g>		<path class="st2" d="M354.12,107.64c-0.41,0.07,0.34,7.26,1.92,19.1c0.72-0.13,1.43-0.25,2.16-0.35   C356.04,114.66,354.53,107.58,354.12,107.64z"></path>	</g></g><g>	<path class="st2" d="M438.76,422.5l-2.3,4.77c0,0,12.05-1.68,28.1-0.86c2.72,0.14,9.45,1.29-0.42,9.14s-50.61,29.79-111.16,38.98  c-60.55,9.19-169.54,14.35-262.38-13.46c-17.72-5.83-53.63-20.83-58.66-28.78c-2.96-3.91,2.81-6.9,16.69-5.51  c4.77,0.48,10.79,0.76,10.79,0.76l-1.79-4.26c0,0-10.34-1.15-18.08-1.37c-0.39-0.01-13.18-0.98-12.62,9.72  c0.62,11.98,0.19,41.9-0.07,44.53s0.26,7.79,21.61,20.79c25.08,15.26,81.97,39.46,192.37,40.38  c107.2,0.9,181.87-18.84,225.98-50.19c4.26-3.36,6.5-3.59,6.28-13.23c-0.22-9.64-0.22-41.94-0.45-45.08  c-0.22-3.14,1.74-6.87-18.43-6.83"></path></g><g>	<g>		<path class="st3" d="M250.14,486.41c-101.25,0-197.56-26.23-219.76-50.45l0.45,42.61c30.72,31.73,118.05,54.22,219.31,54.22   c100.9,0,186.72-22.79,218.78-52.88v-44.29C440.33,461.86,351.03,486.41,250.14,486.41z"></path>	</g></g><g>	<g>		<path class="st2" d="M59.89,463.37l7.11,4.51l-12.13,19.14l-7.11-4.51l4.25-6.7l-5.47-3.47l-4.25,6.7l-7.11-4.51l12.13-19.13   l7.11,4.51l-3.9,6.15l5.47,3.47L59.89,463.37z"></path>	</g>	<g>		<path class="st2" d="M65.54,491.6c-4.28-1.76-5.48-4.56-3.71-8.87l3.44-8.38c1.77-4.31,4.59-5.46,8.87-3.71l9.88,4.05   c4.28,1.76,5.48,4.56,3.71,8.87l-3.44,8.38c-1.77,4.31-4.59,5.46-8.87,3.71L65.54,491.6z M75.25,487.89   c1.05,0.43,1.51,0.24,1.94-0.81l2.06-5.03c0.43-1.05,0.24-1.51-0.81-1.94l-4.13-1.7c-1.05-0.43-1.51-0.24-1.94,0.81l-2.06,5.03   c-0.43,1.05-0.24,1.51,0.81,1.94L75.25,487.89z"></path>	</g>	<g>		<path class="st2" d="M107.92,506.11l-8.69-2.59l-1.79-7.49l-2.2-0.66l-1.9,6.39l-8.07-2.4l6.47-21.72l15.82,4.72   c4.1,1.22,5.37,3.53,4.14,7.65l-0.87,2.92c-0.92,3.1-2.63,4.62-5.12,4.59L107.92,506.11z M98.06,485.94l-1.11,3.72l4.41,1.31   c0.9,0.27,1.26,0.07,1.53-0.83l0.41-1.37c0.27-0.9,0.07-1.26-0.83-1.53L98.06,485.94z"></path>	</g>	<g>		<path class="st2" d="M116.84,508.13c-4.52-1.01-6.17-3.56-5.16-8.11l1.97-8.85c1.01-4.55,3.6-6.16,8.11-5.16l10.43,2.32   c4.52,1.01,6.17,3.56,5.16,8.11l-1.97,8.85c-1.01,4.55-3.59,6.16-8.11,5.16L116.84,508.13z M125.78,502.83   c1.11,0.25,1.53-0.02,1.78-1.13l1.18-5.31c0.25-1.11-0.02-1.53-1.13-1.78l-4.36-0.97c-1.11-0.25-1.53,0.02-1.78,1.13l-1.18,5.31   c-0.25,1.11,0.02,1.53,1.13,1.78L125.78,502.83z"></path>	</g>	<g>		<path class="st2" d="M163.14,493.87l-10.94,12.77l-1.37,8.14l-8.3-1.39l1.37-8.14l-6.17-15.64l9.58,1.61l2.25,7.11l4.45-5.98   L163.14,493.87z"></path>	</g>	<g>		<path class="st2" d="M171.97,517.73l-0.54-2.94l-7.51-0.96l-1.26,2.71l-8.8-1.13l11.81-21.33l9.5,1.22l6.04,23.62L171.97,517.73z    M166.38,508.59l3.98,0.51l-1.2-6.45L166.38,508.59z"></path>	</g>	<g>		<path class="st2" d="M208.78,521.02l-0.71-2.9l-7.56-0.51l-1.1,2.78l-8.85-0.6l10.5-22l9.56,0.64l7.45,23.21L208.78,521.02z    M202.66,512.24l4,0.27l-1.58-6.37L202.66,512.24z"></path>	</g>	<g>		<path class="st2" d="M236.56,499.55l-0.28,7.44l-6.79-0.25l-0.57,15.21l-8.41-0.31l0.57-15.21l-6.79-0.25l0.28-7.44L236.56,499.55   z"></path>	</g>	<g>		<path class="st2" d="M252.15,499.62l8.42,0.04l-0.1,22.66l-8.42-0.04l0.03-7.93l-6.47-0.03l-0.03,7.93l-8.42-0.04l0.1-22.66   l8.42,0.04l-0.03,7.28l6.47,0.03L252.15,499.62z"></path>	</g>	<g>		<path class="st2" d="M271.23,514.51l10.35-0.32l0.23,7.44l-18.76,0.57l-0.69-22.65l8.41-0.26L271.23,514.51z"></path>	</g>	<g>		<path class="st2" d="M291.26,514.59l11.95-0.74l0.4,6.46l-20.35,1.26l-1.4-22.61l20.03-1.24l0.4,6.46l-11.63,0.72l0.13,2.04   l10.34-0.64l0.33,5.36l-10.34,0.64L291.26,514.59z"></path>	</g>	<g>		<path class="st2" d="M324.09,495.58l0.72,7.41l-6.76,0.66l1.47,15.14l-8.38,0.81l-1.47-15.14l-6.76,0.66l-0.72-7.41L324.09,495.58   z"></path>	</g>	<g>		<path class="st2" d="M325.06,495.38l8.48-1.06l2.82,22.48l-8.48,1.06L325.06,495.38z"></path>	</g>	<g>		<path class="st2" d="M345.55,515.5c-4.57,0.73-7.05-1.04-7.78-5.64l-1.43-8.95c-0.73-4.6,1.07-7.05,5.64-7.78l9.59-1.53   c4.57-0.73,7.05,1.04,7.78,5.64l0.49,3.07l-7.99,1.27l-0.22-1.41c-0.18-1.12-0.59-1.41-1.71-1.24l-3.77,0.6   c-1.12,0.18-1.41,0.59-1.24,1.71l0.9,5.63c0.18,1.12,0.59,1.41,1.7,1.24l3.77-0.6c1.12-0.18,1.41-0.59,1.24-1.71l-0.25-1.6   l7.99-1.27l0.52,3.26c0.73,4.6-1.07,7.05-5.64,7.78L345.55,515.5z"></path>	</g>	<g>		<path class="st2" d="M381.01,508.88c-4.5,1.08-7.11-0.49-8.19-5.02l-2.11-8.81c-1.09-4.53,0.52-7.11,5.02-8.19l9.44-2.26   c4.5-1.08,7.11,0.49,8.19,5.02l0.72,3.02l-7.87,1.89l-0.33-1.38c-0.26-1.1-0.69-1.36-1.79-1.1l-3.71,0.89   c-1.1,0.26-1.36,0.69-1.1,1.79l1.33,5.54c0.26,1.1,0.69,1.36,1.79,1.1l3.71-0.89c1.1-0.26,1.36-0.69,1.1-1.79l-0.38-1.57   l7.87-1.89l0.77,3.21c1.09,4.53-0.52,7.11-5.02,8.19L381.01,508.88z"></path>	</g>	<g>		<path class="st2" d="M405.96,494.51l9.89-3.08l2.21,7.11l-17.92,5.58l-6.73-21.63l8.03-2.5L405.96,494.51z"></path>	</g>	<g>		<path class="st2" d="M427,495.12c-4.28,1.78-7.1,0.64-8.89-3.67l-6.09-14.65l7.77-3.23l5.39,12.98c0.43,1.05,0.9,1.24,1.95,0.8   l3.23-1.34c1.05-0.43,1.24-0.9,0.8-1.95l-5.39-12.98l7.77-3.23l6.09,14.65c1.79,4.31,0.61,7.11-3.67,8.89L427,495.12z"></path>	</g>	<g>		<path class="st2" d="M462.34,468.47l0.87,1.37c2.02,3.17,1.5,5.42-1.65,7.42l-14.85,9.46l-12.18-19.11l14.31-9.11   c3.14-2,5.4-1.52,7.42,1.64l0.73,1.15c1.23,1.94,1.34,3.6,0.33,4.97C459.29,465.54,460.95,466.28,462.34,468.47z M444.94,468.27   l1.43,2.24l3.77-2.4c0.68-0.43,0.75-0.75,0.32-1.43l-0.31-0.49c-0.44-0.68-0.75-0.75-1.43-0.32L444.94,468.27z M454.69,472.12   c-0.44-0.68-0.75-0.75-1.43-0.32l-4.31,2.75l1.57,2.46l4.31-2.75c0.68-0.43,0.75-0.75,0.32-1.43L454.69,472.12z"></path>	</g></g><g>	<path class="st2" d="M200.27,378.07c-12.42,2.23-23.98-2.33-28.32-10.48c3.09,9.54,14.08,15.41,25.76,13.32  c5.21-0.93,9.72-3.32,13.11-6.54C207.71,376.08,204.15,377.37,200.27,378.07z"></path></g><g>	<g>		<path class="st2" d="M197.38,367.88c-9.64-1.38-12.31-2.78-14.56-4.24c2.19,3.7,7.57,6.86,14.1,7.31c8.02,0.55,12.16-1.36,15-4.39   C209.18,367.36,203.49,368.76,197.38,367.88z"></path>	</g></g><g>	<g>		<path class="st2" d="M222.39,390.68c-5.52-0.75-10.22-2.28-12.61-3.91c1.77,2.93,6.7,5.5,12.77,6.33   c7.09,0.97,13.32-0.78,14.98-3.96C236.03,390.98,229.74,391.68,222.39,390.68z"></path>	</g></g><g>	<g>		<path class="st2" d="M274.97,407.05c-21.16,3.76-40.03,4.05-50.52,1.38c9.46,7.61,30.25,10.49,53.51,6.36   c27.17-4.82,48.44-17.55,51.41-29.87C325.67,392.67,303.11,402.06,274.97,407.05z"></path>	</g></g><g>	<g>		<path class="st2" d="M261.93,314.89c-17.14,11.72-34.45,18.81-45.96,19.64c13.83,4.97,35.03,0.68,53.87-12.2   c22-15.04,33.28-36.68,27.85-51.28C299.41,280.89,284.71,299.31,261.93,314.89z"></path>	</g></g><g>	<path class="st2" d="M280.67,206.51c0,0,4.88,40.2-17.16,68.46c-20.4,26.16-48.27,39.53-48.27,39.53s43.9-5.72,65.71-49  C294.8,233.76,280.67,206.51,280.67,206.51z"></path></g><g>	<path class="st2" d="M217.86,282.69c0,0,32.2-29.42,40.61-50.78c8.41-21.36,9.72-42.06,5.72-59.54c7.4,6.22,15.47,37.84-1.51,67.95  C245.96,269.94,227.88,279.65,217.86,282.69z"></path></g><g>	<path class="st2" d="M231.05,111.31c0,0,16.31,36.5,15.98,57.86c-0.42,26.58-5.72,44.57-15.47,64.25  c-9.76,19.68-18,33.13-18.84,34.14c-0.84,1.01-1.6,3.56,6.52-6.21c8.12-9.77,30.78-37.91,34.19-73.85  C257.12,148.48,241.94,122.2,231.05,111.31z"></path></g><g>	<path class="st2" d="M217.02,341.43c0,0,26.14,0.14,41.62-5.41s24.71-13.28,24.71-13.28s-4.69,12.27-30.26,18.83  C227.52,348.13,217.02,341.43,217.02,341.43z"></path></g><g>	<path class="st2" d="M196.29,353.56c0,0,11.21,2.35,18.19,1.76c6.98-0.59,11.31-3.2,12.28-3.74c0.97-0.55,2.1-1.93,2.69-1.3  c0.59,0.63,1.51,2.1-2.4,4.71c-3.91,2.61-9.59,5.05-19.51,3.62C203.93,358.18,196.81,354.75,196.29,353.56z"></path></g><g>	<path class="st2" d="M226.29,360.53c0,0,9.25,5.32,18.89,3.97s16.37-7.74,17.38-9.76c1.01-2.02-0.11-2.58-5.72,1.01  C251.24,359.34,245.07,364.18,226.29,360.53z"></path></g><g>	<path class="st2" d="M219.25,372.29c0,0,6.08,4.99,13.48,5.33c7.4,0.34,13.82-0.49,17.73-4.73c0,0-8.98,1.81-14.81,1.59  C229.82,374.25,219.25,372.29,219.25,372.29z"></path></g><g>	<path class="st2" d="M179.47,383.32c0,0,3.65,14.76,23.16,19.14s25.85-3.93,25.85-3.93s-7.69,3.93-19.46,1.57  C197.25,397.75,193.48,395.3,179.47,383.32z"></path></g><g>	<path class="st2" d="M260.81,423.84c0,0,30.62,13.6,52.32,3.34c21.7-10.26,25.76-34.65,25.76-34.65s-12.14,21.2-20.72,26.07  s-13.29,9.25-29.1,8.07C273.27,425.5,260.81,423.84,260.81,423.84z"></path></g><g>	<path class="st2" d="M257.6,429.75c0,0,15.5,11.34,32.09,14.03c16.6,2.69,30.95-3.43,33.98-11.25c0.39-1.4,0.39-2.32-3.65,0.12  s-10.68,10.26-24.89,8.49C280.92,439.37,257.6,429.75,257.6,429.75z"></path></g><g>	<path class="st2" d="M120.25,271.25c4.75,24.44,5.96,41.81,1.7,62.41c9.7-21.77,11.47-43.1,5.9-71.75  c-8.91-45.86-37.65-80.84-70.23-90.13C86.37,187.27,111.17,224.53,120.25,271.25z"></path></g><g>	<path class="st2" d="M92.8,185.74c0,0-4.52-2.55-3.98-3.59c0.54-1.04,2.81,0.39,6.25,2.91c3.45,2.52,22.12,16.06,31.7,41.71  c6.84,18.3,8.58,40.7,7.23,51.8c-0.25,1.51-1.51,2.61-1.43-1.01c0.08-3.62-0.25-14.97-1.09-21.44  c-0.84-6.48-5.13-30.11-16.99-47.18C103.07,192.49,92.8,185.74,92.8,185.74z"></path>	<path class="st2" d="M133.16,280.5c-0.02,0-0.05,0-0.07,0c-0.96-0.09-1.04-1.72-1.01-2.94c0.09-3.78-0.27-15.04-1.09-21.37  c-0.15-1.14-3.77-28.05-16.9-46.96c-11.05-15.91-21.13-22.79-21.55-23.07c-2.25-1.27-4.79-3.03-4.17-4.24  c0.15-0.3,0.41-0.5,0.74-0.58c1.1-0.27,2.97,0.91,6.26,3.32c14.4,10.54,25.7,25.41,31.88,41.94c6.65,17.8,8.71,40.1,7.26,52.04  C134.34,279.59,133.84,280.5,133.16,280.5z M89.45,182.31c-0.04,0-0.08,0-0.12,0.01c-0.05,0.48,1.72,1.86,3.71,2.98l0.03,0.02  c0.1,0.07,10.48,7,21.83,23.34c13.27,19.11,16.92,46.25,17.07,47.4c0.83,6.37,1.19,17.71,1.1,21.52c-0.02,1.01,0.06,1.52,0.14,1.76  c0.11-0.17,0.23-0.46,0.3-0.85c1.43-11.8-0.61-33.89-7.21-51.55c-6.11-16.35-17.28-31.06-31.46-41.44  C93.46,184.51,90.45,182.31,89.45,182.31z"></path></g><g>	<path class="st2" d="M125.88,206.39c0,0-3.46-2.73-2.86-3.5c0.6-0.76,2.32,0.73,4.88,3.29s16.43,16.3,20.9,38.51  c3.19,15.85,1.48,34.26-1.23,43.06c-0.43,1.19-1.65,1.89-1.07-1.03c0.58-2.92,1.91-12.17,2.12-17.54s-0.07-25.16-7.67-40.76  C133.6,213.38,125.88,206.39,125.88,206.39z"></path>	<path class="st2" d="M146.68,289.78c-0.11,0-0.22-0.02-0.34-0.05c-1.4-0.39-0.99-2.44-0.84-3.21c0.61-3.03,1.9-12.17,2.1-17.39  c0.04-0.94,0.79-23.13-7.57-40.28c-6.96-14.26-14.35-21.28-14.81-21.71c-4.21-3.34-3.33-4.45-3-4.88c0.27-0.35,0.67-0.55,1.11-0.58  c1.19-0.08,2.64,1.16,5.26,3.78c10.77,10.75,18.27,24.59,21.17,39.02c3.12,15.52,1.68,34.02-1.26,43.56  C148.19,288.94,147.51,289.78,146.68,289.78z M134.88,215.85c2.18,3.23,4.58,7.25,6.96,12.12c5.75,11.8,7.3,25.89,7.69,34.17  c-0.07-5.76-0.59-11.71-1.71-17.27C145.73,234.57,141.25,224.57,134.88,215.85z"></path></g><g>	<path class="st2" d="M156.2,377.29c-4.72-4.93-6.2-10.86-5.25-17.48c0.2-1.39,0.79-2.61-1.37-3.06c-2.37-0.5-1.69,1.29-1.95,2.28  c-0.82,3.14-0.66,6.36-0.66,10.15c-2.29-3.88-2.19-7.65-1.87-11.34c0.17-1.97-0.22-3.12-1.96-4.2c-6.29-3.9-11.54-9.09-16.89-14.13  c-3.52-3.32-7.16-6.46-11.15-9.21c-7.28-5.01-14.83-4.58-21.44,1.28c-1.11,0.98-2.14,2.08-3.1,3.22c-4.03,4.76-4.01,4.77-0.73,9.59  c-0.75,0.61-1.64,0.79-2.56,0.67c-5.03-0.64-5.19-0.57-8.69,4.25c1.91-0.44,3.55-0.7,5.11-1.21c4.64-1.54,8.28,0.09,11.55,3.32  c7.21,7.14,12.15,15.81,16.76,24.71c5.44,10.5,10.26,21.36,16.65,31.32c12.92,20.11,31.82,30.19,55.42,31.96  c9.34,0.7,18.62,0.14,27.85-1.35c0.44-0.07,0.93,0,1.31-1c-10.58,0.45-21.08,2.15-31.36-0.95c16.48-0.13,32.82-2.05,49.2-3.54  c2.95-0.27,6.13-1.3,8.83-0.56c13.09,3.57,25.48,8.54,33.78,20.23c3.39,4.78,6.84,9.52,10.27,14.27c5.01,6.95,9.18,7.64,15.77,2.3  c3.11-2.52,5.93-5.42,8.87-8.15c-1.75,4.88-8.78,12.14-13.39,13.63c-3.45,1.11-6.56,0.4-9.22-2.18  c-5.22-5.05-9.65-10.76-14.08-16.48c-8.86-11.45-20.59-17.65-34.87-19.27c-2.12-0.24-4.08,0.07-6.08,0.78  c-12.93,4.62-26.13,8.15-39.93,8.74c-27.27,1.16-50.44-6.86-66.02-30.67c-7.69-11.76-12.54-25.02-18.51-37.68  c-2.99-6.34-6.19-12.55-9.95-18.47c-4.39-6.92-9.99-10.68-18.47-7.92c-0.86,0.28-1.8,0.31-3.1,0.52c1.97-4.21,4.73-7.53,7.33-10.84  c1.29-1.64,2.35-3.28,3.25-5.1c4.94-10,17.11-16,26.61-13.07c3.23,1,6.03,2.79,8.53,5.03c1.97,1.77,2.68,1.35,2.93-1.24  c0.96-10,0.76-19.99-0.1-29.98c-1.87-21.57-5.88-42.67-14.27-62.74c-8.58-20.54-20.45-38.72-38.25-52.58  c-0.35-0.27-0.59-0.68-1.29-1.5c4.19,0.72,7.21,2.7,10.23,4.57c15.18,9.39,25.24,23.18,32.66,39.02  c12.43,26.55,17.51,54.56,15.48,83.78c-0.47,6.74-1.48,13.48-3.39,20.01c-0.69,2.35-0.23,4.06,1.51,5.87  c5.91,6.11,11.26,12.75,17.76,18.28c1.46,1.25,2.04,1.68,2.75-0.77c4.64-15.94,11.69-30.81,20.68-44.75  c0.7-1.08,1.32-2.1,1.31-3.46c-0.09-24.16-4.67-47.23-16.68-68.48c-0.61-1.09-1.34-2.11-2.05-3.23c1.76-1.39,2.49,0.29,3.27,1.11  c6.12,6.49,9.63,14.45,12.63,22.68c4.85,13.32,7.22,27.05,6.82,41.24c-0.01,0.42,0.04,0.84,0.11,2.25  c4.41-6.29,8.43-11.77,12.18-17.42c13.26-19.94,24.62-40.86,32.65-63.51c7.27-20.52,9.41-41.59,7.21-63.17  c-1.01-9.9-2.2-19.79-3.13-29.7c-0.45-4.76-0.17-9.52,1.79-14.04c0.58,7.42,1.62,14.74,2.86,22.05  c1.85,10.85,3.53,21.73,4.66,32.69c1.53,14.82-0.13,29.37-3.43,43.79c-7.13,31.18-22.78,58.13-41.78,83.35  c-10.37,13.76-20.92,27.37-28.87,42.75c-2.74,5.31-5.06,10.81-7.21,16.38c-0.17,0.43-0.35,0.86-0.44,1.31  c-0.24,1.11-0.67,2.25,0.92,2.86c1.63,0.63,2.01-0.5,2.45-1.56c2.16-5.22,5.08-10.03,7.92-14.89c0.83-0.07,1.08,0.46,1.18,1.14  c-2.6,6.87-6.4,13.28-7.84,20.59c-1.1,5.58,0.1,10.76,2.84,15.65C156.56,376.44,156.38,376.87,156.2,377.29z"></path></g><g>	<circle class="st2" cx="100.23" cy="337.21" r="5.05"></circle></g><g>	<ellipse transform="matrix(0.866 -0.5 0.5 0.866 -154.4068 95.8986)" class="st3" cx="101.75" cy="336.08" rx="3.36" ry="2.35"></ellipse></g></svg>