<?xml version="1.0" encoding="UTF-8"?>
<!DOCTYPE svg PUBLIC "-//W3C//DTD SVG 1.1//EN" "http://www.w3.org/Graphics/SVG/1.1/DTD/svg11.dtd">
<!-- Creator: CorelDRAW 2019 (64-Bit) -->
<svg xmlns="http://www.w3.org/2000/svg" xml:space="preserve" width="177.128mm" height="177.128mm" version="1.1" style="shape-rendering:geometricPrecision; text-rendering:geometricPrecision; image-rendering:optimizeQuality; fill-rule:evenodd; clip-rule:evenodd"
viewBox="0 0 177.128 177.1279"
 xmlns:xlink="http://www.w3.org/1999/xlink"
 xmlns:xodm="http://www.corel.com/coreldraw/odm/2003">
 <defs>
  <style type="text/css">
   <![CDATA[
    .fil1 {fill:#00973A}
    .fil2 {fill:#FFDD00}
    .fil0 {fill:#FFDD12}
   ]]>
  </style>
 </defs>
 <g id="Layer_x0020_1">
  <metadata id="CorelCorpID_0Corel-Layer"/>
  <g id="_816952688">
   <path class="fil0" d="M177.128 88.564c0,23.4887 -9.3313,46.015 -25.9395,62.6241 -16.6094,16.6092 -39.1358,25.9398 -62.6245,25.9398 -23.4887,0 -46.015,-9.3306 -62.6241,-25.9398 -16.6092,-16.6091 -25.9399,-39.1354 -25.9399,-62.6241 0,-23.4888 9.3307,-46.0151 25.9399,-62.6246 16.6091,-16.6082 39.1354,-25.9394 62.6241,-25.9394 23.4887,0 46.0151,9.3312 62.6245,25.9394 16.6082,16.6095 25.9395,39.1358 25.9395,62.6246z"/>
   <path class="fil1" d="M81.0496 157.0891l1.8789 -0.6261c0,0 2.594,5.0096 5.6355,5.4569l0.2687 -5.9043 0.6259 0.716 -0.0894 5.2777c0,0 3.3995,0.8946 6.8883,-4.5623l1.4315 -0.4474c0,0 -2.6841,6.4411 -8.3198,6.5304l0 4.0261c0,0 4.1149,-0.1792 9.0351,6.2617l-1.9679 0.8946c0,0 -3.2209,-4.9202 -7.1571,-5.5463l-0.1787 5.0991 -1.0733 -1.1629 0.268 -3.9362c0,0 -4.3828,-0.358 -7.6037,5.0097l-0.8945 0.0894c0,0 1.5208,-6.1724 8.4982,-6.7091l0.2687 -4.1154c0,-0.0894 -4.9201,-0.2682 -7.5144,-6.3516z"/>
   <path class="fil2" d="M150.737 89.5479c0,-14.2238 -4.8304,-27.2844 -12.9708,-37.7515l0 75.5032c8.1404,-10.3771 12.9708,-23.5277 12.9708,-37.7517z"/>
   <path class="fil2" d="M137.0503 129.3571l0 -79.6186 1.2521 1.6102c8.5883,11.0935 13.0621,24.244 13.0621,38.1992 0,13.9554 -4.5635,27.1954 -13.0621,38.199l-1.2521 1.6102zm1.4317 -75.413l0 0 0 71.2981c7.5145,-10.3778 11.5405,-22.723 11.5405,-35.6943 0,-12.9712 -4.026,-25.2271 -11.5405,-35.6038z"/>
   <path class="fil2" d="M98.7623 28.7157l0 121.6643c6.799,-1.074 13.3294,-3.3101 19.1443,-6.441l0 -108.7816c-5.9043,-3.1317 -12.3453,-5.3679 -19.1443,-6.4417z"/>
   <path class="fil2" d="M98.0464 151.2741l0 -123.3629 0.8054 0.0898c6.7988,1.0726 13.3292,3.2203 19.4123,6.4406l0.3579 0.1783 0 109.7659 -0.3579 0.1792c-6.0831,3.2203 -12.6135,5.3676 -19.4123,6.4411l-0.8054 0.268zm1.4314 -121.7528l0 0 0 120.0534c6.1728,-1.0735 12.1666,-3.0416 17.8022,-5.9937l0 -108.0656c-5.6356,-2.8636 -11.6294,-4.9202 -17.8022,-5.9941z"/>
   <path class="fil2" d="M27.4639 89.5479c0,14.224 4.8309,27.2847 12.9715,37.7517l0 -75.5032c-8.1406,10.4671 -12.9715,23.5277 -12.9715,37.7515z"/>
   <path class="fil2" d="M41.1511 129.3571l-1.2526 -1.6102c-8.5877,-11.0036 -13.0605,-24.2436 -13.0605,-38.199 0,-13.9552 4.4728,-27.1057 13.0605,-38.1992l1.2526 -1.6102 0 79.6186zm-1.4314 -75.413l0 0c-7.5149,10.3767 -11.5402,22.722 -11.5402,35.6933 0,12.9718 3.9361,25.227 11.5402,35.6941l0 -71.3874z"/>
   <path class="fil2" d="M60.2953 35.1574l0 108.8709c5.7252,3.0416 11.9874,5.1884 18.6071,6.3517l0 -121.5746c-6.6197,1.0739 -12.8819,3.3101 -18.6071,6.352z"/>
   <path class="fil2" d="M79.6182 151.1848l-0.8051 -0.1787c-6.6198,-1.0735 -12.9715,-3.2208 -18.8758,-6.3517l-0.358 -0.1787 0 -109.766 0.358 -0.1784c5.9043,-3.1317 12.256,-5.2781 18.8758,-6.3519l0.8051 -0.1784 0 123.1838zm-18.6074 -7.6038l0 0c5.4569,2.8628 11.1825,4.8309 17.2654,5.9042l0 -119.8741c-6.0829,1.1624 -11.8978,3.1305 -17.2654,5.9043l0 108.0656z"/>
   <path class="fil1" d="M40.4354 51.7964l0 75.5032c5.3674,6.8883 12.0769,12.6133 19.8599,16.7287l0 -108.8709c-7.783,4.1146 -14.4925,9.7507 -19.8599,16.639z"/>
   <path class="fil1" d="M61.0108 145.1911l-1.0735 -0.5367c-7.7828,-4.1149 -14.6713,-9.9298 -20.0388,-16.9075l-0.1788 -0.1792 0 -76.0395 0.1788 -0.1795c5.3675,-6.9769 12.3454,-12.7926 20.0388,-16.9071l1.0735 -0.5363 0 111.2858zm-19.8597 -18.0707l0 0c5.0097,6.3516 11.3612,11.8085 18.4282,15.7447l0 -106.5452c-7.067,3.9361 -13.4185,9.3939 -18.4282,15.7446l0 75.0559z"/>
   <path class="fil1" d="M89.1006 28.001c-3.4887,0 -6.8881,0.2681 -10.1982,0.8044l0 121.4846c3.3101,0.5374 6.7095,0.8054 10.1982,0.8054 3.31,0 6.5303,-0.268 9.6617,-0.7154l0 -121.6643c-3.1314,-0.4466 -6.3517,-0.7147 -9.6617,-0.7147z"/>
   <path class="fil1" d="M89.1006 151.9007c-3.3992,0 -6.8881,-0.2685 -10.2875,-0.8946l-0.6261 -0.0894 0 -122.7373 0.6261 -0.0899c6.62,-1.0726 13.4184,-1.1623 20.0387,-0.0885l0.626 0.0885 0 122.9166 -0.626 0.0893c-3.2209,0.5368 -6.5304,0.8053 -9.7512,0.8053zm-9.4824 -2.1473l0 0c6.0832,0.984 12.3453,0.984 18.4282,0.0899l0 -120.5003c-6.0829,-0.8955 -12.345,-0.8955 -18.4282,0.0885l0 120.3219z"/>
   <path class="fil1" d="M137.7662 127.2996l0 -75.5032c-5.368,-6.8883 -12.0768,-12.613 -19.8596,-16.7288l0 108.8714c7.7828,-4.0261 14.4916,-9.7511 19.8596,-16.6394z"/>
   <path class="fil1" d="M117.1906 145.1911l0 -111.1973 1.0735 0.5375c7.7833,4.1146 14.6716,9.929 20.0383,16.9072l0.1796 0.1796 0 76.0389 -0.1796 0.1792c-5.3667,6.9778 -12.3447,12.7926 -20.0383,16.9076l-1.0735 0.4473zm1.4314 -108.8712l0 0 0 106.5452c7.0674,-3.9362 13.4182,-9.3931 18.4283,-15.7447l0 -75.0559c-5.0101,-6.3507 -11.3609,-11.8085 -18.4283,-15.7446z"/>
   <path class="fil0" d="M125.4214 106.098l-73.7143 0c-3.4889,0 -6.3516,-2.8628 -6.3516,-6.3517l0 -22.4542c0,-3.4888 2.8627,-6.3515 6.3516,-6.3515l73.7143 0c3.4883,0 6.3507,2.8627 6.3507,6.3515l0 22.5437c0,3.3994 -2.8624,6.2622 -6.3507,6.2622z"/>
   <path class="fil1" d="M125.4214 106.7241l-73.7143 0c-3.8469,0 -6.9777,-3.1309 -6.9777,-6.9778l0 -22.4542c0,-3.8467 3.1308,-6.9776 6.9777,-6.9776l73.7143 0c3.8463,0 6.9768,3.1309 6.9768,6.9776l0 22.5437c0,3.7574 -3.1305,6.8883 -6.9768,6.8883zm-73.7143 -35.1575l0 0c-3.1309,0 -5.6357,2.5054 -5.6357,5.6362l0 22.5435c0,3.1309 2.5048,5.6358 5.6357,5.6358l73.7143 0c3.1304,0 5.6348,-2.5049 5.6348,-5.6358l0 -22.4542c0,-3.1308 -2.5044,-5.6356 -5.6348,-5.6356l-73.7143 0 0 -0.0899z"/>
   <polygon class="fil1" points="65.7523,98.0464 65.7523,96.7049 63.0683,96.7049 63.0683,81.4071 65.7523,81.4071 65.7523,80.0656 57.9693,80.0656 57.9693,81.497 60.5634,81.497 60.5634,96.0783 57.9693,96.0783 57.9693,98.0464 "/>
   <polygon class="fil1" points="119.6955,97.8677 113.1651,88.6533 118.622,80.0656 103.4141,80.0656 103.4141,97.8677 106.5455,97.8677 111.3757,90.8899 116.6538,97.8677 "/>
   <polygon class="fil2" points="105.8294,95.8996 115.9384,81.139 105.8294,81.139 "/>
   <path class="fil1" d="M91.0395 82.0221c3.3539,3.3538 3.0986,9.0461 -0.5695,12.7147 -3.6679,3.668 -9.3604,3.9227 -12.714,0.5689 -3.354,-3.3538 -3.0993,-9.0461 0.5693,-12.7142 3.6681,-3.6681 9.3603,-3.9232 12.7142,-0.5694z"/>
   <path class="fil2" d="M91.3373 88.6533c0,4.4959 -3.0438,8.1409 -6.7989,8.1409 -3.7549,0 -6.7988,-3.645 -6.7988,-8.1409 0,-4.4958 3.0439,-8.1404 6.7988,-8.1404 3.7551,0 6.7989,3.6446 6.7989,8.1404z"/>
   <path class="fil1" d="M86.0425 87.0192c0.8383,0.8385 0.7817,2.2544 -0.1269,3.1629 -0.9081,0.9082 -2.3242,0.9649 -3.1625,0.1265 -0.8387,-0.8385 -0.7819,-2.2545 0.1263,-3.1625 0.9085,-0.9086 2.3247,-0.9653 3.1631,-0.1269z"/>
   <polygon class="fil0" points="88.8327,39.272 86.5065,46.1603 79.2602,46.2501 85.1645,50.5442 83.0177,57.3432 88.8327,53.0486 94.6469,57.3432 92.5001,50.5442 98.4043,46.2501 91.0687,46.1603 "/>
   <polygon class="fil1" points="101.8932,5.4565 99.5672,12.3448 92.3214,12.4346 98.2257,16.7288 96.0784,23.6171 101.8932,19.323 107.7081,23.6171 105.5613,16.7288 111.4657,12.4346 104.13,12.3448 "/>
   <polygon class="fil1" points="124.3475,13.1505 122.0215,20.0388 114.7752,20.0388 120.6795,24.333 118.4432,31.2213 124.3475,26.9272 130.162,31.2213 128.0155,24.4227 133.83,20.0388 126.5838,20.0388 "/>
   <polygon class="fil1" points="144.9226,28.1794 142.5967,35.0676 135.3504,35.1574 141.2547,39.4516 139.1082,46.3399 144.9226,42.0458 150.737,46.3399 148.5906,39.4516 154.4949,35.1574 147.1589,35.0676 "/>
   <polygon class="fil1" points="76.845,5.2782 74.5187,12.1665 67.2731,12.2563 73.1773,16.5504 71.0299,23.3489 76.845,19.0548 82.7491,23.3489 80.513,16.5504 86.4173,12.2563 79.171,12.1665 "/>
   <polygon class="fil1" points="54.4805,13.1505 52.1545,20.0388 44.9082,20.0388 50.8125,24.333 48.5762,31.2213 54.4805,26.9272 60.2953,31.2213 58.1482,24.4227 64.0523,20.0388 56.7166,20.0388 "/>
   <polygon class="fil1" points="33.9942,28.1794 31.7582,35.0676 24.5117,35.1574 30.4159,39.4516 28.1795,46.3399 33.9942,42.0458 39.8985,46.3399 37.6623,39.4516 43.5666,35.1574 36.3202,35.0676 "/>
   <path class="fil1" d="M89.1006 152.0794c-34.4415,0 -62.5314,-28.0899 -62.5314,-62.5315 0,-34.4414 28.0899,-62.531 62.5314,-62.531 34.4412,0 62.532,28.0896 62.532,62.531 0,34.4416 -28.0908,62.5315 -62.532,62.5315zm0 -123.7205l0 0c-33.7255,0 -61.1893,27.463 -61.1893,61.189 0,33.7262 27.4638,61.1895 61.1893,61.1895 33.7262,0 61.1899,-27.4633 61.1899,-61.1895 0,-33.726 -27.4637,-61.189 -61.1899,-61.189z"/>
   <path class="fil1" d="M122.1109 150.9167c0.0892,0 0.0892,0 0.0892,0 0.0899,0.1787 0.0899,0.2681 0.1793,0.4473 0,0.0893 0,0.0893 -0.0894,0.0893 -0.6265,0.2682 -0.8946,0.4474 -1.5212,0.7156 -0.0893,0 -0.0893,0.0893 -0.0893,0.0893 1.2525,3.5787 1.8786,5.2782 3.2203,8.8564 0.4477,1.2526 0.5375,2.2367 0.358,3.1313 -0.2683,1.1629 -1.2523,2.3261 -3.0417,3.3995 -0.0892,0 -0.0892,0 -0.1786,0 -0.1789,-0.0893 -0.2687,-0.1792 -0.358,-0.2685 0,0 0,0 -0.0895,0 -0.0893,0 0,-0.0894 0,-0.0894 0.716,-0.6261 1.1629,-1.0735 1.4315,-1.4315 0.4474,-0.7154 0.5366,-1.5207 0.3579,-2.5942 -0.0894,-0.3579 -0.1793,-0.8052 -0.3579,-1.2525 -1.1629,-3.5782 -1.6994,-5.4569 -2.8628,-9.0351 0,-0.0895 -0.0893,-0.0895 -0.0893,-0.0895 -0.6262,0.1788 -0.9842,0.1788 -1.6103,0.3575 -0.0893,0 -0.0893,0 -0.0893,-0.0893 -0.0898,-0.1787 -0.0898,-0.2682 -0.0898,-0.4474 0,-0.0893 0,-0.0893 0.0898,-0.0893 1.9682,-0.6261 2.8622,-0.8947 4.7411,-1.6995z"/>
   <path class="fil1" d="M129.178 159.2364c0.5374,-0.2687 0.984,-0.2687 1.4317,0 0.0897,0.0893 0.1784,0.1787 0.2681,0.3574 0.0899,0.2687 0.0899,0.5367 0,0.8053 -0.1784,0.358 -0.4477,0.5367 -0.7158,0.7155 -0.3579,0.1792 -0.7159,0.1792 -0.984,0.1792 -0.358,-0.0893 -0.5363,-0.2685 -0.7159,-0.5367 -0.0887,-0.2685 -0.0887,-0.5367 0.0897,-0.8946 0.0899,-0.2687 0.3579,-0.4474 0.6262,-0.6261z"/>
   <path class="fil1" d="M134.5459 147.3379c-0.0898,0 -0.0898,0 -0.0898,0 -0.6261,-0.5367 -0.9841,-0.8048 -1.6101,-1.4308l-0.0899 0c-0.5363,0.1787 -1.1624,0.3575 -1.61,0.8049 -0.5364,0.3579 -0.8944,0.8052 -1.1624,1.3419 -0.2683,0.6261 -0.1796,1.1628 0.0884,1.6995 0.2695,0.5366 0.8057,0.8053 1.4319,0.8947 0.4477,0.0893 1.0737,0 1.7896,-0.1788 0.5364,-0.0893 0.8944,-0.1793 1.4307,-0.358 1.1636,-0.268 1.9681,-0.4472 2.684,-0.4472 0.8057,0 1.5203,0.3579 2.0579,0.984 0.8044,0.9841 0.984,2.0574 0.4465,3.3101 -0.4465,1.1628 -1.4307,2.2361 -2.8624,3.2202 -0.7159,0.4473 -1.6102,0.8947 -2.684,1.3421 -0.2682,0.0893 -0.5363,0.1792 -0.8044,0.2685 -0.0899,0 -0.0899,0 -0.1796,0 -0.5363,-0.9841 -0.8046,-1.4314 -1.3421,-2.4154 0,-0.0894 0,-0.0894 0.0899,-0.0894 0.3579,-0.1792 0.4476,-0.2686 0.8056,-0.4473 0.0886,0 0.0886,0 0.0886,0 0.6273,0.6261 0.8955,0.8947 1.4318,1.5207 0,0 0,0 0.0898,0l0.0897 0c0.6261,-0.0893 1.3408,-0.4473 2.1465,-0.984 0.8058,-0.5367 1.342,-1.1633 1.6999,-1.8787 0.358,-0.8053 0.2683,-1.4314 -0.1796,-1.9681 -0.6261,-0.8053 -1.7884,-0.8946 -3.3985,-0.5367 -0.6262,0.1788 -0.8955,0.1788 -1.5216,0.358 -1.0726,0.2681 -1.9682,0.2681 -2.5942,0.1787 -0.8943,-0.1787 -1.4305,-0.5367 -1.8784,-1.2527 -0.3579,-0.626 -0.4476,-1.4308 -0.3579,-2.1468 0.0899,-0.7154 0.4478,-1.4313 0.984,-2.0574 0.358,-0.3579 0.7159,-0.716 1.1636,-1.0735 0.6263,-0.4474 1.2523,-0.8053 1.9683,-1.1632 0.1783,-0.0894 0.4464,-0.1788 0.6259,-0.2682 0.0887,0 0.0887,0 0.0887,0 0.7158,0.8947 1.0738,1.2522 1.6998,2.147 0,0.0892 0,0.0892 0,0.0892 -0.1782,0.2687 -0.2681,0.358 -0.5362,0.5367z"/>
   <path class="fil1" d="M143.2226 149.5747c0.4479,-0.4474 0.8956,-0.5367 1.342,-0.4474 0.1796,0 0.2683,0.0894 0.358,0.1787 0.1796,0.1792 0.2681,0.4474 0.1796,0.8053 -0.0897,0.358 -0.1796,0.6261 -0.4477,0.8948 -0.2682,0.268 -0.6262,0.4472 -0.8943,0.4472 -0.358,0 -0.626,-0.0893 -0.8056,-0.2685 -0.1783,-0.1787 -0.2683,-0.5367 -0.1783,-0.8048 0,-0.2687 0.1783,-0.5367 0.4463,-0.8053z"/>
   <path class="fil1" d="M138.3024 139.8236c0,0 -0.0884,-0.0894 0,-0.0894 1.2535,-1.342 1.7898,-2.0575 2.8636,-3.5782 0,-0.0893 0.0887,-0.0893 0.0887,0 0.1795,0.0894 0.2693,0.1787 0.3579,0.2681l0 0.0893c-0.2683,0.4474 -0.3579,0.716 -0.6262,1.1633l0 0.0894c1.6103,1.2527 2.3262,1.7894 3.9362,3.0416 -0.2681,-2.8629 -0.5363,-4.2943 -1.2521,-6.8883 0,0 0,-0.0895 -0.0899,-0.0895l-0.0885 0c-0.1795,0.2687 -0.2695,0.358 -0.5375,0.6262 0,0.0893 -0.0899,0.0893 -0.0899,0 -0.1784,-0.0895 -0.268,-0.1788 -0.3567,-0.2682 -0.0897,0 -0.0897,-0.0893 0,-0.0893 0.8046,-1.2527 1.2522,-1.9681 1.9682,-3.3102 0,-0.0893 0.0884,-0.0893 0.0884,0 0.1796,0.0894 0.2683,0.0894 0.4479,0.1788 0.0897,0 0.0897,0.0893 0,0.0893 -0.2683,0.7159 -0.4479,0.9841 -0.7159,1.7 0,0 0,0 0,0.0894 0.626,2.2367 0.8941,3.3995 1.2521,5.8149l0 0.0894c0,0 0,0 0.0899,0 3.3099,-0.2687 5.0099,-0.6261 8.3201,-1.5208l0.0885 0c0.4477,-0.716 0.7159,-1.0734 1.1636,-1.8787 0,-0.0893 0.0899,-0.0893 0.1784,-0.0893 0.1796,0.0893 0.2681,0.0893 0.4477,0.1787 0.0899,0 0.0899,0.0893 0,0.1792 -1.0738,2.2363 -1.7,3.3096 -3.042,5.2777 0,0.0899 -0.0896,0.0899 -0.1783,0.0899 -0.1796,-0.0899 -0.2681,-0.1792 -0.358,-0.2686 -0.0897,0 -0.0897,-0.0895 0,-0.1788 0.1784,-0.3579 0.2683,-0.5367 0.5363,-0.8947l0 -0.0893 -0.0896 -0.0899c-2.7727,0.6265 -4.1147,0.8053 -6.7088,0.984l-0.0899 0 0 0.0899c0,0.3575 0.0899,0.5367 0.0899,0.8941 0,0 0,0 0,0.09 1.342,1.0733 2.0579,1.6101 3.3999,2.6835 0.0885,0 0.0885,0 0.0885,0 0.4477,-0.4473 0.6261,-0.7154 1.0739,-1.1628 0,-0.0893 0.0897,-0.0893 0.0897,0 0.1784,0.0894 0.2683,0.1787 0.4465,0.2682 0.0899,0 0.0899,0.0893 0,0.1792 -1.342,1.8781 -2.1465,2.7729 -3.6668,4.5622 -0.0897,0.0893 -0.0897,0.0893 -0.1796,0 -0.1783,-0.0894 -0.1783,-0.1787 -0.3579,-0.3579 -0.0897,0 -0.0897,-0.0894 0,-0.1788 0.4478,-0.626 0.7159,-0.8947 1.1637,-1.5208 0.0885,-0.0893 0.0885,-0.0893 0,-0.1792 -3.2215,-2.6835 -4.8318,-4.0255 -8.052,-6.7984 -0.0897,0 -0.0897,0 -0.0897,0 -0.4465,0.4468 -0.6261,0.626 -1.1624,1.0733 0,0.0895 -0.0899,0.0895 -0.0899,0 -0.1784,-0.0893 -0.2681,-0.1792 -0.358,-0.2685z"/>
   <path class="fil1" d="M40.3459 137.4975l0 0.0899c-4.0257,2.8622 -5.9937,4.2936 -9.93,7.1564 -0.0891,0 -0.0891,0.0894 0,0.1793 0.4475,0.6259 0.6263,0.984 1.0735,1.61 0,0.0894 0,0.0894 0,0.0894 -0.1786,0.0895 -0.2686,0.1787 -0.4472,0.358l-0.0894 0c-1.5209,-1.9681 -2.2368,-3.0415 -3.5783,-5.1888 0,-0.0894 0,-0.0894 0,-0.0894 0.1788,-0.0894 0.2683,-0.1787 0.4475,-0.2687l0.0893 0c0.4473,0.7161 0.7155,0.9841 1.2521,1.7001 0,0 0,0.0893 0.0894,0.0893l0.0898 0c3.4888,-2.326 5.2777,-3.4888 8.7665,-5.8148 0.09,0 0.09,-0.0894 0.09,-0.1788 -0.5368,-0.5368 -0.8054,-0.8947 -1.2528,-1.5208l0 -0.0893c0.1788,-0.1792 0.2688,-0.1792 0.358,-0.3579 0,0 0,0 0.0894,0 1.0734,0.8053 1.6102,1.1627 2.6836,1.7893l0.0898 0.0893c0.0894,0.1788 0.0894,0.1788 0.1788,0.3575z"/>
   <path class="fil1" d="M38.9145 151.5427c0.3579,-0.0894 0.8052,-0.1787 1.342,-0.4473 0.4474,-0.1787 0.984,-0.4473 1.5208,-0.8054 -0.8053,-0.1787 -1.6102,-0.5366 -2.2368,-1.1627 -0.9839,-0.8946 -1.4314,-1.8787 -1.3414,-2.9521 0,-1.0734 0.5366,-1.9681 1.4314,-2.7734 0.7154,-0.626 1.4308,-0.9841 2.236,-1.1628 0.8054,-0.1787 1.6103,-0.1787 2.3262,0.0894 0.4473,0.1792 0.8947,0.4474 1.3421,0.8053 0.894,0.8053 1.252,1.7894 1.1627,3.0415 -0.0895,1.1627 -0.5367,2.2367 -1.342,3.3995 -1.4315,1.8786 -3.3101,3.1308 -5.725,3.3995 -2.058,0.268 -4.1154,-0.4474 -6.0836,-2.2368 -0.0893,-0.0893 -0.0893,-0.0893 0,-0.1787 0.1793,-0.1787 0.2685,-0.2687 0.358,-0.5367 0,0 0.0893,0 0.1788,0 1.2525,0.9841 2.4155,1.4313 3.4888,1.5207 0.5366,0.0895 0.9841,0.0895 1.342,0zm3.668 -1.8786l0 0c0.3575,-0.2682 0.4469,-0.4474 0.8049,-0.7156 0.2685,-0.2685 0.5366,-0.5366 0.716,-0.8053 0.4474,-0.4472 0.7154,-1.0733 0.894,-1.6101 0.2686,-0.626 0.3581,-1.2526 0.2686,-1.7893 -0.0893,-0.358 -0.1786,-0.7155 -0.5366,-0.984 -0.4474,-0.4473 -1.0735,-0.5368 -1.7,-0.358 -0.626,0.1792 -1.1629,0.5372 -1.7889,1.1632 -0.7159,0.7155 -1.1632,1.4314 -1.2525,2.147 -0.0895,0.8052 0.1791,1.5207 0.8945,2.1472 0.358,0.3575 0.8054,0.626 1.2528,0.8049 0.1786,-0.0894 0.3573,0 0.4472,0z"/>
   <path class="fil1" d="M48.397 157.3576c0,-0.0893 0,-0.0893 -0.0893,-0.1792 -1.9681,-1.0734 -2.9522,-1.6995 -4.7411,-2.9522 0,-0.1787 0.0893,-0.268 0.0893,-0.4467 0,0 0,-0.0899 0.0895,-0.0899 4.3833,-1.3415 6.4409,-2.3256 10.1085,-4.5623l0.0898 0c0.1788,0.0894 0.2683,0.1787 0.4474,0.2686 0,0 0.0894,0.0893 0,0.0893 -1.4314,2.8629 -2.1472,4.3836 -3.5786,7.2464 0,0.0893 0,0.0893 0.0892,0.1787 0.6265,0.358 0.984,0.4473 1.7,0.8053 0.0894,0 0.0894,0.0893 0,0.0893 -0.1786,0.4474 -0.2686,0.7156 -0.5367,1.1628 0,0.0894 -0.0894,0.0894 -0.0894,0 -0.7159,-0.268 -1.0739,-0.4472 -1.6999,-0.8053 -0.0894,0 -0.1787,0 -0.1787,0 -0.4473,0.8947 -0.7159,1.3421 -1.1633,2.3262 0,0.0893 0,0.0893 0.0899,0.1792 0.5366,0.268 0.8047,0.4468 1.2521,0.8048 0.0894,0 0.0894,0.0893 0.0894,0.0893 -0.0894,0.1792 -0.0894,0.2687 -0.1788,0.4474 0,0.0893 -0.0893,0.0893 -0.0893,0 -1.9683,-0.8947 -2.9522,-1.4314 -4.7415,-2.5048 -0.0895,0 -0.0895,-0.0894 -0.0895,-0.0894 0.0895,-0.1787 0.1788,-0.2687 0.2688,-0.4474 0,-0.0893 0.0892,-0.0893 0.0892,0 0.6262,0.2687 0.8948,0.4474 1.5208,0.7161 0.0894,0 0.1788,0 0.1788,0 0.2686,-0.9841 0.5366,-1.4315 1.0734,-2.3262zm-2.773 -3.3994l0 0c1.2523,0.8946 1.9682,1.2521 3.3097,1.9681 0.0899,0 0.0899,0 0.1791,-0.0894 1.0735,-1.8787 1.6102,-2.8627 2.5943,-4.8308 -2.2362,1.342 -3.4889,1.9681 -6.0831,2.9521z"/>
   <path class="fil1" d="M56.6273 156.5524c0.8946,-0.0894 1.7001,-0.0894 2.4155,0.0893 1.1626,0.3579 2.0575,0.984 2.6834,1.8788 0.6266,0.8946 0.8054,1.9681 0.5374,3.1313 -0.2688,1.2521 -0.8948,2.2362 -1.9683,2.773 -1.1631,0.6259 -2.5053,0.7158 -4.0259,0.2685 -1.6103,-0.4474 -2.6835,-1.4315 -3.1309,-2.684 -0.4474,-1.1628 -0.358,-2.4155 0.1786,-3.6677 0.8949,-2.2366 2.5048,-3.7573 4.3837,-4.9202 1.6999,-0.984 3.3995,-1.342 5.278,-1.1632 0.0895,0 0.0895,0.0899 0.0895,0.0899 0,0.2681 0,0.3574 0,0.6261 0,0.0893 -0.0895,0.0893 -0.1789,0.0893 -1.2526,0 -2.2366,0.1787 -3.1312,0.5367 -0.3575,0.1793 -0.7154,0.358 -1.0734,0.626 -0.7155,0.6266 -1.4314,1.3422 -2.0575,2.3262zm-0.5368 0.8946l0 0c-0.4472,0.7154 -0.7154,1.342 -0.984,1.8787 -0.1786,0.5368 -0.2685,1.0734 -0.2685,1.6996 0,1.0733 0.358,1.8786 0.9839,2.5047 0.2686,0.1792 0.5374,0.358 0.8947,0.4474 0.8948,0.2685 1.6108,0.0893 2.2368,-0.3575 0.4473,-0.4474 0.8048,-1.0739 1.0734,-1.8788 0.2685,-0.984 0.1786,-1.7893 -0.0895,-2.5047 -0.358,-0.7159 -0.9839,-1.2527 -1.968,-1.5208 -0.2685,-0.0899 -0.5368,-0.1792 -0.9842,-0.1792 -0.2685,-0.1788 -0.5366,-0.1788 -0.8946,-0.0894z"/>
  </g>
 </g>
</svg>
