<?xml version="1.0" encoding="UTF-8"?>
<!DOCTYPE svg PUBLIC "-//W3C//DTD SVG 1.1//EN" "http://www.w3.org/Graphics/SVG/1.1/DTD/svg11.dtd">
<!-- Creator: CorelDRAW 2019 (64-Bit) -->
<svg xmlns="http://www.w3.org/2000/svg" xml:space="preserve" width="170.872mm" height="170.872mm" version="1.1" style="shape-rendering:geometricPrecision; text-rendering:geometricPrecision; image-rendering:optimizeQuality; fill-rule:evenodd; clip-rule:evenodd"
viewBox="0 0 170.8722 170.8721"
 xmlns:xlink="http://www.w3.org/1999/xlink"
 xmlns:xodm="http://www.corel.com/coreldraw/odm/2003">
 <defs>
  <style type="text/css">
   <![CDATA[
    .fil1 {fill:#F9A51A}
    .fil0 {fill:black}
    .fil2 {fill:white}
   ]]>
  </style>
 </defs>
 <g id="Layer_x0020_1">
  <metadata id="CorelCorpID_0Corel-Layer"/>
  <g id="_984806480">
   <path class="fil0" d="M85.4096 0c47.0698,0 85.4626,38.3632 85.4626,85.4088 0,47.0717 -38.3928,85.4633 -85.4626,85.4633 -47.02,0 -85.4096,-38.3916 -85.4096,-85.4633 0,-47.0456 38.3896,-85.4088 85.4096,-85.4088z"/>
   <path class="fil1" d="M85.4096 2.0706c45.9306,0 83.3647,37.4626 83.3647,83.339 0,45.9047 -37.4329,83.3641 -83.3647,83.3641 -45.8774,0 -83.314,-37.4603 -83.314,-83.3641 0,-45.8776 37.4366,-83.339 83.314,-83.339z"/>
   <path class="fil0" d="M107.1788 10.3022l-1.2217 6.397 -12.7423 12.3728c3.0782,0.6645 6.0253,1.3539 8.5738,2.2296l-1.5398 5.551c-4.6973,-1.4358 -9.6627,-2.2047 -14.8401,-2.2047 -0.5859,0 -1.1419,0 -1.7247,0.0261l0.7148 -5.8939 13.354 -13.8062c-3.2118,-0.6906 -6.8495,-1.1131 -10.9114,-1.1949l0.6354 -6.5561c6.8251,0.1851 13.4122,1.2448 19.702,3.0793z"/>
   <path class="fil0" d="M128.1257 19.9648l-3.0793 5.7598c-3.478,-2.3353 -6.1063,-3.7414 -9.5863,-5.3623 -0.5297,-0.2646 -0.636,-0.1329 -0.768,0.1851l-1.7252 4.1164c3.1853,1.5141 6.3991,3.2382 9.6102,5.3907 0.1317,0.0783 0.0794,0.159 0.0521,0.2124l-2.8656 4.6171c-0.0796,0.1329 -0.1329,0.159 -0.3715,0 -2.7865,-1.8036 -5.5742,-3.4245 -8.3911,-4.6444 -0.2645,-0.1068 -0.3708,-0.1068 -0.5033,0.159 -0.5595,1.1428 -1.0628,2.3638 -1.5394,3.6382 3.2382,1.5129 6.3726,3.3439 9.0007,5.3077l-2.7349 4.9921c-4.1179,-2.9464 -8.7886,-5.4157 -13.6483,-7.0627l9.4244 -25.7531c6.0822,2.124 11.8426,4.9648 17.1255,8.444z"/>
   <path class="fil0" d="M82.2486 34.7523c-2.4016,0.1483 -4.7331,0.4652 -7.0373,0.9375 -2.078,0.4307 -4.1146,0.9659 -6.1045,1.6375l-2.9991 -5.3635c-1.9656,0.6384 -3.9292,1.4607 -5.9741,2.4966l0.533 6.664c-2.4378,1.3682 -4.733,2.9215 -6.8847,4.6373l0.0087 0.0083c-1.7802,1.4073 -3.4522,2.9214 -4.992,4.5661l-9.0006 -3.955 4.2467 9.6623c-1.6456,2.337 -3.1321,4.833 -4.3793,7.4348l-13.2756 -29.2848c1.6717,-1.9116 3.4257,-3.7414 5.2567,-5.4679l4.4322 7.6465 1.0628 -12.3989c2.4691,-1.965 5.0454,-3.7437 7.7529,-5.3896l-2.4428 17.3376 10.3718 9.0124 -0.656 -30.2788c3.1079,-1.4607 6.3451,-2.7352 9.6664,-3.7972l12.8274 22.5539 -0.5096 -25.3935c2.893,-0.426 5.8425,-0.6906 8.8417,-0.7725l-0.7447 27.5069zm-19.2992 -8.4154l0 0 -3.2939 -5.8678c-0.5825,-1.0893 -0.7447,-1.0621 -0.6353,0.159l0.556 7.1161c1.0885,-0.5304 2.231,-1.0098 3.3732,-1.4073z"/>
   <path class="fil0" d="M137.2068 26.8934c1.7538,1.5402 3.0543,2.893 4.0605,4.2753 1.5142,2.1502 2.3104,4.8842 2.4694,7.5125 0.2386,3.6643 -1.036,6.8515 -4.5649,8.7892 -1.354,0.7144 -3.3462,0.6883 -5.7373,0.5292l-2.9203 14.0987c-1.3538,-2.6021 -2.9189,-5.0449 -4.6741,-7.3542l0.9305 -9.0809 -1.2448 -1.1949 -3.7201 5.5771c-1.5403,-1.5675 -3.1589,-3.0532 -4.8831,-4.4083l14.522 -23.0179c3.319,1.8843 5.1262,3.6916 5.7622,4.2742zm-2.3353 6.8764l0 0 -1.3538 -1.3005 -3.8257 5.7349 1.3538 1.2222c0.9577,0.8211 1.8868,1.6719 3.1351,1.4073 1.4073,-0.3192 2.76,-1.7265 2.6806,-3.5064 -0.0523,-1.0893 -0.6349,-2.1763 -1.99,-3.5575z"/>
   <path class="fil0" d="M80.2585 135.9592l-2.0448 27.3459c-3.3444,-0.2916 -6.6113,-0.8227 -9.8221,-1.5407l4.3793 -27.1581c2.4164,0.6345 4.9393,1.0864 7.4876,1.3529z"/>
   <path class="fil0" d="M37.8303 147.4003c-5.0418,-3.8745 -9.5568,-8.3873 -13.5655,-13.2998 -1.5397,-1.912 -0.5033,-3.5834 0.2118,-4.5401 1.7804,-2.4702 12.3739,-19.5939 15.1605,-19.9666 1.0898,-0.1308 1.4336,0.5863 1.937,1.3544 2.2041,3.214 4.595,6.8782 7.726,10.0899l-2.44 5.6541c-1.9927,-1.8575 -4.0387,-4.1147 -5.736,-6.2368 -0.7418,-0.7175 -1.4602,-0.24 -1.8866,0.2118 -2.4933,3.4509 -4.6708,6.7967 -6.982,10.6197 -0.3973,0.6374 -0.4766,1.1144 -0.0528,1.5664 2.7611,3.0531 5.151,5.6289 8.3085,8.3632l-2.6809 6.1838z"/>
   <path class="fil0" d="M57.6361 127.8876l-3.0792 8.7887 5.9488 2.8929 2.7083 -8.4959c2.1782,1.0637 4.4327,1.9658 6.7702,2.7084l-5.813 26.9217c-2.8702,-0.8228 -5.6569,-1.7777 -8.3651,-2.9202l2.3102 -9.3979 -6.3725 -3.1329 -3.3972 9.0006c-2.7107,-1.46 -5.3389,-3.1064 -7.8354,-4.8595 3.4259,-8.8403 7.0641,-17.6018 10.9401,-26.2826 1.9381,1.7503 4.0095,3.343 6.1848,4.7767z"/>
   <path class="fil0" d="M102.2687 133.3316l6.4751 26.7627c2.7074,-0.851 5.3365,-1.8591 7.9151,-2.974l-3.4259 -11.0433c2.6804,-1.2492 5.4424,-2.7348 8.3876,-4.6477 0.2943,-0.1855 0.2125,-0.2916 0.159,-0.4255l-1.8309 -4.2737c-0.2113,-0.5562 -0.5566,-0.6902 -1.0098,-0.3991 -2.6287,1.6992 -5.1738,3.1863 -7.4609,4.1694l-1.3015 -4.2737c2.4459,-1.1685 5.2302,-2.7348 9.0032,-5.4983l-2.3894 -5.4157c-4.3282,3.4249 -9.2383,6.1333 -14.5216,8.0189z"/>
   <path class="fil0" d="M118.8867 123.5856l6.7434 15.0556c3.6643,-2.8664 6.6664,-5.6011 8.9484,-8.1769l2.7338 4.3547c-3.4495,3.6094 -7.2726,6.8758 -11.4698,9.7687l2.3899 6.2385c6.7732,-4.4604 12.8238,-9.9295 17.9487,-16.2209l-10.0102 -14.4429c-0.1069,-0.159 -0.3976,-0.399 -0.6361,-0.0263 -2.3364,3.2915 -4.7002,6.0531 -7.0377,8.3359l-2.2012 -4.0081c2.9203,-3.1611 5.0976,-6.028 6.7969,-8.6826l-3.2941 -4.6992c-0.159,-0.2118 -0.3441,-0.3972 -0.6359,0.1061 -2.7613,4.646 -6.2404,8.8417 -10.2761,12.3974z"/>
   <path class="fil0" d="M99.667 135.1879l0.3445 4.8332 -9.7455 1.8063 -0.0268 4.3812c3.7474,-0.3726 6.7729,-0.8246 9.2948,-1.4629 0.4501,-0.1033 0.662,0.1605 0.7148,0.745l0.3707 4.9109c-3.6617,0.7713 -7.1669,1.3539 -10.3016,1.5932l-0.0265 4.9392c4.0085,-0.1872 8.2297,-0.9038 12.6383,-1.9922 1.0365,-0.2651 0.9837,0.3193 1.0365,0.586l0.609 5.7337c-6.1304,1.5667 -12.5561,2.3895 -19.1665,2.3895 -0.7712,0 -1.4865,-0.0265 -2.2572,-0.0265l-0.1057 -27.478c0.7977,0.0529 1.5657,0.0529 2.3629,0.0529 4.5912,0 9.0247,-0.6123 13.2478,-1.7531 0.5039,-0.134 0.9577,-0.1075 1.0105,0.7416z"/>
   <path class="fil0" d="M96.7206 128.7376c-1.4362,0.3973 -2.8962,0.6888 -4.3832,0.9284l3.5849 -59.1506 17.8956 -17.4169c0.7945,0.7168 1.5888,1.4602 2.3343,2.2305l-9.822 8.9993 0.3973 0.452 10.5139 -8.2832c3.9295,4.3001 6.9814,9.3715 8.9215,14.999l-14.791 6.7967 0.1882 0.5312 15.6614 -3.9557c0.8507,3.3716 1.3277,6.9306 1.3277,10.5405 0,2.5218 -0.1851,5.0713 -0.6098,7.4603l-4.2731 1.0874 -0.2658 10.7814c0,0.1855 -0.0783,0.2383 -0.2409,0.3176 -0.4758,0.265 -1.5652,0.5033 -2.2012,0.5561l-13.3002 1.3809c-0.8774,0.1075 -1.1163,-0.6624 -1.169,-1.4072l-2.1512 -26.1236 -1.4602 -1.0628 3.7439 45.2409c-2.3366,1.3026 -4.8067,2.4159 -7.4084,3.2651l0.0268 -47.0982 -0.9533 0 -1.5662 48.9309z"/>
   <polygon class="fil0" points="106.0628,47.9735 109.171,52.674 108.3997,53.3633 101.5243,45.2657 97.6749,43.2758 95.9496,45.4247 106.2518,55.2497 105.321,56.0726 91.4609,43.1156 85.2214,41.4947 82.6491,43.7267 101.8424,59.1262 101.1008,59.7617 78.1604,43.0634 72.8771,42.4523 68.895,45.9848 98.4957,62.0728 97.7541,62.7356 66.2923,47.2319 59.1263,48.7188 59.5236,54.4521 95.4731,64.7273 94.3283,65.7356 55.196,55.1969 48.9831,58.5927 49.0358,66.3465 91.567,68.4444 91.5438,70.0106 46.6456,69.294 42.0808,74.2843 45.6364,82.8868 91.4901,72.0552 91.4609,74.0456 43.2761,88.6477 41.9218,96.2949 50.2049,101.4706 91.4345,76.3303 91.3816,78.6121 49.7278,107.4727 51.9291,115.887 59.2583,118.3562 91.3584,80.4185 91.3321,82.6485 63.082,120.0299 67.3286,126.8794 74.6287,126.8265 91.2783,85.0908 91.2227,88.6209 77.5513,126.9322 83.2849,130.1978 89.9248,124.2239 94.3019,69.2671 112.1177,51.6912 109.5155,48.3461 107.8435,48.0531 "/>
   <path class="fil0" d="M21.5574 71.6843c-3.5055,0 -6.811,1.3712 -9.3004,3.8659 -2.4933,2.4914 -3.8683,5.7953 -3.8683,9.3004 0,3.525 1.375,6.836 3.8683,9.3306 2.4928,2.4914 5.7949,3.8635 9.3004,3.8635 3.497,0 6.8072,-1.3711 9.3302,-3.8635 2.4933,-2.4946 3.8644,-5.806 3.8644,-9.3306 0,-3.5051 -1.3711,-6.809 -3.8644,-9.3004 -2.523,-2.4947 -5.8342,-3.8659 -9.3302,-3.8659z"/>
   <path class="fil0" d="M158.6156 75.5502c-2.5191,-2.4947 -5.8322,-3.8659 -9.3267,-3.8659 -3.4993,0 -6.8113,1.3712 -9.3327,3.8645 -2.4896,2.5211 -3.8649,5.825 -3.8649,9.3018 0,3.4972 1.3753,6.8096 3.8649,9.3306 2.5214,2.4914 5.8358,3.8635 9.3327,3.8635 3.4945,0 6.8076,-1.3711 9.3267,-3.8635 2.4944,-2.521 3.8649,-5.8334 3.8649,-9.3306 0,-3.4768 -1.3705,-6.7807 -3.8649,-9.3004z"/>
   <path class="fil2" d="M29.8693 76.8601c-0.1349,0 -0.2675,0 -0.4,0 -0.1322,0 -0.2648,0 -0.3973,0 -0.1584,0 -0.3175,0 -0.4765,0 -0.9567,0 -1.9129,0.0263 -2.8664,0.0528 -0.3477,1.01 -0.6921,2.0191 -0.9567,3.0273 1.0893,1.2214 2.0164,2.6814 2.8404,4.0613 1.222,0.2387 2.4957,0.293 3.744,0.3727 0.5825,-0.851 1.086,-1.779 1.513,-2.7603 -0.9053,-1.6209 -2.0205,-3.1603 -3.0005,-4.7538z"/>
   <path class="fil2" d="M24.639 96.5595c1.0328,-1.1138 1.8838,-2.4946 2.4135,-3.9014 -0.8473,-0.9307 -1.7247,-1.8327 -2.4691,-2.8683 -1.6193,0.2383 -3.291,0.2912 -4.9621,0.2119 -0.5056,0.7981 -1.0365,1.5926 -1.6214,2.3366 -0.2122,0.24 -0.3977,0.477 -0.6095,0.7171 0.7453,1.2729 1.5663,2.4946 2.6017,3.5584 1.5385,0.0537 3.1048,0.0274 4.6469,-0.0543z"/>
   <path class="fil2" d="M17.2301 77.019c-1.4072,0.1869 -2.8145,0.3992 -4.194,0.6902 -0.8775,1.3284 -1.5663,2.8149 -2.0984,4.3283 0.3972,1.2483 0.9304,2.4692 1.619,3.5848 1.1951,-0.2664 2.3905,-0.5862 3.5582,-0.9288 0.7452,-1.5676 1.5926,-3.1329 2.5752,-4.568 -0.4506,-1.0614 -0.9297,-2.0969 -1.46,-3.1065z"/>
   <path class="fil2" d="M29.8957 75.7458c-0.533,-0.4798 -1.1157,-0.9285 -1.7276,-1.3276 -0.609,-0.3726 -1.2745,-0.7166 -1.9629,-1.01 -0.6656,-0.2647 -1.3568,-0.4784 -2.0719,-0.6373 -0.6921,-0.1322 -1.4072,-0.2132 -2.1225,-0.2402l0.0504 1.2484c1.1692,0.6915 2.2839,1.4609 3.3732,2.2837 1.3544,-0.0793 2.7074,-0.1057 4.0349,-0.0793 0.1325,0 0.2651,0 0.3736,0 0.0264,-0.0528 0.0264,-0.0797 0.0264,-0.1062 0,-0.0263 0.0264,-0.0792 0.0264,-0.0792 0,0.0009 0,-0.0255 0,-0.0523z"/>
   <path class="fil2" d="M32.6296 90.3743c0.2124,-0.399 0.3976,-0.8227 0.5562,-1.2482 0.318,-0.9289 0.5562,-1.8591 0.6656,-2.8145 0.0798,-0.7185 0.1061,-1.4614 0.0533,-2.1776 0,-0.2381 -0.0268,-0.4783 -0.0533,-0.7166 -0.0556,-0.4241 -0.1348,-0.876 -0.2414,-1.3279 -0.4506,1.0101 -0.9536,1.9653 -1.5928,2.8683 0.1591,1.5925 0.1855,3.3436 -0.2117,4.909l0.8241 0.5075z"/>
   <path class="fil2" d="M25.8839 96.4275c0.7714,-0.293 1.5153,-0.6374 2.2042,-1.0879 0.3999,-0.2401 0.7982,-0.5048 1.169,-0.7978 0.3703,-0.2928 0.7173,-0.6118 1.0624,-0.9552 0.556,-0.5595 1.0627,-1.1686 1.4868,-1.8328 0.1585,-0.1868 0.2647,-0.3986 0.3973,-0.6104l-0.8478 -0.5318c-1.0363,0.9289 -2.0983,1.7267 -3.4258,2.1773 -0.4775,1.3024 -1.1687,2.5507 -2.0461,3.6386z"/>
   <path class="fil2" d="M11.7081 92.2863c0.7152,0.9549 1.5663,1.8059 2.523,2.5212 0.5033,0.3463 1.0331,0.6901 1.5663,0.9836 1.0362,0.5576 2.1753,0.9566 3.3173,1.1935 -1.0363,-1.1407 -1.8573,-2.4153 -2.6282,-3.7425 -1.3539,-0.4255 -2.4955,-1.0346 -3.5821,-1.9657l-1.1963 1.0099z"/>
   <path class="fil2" d="M9.3451 83.0731c-0.0792,0.4501 -0.1063,0.8756 -0.1325,1.3011 0,0.159 0,0.3193 0,0.4764 0,1.1954 0.1589,2.3908 0.5034,3.5584 0.3466,1.1162 0.8509,2.1771 1.46,3.1589l1.2482 -1.0346c-0.3973,-1.3808 -0.6091,-2.8408 -0.5033,-4.2755 -0.7185,-1.0892 -1.2483,-2.3091 -1.672,-3.53 -0.2947,0.1061 -0.6127,0.2127 -0.9038,0.3453z"/>
   <path class="fil2" d="M21.1333 72.5317c-0.7449,0.0265 -1.4865,0.108 -2.1777,0.2665 -0.7415,0.159 -1.46,0.399 -2.1488,0.6643 -0.6919,0.2928 -1.3804,0.6637 -1.9921,1.0892 -0.6356,0.3973 -1.222,0.8756 -1.7781,1.3803 0.0532,0.293 0.1061,0.5581 0.1853,0.8492 1.4072,-0.2646 2.841,-0.5047 4.2737,-0.6637 1.1691,-0.8756 2.3895,-1.6719 3.691,-2.3895l-0.0533 -1.1963z"/>
   <path class="fil2" d="M19.4581 80.551c-0.0796,0.1058 -0.1589,0.2383 -0.2358,0.3709 -0.1095,0.132 -0.1877,0.2665 -0.2685,0.3986 -0.1057,0.1326 -0.1853,0.2934 -0.2647,0.4255 -0.1061,0.159 -0.1853,0.3161 -0.2915,0.4784 -0.1321,0.2104 -0.2646,0.4505 -0.374,0.6906 -0.1326,0.2383 -0.2648,0.4766 -0.3973,0.6901 -0.1325,0.2648 -0.2383,0.4771 -0.3707,0.7167 -0.1059,0.2387 -0.2383,0.477 -0.3445,0.6888 0.2119,0.399 0.4242,0.7698 0.636,1.142 0.2117,0.3727 0.4235,0.7453 0.6387,1.0898 0.2118,0.3439 0.4505,0.6636 0.6623,0.9831 0.2383,0.3161 0.4765,0.6091 0.6922,0.8756 0.2383,0.0263 0.45,0.0263 0.6618,0.0533 0.2387,0 0.477,0 0.6911,0 0.2388,0 0.4771,0 0.7153,0 0.2382,0 0.4769,-0.027 0.7179,-0.027 0.2119,0 0.4238,-0.0263 0.6356,-0.0263 0.2118,-0.0265 0.4235,-0.0529 0.6117,-0.0529 0.1855,-0.0264 0.3709,-0.0528 0.5558,-0.0811 0.1855,-0.0264 0.3445,-0.0264 0.5336,-0.0529 0.1586,-0.2651 0.3438,-0.5581 0.5294,-0.8477 0.6654,-1.1421 1.1954,-2.3904 1.6455,-3.6376 -0.7946,-1.3544 -1.7248,-2.8145 -2.7877,-3.9839 -1.1686,0 -2.3102,0 -3.4523,0.0545 -0.3686,-0.0017 -0.7657,0.0246 -1.1399,0.0515z"/>
   <path class="fil2" d="M157.5976 76.8601c-0.1317,0 -0.2647,0 -0.3988,0 -0.1328,0 -0.2657,0 -0.4248,0 -0.1318,0 -0.2943,0 -0.4498,0 -0.9563,0 -1.9128,0.0263 -2.8703,0.0528 -0.3441,1.01 -0.6882,2.0191 -0.9529,3.0273 1.0894,1.2214 2.0161,2.6814 2.8408,4.0613 1.221,0.2387 2.467,0.293 3.7164,0.3727 0.61,-0.851 1.1166,-1.779 1.5403,-2.7603 -0.9315,-1.6209 -2.0209,-3.1603 -3.0009,-4.7538z"/>
   <path class="fil2" d="M152.3646 96.5595c1.0383,-1.1138 1.8866,-2.4946 2.4194,-3.9014 -0.8507,-0.9307 -1.7538,-1.8327 -2.4729,-2.8683 -1.6421,0.2383 -3.3178,0.2912 -4.9623,0.2119 -0.5068,0.7981 -1.062,1.5926 -1.6459,2.3366 -0.1875,0.24 -0.3738,0.477 -0.585,0.7171 0.744,1.2729 1.5651,2.4946 2.601,3.5584 1.5404,0.0537 3.0829,0.0274 4.6457,-0.0543z"/>
   <path class="fil2" d="M144.96 77.019c-1.4073,0.1869 -2.8145,0.3992 -4.2206,0.6902 -0.8781,1.3284 -1.5664,2.8149 -2.0719,4.3283 0.3998,1.2483 0.903,2.4692 1.6209,3.5848 1.1925,-0.2664 2.3614,-0.5862 3.5563,-0.9288 0.7452,-1.5676 1.5664,-3.1329 2.575,-4.568 -0.4509,-1.0614 -0.9304,-2.0969 -1.4597,-3.1065z"/>
   <path class="fil2" d="M157.6249 75.7458c-0.534,-0.4798 -1.1166,-0.9285 -1.7278,-1.3276 -0.6361,-0.3726 -1.2708,-0.7166 -1.9638,-1.01 -0.6657,-0.2647 -1.3539,-0.4784 -2.0979,-0.6373 -0.6621,-0.1322 -1.3812,-0.2132 -2.0956,-0.2402l0.0534 1.2484c1.1653,0.6915 2.2842,1.4609 3.3699,2.2837 1.3267,-0.0793 2.6807,-0.1057 4.0357,-0.0793 0.1352,0 0.241,0 0.3739,0 0,-0.0528 0.0261,-0.0797 0.0261,-0.1062 0,-0.0263 0,-0.0792 0,-0.0792 0.0261,0.0009 0.0261,-0.0255 0.0261,-0.0523z"/>
   <path class="fil2" d="M160.3587 90.3743c0.1852,-0.399 0.3704,-0.8227 0.5294,-1.2482 0.3441,-0.9289 0.56,-1.8591 0.6916,-2.8145 0.0796,-0.7185 0.1068,-1.4614 0.0535,-2.1776 0,-0.2381 -0.0272,-0.4783 -0.0535,-0.7166 -0.0522,-0.4241 -0.1316,-0.876 -0.2409,-1.3279 -0.4496,1.0101 -0.9801,1.9653 -1.6184,2.8683 0.1851,1.5925 0.1851,3.3436 -0.1851,4.909l0.8234 0.5075z"/>
   <path class="fil2" d="M153.6129 96.4275c0.7712,-0.293 1.513,-0.6374 2.2036,-1.0879 0.3998,-0.2401 0.7724,-0.5048 1.1426,-0.7978 0.3738,-0.2928 0.7452,-0.6118 1.062,-0.9552 0.5565,-0.5595 1.0632,-1.1686 1.5142,-1.8328 0.1317,-0.1868 0.2645,-0.3986 0.3974,-0.6104l-0.8484 -0.5318c-1.0359,0.9289 -2.098,1.7267 -3.4256,2.1773 -0.4771,1.3024 -1.195,2.5507 -2.0458,3.6386z"/>
   <path class="fil2" d="M139.4079 92.2863c0.718,0.9549 1.5948,1.8059 2.5513,2.5212 0.5043,0.3463 1.011,0.6901 1.5663,0.9836 1.0371,0.5576 2.1513,0.9566 3.3177,1.1935 -1.0323,-1.1407 -1.8832,-2.4153 -2.6283,-3.7425 -1.354,-0.4255 -2.493,-1.0346 -3.5824,-1.9657l-1.2246 1.0099z"/>
   <path class="fil2" d="M137.0466 83.0731c-0.0523,0.4501 -0.1057,0.8756 -0.1057,1.3011 0,0.159 -0.026,0.3193 -0.026,0.4764 0,1.1954 0.185,2.3908 0.5292,3.5584 0.3477,1.1162 0.8247,2.1771 1.463,3.1589l1.2449 -1.0346c-0.4237,-1.3808 -0.6361,-2.8408 -0.5031,-4.2755 -0.7157,-1.0892 -1.2483,-2.3091 -1.6721,-3.53 -0.3168,0.1061 -0.611,0.2127 -0.9302,0.3453z"/>
   <path class="fil2" d="M148.8617 72.5317c-0.7453,0.0265 -1.4869,0.108 -2.1787,0.2665 -0.7415,0.159 -1.4559,0.399 -2.1477,0.6643 -0.7191,0.2928 -1.3812,0.6637 -2.0197,1.0892 -0.6086,0.3973 -1.2222,0.8756 -1.7538,1.3803 0.0558,0.293 0.1081,0.5581 0.1887,0.8492 1.4061,-0.2646 2.8395,-0.5047 4.247,-0.6637 1.1948,-0.8756 2.4158,-1.6719 3.6903,-2.3895l-0.0261 -1.1963z"/>
   <path class="fil2" d="M147.1898 80.551c-0.0795,0.1058 -0.1875,0.2383 -0.2683,0.3709 -0.0795,0.132 -0.1589,0.2665 -0.2645,0.3986 -0.0795,0.1326 -0.1591,0.2934 -0.2647,0.4255 -0.0794,0.159 -0.1851,0.3161 -0.2657,0.4784 -0.1318,0.2104 -0.2647,0.4505 -0.3965,0.6906 -0.1351,0.2383 -0.2408,0.4766 -0.3736,0.6901 -0.1294,0.2648 -0.2646,0.4771 -0.3704,0.7167 -0.1329,0.2387 -0.2384,0.477 -0.3453,0.6888 0.2124,0.399 0.3977,0.7698 0.6101,1.142 0.2111,0.3727 0.427,0.7453 0.6657,1.0898 0.2112,0.3439 0.4235,0.6636 0.662,0.9831 0.2386,0.3161 0.4533,0.6091 0.6918,0.8756 0.2125,0.0263 0.4497,0.0263 0.6657,0.0533 0.235,0 0.4498,0 0.6882,0 0.2386,0 0.4771,0 0.7179,0 0.2362,0 0.4771,-0.027 0.7155,-0.027 0.2114,0 0.4238,-0.0263 0.6385,-0.0263 0.2088,-0.0265 0.3974,-0.0529 0.5825,-0.0529 0.2126,-0.0264 0.3977,-0.0528 0.5828,-0.0811 0.1614,-0.0264 0.3477,-0.0264 0.5043,-0.0529 0.1875,-0.2651 0.3726,-0.5581 0.5328,-0.8477 0.6918,-1.1421 1.221,-2.3904 1.6718,-3.6376 -0.7985,-1.3544 -1.7253,-2.8145 -2.8134,-3.9839 -1.1392,0 -2.2843,0 -3.4258,0.0545 -0.3963,-0.0017 -0.7701,0.0246 -1.1414,0.0515z"/>
  </g>
 </g>
</svg>
