<?xml version="1.0" encoding="UTF-8"?>
<!DOCTYPE svg PUBLIC "-//W3C//DTD SVG 1.1//EN" "http://www.w3.org/Graphics/SVG/1.1/DTD/svg11.dtd">
<!-- Creator: CorelDRAW 2019 (64-Bit) -->
<svg xmlns="http://www.w3.org/2000/svg" xml:space="preserve" width="169.879mm" height="169.879mm" version="1.1" style="shape-rendering:geometricPrecision; text-rendering:geometricPrecision; image-rendering:optimizeQuality; fill-rule:evenodd; clip-rule:evenodd"
viewBox="0 0 169.7062 169.7061"
 xmlns:xlink="http://www.w3.org/1999/xlink"
 xmlns:xodm="http://www.corel.com/coreldraw/odm/2003">
 <defs>
  <style type="text/css">
   <![CDATA[
    .fil2 {fill:#FEFEFE}
    .fil5 {fill:#C4C4C5}
    .fil1 {fill:black}
    .fil7 {fill:#FEFEFE;fill-rule:nonzero}
    .fil0 {fill:black;fill-rule:nonzero}
    .fil8 {fill:#CF1F16;fill-rule:nonzero}
    .fil4 {fill:url(#id0)}
    .fil3 {fill:url(#id1)}
    .fil6 {fill:url(#id2);fill-rule:nonzero}
    .fil9 {fill:url(#id3);fill-rule:nonzero}
   ]]>
  </style>
  <linearGradient id="id0" gradientUnits="userSpaceOnUse" x1="61.4888" y1="49.8213" x2="61.4888" y2="136.5238">
   <stop offset="0" style="stop-opacity:1; stop-color:#C9B52E"/>
   <stop offset="0.231373" style="stop-opacity:1; stop-color:white"/>
   <stop offset="0.4" style="stop-opacity:1; stop-color:#C9B52E"/>
   <stop offset="0.678431" style="stop-opacity:1; stop-color:white"/>
   <stop offset="0.878431" style="stop-opacity:1; stop-color:#C9B52E"/>
   <stop offset="1" style="stop-opacity:1; stop-color:#C9B52E"/>
  </linearGradient>
  <linearGradient id="id1" gradientUnits="userSpaceOnUse" xlink:href="#id0" x1="108.211" y1="49.8213" x2="108.211" y2="136.5238">
  </linearGradient>
  <linearGradient id="id2" gradientUnits="userSpaceOnUse" x1="-5.4917" y1="6.3175" x2="175.198" y2="163.3885">
   <stop offset="0" style="stop-opacity:1; stop-color:white"/>
   <stop offset="0.219608" style="stop-opacity:1; stop-color:#717170"/>
   <stop offset="0.25098" style="stop-opacity:1; stop-color:#717170"/>
   <stop offset="0.458824" style="stop-opacity:1; stop-color:white"/>
   <stop offset="0.501961" style="stop-opacity:1; stop-color:white"/>
   <stop offset="0.509804" style="stop-opacity:1; stop-color:#717170"/>
   <stop offset="0.831373" style="stop-opacity:1; stop-color:white"/>
   <stop offset="0.980392" style="stop-opacity:1; stop-color:#717170"/>
   <stop offset="1" style="stop-opacity:1; stop-color:#717170"/>
  </linearGradient>
  <linearGradient id="id3" gradientUnits="userSpaceOnUse" x1="73.6921" y1="7.6519" x2="96.0144" y2="23.8699">
   <stop offset="0" style="stop-opacity:1; stop-color:#C9B52E"/>
   <stop offset="0.211765" style="stop-opacity:1; stop-color:#C9B52E"/>
   <stop offset="0.501961" style="stop-opacity:1; stop-color:white"/>
   <stop offset="0.768627" style="stop-opacity:1; stop-color:#C9B52E"/>
   <stop offset="1" style="stop-opacity:1; stop-color:#C9B52E"/>
  </linearGradient>
 </defs>
 <g id="Layer_x0020_1">
  <metadata id="CorelCorpID_0Corel-Layer"/>
  <g id="_734075792">
   <path class="fil0" d="M84.8528 1.7574c-45.8927,0 -83.0954,37.2026 -83.0954,83.0953 0,45.8926 37.2027,83.0957 83.0954,83.0957 45.8925,0 83.0957,-37.2031 83.0957,-83.0957 0,-45.8927 -37.2032,-83.0953 -83.0957,-83.0953z"/>
   <g>
    <path class="fil1" d="M84.8462 145.4684c5.1828,-1.8591 10.4925,-3.8449 15.9143,-6.1821 6.9576,-2.9722 13.8307,-6.338 20.2665,-10.3379 2.9863,-1.8729 5.9013,-3.901 8.2952,-5.9577 2.6621,-2.2814 4.2672,-4.3516 6.042,-7.0552 1.1127,-1.7047 1.9717,-3.4365 2.5912,-5.2674 1.0424,-3.0427 1.4651,-6.3379 1.4513,-10.1684 -0.0289,-4.8867 -1.2396,-10.0419 -2.6483,-14.6752 -1.5352,-5.0137 -3.6054,-10.0277 -4.464,-15.1961 -0.3101,-1.8029 -0.4794,-3.7042 -0.4512,-5.9013 0.0424,-5.4644 2.2956,-12.0836 6.0283,-16.2806 0.4082,-0.4507 0.5353,-0.9859 0.4788,-1.521 -0.085,-0.6055 -0.4788,-1.1127 -0.9014,-1.352 -6.761,-3.7181 -14.4216,-6.549 -21.9852,-8.5205 -11.0837,-2.8872 -21.8155,-3.9014 -30.6175,-3.9014 -8.802,0 -19.5338,1.0143 -30.6177,3.9014 -7.5633,1.9715 -15.2248,4.8024 -21.9847,8.5205 -0.4225,0.2394 -0.8168,0.7465 -0.8871,1.352 -0.0705,0.5352 0.0561,1.0703 0.4646,1.521 3.7462,4.197 5.9854,10.8162 6.0418,16.2806 0.0141,2.1971 -0.155,4.0984 -0.4508,5.9013 -0.8731,5.1684 -2.9432,10.1824 -4.4642,15.1961 -1.4225,4.6334 -2.634,9.7885 -2.6478,14.6752 -0.0281,3.8305 0.3941,7.1257 1.4363,10.1684 0.6199,1.8309 1.4789,3.5628 2.6056,5.2674 1.7743,2.7036 3.3659,4.7738 6.028,7.0552 2.394,2.0567 5.3095,4.0848 8.3092,5.9577 6.4221,3.9998 13.3091,7.3657 20.2521,10.3379 5.4366,2.3372 10.7321,4.323 15.9146,6.1821z"/>
    <path class="fil2" d="M58.2142 128.5541c-3.4085,-2.1407 -9.084,-6.5631 -12.4923,-11.3372 -3.6335,-5.1267 -5.8727,-11.0554 -5.8727,-17.548 -0.0145,-4.9153 0.8728,-9.6898 2.2954,-14.3795 1.324,-4.3658 2.8876,-8.7177 3.1969,-13.6609 0.5071,-7.9717 -2.6618,-15.9992 -4.0984,-19.6751 7.7861,-6.0027 23.749,-12.5191 39.1121,-15.5817 -10.6291,0.5713 -21.203,3.135 -32.2532,7.1598 -4.1688,1.5211 -9.2109,3.6195 -12.9426,5.4786 4.4785,2.1407 6.2247,9.6472 6.5908,15.9287 0.4225,7.3516 -1.3238,13.1683 -4.0982,21.393 -2.6618,7.8582 -3.6193,16.8442 -1.3097,23.6038 1.7322,5.0701 5.1121,9.5204 9.5489,13.3093 6.1964,5.2814 14.3792,9.4784 22.1815,11.774 4.9501,1.454 10.6016,3.054 15.3282,3.4904 -6.6033,-0.9636 -13.7053,-3.6185 -19.6095,-6.7015 -2.0281,-1.0569 -3.7462,-2.1128 -5.5771,-3.2537z"/>
    <path class="fil2" d="M132.0549 86.3316c-2.7887,-8.2247 -4.5212,-14.0414 -4.0985,-21.393 0.352,-6.2815 2.1123,-13.7879 6.5768,-15.9287 -3.7324,-1.8591 -8.7599,-3.9575 -12.9427,-5.4786 -11.0379,-4.0251 -21.6214,-6.5885 -32.2535,-7.1598 15.3635,3.0626 31.3266,9.579 39.1125,15.5817 -1.4368,3.676 -4.6055,11.7035 -4.0985,19.6751 0.3101,4.9432 1.8729,9.295 3.1972,13.6609 1.4223,4.6897 2.3092,9.4642 2.3092,14.3795 -0.0138,6.4926 -2.2532,12.4213 -5.8872,17.548 -3.394,4.7741 -9.0833,9.1965 -12.4916,11.3372 -1.8309,1.1408 -3.5493,2.1968 -5.5633,3.2537 -5.9037,3.083 -13.0185,5.7378 -19.6236,6.7015 4.727,-0.4365 10.3795,-2.0364 15.3419,-3.4904 7.7887,-2.2956 15.9713,-6.4926 22.1679,-11.774 4.4504,-3.7889 7.8162,-8.2392 9.5487,-13.3093 2.31,-6.7596 1.3519,-15.7456 -1.2954,-23.6038z"/>
    <path class="fil3" d="M88.7897 137.8495c6.9292,-1.6337 15.4499,-5.338 21.7167,-9.6898 4.6619,-3.2534 8.2395,-6.6608 10.704,-9.8302 4.1547,-5.3803 6.4219,-11.3235 6.4219,-18.1396 0,-3.845 -0.6621,-8.4646 -1.7889,-12.5769 -1.408,-5.1967 -3.295,-10.0835 -3.6333,-15.52 -0.3239,-5.4222 0.6054,-11.8585 4.0136,-19.3228 -3.5487,3.0703 -6.2954,11.7035 -6.253,17.7454 0.0843,10.4359 6.253,19.4497 6.4646,29.7868 0.0417,2.6334 -0.352,5.3089 -1.2396,8.098 -1.1127,3.4509 -2.9715,6.6474 -5.2955,9.5201 -3.3094,4.0703 -7.182,7.3519 -11.52,10.2535 -5.9859,4.0135 -12.9428,7.5346 -19.5905,9.6753z"/>
    <path class="fil4" d="M80.9172 137.8495c-6.9292,-1.6337 -15.4639,-5.338 -21.717,-9.6898 -4.6757,-3.2534 -8.2531,-6.6608 -10.7037,-9.8302 -4.1547,-5.3803 -6.4361,-11.3235 -6.4361,-18.1396 0,-3.845 0.6759,-8.4646 1.7885,-12.5769 1.4083,-5.1967 3.2954,-10.0835 3.6338,-15.52 0.324,-5.4222 -0.6058,-11.8585 -3.9998,-19.3228 3.5348,3.0703 6.2953,11.7035 6.239,17.7454 -0.0703,10.4359 -6.2531,19.4497 -6.4504,29.7868 -0.0564,2.6334 0.3381,5.3089 1.2253,8.098 1.1127,3.4509 2.986,6.6474 5.3095,9.5201 3.2955,4.0703 7.1687,7.3519 11.5067,10.2535 5.9854,4.0135 12.9568,7.5346 19.6044,9.6753z"/>
    <path class="fil2" d="M84.9025 86.8242c-0.2531,0 -1.4364,0.4229 -1.6898,0.4649 -0.6482,0.0843 -1.9293,-0.5774 -3.3237,-1.2112 -1.7045,-0.7742 -2.9155,-1.0281 -3.3239,-1.7463 -0.4506,-0.7745 -0.4081,-1.8307 -0.352,-2.5773 0.1127,-0.7888 0.2394,-1.9718 0.127,-2.873 -0.0989,-0.6904 -0.3803,-1.0986 -0.6761,-1.4648 0.6899,-0.1408 1.1545,0.6619 1.3236,1.2113 0.2536,0.8448 0.0705,1.9014 0.1127,2.4928 0.0143,0.2814 0.2396,0.5917 0.5916,0.7604 2.1972,1.0283 5.1124,1.6761 7.0562,1.6902 1.9571,-0.0141 5.0693,-0.634 7.2668,-1.6621 0.7464,-0.3518 0.7464,-1.5349 0.817,-2.2532 0.0561,-0.6199 0.1828,-1.3379 0.5772,-1.8309 0.1972,-0.2394 0.4364,-0.4369 0.9574,-0.4504 -0.5066,0.5352 -0.7183,1.2111 -0.7321,1.7882 -0.0144,0.4791 0,0.9437 -0.0144,1.4084 0,1.1833 0.1132,2.7748 -0.4643,3.8029 -0.4223,0.7181 -1.6195,0.9717 -3.3383,1.7462 -1.3935,0.6339 -2.8021,1.2532 -3.211,1.1406 -0.2532,-0.0564 -1.4644,-0.4504 -1.7039,-0.4367z"/>
    <path class="fil2" d="M78.8609 79.7124c-0.366,-0.4225 -0.4366,-1.6055 -0.3239,-2.3945 0.155,-0.9435 0.6057,-1.6759 1.2815,-2.6195 1.0284,-0.1547 1.3943,-0.6475 1.9718,-1.3519 0.4082,-0.5071 0.831,-1.1268 1.155,-1.9153 0.1969,-0.507 0.3239,-0.9576 0.6054,-1.4226 0.1126,-0.2253 0.2536,-0.4225 0.3098,-0.4646 0.2113,-0.1546 -0.169,-0.4649 -0.3944,-0.6197 -0.1267,-0.0846 -0.1969,0.014 -0.2955,0.0845 -0.2958,0.2253 -0.5356,0.2398 -0.7043,0.1833 -0.5072,-0.1408 -0.5916,-1.0986 -0.5211,-1.3101 0.0139,-0.0705 -0.1408,-0.2253 -0.2535,-0.1548 -0.1266,0.0986 -0.3944,0.028 -0.5635,-0.0845 -0.2391,-0.1688 -0.3239,-0.1548 -0.6197,0.028 -0.1688,0.1128 -0.3377,0.2253 -0.4928,0.3805 -0.155,0.1408 -0.3239,0.2958 -0.507,0.3664 -1.1972,0.1406 -1.9295,0.6193 -2.4221,1.197 -0.3664,0.4362 -0.6342,0.9296 -0.7465,1.5206 -0.0845,0.3947 -0.0845,0.8452 -0.0705,1.3242 0.0283,1.0843 0.5068,1.4785 1.4504,1.7744 0.4366,0.1409 0.9157,0.2536 1.324,0.3238 -0.7605,0.7746 -1.1407,1.4087 -1.5915,2.3098 -0.4224,0 -0.7884,0.0705 -1.3235,-0.1688 -0.4791,-0.2256 -0.7468,-0.7184 -1.1409,-1.0144 -0.451,-0.352 -0.831,-0.5772 -1.1268,-0.8592 -0.7465,-0.704 -0.7887,-1.2956 -0.7749,-1.915 0.0143,-0.5775 0,-1.0846 0.0284,-1.2534 0.8026,-0.831 1.3377,-1.4931 1.6477,-2.1126 0.4087,-0.8029 0.4368,-1.5349 0.2396,-2.4786 -0.2115,-0.9861 -0.3098,-1.9014 -1.2395,-2.4509 -0.3239,0.3664 -0.5491,0.8453 -0.3944,2.0423 0.0846,0.7745 0.5356,1.2674 0.5914,2.0002 0.0849,0.8165 -0.2109,1.6193 -0.9855,1.9715 0.4225,-2.1548 -0.5355,-3.2816 -0.831,-5.1409 -0.1548,-0.9152 -0.0705,-2.2109 0.1267,-3.2246 0.2674,-1.4087 0.9717,-3.0283 1.9719,-4.2958 1.2532,-1.6194 3.084,-2.5915 5.0699,-3.1547 1.9999,-0.5774 4.1689,-0.7887 6.0562,-0.7745 1.7742,0.028 4.619,0.2673 7.0553,1.5352 2.9859,1.5489 4.8313,4.6193 5.1407,7.8442 0.1693,1.7325 -0.0141,2.8592 -0.3944,3.859 -0.8449,2.2254 -0.5627,2.9579 -0.2677,3.4366 -1.0559,-0.4086 -1.5208,-1.3803 -1.5346,-2.0986 -0.0424,-1.1689 0.7888,-1.7182 0.8309,-2.7605 0.0279,-0.5913 -0.0561,-1.1974 -0.5349,-1.5633 -0.7049,0.845 -1.1691,2.0281 -1.2115,3.1549 -0.0424,1.1832 0.2389,2.1125 0.6054,2.845 0.2956,0.5912 0.8312,1.1829 1.4087,1.5208 0.0705,0.5631 -0.0145,1.338 -0.0428,1.6338 -0.0701,0.4646 -0.2811,0.6195 -0.5771,0.9154 -0.169,0.1549 -0.352,0.3518 -0.5069,0.5631 -0.423,0.5916 -0.5634,1.1553 -1.2393,1.5213 -0.5073,0.2959 -1.2115,0.465 -1.8309,0.4084 -0.296,-0.6057 -0.8452,-1.6056 -1.5353,-2.3096 0.7039,-0.0562 2.1269,-0.5072 2.4787,-1.127 0.3097,-0.5211 0.2959,-1.7747 0.1686,-2.3659 -0.1686,-0.7746 -0.647,-1.4648 -1.2246,-1.8588 -0.8312,-0.5777 -1.3099,-0.6904 -1.5914,-0.7044 -0.296,-0.0141 -0.3246,-0.0565 -0.4371,-0.1688 -0.169,-0.1551 -0.3517,-0.2959 -0.5211,-0.4509 -0.3094,-0.2533 -0.7888,-0.5068 -1.1825,-0.493 -0.1555,0 -0.2678,0.0844 -0.4234,0.1691 -0.1545,0.0845 -0.0984,0.3801 -0.1122,0.5632 -0.1267,1.3521 -0.7888,1.1412 -1.0986,0.9296 -0.1544,-0.1126 -0.2677,-0.2113 -0.3661,-0.1972 -0.1267,0.0281 -0.2396,0.1972 -0.3944,0.3103 -0.2533,0.2111 -0.3665,0.2954 -0.1549,0.4926 0.2396,0.2395 0.5775,0.8451 0.9014,1.662 0.3662,0.9012 0.986,1.9575 1.7742,2.7464 0.3238,0.3238 0.775,0.5489 1.3807,0.6334 0.9155,1.0143 1.4365,2.3945 1.3099,3.8028 -0.0282,0.2677 -0.1411,1.1127 -0.4794,1.2392 -0.6752,0.2255 -1.6052,0.4648 -2.3234,0.6341 -1.3518,0.3097 -2.7749,0.5352 -3.0699,0.5352 -2.1972,-0.0286 -3.7605,-0.3805 -6.5069,-1.1831zm8.2249 -1.0845l0 0c0.211,-0.2256 0.0417,-1.0422 -0.1693,-1.69 -0.2396,-0.7184 -0.5352,-1.0565 -0.9296,-1.5352 -0.1408,-0.1833 -0.1408,-0.5213 -0.2392,-0.7602 -0.2117,-0.5494 -0.5775,-1.141 -0.8872,-1.1552 -0.2958,0.0142 -0.6761,0.6058 -0.8733,1.1552 -0.0846,0.239 -0.0982,0.5769 -0.2394,0.7602 -0.3944,0.4787 -0.6762,0.8169 -0.9153,1.5352 -0.2256,0.6477 -0.3944,1.4644 -0.1831,1.69 0.2253,0.2252 1.1268,0.2674 2.211,0.2816 1.0981,-0.0142 1.9998,-0.0564 2.2252,-0.2816z"/>
    <path class="fil2" d="M77.6213 79.0222c-0.1408,-0.0988 -0.2958,-0.4506 -0.3801,-0.634 -0.0986,-0.2112 -0.1125,-0.366 -0.1125,-0.5349 0,-0.1549 -0.0142,-0.2111 0.0986,-0.2677 0.0841,-0.0424 0.1827,-0.0986 0.2677,-0.141 0.1124,-0.0701 0.2249,-0.1268 0.3096,-0.0846 0.0986,0.0565 0.1266,0.6199 0.155,0.7468 0.056,0.2673 0.1408,0.521 0.0422,0.8165 -0.0566,0.1833 -0.1833,0.2394 -0.3805,0.0988z"/>
    <path class="fil2" d="M91.9301 77.9519c0.0286,-0.338 0.1129,-0.3801 0.3384,-0.4366 0.5352,-0.1272 0.5633,-0.0283 0.5771,0.3663 0,0.2391 -0.1686,0.4646 -0.3665,0.7743 -0.1267,0.2957 -0.5627,0.5213 -0.6614,0.3943 -0.1972,-0.2674 0.056,-0.4787 0.1125,-1.0984z"/>
    <path class="fil2" d="M110.2672 102.4572c-0.3383,-0.3944 -0.8312,-0.2818 -1.0982,-0.3101 -1.5635,-0.2247 -4.0986,-0.4364 -5.1689,-0.9998 -3.2109,-1.4223 -4.7463,-2.1124 -7.873,-3.4082 -2.2887,-0.9519 -4.4847,-1.9634 -6.8194,-3.0368 0.4281,-0.1865 0.8548,-0.3669 1.2851,-0.5406 0.0134,-0.0424 4.9435,-2.1407 8.9288,-4.0697 2.8728,-1.3804 4.1684,-2.0418 5.6333,-2.0849 1.2954,-0.0561 2.9439,-0.0561 3.9581,-0.4505 0.9293,-0.3658 1.4782,-1.0698 1.6613,-1.76 0.1548,-0.6622 0.0145,-0.9437 -0.4364,-1.1409 -0.5211,-0.2394 -1.3805,-0.4363 -1.8447,-0.6759 -0.8738,-0.4366 -0.2117,-1.6057 -0.1834,-2.366 0.0138,-0.7043 -0.3377,-1.0844 -1.0704,-1.4792 -0.352,-0.1827 -0.7746,-0.3094 -1.0703,-0.1968 -0.4371,0.1408 -0.8876,0.7464 -1.3942,1.4224 -0.3665,0.4788 -0.8452,1.042 -1.6196,1.6478 -1.6757,1.3097 -3,2.1406 -4.7889,3.2816 -0.5455,0.2787 -8.2681,3.9698 -13.5128,6.3781 -5.2449,-2.4083 -12.9682,-6.0994 -13.513,-6.3781 -1.7891,-1.1409 -3.1127,-1.9719 -4.8029,-3.2816 -0.7604,-0.6058 -1.2391,-1.169 -1.6055,-1.6478 -0.507,-0.676 -0.9998,-1.3098 -1.4225,-1.4505 -0.2955,-0.1127 -0.704,0.0422 -1.0423,0.2249 -0.7461,0.3948 -1.0843,0.7749 -1.07,1.4792 0.0281,0.7603 0.6054,1.9576 -0.2677,2.3944 -0.4649,0.2394 -1.2394,0.4082 -1.7602,0.6475 -0.451,0.1972 -0.6762,0.4787 -0.5071,1.1409 0.1688,0.6902 0.7885,1.3942 1.7181,1.76 1.0282,0.3944 2.6759,0.3944 3.9574,0.4505 1.4788,0.0431 2.7744,0.7045 5.6477,2.0849 3.9855,1.929 8.9007,4.0274 8.9287,4.0697 0.4296,0.1737 0.8561,0.3534 1.2836,0.5406 -2.3386,1.0734 -4.5391,2.0846 -6.8179,3.0368 -3.1269,1.2958 -4.6481,2.0003 -7.8591,3.4227 -1.0703,0.5627 -3.6195,0.7606 -5.1825,0.9853 -0.2677,0.0283 -0.8875,-0.0138 -1.2253,0.3944 -0.5352,0.6199 -0.5352,1.0986 -0.5071,1.5914 0.0284,0.3945 0.3238,0.6622 0.8449,0.9719 0.6478,0.3945 1.4083,0.9437 1.8308,1.4792 0.366,0.4505 0.5072,0.8026 0.2817,1.0983 -0.1267,0.1548 -0.3803,0.4371 -0.6338,0.3376 -0.4085,-0.1545 -0.3663,-0.4787 -0.3799,-0.8731 -0.0145,-0.2956 -0.0988,-0.6333 -0.4791,-0.9429 0.2533,0.7041 -0.2536,1.0841 0.0141,2.112 0.1267,0.5356 0.5772,0.8731 1.0283,1.0143 1.0842,0.3517 2.5912,-0.7465 3.8587,-2.0984 0.845,-0.8876 1.0707,-1.7469 2.2959,-2.648 0.9718,-0.7041 2.1968,-1.1123 5.0839,-2.2955 4.1275,-1.6726 9.3899,-4.068 12.2898,-5.4797 2.9231,1.4118 8.1737,3.8071 12.3142,5.4797 2.8868,1.1832 4.1127,1.6196 5.0701,2.3241 1.2393,0.9013 1.4647,1.7317 2.2959,2.6193 1.2813,1.3518 2.6618,2.4367 3.7458,2.0839 0.4512,-0.1405 1.0143,-0.4642 1.1554,-0.9998 0.2532,-1.028 -0.296,-1.408 -0.0424,-2.112 -0.3803,0.3097 -0.4508,0.6473 -0.4649,0.9429 -0.0138,0.3944 0.0567,0.7186 -0.3377,0.8731 -0.2677,0.0995 -0.5355,-0.1682 -0.648,-0.3232 -0.2251,-0.2959 -0.0705,-0.7045 0.296,-1.1694 0.4219,-0.5214 1.1825,-1.028 1.8305,-1.4224 0.5211,-0.3097 0.8167,-0.5774 0.8449,-0.9719 0.0282,-0.4928 -0.0988,-1.042 -0.6337,-1.6757zm-3.0843 -19.1674l0 0c0.2109,-0.3804 0.4364,-0.9296 0.4649,-1.6199 0.3658,1.0284 -0.2819,1.8168 0,2.352 0.3803,0.6759 1.8588,0.5632 1.9293,1.4225 -0.7747,-0.5211 -1.493,-0.4228 -2.1265,-0.5916 -1.1974,-0.3239 -0.6622,-0.8447 -0.2677,-1.563zm-7.0136 4.3655l0 0c0.507,-0.2396 1.4785,-0.6618 3.2392,-0.718 0.7744,-0.0425 2.2956,-0.1832 2.8448,0.1545 -0.8308,-0.042 -1.6622,0.0426 -2.2394,0.1408 -1.1691,0.1976 -2.1827,0.7606 -3.2392,1.3099 -1.5065,0.7606 -4.5209,2.0419 -6.3232,2.8869 -1.8181,0.8676 -3.8807,1.8131 -6.1195,2.8255 -0.3356,-0.1541 -0.6753,-0.3097 -1.0184,-0.4663 0.5423,-0.2484 1.0896,-0.4994 1.645,-0.7533 3.7321,-1.718 7.5912,-3.5493 11.2107,-5.3799zm-32.8428 16.0977l0 0c-0.3663,0.1412 -0.7328,0.3937 -1.0285,0.6904 -1.2814,2.0839 -2.7322,3.6054 -4.0699,3.7458 0.9859,-0.4508 1.6196,-1.2252 2.1123,-2.0277 0.3804,-0.6061 0.5635,-1.3236 0.7464,-2.0285 0.1972,-0.7598 0.3944,-0.957 1.2253,-1.2954 2.0562,-0.859 6.1407,-2.4928 10.9431,-4.5491 1.7911,-0.7696 3.6449,-1.5914 5.5765,-2.4621 0.3172,0.1527 0.6372,0.3083 0.9635,0.4687 -1.7701,0.7936 -3.6106,1.6188 -5.4978,2.4721 -5.9854,2.6903 -10.915,4.7741 -10.9711,4.9858zm36.082 0.6904l0 0c-0.296,-0.2967 -0.6621,-0.5492 -1.028,-0.6904 -0.0568,-0.2117 -4.9996,-2.2956 -10.9852,-4.9858 -6.1687,-2.7887 -11.8305,-5.2811 -16.1399,-7.3378 -1.8168,-0.8449 -4.8165,-2.1262 -6.3237,-2.8869 -1.056,-0.5492 -2.0843,-1.1123 -3.239,-1.3099 -0.5774,-0.0982 -1.4084,-0.1827 -2.2393,-0.1408 0.5491,-0.3378 2.056,-0.197 2.8447,-0.1545 1.7605,0.0561 2.7326,0.4784 3.2394,0.718 3.6195,1.8306 7.4782,3.6619 11.2104,5.3799 4.211,1.9434 8.0979,3.7041 11.7034,5.2532 4.8031,2.0563 8.8872,3.69 10.9435,4.5491 0.8309,0.3384 1.0281,0.5356 1.2253,1.2954 0.1682,0.7049 0.3654,1.4224 0.7464,2.0285 0.4922,0.8026 1.1265,1.5769 2.1124,2.0277 -1.338,-0.1404 -2.7884,-1.6619 -4.0703,-3.7458zm-43.3214 -18.999l0 0c0.0706,-0.8593 1.5635,-0.7466 1.9299,-1.4225 0.2955,-0.5352 -0.3527,-1.3236 0,-2.352 0.0419,0.6904 0.2532,1.2395 0.4646,1.6199 0.3944,0.7183 0.9433,1.2391 -0.2677,1.563 -0.6335,0.1688 -1.3378,0.0705 -2.1268,0.5916z"/>
    <path class="fil5" d="M63.4814 123.1463l2.1549 -5.4504 0.0138 0c-0.0138,-0.0141 -0.0281,-0.0141 -0.0422,-0.0279l-0.1968 -0.1555 0.0982 -0.2389 0.0566 -0.1412 0.1125 -0.3238 0.3239 0.1267 2.3661 0.9299 0.3098 0.126 -0.1126 0.3101 -0.0564 0.1548 -0.0984 0.24 -0.2533 -0.0283c-0.0144,0 -0.0284,0 -0.0425,0 0,0.0138 0,0.0138 0,0.0138l-2.0986 5.4783c0,0 -0.0141,0 -0.0141,0.0145 0.0141,0 0.0286,0.0141 0.0286,0.0279l0.2112 0.1548 -0.099 0.2258 -0.0561 0.1548 -0.1127 0.3239 -0.3242 -0.1267 -2.4223 -0.9715 -0.3237 -0.1274 0.1267 -0.3097 0.0562 -0.1545 0.0845 -0.2255 0.2534 0.0138c0.0143,0 0.0284,0 0.0423,0l0.0142 -0.0138z"/>
    <path class="fil5" d="M94.1692 122.4418l0.6483 4.3237c0,0.0144 0,0.0144 0,0.0144 0.0138,0 0.0283,0 0.0421,0.0138l0.2532 0.0279 0.0424 0.254 0.0145 0.1548 0.056 0.3377 -0.3383 0.0424 -2.4783 0.4226 -0.338 0.0561 -0.0564 -0.3377 -0.0141 -0.1548 -0.0421 -0.254 0.2248 -0.1122c0.0144,0 0.0144,-0.0144 0.0286,-0.0144 0,-0.0138 0,-0.0138 0,-0.0276l-0.6195 -4.2961 -1.7607 0.2822c-0.0145,0.0134 -0.0145,0.0279 -0.0145,0.056l-0.0138 0.2671 -0.2677 0.0423 -0.1408 0.029 -0.3381 0.056 -0.056 -0.352 -0.3383 -2.1692 -0.0561 -0.3377 0.3384 -0.0567 0.1404 -0.0138 0.2533 -0.0428 0.1132 0.24c0.0134,0.0141 0.0134,0.0424 0.0279,0.056l6.0699 -1.028c0,-0.0142 0,-0.0424 0.0138,-0.0561l0.0145 -0.2677 0.2677 -0.0424 0.1405 -0.0282 0.3383 -0.0561 0.0561 0.3384 0.3383 2.1682 0.0424 0.338 -0.3239 0.0564 -0.1411 0.0286 -0.2678 0.042 -0.0984 -0.2392c-0.0144,-0.0286 -0.0282,-0.0424 -0.0282,-0.0561l-1.7325 0.2953z"/>
    <path class="fil5" d="M102.197 122.7657l0.1973 0.5073 3.4509 -1.3804c0,-0.0138 0,-0.0424 0,-0.0561l-0.0283 -0.2677 0.2396 -0.0843 0.1404 -0.0568 0.3105 -0.1125 0.1266 0.3097 0.8306 2.0426 0.1266 0.3377 -0.3376 0.1129 -0.1267 0.0564 -0.2539 0.0839 -0.1405 -0.2106c-0.0145,-0.0283 -0.0286,-0.0427 -0.0424,-0.0564l-5.9432 2.2394 -0.3239 0.1267 -0.1126 -0.3239 -0.0567 -0.1548 -0.0843 -0.2255 0.1969 -0.1551c0.0141,-0.0145 0.0285,-0.0283 0.0423,-0.0283 0,-0.0138 -0.0138,-0.0138 -0.0138,-0.0138l-2.0284 -5.4085c0,-0.0137 0,-0.0137 0,-0.0279 -0.0134,0 -0.0279,0 -0.0561,0.0142l-0.2395 0 -0.0843 -0.2396 -0.0561 -0.1411 -0.1129 -0.324 0.3101 -0.1121 5.8445 -2.1551c0,-0.0138 0,-0.0425 0,-0.0706l-0.0286 -0.2532 0.2532 -0.0988 0.1419 -0.0424 0.3094 -0.1122 0.1132 0.3094 0.7458 1.9717 0.1129 0.3101 -0.3239 0.1267 -0.1267 0.0424 -0.2539 0.0987 -0.1405 -0.2254c-0.0138,-0.0145 -0.0282,-0.0279 -0.0282,-0.0424l-3.4506 1.3099 0.1689 0.4643 1.9573 -0.7461c0,-0.0283 0,-0.0421 0,-0.0702l-0.0276 -0.254 0.2533 -0.0984 0.1267 -0.042 0.3097 -0.1129 0.1267 0.3101 0.7464 1.845 0.1267 0.3383 -0.3232 0.1123 -0.1411 0.056 -0.24 0.0843 -0.1544 -0.211c-0.0145,-0.0279 -0.029,-0.0417 -0.0427,-0.056l-1.9859 0.7602z"/>
    <path class="fil5" d="M73.2133 48.517l4.1265 -0.8171c0,-0.0139 0,-0.042 0,-0.056l0 -0.2678 0.2534 -0.0705 0.1412 -0.0281 0.338 -0.0985 0.0841 0.3383 0.4646 1.929 0.0709 0.3242 -0.3099 0.0986 -0.141 0.0281 -0.2534 0.0705 -0.1267 -0.2256c-0.0145,-0.0281 -0.0285,-0.0422 -0.0426,-0.0561l-6.6613 1.3662 -0.3243 0.0705 -0.0842 -0.3099 -0.0425 -0.1551 -0.0562 -0.2397 0.2114 -0.1408c0.0141,-0.014 0.0281,-0.014 0.0281,-0.0281 0,0 0,0 0,-0.0141l-1.4364 -5.0982c0,-0.0141 0,-0.0141 0,-0.0281 -0.0143,0 -0.028,0 -0.0423,0l-0.2538 -0.0141 -0.0702 -0.2398 -0.0424 -0.1546 -0.0843 -0.338 0.338 -0.0845 2.5492 -0.5776 0.3239 -0.0702 0.0846 0.3096 0.0421 0.155 0.0702 0.2535 -0.225 0.1269c-0.0141,0.0139 -0.0281,0.0139 -0.0281,0.0139 0,0.0142 0,0.0142 0,0.0283l1.0984 3.9998z"/>
    <path class="fil5" d="M94.1692 46.5736l-0.6333 2.5631 0 0.0141c0.0141,0.014 0.0279,0.014 0.0424,0.0281l0.211 0.1267 -0.0561 0.2397 -0.0427 0.1547 -0.0705 0.3099 -0.3094 -0.0564 -2.5213 -0.352 -0.3803 -0.0561 0.0988 -0.3663 0.0279 -0.1547 0.0705 -0.2394 0.2399 -0.0284c0.0279,0 0.0424,0 0.0561,0 0,0 0,0 0,-0.0141l1.1546 -4.7322 0.0847 -0.366c0,-0.0141 0.0144,-0.0141 0.0144,-0.0141 -0.0144,-0.0142 -0.0286,-0.0142 -0.0423,-0.0281l-0.2117 -0.127 0.0567 -0.2535 0.0421 -0.1411 0.0705 -0.3094 0.3094 0.0564 3.1267 0.5068 0.3665 0.0563 -0.0988 0.3664 -0.0282 0.1404 -0.0703 0.2533 -0.1132 0.0145 1.7752 2.5915 0.5634 -2.141c-0.0145,-0.0139 -0.0287,-0.0139 -0.0424,-0.028l-0.2117 -0.1267 0.0567 -0.2536 0.0424 -0.1408 0.0843 -0.3239 0.3098 0.0704 2.4084 0.5212 0.352 0.0841 -0.0843 0.3384 -0.0427 0.1548 -0.0561 0.2393 -0.2532 0.0144c-0.0145,0 -0.0424,0 -0.0424,0 -0.0145,0 -0.0145,0.0138 -0.0145,0.0138l-1.2389 5.0982c0,0.0145 0,0.0145 0,0.0284 0,0 0.0138,0.0142 0.0283,0.0283l0.2109 0.1267 -0.056 0.2395 -0.0428 0.1549 -0.0705 0.3239 -0.3239 -0.0706 -2.4928 -0.5632 -0.3376 -0.0702 0.0843 -0.3383 0.042 -0.1547 0.0568 -0.2677 0.0984 0 -2.1975 -3.1404z"/>
    <path class="fil5" d="M49.3134 55.77c-0.0846,-0.5632 -0.0144,-1.0984 0.1973,-1.5916 0.2111,-0.5352 0.5771,-1.0141 1.0278,-1.4363 0.4646,-0.4366 1.0423,-0.8169 1.662,-1.0846 0.5914,-0.2533 1.2111,-0.4086 1.8309,-0.4224 0.5354,-0.0143 1.0703,0.0702 1.5633,0.2394 0.5068,0.1692 0.9857,0.4227 1.3801,0.7465 0.4226,0.338 0.7464,0.7464 0.9717,1.197 0.2255,0.4646 0.338,0.9577 0.324,1.4504 -0.028,1.0423 -0.6338,1.9719 -1.5209,2.6621 -0.9296,0.7324 -2.1691,1.2111 -3.338,1.2536 -1.0139,0.0422 -1.9574,-0.2677 -2.6755,-0.789 -0.7468,-0.5491 -1.282,-1.3377 -1.4226,-2.2251zm2.6759 -0.4927l0 0c0.0281,0.2958 0.1831,0.5632 0.4225,0.7743 0.2533,0.2114 0.5773,0.3521 0.9576,0.3802 0.4366,0.0284 0.9153,-0.0983 1.3238,-0.3239 0.3803,-0.211 0.676,-0.4927 0.8029,-0.8167 0.0564,-0.1692 0.0702,-0.3381 0.0564,-0.5072 -0.0284,-0.1689 -0.0845,-0.338 -0.1833,-0.4926 -0.1546,-0.2257 -0.3944,-0.4089 -0.6617,-0.5211 -0.2817,-0.1272 -0.6058,-0.1836 -0.9156,-0.1552 -0.5071,0.0422 -1.0001,0.2674 -1.338,0.6054 -0.3099,0.2958 -0.5071,0.6763 -0.4646,1.0567z"/>
    <path class="fil5" d="M62.9321 51.3616l0.7044 1.3665c0.0141,0.014 0.0141,0.014 0.0141,0.0281 0.014,0 0.0281,0 0.0422,-0.0141l0.2533 -0.0281 0.1127 0.2255 0.0564 0.1406 0.155 0.324 -0.3242 0.1408 -2.4222 1.0704 -0.2958 0.127 -0.1408 -0.296 -0.0704 -0.141 -0.1127 -0.2252 0.1972 -0.169c0.0141,-0.0143 0.0141,-0.0284 0.0281,-0.0424l-2.4787 -4.76c0,-0.0143 0,-0.0284 -0.0143,-0.0284 -0.0137,0 -0.028,0 -0.0422,0l-0.2394 0.0284 -0.1125 -0.2253 -0.0705 -0.1411 -0.1409 -0.3099 0.3239 -0.1408 3.3522 -1.4929c0.3517,-0.155 0.7461,-0.3099 1.1544,-0.4504 0.4227,-0.1412 0.8592,-0.2394 1.2677,-0.2819 0.4366,-0.0281 0.8874,0.0142 1.3099,0.1688 0.3801,0.1412 0.7465,0.3663 1.0139,0.6763 0.0706,0.0844 0.1267,0.1546 0.1833,0.2394 0.3519,0.493 0.4504,1.0422 0.3519,1.5633 -0.0845,0.4505 -0.3239,0.8731 -0.676,1.2253l1.2676 0.6196c0.0702,0.028 0.197,0.0985 0.324,0.1691 0.1972,0.0845 0.3519,0.1687 0.4084,0.1831 0.0282,0.0141 0.0422,0.0141 0.0702,0.0141 0.0284,0 0.0566,0 0.0705,-0.0141l0.3099 -0.1126 0.1267 0.2813 0.0705 0.155 0.1548 0.3238 -0.352 0.1411 -2.6759 0.9717 -0.2957 0.1126 -0.1267 -0.2815 -0.0702 -0.1407 -0.1131 -0.2677 0.1267 -0.0846c-0.0702,-0.0285 -0.1408,-0.0704 -0.2253,-0.0986 0,0 -0.0141,0 -0.0564,-0.0281l-1.8307 -0.7749 -0.5634 0.2534zm-0.9015 -1.6335l0 0 1.282 -0.6057c0.1408,-0.0562 0.1688,-0.0702 0.1969,-0.0843 0.2397,-0.1126 0.5492,-0.2533 0.5776,-0.2817 0.0702,-0.0422 0.1126,-0.0986 0.1267,-0.1408 0.0141,-0.0564 0,-0.1267 -0.0281,-0.1972 -0.0564,-0.0986 -0.1127,-0.1691 -0.1972,-0.1972 -0.0705,-0.0422 -0.1691,-0.0422 -0.2819,-0.0281 -0.1687,0.0424 -0.4085,0.1547 -0.5773,0.2393 0.0142,0 0.0142,0 -0.0844,0.0425l-1.3238 0.6195 0.3096 0.6338z"/>
    <path class="fil5" d="M82.6635 48.0099l-0.155 0.3944c-0.0142,0.0562 -0.0281,0.0846 -0.0422,0.1127 0,0 0.0141,0 0.0141,0.014l0.2674 0.0565 0 0.7461 -0.3381 0.0143 -2.6052 0.1128 -0.366 0.028 0 -0.7886 0.2814 -0.0561c0.0282,0 0.0564,-0.0144 0.0705,-0.0284 0.0141,0 0.0141,0 0.0281,-0.0145 0,0 0.0282,-0.0277 0.0422,-0.0701 0.0284,-0.0421 0.0564,-0.0986 0.0846,-0.1692l1.9436 -4.746c0.0283,-0.0564 0.0422,-0.1266 0.0702,-0.1689 0,-0.0283 0.0142,-0.0563 0.0142,-0.0705 0,-0.0283 0,-0.0566 0,-0.0702l-0.1409 -0.0566 0 -0.7179 4.3517 0 0 0.7324 -0.2392 0.0841c0,0.0283 0.0137,0.0566 0.0282,0.0847l2.4084 4.7603c0.056,0.0985 0.0984,0.1686 0.1267,0.2393 0.0279,0.0425 0.056,0.0846 0.0705,0.0986 0.0138,0.0144 0.0279,0.0144 0.0417,0.0282 0.0144,0.0143 0.0424,0.0143 0.085,0.0284l0.267 0.0564 0 0.7742 -0.352 -0.0141 -2.9712 -0.0986 -0.3383 -0.014 0 -0.7605 0.2818 -0.0561c-0.0141,-0.0143 -0.0279,-0.0564 -0.0424,-0.0845l-0.1827 -0.3804 -2.7042 0zm1.2391 -3.1405l0 0 -0.5773 1.4789 1.2675 0 -0.6902 -1.4789z"/>
    <path class="fil5" d="M101.8171 51.0943l0 -0.0281 2.4783 -4.831c0,-0.0141 -0.0138,-0.0281 -0.0275,-0.0422l-0.1835 -0.1547 0.0985 -0.2397 0.0567 -0.1408 0.1404 -0.2958 0.296 0.1127 4.056 1.6059c0.4371,0.1688 0.9436,0.4221 1.3807,0.7745 0.38,0.3098 0.7183,0.6618 0.9572,1.0703 0.2677,0.4646 0.2959,1.0279 0.183,1.5911 -0.1126,0.6482 -0.4508,1.296 -0.8026,1.8455 -0.2536,0.366 -0.5492,0.6615 -0.8731,0.8868 -0.3377,0.2394 -0.7187,0.3944 -1.113,0.479 -0.5067,0.0986 -1.0559,0.0845 -1.5914,0 -0.5211,-0.0846 -1.0421,-0.2397 -1.5209,-0.4223l-3.8163 -1.4085 -0.3384 -0.1268 0.1549 -0.3239 0.0567 -0.1412 0.1122 -0.2392 0.2399 0.0281c0.0135,0.0139 0.0279,0.0139 0.0417,0.0139 0.0145,-0.0139 0.0145,-0.0139 0.0145,-0.0139zm3.2251 -0.2394l0 0 1.4224 0.5492c0.1692,0.0561 0.3376,0.1125 0.5069,0.141 0.1412,0.0138 0.2956,0.0138 0.4368,0 0.1267,-0.014 0.267,-0.0564 0.3799,-0.127 0.1133,-0.0565 0.2255,-0.1409 0.3243,-0.2674 0.1129,-0.1267 0.211,-0.2817 0.2956,-0.4366 0.0988,-0.1692 0.1693,-0.3384 0.1972,-0.4509 0.0705,-0.2673 0.0138,-0.5212 -0.1411,-0.7464 -0.1828,-0.2533 -0.4922,-0.4646 -0.9293,-0.6335l-1.2253 -0.4649 -1.2675 2.4365z"/>
    <path class="fil5" d="M120.379 55.77c-0.1412,0.8874 -0.6615,1.676 -1.408,2.2251 -0.7328,0.5213 -1.6764,0.8312 -2.69,0.789 -1.1687,-0.0426 -2.4084,-0.5213 -3.3376,-1.2536 -0.8739,-0.6902 -1.4934,-1.6197 -1.5215,-2.6621 -0.0138,-0.4927 0.0987,-0.9858 0.3238,-1.4504 0.2255,-0.4505 0.5493,-0.859 0.9726,-1.197 0.3938,-0.3239 0.8725,-0.5773 1.3798,-0.7465 0.4931,-0.1691 1.028,-0.2536 1.5635,-0.2394 0.6195,0.0138 1.253,0.169 1.8446,0.4224 0.6054,0.2677 1.1829,0.648 1.6613,1.0846 0.4515,0.4223 0.8033,0.9012 1.0287,1.4363 0.1972,0.4932 0.2816,1.0284 0.1828,1.5916zm-2.6755 -0.4927l0 0c0.042,-0.3804 -0.1549,-0.7609 -0.465,-1.0567 -0.3376,-0.338 -0.8305,-0.5632 -1.3236,-0.6054 -0.3238,-0.0284 -0.6476,0.0281 -0.9299,0.1552 -0.2677,0.1122 -0.507,0.2954 -0.6477,0.5211 -0.1125,0.1546 -0.1686,0.3237 -0.1972,0.4926 -0.0138,0.1691 0,0.338 0.0709,0.5072 0.1125,0.324 0.4219,0.6057 0.7884,0.8167 0.4086,0.2256 0.8873,0.3522 1.3236,0.3239 0.3807,-0.0281 0.7183,-0.1688 0.9578,-0.3802 0.2392,-0.2111 0.3948,-0.4785 0.4227,-0.7743z"/>
    <path class="fil5" d="M57.5946 118.0335l-0.9016 1.4792c0,0.0138 -0.0141,0.0138 -0.0141,0.0282 0.0141,0 0.0141,0.0138 0.0282,0.0283l0.169 0.1972 -0.1406 0.2106 -0.0847 0.1271 -0.1972 0.2956 -0.2817 -0.1972 -2.211 -1.5346 -0.2817 -0.1834 0.1833 -0.2815 0.0841 -0.1267 0.1412 -0.211 0.2394 0.0699c0.0139,0 0.0284,0 0.042,0l3.1124 -4.9291c0.0144,-0.0145 0.0144,-0.0145 0.0144,-0.0283 0,-0.0144 -0.0144,-0.0144 -0.028,-0.0286l-0.1552 -0.1968 0.1408 -0.2114 0.0846 -0.1266 0.1831 -0.2815 0.2819 0.1827 3.1263 1.9996c0.3241,0.1979 0.6338,0.4089 0.9578,0.6483 0.3097,0.2393 0.6055,0.5215 0.8731,0.8725 0.3239,0.4227 0.4083,1.0005 0.3239,1.5635 -0.0986,0.5916 -0.3944,1.1694 -0.7888,1.5215 -0.2393,0.211 -0.521,0.3802 -0.8028,0.4932 -0.3098,0.1122 -0.6338,0.1682 -0.9012,0.1682 -0.3239,0 -0.6197,-0.056 -0.9015,-0.1545 -0.2955,-0.0988 -0.5632,-0.2399 -0.8166,-0.4082 -0.3099,-0.1972 -0.6759,-0.4508 -1.0143,-0.6621 -0.1688,-0.1267 -0.3238,-0.2254 -0.4645,-0.3242zm1.0844 -1.8447l0 0 0.9998 0.6337c0.0845,0.056 0.2112,0.1408 0.3522,0.2113 0.1547,0.0843 0.5773,0.3947 0.704,0.0987 0.0281,-0.0987 0.0425,-0.1971 0.0145,-0.2677 -0.0286,-0.1122 -0.085,-0.211 -0.1833,-0.296 -0.1691,-0.1689 -0.3804,-0.2956 -0.5773,-0.4223l-0.93 -0.5916 -0.3799 0.634z"/>
    <path class="fil5" d="M113.14 112.4847l0.0282 0.3097 0.1555 1.9721 0.0279 0.2815c0.1972,-0.0145 0.3803,0 0.563,0.0423 0.3384,0.0706 0.6622,0.2255 0.9437,0.4508 0.3101,0.2533 0.5211,0.5493 0.6476,0.8587 0.1556,0.3384 0.2117,0.7045 0.1835,1.0565 -0.0141,0.3239 -0.0984,0.6337 -0.2396,0.9293 -0.1267,0.3105 -0.3097,0.5916 -0.5349,0.8452 -0.3101,0.3517 -0.775,0.7328 -1.3242,1.0845 -0.5493,0.352 -1.1685,0.6904 -1.8024,0.9436 -0.2678,0.1126 -0.5356,0.211 -0.8026,0.296 -0.254,0.0698 -0.5077,0.1405 -0.7328,0.169 -0.0705,0.0137 -0.1267,0.0275 -0.1693,0.0275l-0.0705 0.1972 -0.2389 0 -0.1405 0 -0.31 0 -0.0428 -0.296 -0.2532 -2.1399 -0.0424 -0.3662 0.3799 -0.0144 0.1412 0 0.1972 0 0.0984 0.1692c0.0145,0 0.0145,0.0142 0.0145,0.0142 0.0144,0.0137 0.056,0.0282 0.0843,0.0282 0.0984,0.0138 0.2116,0.0138 0.352,-0.0145 0.2956,-0.056 0.7461,-0.1827 1.2115,-0.3799 0.3661,-0.1548 0.7461,-0.3383 1.0559,-0.5637 0.1834,-0.1267 0.352,-0.3239 0.4928,-0.5066 0.1267,-0.1831 0.2117,-0.3527 0.2254,-0.4794 0,0 0,0 0,-0.0138l-0.0137 0c-0.0424,0 -0.085,0 -0.1274,0 -0.0417,0 -0.126,0.0427 -0.2533,0.0843 -0.1689,0.0705 -0.3799,0.169 -0.5916,0.2822l-1.2951 0.6615c-0.3383,0.1689 -0.7609,0.352 -1.1832,0.4511 -0.352,0.0843 -0.7048,0.1267 -1.0424,0.0843 -0.211,-0.0282 -0.4085,-0.0988 -0.5771,-0.1834 -0.4227,-0.1969 -0.7183,-0.5492 -0.8877,-0.9574 -0.1689,-0.38 -0.2109,-0.8316 -0.1544,-1.2531 0.0279,-0.2399 0.0984,-0.4649 0.211,-0.6759 0.2818,-0.5782 0.6621,-1.0143 1.1268,-1.3808 0.4364,-0.3516 0.9436,-0.6195 1.4785,-0.8731 0.2399,-0.1129 0.4932,-0.2251 0.7609,-0.3239 0.2815,-0.0984 0.5771,-0.1834 0.9293,-0.2677 0.0145,-0.0141 0.0282,-0.0141 0.0424,-0.0141 0.1692,-0.0421 0.4364,-0.1126 0.6057,-0.2255 0.0279,-0.0138 0.0567,-0.0282 0.0702,-0.056 0,0 0.0144,-0.0145 0.0144,-0.0283l0.0843 -0.2396 0.2533 0 0.1411 0.0142 0.3095 0zm-0.3662 2.6476l0 0 -0.1541 0 -0.0847 -0.1972c-0.0427,0 -0.0988,-0.0138 -0.1693,-0.0283 -0.2677,-0.0279 -0.6054,0.0567 -0.9574,0.1972 -0.3662,0.1548 -0.7465,0.3521 -1.0421,0.5215 -0.1693,0.1122 -0.5073,0.3101 -0.7464,0.5488 -0.169,0.1694 -0.2822,0.3521 -0.2117,0.4794 0.0145,0.0283 0.0145,-0.0423 0.0427,-0.0423 0.1972,-0.0283 0.4505,-0.1412 0.6195,-0.2399l0.6337 -0.3517c0.2396,-0.1405 0.6621,-0.3521 1.1408,-0.5493 0.2957,-0.1411 0.6333,-0.2532 0.9293,-0.3383z"/>
    <path class="fil5" d="M72.5231 124.3994l-0.4082 1.7745c0,0.0144 -0.0144,0.0144 -0.0144,0.0279 0.0144,0 0.0284,0.0144 0.0425,0.0144l0.2112 0.1412 -0.0704 0.2396 -0.0422 0.1548 -0.0846 0.3239 -0.3239 -0.0847 -2.6337 -0.6903 -0.3239 -0.0988 0.0845 -0.3232 0.0422 -0.1552 0.0706 -0.2399 0.2394 -0.0138c0.028,0 0.0423,0 0.056,0l1.3661 -5.7034c0,-0.0145 0,-0.0283 0.0144,-0.0283 -0.0144,-0.0144 -0.0281,-0.0144 -0.0425,-0.0286l-0.2113 -0.1404 0.0705 -0.24 0.0281 -0.1548 0.099 -0.3239 0.3239 0.0851 3.7177 0.9429c0.1552,0.0282 0.3099,0.0705 0.4791,0.1122 0.7464,0.17 1.4644,0.3384 1.9856,0.7187 0.3098,0.2258 0.5356,0.5495 0.6622,0.9017 0.1546,0.3799 0.2113,0.8026 0.1827,1.2115 -0.0281,0.352 -0.1267,0.7038 -0.3094,1.0135 -0.1552,0.2957 -0.3946,0.5496 -0.6904,0.7328 -0.2536,0.1689 -0.5491,0.267 -0.8449,0.3376 -0.1548,0.0286 -0.3099,0.0424 -0.4506,0.0561l0.5632 1.3243c0.0705,0.1404 0.127,0.296 0.1972,0.4081 0.0846,0.169 0.1552,0.3102 0.197,0.3807 0.0143,0.0282 0.0284,0.0427 0.0424,0.056 0.0281,0.0138 0.0422,0.0283 0.0702,0.0428l0.3103 0.0984 -0.0847 0.3098 -0.0424 0.1544 -0.0846 0.3105 -0.3236 -0.0706 -2.634 -0.5492 -0.352 -0.085 0.0986 -0.3376 0.0426 -0.1545 0.0701 -0.2822 0.155 0.0145c-0.0281,-0.0988 -0.0844,-0.2255 -0.155,-0.3945l-0.6617 -1.634 -0.6339 -0.1548zm0.4084 -1.9714l0 0 1.296 0.352c0.197,0.0425 0.5067,0.1267 0.7745,0.1267 0.1691,-0.0144 0.3099,-0.0427 0.352,-0.1686 0.014,-0.0991 0.014,-0.1696 -0.0281,-0.2395 -0.0425,-0.085 -0.1268,-0.1556 -0.2254,-0.2117 -0.1831,-0.0843 -0.4508,-0.1548 -0.6338,-0.211 -0.0704,-0.0145 0,0 -0.0565,-0.0145l-1.3097 -0.3239 -0.1691 0.6904z"/>
    <path class="fil5" d="M82.6635 127.6248c-0.014,0.042 -0.0285,0.0843 -0.0423,0.1122l0.0138 0 0.2678 0.0706 0 0.7746 -0.366 -0.0282 -2.5916 -0.169 -0.3237 -0.0137 0 -0.7465 0.2674 -0.0567c0.0422,-0.0138 0.0702,-0.0138 0.0846,-0.0283 0.014,-0.0138 0.014,-0.0138 0.014,-0.0138 0.0138,-0.0141 0.0281,-0.0279 0.0562,-0.0701 0.0281,-0.0564 0.0564,-0.1133 0.0845,-0.1831l2.1972 -5.2673c0.0282,-0.0706 0.0422,-0.1267 0.0562,-0.1834 0.0139,-0.0276 0.0139,-0.0421 0.0139,-0.0561 0,-0.042 0,-0.0561 0,-0.0843l-0.1267 -0.0424 0 -0.7324 0.3381 0 3.3661 0.0564 0.3377 0 0 0.7464 -0.2392 0.0702 -0.0145 0c0.0145,0.0283 0.0289,0.0564 0.0427,0.0988l0.0141 0.0282 2.0278 5.3796c0.0427,0.0843 0.0843,0.1548 0.1267,0.2254 0.0289,0.0424 0.0427,0.0706 0.0563,0.0985 0.0142,0 0.0286,0.0144 0.0424,0.0144 0.0279,0.0138 0.0568,0.0283 0.0843,0.0283l0.2678 0.056 0 0.7606 -0.3243 0.0138 -2.7457 0.085 -0.352 0.0137 0 -0.7884 0.2677 -0.0424c-0.0145,-0.0279 -0.0145,-0.0568 -0.0427,-0.0984l-0.0141 -0.0427 -0.1831 -0.5489 -2.4222 -0.0564 -0.2394 0.6198zm2.0561 -2.3802l0 0 -0.5492 -1.6059 -0.5916 1.5776 1.1408 0.0283z"/>
    <path class="fil2" d="M63.7913 123.2585l2.1691 -5.4363c0.042,-0.0844 0.042,-0.1686 0.028,-0.2255 -0.028,-0.0705 -0.0846,-0.1267 -0.1691,-0.1972l0.0564 -0.1548 2.3661 0.9436 -0.0566 0.1412c-0.1125,0 -0.1968,0 -0.2532,0.0423 -0.0562,0.0283 -0.0986,0.0988 -0.1408,0.1831l-2.0985 5.4783c-0.0281,0.0985 -0.0426,0.169 -0.0281,0.2396 0.0281,0.0705 0.0844,0.1267 0.1688,0.1972l-0.0563 0.1411 -2.4223 -0.9722 0.0561 -0.1411c0.113,0 0.1832,0 0.2397,-0.0421 0.056,-0.0279 0.1126,-0.0984 0.1408,-0.1972z"/>
    <path class="fil2" d="M93.7755 122.1603l0.7038 4.6612c0.0145,0.0988 0.0427,0.1693 0.0988,0.2117 0.042,0.0424 0.1267,0.0705 0.2395,0.0984l0.0138 0.1549 -2.479 0.4081 -0.0279 -0.1548c0.1129,-0.056 0.169,-0.0984 0.1972,-0.1689 0.0424,-0.0561 0.0424,-0.126 0.0279,-0.2255l-0.6614 -4.6468 -2.1551 0.3513c-0.084,0.0141 -0.1408,0.0424 -0.1827,0.0991 -0.0424,0.0417 -0.0568,0.1267 -0.0706,0.2533l-0.1411 0.0282 -0.3377 -2.1834 0.1405 -0.0141c0.0564,0.1129 0.0988,0.1835 0.1555,0.2258 0.056,0.0283 0.1267,0.0421 0.211,0.0283l6.126 -1.0281c0.085,-0.0279 0.1549,-0.0567 0.1972,-0.1129 0.029,-0.0423 0.0568,-0.1411 0.0706,-0.2532l0.1411 -0.0283 0.3377 2.1689 -0.1405 0.0279c-0.0567,-0.1129 -0.0984,-0.1827 -0.1548,-0.2251 -0.0568,-0.0282 -0.1267,-0.042 -0.2113,-0.0282l-2.0984 0.352z"/>
    <path class="fil2" d="M101.7466 122.5685l0.4504 1.1409 3.7889 -1.5068c0.0842,-0.0286 0.1404,-0.0705 0.1686,-0.1412 0.0285,-0.056 0.0285,-0.1411 0.0285,-0.267l0.1267 -0.0431 0.8309 2.0426 -0.1267 0.0564c-0.0705,-0.0988 -0.1267,-0.1693 -0.1972,-0.1976 -0.0561,-0.0279 -0.1267,-0.0279 -0.211,0.0145l-5.9718 2.2532 -0.0564 -0.1548c0.0843,-0.0705 0.1411,-0.1267 0.1548,-0.1972 0.0282,-0.0561 0.0282,-0.1412 -0.0138,-0.2393l-2.0281 -5.4084c-0.042,-0.0984 -0.0843,-0.1545 -0.1408,-0.1972 -0.0564,-0.0279 -0.1408,-0.0424 -0.2539,-0.0424l-0.0417 -0.1405 5.8727 -2.1689c0.0843,-0.0279 0.1412,-0.0705 0.1686,-0.1411 0.0286,-0.0568 0.0286,-0.1408 0.0141,-0.2677l0.1412 -0.0424 0.7324 1.9579 -0.127 0.0424c-0.0706,-0.0985 -0.1267,-0.1552 -0.1972,-0.1835 -0.0561,-0.0282 -0.1267,-0.0282 -0.211,0.0145l-3.7881 1.4358 0.4082 1.0993 2.3096 -0.8731c0.0843,-0.0424 0.1411,-0.085 0.1693,-0.1412 0.0279,-0.056 0.0279,-0.1405 0.0137,-0.2677l0.1412 -0.0417 0.7327 1.8447 -0.1273 0.056c-0.0705,-0.0984 -0.1271,-0.1545 -0.1976,-0.1827 -0.056,-0.0424 -0.1266,-0.0424 -0.2106,0l-2.3523 0.8869z"/>
    <path class="fil2" d="M112.8161 112.8229l0.1693 1.9717 -0.1412 0c-0.0138,-0.0282 -0.0282,-0.056 -0.0423,-0.0705 -0.0565,-0.0988 -0.1824,-0.1274 -0.3941,-0.1548 -0.6622,-0.0843 -1.6059,0.4081 -2.2112,0.7602 -0.3799,0.2254 -1.4365,0.8876 -1.0838,1.493 0.1683,0.2956 0.7882,0.0279 1.1121,-0.1549l0.6476 -0.352c0.3944,-0.2251 1.2958,-0.6759 2.0422,-0.8593 0.634,-0.1687 1.2538,-0.0417 1.7325,0.3527 0.5349,0.4498 0.7465,1.0414 0.7038,1.633 -0.0417,0.5492 -0.2956,1.113 -0.69,1.5635 -0.5775,0.6621 -1.8024,1.4365 -2.9996,1.9434 -0.5074,0.2117 -1.014,0.3662 -1.4648,0.4505 -0.1834,0.0282 -0.2956,0.0145 -0.3239,0.0282 -0.0279,0.0286 -0.056,0.0847 -0.0984,0.1835l-0.1405 0 -0.2684 -2.1269 0.1552 -0.0138c0.0138,0.0283 0.0138,0.0424 0.0282,0.0561 0.1412,0.1693 0.4365,0.1972 0.7603,0.1411 0.5778,-0.0984 1.6481,-0.4649 2.409,-0.9998 0.4217,-0.3101 0.8164,-0.8455 0.8587,-1.2258 0.0282,-0.2533 -0.0988,-0.4361 -0.507,-0.3937 -0.1689,0.0138 -0.5633,0.1965 -0.9722,0.3937l-1.2958 0.6621c-0.5627,0.296 -1.3797,0.592 -2.0136,0.507 -1.2813,-0.1828 -1.634,-1.6341 -1.1691,-2.5771 0.5211,-1.0566 1.4224,-1.6192 2.4507,-2.0987 0.4508,-0.211 0.9719,-0.4082 1.6341,-0.5775 0.1827,-0.0424 0.5204,-0.1267 0.7602,-0.2812 0.0984,-0.0705 0.1834,-0.1548 0.211,-0.2536l0.1408 0z"/>
    <path class="fil2" d="M72.9596 48.9255l4.4929 -0.9013c0.0986,-0.0143 0.1549,-0.0564 0.183,-0.1126 0.0423,-0.0564 0.0563,-0.1552 0.0423,-0.2677l0.1408 -0.0426 0.4649 1.9295 -0.127 0.0424c-0.0705,-0.1125 -0.1266,-0.1831 -0.1829,-0.2113 -0.0564,-0.0283 -0.127,-0.0283 -0.2111,-0.014l-6.6758 1.3662 -0.0424 -0.1412c0.0986,-0.0702 0.155,-0.1267 0.1831,-0.1831 0.0144,-0.056 0.0282,-0.1408 0,-0.239l-1.4506 -5.1127c-0.0279,-0.0986 -0.0563,-0.1688 -0.1128,-0.2113 -0.0561,-0.0281 -0.1408,-0.0564 -0.2532,-0.0564l-0.0283 -0.1549 2.5492 -0.5912 0.0281 0.1548c-0.0845,0.0564 -0.1547,0.1126 -0.169,0.1831 -0.0282,0.056 -0.0282,0.1408 0,0.2394l1.1688 4.3238z"/>
    <path class="fil2" d="M94.0144 45.7561l-0.8026 3.296c-0.0279,0.0986 -0.0279,0.1831 0,0.2394 0.0282,0.0564 0.0843,0.1267 0.183,0.1834l-0.042 0.1545 -2.5212 -0.366 0.0423 -0.1548c0.1133,-0.0143 0.1831,-0.0284 0.2393,-0.0705 0.0567,-0.0422 0.0991,-0.1126 0.1128,-0.2115l1.1547 -4.732 0.0984 -0.3802c0.0289,-0.0844 0.0145,-0.1691 0,-0.2252 -0.0279,-0.0706 -0.0984,-0.1267 -0.1827,-0.1831l0.0282 -0.1549 3.1267 0.521 -0.0424 0.155c-0.1267,0 -0.211,0.056 -0.2392,0.1687 -0.0145,0.0706 -0.0145,0.1833 0.056,0.2819l2.2533 3.2814 0.7467 -2.8589c0.0283,-0.0847 0.0283,-0.1691 0,-0.2253 -0.0279,-0.0705 -0.0984,-0.1269 -0.1834,-0.1832l0.0283 -0.1547 2.4083 0.5349 -0.0427 0.155c-0.0984,0 -0.1827,0.028 -0.2389,0.0705 -0.0567,0.0422 -0.0849,0.0986 -0.1128,0.1972l-1.2535 5.1123c-0.0141,0.0986 -0.0141,0.1688 0.0138,0.2394 0.0289,0.0564 0.085,0.1128 0.1834,0.1691l-0.0423 0.1551 -2.4928 -0.5636 0.0427 -0.141c0.1267,0 0.211,-0.0562 0.2251,-0.1689 0.0283,-0.0564 0,-0.1972 -0.1273,-0.3803l-2.6194 -3.7607z"/>
    <path class="fil2" d="M50.7637 52.9955c0.8735,-0.8029 2.1126,-1.3803 3.2677,-1.4224 1.0141,-0.0142 1.9999,0.3241 2.7322,0.9154 0.7745,0.6197 1.1829,1.4931 1.169,2.38 -0.0564,1.9154 -2.4226,3.493 -4.535,3.5774 -1.859,0.0706 -3.4925,-1.1405 -3.7462,-2.7321 -0.1692,-1.0282 0.3097,-1.9858 1.1123,-2.7181zm0.8872 2.3098l0 0c0.0709,0.7745 0.7889,1.4083 1.7042,1.4647 0.986,0.0561 2.141,-0.5352 2.4508,-1.3661 0.1691,-0.437 0.0986,-0.9016 -0.1547,-1.296 -0.3805,-0.5632 -1.1409,-0.9012 -1.8874,-0.8447 -1.1268,0.0986 -2.211,1.0283 -2.1128,2.0421z"/>
    <path class="fil2" d="M62.4817 51.2068l0.859 1.6761c0.0425,0.0846 0.0843,0.155 0.1548,0.1832 0.0564,0.0285 0.141,0.0421 0.2536,0.014l0.0561 0.1408 -2.4081 1.0844 -0.0705 -0.1548c0.0843,-0.0703 0.1269,-0.1406 0.1408,-0.1972 0.0141,-0.0705 0.0141,-0.1546 -0.0281,-0.2394l-2.479 -4.7743c-0.0422,-0.0841 -0.0982,-0.1408 -0.1546,-0.1831 -0.0564,-0.0281 -0.1412,-0.0281 -0.2534,-0.0141l-0.0706 -0.1412 3.3659 -1.4924c0.6902,-0.2958 1.5356,-0.6199 2.3241,-0.6903 0.7324,-0.0701 1.5349,0.1551 2.0281,0.7183 0.8449,0.9718 0.5069,2.1832 -0.5071,2.8731l1.7321 0.8592c0.3383,0.155 0.6478,0.3239 0.7748,0.3661 0.1267,0.0422 0.2533,0.0422 0.38,0l0.0705 0.1408 -2.6759 0.9862 -0.0705 -0.1552c0.1272,-0.0844 0.1832,-0.1971 0.1272,-0.2675 -0.1131,-0.1829 -0.3524,-0.2818 -0.5777,-0.3662l-1.9718 -0.8448 -0.9998 0.4785zm-0.6058 -1.0279l0 0 1.5914 -0.7467c0.2114,-0.0985 0.7325,-0.3379 0.8171,-0.3941 0.2815,-0.1827 0.3519,-0.4646 0.1972,-0.7745 -0.1691,-0.3519 -0.493,-0.4789 -0.845,-0.3945 -0.2533,0.0563 -0.5494,0.2114 -0.7466,0.2959l-1.6337 0.7605 0.6198 1.2534z"/>
    <path class="fil2" d="M82.4382 47.6716l-0.2534 0.6201c-0.0424,0.1127 -0.0849,0.2109 -0.0849,0.2818 0,0.1408 0.0986,0.2253 0.2958,0.2819l0 0.1546 -2.6052 0.1124 0 -0.1408c0.1127,-0.0281 0.1972,-0.0702 0.2677,-0.1263 0.0561,-0.0706 0.1264,-0.1836 0.2114,-0.3664l1.9289 -4.7463c0.0705,-0.1552 0.1127,-0.2677 0.1127,-0.3663 0,-0.1408 0.0426,-0.296 -0.1408,-0.3662l0 -0.1406 3.6758 0 0 0.1406c-0.169,0.0566 -0.2533,0.1411 -0.2533,0.2819 0,0.0843 0.0283,0.1829 0.0843,0.2954l2.4084 4.7604c0.0988,0.1975 0.1828,0.3383 0.2533,0.4225 0.0705,0.0705 0.1693,0.127 0.2959,0.1411l0 0.1547 -2.9721 -0.0987 0 -0.1546c0.1834,-0.0281 0.2822,-0.1267 0.2822,-0.2818 0,-0.0704 -0.0283,-0.1547 -0.0844,-0.2817l-0.2677 -0.5777 -3.1546 0zm1.4363 -3.6472l0 0 -1.0562 2.6617 2.3095 0 -1.2533 -2.6617z"/>
    <path class="fil2" d="M102.1272 51.2208l2.4783 -4.8445c0.0424,-0.0847 0.0568,-0.1692 0.0289,-0.2255 -0.0144,-0.0703 -0.057,-0.141 -0.1418,-0.2115l0.0568 -0.1408 4.0559 1.5916c0.7602,0.2958 1.6902,0.9296 2.1551,1.7183 0.5211,0.8873 0.0138,2.1548 -0.5916,3.056 -0.4649,0.6902 -1.0848,1.0843 -1.7748,1.2253 -0.9296,0.1969 -1.9855,-0.056 -2.9291,-0.4085l-3.8026 -1.3942 0.056 -0.1549c0.1129,0.0142 0.1972,0.0142 0.2536,-0.0142 0.0561,-0.0423 0.1129,-0.0986 0.1552,-0.1973zm2.4501 -0.1832l0 0 1.7607 0.6762c0.3799,0.1412 0.7602,0.2114 1.0986,0.1692 0.3516,-0.0426 0.6759,-0.1972 0.9436,-0.5072 0.267,-0.3238 0.4928,-0.7745 0.5489,-1.0282 0.1972,-0.7604 -0.2819,-1.4083 -1.2675,-1.7886l-1.5208 -0.5773 -1.5635 3.0558z"/>
    <path class="fil2" d="M120.0413 55.7137c-0.2533,1.5916 -1.8736,2.8027 -3.7465,2.7321 -2.0981,-0.0843 -4.4785,-1.6619 -4.5202,-3.5774 -0.029,-0.8869 0.3937,-1.7603 1.1546,-2.38 0.7321,-0.5913 1.7318,-0.9296 2.7323,-0.9154 1.1546,0.0422 2.4083,0.6196 3.2671,1.4224 0.8026,0.7324 1.282,1.69 1.1127,2.7181zm-4.0986 -2.4504l0 0c-0.7605,-0.0564 -1.5207,0.2815 -1.9015,0.8447 -0.2532,0.3944 -0.3239,0.859 -0.1548,1.296 0.3104,0.831 1.4647,1.4222 2.4652,1.3661 0.9007,-0.0564 1.6189,-0.6902 1.6895,-1.4647 0.0995,-1.0139 -0.9853,-1.9435 -2.0984,-2.0421z"/>
    <path class="fil2" d="M57.4816 117.5551l-1.0843 1.7886c-0.0422,0.0843 -0.0702,0.1549 -0.0702,0.2255 0.014,0.0702 0.0422,0.1404 0.1126,0.2251l-0.0845 0.1267 -2.2112 -1.5353 0.0847 -0.1267c0.1125,0.029 0.1972,0.029 0.2532,0.0145 0.0705,-0.0289 0.127,-0.0705 0.1833,-0.1555l3.1123 -4.9428c0.0565,-0.0851 0.0845,-0.1552 0.0704,-0.2259 0,-0.0557 -0.0424,-0.1404 -0.1125,-0.2254l0.0844 -0.1267 3.1265 1.9996c0.6342,0.4089 1.2676,0.8033 1.7322,1.4372 0.5635,0.7457 0.2397,2.0422 -0.4083,2.6338 -0.4366,0.3793 -1.0142,0.5772 -1.4788,0.5772 -0.5491,-0.0142 -1.0562,-0.2114 -1.5353,-0.5074 -0.6759,-0.4364 -1.4221,-0.9574 -1.7746,-1.1825zm0.7327 -1.2675l0 0 1.2813 0.8305c0.1976,0.1267 0.6482,0.3803 0.7324,0.4226 0.3241,0.1412 0.6904,0.0283 0.8171,-0.2815 0.141,-0.352 0.014,-0.6759 -0.2394,-0.9299 -0.1832,-0.1828 -0.4927,-0.38 -0.6618,-0.4932l-1.1834 -0.7592 -0.7461 1.2108z"/>
    <path class="fil2" d="M72.2697 123.9912l-0.4927 2.112c-0.0284,0.0985 -0.0284,0.169 0,0.2396 0.0281,0.0561 0.0842,0.1129 0.1828,0.1693l-0.0421 0.1545 -2.6338 -0.7038 0.0422 -0.1412c0.1127,-0.0138 0.1972,-0.0282 0.2536,-0.0705 0.0562,-0.0417 0.0986,-0.1122 0.1124,-0.1972l1.3802 -5.7175c0.0144,-0.0985 0.0285,-0.1834 0,-0.2396 -0.028,-0.0561 -0.0842,-0.1129 -0.1828,-0.1827l0.0421 -0.1412 3.7182 0.9293c0.8874,0.2254 1.7746,0.3665 2.3378,0.7888 0.5493,0.3944 0.7604,1.1265 0.7185,1.8031 -0.0566,0.5909 -0.3241,1.1691 -0.8309,1.493 -0.4649,0.2956 -1.0562,0.3799 -1.6619,0.3238l0.7886 1.8024c0.1551,0.3521 0.3382,0.7183 0.4084,0.8452 0.0705,0.1123 0.1691,0.1828 0.2956,0.2252l-0.0418 0.1548 -2.634 -0.5492 0.0423 -0.1549c0.1551,0.0145 0.2535,-0.0423 0.2678,-0.1267 0.0422,-0.1411 -0.0285,-0.2956 -0.2115,-0.7464l-0.7181 -1.8031 -1.1409 -0.267zm0.2674 -1.3236l0 0 1.6055 0.4365c0.4227,0.1121 1.3803,0.3516 1.5353,-0.2815 0.0986,-0.3807 -0.1127,-0.676 -0.4225,-0.8456 -0.2394,-0.1126 -0.5632,-0.1824 -0.7606,-0.2393l-1.6478 -0.4226 -0.3099 1.3525z"/>
    <path class="fil2" d="M82.3396 127.4981c-0.0426,0.1267 -0.0847,0.2255 -0.0847,0.2957 0,0.127 0.0988,0.2254 0.296,0.2815l0 0.1411 -2.5917 -0.1689 0 -0.1548c0.127,-0.0145 0.2116,-0.0568 0.2818,-0.1274 0.0564,-0.0561 0.1267,-0.1827 0.1972,-0.3521l2.1968 -5.281c0.0706,-0.1552 0.099,-0.2819 0.099,-0.3662 0,-0.1412 0.0422,-0.3098 -0.127,-0.3665l0 -0.1548 3.3661 0.0564 0 0.1551c-0.1693,0.0428 -0.2677,0.1412 -0.2677,0.2678 0,0.0843 0.0279,0.1965 0.0846,0.2959l2.0423 5.4078c0.098,0.1972 0.1827,0.3377 0.2532,0.4082 0.0705,0.085 0.1686,0.1267 0.296,0.1548l0 0.1552 -2.7467 0.0843 0 -0.1548c0.1972,-0.0279 0.2956,-0.1267 0.2956,-0.2815 0,-0.0702 -0.0417,-0.1552 -0.0984,-0.2819l-0.2533 -0.7746 -2.9152 -0.084 -0.3239 0.8448zm2.8585 -1.8873l0 0 -1.0137 -2.9857 -1.0984 2.9288 2.112 0.0568z"/>
   </g>
   <path class="fil6" d="M84.8528 3.8344c21.6407,0 41.9863,8.4273 57.2887,23.7296 15.303,15.3023 23.7301,35.6481 23.7301,57.2888 0,21.6407 -8.4271,41.9864 -23.7301,57.2887 -15.3024,15.3031 -35.6479,23.7301 -57.2887,23.7301 -21.6407,0 -41.9865,-8.427 -57.2889,-23.7301 -15.3023,-15.3023 -23.7295,-35.6479 -23.7295,-57.2887 0,-21.641 8.4272,-41.9865 23.7295,-57.2888 15.3024,-15.3023 35.6477,-23.7296 57.2889,-23.7296zm0 -3.8344l0 0c-46.8632,0 -84.8528,37.9895 -84.8528,84.8527 0,46.8631 37.9896,84.8533 84.8528,84.8533 46.8631,0 84.8533,-37.9902 84.8533,-84.8533 0,-46.8632 -37.9902,-84.8527 -84.8533,-84.8527z"/>
   <g>
    <path class="fil7" d="M65.2585 145.9571c0.5098,0.2303 0.8912,0.3476 1.7508,0.5761l1.8828 0.5004c1.0522,0.2798 1.2449,0.3308 1.8534,0.4296 -0.2827,0.7657 -0.478,1.3804 -0.7378,2.3585l-2.0643 7.767c-0.2366,0.8893 -0.3723,1.5201 -0.4764,2.2698l-3.2313 -0.8587c0.2701,-0.6584 0.4849,-1.3467 0.7133,-2.2067l2.0094 -7.5591 -0.5928 -0.1579c-0.578,-0.1535 -1.1642,-0.2778 -1.8359,-0.3769l0.729 -2.7419z"/>
    <path class="fil7" d="M76.6877 158.0261c0.0934,0.3462 0.1717,0.5073 0.3102,0.6883 0.3046,0.3958 0.7765,0.6367 1.3877,0.689 0.8556,0.0736 1.5762,-0.2488 2.0481,-0.901 0.3323,-0.4639 0.5173,-1.0019 0.6986,-2.0333 -0.8926,0.7083 -1.7912,0.954 -3.1358,0.838 -2.7505,-0.2365 -4.3948,-2.0563 -4.1737,-4.6234 0.2332,-2.7047 2.4706,-4.375 5.4962,-4.1141 1.9407,0.1672 3.4154,1.0948 4.2058,2.6407 0.5412,1.0473 0.7521,2.5282 0.6073,4.2087 -0.1395,1.6196 -0.5742,3.0905 -1.2395,4.2035 -0.6297,1.0542 -1.6826,1.8409 -2.7978,2.0988 -0.6284,0.1463 -1.3876,0.2041 -2.0754,0.1449 -1.4517,-0.1256 -2.5942,-0.6243 -3.427,-1.4961 -0.4787,-0.5187 -0.7029,-0.9536 -1.0201,-1.9196l3.1155 -0.4244zm4.4217 -4.8685l0 0c0.099,-1.146 -0.7189,-2.017 -1.9874,-2.1265 -1.2682,-0.1091 -2.2077,0.6106 -2.3075,1.7721 -0.1015,1.1763 0.6565,2.0271 1.9098,2.1348 1.314,0.1129 2.2839,-0.604 2.3852,-1.7804z"/>
    <path class="fil7" d="M88.8795 157.888c0.1353,0.4963 0.2451,0.7021 0.5121,0.9413 0.4494,0.3923 1.0807,0.5685 1.8137,0.5055 1.1922,-0.1025 1.8895,-0.7633 1.8093,-1.6953 -0.054,-0.6264 -0.4017,-1.0889 -0.9385,-1.2431 -0.362,-0.0915 -0.8418,-0.1273 -1.4379,-0.076 -0.596,0.0512 -1.2813,0.1411 -1.8715,0.2533l-0.2268 -2.628c0.5248,0.0162 1.0317,0.0038 1.6278,-0.0483 1.4516,-0.1246 2.1272,-0.6759 2.0433,-1.6536 -0.0713,-0.8254 -0.6922,-1.2489 -1.7009,-1.1622 -1.0852,0.0936 -1.5983,0.5692 -1.7432,1.5666l-3.3414 -0.1893c0.2086,-0.9722 0.4134,-1.4517 0.8562,-2.0288 0.8453,-1.0886 2.2064,-1.7294 4.0703,-1.8898 1.6658,-0.1436 3.0807,0.1958 4.0243,0.9616 0.6144,0.5169 0.9674,1.2252 1.0424,2.0959 0.1398,1.6199 -0.6442,2.7037 -2.3661,3.2678 0.9437,0.0568 1.4668,0.2279 2.0408,0.6398 0.6922,0.5252 1.1272,1.2885 1.2033,2.1747 0.0674,0.7789 -0.0847,1.5161 -0.4361,2.0853 -0.2967,0.4867 -0.7947,0.9612 -1.3377,1.2693 -0.7627,0.435 -1.9807,0.7716 -3.1267,0.87 -1.3756,0.1187 -2.7784,-0.084 -3.634,-0.5489 -0.7426,-0.3978 -1.3356,-1.0243 -1.7438,-1.8357 -0.1105,-0.2058 -0.1886,-0.3992 -0.3294,-0.7875l3.1903 -0.8445z"/>
    <path class="fil7" d="M106.3579 148.1336c-0.6298,1.2142 -0.8869,1.9176 -1.2389,3.5187 -0.5826,2.5829 -0.6438,4.5033 -0.242,7.5071l-3.4243 0.9099c-0.2004,-2.4859 -0.1402,-4.1684 0.2463,-6.2385 0.2826,-1.5033 0.5978,-2.5867 1.375,-4.6183l-4.2246 1.1227c-1.0373,0.276 -1.5928,0.455 -2.2105,0.6983l-0.7447 -2.8014c0.6281,-0.0874 1.4063,-0.2622 2.429,-0.5342l5.0096 -1.3318c1.3639,-0.362 1.7752,-0.4873 2.3713,-0.6935l0.6538 2.4611z"/>
   </g>
   <g>
    <path class="fil8" d="M35.3593 134.7204c-13.2199,-13.2205 -20.5008,-30.7978 -20.5008,-49.4937 0,-18.6962 7.2809,-36.2734 20.5008,-49.4931 7.7862,-7.7864 17.0843,-13.5094 27.2314,-16.9013l-0.8831 -2.3842c-28.7192,9.6605 -49.4054,36.8027 -49.4054,68.7785 0,31.1869 19.6792,57.7749 47.2964,68.0315l0.8824 -2.3824c-9.3263,-3.4571 -17.8787,-8.9123 -25.1217,-16.1554z"/>
    <path class="fil8" d="M157.4039 85.2267c0,-31.2232 -19.7255,-57.8374 -47.3931,-68.067l-0.8831 2.3828c9.3638,3.455 17.9503,8.9229 25.2185,16.1911 13.2205,13.2197 20.5013,30.7969 20.5013,49.4931 0,18.6959 -7.2808,36.2732 -20.5013,49.4937 -6.7258,6.7258 -14.5805,11.9102 -23.136,15.3852l0.8814 2.3796c26.5697,-10.7718 45.3123,-36.8242 45.3123,-67.2585z"/>
   </g>
   <path class="fil9" d="M94.894 13.4631c-0.1043,-0.3686 -0.4326,-0.6288 -0.8153,-0.6452l-6.3683 -0.2788 -2.0212 -5.7903c-0.1243,-0.3558 -0.4598,-0.5938 -0.8357,-0.5938 -0.0025,0 -0.0049,0 -0.0075,0 -0.3791,0.0034 -0.7152,0.2474 -0.8332,0.6078l-1.91 5.7763 -6.4755 0.2788c-0.384,0.0165 -0.7133,0.2786 -0.8156,0.6487 -0.1025,0.3706 0.0465,0.7645 0.3666,0.976l5.1898 3.4151 -2.0366 6.3528c-0.1187,0.3699 0.0176,0.7743 0.3363,0.9967 0.3182,0.2225 0.7447,0.2115 1.0509,-0.0276l5.1871 -4.0377 5.074 4.0327c0.161,0.1281 0.3561,0.1922 0.5516,0.1922 0.1728,0 0.3462,-0.0507 0.498,-0.1534 0.3201,-0.2179 0.4612,-0.6185 0.3493,-0.9895l-1.9334 -6.3666 5.089 -3.4197c0.3177,-0.2134 0.4625,-0.6066 0.3596,-0.9745z"/>
  </g>
 </g>
</svg>
