<?xml version="1.0" encoding="utf-8"?>
<!-- Generator: Adobe Illustrator 26.3.1, SVG Export Plug-In . SVG Version: 6.00 Build 0)  -->
<svg version="1.1" id="Calque_1" xmlns="http://www.w3.org/2000/svg" xmlns:xlink="http://www.w3.org/1999/xlink" x="0px" y="0px"
	 viewBox="-70 70 700 700" style="enable-background:new 0 0 595.28 841.89;" xml:space="preserve">
<style type="text/css">
	.st0{fill:url(#SVGID_1_);}
	.st1{opacity:0.77;}
	.st2{fill:#F1B50B;}
	.st3{fill:#FFFFFF;}
</style>
<g>
	<g>
		<g>
			<linearGradient id="SVGID_1_" gradientUnits="userSpaceOnUse" x1="504.2344" y1="739.8958" x2="222.4124" y2="328.3652">
				<stop  offset="0.0254" style="stop-color:#7B3533"/>
				<stop  offset="0.5673" style="stop-color:#C22E28"/>
				<stop  offset="0.6558" style="stop-color:#CB2D27"/>
				<stop  offset="0.8773" style="stop-color:#DE2922"/>
				<stop  offset="1" style="stop-color:#E52820"/>
			</linearGradient>
			<path class="st0" d="M582,438.59c0,156.46-127.71,284.04-284.15,284.04c-156.46,0-284.04-127.58-284.04-284.04
				s127.58-284.15,284.04-284.15C454.29,154.43,582,282.13,582,438.59z"/>
			<g class="st1">
				<path d="M138.47,299.72c3,6.66,18.99,16.44,26.09,25.65c2.89,3.66,4,7.44,4,10.66c0,8.33-6.77,9.77-13.32,11.55
					c-10.88,3.22-22.65,4.55-28.87,3.55c-5.55-0.88-13.99-5.66-13.21-16.77c-6.88,3-10.66,11.99-9.22,20.1
					c2.44,13.22,15.77,13.66,26.98,13.22c11.99-0.45,26.1-3.11,35.86-6.78c15.66-5.99,21.77-19.1,20.54-29.43
					c-1.11-8.55-7.77-13.44-15.44-20.99c-4.77-4.89,0.67-7.55-2.55-10.66c-2.78-2.89-8-6.77-11.66-9.22c-2.78-2-6.44-3.77-9.99-3.55
					C144.47,287.28,136.69,295.83,138.47,299.72z"/>
				<path d="M452.41,215.24c44.64,41.2,72.73,100.05,72.73,165.34c0,123.92-101.04,224.98-224.96,224.98
					c-123.82,0-224.86-101.05-224.86-224.98c0-65.29,27.98-124.13,72.73-165.34C76.1,264.22,28.79,346.61,28.79,439.77
					c0,149.47,121.92,271.38,271.38,271.38c149.45,0,271.49-121.92,271.49-271.38C571.67,346.61,524.26,264.1,452.41,215.24z
					 M201.24,676.96c-4.55,0-8.33-3.78-8.33-8.33c0-4.55,3.78-8.33,8.33-8.33c4.55,0,8.33,3.78,8.33,8.33
					C209.56,673.18,205.79,676.96,201.24,676.96z M229,616.66l-7.11-0.22l-57.52,28.32l2.23,5.89l-4.67,6.32l-27.98-21.21l4.22-5.44
					l6.44-1.22l3.56-33.87l-32.76,10.11l0.11,5.44l-5.33,4.22l-23.2-27.76l4.66-5.22l5.78,1.99l15.88-44.3l-1-9.32l4.32-5.22
					l23.65,25.98l-3.77,4.77l-6.88,0.11l-10,27.32l41.32-13l12.66,8.44l-4.56,42.09l32.54-15.44l-0.9-4.67l3-5.22l28.76,13.54
					L229,616.66z M339.81,700.05l-1.78-6l3.11-3.88l-16.66-19.66l-23.76,12.44l-22.21-13.43l-14.54,17.76l2.66,2.89l-1.56,6.66
					l-31.42-7.66l2.1-7.67l6.77-0.11l45.09-53.63l-4.11-4.88l0.11-6.56l39.19,0.11l0.11,4.89l-3.44,3.77l49.29,57.96h5.66l2,7.56
					L339.81,700.05z M403.33,678.29c-4.55,0-8.21-3.78-8.21-8.33c0-4.56,3.66-8.33,8.21-8.33c4.67,0,8.33,3.78,8.33,8.33
					C411.66,674.51,407.99,678.29,403.33,678.29z M522.48,578.46c-6.88,13-16.43,30.1-27.1,41.65
					c-13.77,14.76-36.09,26.64-57.17,23.76c-11.44-1.56-19.11-2.9-29.54-0.78c3.44-7.77,2.66-21.54,3.55-31.21
					c1.56-16.54,7.44-27.76,16.88-37.97c14.33-15.44,26.54-23.88,45.52-32.32l-1.67-5.78l3.56-4.66l19.88,15.09l-4.33,4.78
					c-10.77,2.89-30.2,13.77-38.32,21.21c-11.88,10.99-21.76,29.64-11.65,40.85c5.55,6.34,13.43,5.68,21.65,2.78
					c12.11-4.21,28.77-18.76,36.76-32.64c3.88-6.88,5.99-13.88,5.1-20.33l3.88-5.65l21.66,15.32l-3.56,5.44L522.48,578.46z"/>
				<polygon points="287.81,658.38 301.03,667.04 314.91,659.49 300.58,642.72 				"/>
				<path d="M300.15,446.51c-2.44-6.11-6.55-12.21-9.88-15.43c-5.99-5.89-14.32-5.78-21.32-2.89
					c-15.21,6.22-30.65,18.55-42.75,29.43c-4.22-4.11-10.66-11.88-14.99-16.21c-7.22-7.55-11.77-6.55-17.1-2.56
					c-6.55,5.11-11.99,9.33-18.43,14.99c-4.88,4.33-10.44,10.66-11.77,16.54c-0.89,4.22,0.44,8.99,9.88,12.33
					c21.21,7.44,19.65,15.77,12.33,21.43c-4.78,3.77-24.43,2.33-36.98-3.44c-10.55-4.89-18.43-13.66-16.32-27.2
					c2.77-18.1,5.11-27.09,6-36.2c-9.33-0.67-14.77,0.22-19.1-2.67c-6-4-7.77-13.44-6.55-36.09c-0.89,6.22-4.44,12.55-7.77,18.77
					c-2.44,4.66-4,11.66-1.78,18.43c5,14.88,15.55,16.54,23.43,19.21c-0.78,11.77-4.66,25.65-3,38.31
					c1.33,9.77,8.33,20.88,19.65,25.32c17.66,7.11,39.86,12.32,50.97-0.22c7.22-8.22,9.88-15.1,9.66-20.88
					c-0.44-12.77-12.88-19.54-20.54-27.21c-4.78-4.88-2.55-11.43,4.55-16.21c6.44-4.44,10.88-4.11,16.77,0.44
					c3.78,3,8.33,8.66,13.22,15.55c-1.34,3.44-2,7.99-2.33,10.77c3.89-2.89,5.88-4.22,8.66-5.44c5,2.11,11.66,2.44,19.1,2.33
					c10.99-0.11,23.43-1.67,31.43-3.33C290.04,471.16,307.14,464.72,300.15,446.51z M235.85,462.17
					c7.22-7.66,37.31-32.31,46.3-22.54c6.44,6.77,7.33,10.44,5.55,13.88c-1.66,3.11-7.77,5.66-13.44,7.22
					C260.95,464.39,243.29,463.94,235.85,462.17z"/>
				<path d="M190.1,281.73l-6.77,7c1,3.44,4.66,7.77,9.55,8.66l6.99-7.55C196.1,288.39,191.66,284.39,190.1,281.73z"/>
				<path d="M198.88,415.75c0,10.66,5.78,4.33,14.66-2.89l-2.66-98.38c0-8.11-7.55-2.78-14.88,2.11L198.88,415.75z"/>
				<path d="M179.33,384.22c-2.44-2.33-7.44-3-7.66-3c2.66,9.99-0.11,25.09-8.22,36.09C172,413.31,184.55,400.43,179.33,384.22z"/>
				<path d="M211.76,517.36c0.11,0.33,1.67,5.11,4.33,7.11c15.32-3.11,26.76-14.77,29.87-21.32
					C231.63,513.25,219.64,518.47,211.76,517.36z"/>
				<path d="M222.42,366.9c4.33,22.99,49.19,13.66,62.52,7.99c13.44-5.77,24.1-15.32,22.43-29.2c-1-8.55-4.33-14.55-9.66-20.1
					c-4.67-5,0.22-9.1-3-12.22c-3.66-3.77-13.99-14.21-19.21-12.55c-3,1-10.44,10-8.55,12.77c3.78,5.55,17.32,14.1,24.65,23.32
					c2.77,3.66,4.44,8.55,4.44,11.88c0,11.1-26.32,15.32-35.31,16.32c-8.88,1.11-18.54,0.66-24.1-4.33
					c-3.22-2.77-5.11-7.99-4.11-16.32C225.64,347.57,220.86,358.79,222.42,366.9z"/>
				<path d="M305.03,263.18c-11.99,5.44-37.53,12.1-37.87-5.33c-9.22,4.11-13.66,19.44-6.33,26.98c6.77,7,25.87,2.66,40.75-2.89
					c12.44-4.66,38.97-17.88,36.98-34.09c-1-8.55-6.44-11.66-15.21-19.43c-5.77-5.22-0.11-6.55-3.33-9.77
					c-3.22-3.22-10.88-7.99-15.43-7.66c-3.11,0.11-11.33,11.77-8.33,13.99c6.88,4.78,13.77,8.77,20.43,13.77
					C328.68,247.64,315.14,258.63,305.03,263.18z"/>
				<path d="M335.24,204.33c0.11-0.22,5-5,4.55-8.33c-9.33-13.77-24.54-11.32-31.42-6.88C320.13,189.12,329.24,196.23,335.24,204.33
					z"/>
				<path d="M220.31,287.73c-3.89-1.56-8.33-5.55-9.88-8.22l-6.77,7c0.89,3.44,4.66,7.88,9.66,8.77L220.31,287.73z"/>
				<path d="M384.42,268.29c0.78,3.22,4.33,7.33,8.88,8.11l6.55-6.99c-3.55-1.44-7.77-5.22-9.22-7.66L384.42,268.29z"/>
				<path d="M198.54,273.07c17.77-1,33.31-8.44,45.31-21.99c4.77-5.33,8.1-11.33,8.1-17.1c0-3.55-2.44-7-5.66-8.55
					c-5.88-2.89-14.77-3.44-16.21-7.22c-2.89-7.55,10.77-11.66,15.76-11.55c10.77,0.44,16.1,8.44,20.1,8.22
					c1.44-0.11,3.33-0.78,5.89-4.44c8.77-13.1-13.88-19.65-23.21-19.21c-13.33,0.56-21.65,5.88-28.43,12.66
					c-7.22,7.22-16.88,22.21-4.11,28.43c3.67,1.78,13.21,2.22,13.21,7.66c0,2.33-1.78,5.11-4.55,7.44
					c-4.22,3.33-16.32,6.66-26.98,6.66c-10.1,0.11-18.88-2.67-18.77-11.1c0.22-10.77,3.78-15.77,10.88-26.65
					c-12.1,5.44-30.42,21.32-24.76,38.53C168.89,266.18,182.89,274.07,198.54,273.07z"/>
				<path d="M379.1,319.26c17.44,2.78,41.97-4.44,50.64-22.76c3.44-7.33,3.44-16.99,3.77-21.99c0.89-14.1-14.99-1.55-15.21,1
					c-0.44,5.55,1.67,13.32-2.89,18.99c-5.11,6.44-16.43,7.33-25.76,7.11c-8.66-0.11-22.54-1.11-25.32-11.88
					c-1.55-5.88-0.22-13.77,0.34-22.98l3.22-62.51c0.66-8.11-7.78-3.78-15.55,0.55l-3.89,75.51
					C346.89,295.05,351.78,315.04,379.1,319.26z"/>
				<path d="M202.32,553.23c4.78,6.66,19.99,18.43,37.53,19.32c2.56-2.78,0.78-8.77,0.78-9.11
					C231.97,565.33,219.86,560.77,202.32,553.23z"/>
				<path d="M232.74,417.31c1,3.55,4.77,7.88,9.66,8.77l7.11-7.55c-3.89-1.45-8.44-5.55-9.99-8.22L232.74,417.31z"/>
				<path d="M473.92,386.55c-3.67-1.44-7.77-5.11-9.22-7.66l-6.33,6.55c0.89,3.22,4.44,7.33,8.99,8.11L473.92,386.55z"/>
				<path d="M364.66,504.48c-3.67-1.33-7.77-5.11-9.22-7.55l-6.33,6.44c0.89,3.22,4.44,7.33,9,8.1L364.66,504.48z"/>
				<path d="M383.54,501.48c-3.67-1.33-7.77-5.11-9.22-7.55l-6.33,6.44c0.89,3.22,4.33,7.33,8.99,8.1L383.54,501.48z"/>
				<path d="M386.53,253.41c6.77-6.77,17.65-11.22,31.98-15.54c-7-1.89-25.76-0.89-38.09,8.77
					C380.32,250.08,386.31,253.19,386.53,253.41z"/>
				<path d="M446.05,357.57c-9.55,10.55-29.76,11.88-45.2,12.1c0.22-2.89,0.11-5.66-0.55-8.44c-3.22-15.32-14.99-27.09-20.88-25.87
					c-10.55,2.22-21.65,16.65-26.2,26.76c-3.55,7.77,7.77,17.77,12.32,19.99c5.11,2.55,11.44,4.55,18.32,5.88
					c-10.2,16.84-30.63,24.39-50.77,25.76l1.68-115.04c1.45-13.55-10.55-2-18.1,4.44l1.09,110.45c-13.79-1.13-27.11-4.65-37.4-7.96
					c7.77,10.81,22.11,19.91,37.54,22.55l0.33,33.08c0.11,10.44,2.33,27.32,24.76,26.98c19.1-0.22,35.2-6.11,41.2-17.77
					c3.77-7.44,3.44-17.21-3-29.2c-3-5.77-10.33,2-9.11,4.78c1.78,4.55,2.11,7.55,1.56,11.77c-1.11,7-4.89,12.33-22.32,12.33
					c-18.77,0-18.65-6.55-18.77-19.88l0.32-21.64c24.34-2.51,49.67-19.56,61.42-39.22c22.21,2,47.3-2.66,59.52-16.99
					c6-6.99,11.1-24.32,10.11-42.64c8.44,12.32,16.1,27.43,19.21,41.86c4,18.21,1.22,37.75-13.21,50.75
					c-3.39,3-7.29,6.58-12.19,10.72c-2.57-8.42-5.55-16.78-8.8-25.15c-6.22-16.1-8.55-15.1-17.21-10.11
					c-4.44,2.66-9.11,6.66-14.99,11.66c-4.88,4.22-5.22,11.55-4.66,19.1c0.74,11.96,1.57,23.57,2.21,35.46
					c-10.05,6.58-14.07,9.76-9.98,10.29c4.2,0.52,7.39,0.88,10.51,0.58c0.1,2.45,0.19,4.92,0.27,7.42
					c0.33,13.21,3.33,29.87-13.21,33.42c-12.21,2.55-24.98,3.44-40.2,5.33c-11.88,1.55-22.43,8.77-30.43,15.55
					c-20.54,17.1-33.75,42.31-49.75,42.86c-10.55,0.44-21.54-9.55-21.54-32.31c-12.88,18.99-3.89,39.09,9.55,45.75
					c22.54,10.88,40.31-18.88,54.41-35.98c14.44-17.54,36.2-16.54,65.07-20.21c20.54-2.67,26.54-8.66,32.2-17.21
					c5.33-7.88,6.88-20.54,7.22-33.65c0.13-5.43-0.01-10.89-0.24-16.36c8.57-5.16,16.43-10.13,23.54-14.94
					c1.74,5.93,3.28,12.04,4.47,17.86c3.33,16.87,2.89,29.53-7.99,43.41c-13.43,16.99-37.2,28.09-61.63,38.64
					c25.32,4.77,58.52-11.88,72.85-35.2c5.99-9.66,7.66-21.65,7.44-33.87c-0.32-13.07-2.2-25.6-5.14-37.89
					c21.31-15.66,34.18-29.97,37.67-45.06c7.88-34.54-14.66-79.28-26.1-111.49c-5.77-16.21-9.99-26.65-15.21-25.21
					c-3.22,0.89-7.88,6.55-15.44,16.77c-2.66,3.55-2,8.11-0.22,12.1C448.05,306.6,457.38,345.13,446.05,357.57z M370.32,356.46
					c2.22-3.33,6.22-6.66,9.11-6.33c4.78,0.33,10.33,9.55,10.22,19.32C378.21,368.56,365.55,364.01,370.32,356.46z M427.43,455.59
					c-0.48-8.86-0.9-17.69-0.59-26.4c0.22-4.44,1.33-7.44,5.22-9.66c4.12-2.39,10.07,7.86,15.3,21.97
					C441.82,445.75,435.28,450.45,427.43,455.59z"/>
			</g>
		</g>
	</g>
	<g>
		<path class="st2" d="M261.33,72.38l9.54,19.33c0.24,0.48,0.69,0.81,1.22,0.89l21.33,3.1c1.33,0.19,1.86,1.83,0.9,2.77
			l-15.43,15.05c-0.38,0.37-0.56,0.91-0.47,1.44l3.64,21.24c0.23,1.33-1.17,2.34-2.36,1.71l-19.08-10.03
			c-0.47-0.25-1.04-0.25-1.51,0l-19.08,10.03c-1.19,0.63-2.58-0.39-2.36-1.71l3.64-21.24c0.09-0.53-0.08-1.06-0.47-1.44
			l-15.43-15.05c-0.96-0.94-0.43-2.58,0.9-2.77l21.33-3.1c0.53-0.08,0.99-0.41,1.22-0.89l9.54-19.33
			C259.02,71.17,260.74,71.17,261.33,72.38z"/>
	</g>
	<g>
		<path class="st2" d="M344.32,72.38l9.54,19.33c0.24,0.48,0.69,0.81,1.22,0.89l21.33,3.1c1.33,0.19,1.86,1.83,0.9,2.77
			l-15.43,15.05c-0.38,0.37-0.56,0.91-0.47,1.44l3.64,21.24c0.23,1.33-1.17,2.34-2.36,1.71l-19.08-10.03
			c-0.47-0.25-1.04-0.25-1.51,0l-19.08,10.03c-1.19,0.63-2.58-0.39-2.36-1.71l3.64-21.24c0.09-0.53-0.08-1.06-0.47-1.44
			l-15.43-15.05c-0.96-0.94-0.43-2.58,0.9-2.77l21.33-3.1c0.53-0.08,0.99-0.41,1.22-0.89l9.54-19.33
			C342,71.17,343.73,71.17,344.32,72.38z"/>
	</g>
	<g>
		<path class="st2" d="M301.13,744.05l3.63,7.35c0.15,0.3,0.43,0.5,0.75,0.55l8.11,1.18c0.82,0.12,1.15,1.13,0.56,1.71l-5.87,5.72
			c-0.24,0.23-0.34,0.56-0.29,0.89l1.39,8.08c0.14,0.82-0.72,1.44-1.45,1.06l-7.25-3.81c-0.29-0.15-0.64-0.15-0.93,0l-7.25,3.81
			c-0.74,0.39-1.59-0.24-1.45-1.06l1.39-8.08c0.06-0.33-0.05-0.66-0.29-0.89l-5.87-5.72c-0.59-0.58-0.27-1.59,0.56-1.71l8.11-1.18
			c0.33-0.05,0.61-0.25,0.75-0.55l3.63-7.35C299.7,743.3,300.76,743.3,301.13,744.05z"/>
	</g>
	<g>
		<path class="st2" d="M339.38,744.05l3.63,7.35c0.15,0.3,0.43,0.5,0.75,0.55l8.11,1.18c0.82,0.12,1.15,1.13,0.56,1.71l-5.87,5.72
			c-0.24,0.23-0.34,0.56-0.29,0.89l1.39,8.08c0.14,0.82-0.72,1.44-1.45,1.06l-7.25-3.81c-0.29-0.15-0.64-0.15-0.93,0l-7.25,3.81
			c-0.74,0.39-1.59-0.24-1.45-1.06l1.39-8.08c0.06-0.33-0.05-0.66-0.29-0.89l-5.87-5.72c-0.59-0.58-0.27-1.59,0.56-1.71l8.11-1.18
			c0.33-0.05,0.61-0.25,0.75-0.55l3.63-7.35C337.95,743.3,339.01,743.3,339.38,744.05z"/>
	</g>
	<g>
		<path class="st3" d="M136.25,298.63c3,6.66,18.99,16.44,26.1,25.65c2.89,3.66,4,7.44,4,10.66c0,8.33-6.77,9.77-13.32,11.55
			c-10.88,3.22-22.65,4.55-28.87,3.55c-5.55-0.88-13.99-5.66-13.21-16.77c-6.88,3-10.66,11.99-9.22,20.1
			c2.44,13.22,15.77,13.66,26.98,13.22c11.99-0.45,26.09-3.11,35.86-6.78c15.66-5.99,21.77-19.1,20.54-29.42
			c-1.11-8.55-7.77-13.44-15.44-20.99c-4.77-4.89,0.67-7.55-2.55-10.66c-2.78-2.89-8-6.77-11.66-9.22c-2.78-2-6.44-3.77-9.99-3.55
			C142.25,286.19,134.48,294.74,136.25,298.63z"/>
		<path class="st3" d="M450.19,214.16c44.64,41.2,72.73,100.05,72.73,165.34c0,123.92-101.04,224.98-224.96,224.98
			C174.14,604.47,73.1,503.42,73.1,379.5c0-65.29,27.98-124.13,72.73-165.34C73.88,263.13,26.58,345.52,26.58,438.69
			c0,149.47,121.92,271.38,271.38,271.38c149.45,0,271.49-121.92,271.49-271.38C569.46,345.52,522.04,263.02,450.19,214.16z
			 M199.02,675.87c-4.55,0-8.33-3.78-8.33-8.33c0-4.55,3.78-8.33,8.33-8.33c4.55,0,8.33,3.78,8.33,8.33
			C207.35,672.09,203.57,675.87,199.02,675.87z M226.78,615.58l-7.11-0.22l-57.52,28.32l2.23,5.89l-4.67,6.32l-27.98-21.21
			l4.22-5.44l6.44-1.22l3.56-33.87l-32.76,10.11l0.11,5.44l-5.33,4.22l-23.2-27.76l4.66-5.22l5.78,1.99l15.88-44.3l-1-9.32
			l4.32-5.22l23.65,25.98l-3.77,4.77l-6.88,0.11l-10,27.32l41.32-13l12.66,8.44l-4.56,42.09l32.54-15.44l-0.9-4.67l3-5.22
			l28.76,13.54L226.78,615.58z M337.6,698.97l-1.78-6l3.11-3.88l-16.66-19.66l-23.76,12.44l-22.21-13.43l-14.54,17.76l2.66,2.89
			l-1.56,6.66l-31.42-7.66l2.1-7.67l6.77-0.11l45.09-53.63l-4.11-4.88l0.11-6.56l39.19,0.11l0.11,4.89l-3.44,3.77l49.29,57.96h5.66
			l2,7.56L337.6,698.97z M401.11,677.2c-4.55,0-8.21-3.78-8.21-8.33c0-4.56,3.66-8.33,8.21-8.33c4.67,0,8.33,3.78,8.33,8.33
			C409.44,673.43,405.78,677.2,401.11,677.2z M520.26,577.37c-6.88,13-16.43,30.1-27.1,41.65c-13.77,14.76-36.09,26.64-57.17,23.76
			c-11.44-1.56-19.11-2.9-29.54-0.78c3.44-7.77,2.66-21.54,3.55-31.21c1.56-16.54,7.44-27.76,16.88-37.97
			c14.33-15.44,26.54-23.88,45.52-32.32l-1.67-5.78l3.56-4.66l19.88,15.09l-4.33,4.78c-10.77,2.89-30.2,13.77-38.32,21.21
			c-11.88,10.99-21.76,29.64-11.65,40.85c5.55,6.34,13.43,5.68,21.65,2.78c12.11-4.21,28.77-18.76,36.76-32.64
			c3.88-6.88,5.99-13.88,5.1-20.33l3.88-5.65l21.66,15.32l-3.56,5.44L520.26,577.37z"/>
		<polygon class="st3" points="285.6,657.29 298.82,665.96 312.7,658.4 298.37,641.63 		"/>
		<path class="st3" d="M297.93,445.43c-2.44-6.11-6.55-12.21-9.88-15.43c-5.99-5.89-14.32-5.78-21.32-2.89
			c-15.21,6.22-30.65,18.55-42.75,29.43c-4.22-4.11-10.66-11.88-14.99-16.21c-7.22-7.55-11.77-6.55-17.1-2.56
			c-6.55,5.11-11.99,9.33-18.43,14.99c-4.88,4.33-10.44,10.66-11.77,16.54c-0.89,4.22,0.44,8.99,9.88,12.33
			c21.21,7.44,19.65,15.77,12.33,21.43c-4.78,3.77-24.43,2.33-36.98-3.44c-10.55-4.89-18.43-13.66-16.32-27.2
			c2.77-18.1,5.11-27.09,6-36.2c-9.33-0.67-14.77,0.22-19.1-2.67c-6-4-7.77-13.44-6.55-36.09c-0.89,6.22-4.44,12.55-7.77,18.77
			c-2.44,4.66-4,11.66-1.78,18.43c5,14.88,15.55,16.54,23.43,19.21c-0.78,11.77-4.66,25.65-3,38.31
			c1.33,9.77,8.33,20.88,19.65,25.32c17.66,7.11,39.86,12.32,50.97-0.22c7.22-8.22,9.88-15.1,9.66-20.88
			c-0.44-12.77-12.88-19.54-20.54-27.21c-4.78-4.88-2.55-11.43,4.55-16.21c6.44-4.44,10.88-4.11,16.77,0.44
			c3.78,3,8.33,8.66,13.22,15.55c-1.34,3.44-2,7.99-2.33,10.77c3.89-2.89,5.88-4.22,8.66-5.44c5,2.11,11.66,2.44,19.1,2.33
			c10.99-0.11,23.43-1.67,31.43-3.33C287.83,470.08,304.92,463.63,297.93,445.43z M233.64,461.08c7.22-7.66,37.31-32.31,46.3-22.54
			c6.44,6.77,7.33,10.44,5.55,13.88c-1.66,3.11-7.77,5.66-13.44,7.22C258.73,463.3,241.08,462.86,233.64,461.08z"/>
		<path class="st3" d="M187.89,280.64l-6.77,7c1,3.44,4.66,7.77,9.55,8.66l6.99-7.55C193.88,287.3,189.44,283.31,187.89,280.64z"/>
		<path class="st3" d="M196.66,414.67c0,10.66,5.78,4.33,14.66-2.89l-2.66-98.38c0-8.11-7.55-2.78-14.88,2.11L196.66,414.67z"/>
		<path class="st3" d="M177.12,383.13c-2.44-2.33-7.44-3-7.66-3c2.66,9.99-0.11,25.09-8.22,36.09
			C169.79,412.22,182.34,399.35,177.12,383.13z"/>
		<path class="st3" d="M209.54,516.27c0.11,0.33,1.67,5.11,4.33,7.11c15.32-3.11,26.76-14.77,29.87-21.32
			C229.42,512.16,217.42,517.38,209.54,516.27z"/>
		<path class="st3" d="M220.2,365.81c4.33,22.99,49.19,13.66,62.52,7.99c13.44-5.77,24.1-15.32,22.43-29.2
			c-1-8.55-4.33-14.55-9.66-20.1c-4.66-5,0.22-9.1-3-12.22c-3.66-3.77-13.99-14.21-19.21-12.55c-3,1-10.44,9.99-8.55,12.77
			c3.78,5.55,17.32,14.1,24.65,23.32c2.77,3.66,4.44,8.55,4.44,11.88c0,11.1-26.32,15.32-35.31,16.32
			c-8.88,1.11-18.54,0.66-24.1-4.33c-3.22-2.77-5.11-7.99-4.11-16.32C223.42,346.49,218.65,357.7,220.2,365.81z"/>
		<path class="st3" d="M302.82,262.1c-11.99,5.44-37.53,12.1-37.87-5.33c-9.22,4.11-13.66,19.44-6.33,26.98
			c6.77,7,25.87,2.66,40.75-2.89c12.44-4.66,38.97-17.88,36.98-34.09c-1-8.55-6.44-11.66-15.21-19.43
			c-5.77-5.22-0.11-6.55-3.33-9.77c-3.22-3.22-10.88-7.99-15.43-7.66c-3.11,0.11-11.33,11.77-8.33,13.99
			c6.88,4.78,13.77,8.77,20.43,13.77C326.47,246.55,312.92,257.55,302.82,262.1z"/>
		<path class="st3" d="M333.02,203.25c0.11-0.22,5-5,4.55-8.33c-9.33-13.77-24.54-11.32-31.42-6.88
			C317.92,188.03,327.02,195.14,333.02,203.25z"/>
		<path class="st3" d="M218.09,286.64c-3.89-1.56-8.33-5.55-9.88-8.22l-6.77,7c0.89,3.44,4.66,7.88,9.66,8.77L218.09,286.64z"/>
		<path class="st3" d="M382.21,267.21c0.78,3.22,4.33,7.33,8.88,8.11l6.55-6.99c-3.55-1.44-7.77-5.22-9.22-7.66L382.21,267.21z"/>
		<path class="st3" d="M196.33,271.98c17.77-1,33.31-8.44,45.31-21.99c4.77-5.33,8.1-11.33,8.1-17.1c0-3.55-2.44-7-5.66-8.55
			c-5.88-2.89-14.77-3.44-16.21-7.22c-2.89-7.55,10.77-11.66,15.77-11.55c10.77,0.44,16.1,8.44,20.1,8.22
			c1.44-0.11,3.33-0.78,5.89-4.44c8.77-13.1-13.88-19.65-23.21-19.21c-13.33,0.56-21.65,5.88-28.43,12.66
			c-7.22,7.22-16.88,22.21-4.11,28.43c3.67,1.78,13.21,2.22,13.21,7.66c0,2.33-1.78,5.11-4.55,7.44
			c-4.22,3.33-16.32,6.66-26.98,6.66c-10.1,0.11-18.88-2.67-18.77-11.1c0.22-10.77,3.78-15.77,10.88-26.65
			c-12.1,5.44-30.42,21.32-24.76,38.53C166.68,265.1,180.67,272.98,196.33,271.98z"/>
		<path class="st3" d="M376.88,318.17c17.44,2.78,41.97-4.44,50.64-22.76c3.44-7.33,3.44-16.99,3.77-21.99
			c0.89-14.1-14.99-1.55-15.21,1c-0.44,5.55,1.67,13.32-2.89,18.99c-5.11,6.44-16.43,7.33-25.76,7.11
			c-8.66-0.11-22.54-1.11-25.32-11.88c-1.55-5.88-0.22-13.77,0.34-22.98l3.22-62.51c0.66-8.11-7.78-3.78-15.55,0.55l-3.89,75.51
			C344.68,293.97,349.56,313.95,376.88,318.17z"/>
		<path class="st3" d="M200.1,552.14c4.78,6.66,19.99,18.43,37.53,19.32c2.56-2.78,0.78-8.77,0.78-9.11
			C229.75,564.24,217.65,559.69,200.1,552.14z"/>
		<path class="st3" d="M230.53,416.22c1,3.55,4.77,7.88,9.66,8.77l7.11-7.55c-3.89-1.45-8.44-5.55-9.99-8.22L230.53,416.22z"/>
		<path class="st3" d="M471.71,385.47c-3.67-1.44-7.77-5.11-9.22-7.66l-6.33,6.55c0.89,3.22,4.44,7.33,8.99,8.11L471.71,385.47z"/>
		<path class="st3" d="M362.45,503.39c-3.67-1.33-7.77-5.11-9.22-7.55l-6.33,6.44c0.89,3.22,4.44,7.33,9,8.1L362.45,503.39z"/>
		<path class="st3" d="M381.32,500.39c-3.67-1.33-7.77-5.11-9.22-7.55l-6.33,6.44c0.89,3.22,4.33,7.33,8.99,8.1L381.32,500.39z"/>
		<path class="st3" d="M384.32,252.33c6.77-6.77,17.65-11.22,31.98-15.54c-7-1.89-25.76-0.89-38.09,8.77
			C378.1,248.99,384.1,252.1,384.32,252.33z"/>
		<path class="st3" d="M443.84,356.48c-9.55,10.55-29.76,11.88-45.2,12.1c0.22-2.89,0.11-5.66-0.55-8.44
			c-3.22-15.32-14.99-27.09-20.88-25.87c-10.55,2.22-21.65,16.65-26.2,26.76c-3.55,7.77,7.77,17.77,12.32,19.99
			c5.11,2.55,11.44,4.55,18.32,5.88c-10.2,16.84-30.63,24.39-50.77,25.76l1.68-115.04c1.45-13.55-10.55-2-18.1,4.44l1.09,110.45
			c-13.79-1.13-27.11-4.65-37.4-7.96c7.77,10.81,22.11,19.91,37.54,22.55l0.33,33.08c0.11,10.44,2.33,27.32,24.76,26.98
			c19.1-0.22,35.2-6.11,41.2-17.77c3.77-7.44,3.44-17.21-3-29.2c-3-5.77-10.33,2-9.11,4.78c1.78,4.55,2.11,7.55,1.56,11.77
			c-1.11,7-4.89,12.33-22.32,12.33c-18.77,0-18.65-6.55-18.77-19.88l0.32-21.64c24.34-2.51,49.67-19.56,61.42-39.22
			c22.21,2,47.3-2.66,59.52-16.99c6-6.99,11.1-24.32,10.11-42.64c8.44,12.32,16.1,27.43,19.21,41.86c4,18.21,1.22,37.75-13.21,50.75
			c-3.39,3-7.29,6.58-12.19,10.72c-2.57-8.42-5.55-16.78-8.8-25.15c-6.22-16.1-8.55-15.1-17.21-10.11
			c-4.44,2.66-9.11,6.66-14.99,11.66c-4.88,4.22-5.22,11.55-4.66,19.1c0.74,11.96,1.57,23.57,2.21,35.46
			c-10.05,6.58-14.07,9.76-9.98,10.29c4.2,0.52,7.39,0.88,10.51,0.58c0.1,2.45,0.19,4.92,0.27,7.42
			c0.33,13.21,3.33,29.87-13.21,33.42c-12.21,2.55-24.98,3.44-40.2,5.33c-11.88,1.55-22.43,8.77-30.43,15.55
			c-20.54,17.1-33.75,42.31-49.75,42.86c-10.55,0.44-21.54-9.55-21.54-32.31c-12.88,18.99-3.89,39.09,9.55,45.75
			c22.54,10.88,40.31-18.88,54.41-35.98c14.44-17.54,36.2-16.55,65.07-20.21c20.54-2.67,26.54-8.66,32.2-17.21
			c5.33-7.88,6.88-20.54,7.22-33.65c0.13-5.43-0.01-10.89-0.24-16.36c8.57-5.16,16.43-10.13,23.54-14.94
			c1.74,5.93,3.28,12.04,4.47,17.86c3.33,16.87,2.89,29.53-7.99,43.41c-13.43,16.99-37.2,28.09-61.63,38.64
			c25.32,4.77,58.52-11.88,72.85-35.2c5.99-9.66,7.66-21.65,7.44-33.87c-0.32-13.07-2.2-25.6-5.14-37.89
			c21.31-15.66,34.18-29.97,37.67-45.06c7.88-34.54-14.66-79.28-26.1-111.49c-5.77-16.21-9.99-26.65-15.21-25.21
			c-3.22,0.89-7.88,6.55-15.44,16.77c-2.66,3.55-2,8.11-0.22,12.1C445.84,305.52,455.16,344.05,443.84,356.48z M368.11,355.37
			c2.22-3.33,6.22-6.66,9.11-6.33c4.78,0.33,10.33,9.55,10.22,19.32C375.99,367.48,363.33,362.92,368.11,355.37z M425.22,454.5
			c-0.48-8.86-0.9-17.69-0.59-26.4c0.22-4.44,1.33-7.44,5.22-9.66c4.12-2.39,10.07,7.86,15.3,21.97
			C439.6,444.66,433.07,449.36,425.22,454.5z"/>
	</g>
</g>
<g>
	<path class="st2" d="M262.89,744.05l3.63,7.35c0.15,0.3,0.43,0.5,0.75,0.55l8.11,1.18c0.82,0.12,1.15,1.13,0.56,1.71l-5.87,5.72
		c-0.24,0.23-0.34,0.56-0.29,0.89l1.39,8.08c0.14,0.82-0.72,1.44-1.45,1.06l-7.25-3.81c-0.29-0.15-0.64-0.15-0.93,0l-7.25,3.81
		c-0.74,0.39-1.59-0.24-1.45-1.06l1.39-8.08c0.06-0.33-0.05-0.66-0.29-0.89l-5.87-5.72c-0.59-0.58-0.27-1.59,0.56-1.71l8.11-1.18
		c0.33-0.05,0.61-0.25,0.75-0.55l3.63-7.35C261.46,743.3,262.52,743.3,262.89,744.05z"/>
</g>
</svg>
