<?xml version="1.0" encoding="UTF-8"?>
<svg version="1.1" viewBox="0 0 1057 1369" width="1280" height="1280" xmlns="http://www.w3.org/2000/svg">
<path transform="translate(209,35)" d="m0 0h3l1 676 14-9 21-12 28-14 27-11 27-9 28-7 28-5 26-3 17-1h34l36 3 35 6 27 7 30 10 26 11 25 13 21 13 19 14 13 11 12 11 16 16 9 11 2 2-1 5-4 2-30-10-26-7-36-7-3-1v564l-20 12-25 14-29 15-31 14-9-3-39-19-23-12-18-10-16-9-2-2-1-536-25 12-20 11-21 14-17 13-14 12-13 12-14 15-11 14-13 17-10 15-14 25-12 27-9 27-6 24-5 32-2 31v12l2 31v9l-6 3-9-11-14-17-12-16-14-19-26-39-13-21-16-28-17-33-13-27-16-38-11-30-12-36-12-43-9-40-7-39-5-37-3-32-2-37v-492l20-8 37-13 36-12 51-15 56-14z" fill="#0028F0"/>
<path transform="translate(506)" d="m0 0h44l57 2 27 2v327l19-1h28l32 2 32 4 35 7 26 7 33 11 5 2 1-328 11 2 37 9 44 12 42 13 47 16 31 12v480l-2 44-4 42-6 42-8 42-13 52-13 42-13 36-12 29-13 29-20 40-13 23-13 22-14 22-15 22-13 18-13 17-11 14-9 11-7-3-1-522-11-12-7-8-9-9-8-7-10-9-17-13-18-13-20-12-24-13-29-13-28-10-29-8-29-6-30-4-27-2h-42l-36 3-33 5-27 6-26 7-30 10-29 12-9 3-3-6 9-13 13-16 11-12 7-8 10-10 8-7 14-12 20-15 15-10h2v-394l1-1 26-2z" fill="#0028F0"/>
</svg>
