<?xml version="1.0" encoding="UTF-8"?>
<svg xmlns="http://www.w3.org/2000/svg" xmlns:xlink="http://www.w3.org/1999/xlink" width="68pt" height="68pt" viewBox="0 0 68 68" version="1.1">
<g id="surface1">
<path style=" stroke:none;fill-rule:nonzero;fill:rgb(85.099792%,12.5%,15.299988%);fill-opacity:1;" d="M 68 34 C 68 52.777344 52.777344 68 34 68 C 15.222656 68 0 52.777344 0 34 C 0 15.222656 15.222656 0 34 0 C 52.777344 0 68 15.222656 68 34 "/>
<path style=" stroke:none;fill-rule:nonzero;fill:rgb(0%,0%,0%);fill-opacity:1;" d="M 64.941406 34 C 64.941406 51.089844 51.089844 64.941406 34 64.941406 C 16.910156 64.941406 3.058594 51.089844 3.058594 34 C 3.058594 16.910156 16.910156 3.058594 34 3.058594 C 51.089844 3.058594 64.941406 16.910156 64.941406 34 "/>
<path style=" stroke:none;fill-rule:nonzero;fill:rgb(85.099792%,12.5%,15.299988%);fill-opacity:1;" d="M 57.90625 34 C 57.90625 47.203125 47.203125 57.90625 34 57.90625 C 20.796875 57.90625 10.09375 47.203125 10.09375 34 C 10.09375 20.796875 20.796875 10.09375 34 10.09375 C 47.203125 10.09375 57.90625 20.796875 57.90625 34 "/>
<path style=" stroke:none;fill-rule:nonzero;fill:rgb(0%,0%,0%);fill-opacity:1;" d="M 19.675781 16.507813 L 19.675781 51.496094 C 20.847656 52.457031 22.121094 53.300781 23.472656 54.015625 L 23.472656 13.984375 C 22.121094 14.699219 20.847656 15.542969 19.675781 16.507813 "/>
<path style=" stroke:none;fill-rule:nonzero;fill:rgb(0%,0%,0%);fill-opacity:1;" d="M 27.957031 12.207031 L 27.957031 55.792969 C 29.1875 56.132813 30.457031 56.371094 31.757813 56.5 L 31.757813 11.5 C 30.457031 11.628906 29.1875 11.867188 27.957031 12.207031 "/>
<path style=" stroke:none;fill-rule:nonzero;fill:rgb(0%,0%,0%);fill-opacity:1;" d="M 36.242188 11.5 L 36.242188 56.5 C 37.542969 56.371094 38.8125 56.132813 40.042969 55.792969 L 40.042969 12.207031 C 38.8125 11.867188 37.542969 11.628906 36.242188 11.5 "/>
<path style=" stroke:none;fill-rule:nonzero;fill:rgb(0%,0%,0%);fill-opacity:1;" d="M 44.527344 13.984375 L 44.527344 54.015625 C 45.878906 53.300781 47.152344 52.457031 48.328125 51.492188 L 48.328125 16.507813 C 47.152344 15.542969 45.878906 14.699219 44.527344 13.984375 "/>
<path style=" stroke:none;fill-rule:nonzero;fill:rgb(0%,0%,0%);fill-opacity:1;" d="M 56.613281 34 C 56.613281 29.355469 55.210938 25.042969 52.8125 21.449219 L 52.8125 46.550781 C 55.210938 42.960938 56.613281 38.644531 56.613281 34 "/>
<path style=" stroke:none;fill-rule:nonzero;fill:rgb(0%,0%,0%);fill-opacity:1;" d="M 11.386719 34 C 11.386719 38.644531 12.789063 42.960938 15.1875 46.550781 L 15.1875 21.449219 C 12.789063 25.042969 11.386719 29.355469 11.386719 34 "/>
<path style=" stroke:none;fill-rule:nonzero;fill:rgb(100%,100%,100%);fill-opacity:1;" d="M 15.1875 21.449219 L 15.1875 46.550781 C 16.433594 48.410156 17.945313 50.078125 19.675781 51.496094 L 19.675781 16.507813 C 17.945313 17.921875 16.433594 19.589844 15.1875 21.449219 "/>
<path style=" stroke:none;fill-rule:nonzero;fill:rgb(100%,100%,100%);fill-opacity:1;" d="M 23.472656 13.984375 L 23.472656 54.015625 C 24.886719 54.761719 26.386719 55.359375 27.957031 55.792969 L 27.957031 12.207031 C 26.386719 12.640625 24.886719 13.238281 23.472656 13.984375 "/>
<path style=" stroke:none;fill-rule:nonzero;fill:rgb(100%,100%,100%);fill-opacity:1;" d="M 34 11.386719 C 33.242188 11.386719 32.496094 11.425781 31.757813 11.5 L 31.757813 56.5 C 32.496094 56.574219 33.242188 56.613281 34 56.613281 C 34.757813 56.613281 35.503906 56.574219 36.242188 56.5 L 36.242188 11.5 C 35.503906 11.425781 34.757813 11.386719 34 11.386719 "/>
<path style=" stroke:none;fill-rule:nonzero;fill:rgb(100%,100%,100%);fill-opacity:1;" d="M 40.042969 12.207031 L 40.042969 55.792969 C 41.613281 55.359375 43.113281 54.761719 44.527344 54.015625 L 44.527344 13.984375 C 43.113281 13.238281 41.613281 12.640625 40.042969 12.207031 "/>
<path style=" stroke:none;fill-rule:nonzero;fill:rgb(100%,100%,100%);fill-opacity:1;" d="M 52.8125 46.550781 L 52.8125 21.449219 C 51.566406 19.589844 50.054688 17.921875 48.328125 16.507813 L 48.328125 51.492188 C 50.054688 50.078125 51.566406 48.410156 52.8125 46.550781 "/>
<path style=" stroke:none;fill-rule:nonzero;fill:rgb(85.099792%,12.5%,15.299988%);fill-opacity:1;" d="M 44.347656 24.722656 L 45.339844 24.671875 L 45.347656 23.8125 L 37.988281 23.8125 L 38.015625 24.519531 L 39.570313 24.519531 C 39.726563 24.519531 39.980469 24.574219 40.078125 24.683594 C 40.929688 25.664063 37.992188 26.621094 36.953125 26.503906 L 34.0625 26.359375 L 34.0625 27.820313 C 34.0625 27.851563 34.054688 27.882813 34.046875 27.910156 C 33.921875 28.242188 33.601563 28.472656 33.234375 28.492188 C 33.210938 28.496094 33.195313 28.496094 33.171875 28.496094 C 32.777344 28.496094 32.429688 28.261719 32.296875 27.910156 C 32.285156 27.882813 32.28125 27.851563 32.28125 27.820313 L 32.28125 26.359375 L 28.941406 27.144531 C 27.980469 27.457031 26.917969 26.535156 27.789063 25.332031 C 27.902344 25.191406 28.070313 25.101563 28.257813 25.082031 L 30.25 25.078125 C 30.386719 25.09375 30.523438 24.898438 30.628906 24.820313 C 30.734375 24.738281 30.800781 24.625 30.816406 24.496094 C 30.832031 24.347656 30.730469 24.214844 30.582031 24.179688 L 27.765625 24.101563 C 27.71875 24.105469 27.671875 24.125 27.632813 24.152344 C 27.585938 24.183594 27.527344 24.199219 27.46875 24.199219 L 27.070313 24.199219 C 26.75 24.882813 26.242188 25.472656 25.601563 25.898438 C 25.304688 26.089844 24.90625 26.054688 24.660156 25.804688 C 24.558594 25.453125 24.679688 25.578125 24.699219 25.214844 C 24.710938 25.105469 24.648438 25.007813 24.546875 24.960938 C 23.65625 24.527344 22.769531 24.734375 22.710938 25.546875 L 22.710938 25.71875 C 22.71875 25.785156 22.726563 25.855469 22.738281 25.929688 L 23.785156 27.667969 L 25.59375 27.667969 L 25.59375 28.957031 L 28.28125 31.0625 L 28.28125 32.121094 L 27.085938 32.121094 L 27.085938 36.601563 L 27.5625 37.058594 L 33.234375 48.820313 L 33.988281 50.378906 L 34.988281 49.808594 L 33.519531 46.96875 C 33.738281 46.839844 34.269531 46.449219 34.601563 47.09375 L 36.65625 51.789063 C 36.722656 51.914063 36.695313 52.1875 36.613281 52.269531 C 36.316406 52.558594 35.996094 52.023438 35.832031 51.820313 L 35.589844 51.507813 L 34.871094 51.917969 C 35.082031 52.683594 35.429688 53.125 36.089844 53.605469 C 36.4375 53.859375 36.882813 53.964844 37.3125 53.894531 C 38.097656 53.765625 38.511719 53.628906 39.148438 53.179688 C 39.675781 52.804688 40.191406 52.410156 40.679688 51.988281 C 41.402344 50.660156 41.746094 49.117188 41.351563 47.664063 C 41.097656 46.683594 40.746094 45.726563 40.300781 44.808594 C 39.984375 44.265625 39.644531 43.738281 39.269531 43.226563 C 38.898438 42.679688 38.578125 42.101563 38.308594 41.5 C 37.9375 40.5625 37.546875 39.628906 37.140625 38.703125 C 36.75 37.816406 36.71875 36.800781 37.320313 36.027344 C 37.875 35.320313 38.363281 34.574219 38.789063 33.785156 C 39.078125 33.402344 39.085938 32.886719 38.800781 32.496094 C 38.601563 32.066406 38.675781 31.566406 38.988281 31.203125 C 39.441406 30.523438 40.132813 29.917969 40.972656 29.828125 C 41.269531 29.796875 41.570313 29.78125 41.867188 29.78125 C 41.980469 29.789063 42.089844 29.78125 42.195313 29.757813 C 42.460938 29.710938 42.710938 29.601563 42.917969 29.433594 L 44.988281 27.632813 C 45.179688 27.414063 45.238281 27.035156 45.039063 26.824219 C 44.984375 26.769531 44.90625 26.730469 44.828125 26.730469 C 44.585938 26.730469 44.40625 26.191406 43.820313 26.761719 L 43.804688 26.933594 L 43.328125 26.933594 C 42.257813 26.378906 44.066406 25.167969 44.347656 24.722656 "/>
<path style=" stroke:none;fill-rule:nonzero;fill:rgb(100%,100%,100%);fill-opacity:1;" d="M 40 7.675781 L 39.347656 7.527344 L 40 6.519531 L 40.402344 5.898438 L 40.648438 7.824219 Z M 40.160156 4.667969 L 40 4.90625 L 37.195313 9.019531 L 38.21875 9.253906 L 38.863281 8.261719 L 40 8.523438 L 40.777344 8.703125 L 40.941406 9.886719 L 41.992188 10.128906 L 41.179688 4.90625 L 40.160156 4.667969 "/>
<path style=" stroke:none;fill-rule:nonzero;fill:rgb(100%,100%,100%);fill-opacity:1;" d="M 46.914063 11.355469 C 46.671875 11.414063 46.429688 11.378906 46.199219 11.257813 C 45.882813 11.089844 45.6875 10.835938 45.617188 10.5 C 45.539063 10.164063 45.652344 9.722656 45.941406 9.171875 C 46.21875 8.65625 46.515625 8.335938 46.835938 8.210938 C 47.160156 8.085938 47.484375 8.113281 47.800781 8.28125 C 48.035156 8.40625 48.199219 8.574219 48.292969 8.789063 C 48.386719 9.007813 48.398438 9.242188 48.328125 9.492188 L 48.882813 9.636719 L 49.308594 9.75 C 49.390625 9.347656 49.386719 9.003906 49.285156 8.714844 C 49.203125 8.460938 49.066406 8.234375 48.882813 8.035156 C 48.710938 7.851563 48.5 7.695313 48.246094 7.558594 C 47.636719 7.234375 47.042969 7.171875 46.460938 7.375 C 45.875 7.578125 45.394531 8.035156 45.007813 8.761719 C 44.644531 9.4375 44.542969 10.074219 44.707031 10.667969 C 44.867188 11.253906 45.234375 11.703125 45.8125 12.007813 C 46.273438 12.257813 46.71875 12.34375 47.144531 12.277344 C 47.570313 12.207031 47.972656 11.96875 48.355469 11.566406 L 47.648438 10.847656 C 47.40625 11.128906 47.164063 11.292969 46.914063 11.355469 "/>
<path style=" stroke:none;fill-rule:nonzero;fill:rgb(100%,100%,100%);fill-opacity:1;" d="M 51.464844 9.613281 L 48.882813 12.796875 L 48.398438 13.394531 L 48.882813 13.785156 L 51.085938 15.570313 L 51.601563 14.921875 L 49.6875 13.375 L 52.230469 10.234375 L 51.464844 9.613281 "/>
<path style=" stroke:none;fill-rule:nonzero;fill:rgb(100%,100%,100%);fill-opacity:1;" d="M 34.847656 6.136719 C 34.761719 6.136719 34.667969 6.136719 34.570313 6.132813 L 33.835938 6.105469 L 33.878906 4.859375 L 34.652344 4.886719 C 34.71875 4.890625 34.785156 4.894531 34.847656 4.894531 C 35.132813 4.910156 35.308594 4.917969 35.375 4.929688 C 35.535156 4.960938 35.65625 5.03125 35.738281 5.136719 C 35.824219 5.238281 35.863281 5.375 35.859375 5.539063 C 35.851563 5.6875 35.816406 5.808594 35.742188 5.902344 C 35.675781 5.996094 35.578125 6.066406 35.460938 6.101563 C 35.367188 6.132813 35.164063 6.144531 34.847656 6.136719 Z M 36.054688 7.261719 C 35.921875 7.105469 35.746094 6.964844 35.539063 6.832031 C 35.972656 6.785156 36.300781 6.644531 36.523438 6.414063 C 36.75 6.179688 36.871094 5.878906 36.882813 5.511719 C 36.890625 5.222656 36.828125 4.960938 36.695313 4.730469 C 36.558594 4.5 36.375 4.339844 36.140625 4.242188 C 35.902344 4.144531 35.527344 4.085938 35.003906 4.070313 L 34.847656 4.0625 L 32.917969 3.996094 L 32.746094 8.902344 L 33.738281 8.933594 L 33.808594 6.886719 L 34.007813 6.894531 C 34.238281 6.902344 34.402344 6.925781 34.503906 6.964844 C 34.609375 7.007813 34.707031 7.078125 34.796875 7.179688 C 34.8125 7.199219 34.828125 7.21875 34.847656 7.246094 C 34.945313 7.371094 35.09375 7.59375 35.292969 7.917969 L 35.972656 9.011719 L 37.152344 9.054688 L 36.589844 8.078125 C 36.367188 7.6875 36.191406 7.417969 36.054688 7.261719 "/>
<path style=" stroke:none;fill-rule:nonzero;fill:rgb(100%,100%,100%);fill-opacity:1;" d="M 59.59375 20.347656 C 59.550781 20.46875 59.464844 20.5625 59.332031 20.636719 C 59.191406 20.710938 59.058594 20.734375 58.925781 20.695313 C 58.863281 20.679688 58.808594 20.652344 58.757813 20.617188 C 58.695313 20.574219 58.632813 20.507813 58.574219 20.429688 C 58.523438 20.351563 58.402344 20.148438 58.214844 19.808594 L 57.917969 19.285156 L 57.902344 19.242188 L 57.917969 19.230469 L 58.757813 18.765625 L 58.890625 18.695313 L 59.167969 19.191406 C 59.394531 19.597656 59.523438 19.847656 59.5625 19.9375 C 59.625 20.09375 59.636719 20.226563 59.59375 20.347656 Z M 57.917969 21.4375 C 57.910156 21.464844 57.90625 21.492188 57.890625 21.519531 C 57.835938 21.632813 57.746094 21.726563 57.613281 21.796875 C 57.460938 21.878906 57.320313 21.90625 57.183594 21.875 C 57.046875 21.84375 56.929688 21.773438 56.835938 21.65625 C 56.773438 21.582031 56.65625 21.386719 56.484375 21.078125 L 56.390625 20.90625 L 56.039063 20.273438 L 56.390625 20.078125 L 57.183594 19.640625 L 57.574219 20.339844 C 57.765625 20.683594 57.882813 20.929688 57.917969 21.082031 C 57.929688 21.101563 57.933594 21.125 57.9375 21.140625 C 57.957031 21.246094 57.953125 21.347656 57.917969 21.4375 Z M 60.453125 19.929688 C 60.390625 19.746094 60.265625 19.484375 60.078125 19.144531 L 59.125 17.429688 L 58.757813 17.632813 L 57.917969 18.09375 L 56.390625 18.945313 L 54.832031 19.808594 L 55.644531 21.269531 C 55.953125 21.820313 56.15625 22.160156 56.253906 22.296875 C 56.296875 22.359375 56.34375 22.417969 56.390625 22.46875 C 56.507813 22.597656 56.636719 22.695313 56.777344 22.765625 C 56.972656 22.859375 57.191406 22.90625 57.421875 22.894531 C 57.605469 22.886719 57.769531 22.847656 57.917969 22.785156 C 57.972656 22.761719 58.023438 22.738281 58.070313 22.714844 C 58.316406 22.574219 58.496094 22.386719 58.601563 22.144531 C 58.703125 21.902344 58.726563 21.628906 58.65625 21.328125 C 58.691406 21.351563 58.726563 21.371094 58.757813 21.394531 C 58.914063 21.492188 59.089844 21.542969 59.277344 21.558594 C 59.503906 21.570313 59.71875 21.523438 59.917969 21.410156 C 60.105469 21.308594 60.25 21.171875 60.347656 21 C 60.449219 20.832031 60.507813 20.65625 60.527344 20.472656 C 60.53125 20.445313 60.53125 20.414063 60.53125 20.382813 L 60.53125 20.339844 C 60.53125 20.207031 60.503906 20.066406 60.453125 19.929688 "/>
<path style=" stroke:none;fill-rule:nonzero;fill:rgb(100%,100%,100%);fill-opacity:1;" d="M 55.96875 17.472656 L 56.390625 17.125 L 57.917969 15.835938 L 57.945313 15.820313 L 57.917969 15.796875 L 57.304688 15.0625 L 56.390625 15.832031 L 55.230469 16.804688 C 54.933594 17.054688 54.707031 17.222656 54.5625 17.304688 C 54.414063 17.394531 54.25 17.417969 54.074219 17.382813 C 53.894531 17.347656 53.707031 17.222656 53.535156 17.007813 C 53.351563 16.792969 53.257813 16.589844 53.25 16.386719 C 53.242188 16.1875 53.296875 16.007813 53.425781 15.84375 C 53.503906 15.746094 53.707031 15.558594 54.03125 15.289063 L 56.066406 13.582031 L 55.429688 12.820313 L 53.425781 14.507813 C 53.003906 14.859375 52.707031 15.148438 52.53125 15.378906 C 52.414063 15.535156 52.335938 15.722656 52.292969 15.941406 C 52.253906 16.15625 52.269531 16.398438 52.34375 16.652344 C 52.410156 16.90625 52.597656 17.214844 52.902344 17.574219 C 53.148438 17.871094 53.390625 18.078125 53.621094 18.199219 C 53.851563 18.324219 54.082031 18.382813 54.300781 18.390625 C 54.523438 18.390625 54.738281 18.332031 54.960938 18.21875 C 55.179688 18.101563 55.515625 17.855469 55.96875 17.472656 "/>
<path style=" stroke:none;fill-rule:nonzero;fill:rgb(100%,100%,100%);fill-opacity:1;" d="M 10.835938 20.003906 L 10.59375 19.691406 L 9.640625 18.472656 L 10.59375 18.671875 L 11.542969 18.863281 Z M 10.59375 17.710938 L 8.953125 17.414063 L 8.402344 18.300781 L 10.59375 21.242188 L 11.546875 22.523438 L 12.105469 21.632813 L 11.375 20.699219 L 12.414063 19.035156 L 12.632813 19.074219 L 13.585938 19.261719 L 14.15625 18.347656 L 12.632813 18.074219 L 10.59375 17.710938 "/>
<path style=" stroke:none;fill-rule:nonzero;fill:rgb(100%,100%,100%);fill-opacity:1;" d="M 14.734375 16.667969 L 12.632813 14.707031 L 11.78125 13.914063 L 11.105469 14.640625 L 12.632813 16.0625 L 14.664063 17.957031 L 17.019531 15.429688 L 16.414063 14.867188 L 14.734375 16.667969 "/>
<path style=" stroke:none;fill-rule:nonzero;fill:rgb(100%,100%,100%);fill-opacity:1;" d="M 30.152344 4.296875 L 30.121094 4.300781 L 30.152344 4.5 L 30.804688 9.160156 L 31.785156 9.023438 L 31.101563 4.164063 L 30.152344 4.296875 "/>
<path style=" stroke:none;fill-rule:nonzero;fill:rgb(100%,100%,100%);fill-opacity:1;" d="M 20.238281 10.878906 L 18.546875 8.273438 L 17.71875 8.8125 L 19.445313 11.464844 C 19.664063 11.800781 19.765625 12.042969 19.757813 12.203125 C 19.753906 12.355469 19.65625 12.492188 19.46875 12.613281 C 19.285156 12.734375 19.101563 12.746094 18.914063 12.660156 C 18.792969 12.601563 18.652344 12.453125 18.488281 12.226563 L 17.765625 12.824219 C 18.050781 13.265625 18.378906 13.527344 18.742188 13.609375 C 19.109375 13.695313 19.496094 13.605469 19.902344 13.34375 C 20.25 13.121094 20.480469 12.863281 20.597656 12.582031 C 20.714844 12.300781 20.734375 12.011719 20.664063 11.722656 C 20.601563 11.496094 20.460938 11.214844 20.238281 10.878906 "/>
<path style=" stroke:none;fill-rule:nonzero;fill:rgb(100%,100%,100%);fill-opacity:1;" d="M 22.984375 9.355469 L 22.460938 9.601563 L 22.292969 7.667969 L 23.675781 9.035156 Z M 22.984375 7.054688 L 22.292969 6.40625 L 21.34375 6.847656 L 21.683594 12.105469 L 22.640625 11.660156 L 22.53125 10.476563 L 22.984375 10.265625 L 24.3125 9.648438 L 25.171875 10.476563 L 25.8125 10.179688 L 26.148438 10.023438 L 25.8125 9.707031 L 22.984375 7.054688 "/>
<path style=" stroke:none;fill-rule:nonzero;fill:rgb(100%,100%,100%);fill-opacity:1;" d="M 29.992188 8.398438 L 27.273438 9.027344 L 29.148438 5.195313 L 28.976563 4.445313 L 25.8125 5.175781 L 25.476563 5.253906 L 25.664063 6.0625 L 25.8125 6.027344 L 27.886719 5.546875 L 26.09375 9.230469 L 26.292969 10.101563 L 30.152344 9.210938 L 30.175781 9.203125 L 30.152344 9.078125 L 29.992188 8.398438 "/>
<path style=" stroke:none;fill-rule:nonzero;fill:rgb(100%,100%,100%);fill-opacity:1;" d="M 53.503906 55.097656 L 53.132813 53.867188 L 51.84375 53.832031 L 52.882813 53.105469 L 52.515625 51.914063 L 53.5 52.671875 L 54.535156 51.945313 L 54.144531 53.15625 L 55.164063 53.921875 L 53.898438 53.898438 Z M 15.414063 55.097656 L 15.785156 53.867188 L 17.070313 53.832031 L 16.035156 53.105469 L 16.398438 51.914063 L 15.417969 52.671875 L 14.382813 51.945313 L 14.769531 53.15625 L 13.746094 53.921875 L 15.019531 53.898438 L 15.414063 55.097656 "/>
<path style=" stroke:none;fill-rule:nonzero;fill:rgb(100%,100%,100%);fill-opacity:1;" d="M 39.917969 58.453125 L 39.84375 58.472656 L 39.917969 58.789063 L 40.613281 61.820313 L 41.289063 61.664063 L 40.515625 58.320313 L 39.917969 58.453125 "/>
<path style=" stroke:none;fill-rule:nonzero;fill:rgb(100%,100%,100%);fill-opacity:1;" d="M 32.539063 60.417969 L 31.183594 60.320313 L 31.28125 58.96875 L 30.585938 58.921875 L 30.347656 62.347656 L 31.039063 62.398438 L 31.144531 60.898438 L 32.5 60.996094 L 32.394531 62.492188 L 33.085938 62.539063 L 33.324219 59.113281 L 32.636719 59.066406 L 32.539063 60.417969 "/>
<path style=" stroke:none;fill-rule:nonzero;fill:rgb(100%,100%,100%);fill-opacity:1;" d="M 45.472656 58.59375 L 44.824219 56.910156 L 44.175781 57.160156 L 44.859375 58.929688 C 44.957031 59.1875 45.019531 59.371094 45.039063 59.488281 C 45.0625 59.601563 45.039063 59.71875 44.976563 59.828125 C 44.910156 59.9375 44.789063 60.03125 44.605469 60.101563 C 44.421875 60.167969 44.265625 60.183594 44.132813 60.148438 C 43.996094 60.105469 43.890625 60.027344 43.8125 59.90625 C 43.765625 59.832031 43.6875 59.652344 43.582031 59.378906 L 42.914063 57.640625 L 42.597656 57.765625 L 42.269531 57.890625 L 42.597656 58.742188 L 42.921875 59.601563 C 43.066406 59.960938 43.1875 60.222656 43.300781 60.390625 C 43.378906 60.503906 43.484375 60.597656 43.617188 60.675781 C 43.753906 60.757813 43.914063 60.800781 44.097656 60.808594 C 44.285156 60.816406 44.53125 60.761719 44.835938 60.644531 C 45.089844 60.550781 45.285156 60.4375 45.414063 60.3125 C 45.550781 60.183594 45.644531 60.050781 45.695313 59.90625 C 45.742188 59.761719 45.757813 59.601563 45.734375 59.429688 C 45.707031 59.261719 45.621094 58.976563 45.472656 58.59375 "/>
<path style=" stroke:none;fill-rule:nonzero;fill:rgb(100%,100%,100%);fill-opacity:1;" d="M 29.347656 60.398438 C 29.300781 60.660156 29.242188 60.863281 29.171875 61.007813 C 29.097656 61.148438 29.019531 61.25 28.933594 61.300781 C 28.851563 61.355469 28.746094 61.386719 28.636719 61.394531 C 28.609375 61.394531 28.582031 61.394531 28.546875 61.394531 C 28.464844 61.390625 28.355469 61.378906 28.214844 61.355469 L 27.707031 61.261719 L 28.101563 59.023438 L 28.40625 59.074219 C 28.457031 59.085938 28.503906 59.09375 28.546875 59.105469 C 28.75 59.140625 28.890625 59.179688 28.960938 59.210938 C 29.085938 59.261719 29.183594 59.328125 29.25 59.425781 C 29.316406 59.519531 29.363281 59.636719 29.386719 59.785156 C 29.40625 59.933594 29.398438 60.140625 29.347656 60.398438 Z M 29.851563 59.128906 C 29.738281 58.957031 29.582031 58.820313 29.398438 58.730469 C 29.253906 58.660156 29.046875 58.601563 28.765625 58.550781 L 28.546875 58.511719 L 27.519531 58.332031 L 26.921875 61.710938 L 28.207031 61.941406 C 28.332031 61.960938 28.449219 61.976563 28.546875 61.984375 C 28.652344 61.988281 28.746094 61.988281 28.824219 61.976563 C 29.035156 61.945313 29.210938 61.882813 29.351563 61.789063 C 29.535156 61.664063 29.691406 61.488281 29.816406 61.253906 C 29.921875 61.070313 30 60.832031 30.050781 60.554688 C 30.101563 60.238281 30.113281 59.964844 30.082031 59.734375 C 30.042969 59.507813 29.96875 59.304688 29.851563 59.128906 "/>
<path style=" stroke:none;fill-rule:nonzero;fill:rgb(100%,100%,100%);fill-opacity:1;" d="M 42.597656 59.742188 L 41.507813 60.011719 L 41.667969 60.648438 L 42.597656 60.421875 L 42.921875 60.339844 L 42.765625 59.699219 L 42.597656 59.742188 "/>
<path style=" stroke:none;fill-rule:nonzero;fill:rgb(100%,100%,100%);fill-opacity:1;" d="M 35.089844 61.175781 L 34.621094 61.183594 L 35.066406 59.902344 L 35.089844 59.972656 L 35.558594 61.167969 Z M 35.089844 59.101563 L 34.691406 59.109375 L 33.414063 62.566406 L 34.148438 62.554688 L 34.414063 61.765625 L 35.089844 61.753906 L 35.792969 61.742188 L 36.105469 62.519531 L 36.855469 62.503906 L 35.421875 59.09375 L 35.089844 59.101563 "/>
<path style=" stroke:none;fill-rule:nonzero;fill:rgb(100%,100%,100%);fill-opacity:1;" d="M 22.167969 57.359375 C 22.117188 57.457031 22.050781 57.523438 21.960938 57.554688 C 21.871094 57.585938 21.765625 57.582031 21.652344 57.542969 C 21.621094 57.53125 21.574219 57.511719 21.5 57.476563 C 21.421875 57.441406 21.320313 57.394531 21.195313 57.332031 L 20.789063 57.132813 L 21.132813 56.417969 L 21.492188 56.59375 L 21.5 56.597656 C 21.789063 56.738281 21.960938 56.828125 22.019531 56.863281 C 22.117188 56.925781 22.175781 57 22.203125 57.085938 C 22.226563 57.171875 22.210938 57.261719 22.167969 57.359375 Z M 21.648438 58.710938 C 21.613281 58.789063 21.558594 58.851563 21.5 58.894531 C 21.480469 58.910156 21.457031 58.917969 21.429688 58.929688 C 21.34375 58.964844 21.246094 58.972656 21.148438 58.945313 C 21.082031 58.925781 20.933594 58.863281 20.710938 58.753906 L 20.136719 58.472656 L 20.539063 57.648438 L 21.039063 57.890625 C 21.253906 57.996094 21.40625 58.082031 21.5 58.148438 C 21.53125 58.167969 21.554688 58.1875 21.574219 58.207031 C 21.640625 58.277344 21.683594 58.355469 21.695313 58.441406 C 21.710938 58.53125 21.695313 58.621094 21.648438 58.710938 Z M 22.820313 57.566406 C 22.882813 57.433594 22.910156 57.296875 22.898438 57.160156 C 22.890625 57.019531 22.851563 56.898438 22.789063 56.785156 C 22.785156 56.78125 22.785156 56.777344 22.78125 56.773438 C 22.71875 56.667969 22.636719 56.578125 22.527344 56.503906 C 22.417969 56.421875 22.238281 56.320313 21.996094 56.203125 L 21.5 55.960938 L 20.761719 55.601563 L 19.417969 58.355469 L 19.253906 58.6875 L 19.417969 58.765625 L 20.308594 59.199219 C 20.707031 59.390625 20.960938 59.507813 21.066406 59.546875 C 21.222656 59.601563 21.363281 59.621094 21.5 59.609375 C 21.519531 59.609375 21.539063 59.605469 21.558594 59.601563 C 21.710938 59.578125 21.851563 59.519531 21.984375 59.417969 C 22.109375 59.316406 22.210938 59.195313 22.277344 59.054688 C 22.367188 58.875 22.390625 58.695313 22.355469 58.515625 C 22.316406 58.332031 22.21875 58.167969 22.058594 58.023438 C 22.21875 58.027344 22.367188 57.988281 22.507813 57.90625 C 22.621094 57.835938 22.714844 57.746094 22.78125 57.632813 C 22.792969 57.609375 22.804688 57.589844 22.820313 57.566406 "/>
<path style=" stroke:none;fill-rule:nonzero;fill:rgb(100%,100%,100%);fill-opacity:1;" d="M 39.203125 61.386719 C 39.144531 61.464844 39.066406 61.523438 38.960938 61.550781 C 38.898438 61.574219 38.746094 61.59375 38.496094 61.621094 L 38.304688 61.640625 L 37.855469 61.6875 L 37.761719 60.769531 L 38.304688 60.71875 L 38.320313 60.714844 C 38.632813 60.683594 38.835938 60.675781 38.933594 60.699219 C 39.03125 60.722656 39.105469 60.769531 39.164063 60.835938 C 39.222656 60.902344 39.261719 60.984375 39.265625 61.085938 C 39.28125 61.210938 39.261719 61.308594 39.203125 61.386719 Z M 37.617188 59.417969 L 38.015625 59.375 C 38.128906 59.359375 38.226563 59.351563 38.304688 59.34375 C 38.460938 59.332031 38.558594 59.324219 38.609375 59.324219 C 38.722656 59.328125 38.816406 59.355469 38.878906 59.417969 C 38.945313 59.476563 38.976563 59.558594 38.988281 59.664063 C 39 59.777344 38.976563 59.867188 38.917969 59.941406 C 38.855469 60.019531 38.773438 60.070313 38.652344 60.09375 C 38.601563 60.105469 38.484375 60.121094 38.304688 60.140625 C 38.257813 60.148438 38.207031 60.152344 38.152344 60.15625 L 37.703125 60.203125 Z M 39.917969 60.777344 C 39.882813 60.691406 39.828125 60.613281 39.761719 60.546875 C 39.636719 60.414063 39.464844 60.328125 39.25 60.289063 C 39.394531 60.203125 39.496094 60.09375 39.570313 59.949219 C 39.640625 59.808594 39.667969 59.65625 39.648438 59.496094 C 39.636719 59.347656 39.585938 59.222656 39.507813 59.109375 C 39.425781 58.996094 39.324219 58.910156 39.21875 58.851563 C 39.101563 58.789063 38.976563 58.753906 38.84375 58.746094 C 38.722656 58.738281 38.539063 58.746094 38.304688 58.773438 C 38.285156 58.773438 38.257813 58.773438 38.234375 58.777344 L 36.867188 58.917969 L 37.226563 62.335938 L 38.304688 62.226563 L 38.386719 62.210938 C 38.832031 62.164063 39.105469 62.125 39.222656 62.105469 C 39.402344 62.0625 39.550781 61.992188 39.664063 61.890625 C 39.773438 61.796875 39.855469 61.675781 39.917969 61.53125 C 39.917969 61.523438 39.917969 61.519531 39.921875 61.507813 C 39.980469 61.355469 40 61.203125 39.984375 61.046875 C 39.972656 60.949219 39.949219 60.859375 39.917969 60.777344 "/>
<path style=" stroke:none;fill-rule:nonzero;fill:rgb(100%,100%,100%);fill-opacity:1;" d="M 24.804688 59.492188 C 24.703125 59.746094 24.628906 59.925781 24.5625 60.027344 C 24.503906 60.128906 24.414063 60.199219 24.292969 60.238281 C 24.167969 60.277344 24.015625 60.261719 23.832031 60.191406 C 23.648438 60.121094 23.519531 60.027344 23.449219 59.90625 C 23.378906 59.789063 23.351563 59.660156 23.371094 59.519531 C 23.390625 59.429688 23.449219 59.246094 23.554688 58.972656 L 24.222656 57.234375 L 23.574219 56.984375 L 22.917969 58.695313 C 22.863281 58.835938 22.820313 58.964844 22.78125 59.082031 C 22.722656 59.261719 22.6875 59.414063 22.667969 59.539063 C 22.652344 59.667969 22.664063 59.8125 22.714844 59.960938 C 22.730469 60.011719 22.753906 60.0625 22.78125 60.117188 C 22.832031 60.203125 22.898438 60.292969 22.980469 60.378906 C 23.113281 60.507813 23.335938 60.636719 23.640625 60.757813 C 23.894531 60.847656 24.109375 60.898438 24.296875 60.890625 C 24.472656 60.886719 24.636719 60.847656 24.773438 60.773438 C 24.90625 60.703125 25.023438 60.59375 25.121094 60.449219 C 25.214844 60.304688 25.335938 60.039063 25.484375 59.652344 L 26.128906 57.964844 L 25.484375 57.71875 L 24.804688 59.492188 "/>
<path style=" stroke:none;fill-rule:nonzero;fill:rgb(100%,100%,100%);fill-opacity:1;" d="M 51.6875 56.28125 L 50.058594 57.300781 L 49.566406 56.507813 L 51.03125 55.59375 L 50.71875 55.101563 L 49.261719 56.015625 L 48.855469 55.371094 L 50.425781 54.386719 L 50.117188 53.894531 L 48.730469 54.761719 L 47.960938 55.246094 L 48.730469 56.476563 L 49.78125 58.15625 L 51.992188 56.773438 L 51.6875 56.28125 "/>
<path style=" stroke:none;fill-rule:nonzero;fill:rgb(100%,100%,100%);fill-opacity:1;" d="M 18.566406 56.660156 L 18.300781 56.496094 L 17.769531 56.164063 L 18.300781 55.746094 L 18.835938 55.328125 Z M 19.582031 54.847656 L 19.417969 54.746094 L 18.960938 54.460938 L 18.300781 54.949219 L 16.003906 56.664063 L 16.628906 57.054688 L 17.28125 56.542969 L 18.300781 57.179688 L 18.445313 57.269531 L 18.300781 58.003906 L 18.285156 58.089844 L 18.300781 58.101563 L 18.925781 58.488281 L 19.417969 55.75 L 19.582031 54.847656 "/>
<path style=" stroke:none;fill-rule:nonzero;fill:rgb(100%,100%,100%);fill-opacity:1;" d="M 47.265625 57.996094 L 46.910156 58.164063 L 46.773438 56.8125 L 47.265625 57.285156 L 47.757813 57.753906 Z M 47.265625 56.390625 L 46.757813 55.929688 L 46.097656 56.25 L 46.402344 59.925781 L 47.0625 59.601563 L 46.976563 58.777344 L 47.265625 58.636719 L 48.210938 58.175781 L 48.730469 58.660156 L 48.820313 58.746094 L 49.5 58.414063 L 48.730469 57.714844 L 47.265625 56.390625 "/>
<path style=" stroke:none;fill-rule:nonzero;fill:rgb(0%,0%,0%);fill-opacity:1;" d="M 33.234375 28.933594 C 30.890625 28.933594 28.992188 30.832031 28.992188 33.171875 C 28.992188 35.515625 30.890625 37.414063 33.234375 37.414063 C 35.570313 37.414063 37.472656 35.515625 37.472656 33.171875 C 37.472656 30.832031 35.570313 28.933594 33.234375 28.933594 "/>
<path style=" stroke:none;fill-rule:nonzero;fill:rgb(100%,100%,100%);fill-opacity:1;" d="M 32.253906 32.167969 L 31.804688 33.566406 L 30.585938 33.804688 L 29.773438 32.949219 L 30.417969 31.195313 L 31.707031 30.894531 L 32.253906 32.167969 "/>
<path style=" stroke:none;fill-rule:nonzero;fill:rgb(100%,100%,100%);fill-opacity:1;" d="M 31.792969 30.816406 L 32.351563 29.78125 L 34.203125 29.859375 L 34.886719 30.996094 L 33.804688 32.089844 L 32.34375 32.089844 L 32.023438 31.351563 L 31.792969 30.816406 "/>
<path style=" stroke:none;fill-rule:nonzero;fill:rgb(100%,100%,100%);fill-opacity:1;" d="M 30.625 33.910156 L 31.84375 33.671875 L 32.023438 33.800781 L 33.027344 34.535156 L 33.027344 35.882813 L 32.023438 36.367188 L 31.960938 36.398438 L 30.507813 35.238281 L 30.625 33.910156 "/>
<path style=" stroke:none;fill-rule:nonzero;fill:rgb(100%,100%,100%);fill-opacity:1;" d="M 33.140625 35.878906 L 33.140625 34.535156 L 34.332031 33.664063 L 35.742188 34.1875 L 35.898438 35.367188 L 34.355469 36.398438 L 33.140625 35.878906 "/>
<path style=" stroke:none;fill-rule:nonzero;fill:rgb(100%,100%,100%);fill-opacity:1;" d="M 35.773438 34.078125 L 34.363281 33.558594 L 33.90625 32.144531 L 34.980469 31.0625 L 36.136719 31.273438 L 36.640625 33.074219 L 35.773438 34.078125 "/>
<path style=" stroke:none;fill-rule:nonzero;fill:rgb(100%,100%,100%);fill-opacity:1;" d="M 36.226563 31.164063 L 36.382813 30.378906 C 37.042969 31.121094 37.449219 32.097656 37.449219 33.171875 C 37.449219 33.351563 37.433594 33.527344 37.414063 33.699219 L 36.761719 33.09375 L 36.226563 31.164063 "/>
<path style=" stroke:none;fill-rule:nonzero;fill:rgb(100%,100%,100%);fill-opacity:1;" d="M 34.980469 29.339844 L 34.261719 29.746094 L 32.273438 29.664063 L 31.601563 29.285156 C 32.105469 29.074219 32.65625 28.957031 33.234375 28.957031 C 33.855469 28.957031 34.449219 29.097656 34.980469 29.339844 "/>
<path style=" stroke:none;fill-rule:nonzero;fill:rgb(100%,100%,100%);fill-opacity:1;" d="M 30.167969 30.285156 L 30.332031 31.105469 L 29.640625 32.984375 L 29.035156 33.542969 C 29.023438 33.421875 29.015625 33.296875 29.015625 33.171875 C 29.019531 32.054688 29.457031 31.039063 30.167969 30.285156 "/>
<path style=" stroke:none;fill-rule:nonzero;fill:rgb(100%,100%,100%);fill-opacity:1;" d="M 29.53125 35.191406 L 30.398438 35.292969 L 31.957031 36.535156 L 32.023438 36.679688 L 32.296875 37.28125 C 31.101563 37.007813 30.101563 36.234375 29.53125 35.191406 "/>
<path style=" stroke:none;fill-rule:nonzero;fill:rgb(100%,100%,100%);fill-opacity:1;" d="M 34.011719 37.3125 L 34.371094 36.523438 L 34.394531 36.503906 L 36.027344 35.414063 L 36.859375 35.3125 C 36.25 36.339844 35.222656 37.085938 34.011719 37.3125 "/>
<path style=" stroke:none;fill-rule:nonzero;fill:rgb(0%,0%,0%);fill-opacity:1;" d="M 31.898438 17.367188 C 31.925781 17.367188 31.953125 17.367188 31.980469 17.363281 C 32.324219 17.324219 32.617188 17.097656 32.75 16.78125 L 32.730469 16.773438 L 32.75 16.78125 C 32.902344 16.414063 32.976563 16.023438 32.976563 15.632813 C 32.976563 15.378906 32.945313 15.128906 32.882813 14.878906 C 32.714844 14.238281 32.347656 13.667969 31.835938 13.25 C 31.828125 13.246094 31.820313 13.242188 31.8125 13.25 C 31.804688 13.253906 31.800781 13.265625 31.804688 13.273438 C 31.917969 13.585938 31.972656 13.914063 31.972656 14.246094 C 31.972656 14.628906 31.898438 15.011719 31.742188 15.371094 C 31.640625 15.609375 31.519531 15.839844 31.378906 16.058594 C 31.273438 16.222656 31.21875 16.410156 31.21875 16.601563 C 31.21875 16.703125 31.230469 16.800781 31.261719 16.902344 C 31.347656 17.179688 31.609375 17.367188 31.898438 17.367188 "/>
<path style=" stroke:none;fill-rule:nonzero;fill:rgb(0%,0%,0%);fill-opacity:1;" d="M 33.921875 14.617188 C 33.921875 14.863281 33.890625 15.109375 33.828125 15.347656 C 33.746094 15.644531 33.664063 15.941406 33.574219 16.238281 C 33.539063 16.351563 33.523438 16.46875 33.523438 16.582031 C 33.523438 16.988281 33.730469 17.375 34.089844 17.59375 L 34.101563 17.578125 L 34.089844 17.59375 C 34.242188 17.6875 34.414063 17.730469 34.582031 17.730469 C 34.878906 17.730469 35.171875 17.589844 35.355469 17.335938 C 35.640625 16.9375 35.789063 16.464844 35.789063 15.988281 C 35.789063 15.753906 35.75 15.519531 35.675781 15.289063 C 35.210938 13.828125 34.339844 12.53125 33.152344 11.558594 C 33.148438 11.550781 33.136719 11.550781 33.128906 11.554688 C 33.121094 11.5625 33.121094 11.570313 33.121094 11.578125 C 33.347656 12.3125 33.570313 13.042969 33.796875 13.773438 C 33.878906 14.046875 33.921875 14.332031 33.921875 14.617188 "/>
<path style=" stroke:none;fill-rule:nonzero;fill:rgb(0%,0%,0%);fill-opacity:1;" d="M 31.09375 19.335938 L 31.074219 19.238281 L 31.207031 19.21875 C 31.214844 19.21875 31.222656 19.207031 31.222656 19.199219 L 31.207031 19.082031 L 31.386719 19.050781 L 31.40625 19.167969 C 31.410156 19.175781 31.417969 19.183594 31.429688 19.183594 L 31.558594 19.164063 L 31.574219 19.261719 C 31.414063 19.285156 31.253906 19.308594 31.09375 19.335938 Z M 31.542969 18.863281 C 31.539063 18.859375 31.53125 18.855469 31.527344 18.855469 L 31.464844 18.855469 L 31.464844 18.828125 C 31.464844 18.820313 31.464844 18.816406 31.460938 18.8125 C 31.457031 18.808594 31.453125 18.804688 31.445313 18.804688 L 31.429688 18.804688 L 31.429688 18.78125 C 31.429688 18.773438 31.421875 18.765625 31.414063 18.761719 C 31.375 18.746094 31.347656 18.707031 31.347656 18.664063 C 31.347656 18.621094 31.375 18.582031 31.414063 18.566406 C 31.421875 18.566406 31.429688 18.558594 31.429688 18.550781 L 31.429688 18.523438 L 31.445313 18.523438 C 31.453125 18.523438 31.457031 18.519531 31.460938 18.515625 C 31.464844 18.511719 31.464844 18.507813 31.464844 18.503906 L 31.464844 18.472656 L 31.527344 18.472656 C 31.53125 18.472656 31.539063 18.46875 31.542969 18.46875 C 31.546875 18.464844 31.546875 18.457031 31.546875 18.453125 L 31.546875 18.398438 L 31.632813 18.398438 L 31.632813 18.453125 C 31.632813 18.457031 31.636719 18.464844 31.640625 18.46875 C 31.644531 18.46875 31.648438 18.472656 31.652344 18.472656 L 31.714844 18.472656 L 31.714844 18.503906 C 31.714844 18.507813 31.71875 18.511719 31.71875 18.515625 C 31.722656 18.519531 31.730469 18.523438 31.734375 18.523438 L 31.753906 18.523438 L 31.753906 18.550781 C 31.753906 18.558594 31.757813 18.566406 31.765625 18.566406 C 31.804688 18.582031 31.832031 18.621094 31.832031 18.664063 C 31.832031 18.707031 31.804688 18.746094 31.765625 18.761719 C 31.757813 18.765625 31.753906 18.773438 31.753906 18.78125 L 31.753906 18.804688 L 31.734375 18.804688 C 31.730469 18.804688 31.722656 18.808594 31.71875 18.8125 C 31.71875 18.816406 31.714844 18.820313 31.714844 18.828125 L 31.714844 18.855469 L 31.652344 18.855469 C 31.648438 18.855469 31.644531 18.859375 31.640625 18.863281 C 31.636719 18.867188 31.632813 18.871094 31.632813 18.875 L 31.632813 18.929688 L 31.546875 18.929688 L 31.546875 18.875 C 31.546875 18.871094 31.546875 18.867188 31.542969 18.863281 Z M 31.828125 19.230469 L 31.816406 19.132813 L 31.949219 19.121094 C 31.957031 19.121094 31.960938 19.117188 31.964844 19.113281 C 31.96875 19.109375 31.96875 19.105469 31.96875 19.097656 L 31.957031 18.984375 L 32.144531 18.96875 L 32.152344 19.082031 C 32.15625 19.085938 32.15625 19.09375 32.160156 19.09375 C 32.164063 19.097656 32.171875 19.097656 32.175781 19.097656 L 32.308594 19.085938 L 32.316406 19.183594 C 32.152344 19.195313 31.992188 19.210938 31.828125 19.230469 Z M 32.253906 18.699219 C 32.25 18.695313 32.242188 18.691406 32.238281 18.691406 L 32.175781 18.691406 L 32.175781 18.664063 C 32.175781 18.65625 32.175781 18.652344 32.171875 18.648438 C 32.167969 18.644531 32.164063 18.644531 32.15625 18.644531 L 32.140625 18.644531 L 32.140625 18.617188 C 32.140625 18.609375 32.136719 18.601563 32.128906 18.597656 C 32.085938 18.582031 32.058594 18.542969 32.058594 18.5 C 32.058594 18.457031 32.085938 18.417969 32.128906 18.40625 C 32.136719 18.402344 32.140625 18.394531 32.140625 18.386719 L 32.140625 18.359375 L 32.15625 18.359375 C 32.164063 18.359375 32.167969 18.355469 32.171875 18.351563 C 32.175781 18.347656 32.175781 18.34375 32.175781 18.339844 L 32.175781 18.308594 L 32.238281 18.308594 C 32.242188 18.308594 32.25 18.308594 32.253906 18.304688 C 32.257813 18.300781 32.257813 18.292969 32.257813 18.289063 L 32.257813 18.234375 L 32.34375 18.234375 L 32.34375 18.289063 C 32.34375 18.292969 32.347656 18.300781 32.351563 18.304688 C 32.355469 18.308594 32.359375 18.308594 32.363281 18.308594 L 32.425781 18.308594 L 32.425781 18.339844 C 32.425781 18.34375 32.429688 18.347656 32.433594 18.351563 C 32.4375 18.355469 32.441406 18.359375 32.445313 18.359375 L 32.464844 18.359375 L 32.464844 18.386719 C 32.464844 18.394531 32.46875 18.402344 32.476563 18.40625 C 32.515625 18.417969 32.542969 18.457031 32.542969 18.5 C 32.542969 18.542969 32.515625 18.582031 32.476563 18.597656 C 32.46875 18.601563 32.464844 18.609375 32.464844 18.617188 L 32.464844 18.644531 L 32.445313 18.644531 C 32.441406 18.644531 32.4375 18.644531 32.433594 18.648438 C 32.429688 18.652344 32.425781 18.65625 32.425781 18.664063 L 32.425781 18.691406 L 32.363281 18.691406 C 32.359375 18.691406 32.355469 18.695313 32.351563 18.699219 C 32.347656 18.703125 32.34375 18.707031 32.34375 18.710938 L 32.34375 18.765625 L 32.257813 18.765625 L 32.257813 18.710938 C 32.257813 18.707031 32.257813 18.703125 32.253906 18.699219 Z M 32.570313 19.167969 L 32.566406 19.070313 L 32.699219 19.066406 C 32.703125 19.066406 32.707031 19.066406 32.710938 19.0625 C 32.714844 19.058594 32.71875 19.050781 32.71875 19.046875 L 32.714844 18.929688 L 32.898438 18.925781 L 32.902344 19.042969 C 32.90625 19.050781 32.914063 19.0625 32.925781 19.058594 L 33.054688 19.058594 L 33.058594 19.15625 C 32.894531 19.15625 32.730469 19.164063 32.570313 19.167969 Z M 33.152344 18.699219 C 33.148438 18.695313 33.144531 18.691406 33.136719 18.691406 L 33.074219 18.691406 L 33.074219 18.664063 C 33.074219 18.65625 33.074219 18.652344 33.070313 18.648438 C 33.066406 18.644531 33.0625 18.644531 33.054688 18.644531 L 33.039063 18.644531 L 33.039063 18.617188 C 33.039063 18.609375 33.035156 18.601563 33.027344 18.597656 C 32.984375 18.582031 32.957031 18.542969 32.957031 18.5 C 32.957031 18.457031 32.984375 18.417969 33.027344 18.40625 C 33.035156 18.402344 33.039063 18.394531 33.039063 18.386719 L 33.039063 18.359375 L 33.054688 18.359375 C 33.0625 18.359375 33.066406 18.355469 33.070313 18.351563 C 33.074219 18.347656 33.074219 18.34375 33.074219 18.339844 L 33.074219 18.308594 L 33.136719 18.308594 C 33.144531 18.308594 33.148438 18.308594 33.152344 18.304688 C 33.15625 18.300781 33.15625 18.292969 33.15625 18.289063 L 33.15625 18.234375 L 33.242188 18.234375 L 33.242188 18.289063 C 33.242188 18.292969 33.246094 18.300781 33.25 18.304688 C 33.253906 18.308594 33.257813 18.308594 33.265625 18.308594 L 33.324219 18.308594 L 33.324219 18.339844 C 33.324219 18.34375 33.328125 18.347656 33.332031 18.351563 C 33.335938 18.355469 33.339844 18.359375 33.34375 18.359375 L 33.363281 18.359375 L 33.363281 18.386719 C 33.363281 18.394531 33.367188 18.402344 33.375 18.40625 C 33.414063 18.417969 33.441406 18.457031 33.441406 18.5 C 33.441406 18.542969 33.414063 18.582031 33.375 18.597656 C 33.367188 18.601563 33.363281 18.609375 33.363281 18.617188 L 33.363281 18.644531 L 33.34375 18.644531 C 33.339844 18.644531 33.335938 18.644531 33.332031 18.648438 C 33.328125 18.652344 33.324219 18.65625 33.324219 18.664063 L 33.324219 18.691406 L 33.265625 18.691406 C 33.257813 18.691406 33.253906 18.695313 33.25 18.699219 C 33.246094 18.703125 33.242188 18.707031 33.242188 18.710938 L 33.242188 18.765625 L 33.15625 18.765625 L 33.15625 18.710938 C 33.15625 18.707031 33.15625 18.703125 33.152344 18.699219 Z M 33.34375 19.058594 L 33.476563 19.058594 C 33.480469 19.058594 33.488281 19.058594 33.492188 19.054688 C 33.496094 19.050781 33.496094 19.046875 33.496094 19.042969 L 33.5 18.925781 L 33.6875 18.929688 L 33.683594 19.046875 C 33.683594 19.050781 33.683594 19.058594 33.6875 19.0625 C 33.691406 19.066406 33.699219 19.066406 33.703125 19.066406 L 33.835938 19.070313 L 33.832031 19.167969 C 33.671875 19.164063 33.503906 19.15625 33.34375 19.15625 Z M 34.050781 18.699219 C 34.046875 18.695313 34.039063 18.691406 34.035156 18.691406 L 33.972656 18.691406 L 33.972656 18.664063 C 33.972656 18.65625 33.972656 18.652344 33.96875 18.648438 C 33.964844 18.644531 33.960938 18.644531 33.953125 18.644531 L 33.9375 18.644531 L 33.9375 18.617188 C 33.9375 18.609375 33.929688 18.601563 33.921875 18.597656 C 33.882813 18.582031 33.855469 18.542969 33.855469 18.5 C 33.855469 18.457031 33.882813 18.417969 33.921875 18.40625 C 33.929688 18.402344 33.9375 18.394531 33.9375 18.386719 L 33.9375 18.359375 L 33.953125 18.359375 C 33.960938 18.359375 33.964844 18.355469 33.96875 18.351563 C 33.972656 18.347656 33.972656 18.34375 33.972656 18.339844 L 33.972656 18.308594 L 34.035156 18.308594 C 34.039063 18.308594 34.046875 18.308594 34.050781 18.304688 C 34.054688 18.300781 34.054688 18.292969 34.054688 18.289063 L 34.054688 18.234375 L 34.140625 18.234375 L 34.140625 18.289063 C 34.140625 18.292969 34.144531 18.300781 34.148438 18.304688 C 34.152344 18.308594 34.15625 18.308594 34.160156 18.308594 L 34.222656 18.308594 L 34.222656 18.339844 C 34.222656 18.34375 34.226563 18.347656 34.230469 18.351563 C 34.234375 18.355469 34.238281 18.359375 34.242188 18.359375 L 34.261719 18.359375 L 34.261719 18.386719 C 34.261719 18.394531 34.265625 18.402344 34.273438 18.40625 C 34.3125 18.417969 34.339844 18.457031 34.339844 18.5 C 34.339844 18.542969 34.3125 18.582031 34.273438 18.597656 C 34.265625 18.601563 34.261719 18.609375 34.261719 18.617188 L 34.261719 18.644531 L 34.242188 18.644531 C 34.238281 18.644531 34.230469 18.644531 34.230469 18.648438 C 34.226563 18.652344 34.222656 18.65625 34.222656 18.664063 L 34.222656 18.691406 L 34.160156 18.691406 C 34.15625 18.691406 34.152344 18.695313 34.148438 18.699219 C 34.144531 18.703125 34.140625 18.707031 34.140625 18.710938 L 34.140625 18.765625 L 34.054688 18.765625 L 34.054688 18.710938 C 34.054688 18.707031 34.054688 18.703125 34.050781 18.699219 Z M 34.09375 19.085938 L 34.226563 19.097656 C 34.230469 19.097656 34.234375 19.097656 34.238281 19.09375 C 34.242188 19.09375 34.246094 19.085938 34.246094 19.082031 L 34.257813 18.96875 L 34.445313 18.984375 L 34.433594 19.097656 C 34.429688 19.105469 34.433594 19.109375 34.4375 19.113281 C 34.441406 19.117188 34.445313 19.121094 34.449219 19.121094 L 34.582031 19.132813 L 34.574219 19.230469 C 34.410156 19.210938 34.25 19.195313 34.085938 19.183594 Z M 34.839844 19.164063 L 34.96875 19.183594 C 34.980469 19.183594 34.992188 19.175781 34.992188 19.167969 L 35.011719 19.050781 L 35.195313 19.082031 L 35.179688 19.199219 C 35.175781 19.207031 35.183594 19.21875 35.195313 19.21875 L 35.324219 19.238281 L 35.308594 19.335938 C 35.148438 19.308594 34.988281 19.285156 34.824219 19.261719 Z M 34.761719 18.863281 C 34.757813 18.859375 34.753906 18.855469 34.746094 18.855469 L 34.683594 18.855469 L 34.683594 18.828125 C 34.683594 18.820313 34.683594 18.816406 34.679688 18.8125 C 34.675781 18.808594 34.671875 18.804688 34.664063 18.804688 L 34.648438 18.804688 L 34.648438 18.78125 C 34.648438 18.773438 34.644531 18.765625 34.636719 18.761719 C 34.59375 18.746094 34.566406 18.707031 34.566406 18.664063 C 34.566406 18.621094 34.59375 18.582031 34.636719 18.566406 C 34.644531 18.566406 34.648438 18.558594 34.648438 18.550781 L 34.648438 18.523438 L 34.664063 18.523438 C 34.671875 18.523438 34.675781 18.519531 34.679688 18.515625 C 34.683594 18.511719 34.683594 18.507813 34.683594 18.503906 L 34.683594 18.472656 L 34.746094 18.472656 C 34.753906 18.472656 34.757813 18.46875 34.761719 18.46875 C 34.765625 18.464844 34.765625 18.457031 34.765625 18.453125 L 34.765625 18.398438 L 34.851563 18.398438 L 34.851563 18.453125 C 34.851563 18.457031 34.855469 18.464844 34.859375 18.46875 C 34.863281 18.46875 34.867188 18.472656 34.875 18.472656 L 34.933594 18.472656 L 34.933594 18.503906 C 34.933594 18.507813 34.9375 18.511719 34.941406 18.515625 C 34.945313 18.519531 34.949219 18.523438 34.953125 18.523438 L 34.972656 18.523438 L 34.972656 18.550781 C 34.972656 18.558594 34.976563 18.566406 34.984375 18.566406 C 35.023438 18.582031 35.050781 18.621094 35.050781 18.664063 C 35.050781 18.707031 35.023438 18.746094 34.984375 18.761719 C 34.976563 18.765625 34.972656 18.773438 34.972656 18.78125 L 34.972656 18.804688 L 34.953125 18.804688 C 34.949219 18.804688 34.945313 18.808594 34.941406 18.8125 C 34.9375 18.816406 34.933594 18.820313 34.933594 18.828125 L 34.933594 18.855469 L 34.875 18.855469 C 34.867188 18.855469 34.863281 18.859375 34.859375 18.863281 C 34.855469 18.867188 34.851563 18.871094 34.851563 18.875 L 34.851563 18.929688 L 34.765625 18.929688 L 34.765625 18.875 C 34.765625 18.871094 34.765625 18.867188 34.761719 18.863281 Z M 35.507813 18.40625 C 35.5 18.40625 35.488281 18.40625 35.476563 18.40625 C 35.429688 18.414063 35.386719 18.445313 35.363281 18.484375 C 35.355469 18.496094 35.347656 18.503906 35.335938 18.503906 L 35.253906 18.503906 C 35.25 18.503906 35.246094 18.507813 35.242188 18.511719 C 35.238281 18.515625 35.234375 18.519531 35.234375 18.523438 L 35.234375 18.601563 L 35.1875 18.601563 L 35.1875 18.523438 C 35.1875 18.515625 35.183594 18.507813 35.175781 18.507813 C 35.105469 18.484375 35.054688 18.4375 35.027344 18.371094 C 35.015625 18.339844 34.992188 18.316406 34.972656 18.296875 C 34.917969 18.261719 34.855469 18.246094 34.796875 18.246094 C 34.71875 18.246094 34.644531 18.273438 34.585938 18.328125 L 34.503906 18.328125 C 34.5 18.328125 34.492188 18.332031 34.492188 18.335938 C 34.488281 18.339844 34.484375 18.34375 34.484375 18.347656 L 34.484375 18.425781 L 34.4375 18.425781 L 34.4375 18.347656 C 34.4375 18.339844 34.429688 18.332031 34.421875 18.332031 C 34.351563 18.308594 34.300781 18.261719 34.273438 18.191406 C 34.261719 18.160156 34.238281 18.128906 34.207031 18.113281 C 34.171875 18.09375 34.136719 18.082031 34.097656 18.082031 C 34.058594 18.082031 34.023438 18.09375 33.988281 18.113281 C 33.957031 18.128906 33.933594 18.160156 33.921875 18.191406 C 33.898438 18.261719 33.84375 18.308594 33.773438 18.332031 L 33.691406 18.328125 C 33.683594 18.328125 33.679688 18.332031 33.675781 18.335938 C 33.671875 18.339844 33.671875 18.34375 33.671875 18.347656 L 33.671875 18.425781 L 33.625 18.425781 L 33.625 18.347656 C 33.625 18.34375 33.621094 18.339844 33.617188 18.335938 C 33.613281 18.332031 33.609375 18.328125 33.605469 18.328125 L 33.511719 18.328125 C 33.449219 18.308594 33.394531 18.257813 33.371094 18.195313 C 33.359375 18.160156 33.335938 18.128906 33.304688 18.113281 C 33.273438 18.09375 33.234375 18.082031 33.199219 18.082031 C 33.164063 18.082031 33.128906 18.09375 33.097656 18.113281 C 33.066406 18.128906 33.042969 18.160156 33.03125 18.195313 C 33.007813 18.257813 32.953125 18.308594 32.882813 18.332031 L 32.796875 18.328125 C 32.792969 18.328125 32.785156 18.332031 32.78125 18.335938 C 32.777344 18.339844 32.777344 18.34375 32.777344 18.347656 L 32.777344 18.425781 L 32.730469 18.425781 L 32.730469 18.347656 C 32.730469 18.34375 32.726563 18.339844 32.722656 18.335938 C 32.71875 18.332031 32.714844 18.328125 32.710938 18.328125 L 32.621094 18.328125 C 32.554688 18.308594 32.503906 18.261719 32.480469 18.195313 C 32.464844 18.160156 32.441406 18.128906 32.410156 18.113281 C 32.378906 18.09375 32.339844 18.082031 32.300781 18.082031 C 32.265625 18.082031 32.226563 18.09375 32.195313 18.113281 C 32.160156 18.128906 32.140625 18.160156 32.128906 18.191406 C 32.101563 18.261719 32.046875 18.308594 31.976563 18.332031 C 31.96875 18.332031 31.964844 18.339844 31.964844 18.347656 L 31.964844 18.425781 L 31.914063 18.425781 L 31.914063 18.347656 C 31.914063 18.34375 31.914063 18.339844 31.910156 18.335938 C 31.90625 18.332031 31.902344 18.328125 31.894531 18.328125 L 31.816406 18.328125 C 31.757813 18.273438 31.679688 18.246094 31.601563 18.246094 C 31.542969 18.246094 31.480469 18.261719 31.429688 18.296875 C 31.40625 18.316406 31.386719 18.339844 31.371094 18.371094 C 31.347656 18.4375 31.292969 18.484375 31.226563 18.507813 C 31.21875 18.507813 31.210938 18.515625 31.210938 18.523438 L 31.210938 18.601563 L 31.164063 18.601563 L 31.164063 18.523438 C 31.164063 18.519531 31.164063 18.515625 31.160156 18.511719 C 31.15625 18.507813 31.152344 18.503906 31.144531 18.503906 L 31.066406 18.503906 C 31.054688 18.503906 31.042969 18.496094 31.035156 18.484375 C 31.011719 18.445313 30.972656 18.414063 30.921875 18.40625 C 30.914063 18.40625 30.902344 18.40625 30.890625 18.40625 C 30.84375 18.40625 30.800781 18.417969 30.761719 18.449219 C 30.757813 18.453125 30.753906 18.460938 30.757813 18.464844 C 30.757813 18.472656 30.761719 18.480469 30.765625 18.480469 C 30.796875 18.496094 30.820313 18.523438 30.828125 18.558594 C 30.832031 18.578125 30.832031 18.597656 30.832031 18.617188 C 30.832031 18.652344 30.828125 18.691406 30.816406 18.726563 C 30.808594 18.742188 30.808594 18.753906 30.808594 18.769531 C 30.808594 18.800781 30.820313 18.832031 30.839844 18.855469 C 30.867188 18.886719 30.902344 18.902344 30.941406 18.902344 C 30.949219 18.902344 30.953125 18.902344 30.960938 18.898438 C 30.972656 18.894531 30.976563 18.894531 30.980469 18.894531 C 30.984375 18.894531 30.992188 18.898438 30.996094 18.902344 C 31.003906 18.90625 31.003906 18.914063 31.003906 18.921875 C 31.003906 18.921875 31.003906 18.925781 31.003906 18.929688 C 30.953125 18.988281 30.925781 19.070313 30.925781 19.148438 C 30.925781 19.226563 30.953125 19.308594 31.007813 19.371094 C 30.996094 19.40625 30.992188 19.4375 30.992188 19.472656 C 30.992188 19.546875 31.015625 19.621094 31.054688 19.683594 C 31.066406 19.699219 31.078125 19.703125 31.09375 19.707031 C 31.097656 19.707031 31.097656 19.703125 31.097656 19.703125 C 31.796875 19.578125 32.496094 19.515625 33.199219 19.515625 C 33.902344 19.515625 34.605469 19.578125 35.296875 19.703125 C 35.300781 19.707031 35.304688 19.707031 35.304688 19.707031 C 35.320313 19.703125 35.335938 19.699219 35.34375 19.683594 C 35.386719 19.621094 35.40625 19.546875 35.40625 19.472656 C 35.40625 19.4375 35.402344 19.40625 35.394531 19.371094 C 35.449219 19.308594 35.476563 19.226563 35.476563 19.148438 C 35.476563 19.070313 35.449219 18.988281 35.394531 18.921875 C 35.394531 18.925781 35.394531 18.921875 35.394531 18.921875 C 35.394531 18.914063 35.398438 18.90625 35.40625 18.902344 C 35.410156 18.898438 35.414063 18.894531 35.421875 18.894531 C 35.425781 18.894531 35.429688 18.894531 35.433594 18.898438 C 35.445313 18.902344 35.453125 18.902344 35.460938 18.902344 C 35.496094 18.902344 35.53125 18.886719 35.558594 18.855469 C 35.582031 18.832031 35.59375 18.800781 35.59375 18.769531 C 35.59375 18.753906 35.589844 18.742188 35.585938 18.726563 C 35.574219 18.691406 35.566406 18.652344 35.566406 18.617188 C 35.566406 18.597656 35.570313 18.578125 35.574219 18.558594 C 35.582031 18.523438 35.601563 18.496094 35.632813 18.480469 C 35.640625 18.480469 35.644531 18.472656 35.644531 18.464844 C 35.644531 18.460938 35.644531 18.453125 35.636719 18.449219 C 35.601563 18.417969 35.554688 18.40625 35.507813 18.40625 "/>
<path style=" stroke:none;fill-rule:nonzero;fill:rgb(0%,0%,0%);fill-opacity:1;" d="M 33.625 26.769531 L 33.625 27.3125 L 32.773438 27.3125 L 32.773438 26.769531 Z M 33.003906 26.539063 L 33.003906 21.222656 L 33.394531 21.222656 L 33.394531 26.539063 Z M 33.488281 27.9375 L 33.488281 27.941406 C 33.417969 27.988281 33.308594 28.019531 33.199219 28.019531 C 33.089844 28.019531 32.980469 27.988281 32.914063 27.9375 C 32.859375 27.898438 32.835938 27.851563 32.835938 27.808594 C 32.835938 27.777344 32.847656 27.746094 32.875 27.710938 C 32.929688 27.648438 33.066406 27.59375 33.199219 27.59375 C 33.335938 27.59375 33.46875 27.648438 33.523438 27.710938 C 33.550781 27.746094 33.566406 27.777344 33.566406 27.808594 C 33.566406 27.851563 33.539063 27.898438 33.488281 27.9375 Z M 33.5 27.957031 Z M 34.453125 21.066406 C 34.449219 21.058594 34.445313 21.058594 34.4375 21.058594 L 31.960938 21.058594 C 31.957031 21.058594 31.953125 21.058594 31.949219 21.066406 C 31.945313 21.070313 31.941406 21.074219 31.941406 21.082031 L 32.621094 26.527344 C 32.566406 26.550781 32.527344 26.605469 32.527344 26.667969 C 32.527344 26.730469 32.566406 26.785156 32.621094 26.808594 L 32.699219 27.582031 C 32.625 27.652344 32.589844 27.730469 32.589844 27.808594 C 32.589844 27.921875 32.664063 28.03125 32.796875 28.109375 C 32.914063 28.175781 33.054688 28.207031 33.199219 28.207031 C 33.34375 28.207031 33.488281 28.175781 33.601563 28.109375 C 33.738281 28.03125 33.808594 27.921875 33.808594 27.808594 C 33.808594 27.730469 33.773438 27.648438 33.703125 27.582031 L 33.78125 26.808594 C 33.835938 26.785156 33.871094 26.730469 33.871094 26.667969 C 33.871094 26.605469 33.835938 26.550781 33.78125 26.527344 L 34.457031 21.082031 C 34.457031 21.074219 34.457031 21.070313 34.453125 21.066406 "/>
<path style=" stroke:none;fill-rule:nonzero;fill:rgb(0%,0%,0%);fill-opacity:1;" d="M 34.527344 20.820313 L 34.402344 20.820313 L 34.402344 20.761719 C 34.402344 20.753906 34.394531 20.746094 34.386719 20.742188 C 33.996094 20.660156 33.597656 20.617188 33.199219 20.617188 C 32.804688 20.617188 32.40625 20.660156 32.015625 20.742188 C 32.007813 20.746094 32 20.753906 32 20.761719 L 32 20.820313 L 31.871094 20.820313 C 31.867188 20.820313 31.863281 20.824219 31.859375 20.828125 C 31.855469 20.828125 31.851563 20.835938 31.851563 20.839844 L 31.851563 20.964844 C 31.851563 20.972656 31.855469 20.976563 31.859375 20.980469 C 31.863281 20.984375 31.867188 20.984375 31.871094 20.984375 L 34.527344 20.984375 C 34.53125 20.984375 34.539063 20.984375 34.542969 20.980469 C 34.546875 20.976563 34.546875 20.972656 34.546875 20.964844 L 34.546875 20.839844 C 34.546875 20.835938 34.546875 20.828125 34.542969 20.828125 C 34.539063 20.824219 34.53125 20.820313 34.527344 20.820313 "/>
<path style=" stroke:none;fill-rule:nonzero;fill:rgb(0%,0%,0%);fill-opacity:1;" d="M 35.023438 19.726563 C 34.417969 19.632813 33.808594 19.582031 33.199219 19.582031 C 32.589844 19.582031 31.980469 19.632813 31.378906 19.726563 C 31.367188 19.726563 31.359375 19.734375 31.359375 19.746094 C 31.367188 19.917969 31.421875 20.082031 31.519531 20.222656 C 31.523438 20.226563 31.53125 20.230469 31.539063 20.230469 C 32.082031 20.070313 32.640625 19.992188 33.199219 19.992188 C 33.757813 19.992188 34.320313 20.070313 34.859375 20.230469 C 34.863281 20.230469 34.863281 20.230469 34.867188 20.230469 C 34.871094 20.230469 34.878906 20.226563 34.882813 20.222656 C 34.980469 20.082031 35.035156 19.917969 35.039063 19.746094 C 35.039063 19.734375 35.035156 19.726563 35.023438 19.726563 "/>
<path style=" stroke:none;fill-rule:nonzero;fill:rgb(0%,0%,0%);fill-opacity:1;" d="M 34.707031 20.257813 C 34.214844 20.125 33.707031 20.058594 33.199219 20.058594 C 32.695313 20.058594 32.1875 20.125 31.695313 20.257813 C 31.683594 20.257813 31.679688 20.265625 31.679688 20.273438 C 31.679688 20.285156 31.683594 20.292969 31.691406 20.292969 C 31.855469 20.34375 31.976563 20.488281 31.996094 20.65625 C 32 20.664063 32.003906 20.667969 32.007813 20.671875 C 32.011719 20.675781 32.015625 20.675781 32.023438 20.675781 C 32.410156 20.59375 32.804688 20.550781 33.199219 20.550781 C 33.59375 20.550781 33.988281 20.59375 34.378906 20.675781 C 34.378906 20.675781 34.382813 20.675781 34.382813 20.675781 C 34.386719 20.675781 34.390625 20.671875 34.394531 20.671875 C 34.398438 20.667969 34.402344 20.664063 34.402344 20.65625 C 34.425781 20.488281 34.542969 20.34375 34.707031 20.292969 C 34.71875 20.292969 34.722656 20.285156 34.722656 20.273438 C 34.722656 20.265625 34.714844 20.257813 34.707031 20.257813 "/>
<path style=" stroke:none;fill-rule:nonzero;fill:rgb(85.099792%,12.5%,15.299988%);fill-opacity:1;" d="M 32.84375 14.890625 C 32.683594 14.28125 32.339844 13.734375 31.863281 13.328125 C 31.964844 13.625 32.015625 13.933594 32.015625 14.246094 C 32.015625 14.632813 31.933594 15.023438 31.78125 15.386719 C 31.675781 15.628906 31.554688 15.859375 31.410156 16.078125 C 31.308594 16.234375 31.257813 16.417969 31.257813 16.601563 C 31.257813 16.699219 31.273438 16.792969 31.300781 16.886719 C 31.382813 17.152344 31.625 17.328125 31.898438 17.328125 C 31.921875 17.328125 31.949219 17.328125 31.972656 17.324219 C 32.304688 17.285156 32.585938 17.070313 32.714844 16.765625 C 32.863281 16.402344 32.9375 16.019531 32.9375 15.632813 C 32.9375 15.382813 32.90625 15.132813 32.84375 14.890625 "/>
<path style=" stroke:none;fill-rule:nonzero;fill:rgb(85.099792%,12.5%,15.299988%);fill-opacity:1;" d="M 35.324219 17.3125 C 35.601563 16.921875 35.746094 16.457031 35.746094 15.988281 C 35.746094 15.757813 35.710938 15.527344 35.640625 15.300781 C 35.179688 13.867188 34.332031 12.59375 33.179688 11.628906 C 33.398438 12.34375 33.617188 13.050781 33.835938 13.761719 C 33.917969 14.039063 33.964844 14.328125 33.964844 14.617188 C 33.964844 14.867188 33.929688 15.117188 33.863281 15.359375 C 33.785156 15.65625 33.703125 15.953125 33.609375 16.25 C 33.578125 16.359375 33.5625 16.472656 33.5625 16.582031 C 33.5625 16.972656 33.761719 17.347656 34.109375 17.558594 C 34.257813 17.648438 34.421875 17.691406 34.582031 17.691406 C 34.867188 17.691406 35.148438 17.558594 35.324219 17.3125 "/>
<path style=" stroke:none;fill-rule:nonzero;fill:rgb(100%,100%,100%);fill-opacity:1;" d="M 35.363281 19.210938 C 35.367188 19.214844 35.367188 19.21875 35.367188 19.226563 L 35.34375 19.363281 C 35.34375 19.367188 35.339844 19.375 35.335938 19.375 C 35.332031 19.378906 35.328125 19.378906 35.324219 19.378906 C 35.324219 19.378906 35.324219 19.378906 35.320313 19.378906 C 35.148438 19.347656 34.972656 19.324219 34.800781 19.300781 C 34.792969 19.296875 34.789063 19.296875 34.785156 19.292969 C 34.785156 19.285156 34.78125 19.28125 34.78125 19.277344 L 34.804688 19.136719 C 34.804688 19.132813 34.808594 19.128906 34.8125 19.125 C 34.816406 19.121094 34.824219 19.121094 34.828125 19.121094 L 34.957031 19.140625 L 34.976563 19.027344 C 34.976563 19.015625 34.988281 19.007813 35 19.011719 L 35.222656 19.046875 C 35.230469 19.046875 35.238281 19.058594 35.238281 19.070313 L 35.222656 19.183594 L 35.351563 19.203125 C 35.355469 19.203125 35.359375 19.207031 35.363281 19.210938 Z M 34.734375 18.964844 C 34.730469 18.960938 34.726563 18.953125 34.726563 18.949219 L 34.726563 18.894531 L 34.664063 18.894531 C 34.660156 18.894531 34.65625 18.894531 34.652344 18.890625 C 34.648438 18.886719 34.644531 18.882813 34.644531 18.875 L 34.644531 18.847656 L 34.628906 18.847656 C 34.621094 18.847656 34.617188 18.84375 34.613281 18.839844 C 34.609375 18.835938 34.609375 18.832031 34.609375 18.828125 L 34.609375 18.792969 C 34.558594 18.769531 34.527344 18.71875 34.527344 18.664063 C 34.527344 18.609375 34.558594 18.558594 34.609375 18.535156 L 34.609375 18.503906 C 34.609375 18.496094 34.609375 18.492188 34.613281 18.488281 C 34.617188 18.484375 34.621094 18.484375 34.628906 18.484375 L 34.644531 18.484375 L 34.644531 18.453125 C 34.644531 18.449219 34.648438 18.441406 34.652344 18.4375 C 34.65625 18.433594 34.660156 18.433594 34.664063 18.433594 L 34.726563 18.433594 L 34.726563 18.378906 C 34.726563 18.375 34.730469 18.371094 34.734375 18.367188 C 34.734375 18.363281 34.742188 18.359375 34.746094 18.359375 L 34.875 18.359375 C 34.878906 18.359375 34.882813 18.363281 34.886719 18.367188 C 34.890625 18.371094 34.894531 18.375 34.894531 18.378906 L 34.894531 18.433594 L 34.953125 18.433594 C 34.960938 18.433594 34.964844 18.433594 34.96875 18.4375 C 34.972656 18.441406 34.972656 18.449219 34.972656 18.453125 L 34.972656 18.484375 L 34.992188 18.484375 C 34.996094 18.484375 35.003906 18.484375 35.007813 18.488281 C 35.011719 18.492188 35.011719 18.496094 35.011719 18.503906 L 35.011719 18.535156 C 35.058594 18.558594 35.09375 18.609375 35.09375 18.664063 C 35.09375 18.71875 35.058594 18.769531 35.011719 18.792969 L 35.011719 18.828125 C 35.011719 18.832031 35.011719 18.835938 35.007813 18.839844 C 35.003906 18.84375 34.996094 18.847656 34.992188 18.847656 L 34.972656 18.847656 L 34.972656 18.875 C 34.972656 18.882813 34.972656 18.886719 34.96875 18.890625 C 34.964844 18.894531 34.960938 18.894531 34.953125 18.894531 L 34.894531 18.894531 L 34.894531 18.949219 C 34.894531 18.953125 34.890625 18.960938 34.886719 18.964844 C 34.882813 18.96875 34.878906 18.96875 34.875 18.96875 L 34.746094 18.96875 C 34.742188 18.96875 34.734375 18.96875 34.734375 18.964844 Z M 34.609375 19.253906 C 34.609375 19.257813 34.605469 19.261719 34.601563 19.265625 C 34.597656 19.269531 34.59375 19.269531 34.589844 19.269531 C 34.410156 19.253906 34.238281 19.234375 34.0625 19.222656 C 34.058594 19.222656 34.050781 19.21875 34.050781 19.214844 C 34.046875 19.210938 34.042969 19.207031 34.042969 19.203125 L 34.054688 19.0625 C 34.054688 19.058594 34.058594 19.050781 34.0625 19.050781 C 34.066406 19.046875 34.070313 19.042969 34.078125 19.042969 L 34.210938 19.058594 L 34.21875 18.945313 C 34.222656 18.933594 34.230469 18.925781 34.242188 18.925781 L 34.46875 18.949219 C 34.472656 18.949219 34.476563 18.949219 34.480469 18.953125 C 34.484375 18.957031 34.484375 18.964844 34.484375 18.96875 L 34.472656 19.082031 L 34.605469 19.097656 C 34.613281 19.097656 34.617188 19.097656 34.621094 19.101563 C 34.625 19.105469 34.625 19.113281 34.625 19.117188 Z M 34.019531 18.800781 C 34.019531 18.796875 34.015625 18.789063 34.015625 18.785156 L 34.015625 18.730469 L 33.953125 18.730469 C 33.949219 18.730469 33.945313 18.730469 33.941406 18.726563 C 33.9375 18.722656 33.933594 18.71875 33.933594 18.710938 L 33.933594 18.683594 L 33.917969 18.683594 C 33.910156 18.683594 33.90625 18.679688 33.902344 18.675781 C 33.898438 18.671875 33.898438 18.667969 33.898438 18.664063 L 33.898438 18.628906 C 33.847656 18.605469 33.816406 18.554688 33.816406 18.5 C 33.816406 18.445313 33.847656 18.398438 33.898438 18.371094 L 33.898438 18.339844 C 33.898438 18.332031 33.898438 18.328125 33.902344 18.324219 C 33.90625 18.320313 33.910156 18.320313 33.917969 18.320313 L 33.933594 18.320313 L 33.933594 18.289063 C 33.933594 18.285156 33.9375 18.277344 33.941406 18.277344 C 33.945313 18.273438 33.949219 18.269531 33.953125 18.269531 L 34.015625 18.269531 L 34.015625 18.214844 C 34.015625 18.210938 34.019531 18.207031 34.019531 18.203125 C 34.023438 18.199219 34.03125 18.195313 34.035156 18.195313 L 34.160156 18.195313 C 34.167969 18.195313 34.171875 18.199219 34.175781 18.203125 C 34.179688 18.207031 34.179688 18.210938 34.179688 18.214844 L 34.179688 18.269531 L 34.242188 18.269531 C 34.246094 18.269531 34.253906 18.273438 34.257813 18.277344 C 34.261719 18.277344 34.261719 18.285156 34.261719 18.289063 L 34.261719 18.320313 L 34.28125 18.320313 C 34.285156 18.320313 34.289063 18.320313 34.292969 18.324219 C 34.296875 18.328125 34.300781 18.332031 34.300781 18.339844 L 34.300781 18.371094 C 34.347656 18.398438 34.378906 18.445313 34.378906 18.5 C 34.378906 18.554688 34.347656 18.605469 34.300781 18.628906 L 34.300781 18.664063 C 34.300781 18.667969 34.296875 18.671875 34.292969 18.675781 C 34.289063 18.679688 34.285156 18.683594 34.28125 18.683594 L 34.261719 18.683594 L 34.261719 18.710938 C 34.261719 18.71875 34.261719 18.722656 34.257813 18.726563 C 34.253906 18.730469 34.246094 18.730469 34.242188 18.730469 L 34.179688 18.730469 L 34.179688 18.785156 C 34.179688 18.789063 34.179688 18.796875 34.175781 18.800781 C 34.171875 18.804688 34.167969 18.804688 34.160156 18.804688 L 34.035156 18.804688 C 34.03125 18.804688 34.023438 18.804688 34.019531 18.800781 Z M 33.871094 19.191406 C 33.871094 19.195313 33.867188 19.199219 33.863281 19.203125 C 33.859375 19.207031 33.855469 19.210938 33.851563 19.210938 C 33.675781 19.203125 33.496094 19.199219 33.324219 19.195313 C 33.316406 19.195313 33.3125 19.195313 33.308594 19.191406 C 33.304688 19.1875 33.300781 19.179688 33.300781 19.175781 L 33.304688 19.035156 C 33.304688 19.027344 33.316406 19.015625 33.328125 19.015625 L 33.457031 19.019531 L 33.460938 18.90625 C 33.460938 18.894531 33.46875 18.886719 33.480469 18.886719 L 33.707031 18.890625 C 33.710938 18.890625 33.71875 18.894531 33.71875 18.898438 C 33.722656 18.902344 33.726563 18.90625 33.726563 18.910156 L 33.722656 19.027344 L 33.855469 19.03125 C 33.863281 19.03125 33.867188 19.035156 33.871094 19.039063 C 33.875 19.042969 33.875 19.046875 33.875 19.050781 Z M 33.28125 18.785156 C 33.28125 18.789063 33.28125 18.796875 33.277344 18.800781 C 33.273438 18.804688 33.269531 18.804688 33.265625 18.804688 L 33.136719 18.804688 C 33.132813 18.804688 33.128906 18.804688 33.121094 18.800781 C 33.121094 18.796875 33.117188 18.789063 33.117188 18.785156 L 33.117188 18.730469 L 33.054688 18.730469 C 33.050781 18.730469 33.046875 18.730469 33.042969 18.726563 C 33.039063 18.722656 33.035156 18.71875 33.035156 18.710938 L 33.035156 18.683594 L 33.019531 18.683594 C 33.011719 18.683594 33.007813 18.679688 33.003906 18.675781 C 33 18.671875 33 18.667969 33 18.664063 L 33 18.628906 C 32.949219 18.605469 32.917969 18.554688 32.917969 18.5 C 32.917969 18.445313 32.949219 18.398438 33 18.371094 L 33 18.339844 C 33 18.332031 33 18.328125 33.003906 18.324219 C 33.007813 18.320313 33.011719 18.320313 33.019531 18.320313 L 33.035156 18.320313 L 33.035156 18.289063 C 33.035156 18.285156 33.039063 18.277344 33.042969 18.277344 C 33.046875 18.273438 33.050781 18.269531 33.054688 18.269531 L 33.117188 18.269531 L 33.117188 18.214844 C 33.117188 18.210938 33.117188 18.207031 33.121094 18.203125 C 33.128906 18.199219 33.132813 18.195313 33.136719 18.195313 L 33.265625 18.195313 C 33.269531 18.195313 33.273438 18.199219 33.277344 18.203125 C 33.28125 18.207031 33.28125 18.210938 33.28125 18.214844 L 33.28125 18.269531 L 33.34375 18.269531 C 33.351563 18.269531 33.355469 18.273438 33.359375 18.277344 C 33.363281 18.277344 33.363281 18.285156 33.363281 18.289063 L 33.363281 18.320313 L 33.382813 18.320313 C 33.386719 18.320313 33.394531 18.320313 33.394531 18.324219 C 33.398438 18.328125 33.402344 18.332031 33.402344 18.339844 L 33.402344 18.371094 C 33.449219 18.398438 33.480469 18.445313 33.480469 18.5 C 33.480469 18.554688 33.449219 18.605469 33.402344 18.628906 L 33.402344 18.664063 C 33.402344 18.667969 33.398438 18.671875 33.394531 18.675781 C 33.390625 18.679688 33.386719 18.683594 33.382813 18.683594 L 33.363281 18.683594 L 33.363281 18.710938 C 33.363281 18.71875 33.363281 18.722656 33.359375 18.726563 C 33.355469 18.730469 33.351563 18.730469 33.34375 18.730469 L 33.28125 18.730469 Z M 33.09375 19.191406 C 33.089844 19.195313 33.085938 19.195313 33.078125 19.195313 C 32.902344 19.199219 32.726563 19.203125 32.550781 19.210938 C 32.542969 19.210938 32.539063 19.207031 32.535156 19.203125 C 32.53125 19.199219 32.53125 19.195313 32.53125 19.191406 L 32.523438 19.050781 C 32.523438 19.046875 32.527344 19.042969 32.53125 19.039063 C 32.535156 19.035156 32.539063 19.03125 32.542969 19.03125 L 32.675781 19.027344 L 32.675781 18.910156 C 32.675781 18.90625 32.675781 18.902344 32.679688 18.898438 C 32.683594 18.894531 32.6875 18.890625 32.695313 18.890625 L 32.917969 18.886719 C 32.929688 18.886719 32.9375 18.894531 32.941406 18.90625 L 32.941406 19.019531 L 33.074219 19.015625 C 33.085938 19.015625 33.09375 19.027344 33.09375 19.035156 L 33.097656 19.175781 C 33.097656 19.179688 33.097656 19.1875 33.09375 19.191406 Z M 32.503906 18.664063 C 32.503906 18.667969 32.5 18.671875 32.496094 18.675781 C 32.492188 18.679688 32.488281 18.683594 32.484375 18.683594 L 32.464844 18.683594 L 32.464844 18.710938 C 32.464844 18.71875 32.464844 18.722656 32.460938 18.726563 C 32.457031 18.730469 32.453125 18.730469 32.445313 18.730469 L 32.386719 18.730469 L 32.386719 18.785156 C 32.386719 18.789063 32.382813 18.796875 32.378906 18.800781 C 32.375 18.804688 32.371094 18.804688 32.363281 18.804688 L 32.238281 18.804688 C 32.234375 18.804688 32.226563 18.804688 32.226563 18.800781 C 32.222656 18.796875 32.21875 18.789063 32.21875 18.785156 L 32.21875 18.730469 L 32.15625 18.730469 C 32.152344 18.730469 32.148438 18.730469 32.144531 18.726563 C 32.140625 18.722656 32.136719 18.71875 32.136719 18.710938 L 32.136719 18.683594 L 32.121094 18.683594 C 32.113281 18.683594 32.109375 18.679688 32.105469 18.675781 C 32.101563 18.671875 32.101563 18.667969 32.101563 18.664063 L 32.101563 18.628906 C 32.050781 18.605469 32.019531 18.554688 32.019531 18.5 C 32.019531 18.445313 32.050781 18.398438 32.101563 18.371094 L 32.101563 18.339844 C 32.101563 18.332031 32.101563 18.328125 32.105469 18.324219 C 32.109375 18.320313 32.113281 18.320313 32.121094 18.320313 L 32.136719 18.320313 L 32.136719 18.289063 C 32.136719 18.285156 32.140625 18.277344 32.144531 18.277344 C 32.148438 18.273438 32.152344 18.269531 32.15625 18.269531 L 32.21875 18.269531 L 32.21875 18.214844 C 32.21875 18.210938 32.222656 18.207031 32.226563 18.203125 C 32.226563 18.199219 32.234375 18.195313 32.238281 18.195313 L 32.363281 18.195313 C 32.371094 18.195313 32.375 18.199219 32.378906 18.203125 C 32.382813 18.207031 32.386719 18.210938 32.386719 18.214844 L 32.386719 18.269531 L 32.445313 18.269531 C 32.453125 18.269531 32.457031 18.273438 32.460938 18.277344 C 32.464844 18.277344 32.464844 18.285156 32.464844 18.289063 L 32.464844 18.320313 L 32.484375 18.320313 C 32.488281 18.320313 32.492188 18.320313 32.496094 18.324219 C 32.5 18.328125 32.503906 18.332031 32.503906 18.339844 L 32.503906 18.371094 C 32.550781 18.398438 32.585938 18.445313 32.585938 18.5 C 32.585938 18.554688 32.550781 18.605469 32.503906 18.628906 Z M 32.351563 19.214844 C 32.347656 19.21875 32.34375 19.222656 32.339844 19.222656 C 32.160156 19.234375 31.988281 19.253906 31.8125 19.269531 C 31.8125 19.269531 31.808594 19.269531 31.808594 19.269531 C 31.804688 19.269531 31.800781 19.269531 31.796875 19.265625 C 31.792969 19.261719 31.789063 19.257813 31.789063 19.253906 L 31.777344 19.117188 C 31.777344 19.113281 31.777344 19.105469 31.78125 19.101563 C 31.785156 19.097656 31.789063 19.097656 31.792969 19.097656 L 31.925781 19.082031 L 31.914063 18.96875 C 31.914063 18.957031 31.921875 18.949219 31.933594 18.949219 L 32.15625 18.925781 C 32.167969 18.925781 32.179688 18.933594 32.179688 18.945313 L 32.191406 19.058594 L 32.324219 19.042969 C 32.328125 19.042969 32.335938 19.046875 32.339844 19.050781 C 32.34375 19.050781 32.34375 19.058594 32.34375 19.0625 L 32.355469 19.203125 C 32.355469 19.207031 32.355469 19.210938 32.351563 19.214844 Z M 31.753906 18.847656 L 31.753906 18.875 C 31.753906 18.882813 31.753906 18.886719 31.75 18.890625 C 31.746094 18.894531 31.738281 18.894531 31.734375 18.894531 L 31.671875 18.894531 L 31.671875 18.949219 C 31.671875 18.953125 31.671875 18.960938 31.667969 18.964844 C 31.664063 18.96875 31.660156 18.96875 31.652344 18.96875 L 31.527344 18.96875 C 31.523438 18.96875 31.515625 18.96875 31.515625 18.964844 C 31.511719 18.960938 31.507813 18.953125 31.507813 18.949219 L 31.507813 18.894531 L 31.445313 18.894531 C 31.441406 18.894531 31.4375 18.894531 31.433594 18.890625 C 31.429688 18.886719 31.425781 18.882813 31.425781 18.875 L 31.425781 18.847656 L 31.410156 18.847656 C 31.402344 18.847656 31.398438 18.84375 31.394531 18.839844 C 31.390625 18.835938 31.390625 18.832031 31.390625 18.828125 L 31.390625 18.792969 C 31.339844 18.769531 31.308594 18.71875 31.308594 18.664063 C 31.308594 18.609375 31.339844 18.558594 31.390625 18.535156 L 31.390625 18.503906 C 31.390625 18.496094 31.390625 18.492188 31.394531 18.488281 C 31.398438 18.484375 31.402344 18.484375 31.410156 18.484375 L 31.425781 18.484375 L 31.425781 18.453125 C 31.425781 18.449219 31.429688 18.441406 31.433594 18.4375 C 31.4375 18.433594 31.441406 18.433594 31.445313 18.433594 L 31.507813 18.433594 L 31.507813 18.378906 C 31.507813 18.375 31.511719 18.371094 31.515625 18.367188 C 31.515625 18.363281 31.523438 18.359375 31.527344 18.359375 L 31.652344 18.359375 C 31.660156 18.359375 31.664063 18.363281 31.667969 18.367188 C 31.671875 18.371094 31.671875 18.375 31.671875 18.378906 L 31.671875 18.433594 L 31.734375 18.433594 C 31.738281 18.433594 31.746094 18.433594 31.75 18.4375 C 31.753906 18.441406 31.753906 18.449219 31.753906 18.453125 L 31.753906 18.484375 L 31.773438 18.484375 C 31.777344 18.484375 31.78125 18.484375 31.785156 18.488281 C 31.789063 18.492188 31.792969 18.496094 31.792969 18.503906 L 31.792969 18.535156 C 31.839844 18.558594 31.871094 18.609375 31.871094 18.664063 C 31.871094 18.71875 31.839844 18.769531 31.792969 18.792969 L 31.792969 18.828125 C 31.792969 18.832031 31.789063 18.835938 31.785156 18.839844 C 31.78125 18.84375 31.777344 18.847656 31.773438 18.847656 Z M 31.613281 19.292969 C 31.609375 19.296875 31.605469 19.296875 31.601563 19.300781 C 31.425781 19.324219 31.25 19.347656 31.078125 19.378906 C 31.078125 19.378906 31.078125 19.378906 31.074219 19.378906 C 31.070313 19.378906 31.066406 19.378906 31.0625 19.375 C 31.058594 19.375 31.054688 19.367188 31.054688 19.363281 L 31.03125 19.226563 C 31.03125 19.21875 31.035156 19.214844 31.035156 19.210938 C 31.039063 19.207031 31.042969 19.203125 31.050781 19.203125 L 31.179688 19.183594 L 31.164063 19.070313 C 31.160156 19.058594 31.167969 19.046875 31.179688 19.046875 L 31.402344 19.011719 C 31.410156 19.007813 31.421875 19.015625 31.421875 19.027344 L 31.445313 19.140625 L 31.574219 19.121094 C 31.578125 19.121094 31.582031 19.121094 31.589844 19.125 C 31.59375 19.128906 31.59375 19.132813 31.59375 19.136719 L 31.617188 19.277344 C 31.617188 19.28125 31.617188 19.285156 31.613281 19.292969 Z M 35.484375 18.445313 C 35.445313 18.453125 35.414063 18.472656 35.398438 18.507813 C 35.386719 18.527344 35.363281 18.542969 35.335938 18.542969 L 35.273438 18.542969 L 35.273438 18.621094 C 35.273438 18.625 35.273438 18.632813 35.269531 18.636719 C 35.265625 18.640625 35.261719 18.640625 35.253906 18.640625 L 35.167969 18.640625 C 35.164063 18.640625 35.15625 18.640625 35.15625 18.636719 C 35.152344 18.632813 35.148438 18.625 35.148438 18.621094 L 35.148438 18.539063 C 35.078125 18.515625 35.019531 18.457031 34.992188 18.386719 C 34.984375 18.363281 34.964844 18.347656 34.949219 18.332031 C 34.902344 18.300781 34.851563 18.285156 34.796875 18.285156 C 34.726563 18.285156 34.660156 18.3125 34.605469 18.363281 L 34.59375 18.367188 L 34.523438 18.367188 L 34.523438 18.445313 C 34.523438 18.449219 34.523438 18.457031 34.519531 18.460938 C 34.515625 18.464844 34.511719 18.464844 34.503906 18.464844 L 34.417969 18.464844 C 34.410156 18.464844 34.40625 18.464844 34.402344 18.460938 C 34.398438 18.457031 34.398438 18.449219 34.398438 18.445313 L 34.398438 18.363281 C 34.324219 18.335938 34.265625 18.28125 34.234375 18.207031 C 34.226563 18.179688 34.210938 18.160156 34.1875 18.144531 C 34.160156 18.128906 34.128906 18.121094 34.097656 18.121094 C 34.066406 18.121094 34.035156 18.128906 34.007813 18.144531 C 33.984375 18.160156 33.96875 18.179688 33.957031 18.207031 C 33.929688 18.285156 33.867188 18.34375 33.78125 18.367188 L 33.710938 18.367188 L 33.710938 18.445313 C 33.710938 18.449219 33.707031 18.457031 33.707031 18.460938 C 33.703125 18.464844 33.695313 18.464844 33.691406 18.464844 L 33.605469 18.464844 C 33.597656 18.464844 33.59375 18.464844 33.589844 18.460938 C 33.585938 18.457031 33.585938 18.449219 33.585938 18.445313 L 33.585938 18.367188 L 33.507813 18.367188 C 33.425781 18.34375 33.363281 18.285156 33.332031 18.207031 C 33.324219 18.179688 33.308594 18.160156 33.285156 18.144531 C 33.257813 18.132813 33.226563 18.121094 33.199219 18.121094 C 33.171875 18.121094 33.144531 18.132813 33.117188 18.144531 C 33.09375 18.160156 33.078125 18.179688 33.066406 18.207031 C 33.039063 18.285156 32.972656 18.34375 32.886719 18.367188 L 32.816406 18.367188 L 32.816406 18.445313 C 32.816406 18.449219 32.816406 18.457031 32.808594 18.460938 C 32.804688 18.464844 32.800781 18.464844 32.796875 18.464844 L 32.710938 18.464844 C 32.703125 18.464844 32.699219 18.464844 32.695313 18.460938 C 32.691406 18.457031 32.691406 18.449219 32.691406 18.445313 L 32.691406 18.367188 L 32.613281 18.367188 C 32.535156 18.34375 32.46875 18.285156 32.445313 18.207031 C 32.433594 18.179688 32.414063 18.160156 32.390625 18.144531 C 32.363281 18.128906 32.332031 18.121094 32.300781 18.121094 C 32.273438 18.121094 32.242188 18.128906 32.214844 18.144531 C 32.191406 18.160156 32.175781 18.179688 32.164063 18.207031 C 32.136719 18.28125 32.078125 18.335938 32.003906 18.363281 L 32.003906 18.445313 C 32.003906 18.449219 32.003906 18.457031 32 18.460938 C 31.996094 18.464844 31.988281 18.464844 31.984375 18.464844 L 31.894531 18.464844 C 31.890625 18.464844 31.886719 18.464844 31.882813 18.460938 C 31.878906 18.457031 31.875 18.449219 31.875 18.445313 L 31.875 18.367188 L 31.808594 18.367188 L 31.792969 18.363281 C 31.742188 18.3125 31.671875 18.285156 31.601563 18.285156 C 31.550781 18.285156 31.496094 18.300781 31.453125 18.328125 C 31.433594 18.347656 31.417969 18.363281 31.410156 18.386719 C 31.382813 18.457031 31.324219 18.515625 31.253906 18.539063 L 31.253906 18.621094 C 31.253906 18.625 31.25 18.632813 31.246094 18.636719 C 31.242188 18.640625 31.238281 18.640625 31.230469 18.640625 L 31.144531 18.640625 C 31.140625 18.640625 31.136719 18.640625 31.132813 18.636719 C 31.128906 18.632813 31.125 18.625 31.125 18.621094 L 31.125 18.542969 L 31.066406 18.542969 C 31.035156 18.542969 31.015625 18.527344 31 18.503906 C 30.984375 18.472656 30.953125 18.453125 30.917969 18.445313 C 30.910156 18.445313 30.902344 18.445313 30.890625 18.445313 C 30.863281 18.445313 30.835938 18.453125 30.8125 18.464844 C 30.839844 18.484375 30.859375 18.515625 30.867188 18.550781 C 30.871094 18.574219 30.875 18.59375 30.875 18.617188 C 30.875 18.660156 30.867188 18.699219 30.851563 18.738281 C 30.847656 18.75 30.847656 18.761719 30.847656 18.769531 C 30.847656 18.792969 30.855469 18.8125 30.871094 18.828125 C 30.890625 18.851563 30.914063 18.859375 30.941406 18.859375 C 30.945313 18.859375 30.949219 18.859375 30.949219 18.863281 C 30.960938 18.855469 30.96875 18.855469 30.980469 18.855469 C 30.996094 18.855469 31.011719 18.859375 31.023438 18.871094 C 31.035156 18.886719 31.042969 18.902344 31.042969 18.921875 C 31.042969 18.929688 31.042969 18.933594 31.039063 18.949219 C 30.988281 19.007813 30.964844 19.078125 30.964844 19.148438 C 30.964844 19.222656 30.992188 19.296875 31.042969 19.351563 L 31.046875 19.371094 C 31.039063 19.40625 31.03125 19.4375 31.03125 19.472656 C 31.03125 19.539063 31.050781 19.605469 31.089844 19.660156 C 31.089844 19.664063 31.09375 19.664063 31.09375 19.664063 C 31.792969 19.539063 32.496094 19.476563 33.199219 19.476563 C 33.90625 19.476563 34.609375 19.539063 35.304688 19.664063 C 35.304688 19.664063 35.3125 19.664063 35.3125 19.664063 C 35.347656 19.605469 35.367188 19.539063 35.367188 19.472656 C 35.367188 19.4375 35.363281 19.40625 35.351563 19.371094 L 35.355469 19.351563 C 35.410156 19.296875 35.433594 19.222656 35.433594 19.148438 C 35.433594 19.078125 35.410156 19.007813 35.359375 18.945313 C 35.355469 18.9375 35.355469 18.929688 35.355469 18.921875 C 35.355469 18.902344 35.363281 18.886719 35.378906 18.871094 C 35.390625 18.859375 35.40625 18.855469 35.421875 18.855469 C 35.429688 18.855469 35.441406 18.855469 35.445313 18.859375 C 35.449219 18.859375 35.453125 18.859375 35.460938 18.859375 C 35.484375 18.859375 35.511719 18.851563 35.53125 18.828125 C 35.546875 18.8125 35.550781 18.792969 35.550781 18.769531 C 35.550781 18.761719 35.550781 18.75 35.546875 18.738281 C 35.535156 18.699219 35.527344 18.660156 35.527344 18.617188 C 35.527344 18.59375 35.527344 18.570313 35.535156 18.550781 C 35.542969 18.515625 35.5625 18.484375 35.589844 18.464844 C 35.5625 18.453125 35.535156 18.445313 35.507813 18.445313 C 35.5 18.445313 35.492188 18.445313 35.484375 18.445313 "/>
<path style=" stroke:none;fill-rule:nonzero;fill:rgb(100%,100%,100%);fill-opacity:1;" d="M 32.734375 26.75 C 32.734375 26.742188 32.738281 26.738281 32.742188 26.734375 C 32.742188 26.730469 32.75 26.726563 32.753906 26.726563 L 33.644531 26.726563 C 33.652344 26.726563 33.65625 26.730469 33.660156 26.734375 C 33.664063 26.738281 33.664063 26.742188 33.664063 26.75 L 33.664063 27.332031 C 33.664063 27.339844 33.664063 27.34375 33.660156 27.347656 C 33.65625 27.351563 33.652344 27.351563 33.644531 27.351563 L 32.753906 27.351563 C 32.75 27.351563 32.742188 27.351563 32.742188 27.347656 C 32.738281 27.34375 32.734375 27.339844 32.734375 27.332031 Z M 32.964844 21.203125 C 32.964844 21.195313 32.96875 21.191406 32.96875 21.1875 C 32.972656 21.183594 32.980469 21.179688 32.984375 21.179688 L 33.414063 21.179688 C 33.421875 21.179688 33.425781 21.183594 33.429688 21.1875 C 33.433594 21.191406 33.4375 21.195313 33.4375 21.203125 L 33.4375 26.558594 C 33.4375 26.566406 33.433594 26.570313 33.429688 26.574219 C 33.425781 26.578125 33.421875 26.582031 33.414063 26.582031 L 32.984375 26.582031 C 32.980469 26.582031 32.972656 26.578125 32.96875 26.574219 C 32.96875 26.570313 32.964844 26.566406 32.964844 26.558594 Z M 33.511719 27.972656 C 33.433594 28.027344 33.316406 28.058594 33.199219 28.058594 C 33.082031 28.058594 32.96875 28.027344 32.890625 27.96875 C 32.828125 27.925781 32.796875 27.867188 32.796875 27.808594 C 32.796875 27.765625 32.8125 27.722656 32.847656 27.6875 C 32.914063 27.609375 33.054688 27.554688 33.199219 27.554688 C 33.34375 27.554688 33.484375 27.609375 33.554688 27.6875 C 33.585938 27.722656 33.605469 27.765625 33.605469 27.808594 C 33.605469 27.867188 33.570313 27.925781 33.511719 27.972656 M 32.664063 26.539063 C 32.664063 26.546875 32.65625 26.558594 32.648438 26.558594 C 32.601563 26.574219 32.570313 26.617188 32.570313 26.667969 C 32.570313 26.71875 32.601563 26.761719 32.644531 26.777344 C 32.652344 26.78125 32.660156 26.785156 32.660156 26.792969 L 32.738281 27.589844 L 32.730469 27.605469 C 32.660156 27.667969 32.628906 27.738281 32.628906 27.808594 C 32.628906 27.90625 32.691406 28 32.816406 28.074219 C 32.925781 28.136719 33.0625 28.167969 33.199219 28.164063 C 33.339844 28.167969 33.476563 28.136719 33.582031 28.074219 C 33.707031 28 33.769531 27.90625 33.769531 27.808594 C 33.769531 27.738281 33.738281 27.667969 33.667969 27.605469 L 33.664063 27.589844 L 33.742188 26.792969 C 33.742188 26.785156 33.746094 26.78125 33.753906 26.777344 C 33.800781 26.761719 33.832031 26.71875 33.832031 26.667969 C 33.832031 26.617188 33.800781 26.574219 33.75 26.558594 C 33.742188 26.558594 33.738281 26.546875 33.738281 26.539063 L 34.414063 21.097656 L 31.984375 21.097656 L 32.664063 26.539063 "/>
<path style=" stroke:none;fill-rule:nonzero;fill:rgb(100%,100%,100%);fill-opacity:1;" d="M 34.359375 20.839844 L 34.359375 20.78125 C 33.980469 20.699219 33.589844 20.660156 33.199219 20.660156 C 32.8125 20.660156 32.421875 20.699219 32.039063 20.78125 L 32.039063 20.839844 C 32.039063 20.84375 32.035156 20.851563 32.03125 20.855469 C 32.03125 20.859375 32.023438 20.859375 32.019531 20.859375 L 31.894531 20.859375 L 31.894531 20.945313 L 34.507813 20.945313 L 34.507813 20.859375 L 34.382813 20.859375 C 34.375 20.859375 34.371094 20.859375 34.367188 20.855469 C 34.363281 20.851563 34.359375 20.84375 34.359375 20.839844 "/>
<path style=" stroke:none;fill-rule:nonzero;fill:rgb(100%,100%,100%);fill-opacity:1;" d="M 31.542969 20.1875 C 32.085938 20.03125 32.644531 19.953125 33.199219 19.953125 C 33.757813 19.953125 34.316406 20.03125 34.859375 20.1875 C 34.941406 20.058594 34.992188 19.914063 35 19.761719 C 34.402344 19.667969 33.800781 19.625 33.199219 19.625 C 32.597656 19.625 31.996094 19.667969 31.402344 19.761719 C 31.410156 19.914063 31.457031 20.058594 31.542969 20.1875 "/>
<path style=" stroke:none;fill-rule:nonzero;fill:rgb(100%,100%,100%);fill-opacity:1;" d="M 31.761719 20.277344 C 31.90625 20.34375 32.007813 20.476563 32.035156 20.632813 C 32.417969 20.550781 32.808594 20.511719 33.199219 20.511719 C 33.589844 20.511719 33.980469 20.550781 34.367188 20.632813 C 34.394531 20.476563 34.496094 20.34375 34.636719 20.277344 C 34.164063 20.15625 33.683594 20.097656 33.199219 20.097656 C 32.71875 20.097656 32.234375 20.15625 31.761719 20.277344 "/>
</g>
</svg>
