<?xml version="1.0" encoding="UTF-8" standalone="no"?>
<!-- Created with Inkscape (http://www.inkscape.org/) -->

<svg
   version="1.1"
   id="svg50"
   xml:space="preserve"
   width="279.836"
   height="328.88132"
   viewBox="0 0 279.836 328.88132"
   sodipodi:docname="Al_Rayyan_SC_Logo.svg"
   inkscape:version="1.1.2 (b8e25be833, 2022-02-05)"
   xmlns:inkscape="http://www.inkscape.org/namespaces/inkscape"
   xmlns:sodipodi="http://sodipodi.sourceforge.net/DTD/sodipodi-0.dtd"
   xmlns="http://www.w3.org/2000/svg"
   xmlns:svg="http://www.w3.org/2000/svg"><defs
     id="defs54"><clipPath
       clipPathUnits="userSpaceOnUse"
       id="clipPath64"><path
         d="M 0,311.811 H 311.811 V 0 H 0 Z"
         id="path62" /></clipPath></defs><sodipodi:namedview
     id="namedview52"
     pagecolor="#ffffff"
     bordercolor="#666666"
     borderopacity="1.0"
     inkscape:pageshadow="2"
     inkscape:pageopacity="0.0"
     inkscape:pagecheckerboard="0"
     showgrid="false"
     inkscape:zoom="0.85550555"
     inkscape:cx="64.873921"
     inkscape:cy="184.68612"
     inkscape:window-width="1366"
     inkscape:window-height="705"
     inkscape:window-x="-8"
     inkscape:window-y="-8"
     inkscape:window-maximized="1"
     inkscape:current-layer="g56" /><g
     id="g56"
     inkscape:groupmode="layer"
     inkscape:label="Clubs logos on dark background"
     transform="matrix(1.3333333,0,0,-1.3333333,-88.93902,371.17999)"><g
       id="g58"
       transform="translate(16.117467,-0.61990258)"><g
         id="g60"
         clip-path="url(#clipPath64)"><g
           id="g66"
           transform="translate(260.4638,220.9139)"><path
             d="M 0,0 -49.207,58.091 C -55.93,52.186 -68.413,42.98 -86.282,39.029 c -6.974,-1.543 -13.313,-1.963 -18.63,-1.884 v 10e-4 c -0.009,0 -0.018,0 -0.027,-10e-4 -0.008,10e-4 -0.017,10e-4 -0.026,10e-4 v -10e-4 c -5.317,-0.079 -11.656,0.341 -18.631,1.884 -17.869,3.951 -30.352,13.157 -37.075,19.062 L -209.877,0 c 4.348,-7.061 9.018,-16.003 12.883,-26.773 5.928,-16.517 7.815,-31.341 8.303,-42.253 -1.287,-46.518 14.122,-66.648 22.562,-74.939 3.657,-3.592 8.088,-6.988 16.949,-13.778 18.184,-13.937 33.732,-24.208 44.215,-30.811 0.009,-0.006 0.018,-0.011 0.027,-0.016 0.009,0.005 0.017,0.01 0.026,0.016 10.759,6.771 26.242,17.037 44.215,30.811 8.861,6.79 13.292,10.186 16.948,13.778 8.44,8.291 23.85,28.421 22.563,74.939 0.487,10.912 2.374,25.736 8.302,42.253 C -9.018,-16.003 -4.348,-7.061 0,0"
             style="fill:#ffffff;fill-opacity:1;fill-rule:nonzero;stroke:none"
             id="path68" /></g><g
           id="g70"
           transform="translate(183.9384,178.556)"><path
             d="m 0,0 -5.395,-9.351 5.391,-9.35 8.806,-0.002 c 1.528,4.194 2.369,8.746 2.368,13.491 -0.012,1.737 -0.124,3.468 -0.345,5.168 l -0.03,0.043 z"
             style="fill:#ed2737;fill-opacity:1;fill-rule:nonzero;stroke:none"
             id="path72" /></g><g
           id="g74"
           transform="translate(185.8927,198.6571)"><path
             d="m 0,0 c -1.427,1.687 -3.004,3.275 -4.703,4.716 l 2.71,-4.726 z"
             style="fill:#ed2737;fill-opacity:1;fill-rule:nonzero;stroke:none"
             id="path76" /></g><g
           id="g78"
           transform="translate(146.1778,211.5394)"><path
             d="m 0,0 c -3.012,-0.757 -5.872,-1.839 -8.554,-3.242 l 6.692,0.012 z"
             style="fill:#050606;fill-opacity:1;fill-rule:nonzero;stroke:none"
             id="path80" /></g><g
           id="g82"
           transform="translate(167.1285,169.5252)"><path
             d="M 0,0 10.803,0.009 16.212,9.366 10.796,18.719 0.005,18.711 -5.397,9.352 Z"
             style="fill:#ed2737;fill-opacity:1;fill-rule:nonzero;stroke:none"
             id="path84" /></g><g
           id="g86"
           transform="translate(161.1094,198.6287)"><path
             d="m 0,0 5.406,9.349 -2.191,3.79 c -2.779,0.61 -5.67,0.942 -8.623,0.938 -2.957,0.007 -5.843,-0.327 -8.614,-0.948 l -2.163,-3.76 5.411,-9.375 z"
             style="fill:#ed2737;fill-opacity:1;fill-rule:nonzero;stroke:none"
             id="path88" /></g><g
           id="g90"
           transform="translate(133.5604,188.8968)"><path
             d="m 0,0 10.766,0.005 5.386,9.368 -5.401,9.343 -7.954,0.002 c -1.59,-0.899 -3.113,-1.909 -4.546,-3.017 l -3.66,-6.34 z"
             style="fill:#ed2737;fill-opacity:1;fill-rule:nonzero;stroke:none"
             id="path92" /></g><g
           id="g94"
           transform="translate(130.3173,203.4054)"><path
             d="m 0,0 c -1.71,-1.442 -3.322,-3.072 -4.78,-4.794 l 2.025,-0.018 z"
             style="fill:#ed2737;fill-opacity:1;fill-rule:nonzero;stroke:none"
             id="path96" /></g><g
           id="g98"
           transform="translate(161.7474,159.4804)"><path
             d="m 0,0 5.412,-9.35 10.79,0.016 5.392,9.341 -5.399,9.351 H 5.382 Z"
             style="fill:#ed2737;fill-opacity:1;fill-rule:nonzero;stroke:none"
             id="path100" /></g><g
           id="g102"
           transform="translate(173.796,208.3318)"><path
             d="m 0,0 c -2.681,1.399 -5.564,2.464 -8.563,3.229 l 1.866,-3.232 z"
             style="fill:#050606;fill-opacity:1;fill-rule:nonzero;stroke:none"
             id="path104" /></g><g
           id="g106"
           transform="translate(144.8034,188.5661)"><path
             d="m 0,0 5.474,-9.488 10.93,0.032 5.472,9.453 L 16.378,9.514 5.463,9.491 Z"
             style="fill:#050606;fill-opacity:1;fill-rule:nonzero;stroke:none"
             id="path108" /></g><g
           id="g110"
           transform="translate(186.4431,197.9484)"><path
             d="m 0,0 -2.515,0.005 -5.4,-9.359 5.396,-9.362 10.753,0.025 C 7.16,-11.693 4.252,-5.285 0,0"
             style="fill:#050606;fill-opacity:1;fill-rule:nonzero;stroke:none"
             id="path112" /></g><g
           id="g114"
           transform="translate(144.3488,150.1001)"><path
             d="m 0,0 5.407,9.361 -5.398,9.368 -10.795,-0.024 -5.389,-9.351 5.41,-9.35 z"
             style="fill:#ed2737;fill-opacity:1;fill-rule:nonzero;stroke:none"
             id="path116" /></g><g
           id="g118"
           transform="translate(127.5633,197.9167)"><path
             d="m 0,0 -2.596,-0.006 c -4.225,-5.289 -7.131,-11.7 -8.174,-18.72 l 10.771,0.025 5.396,9.339 z"
             style="fill:#050606;fill-opacity:1;fill-rule:nonzero;stroke:none"
             id="path120" /></g><g
           id="g122"
           transform="translate(144.9626,169.1516)"><path
             d="M 0,0 5.402,-9.325 H 16.185 L 21.572,0.042 16.157,9.374 5.385,9.385 Z"
             style="fill:#ed2737;fill-opacity:1;fill-rule:nonzero;stroke:none"
             id="path124" /></g><g
           id="g126"
           transform="translate(149.767,140.0812)"><path
             d="M 0,0 -5.396,9.342 -16.179,9.335 -19.664,3.318 c 4.718,-4.054 10.414,-7.004 16.703,-8.463 z"
             style="fill:#ed2737;fill-opacity:1;fill-rule:nonzero;stroke:none"
             id="path128" /></g><g
           id="g130"
           transform="translate(178.5556,149.8004)"><path
             d="M 0,0 3.389,-5.873 C 8.018,-1.75 11.656,3.468 13.93,9.365 L 5.391,9.341 Z"
             style="fill:#050606;fill-opacity:1;fill-rule:nonzero;stroke:none"
             id="path132" /></g><g
           id="g134"
           transform="translate(150.3889,139.7272)"><path
             d="m 0,0 -2.86,-4.945 c 2.68,-0.567 5.41,-0.873 8.224,-0.856 2.834,-0.01 5.592,0.294 8.261,0.863 l -2.857,4.946 z"
             style="fill:#ed2737;fill-opacity:1;fill-rule:nonzero;stroke:none"
             id="path136" /></g><g
           id="g138"
           transform="translate(127.5773,159.1139)"><path
             d="M 0,0 -8.582,-0.018 C -6.303,-5.907 -2.652,-11.119 2,-15.248 l 3.404,5.896 z"
             style="fill:#050606;fill-opacity:1;fill-rule:nonzero;stroke:none"
             id="path140" /></g><g
           id="g142"
           transform="translate(118.7455,159.7901)"><path
             d="M 0,0 8.847,0.021 14.231,9.37 8.835,18.731 -1.996,18.702 -2.083,18.556 C -2.282,16.901 -2.388,15.207 -2.397,13.479 -2.387,8.763 -1.553,4.214 0,0"
             style="fill:#ed2737;fill-opacity:1;fill-rule:nonzero;stroke:none"
             id="path144" /></g><g
           id="g146"
           transform="translate(161.1463,159.1495)"><path
             d="m 0,0 -10.782,-0.017 -5.381,-9.376 5.392,-9.343 10.78,0.016 5.395,9.368 z"
             style="fill:#050606;fill-opacity:1;fill-rule:nonzero;stroke:none"
             id="path148" /></g><g
           id="g150"
           transform="translate(144.3343,169.507)"><path
             d="m 0,0 5.388,9.358 -5.397,9.362 -10.77,-0.027 -5.388,-9.339 5.409,-9.359 z"
             style="fill:#ed2737;fill-opacity:1;fill-rule:nonzero;stroke:none"
             id="path152" /></g><g
           id="g154"
           transform="translate(167.1458,149.4508)"><path
             d="m 0,0 -5.387,-9.368 2.959,-5.13 c 6.27,1.469 11.99,4.423 16.698,8.511 l -3.467,5.986 z"
             style="fill:#ed2737;fill-opacity:1;fill-rule:nonzero;stroke:none"
             id="path156" /></g><g
           id="g158"
           transform="translate(183.3165,198.2997)"><path
             d="m 0,0 -3.622,6.279 c -1.48,1.123 -3.017,2.153 -4.641,3.064 h -7.944 l -5.396,-9.368 5.399,-9.354 10.814,0.009 z"
             style="fill:#ed2737;fill-opacity:1;fill-rule:nonzero;stroke:none"
             id="path160" /></g><g
           id="g162"
           transform="translate(167.1577,150.1308)"><path
             d="m 0,0 -5.413,9.349 5.383,9.358 H 10.779 L 16.176,9.357 10.79,0.016 Z m -0.029,19.394 -5.397,9.353 5.401,9.358 10.793,0.009 5.415,-9.354 -5.404,-9.357 z m -16.765,-9.706 -5.401,9.333 5.384,9.385 10.773,-0.011 5.415,-9.333 -5.387,-9.366 z m 10.743,38.13 5.427,-9.385 -5.401,-9.324 -10.78,-0.031 -5.399,9.357 5.387,9.37 z m -16.782,-9.722 5.397,-9.362 -5.388,-9.358 -10.758,-0.005 -5.409,9.359 5.39,9.339 z m -10.741,-38.123 -5.409,9.35 5.396,9.351 10.787,0.024 5.398,-9.358 -5.407,-9.371 z m 16.795,-9.69 -5.39,9.343 5.379,9.375 10.776,0.018 5.411,-9.352 -5.401,-9.369 z m 44.356,38.141 0.031,-0.043 -0.015,0.044 -0.077,0.684 0.062,0.002 -10.812,-0.009 -5.398,9.361 5.408,9.36 2.51,-0.006 -0.55,0.682 -0.001,0.027 -1.987,-0.01 -2.716,4.726 -0.033,0.016 -1.467,1.179 v 0.01 l 3.623,-6.278 -5.384,-9.361 -10.813,-0.018 -5.396,9.354 5.396,9.368 7.934,-10e-4 -1.256,0.69 -6.689,0.005 -1.87,3.224 -0.907,0.207 2.188,-3.79 -5.406,-9.349 -10.77,-0.005 -5.417,9.374 2.171,3.759 -0.916,-0.218 -1.855,-3.229 -6.699,-0.012 -1.264,-0.683 7.953,-0.002 5.404,-9.342 -5.389,-9.369 -10.77,-0.005 -5.41,9.361 3.662,6.34 -0.017,-0.011 -1.466,-1.181 h -0.011 l -2.753,-4.812 -2.021,0.008 -0.566,-0.691 2.583,0.006 5.4,-9.362 -5.399,-9.339 -10.79,-0.026 h 0.019 l -0.028,-0.228 -0.065,-0.445 -0.03,-0.17 0.087,0.146 10.822,0.029 5.402,-9.362 -5.384,-9.348 -8.848,-0.012 0.251,-0.675 0.002,-0.029 8.583,0.018 5.403,-9.352 -3.404,-5.896 0.001,-0.019 0.53,-0.448 3.477,6.017 10.783,0.007 5.396,-9.342 -2.961,-5.145 0.019,10e-4 0.671,-0.156 0.031,0.002 2.862,4.944 10.776,0.009 2.849,-4.946 0.699,0.163 -2.954,5.13 5.387,9.368 10.804,-0.001 3.473,-5.986 0.509,0.454 0.013,0.01 -3.389,5.872 5.391,9.341 8.539,0.024 0.256,0.688 -8.807,0.002 -5.392,9.35 5.396,9.351 z"
             style="fill:#050606;fill-opacity:1;fill-rule:nonzero;stroke:none"
             id="path164" /></g><g
           id="g166"
           transform="translate(154.4385,237.5305)"><path
             d="m 0,0 c 0,0 -0.246,-1.638 0.688,-1.864 0,0 0.669,-0.268 1.297,0.542 0.636,0.786 3.217,6.967 -2.197,12.323 0,0 0.814,-4.334 -1.082,-7.881 -0.566,-1.126 -1.588,-3.654 -0.746,-4.685 0,0 1.122,-1.293 2.04,1.565"
             style="fill:#ed2737;fill-opacity:1;fill-rule:nonzero;stroke:none"
             id="path168" /></g><g
           id="g170"
           transform="translate(155.6365,223.3885)"><path
             d="m 0,0 c 0,0 -0.119,-1.696 -1.015,-1.76 0,0 -0.697,-0.119 -1.078,0.797 -0.39,0.942 -1.415,7.662 4.659,12.005 0,0 -1.705,-4.203 -0.718,-8.147 C 2.138,1.64 2.504,-1.093 1.51,-1.972 1.51,-1.972 0.219,-3.047 0,0"
             style="fill:#ed2737;fill-opacity:1;fill-rule:nonzero;stroke:none"
             id="path172" /></g><g
           id="g174"
           transform="translate(161.3624,233.6112)"><path
             d="m 0,0 c 0.047,-0.016 -0.072,-0.314 -0.001,-0.66 0.074,-0.359 0.323,-0.621 0.555,-0.801 0.13,-0.06 0.325,-0.125 0.537,-0.08 1.151,0.246 1.767,3.52 1.155,6.064 -0.191,0.796 -0.719,2.417 -2.384,4.038 0,0 0.63,-3.38 -0.832,-6.144 -0.457,-0.867 -1.256,-2.852 -0.582,-3.629 0.135,-0.132 0.315,-0.257 0.51,-0.236 C -0.434,-1.386 -0.102,0.033 0,0"
             style="fill:#ed2737;fill-opacity:1;fill-rule:nonzero;stroke:none"
             id="path176" /></g><g
           id="g178"
           transform="translate(161.0001,224.3026)"><path
             d="m 0,0 c 0,0 -0.798,-1.125 0.005,-1.687 0,0 0.544,-0.486 1.403,-0.145 0.87,0.326 5.349,3.89 2.133,10.212 0,0 -0.703,-3.609 -3.66,-5.484 -0.942,-0.607 -2.734,-2.089 -2.304,-3.22 0,0 0.591,-1.439 2.423,0.324"
             style="fill:#ed2737;fill-opacity:1;fill-rule:nonzero;stroke:none"
             id="path180" /></g><g
           id="g182"
           transform="translate(151.4853,230.9288)"><path
             d="m 0,0 c 0,0 0.384,-1.079 -0.339,-1.363 l -1.121,0.218 c -0.601,0.472 -3.308,4.375 0.504,8.716 0,0 -0.23,-3.074 1.672,-5.263 0.589,-0.709 1.681,-2.32 1.101,-3.131 0,0 -0.779,-0.997 -1.817,0.823"
             style="fill:#ed2737;fill-opacity:1;fill-rule:nonzero;stroke:none"
             id="path184" /></g><g
           id="g186"
           transform="translate(149.6399,223.9918)"><path
             d="m 0,0 c 0,0 0.755,-1.043 0.017,-1.569 0,0 -0.531,-0.466 -1.32,-0.147 -0.788,0.31 -4.977,3.62 -1.995,9.474 0,0 0.657,-3.346 3.405,-5.079 C 0.986,2.12 2.672,0.742 2.246,-0.314 2.246,-0.314 1.704,-1.647 0,0"
             style="fill:#ed2737;fill-opacity:1;fill-rule:nonzero;stroke:none"
             id="path188" /></g><g
           id="g190"
           transform="translate(165.0683,219.1853)"><path
             d="M 0,0 C -0.006,0.717 -0.564,1.285 -1.279,1.302 L -17.807,1.274 c -0.724,0.008 -1.304,-0.561 -1.285,-1.287 l 0.66,-1.117 -0.508,-1.344 c -0.023,-1.091 0.853,-1.962 1.947,-1.973 l 0.321,0.04 c 0.645,-1.026 1.575,-1.904 2.669,-2.541 0.113,-0.811 0.596,-1.473 1.244,-1.864 l 1.047,-11.749 4.362,-0.002 1.029,11.77 c 0.673,0.383 1.144,1.055 1.229,1.84 1.112,0.635 2.041,1.517 2.688,2.551 l 0.327,-0.021 c 1.076,0.005 1.939,0.877 1.942,1.967 l -0.523,1.329 z"
             style="fill:#050606;fill-opacity:1;fill-rule:nonzero;stroke:none"
             id="path192" /></g><g
           id="g194"
           transform="translate(154.792,182.7284)"><path
             d="m 0,0 0.009,-0.071 0.741,-0.618 0.756,0.607 1.42,15.973 -4.361,0.003 z"
             style="fill:#ed2737;fill-opacity:1;fill-rule:nonzero;stroke:none"
             id="path196" /></g><g
           id="g198"
           transform="translate(216.4041,168.0422)"><path
             d="M 0,0 C 0.99,4.145 0.183,6.733 0.183,6.733 -0.352,5.535 -1.378,4.979 -3.734,3.68 -4.922,3.025 -5.719,1.956 -6.275,0.802 c 0.151,1.534 0.226,3.065 0.214,4.638 -0.01,0.775 -0.042,1.559 -0.073,2.318 0.837,0.315 5.221,2.137 5.965,5.803 0.572,2.771 -0.2,3.426 0.01,5.93 0,0 -0.739,-1.169 -4.66,-3.219 -1.03,-0.548 -1.622,-1.394 -1.924,-2.347 -0.229,1.464 -0.528,2.917 -0.887,4.33 1.223,0.944 4.417,3.794 4.394,7.347 -0.022,2.991 -0.932,3.451 -1.241,6.078 0,0 -0.49,-1.413 -3.975,-4.629 -0.676,-0.632 -1.078,-1.362 -1.292,-2.148 -0.508,1.37 -1.113,2.712 -1.742,4.013 0.527,0.572 4.107,4.525 2.918,8.001 -0.823,2.38 -2.795,4.668 -3.67,5.708 0.277,-0.424 0.716,-1.626 -0.614,-4.184 -1.247,-2.408 -0.372,-5.645 0.421,-7.675 -1.463,2.724 -3.148,5.305 -5.052,7.73 0.602,0.921 3.115,5.198 1.398,8.274 -1.27,2.207 -3.603,4.109 -4.669,4.962 0.382,-0.375 1.022,-1.479 0.172,-4.215 -0.764,-2.463 0.498,-5.321 1.612,-7.192 -1.788,2.115 -3.761,4.078 -5.852,5.88 0.301,0.716 2.26,5.587 -0.11,8.311 -1.649,1.884 -4.299,3.267 -5.493,3.887 0.412,-0.298 1.252,-1.239 0.92,-4.019 -0.328,-2.752 1.844,-5.502 3.331,-7.034 -2.052,1.661 -4.25,3.19 -6.543,4.56 -0.948,1.858 -3.633,6.097 -8.097,5.832 -5.732,-0.36 -7.43,0.278 -7.43,0.278 2.258,-2.079 1.991,-3.092 4.859,-5.197 3.574,-2.648 9.166,-2.041 10.652,-1.826 1.06,-0.653 2.061,-1.326 3.051,-2.045 -1.491,0.645 -3.268,0.961 -5.133,0.242 -4.999,-1.913 -6.703,-1.829 -6.703,-1.829 2.605,-1.204 2.644,-2.16 5.805,-3.214 4.131,-1.396 9.228,0.954 10.21,1.449 1.572,-1.412 3.101,-2.93 4.507,-4.527 -1.624,1.073 -3.745,1.971 -6.219,1.824 -5.537,-0.353 -6.224,-0.58 -6.224,-0.58 2.467,-1.671 2.372,-2.641 5.38,-4.253 3.556,-1.908 8.196,-0.931 9.897,-0.463 0.857,-1.151 1.65,-2.329 2.407,-3.535 -1.019,0.699 -2.223,1.164 -3.675,1.16 -5.433,-0.033 -7.019,0.643 -7.019,0.643 2.036,-2.076 1.75,-2.99 4.368,-5.108 2.919,-2.376 7.467,-2.417 9.429,-2.318 0.642,-1.328 1.21,-2.707 1.747,-4.096 -0.859,0.95 -1.978,1.711 -3.446,2.01 -5.291,1.114 -6.687,2.115 -6.687,2.115 1.564,-2.449 1.086,-3.265 3.188,-5.871 2.388,-3.014 7.003,-3.98 8.824,-4.25 0.308,-1.243 0.577,-2.499 0.795,-3.763 -0.57,1.015 -1.424,1.919 -2.668,2.431 -4.868,2.032 -5.962,3.298 -5.962,3.298 0.835,-2.767 0.131,-3.537 1.443,-6.564 1.684,-3.91 6.794,-5.655 7.931,-6.004 0.057,-0.775 0.062,-1.535 0.05,-2.313 0.01,-0.921 -0.013,-1.819 -0.062,-2.724 -0.305,1.433 -1.017,2.833 -2.476,3.759 -4.32,2.789 -5.17,4.172 -5.17,4.172 0.368,-2.777 -0.42,-3.396 0.356,-6.529 1.027,-4.007 5.623,-6.575 6.683,-7.13 -0.43,-2.728 -1.069,-5.402 -1.905,-7.986 0.305,2.418 0.327,5.888 -1.599,8.06 -2.561,2.897 -2.851,3.074 -3.25,4.74 0.361,-1.523 -1.019,-4.027 -0.824,-7.273 0.268,-3.995 3.718,-7.098 4.815,-7.977 -0.82,-2.183 -1.794,-4.32 -2.895,-6.362 0.468,1.691 0.718,3.76 0.164,5.827 -0.895,3.198 -1.625,3.412 -3.135,5.973 0,0 -0.417,-1.833 -2.018,-5.76 -1.8,-4.448 1.793,-8.222 3.055,-9.392 -0.903,-1.429 -1.877,-2.816 -2.894,-4.158 0.263,0.85 0.42,1.734 0.32,2.678 -0.297,3.288 -1.608,4.31 -2.241,7.177 0,0 -1.122,-1.195 -3.342,-4.809 -2.296,-3.729 -0.136,-8.963 0.525,-10.42 -0.955,-0.97 -1.958,-1.916 -3.034,-2.79 0.481,0.906 0.792,1.92 0.823,3.035 0.041,3.265 -0.921,4.111 -1.234,7.017 0,0 -1.079,-1.672 -4.026,-4.719 -3.095,-3.182 -1.687,-7.508 -0.874,-9.357 -1.45,-0.944 -2.942,-1.837 -4.481,-2.64 0.99,0.908 1.845,2.073 2.257,3.483 0.844,3.125 0.021,3.895 0.437,6.751 0,0 -1.324,-1.257 -5.509,-3.517 -3.755,-2.024 -2.812,-7.419 -2.413,-9.109 -0.857,-0.235 -2.148,-0.599 -3.708,-1.076 -4.025,-1.231 -7.125,-2.389 -10.631,-3.706 -1.26,-0.473 -2.992,-1.132 -5.057,-1.95 -2.257,0.846 -4.552,1.684 -6.885,2.512 -3.458,1.227 -6.866,2.387 -10.219,3.481 -0.762,0.236 -1.523,0.472 -2.284,0.707 0.4,1.706 1.332,7.098 -2.449,9.119 -4.166,2.243 -5.51,3.5 -5.51,3.5 0.436,-2.84 -0.392,-3.615 0.469,-6.743 0.397,-1.411 1.257,-2.561 2.258,-3.498 -1.547,0.816 -3.05,1.694 -4.511,2.646 0.825,1.852 2.2,6.182 -0.85,9.338 -2.968,3.052 -4.065,4.725 -4.065,4.725 -0.318,-2.887 -1.256,-3.757 -1.201,-7.026 0.022,-1.103 0.325,-2.113 0.81,-3.032 -1.039,0.896 -2.07,1.812 -3.041,2.802 0.673,1.44 2.806,6.715 0.524,10.41 -2.238,3.613 -3.361,4.816 -3.361,4.816 -0.614,-2.875 -1.926,-3.885 -2.225,-7.171 -0.1,-0.952 0.052,-1.848 0.349,-2.696 -1.047,1.35 -2.014,2.738 -2.921,4.166 1.263,1.161 4.862,4.953 3.044,9.379 -1.613,3.948 -2.048,5.782 -2.048,5.782 -1.472,-2.579 -2.237,-2.784 -3.081,-5.992 -0.572,-2.066 -0.311,-4.153 0.149,-5.833 -1.106,2.052 -2.082,4.19 -2.895,6.372 1.073,0.875 4.554,3.982 4.777,7.977 0.198,3.253 -1.186,5.746 -0.809,7.27 -0.408,-1.661 -0.699,-1.845 -3.242,-4.733 -1.937,-2.174 -1.904,-5.672 -1.593,-8.074 -0.844,2.589 -1.489,5.264 -1.932,7.994 1.073,0.542 5.659,3.104 6.673,7.124 0.773,3.122 0,3.753 0.364,6.531 0,0 -0.851,-1.39 -5.177,-4.189 -1.457,-0.926 -2.16,-2.329 -2.471,-3.742 -0.056,0.9 -0.074,1.804 -0.067,2.708 0.004,0.787 0.019,1.546 0.044,2.325 1.15,0.345 6.26,2.1 7.931,6.01 1.315,3.027 0.592,3.794 1.426,6.566 0,0 -1.084,-1.254 -5.928,-3.298 -1.274,-0.532 -2.132,-1.415 -2.69,-2.45 0.219,1.275 0.478,2.533 0.793,3.775 1.831,0.283 6.42,1.255 8.831,4.256 2.106,2.609 1.619,3.447 3.148,5.859 0,0 -1.389,-0.959 -6.666,-2.099 -1.453,-0.314 -2.581,-1.074 -3.431,-2.01 0.51,1.392 1.117,2.757 1.719,4.084 1.988,-0.092 6.525,-0.051 9.436,2.327 2.612,2.133 2.338,3.051 4.387,5.125 0,0 -1.588,-0.669 -7.036,-0.65 -1.441,-0.005 -2.671,-0.471 -3.681,-1.18 0.759,1.214 1.558,2.394 2.41,3.541 1.703,-0.463 6.342,-1.421 9.883,0.478 3.031,1.624 2.899,2.614 5.375,4.258 0,0 -0.678,0.238 -6.198,0.57 -2.501,0.16 -4.614,-0.747 -6.244,-1.829 1.414,1.605 2.925,3.106 4.509,4.543 0.98,-0.486 6.075,-2.844 10.22,-1.455 3.145,1.07 3.196,2.013 5.814,3.223 0,0 -1.729,-0.071 -6.743,1.838 -1.844,0.702 -3.626,0.404 -5.114,-0.245 0.986,0.709 2.008,1.392 3.035,2.042 1.505,-0.229 7.089,-0.814 10.658,1.835 2.849,2.114 2.598,3.108 4.862,5.208 0,0 -1.711,-0.632 -7.422,-0.296 -4.487,0.269 -7.149,-3.97 -8.108,-5.845 -2.279,-1.368 -4.464,-2.894 -6.538,-4.562 1.502,1.536 3.658,4.291 3.337,7.062 -0.34,2.76 0.479,3.708 0.931,3.998 -1.218,-0.639 -3.888,-2.004 -5.514,-3.897 -2.359,-2.718 -0.411,-7.59 -0.095,-8.293 -2.099,-1.83 -4.042,-3.798 -5.859,-5.897 1.138,1.872 2.387,4.727 1.622,7.18 -0.847,2.75 -0.226,3.849 0.16,4.236 -1.078,-0.866 -3.408,-2.76 -4.644,-4.979 -1.724,-3.073 0.775,-7.354 1.384,-8.28 -1.889,-2.434 -3.582,-5.008 -5.03,-7.735 0.777,2.03 1.652,5.285 0.406,7.703 -1.335,2.537 -0.914,3.722 -0.622,4.157 -0.877,-1.019 -2.834,-3.314 -3.652,-5.709 -1.197,-3.481 2.393,-7.431 2.921,-7.986 -0.629,-1.319 -1.232,-2.664 -1.743,-4.022 -0.206,0.767 -0.617,1.52 -1.292,2.145 -3.485,3.219 -3.966,4.61 -3.966,4.61 -0.312,-2.617 -1.238,-3.07 -1.247,-6.063 0.002,-3.552 3.181,-6.395 4.392,-7.359 -0.344,-1.407 -0.641,-2.864 -0.857,-4.318 -0.321,0.952 -0.896,1.789 -1.933,2.333 -3.924,2.062 -4.66,3.237 -4.66,3.237 0.209,-2.505 -0.563,-3.171 0.009,-5.94 0.742,-3.658 5.129,-5.495 5.952,-5.802 -0.017,-0.751 -0.049,-1.539 -0.038,-2.316 0.007,-1.555 0.07,-3.1 0.189,-4.623 -0.523,1.128 -1.329,2.207 -2.528,2.855 -2.355,1.304 -3.385,1.849 -3.941,3.075 0,0 -0.796,-2.599 0.208,-6.753 0.809,-3.431 5.307,-3.716 6.854,-3.734 0.432,-2.532 1.037,-5 1.821,-7.435 -0.829,1.474 -2.168,3.019 -4.192,3.326 -3.583,0.539 -4.087,2.644 -4.087,2.644 0.041,-0.533 0.481,-4.698 1.901,-6.811 1.992,-2.937 6.568,-2.2 7.385,-2.037 0.781,-2.049 1.69,-4.045 2.698,-5.984 -0.989,0.945 -2.386,1.773 -4.281,2.121 -3.544,0.608 -3.984,1.293 -4.783,2.038 0,0 0.757,-3.388 2.97,-6.351 2.949,-3.992 7.525,-2.107 8.353,-1.71 1.51,-2.37 3.172,-4.588 4.996,-6.699 -1.221,0.743 -2.831,1.373 -4.853,1.471 -3.105,0.145 -3.43,0.809 -5.586,1.606 0,0 1.618,-3.286 4.029,-5.845 3.568,-3.805 8.439,-0.975 9.357,-0.377 1.446,-1.423 2.972,-2.79 4.561,-4.036 -1.181,0.36 -2.63,0.573 -4.313,0.376 -2.967,-0.365 -2.255,-0.734 -5.689,-0.332 0,0 1.794,-2.186 4.868,-4.229 3.989,-2.648 8.079,0.538 9.038,1.39 2.137,-1.404 4.387,-2.676 6.725,-3.764 -1.461,0.346 -3.316,0.441 -5.468,-0.214 -2.8,-0.858 -2.043,-1.096 -5.48,-1.319 0,0 2.187,-1.746 5.631,-3.124 5.084,-2.061 8.659,3.139 8.659,3.139 l -0.26,0.207 c 0.296,-0.11 2.103,-0.779 2.399,-0.889 2.152,-0.797 5.564,-2.06 9.96,-3.682 1.207,-0.445 4.214,-1.554 5.458,-2.013 -0.786,-0.404 -1.618,-0.878 -2.487,-1.418 -0.796,-0.494 -1.554,-1.011 -2.259,-1.551 l -0.434,-0.288 c 0.884,-0.136 2.043,-0.261 3.529,-0.362 1.27,0.89 2.551,1.703 3.842,2.443 1.279,-0.725 2.574,-1.55 3.822,-2.447 1.513,0.098 2.647,0.252 3.535,0.379 l -0.432,0.3 c -0.683,0.505 -1.436,1.022 -2.261,1.536 -0.918,0.572 -1.803,1.062 -2.634,1.484 0.948,0.427 2.116,0.936 3.462,1.488 4.115,1.689 7.517,2.805 10.856,3.893 1.052,0.343 2.272,0.733 3.636,1.154 l -0.273,-0.212 c 0,0 3.605,-5.184 8.686,-3.131 3.434,1.395 5.607,3.146 5.607,3.146 -3.435,0.221 -2.644,0.454 -5.468,1.314 -2.152,0.663 -4.008,0.55 -5.477,0.192 2.332,1.107 4.591,2.366 6.718,3.773 0.978,-0.836 5.053,-4.042 9.041,-1.366 3.086,2.043 4.855,4.23 4.855,4.23 -3.41,-0.411 -2.721,-0.039 -5.671,0.32 -1.683,0.21 -3.14,-0.021 -4.329,-0.377 1.589,1.27 3.115,2.615 4.57,4.056 0.918,-0.605 5.78,-3.433 9.342,0.363 2.435,2.595 4.043,5.878 4.043,5.878 -2.162,-0.812 -2.486,-1.475 -5.589,-1.62 -2.033,-0.1 -3.624,-0.717 -4.86,-1.472 1.822,2.099 3.498,4.336 5.007,6.693 0.805,-0.383 5.387,-2.273 8.354,1.706 2.205,2.984 2.938,6.366 2.938,6.366 -0.801,-0.737 -1.236,-1.424 -4.772,-2.056 -1.91,-0.322 -3.292,-1.175 -4.275,-2.099 0.998,1.938 1.895,3.917 2.675,5.984 0.826,-0.174 5.43,-0.907 7.401,2.046 1.417,2.111 1.852,6.268 1.877,6.819 0,0 -0.494,-2.117 -4.076,-2.679 -2.036,-0.3 -3.374,-1.845 -4.184,-3.306 0.759,2.417 1.374,4.882 1.791,7.439 1.551,0 6.036,0.31 6.851,3.732"
             style="fill:#34b253;fill-opacity:1;fill-rule:nonzero;stroke:none"
             id="path200" /></g><g
           id="g202"
           transform="translate(106.962,210.595)"><path
             d="M 0,0 0.174,0.198 Z"
             style="fill:#34b253;fill-opacity:1;fill-rule:nonzero;stroke:none"
             id="path204" /></g><g
           id="g206"
           transform="translate(115.4683,219.7289)"><path
             d="M 0,0 0.191,0.171 Z"
             style="fill:#34b253;fill-opacity:1;fill-rule:nonzero;stroke:none"
             id="path208" /></g><g
           id="g210"
           transform="translate(125.1537,226.4001)"><path
             d="M 0,0 0.213,0.124 Z"
             style="fill:#34b253;fill-opacity:1;fill-rule:nonzero;stroke:none"
             id="path212" /></g><g
           id="g214"
           transform="translate(203.9931,210.8771)"><path
             d="M 0,0 0.173,-0.21 Z"
             style="fill:#34b253;fill-opacity:1;fill-rule:nonzero;stroke:none"
             id="path216" /></g><g
           id="g218"
           transform="translate(195.6497,219.7738)"><path
             d="M 0,0 -0.192,0.181 Z"
             style="fill:#34b253;fill-opacity:1;fill-rule:nonzero;stroke:none"
             id="path220" /></g><g
           id="g222"
           transform="translate(185.979,226.4458)"><path
             d="M 0,0 -0.246,0.108 Z"
             style="fill:#34b253;fill-opacity:1;fill-rule:nonzero;stroke:none"
             id="path224" /></g><g
           id="g226"
           transform="translate(155.531,164.6328)"><path
             d="m 0,0 c 24.778,0.028 45.938,-15.566 54.202,-37.464 l 15.206,11.513 C 66.088,-18.91 58.858,-6.478 45.047,3.666 35.696,10.534 26.935,13.784 22.413,15.171 17.849,16.572 9.969,18.522 -0.014,18.512 -30.823,18.479 -57.34,0.212 -69.394,-26.067 l 15.248,-11.491 c 1.822,4.798 7.861,18.909 23.275,28.643 C -17.981,-0.775 -5.364,-0.018 0,0"
             style="fill:#ed2737;fill-opacity:1;fill-rule:nonzero;stroke:none"
             id="path228" /></g><g
           id="g230"
           transform="translate(90.8698,135.0688)"><path
             d="m 0,0 c 0,0 -7.51,-12.87 -2.365,-31.08 l 6.437,8.785 c 0,0 0.574,-6.358 10.289,-14.031 0,0 -4.544,17.034 2.83,32.756 l -6.652,-4.378 z"
             style="fill:#ed2737;fill-opacity:1;fill-rule:nonzero;stroke:none"
             id="path232" /></g><g
           id="g234"
           transform="translate(104.5835,134.1021)"><path
             d="m 0,0 3.481,-2.603 -6.655,-4.396 c 0,0 1.282,3.469 3.174,6.999"
             style="fill:#ed2737;fill-opacity:1;fill-rule:nonzero;stroke:none"
             id="path236" /></g><g
           id="g238"
           transform="translate(220.2723,135.1643)"><path
             d="m 0,0 c 0,0 7.524,-12.871 2.396,-31.095 l -6.442,8.784 c 0,0 -0.571,-6.358 -10.272,-14.031 0,0 4.505,17.032 -2.891,32.737 l 6.672,-4.363 z"
             style="fill:#ed2737;fill-opacity:1;fill-rule:nonzero;stroke:none"
             id="path240" /></g><g
           id="g242"
           transform="translate(206.5656,134.1707)"><path
             d="M 0,0 -3.502,-2.612 3.175,-6.993 C 3.175,-6.993 1.896,-3.519 0,0"
             style="fill:#ed2737;fill-opacity:1;fill-rule:nonzero;stroke:none"
             id="path244" /></g><g
           id="g246"
           transform="translate(104.6903,133.6289)"><path
             d="M 0,0 -0.012,-0.027 Z"
             style="fill:#050606;fill-opacity:1;fill-rule:nonzero;stroke:none"
             id="path248" /></g><g
           id="g250"
           transform="translate(86.3006,138.6451)"><path
             d="m 0,0 15.057,-11.364 c 2.497,6.666 7.494,16.239 17.168,24.274 13.813,11.472 29.06,13.217 36.919,13.236 h 0.139 c 7.541,0 18.866,-1.477 30.265,-8.457 14.572,-8.922 21.243,-21.926 23.943,-28.979 l 15.033,11.406 c -4.248,8.922 -10.059,16.853 -17.272,23.573 -7.385,6.88 -16.202,12.362 -25.497,15.853 -8.478,3.183 -17.646,4.875 -26.515,4.892 -0.049,0 -0.099,0 -0.148,0 -15.563,0 -27.922,-4.833 -35.56,-8.895 C 14.086,25.197 4.187,8.869 0,0 m 15.161,-11.721 -15.439,11.653 0.039,0.081 c 4.176,8.876 14.104,25.319 33.667,35.722 7.66,4.074 20.057,8.921 35.664,8.921 0.05,0 0.099,0 0.148,0 8.895,-0.017 18.091,-1.714 26.594,-4.907 9.321,-3.5 18.163,-8.997 25.569,-15.897 7.256,-6.76 13.097,-14.741 17.36,-23.722 l 0.04,-0.082 -15.414,-11.694 -0.053,0.139 C 120.68,-4.514 114.044,8.554 99.432,17.5 88.078,24.452 76.795,25.924 69.283,25.924 H 69.145 C 61.315,25.905 46.126,24.166 32.367,12.739 22.663,4.679 17.682,-4.935 15.213,-11.581 Z"
             style="fill:#121110;fill-opacity:1;fill-rule:nonzero;stroke:none"
             id="path252" /></g><g
           id="g254"
           transform="translate(95.0003,113.0413)"><path
             d="m 0,0 0.05,-0.245 c 0.809,-3.924 3.549,-7.51 5.705,-9.827 1.887,-2.027 3.667,-3.463 4.299,-3.953 -3.853,17.06 1.624,29.839 2.723,32.158 L 6.395,13.841 6.332,13.889 -4.09,21.856 C -11.135,7.187 -7.045,-6.962 -6.457,-8.812 Z m 10.406,-14.565 -0.241,0.176 c -0.087,0.064 -8.582,6.361 -10.28,13.857 L -6.53,-9.287 -6.6,-9.089 c -0.054,0.152 -5.277,15.38 2.37,31.165 l 0.059,0.122 0.108,-0.083 10.467,-8.001 6.465,4.348 -3.352,2.51 0.133,0.178 3.602,-2.698 -0.106,-0.071 C 12.808,17.723 6.057,4.219 10.339,-14.273 Z"
             style="fill:#121110;fill-opacity:1;fill-rule:nonzero;stroke:none"
             id="path256" /></g><g
           id="g258"
           transform="translate(203.2041,131.5253)"><path
             d="m 0,0 c 6.708,-13.52 3.462,-29.991 2.927,-32.425 4.907,3.835 7.358,7.348 8.553,9.636 1.311,2.509 1.43,4.109 1.431,4.125 l 0.02,0.304 6.487,-8.846 C 24.077,-10.213 17.742,2.168 17.035,3.47 13.52,0.808 10.005,-1.855 6.49,-4.517 6.468,-4.486 6.447,-4.455 6.424,-4.425 l 0.002,0.088 c 0.009,0.336 -1.875,4.306 -3.105,6.814 z m 2.566,-32.986 0.076,0.309 c 0.045,0.18 4.364,18.158 -2.882,32.661 L -0.282,0.067 3.402,2.814 3.461,2.694 C 3.968,1.663 6.369,-3.246 6.625,-4.22 7.474,-3.778 13.2,0.698 16.999,3.726 l 0.101,0.08 0.064,-0.111 c 0.075,-0.129 7.456,-13.09 2.407,-31.181 l -0.062,-0.22 -6.413,8.747 c -0.22,-1.327 -1.652,-7.18 -10.278,-13.833 z"
             style="fill:#121110;fill-opacity:1;fill-rule:nonzero;stroke:none"
             id="path260" /></g><g
           id="g262"
           transform="translate(209.6894,127.0008)"><path
             d="M 0,0 -6.688,4.466 -6.564,4.65 0.123,0.185 Z"
             style="fill:#121110;fill-opacity:1;fill-rule:nonzero;stroke:none"
             id="path264" /></g><g
           id="g266"
           transform="translate(145.3987,122.4529)"><path
             d="M 0,0 V 7.084 L -1.543,6.479 -1.727,7.5 0.243,8.2 H 1.127 V 0 Z"
             style="fill:#181817;fill-opacity:1;fill-rule:nonzero;stroke:none"
             id="path268" /></g><g
           id="g270"
           transform="translate(152.471,129.3356)"><path
             d="m 0,0 c -0.289,0.336 -0.684,0.504 -1.187,0.504 -0.47,0 -0.856,-0.16 -1.157,-0.48 -0.304,-0.325 -0.456,-0.752 -0.456,-1.282 0,-0.514 0.134,-0.922 0.403,-1.222 0.281,-0.317 0.676,-0.475 1.187,-0.475 0.478,0 0.876,0.162 1.192,0.487 0.297,0.308 0.445,0.676 0.445,1.103 C 0.427,-0.791 0.285,-0.336 0,0 m 0.522,-5.785 c -0.72,-0.803 -1.722,-1.204 -3.008,-1.204 -0.376,0 -0.704,0.023 -0.985,0.071 v 1.02 c 0.324,-0.091 0.692,-0.136 1.104,-0.136 1.487,0 2.387,0.807 2.699,2.421 0.02,0.083 0.046,0.193 0.077,0.332 l 0.054,0.261 -0.012,0.012 c -0.411,-0.59 -1.054,-0.884 -1.928,-0.884 -0.76,0 -1.361,0.223 -1.804,0.67 -0.443,0.447 -0.665,1.046 -0.665,1.798 0,0.811 0.263,1.487 0.789,2.029 0.538,0.55 1.227,0.825 2.065,0.825 1.025,0 1.77,-0.402 2.237,-1.205 0.348,-0.601 0.522,-1.374 0.522,-2.32 0,-1.613 -0.381,-2.844 -1.145,-3.69"
             style="fill:#181817;fill-opacity:1;fill-rule:nonzero;stroke:none"
             id="path272" /></g><g
           id="g274"
           transform="translate(160.0476,126.2442)"><path
             d="m 0,0 c -0.285,0.317 -0.684,0.475 -1.198,0.475 -0.491,0 -0.893,-0.16 -1.205,-0.481 -0.296,-0.3 -0.445,-0.67 -0.445,-1.109 0,-0.566 0.14,-1.017 0.421,-1.353 0.293,-0.341 0.69,-0.51 1.193,-0.51 0.483,0 0.876,0.16 1.18,0.48 0.309,0.321 0.463,0.744 0.463,1.27 C 0.409,-0.71 0.273,-0.301 0,0 M 0.759,-3.097 C 0.217,-3.639 -0.479,-3.91 -1.329,-3.91 c -1.008,0 -1.747,0.401 -2.213,1.204 -0.348,0.606 -0.522,1.381 -0.522,2.326 0,1.626 0.403,2.868 1.21,3.727 0.732,0.775 1.709,1.162 2.931,1.162 0.328,0 0.572,-0.011 0.73,-0.035 V 3.501 C 0.593,3.54 0.327,3.56 0.006,3.56 -1.541,3.56 -2.48,2.714 -2.813,1.02 L -2.907,0.511 -2.896,0.499 c 0.443,0.589 1.098,0.883 1.965,0.883 0.759,0 1.364,-0.223 1.815,-0.67 0.443,-0.443 0.665,-1.032 0.665,-1.768 0,-0.827 -0.263,-1.507 -0.79,-2.041"
             style="fill:#181817;fill-opacity:1;fill-rule:nonzero;stroke:none"
             id="path276" /></g><g
           id="g278"
           transform="translate(167.5945,129.7094)"><path
             d="m 0,0 c -1.068,-2.314 -1.873,-4.733 -2.415,-7.256 h -1.24 c 0.617,2.578 1.426,4.964 2.427,7.155 -0.249,-0.016 -1.464,-0.024 -3.643,-0.024 V 0.943 H 0 Z"
             style="fill:#181817;fill-opacity:1;fill-rule:nonzero;stroke:none"
             id="path280" /></g><g
           id="g282"
           transform="translate(127.112,103.2568)"><path
             d="M 0,0 C -0.114,0.312 -0.224,0.659 -0.331,1.041 H -0.352 C -0.455,0.666 -0.56,0.327 -0.667,0.022 l -1.029,-2.875 h 2.709 z m 1.917,-5.458 -0.634,1.784 h -3.238 l -0.628,-1.784 h -1.063 l 2.765,7.611 h 1.173 l 2.787,-7.611 z"
             style="fill:#181817;fill-opacity:1;fill-rule:nonzero;stroke:none"
             id="path284" /></g><g
           id="g286"
           transform="translate(131.2481,97.7988)"><path
             d="M 0,0 V 7.611 H 1.035 V 0.892 H 3.767 V 0 Z"
             style="fill:#181817;fill-opacity:1;fill-rule:nonzero;stroke:none"
             id="path288" /></g><g
           id="g290"
           transform="translate(137.7745,104.6116)"><path
             d="m 0,0 c -0.187,0 -0.417,-0.007 -0.689,-0.022 v -2.594 c 0.151,-0.015 0.366,-0.022 0.645,-0.022 0.54,0 0.964,0.125 1.272,0.374 0.301,0.246 0.452,0.577 0.452,0.992 C 1.68,-0.424 1.12,0 0,0 m 1.944,-6.813 -2.495,3.404 h -0.138 v -3.404 h -1.035 v 7.612 c 0.463,0.033 1.098,0.049 1.906,0.049 1.722,0 2.583,-0.663 2.583,-1.988 0,-0.621 -0.22,-1.129 -0.661,-1.526 -0.411,-0.363 -0.934,-0.569 -1.57,-0.616 0.242,-0.294 0.459,-0.564 0.65,-0.81 L 3.26,-6.813 Z"
             style="fill:#181817;fill-opacity:1;fill-rule:nonzero;stroke:none"
             id="path292" /></g><g
           id="g294"
           transform="translate(145.1216,103.2568)"><path
             d="M 0,0 C -0.114,0.312 -0.224,0.659 -0.331,1.041 H -0.352 C -0.455,0.666 -0.56,0.327 -0.667,0.022 l -1.029,-2.875 h 2.709 z m 1.917,-5.458 -0.634,1.784 h -3.238 l -0.628,-1.784 h -1.063 l 2.765,7.611 h 1.173 l 2.787,-7.611 z"
             style="fill:#181817;fill-opacity:1;fill-rule:nonzero;stroke:none"
             id="path296" /></g><g
           id="g298"
           transform="translate(151.1635,100.5416)"><path
             d="M 0,0 V -2.743 H -1.041 V 0 L -3.42,4.868 h 1.14 L -1.074,2.297 C -0.861,1.849 -0.67,1.41 -0.501,0.98 h 0.011 c 0.121,0.309 0.339,0.793 0.655,1.454 l 1.173,2.434 h 1.085 z"
             style="fill:#181817;fill-opacity:1;fill-rule:nonzero;stroke:none"
             id="path300" /></g><g
           id="g302"
           transform="translate(157.2163,100.5416)"><path
             d="M 0,0 V -2.743 H -1.041 V 0 L -3.42,4.868 h 1.14 L -1.074,2.297 C -0.861,1.849 -0.67,1.41 -0.501,0.98 h 0.011 c 0.121,0.309 0.339,0.793 0.655,1.454 l 1.173,2.434 h 1.085 z"
             style="fill:#181817;fill-opacity:1;fill-rule:nonzero;stroke:none"
             id="path304" /></g><g
           id="g306"
           transform="translate(162.63,103.2568)"><path
             d="M 0,0 C -0.114,0.312 -0.224,0.659 -0.331,1.041 H -0.352 C -0.455,0.666 -0.56,0.327 -0.667,0.022 l -1.029,-2.875 h 2.709 z m 1.917,-5.458 -0.634,1.784 h -3.238 l -0.628,-1.784 h -1.063 l 2.765,7.611 h 1.173 l 2.787,-7.611 z"
             style="fill:#181817;fill-opacity:1;fill-rule:nonzero;stroke:none"
             id="path308" /></g><g
           id="g310"
           transform="translate(171.4476,97.7988)"><path
             d="M 0,0 -2.958,4.885 C -3.299,5.451 -3.565,5.95 -3.756,6.383 -3.705,5.451 -3.679,4.03 -3.679,2.121 V 0 h -1.002 v 7.611 h 1.376 L -0.385,2.82 C -0.077,2.302 0.202,1.786 0.452,1.272 0.4,2.748 0.374,4.215 0.374,5.673 V 7.611 H 1.377 V 0 Z"
             style="fill:#181817;fill-opacity:1;fill-rule:nonzero;stroke:none"
             id="path312" /></g><g
           id="g314"
           transform="translate(180.3368,98.3551)"><path
             d="m 0,0 c -0.518,-0.437 -1.201,-0.655 -2.049,-0.655 -0.613,0 -1.169,0.069 -1.669,0.209 l 0.127,0.997 c 0.514,-0.206 1.048,-0.309 1.603,-0.309 0.477,0 0.861,0.1 1.151,0.298 0.33,0.227 0.495,0.562 0.495,1.002 0,0.375 -0.179,0.683 -0.539,0.925 -0.158,0.103 -0.553,0.283 -1.184,0.54 -0.544,0.22 -0.937,0.444 -1.179,0.672 -0.36,0.341 -0.54,0.784 -0.54,1.327 0,0.643 0.23,1.157 0.689,1.542 0.477,0.408 1.134,0.612 1.971,0.612 0.507,0 0.966,-0.05 1.377,-0.149 L 0.132,6.097 c -0.444,0.135 -0.881,0.204 -1.311,0.204 -1.02,0 -1.531,-0.395 -1.531,-1.184 0,-0.357 0.18,-0.654 0.54,-0.893 0.154,-0.099 0.554,-0.281 1.201,-0.545 0.55,-0.224 0.951,-0.452 1.2,-0.683 C 0.591,2.655 0.771,2.216 0.771,1.68 0.771,0.989 0.514,0.429 0,0"
             style="fill:#181817;fill-opacity:1;fill-rule:nonzero;stroke:none"
             id="path316" /></g><g
           id="g318"
           transform="translate(187.7223,98.1127)"><path
             d="m 0,0 c -0.657,-0.268 -1.353,-0.402 -2.087,-0.402 -1.175,0 -2.058,0.349 -2.649,1.046 -0.544,0.639 -0.815,1.526 -0.815,2.661 0,1.226 0.299,2.193 0.897,2.902 0.65,0.775 1.592,1.162 2.826,1.162 0.624,0 1.206,-0.079 1.746,-0.237 L -0.248,6.185 C -0.824,6.38 -1.39,6.477 -1.944,6.477 -2.77,6.477 -3.4,6.185 -3.833,5.601 -4.226,5.076 -4.423,4.367 -4.423,3.475 c 0,-1.968 0.861,-2.952 2.584,-2.952 0.602,0 1.158,0.127 1.668,0.38 z"
             style="fill:#181817;fill-opacity:1;fill-rule:nonzero;stroke:none"
             id="path320" /></g><g
           id="g322"
           transform="translate(142.0081,93.0642)"><path
             d="m 0,0 c -0.419,0.565 -1.017,0.848 -1.796,0.848 -0.686,0 -1.252,-0.255 -1.696,-0.765 -0.47,-0.54 -0.705,-1.267 -0.705,-2.181 0,-0.94 0.197,-1.676 0.59,-2.209 0.414,-0.565 1.015,-0.848 1.801,-0.848 0.682,0 1.246,0.255 1.69,0.766 0.474,0.543 0.711,1.266 0.711,2.169 C 0.595,-1.276 0.397,-0.536 0,0 M 2.164,-6.719 C 1.47,-6.807 0.804,-6.73 0.165,-6.488 c -0.727,0.275 -1.32,0.413 -1.779,0.413 h -0.297 c -1.113,0 -1.965,0.349 -2.556,1.047 -0.558,0.664 -0.837,1.59 -0.837,2.775 0,1.234 0.354,2.222 1.063,2.963 0.668,0.702 1.516,1.052 2.545,1.052 1.116,0 1.968,-0.35 2.555,-1.052 0.562,-0.664 0.843,-1.587 0.843,-2.77 0,-1.744 -0.617,-2.884 -1.851,-3.42 0.195,0.004 0.54,-0.064 1.036,-0.204 0.448,-0.128 0.874,-0.169 1.277,-0.121 z"
             style="fill:#181817;fill-opacity:1;fill-rule:nonzero;stroke:none"
             id="path324" /></g><g
           id="g326"
           transform="translate(148.9407,92.5576)"><path
             d="M 0,0 C -0.114,0.312 -0.224,0.659 -0.331,1.041 H -0.352 C -0.455,0.666 -0.56,0.327 -0.667,0.022 l -1.029,-2.875 h 2.709 z m 1.917,-5.458 -0.634,1.784 h -3.238 l -0.628,-1.784 h -1.063 l 2.765,7.611 h 1.173 l 2.787,-7.611 z"
             style="fill:#181817;fill-opacity:1;fill-rule:nonzero;stroke:none"
             id="path328" /></g><g
           id="g330"
           transform="translate(156.347,93.8463)"><path
             d="M 0,0 V -6.747 H -1.041 V 0 H -3.227 V 0.865 H 2.198 V 0 Z"
             style="fill:#181817;fill-opacity:1;fill-rule:nonzero;stroke:none"
             id="path332" /></g><g
           id="g334"
           transform="translate(163.2302,92.5576)"><path
             d="M 0,0 C -0.114,0.312 -0.224,0.659 -0.331,1.041 H -0.352 C -0.455,0.666 -0.56,0.327 -0.667,0.022 l -1.029,-2.875 h 2.709 z m 1.917,-5.458 -0.634,1.784 h -3.238 l -0.628,-1.784 h -1.063 l 2.765,7.611 h 1.173 l 2.787,-7.611 z"
             style="fill:#181817;fill-opacity:1;fill-rule:nonzero;stroke:none"
             id="path336" /></g><g
           id="g338"
           transform="translate(170.4436,93.9125)"><path
             d="m 0,0 c -0.187,0 -0.417,-0.008 -0.688,-0.022 v -2.594 c 0.15,-0.015 0.365,-0.022 0.644,-0.022 0.54,0 0.964,0.125 1.272,0.374 0.301,0.246 0.452,0.577 0.452,0.992 C 1.68,-0.424 1.12,0 0,0 m 1.944,-6.813 -2.495,3.404 h -0.137 v -3.404 h -1.036 v 7.612 c 0.463,0.033 1.098,0.049 1.906,0.049 1.722,0 2.583,-0.663 2.583,-1.988 0,-0.621 -0.22,-1.129 -0.661,-1.526 -0.411,-0.363 -0.934,-0.569 -1.57,-0.616 0.242,-0.294 0.459,-0.564 0.65,-0.81 L 3.26,-6.813 Z"
             style="fill:#181817;fill-opacity:1;fill-rule:nonzero;stroke:none"
             id="path340" /></g><g
           id="g342"
           transform="translate(110.7991,146.5555)"><path
             d="m 0,0 c -0.134,-0.17 -0.293,-0.264 -0.478,-0.28 -0.185,-0.016 -0.368,0.048 -0.55,0.191 -0.185,0.147 -0.292,0.311 -0.32,0.493 -0.029,0.182 0.025,0.359 0.161,0.532 0.137,0.172 0.295,0.266 0.478,0.279 0.183,0.014 0.367,-0.053 0.551,-0.199 C 0.025,0.873 0.129,0.708 0.155,0.524 0.182,0.339 0.13,0.164 0,0 m -1.11,-1.408 c -0.134,-0.17 -0.294,-0.263 -0.478,-0.279 -0.185,-0.016 -0.368,0.047 -0.551,0.191 -0.185,0.146 -0.292,0.309 -0.32,0.492 -0.028,0.181 0.025,0.359 0.162,0.532 0.134,0.169 0.291,0.262 0.472,0.276 0.182,0.015 0.366,-0.051 0.554,-0.2 0.188,-0.148 0.294,-0.313 0.319,-0.494 0.024,-0.181 -0.029,-0.354 -0.158,-0.518 m 0.305,8.644 C -1.04,6.94 -1.281,6.72 -1.529,6.576 -1.776,6.433 -2.107,6.342 -2.519,6.305 -2.628,6.294 -2.924,6.3 -3.407,6.322 -3.975,6.346 -4.379,6.331 -4.618,6.28 -4.857,6.227 -5.029,6.135 -5.132,6.003 -5.203,5.914 -5.245,5.766 -5.26,5.559 -5.276,5.352 -5.259,5.155 -5.211,4.968 c 0.049,-0.187 0.116,-0.314 0.202,-0.382 0.112,-0.088 0.248,-0.118 0.406,-0.088 0.159,0.031 0.355,0.122 0.589,0.274 0.397,0.261 0.715,0.433 0.955,0.517 0.24,0.084 0.471,0.108 0.691,0.073 0.219,-0.036 0.433,-0.135 0.639,-0.297 0.486,-0.383 0.7,-0.873 0.643,-1.469 C -1.143,2.999 -1.485,2.304 -2.113,1.508 l -1.541,-1.954 c -0.248,-0.316 -0.554,-0.539 -0.915,-0.669 -0.362,-0.131 -0.742,-0.154 -1.141,-0.069 -0.399,0.085 -0.778,0.269 -1.137,0.552 -0.536,0.423 -0.998,0.931 -1.383,1.524 l 0.868,1.1 c 0.173,-0.25 0.352,-0.466 0.538,-0.65 0.186,-0.183 0.431,-0.396 0.737,-0.637 0.188,-0.148 0.403,-0.242 0.643,-0.281 0.241,-0.039 0.47,-0.019 0.687,0.059 0.216,0.079 0.389,0.201 0.519,0.365 l 1.13,1.432 c 0.353,0.448 0.56,0.78 0.622,0.996 0.061,0.216 0.013,0.387 -0.146,0.512 C -2.725,3.862 -2.841,3.88 -2.978,3.841 -3.115,3.802 -3.289,3.705 -3.5,3.547 -3.984,3.176 -4.395,2.978 -4.733,2.952 -5.071,2.925 -5.407,3.043 -5.74,3.305 c -0.287,0.227 -0.505,0.568 -0.655,1.026 -0.15,0.458 -0.203,0.938 -0.157,1.44 0.045,0.502 0.188,0.905 0.429,1.21 0.14,0.178 0.304,0.315 0.492,0.412 0.187,0.097 0.406,0.163 0.655,0.195 0.25,0.033 0.73,0.03 1.439,-0.009 0.562,-0.032 0.958,-0.012 1.185,0.06 0.229,0.071 0.414,0.197 0.556,0.378 l 0.032,0.04 c 0.024,0.03 0.046,0.037 0.068,0.02 L -0.779,7.353 C -0.752,7.332 -0.75,7.307 -0.774,7.277 Z"
             style="fill:#181817;fill-opacity:1;fill-rule:nonzero;stroke:none"
             id="path344" /></g><g
           id="g346"
           transform="translate(113.9344,158.7897)"><path
             d="M 0,0 -0.853,0.969 C -1.189,1.352 -1.525,1.555 -1.861,1.581 -2.197,1.606 -2.549,1.456 -2.918,1.132 -3.63,0.506 -3.813,-0.526 -3.47,-1.962 l 0.542,-0.615 z M -4.468,2.511 C -4.633,2.366 -4.808,2.302 -4.993,2.32 c -0.184,0.017 -0.353,0.113 -0.506,0.287 -0.156,0.177 -0.232,0.358 -0.226,0.542 0.004,0.184 0.091,0.349 0.258,0.497 0.16,0.141 0.331,0.202 0.513,0.185 C -4.771,3.814 -4.601,3.716 -4.443,3.536 -4.29,3.362 -4.217,3.181 -4.224,2.995 -4.232,2.809 -4.314,2.648 -4.468,2.511 m 0.256,-7.896 c -0.025,-0.023 -0.05,-0.021 -0.072,0.004 l -0.772,0.877 c -0.018,0.021 -0.014,0.042 0.012,0.065 l 0.932,0.82 -2.6,2.954 1.184,1.043 1.215,-1.381 c -0.373,1.396 -0.084,2.511 0.864,3.347 0.648,0.569 1.286,0.829 1.915,0.78 0.629,-0.049 1.256,-0.429 1.881,-1.14 L 2.013,0.092 Z"
             style="fill:#181817;fill-opacity:1;fill-rule:nonzero;stroke:none"
             id="path348" /></g><g
           id="g350"
           transform="translate(118.7445,162.2702)"><path
             d="M 0,0 C 0.028,0.02 0.05,0.018 0.066,-0.004 L 0.735,-0.961 C 0.755,-0.989 0.75,-1.014 0.722,-1.033 l -2.37,-1.656 -4.566,6.536 1.288,0.9 3.844,-5.502 z"
             style="fill:#181817;fill-opacity:1;fill-rule:nonzero;stroke:none"
             id="path352" /></g><g
           id="g354"
           transform="translate(121.7661,159.656)"><path
             d="m 0,0 c -0.186,-0.111 -0.368,-0.141 -0.546,-0.091 -0.179,0.051 -0.327,0.176 -0.447,0.375 -0.121,0.203 -0.162,0.394 -0.123,0.574 0.038,0.18 0.151,0.327 0.34,0.44 0.189,0.112 0.371,0.143 0.547,0.09 C -0.054,1.335 0.094,1.208 0.215,1.006 0.334,0.807 0.373,0.616 0.331,0.434 0.29,0.252 0.18,0.107 0,0 m -1.539,-0.92 c -0.186,-0.111 -0.368,-0.141 -0.546,-0.091 -0.179,0.051 -0.327,0.176 -0.447,0.375 -0.12,0.203 -0.162,0.393 -0.124,0.574 0.039,0.181 0.152,0.326 0.341,0.439 0.186,0.111 0.366,0.141 0.541,0.091 0.174,-0.051 0.323,-0.179 0.445,-0.385 0.123,-0.205 0.163,-0.397 0.122,-0.575 C -1.249,-0.67 -1.359,-0.813 -1.539,-0.92 M -2.535,1.436 C -2.564,1.418 -2.588,1.424 -2.606,1.453 L -3.205,2.456 C -3.219,2.479 -3.211,2.5 -3.182,2.517 l 1.584,0.947 -2.019,3.378 1.349,0.806 2.665,-4.46 z"
             style="fill:#181817;fill-opacity:1;fill-rule:nonzero;stroke:none"
             id="path356" /></g><g
           id="g358"
           transform="translate(126.5367,166.5162)"><path
             d="m 0,0 c 0.031,0.015 0.052,0.011 0.065,-0.014 l 0.523,-1.044 c 0.015,-0.031 0.007,-0.054 -0.023,-0.07 l -1.226,-0.613 0.076,-0.151 c 0.323,-0.645 0.4,-1.246 0.232,-1.804 -0.169,-0.558 -0.552,-0.986 -1.151,-1.287 -0.323,-0.162 -0.637,-0.271 -0.944,-0.329 -0.307,-0.058 -0.66,-0.063 -1.057,-0.014 l 0.11,1.196 c 0.218,-0.021 0.4,-0.019 0.548,0.005 0.147,0.024 0.31,0.08 0.488,0.17 0.252,0.126 0.407,0.323 0.465,0.59 0.058,0.268 0.014,0.548 -0.131,0.838 l -2.368,4.728 1.406,0.704 1.761,-3.519 z"
             style="fill:#181817;fill-opacity:1;fill-rule:nonzero;stroke:none"
             id="path360" /></g><g
           id="g362"
           transform="translate(126.8606,165.2542)"><path
             d="m 0,0 c -0.031,-0.013 -0.054,-0.003 -0.067,0.028 l -0.446,1.08 c -0.01,0.025 0.001,0.045 0.032,0.058 l 1.22,0.503 -2.559,6.205 1.453,0.599 3.04,-7.37 z"
             style="fill:#181817;fill-opacity:1;fill-rule:nonzero;stroke:none"
             id="path364" /></g><g
           id="g366"
           transform="translate(128.5172,174.4937)"><path
             d="M 0,0 1.484,0.517 4.109,-7.01 2.625,-7.528 Z"
             style="fill:#181817;fill-opacity:1;fill-rule:nonzero;stroke:none"
             id="path368" /></g><g
           id="g370"
           transform="translate(139.8462,174.7406)"><path
             d="m 0,0 c -0.216,-0.042 -0.399,-0.009 -0.549,0.1 -0.151,0.108 -0.248,0.276 -0.292,0.504 -0.045,0.231 -0.019,0.425 0.078,0.582 0.098,0.155 0.256,0.255 0.475,0.298 0.21,0.04 0.388,0.007 0.537,-0.1 C 0.397,1.277 0.494,1.106 0.54,0.872 0.584,0.643 0.556,0.451 0.455,0.294 0.354,0.137 0.202,0.039 0,0 m 1.125,-7.647 c -0.577,-0.112 -1.102,-0.089 -1.576,0.07 -0.473,0.159 -0.864,0.435 -1.173,0.829 -0.31,0.394 -0.519,0.875 -0.629,1.442 -0.075,0.39 -0.105,0.795 -0.088,1.217 0.016,0.422 0.075,0.81 0.178,1.165 l 1.366,0.264 c -0.037,-0.39 -0.048,-0.793 -0.033,-1.21 0.014,-0.416 0.055,-0.798 0.122,-1.147 0.097,-0.5 0.301,-0.874 0.611,-1.121 C 0.214,-6.387 0.576,-6.47 0.991,-6.39 L 1.3,-6.33 c 0.533,0.104 0.897,0.323 1.092,0.658 0.196,0.336 0.244,0.763 0.143,1.283 L 1.625,0.309 3.168,0.608 4.086,-4.131 C 4.453,-6.021 3.617,-7.165 1.58,-7.559 Z"
             style="fill:#181817;fill-opacity:1;fill-rule:nonzero;stroke:none"
             id="path372" /></g><g
           id="g374"
           transform="translate(148.2462,171.9693)"><path
             d="M 0,0 C 0.034,0.004 0.052,-0.007 0.056,-0.035 L 0.188,-1.196 C 0.192,-1.23 0.177,-1.249 0.142,-1.252 l -2.872,-0.327 -0.901,7.922 1.562,0.177 0.758,-6.669 z"
             style="fill:#181817;fill-opacity:1;fill-rule:nonzero;stroke:none"
             id="path376" /></g><g
           id="g378"
           transform="translate(150.0067,172.0806)"><path
             d="M 0,0 C 0.037,0.002 0.057,-0.009 0.059,-0.037 L 0.148,-1.202 C 0.151,-1.236 0.133,-1.254 0.096,-1.257 l -1.902,-0.145 c -0.034,-0.003 -0.052,0.013 -0.055,0.047 L -1.95,-0.19 c -0.002,0.028 0.015,0.043 0.049,0.045 z"
             style="fill:#181817;fill-opacity:1;fill-rule:nonzero;stroke:none"
             id="path380" /></g><g
           id="g382"
           transform="translate(151.7798,172.1734)"><path
             d="M 0,0 C 0.037,0.001 0.057,-0.011 0.059,-0.039 L 0.12,-1.205 C 0.122,-1.239 0.104,-1.257 0.066,-1.26 l -1.903,-0.101 c -0.035,-0.001 -0.053,0.015 -0.055,0.049 l -0.061,1.167 c -0.002,0.028 0.015,0.042 0.049,0.044 z"
             style="fill:#181817;fill-opacity:1;fill-rule:nonzero;stroke:none"
             id="path384" /></g><g
           id="g386"
           transform="translate(153.5365,172.2156)"><path
             d="M 0,0 C 0.038,0.001 0.057,-0.012 0.057,-0.04 L 0.082,-1.208 C 0.083,-1.242 0.065,-1.26 0.027,-1.26 l -1.906,-0.041 c -0.034,0 -0.052,0.016 -0.052,0.051 l -0.025,1.167 c -0.001,0.028 0.016,0.042 0.05,0.043 z"
             style="fill:#181817;fill-opacity:1;fill-rule:nonzero;stroke:none"
             id="path388" /></g><g
           id="g390"
           transform="translate(155.3223,172.2324)"><path
             d="m 0,0 c 0.038,-0.001 0.057,-0.013 0.057,-0.041 l 0.006,-1.168 c 0,-0.035 -0.019,-0.052 -0.057,-0.052 L -1.9,-1.271 c -0.034,0 -0.052,0.017 -0.052,0.051 l -0.006,1.169 c 0,0.027 0.017,0.04 0.052,0.041 z"
             style="fill:#181817;fill-opacity:1;fill-rule:nonzero;stroke:none"
             id="path392" /></g><g
           id="g394"
           transform="translate(157.1009,172.1948)"><path
             d="M 0,0 C 0.038,-0.001 0.057,-0.015 0.056,-0.042 L 0.033,-1.21 C 0.032,-1.244 0.013,-1.261 -0.025,-1.26 l -1.906,0.038 c -0.034,0 -0.051,0.018 -0.051,0.052 l 0.023,1.168 c 0.001,0.027 0.018,0.04 0.053,0.04 z"
             style="fill:#181817;fill-opacity:1;fill-rule:nonzero;stroke:none"
             id="path396" /></g><g
           id="g398"
           transform="translate(158.8721,172.1143)"><path
             d="M 0,0 C 0.037,-0.001 0.056,-0.016 0.055,-0.043 L 0.003,-1.211 c -0.002,-0.033 -0.021,-0.05 -0.059,-0.048 l -1.905,0.085 c -0.034,0.002 -0.051,0.02 -0.049,0.053 l 0.052,1.168 c 10e-4,0.027 0.019,0.04 0.053,0.039 z"
             style="fill:#181817;fill-opacity:1;fill-rule:nonzero;stroke:none"
             id="path400" /></g><g
           id="g402"
           transform="translate(160.6456,171.9893)"><path
             d="M 0,0 C 0.037,-0.002 0.056,-0.018 0.054,-0.045 L -0.028,-1.211 C -0.03,-1.244 -0.05,-1.26 -0.088,-1.257 l -1.902,0.132 c -0.034,0.002 -0.05,0.021 -0.048,0.055 l 0.082,1.165 c 0.002,0.028 0.02,0.041 0.054,0.038 z"
             style="fill:#181817;fill-opacity:1;fill-rule:nonzero;stroke:none"
             id="path404" /></g><g
           id="g406"
           transform="translate(155.8639,167.9662)"><path
             d="m 0,0 c -0.217,0.001 -0.388,0.069 -0.515,0.205 -0.126,0.135 -0.189,0.319 -0.188,0.551 0.001,0.236 0.065,0.421 0.191,0.556 0.126,0.134 0.299,0.201 0.518,0.2 C 0.227,1.511 0.397,1.443 0.521,1.307 0.644,1.171 0.705,0.986 0.704,0.75 0.703,0.518 0.637,0.334 0.508,0.2 0.379,0.066 0.209,-0.001 0,0 M 4.49,2.811 C 4.456,2.814 4.441,2.833 4.445,2.866 l 0.13,1.162 C 4.578,4.055 4.597,4.067 4.631,4.063 L 6.464,3.858 6.903,7.768 8.465,7.592 7.885,2.429 Z M -1.794,0.008 c -0.216,10e-4 -0.387,0.069 -0.514,0.205 -0.126,0.135 -0.189,0.319 -0.188,0.552 10e-4,0.236 0.064,0.42 0.19,0.555 0.127,0.134 0.299,0.201 0.519,0.2 0.217,-0.001 0.386,-0.068 0.51,-0.203 0.123,-0.133 0.184,-0.32 0.183,-0.559 C -1.095,0.519 -1.16,0.334 -1.288,0.203 -1.415,0.072 -1.584,0.007 -1.794,0.008"
             style="fill:#181817;fill-opacity:1;fill-rule:nonzero;stroke:none"
             id="path408" /></g><g
           id="g410"
           transform="translate(169.4825,170.7258)"><path
             d="M 0,0 C 0.034,-0.006 0.048,-0.023 0.044,-0.049 L -0.158,-1.2 c -0.006,-0.033 -0.026,-0.048 -0.059,-0.041 l -1.351,0.236 -0.029,-0.166 c -0.124,-0.71 -0.42,-1.24 -0.888,-1.587 -0.467,-0.349 -1.03,-0.465 -1.69,-0.35 -0.356,0.063 -0.674,0.162 -0.955,0.298 -0.282,0.136 -0.567,0.342 -0.857,0.618 l 0.8,0.895 c 0.163,-0.146 0.311,-0.254 0.443,-0.322 0.133,-0.068 0.298,-0.119 0.494,-0.154 0.278,-0.049 0.519,0.017 0.725,0.198 0.207,0.181 0.337,0.431 0.393,0.75 L -2.219,4.384 -0.671,4.113 -1.35,0.237 Z"
             style="fill:#181817;fill-opacity:1;fill-rule:nonzero;stroke:none"
             id="path412" /></g><g
           id="g414"
           transform="translate(169.0126,169.5191)"><path
             d="m 0,0 c -0.033,0.008 -0.046,0.029 -0.038,0.062 l 0.274,1.135 c 0.006,0.027 0.027,0.036 0.06,0.028 L 1.578,0.915 3.154,7.44 4.682,7.071 2.81,-0.679 Z"
             style="fill:#181817;fill-opacity:1;fill-rule:nonzero;stroke:none"
             id="path416" /></g><g
           id="g418"
           transform="translate(175.7563,176.0338)"><path
             d="m 0,0 1.507,-0.446 -2.263,-7.645 -1.507,0.447 z"
             style="fill:#181817;fill-opacity:1;fill-rule:nonzero;stroke:none"
             id="path420" /></g><g
           id="g422"
           transform="translate(182.7977,161.411)"><path
             d="m 0,0 c -0.196,0.092 -0.322,0.226 -0.379,0.403 -0.057,0.176 -0.036,0.369 0.063,0.58 0.101,0.213 0.237,0.353 0.408,0.421 C 0.263,1.472 0.448,1.46 0.647,1.366 0.845,1.271 0.971,1.138 1.026,0.963 1.08,0.788 1.056,0.594 0.956,0.38 0.856,0.171 0.72,0.032 0.545,-0.034 0.371,-0.102 0.189,-0.09 0,0 M -1.621,0.767 C -1.817,0.86 -1.943,0.994 -2,1.17 -2.057,1.346 -2.036,1.539 -1.937,1.749 -1.836,1.962 -1.7,2.103 -1.529,2.171 -1.358,2.239 -1.173,2.227 -0.974,2.133 -0.779,2.04 -0.653,1.907 -0.599,1.734 -0.544,1.561 -0.568,1.366 -0.67,1.15 -0.772,0.934 -0.909,0.793 -1.08,0.729 -1.251,0.665 -1.432,0.677 -1.621,0.767 m 0.369,2.694 C -1.616,3.633 -1.901,3.88 -2.109,4.204 -2.317,4.527 -2.425,4.892 -2.432,5.3 c -0.006,0.407 0.088,0.818 0.284,1.232 0.292,0.617 0.684,1.18 1.176,1.688 L 0.294,7.621 C 0.089,7.397 -0.082,7.173 -0.219,6.952 -0.357,6.729 -0.509,6.442 -0.675,6.09 -0.777,5.874 -0.821,5.644 -0.805,5.4 -0.789,5.157 -0.719,4.938 -0.594,4.744 -0.468,4.551 -0.312,4.41 -0.122,4.32 L 1.527,3.54 C 2.021,3.306 2.402,3.181 2.671,3.163 2.94,3.145 3.122,3.237 3.217,3.438 3.279,3.567 3.291,3.704 3.255,3.848 3.218,3.992 3.128,4.173 2.985,4.391 2.797,4.685 2.584,5.03 2.349,5.427 2.113,5.824 1.971,6.143 1.924,6.384 1.877,6.626 1.904,6.854 2.005,7.067 2.18,7.437 2.548,7.779 3.109,8.094 3.671,8.409 4.256,8.6 4.867,8.669 5.476,8.737 5.997,8.67 6.429,8.465 6.578,8.394 6.716,8.294 6.842,8.164 6.969,8.035 7.132,7.811 7.331,7.494 l -1,-0.791 C 6.237,6.834 6.141,6.953 6.043,7.06 5.945,7.167 5.83,7.252 5.697,7.314 5.529,7.394 5.266,7.411 4.908,7.365 4.55,7.319 4.232,7.233 3.954,7.108 3.676,6.982 3.5,6.841 3.425,6.684 3.379,6.585 3.395,6.434 3.477,6.231 3.557,6.029 3.695,5.776 3.889,5.472 4.071,5.189 4.249,4.863 4.424,4.493 4.598,4.123 4.704,3.799 4.741,3.519 4.777,3.239 4.747,2.997 4.651,2.793 4.376,2.212 3.928,1.893 3.305,1.834 2.682,1.775 1.913,1.962 0.997,2.396 Z"
             style="fill:#181817;fill-opacity:1;fill-rule:nonzero;stroke:none"
             id="path424" /></g><g
           id="g426"
           transform="translate(188.3603,163.6083)"><path
             d="M 0,0 2.986,-1.874 C 3.207,-1.25 3.335,-0.714 3.37,-0.267 3.406,0.18 3.364,0.612 3.245,1.028 3.127,1.442 2.922,1.855 2.631,2.263 l 1.283,0.93 C 4.512,2.375 4.843,1.483 4.908,0.516 4.973,-0.45 4.774,-1.54 4.312,-2.755 l -0.648,-1.033 -4.334,2.72 z"
             style="fill:#181817;fill-opacity:1;fill-rule:nonzero;stroke:none"
             id="path428" /></g><g
           id="g430"
           transform="translate(196.1347,158.3231)"><path
             d="M 0,0 C 0.028,-0.02 0.033,-0.042 0.017,-0.063 L -0.68,-1 C -0.701,-1.028 -0.725,-1.032 -0.752,-1.011 L -3.072,0.714 1.687,7.112 2.948,6.173 -1.058,0.787 Z"
             style="fill:#181817;fill-opacity:1;fill-rule:nonzero;stroke:none"
             id="path432" /></g><g
           id="g434"
           transform="translate(197.4659,157.1925)"><path
             d="M 0,0 C 0.029,-0.024 0.035,-0.047 0.018,-0.068 L -0.723,-0.97 C -0.745,-0.997 -0.77,-0.998 -0.8,-0.974 l -1.473,1.21 C -2.3,0.258 -2.302,0.282 -2.28,0.308 l 0.741,0.903 C -1.522,1.232 -1.5,1.232 -1.473,1.21 Z"
             style="fill:#181817;fill-opacity:1;fill-rule:nonzero;stroke:none"
             id="path436" /></g><g
           id="g438"
           transform="translate(198.8006,156.0219)"><path
             d="m 0,0 c 0.029,-0.025 0.034,-0.048 0.016,-0.068 l -0.769,-0.88 C -0.776,-0.974 -0.801,-0.974 -0.83,-0.949 L -2.265,0.307 C -2.29,0.329 -2.292,0.353 -2.27,0.379 l 0.769,0.88 c 0.018,0.02 0.04,0.019 0.066,-0.004 z"
             style="fill:#181817;fill-opacity:1;fill-rule:nonzero;stroke:none"
             id="path440" /></g><g
           id="g442"
           transform="translate(200.0877,154.8212)"><path
             d="m 0,0 c 0.028,-0.026 0.032,-0.048 0.014,-0.068 l -0.797,-0.856 c -0.023,-0.025 -0.048,-0.024 -0.076,0.001 L -2.254,0.376 C -2.279,0.4 -2.28,0.424 -2.257,0.449 l 0.796,0.855 c 0.019,0.02 0.041,0.018 0.066,-0.005 z"
             style="fill:#181817;fill-opacity:1;fill-rule:nonzero;stroke:none"
             id="path444" /></g><g
           id="g446"
           transform="translate(201.3421,153.574)"><path
             d="m 0,0 c 0.027,-0.027 0.031,-0.05 0.012,-0.069 l -0.823,-0.829 c -0.025,-0.025 -0.05,-0.024 -0.077,0.003 l -1.353,1.343 c -0.025,0.024 -0.025,0.049 -10e-4,0.073 l 0.823,0.829 c 0.019,0.019 0.041,0.017 0.066,-0.007 z"
             style="fill:#181817;fill-opacity:1;fill-rule:nonzero;stroke:none"
             id="path448" /></g><g
           id="g450"
           transform="translate(202.5536,152.2878)"><path
             d="M 0,0 C 0.026,-0.027 0.029,-0.05 0.009,-0.07 L -0.84,-0.871 c -0.025,-0.024 -0.05,-0.022 -0.076,0.006 l -1.31,1.385 c -0.023,0.025 -0.022,0.049 0.002,0.073 l 0.85,0.802 c 0.019,0.019 0.041,0.016 0.065,-0.009 z"
             style="fill:#181817;fill-opacity:1;fill-rule:nonzero;stroke:none"
             id="path452" /></g><g
           id="g454"
           transform="translate(203.7221,150.9645)"><path
             d="m 0,0 c 0.025,-0.028 0.027,-0.051 0.007,-0.07 l -0.875,-0.774 c -0.026,-0.022 -0.051,-0.019 -0.076,0.009 l -1.264,1.428 c -0.022,0.025 -0.021,0.05 0.005,0.072 l 0.875,0.774 c 0.02,0.018 0.042,0.014 0.065,-0.012 z"
             style="fill:#181817;fill-opacity:1;fill-rule:nonzero;stroke:none"
             id="path456" /></g><g
           id="g458"
           transform="translate(204.8456,149.6031)"><path
             d="m 0,0 c 0.024,-0.029 0.025,-0.052 0.005,-0.07 l -0.9,-0.744 c -0.027,-0.022 -0.052,-0.018 -0.076,0.011 l -1.216,1.468 c -0.022,0.027 -0.019,0.051 0.007,0.073 l 0.9,0.745 c 0.021,0.017 0.042,0.013 0.064,-0.014 z"
             style="fill:#181817;fill-opacity:1;fill-rule:nonzero;stroke:none"
             id="path460" /></g><g
           id="g462"
           transform="translate(203.5172,157.1201)"><path
             d="M 0,0 C -0.132,0.177 -0.181,0.356 -0.149,0.538 -0.116,0.721 -0.007,0.881 0.179,1.02 0.368,1.161 0.554,1.222 0.737,1.202 0.921,1.182 1.078,1.082 1.212,0.902 1.339,0.732 1.387,0.557 1.355,0.376 1.323,0.197 1.211,0.035 1.02,-0.108 0.833,-0.247 0.647,-0.305 0.462,-0.282 0.277,-0.26 0.123,-0.166 0,0 m 0.231,-8.12 c -0.02,0.028 -0.017,0.052 0.01,0.072 l 0.937,0.698 c 0.022,0.016 0.044,0.01 0.064,-0.017 l 0.788,-1.058 3.156,2.351 0.939,-1.26 -4.167,-3.104 z"
             style="fill:#181817;fill-opacity:1;fill-rule:nonzero;stroke:none"
             id="path464" /></g></g></g></g></svg>
