<?xml version="1.0" encoding="UTF-8"?>
<svg xmlns="http://www.w3.org/2000/svg" xmlns:xlink="http://www.w3.org/1999/xlink" width="538.58pt" height="537.78pt" viewBox="0 0 538.58 537.78" version="1.1">
<defs>
<clipPath id="clip1">
  <path d="M 245 475 L 281 475 L 281 537.78125 L 245 537.78125 Z M 245 475 "/>
</clipPath>
<clipPath id="clip2">
  <path d="M 282 472 L 327 472 L 327 537.78125 L 282 537.78125 Z M 282 472 "/>
</clipPath>
<clipPath id="clip3">
  <path d="M 488 219 L 538.578125 219 L 538.578125 269 L 488 269 Z M 488 219 "/>
</clipPath>
</defs>
<g id="surface1">
<path style=" stroke:none;fill-rule:nonzero;fill:rgb(3.898621%,7.798767%,14.099121%);fill-opacity:1;" d="M 389.25 282 L 400.636719 282 C 401.210938 277.277344 401.515625 272.460938 401.535156 267.59375 L 390.238281 267.59375 C 390.214844 272.46875 389.871094 277.277344 389.25 282 M 409.445313 267.59375 L 409.445313 282 L 444.148438 282 C 443.851563 285.257813 443.457031 288.5 442.980469 291.703125 C 442.242188 296.554688 441.304688 301.34375 440.152344 306.050781 C 434.105469 330.890625 422.414063 353.621094 406.429688 372.964844 L 396.503906 364.953125 L 387.109375 375.816406 L 396.828125 383.65625 L 408.03125 392.699219 C 411.355469 389.246094 414.539063 385.664063 417.589844 381.964844 C 435.457031 360.257813 448.40625 334.523438 454.734375 306.398438 C 455.785156 301.675781 456.667969 296.894531 457.351563 292.046875 C 457.8125 288.722656 458.199219 285.375 458.476563 282 C 458.875 277.25 459.082031 272.441406 459.097656 267.59375 L 409.445313 267.59375 M 352.898438 378.75 C 348.902344 381.558594 344.753906 384.167969 340.46875 386.582031 C 338.246094 387.832031 335.96875 389.003906 333.675781 390.136719 L 333.675781 380.621094 C 333.871094 380.515625 334.070313 380.414063 334.269531 380.316406 C 338.589844 377.949219 342.765625 375.359375 346.777344 372.566406 C 348.003906 371.703125 349.226563 370.820313 350.425781 369.929688 C 352.242188 368.570313 354.007813 367.160156 355.742188 365.710938 L 345.464844 355.558594 C 343.394531 357.230469 341.269531 358.851563 339.085938 360.390625 C 338.230469 360.992188 337.363281 361.589844 336.492188 362.171875 C 335.492188 362.839844 334.476563 363.488281 333.460938 364.117188 C 332.476563 364.730469 331.480469 365.332031 330.480469 365.917969 L 330.398438 365.960938 C 328.328125 367.167969 326.214844 368.3125 324.0625 369.398438 L 324.035156 369.398438 C 324.035156 369.398438 323.558594 369.644531 323.296875 369.777344 C 322.011719 370.417969 320.714844 371.039063 319.410156 371.632813 L 319.410156 411.484375 L 319.5 411.484375 C 324.332031 409.882813 329.066406 408.0625 333.675781 406.03125 C 339.632813 403.402344 345.394531 400.441406 350.929688 397.148438 L 363.808594 410.160156 C 347.398438 420.359375 329.113281 428.007813 309.554688 432.515625 L 309.554688 392.441406 C 304.902344 393.851563 300.140625 395.03125 295.289063 395.96875 L 295.289063 449.761719 C 300.105469 449.105469 304.855469 448.265625 309.554688 447.269531 C 332.992188 442.273438 354.816406 433.109375 374.15625 420.609375 C 378.242188 417.972656 382.210938 415.191406 386.0625 412.265625 L 375.867188 401.953125 L 352.898438 378.75 M 367.496094 359.996094 L 377.242188 349.410156 L 374.230469 346.980469 L 363.058594 337.964844 C 360.054688 341.6875 356.832031 345.253906 353.375 348.601563 L 364.609375 357.664063 L 367.496094 359.996094 M 379.359375 375.503906 C 379.503906 375.367188 379.65625 375.230469 379.800781 375.089844 C 380.773438 374.152344 381.71875 373.1875 382.660156 372.226563 C 386.019531 368.804688 389.222656 365.234375 392.246094 361.515625 C 405.503906 345.253906 415.429688 326.28125 421.003906 305.589844 L 421.316406 305.597656 C 422.585938 300.902344 423.621094 296.121094 424.429688 291.253906 L 377.21875 290.128906 C 377.820313 287.453125 378.316406 284.746094 378.710938 282 C 379.386719 277.285156 379.765625 272.480469 379.800781 267.59375 C 379.800781 267.375 379.808594 267.167969 379.808594 266.953125 C 379.816406 237.136719 367.308594 210.101563 347.21875 190.632813 L 360.125 169.511719 L 367.703125 157.109375 L 380.773438 135.714844 C 385.117188 139.179688 389.285156 142.84375 393.265625 146.695313 C 422.992188 175.433594 442.0625 214.230469 444.554688 257.324219 L 458.855469 257.324219 C 456.34375 210.089844 435.472656 167.519531 403.128906 136.273438 C 398.429688 131.726563 393.480469 127.433594 388.3125 123.386719 C 384.550781 120.441406 380.671875 117.632813 376.695313 114.960938 L 369.1875 127.238281 L 356.300781 148.332031 L 348.796875 160.617188 L 336.1875 181.253906 L 328.660156 193.574219 C 331.648438 195.851563 334.511719 198.273438 337.203125 200.875 C 337.996094 201.640625 338.761719 202.441406 339.523438 203.234375 C 355.707031 220 365.542969 242.339844 365.542969 266.953125 C 365.542969 267.167969 365.535156 267.375 365.535156 267.59375 C 365.5 272.496094 365.066406 277.3125 364.273438 282 C 363.84375 284.628906 363.292969 287.230469 362.628906 289.777344 C 361.339844 294.710938 359.648438 299.480469 357.589844 304.070313 C 354.410156 311.144531 350.351563 317.765625 345.527344 323.816406 C 342.953125 327.054688 340.183594 330.132813 337.203125 333.023438 C 336.726563 333.480469 336.222656 333.921875 335.746094 334.363281 C 334.898438 335.144531 334.054688 335.921875 333.179688 336.667969 C 329.472656 339.871094 325.492188 342.804688 321.300781 345.433594 C 321.011719 345.613281 320.734375 345.785156 320.445313 345.964844 C 316.195313 348.566406 311.722656 350.867188 307.0625 352.820313 C 300.914063 355.394531 294.445313 357.386719 287.710938 358.699219 C 283.066406 359.597656 278.308594 360.191406 273.445313 360.425781 C 271.765625 360.507813 270.070313 360.554688 268.371094 360.554688 C 265.582031 360.554688 262.828125 360.417969 260.101563 360.191406 C 255.238281 359.796875 250.496094 359.058594 245.871094 358.007813 C 228.007813 353.929688 212.058594 345.117188 199.539063 333.023438 C 183.796875 317.792969 173.539063 297.480469 171.566406 274.882813 C 171.34375 272.261719 171.199219 269.625 171.199219 266.953125 C 171.199219 264.765625 171.296875 262.605469 171.449219 260.464844 C 171.65625 257.59375 171.980469 254.757813 172.449219 251.960938 C 173.277344 247.019531 174.511719 242.203125 176.113281 237.550781 C 180.898438 223.609375 188.980469 211.097656 199.539063 200.875 C 202.878906 197.652344 206.460938 194.664063 210.257813 191.929688 C 214.117188 189.148438 218.203125 186.644531 222.480469 184.433594 L 215.917969 171.644531 L 204.992188 150.367188 L 198.433594 137.570313 C 194.15625 139.738281 190.007813 142.097656 185.992188 144.644531 C 177.289063 150.152344 169.199219 156.496094 161.875 163.578125 C 141.371094 183.378906 126.703125 208.9375 120.652344 237.550781 L 94.527344 237.550781 C 100.871094 202.40625 118.378906 170.960938 143.476563 146.695313 C 152.882813 137.597656 163.367188 129.53125 174.707031 122.664063 C 178.777344 120.199219 182.953125 117.894531 187.234375 115.742188 L 180.664063 102.953125 C 176.390625 105.097656 172.207031 107.402344 168.128906 109.839844 C 155.582031 117.355469 144 126.230469 133.613281 136.273438 C 105.847656 163.09375 86.554688 198.257813 80.054688 237.550781 C 79.273438 242.300781 78.667969 247.097656 78.265625 251.960938 L 132.75 251.960938 C 133.324219 247.070313 134.171875 242.265625 135.289063 237.550781 C 141.074219 213.089844 153.925781 191.226563 171.738281 174 C 178.09375 167.863281 185.074219 162.328125 192.582031 157.484375 L 203.644531 179.039063 C 198.675781 182.488281 193.996094 186.296875 189.683594 190.460938 C 176.382813 203.304688 166.410156 219.46875 161.144531 237.550781 C 159.777344 242.238281 158.722656 247.046875 158.023438 251.960938 C 157.609375 254.867188 157.292969 257.800781 157.121094 260.769531 C 157.003906 262.820313 156.925781 264.875 156.925781 266.953125 C 156.925781 269.726563 157.066406 272.460938 157.285156 275.1875 C 159.355469 301.808594 171.367188 325.769531 189.683594 343.445313 C 204.722656 357.988281 224.035156 368.355469 245.601563 372.703125 L 245.457031 380.488281 L 245.1875 395.085938 L 245.160156 396.660156 L 244.890625 411.214844 L 244.449219 435.621094 C 233.207031 434.15625 222.308594 431.671875 211.851563 428.269531 L 221.769531 405.851563 L 227.628906 392.601563 C 223.019531 391.214844 218.519531 389.585938 214.144531 387.761719 L 208.324219 400.917969 L 198.433594 423.28125 C 192.3125 420.726563 186.382813 417.863281 180.648438 414.695313 L 193.175781 393.546875 L 200.503906 381.164063 C 196.308594 378.839844 192.265625 376.3125 188.371094 373.585938 L 181.027344 385.988281 L 168.425781 407.253906 C 162.351563 403.222656 156.5625 398.828125 151.074219 394.121094 L 167.335938 375.339844 L 176.734375 364.484375 C 175.023438 363 173.359375 361.472656 171.738281 359.90625 C 169.921875 358.140625 168.164063 356.324219 166.453125 354.46875 L 157.015625 365.367188 L 140.578125 384.339844 C 130.230469 373.863281 121.273438 362.117188 113.949219 349.394531 L 135.316406 335.660156 L 147.375 327.902344 C 145.070313 323.671875 143 319.296875 141.183594 314.804688 C 136.222656 302.558594 133.117188 289.433594 132.183594 275.726563 L 150.550781 275.332031 C 150.34375 272.558594 150.238281 269.769531 150.238281 266.953125 C 150.238281 264.929688 150.308594 262.910156 150.417969 260.914063 L 131.992188 261.308594 L 117.710938 261.617188 C 117.648438 263.390625 117.601563 265.160156 117.601563 266.953125 C 117.601563 270.003906 117.71875 273.027344 117.910156 276.035156 C 118.953125 292.449219 122.796875 308.136719 128.980469 322.644531 L 107.296875 336.585938 C 98.695313 318.101563 93.417969 297.867188 92.1875 276.582031 C 92.007813 273.398438 91.898438 270.183594 91.898438 266.953125 C 91.898438 265.351563 91.925781 263.757813 91.972656 262.175781 L 77.695313 262.480469 C 77.660156 263.964844 77.632813 265.460938 77.632813 266.953125 C 77.632813 270.28125 77.734375 273.605469 77.914063 276.890625 C 79.226563 300.890625 85.285156 323.671875 95.175781 344.378906 C 97.253906 348.726563 99.503906 352.984375 101.90625 357.140625 C 109.972656 371.054688 119.816406 383.84375 131.164063 395.210938 C 131.976563 396.023438 132.785156 396.832031 133.613281 397.632813 C 136.222656 400.152344 138.914063 402.59375 141.679688 404.96875 C 147.808594 410.242188 154.285156 415.15625 161.089844 419.636719 C 165.058594 422.257813 169.136719 424.742188 173.3125 427.070313 C 179.53125 430.535156 185.976563 433.660156 192.609375 436.441406 C 196.992188 438.277344 201.457031 439.96875 206 441.488281 C 218.214844 445.574219 230.984375 448.511719 244.179688 450.128906 C 248.878906 450.707031 253.628906 451.109375 258.425781 451.355469 L 258.695313 436.925781 L 259.136719 412.699219 L 259.398438 398.273438 L 259.433594 396.75 L 259.695313 382.316406 L 259.839844 374.621094 C 262.65625 374.828125 265.5 374.972656 268.371094 374.972656 C 270.070313 374.972656 271.765625 374.917969 273.445313 374.84375 L 273.445313 451.535156 C 278.242188 451.40625 283.003906 451.121094 287.710938 450.660156 L 287.710938 373.316406 C 298.351563 371.507813 308.476563 368.246094 317.863281 363.730469 C 322.351563 361.570313 326.683594 359.140625 330.804688 356.429688 C 331.46875 355.988281 332.117188 355.53125 332.773438 355.082031 C 336.816406 352.300781 340.660156 349.265625 344.277344 346 C 345.203125 345.171875 346.132813 344.335938 347.03125 343.472656 L 347.058594 343.445313 C 350.503906 340.121094 353.710938 336.558594 356.679688 332.816406 C 363.457031 324.28125 368.972656 314.742188 372.90625 304.4375 L 406.261719 305.238281 C 401.074219 322.636719 392.445313 338.636719 381.097656 352.523438 C 378.070313 356.222656 374.839844 359.777344 371.4375 363.171875 C 370.933594 363.675781 370.449219 364.179688 369.945313 364.675781 C 369.40625 365.195313 368.855469 365.699219 368.308594 366.214844 C 364.769531 369.527344 361.054688 372.65625 357.183594 375.609375 L 368.414063 385.050781 L 382.429688 396.839844 L 393.597656 406.226563 C 396.871094 403.464844 400.050781 400.601563 403.128906 397.632813 C 403.523438 397.246094 403.902344 396.859375 404.296875 396.472656 L 393.273438 387.203125 L 379.359375 375.503906 M 206.46875 133.761719 L 211.734375 147.171875 C 216.0625 145.265625 220.527344 143.570313 225.089844 142.097656 C 238.679688 137.722656 253.234375 135.347656 268.371094 135.347656 C 289.699219 135.347656 309.851563 140.054688 327.808594 148.441406 L 315.0625 168.878906 C 300.84375 162.507813 285.03125 158.933594 268.371094 158.933594 C 256.3125 158.933594 244.683594 160.824219 233.792969 164.261719 C 229.210938 165.710938 224.757813 167.421875 220.464844 169.410156 L 225.730469 182.828125 C 230.003906 180.8125 234.449219 179.09375 239.058594 177.691406 C 248.300781 174.875 258.148438 173.351563 268.371094 173.351563 C 282.257813 173.351563 295.441406 176.171875 307.367188 181.210938 C 311.8125 183.089844 316.078125 185.285156 320.148438 187.753906 L 327.753906 175.566406 L 340.460938 155.183594 L 348.074219 142.988281 C 343.996094 140.519531 339.796875 138.234375 335.464844 136.15625 C 315.242188 126.410156 292.453125 120.929688 268.371094 120.929688 C 251.398438 120.929688 235.0625 123.644531 219.816406 128.667969 L 210.90625 105.953125 C 228.90625 99.976563 248.238281 96.71875 268.371094 96.71875 C 297.242188 96.71875 324.46875 103.40625 348.507813 115.25 C 352.808594 117.363281 357.003906 119.660156 361.097656 122.097656 L 368.703125 109.902344 C 364.617188 107.445313 360.433594 105.140625 356.148438 102.992188 C 329.859375 89.769531 299.996094 82.300781 268.371094 82.300781 C 246.402344 82.300781 225.296875 85.910156 205.632813 92.542969 C 201.105469 94.0625 196.648438 95.753906 192.277344 97.601563 L 197.53125 111 L 206.46875 133.761719 "/>
<path style=" stroke:none;fill-rule:nonzero;fill:rgb(3.898621%,7.798767%,14.099121%);fill-opacity:1;" d="M 371.914063 193.808594 L 356.535156 182.523438 L 357.121094 181.722656 L 357.894531 182.300781 C 359.144531 183.21875 360.136719 183.722656 360.882813 183.828125 C 361.039063 183.851563 361.191406 183.859375 361.339844 183.859375 C 361.894531 183.859375 362.394531 183.71875 362.824219 183.433594 C 363.382813 183.0625 364.328125 181.964844 365.6875 180.121094 L 376.792969 164.984375 C 377.792969 163.632813 378.34375 162.742188 378.460938 162.308594 C 378.574219 161.867188 378.550781 161.410156 378.367188 160.914063 C 378.1875 160.421875 377.875 160.007813 377.414063 159.664063 C 376.675781 159.125 375.625 158.699219 374.238281 158.394531 L 374.417969 157.332031 L 388.773438 160.3125 L 389.484375 160.835938 L 371.953125 184.730469 C 370.636719 186.519531 369.871094 187.726563 369.664063 188.339844 C 369.46875 188.949219 369.496094 189.597656 369.765625 190.28125 C 370.035156 190.964844 370.726563 191.714844 371.835938 192.523438 L 372.5 193.019531 L 371.914063 193.808594 "/>
<path style=" stroke:none;fill-rule:nonzero;fill:rgb(3.898621%,7.798767%,14.099121%);fill-opacity:1;" d="M 387.726563 204.035156 C 385.875 204.035156 383.992188 203.785156 382.078125 203.285156 C 378.027344 202.226563 374.191406 200.011719 370.574219 196.652344 L 371.097656 196.121094 C 373.671875 197.734375 376.15625 198.804688 378.539063 199.316406 C 379.726563 199.578125 380.894531 199.707031 382.042969 199.707031 C 383.199219 199.707031 384.339844 199.574219 385.460938 199.308594 C 387.675781 198.785156 389.851563 197.796875 391.984375 196.347656 C 390.796875 195.96875 389.851563 195.582031 389.140625 195.195313 C 388.441406 194.808594 387.78125 194.3125 387.179688 193.710938 C 385.234375 191.765625 384.316406 189.453125 384.417969 186.761719 C 384.523438 184.082031 385.785156 181.515625 388.214844 179.078125 C 389.90625 177.394531 391.796875 176.195313 393.902344 175.484375 C 395.113281 175.074219 396.320313 174.871094 397.523438 174.871094 C 398.40625 174.871094 399.28125 174.980469 400.15625 175.199219 C 402.238281 175.71875 403.972656 176.683594 405.378906 178.078125 C 406.871094 179.570313 407.863281 181.417969 408.347656 183.613281 C 408.824219 185.800781 408.652344 188.105469 407.824219 190.523438 C 406.996094 192.945313 405.550781 195.195313 403.46875 197.273438 C 400.777344 199.976563 397.546875 201.917969 393.796875 203.097656 C 391.8125 203.722656 389.789063 204.035156 387.726563 204.035156 M 401.929688 178.164063 C 401.734375 178.164063 401.535156 178.1875 401.328125 178.230469 C 400.09375 178.484375 398.4375 179.660156 396.34375 181.75 C 392.859375 185.25 390.871094 188.066406 390.382813 190.226563 C 390.070313 191.621094 390.375 192.785156 391.292969 193.703125 C 391.789063 194.1875 392.632813 194.636719 393.847656 195.042969 C 395.386719 193.757813 396.683594 192.578125 397.753906 191.507813 C 400.050781 189.203125 401.914063 186.808594 403.363281 184.296875 C 404.152344 182.894531 404.503906 181.640625 404.433594 180.535156 C 404.386719 179.941406 404.117188 179.390625 403.613281 178.886719 C 403.132813 178.40625 402.566406 178.164063 401.929688 178.164063 "/>
<path style=" stroke:none;fill-rule:nonzero;fill:rgb(3.898621%,7.798767%,14.099121%);fill-opacity:1;" d="M 399.058594 230.757813 C 396.894531 230.757813 394.949219 230.207031 393.210938 229.117188 C 391.429688 228 390.078125 226.523438 389.152344 224.699219 C 388.152344 222.710938 387.765625 220.59375 388.007813 218.363281 C 388.242188 216.128906 389.179688 214.007813 390.796875 212 C 392.417969 209.992188 394.460938 208.371094 396.925781 207.121094 C 400.246094 205.449219 403.722656 204.605469 407.359375 204.605469 C 407.695313 204.605469 408.035156 204.613281 408.375 204.628906 C 412.378906 204.789063 416.113281 206.003906 419.578125 208.273438 C 423.054688 210.539063 425.863281 213.773438 428.011719 217.949219 L 427.347656 218.289063 C 425.160156 215.777344 423.054688 213.941406 421.019531 212.78125 C 418.984375 211.628906 416.898438 210.953125 414.738281 210.773438 C 414.289063 210.738281 413.824219 210.71875 413.351563 210.71875 C 411.554688 210.71875 409.582031 210.984375 407.4375 211.511719 C 408.265625 211.972656 408.871094 212.402344 409.246094 212.789063 C 410.085938 213.664063 410.769531 214.628906 411.300781 215.671875 C 412.523438 218.09375 412.660156 220.550781 411.714844 223.050781 C 410.769531 225.554688 408.789063 227.570313 405.746094 229.097656 C 403.613281 230.179688 401.4375 230.726563 399.214844 230.753906 C 399.160156 230.757813 399.109375 230.757813 399.058594 230.757813 M 405.351563 212.179688 C 403.082031 213.160156 401.445313 213.90625 400.429688 214.429688 C 398.242188 215.535156 396.226563 216.8125 394.378906 218.273438 C 392.542969 219.730469 391.390625 221.035156 390.933594 222.179688 C 390.617188 223.007813 390.636719 223.769531 390.996094 224.492188 C 391.363281 225.21875 392.121094 225.652344 393.253906 225.796875 C 393.367188 225.808594 393.488281 225.816406 393.613281 225.816406 C 394.773438 225.816406 396.527344 225.226563 398.878906 224.039063 C 403.273438 221.828125 406.027344 219.757813 407.160156 217.847656 C 407.898438 216.625 407.96875 215.429688 407.386719 214.265625 C 407.070313 213.628906 406.386719 212.933594 405.351563 212.179688 "/>
<path style=" stroke:none;fill-rule:nonzero;fill:rgb(3.898621%,7.798767%,14.099121%);fill-opacity:1;" d="M 411.089844 259.167969 C 409.839844 259.167969 408.574219 259.070313 407.296875 258.871094 C 403.40625 258.277344 399.871094 256.601563 396.710938 253.867188 C 393.542969 251.121094 391.078125 247.449219 389.3125 242.832031 L 390.015625 242.597656 C 391.617188 245.171875 393.371094 247.226563 395.28125 248.746094 C 397.195313 250.265625 399.265625 251.285156 401.488281 251.789063 C 402.796875 252.089844 404.152344 252.238281 405.566406 252.238281 C 406.570313 252.238281 407.597656 252.160156 408.652344 252.011719 C 407.753906 251.148438 407.078125 250.394531 406.621094 249.726563 C 406.160156 249.070313 405.792969 248.332031 405.511719 247.523438 C 404.621094 244.929688 404.820313 242.445313 406.105469 240.078125 C 407.386719 237.710938 409.652344 235.976563 412.902344 234.859375 C 414.542969 234.304688 416.160156 234.023438 417.761719 234.023438 C 418.375 234.023438 418.980469 234.066406 419.589844 234.148438 C 421.792969 234.4375 423.710938 235.273438 425.332031 236.660156 C 426.96875 238.035156 428.101563 239.664063 428.742188 241.535156 C 429.425781 243.542969 429.496094 245.640625 428.96875 247.820313 C 428.425781 249.996094 427.257813 251.984375 425.4375 253.785156 C 423.628906 255.59375 421.335938 256.972656 418.554688 257.925781 C 416.132813 258.753906 413.640625 259.167969 411.089844 259.167969 M 423.980469 239.773438 C 422.769531 239.773438 421.113281 240.128906 419.011719 240.851563 C 414.351563 242.445313 411.316406 244.101563 409.921875 245.820313 C 409.03125 246.9375 408.789063 248.105469 409.210938 249.339844 C 409.4375 249.996094 409.996094 250.769531 410.914063 251.660156 C 412.855469 251.195313 414.539063 250.707031 415.980469 250.222656 C 419.039063 249.167969 421.785156 247.835938 424.1875 246.226563 C 425.511719 245.324219 426.382813 244.355469 426.808594 243.328125 C 427.039063 242.777344 427.03125 242.167969 426.808594 241.492188 C 426.519531 240.65625 425.925781 240.113281 425.042969 239.890625 C 424.738281 239.8125 424.386719 239.773438 423.980469 239.773438 "/>
<path style=" stroke:none;fill-rule:nonzero;fill:rgb(3.898621%,7.798767%,14.099121%);fill-opacity:1;" d="M 35.101563 402.574219 C 32.65625 402.574219 30.828125 401.550781 29.601563 399.28125 L 19.46875 380.488281 L 30.078125 373.601563 C 29.609375 375.1875 29.132813 376.761719 30.238281 378.8125 L 35.675781 388.886719 C 36.179688 389.820313 36.570313 390.269531 37.203125 390.269531 C 37.664063 390.269531 38.257813 390.027344 39.121094 389.558594 L 42.886719 387.535156 C 44.847656 386.472656 45.089844 385.90625 44.21875 384.277344 L 39.628906 375.78125 C 37.394531 371.640625 39.257813 368.546875 48.394531 363.621094 L 60.597656 357.035156 C 65.265625 354.515625 69.050781 353.28125 71.84375 353.28125 C 74.15625 353.28125 75.792969 354.128906 76.6875 355.792969 L 87.121094 375.132813 L 76.761719 381.875 C 77.175781 379.992188 77.355469 378.6875 76.273438 376.679688 L 71.046875 366.996094 C 70.53125 366.050781 70.105469 365.601563 69.449219 365.601563 C 68.980469 365.601563 68.394531 365.832031 67.570313 366.277344 L 64.492188 367.933594 C 62.453125 369.039063 62.316406 369.605469 63.1875 371.226563 L 67.175781 378.617188 C 69.570313 383.054688 67.789063 387.101563 59.839844 391.386719 L 46.53125 398.578125 C 41.832031 401.113281 38.027344 402.574219 35.101563 402.574219 "/>
<path style=" stroke:none;fill-rule:nonzero;fill:rgb(3.898621%,7.798767%,14.099121%);fill-opacity:1;" d="M 63.621094 446.996094 L 54.042969 434.730469 C 56.230469 433.75 56.601563 433.597656 57.671875 432.761719 C 58.816406 431.859375 60.183594 430.609375 61.074219 429.546875 L 66.304688 423.320313 L 57.914063 412.574219 L 49.90625 416.183594 C 48.808594 416.667969 47.71875 417.324219 46.726563 418.109375 C 45.042969 419.421875 44.917969 419.574219 43.621094 421.382813 L 38.222656 414.472656 C 43.101563 412.996094 44.839844 412.382813 49.273438 410.332031 L 93.546875 390.109375 L 95.464844 386.894531 L 104.09375 397.9375 L 68.679688 439.609375 C 66.574219 442.109375 64.800781 444.730469 63.621094 446.996094 M 86.957031 399.011719 L 67.507813 408.152344 L 73.152344 415.382813 L 86.957031 399.011719 "/>
<path style=" stroke:none;fill-rule:nonzero;fill:rgb(3.898621%,7.798767%,14.099121%);fill-opacity:1;" d="M 93.28125 472.238281 C 91.496094 472.238281 89.851563 471.492188 88.234375 470.019531 L 70.390625 453.800781 C 72.460938 452.40625 74.304688 450.941406 78.289063 446.558594 L 105.6875 416.40625 C 109.664063 412.03125 110.941406 410.042969 112.148438 407.855469 L 129.988281 424.074219 C 134.875 428.511719 133.199219 433.8125 124.722656 443.144531 L 106.714844 462.964844 C 101.046875 469.203125 96.878906 472.238281 93.28125 472.238281 M 114.703125 424.085938 L 86.785156 454.808594 L 91.339844 458.957031 C 91.835938 459.40625 92.253906 459.648438 92.703125 459.648438 C 93.566406 459.648438 94.542969 458.757813 96.390625 456.726563 L 117.53125 433.460938 C 120.328125 430.375 120.707031 429.527344 119.269531 428.222656 L 114.703125 424.085938 "/>
<path style=" stroke:none;fill-rule:nonzero;fill:rgb(3.898621%,7.798767%,14.099121%);fill-opacity:1;" d="M 129.386719 498.261719 C 127.96875 498.261719 126.546875 497.769531 125.0625 496.8125 L 104.8125 483.734375 C 106.613281 482.015625 108.207031 480.269531 111.421875 475.304688 L 133.523438 441.074219 C 136.738281 436.109375 137.671875 433.9375 138.5 431.589844 L 158.75 444.667969 C 164.296875 448.25 163.511719 453.746094 156.671875 464.339844 L 142.144531 486.832031 C 137.128906 494.589844 133.269531 498.261719 129.386719 498.261719 M 143.675781 447.179688 L 121.148438 482.042969 L 126.324219 485.390625 C 126.796875 485.695313 127.191406 485.863281 127.570313 485.863281 C 128.5 485.863281 129.328125 484.855469 130.941406 482.367188 L 147.996094 455.960938 C 150.253906 452.460938 150.488281 451.570313 148.851563 450.515625 L 143.675781 447.179688 "/>
<path style=" stroke:none;fill-rule:nonzero;fill:rgb(3.898621%,7.798767%,14.099121%);fill-opacity:1;" d="M 183.820313 523.535156 C 183.078125 523.535156 182.300781 523.386719 181.476563 523.082031 L 161.433594 515.75 L 164.816406 503.554688 C 165.511719 505.046875 166.203125 506.542969 168.390625 507.34375 L 179.136719 511.277344 C 179.667969 511.472656 180.082031 511.585938 180.425781 511.585938 C 181.195313 511.585938 181.605469 511.007813 182.160156 509.492188 L 183.628906 505.480469 C 184.402344 503.382813 184.203125 502.796875 182.476563 502.167969 L 173.410156 498.847656 C 168.992188 497.226563 168.328125 493.679688 171.890625 483.933594 L 176.660156 470.902344 C 179.550781 463.019531 182.914063 459.019531 186.304688 459.019531 C 186.828125 459.019531 187.355469 459.117188 187.882813 459.308594 L 208.511719 466.859375 L 205.234375 478.785156 C 204.300781 477.09375 203.5625 476.003906 201.421875 475.222656 L 191.089844 471.433594 C 190.574219 471.246094 190.164063 471.140625 189.820313 471.140625 C 189 471.140625 188.554688 471.726563 188.011719 473.195313 L 186.8125 476.480469 C 186.011719 478.667969 186.289063 479.183594 188.019531 479.8125 L 195.894531 482.699219 C 200.636719 484.429688 201.988281 488.648438 198.882813 497.117188 L 193.679688 511.328125 C 190.835938 519.113281 187.886719 523.53125 183.820313 523.535156 "/>
<path style=" stroke:none;fill-rule:nonzero;fill:rgb(3.898621%,7.798767%,14.099121%);fill-opacity:1;" d="M 214.054688 531.785156 L 200.546875 529.121094 C 201.582031 526.855469 202.410156 524.648438 203.5625 518.84375 L 211.4375 478.867188 C 212.589844 473.0625 212.652344 470.703125 212.265625 468.15625 L 237.203125 473.070313 C 241.722656 473.960938 244.421875 477.066406 241.984375 489.441406 L 240.109375 498.953125 C 238.003906 509.644531 234.972656 512.476563 231.273438 512.476563 C 230.6875 512.476563 230.089844 512.40625 229.472656 512.285156 L 217.386719 509.898438 L 215.171875 521.132813 C 214.027344 526.9375 213.957031 529.292969 214.054688 531.785156 M 223.128906 480.773438 L 219.375 499.808594 L 225.46875 501.015625 C 225.695313 501.074219 225.90625 501.105469 226.101563 501.105469 C 227.296875 501.105469 227.863281 499.878906 228.589844 496.191406 L 230.28125 487.625 C 231.121094 483.339844 230.902344 482.214844 229.222656 481.980469 L 223.128906 480.773438 "/>
<g clip-path="url(#clip1)" clip-rule="nonzero">
<path style=" stroke:none;fill-rule:nonzero;fill:rgb(3.898621%,7.798767%,14.099121%);fill-opacity:1;" d="M 270.902344 537.777344 C 270.8125 537.777344 270.722656 537.773438 270.628906 537.773438 L 252.882813 537.160156 C 247.84375 536.988281 245.195313 532.039063 245.65625 518.664063 L 246.535156 493.070313 C 246.988281 479.917969 249.871094 475.101563 254.757813 475.101563 C 254.84375 475.101563 254.929688 475.101563 255.015625 475.105469 L 272.761719 475.726563 C 277.804688 475.898438 280.449219 480.835938 279.988281 494.222656 L 279.109375 519.816406 C 278.65625 532.957031 275.777344 537.777344 270.902344 537.777344 M 260.839844 485.605469 C 259.371094 485.605469 258.601563 486.570313 258.507813 489.496094 L 257.355469 523.046875 C 257.246094 526.054688 257.992188 527.054688 259.542969 527.097656 L 264.679688 527.277344 C 264.722656 527.277344 264.761719 527.28125 264.804688 527.28125 C 266.273438 527.28125 267.042969 526.308594 267.148438 523.382813 L 268.300781 489.835938 C 268.398438 486.832031 267.660156 485.832031 266.101563 485.777344 L 260.964844 485.609375 C 260.921875 485.605469 260.882813 485.605469 260.839844 485.605469 "/>
</g>
<g clip-path="url(#clip2)" clip-rule="nonzero">
<path style=" stroke:none;fill-rule:nonzero;fill:rgb(3.898621%,7.798767%,14.099121%);fill-opacity:1;" d="M 291.070313 537.511719 C 291.339844 535.027344 291.429688 532.667969 290.671875 526.800781 L 285.488281 486.390625 C 284.734375 480.523438 284.058594 478.265625 282.878906 475.96875 L 308.1875 472.730469 C 308.679688 472.664063 309.148438 472.632813 309.601563 472.632813 C 314.113281 472.632813 316.714844 475.914063 317.914063 485.273438 L 319.363281 496.625 C 320.527344 505.667969 318.375 506.433594 315.925781 507.136719 L 322.335938 523.921875 C 323.800781 527.746094 324.78125 530.84375 326.097656 533.027344 L 312.957031 534.703125 L 303.949219 508.675781 L 300.339844 509.132813 L 302.410156 525.296875 C 303.164063 531.164063 303.847656 533.425781 304.730469 535.757813 L 291.070313 537.511719 M 304.347656 483.617188 C 304.1875 483.617188 304.011719 483.632813 303.820313 483.65625 L 297.179688 484.5 L 299.023438 498.9375 L 305.667969 498.082031 C 307.160156 497.894531 307.53125 497.363281 307.152344 494.375 L 306.1875 486.867188 C 305.851563 484.269531 305.433594 483.617188 304.347656 483.617188 "/>
</g>
<path style=" stroke:none;fill-rule:nonzero;fill:rgb(3.898621%,7.798767%,14.099121%);fill-opacity:1;" d="M 343.917969 528.449219 C 343.800781 525.953125 343.519531 523.613281 341.882813 517.925781 L 330.453125 478.417969 L 325.285156 479.910156 C 323.179688 480.523438 322.542969 481.613281 321.742188 483.566406 L 319.113281 470.992188 L 347.453125 462.792969 L 351.945313 474.824219 C 350.691406 473.941406 349.753906 473.390625 348.527344 473.390625 C 348.070313 473.390625 347.570313 473.464844 347.003906 473.628906 L 341.828125 475.132813 L 353.25 514.640625 C 354.898438 520.328125 355.914063 522.453125 357.148438 524.621094 L 343.917969 528.449219 "/>
<path style=" stroke:none;fill-rule:nonzero;fill:rgb(3.898621%,7.798767%,14.099121%);fill-opacity:1;" d="M 376.828125 517.863281 L 370.648438 506.828125 C 371.589844 507.175781 372.53125 507.523438 373.601563 507.523438 C 374.285156 507.523438 375.027344 507.382813 375.859375 507 L 386.261719 502.230469 C 387.9375 501.457031 388.132813 500.945313 387.160156 498.828125 L 385.378906 494.949219 C 384.761719 493.589844 384.304688 493.015625 383.570313 493.015625 C 383.207031 493.015625 382.773438 493.15625 382.222656 493.410156 L 373.445313 497.433594 C 372.492188 497.871094 371.601563 498.109375 370.746094 498.109375 C 367.777344 498.109375 365.234375 495.234375 361.871094 487.902344 L 356.085938 475.292969 C 352.042969 466.472656 352.105469 460.902344 355.894531 459.15625 L 375.875 450.003906 L 381.941406 460.777344 C 380.980469 460.496094 380.164063 460.289063 379.316406 460.289063 C 378.53125 460.289063 377.71875 460.46875 376.722656 460.921875 L 366.714844 465.519531 C 365.03125 466.285156 364.84375 466.90625 365.769531 468.929688 L 367.226563 472.109375 C 367.863281 473.492188 368.324219 474.042969 369.035156 474.042969 C 369.410156 474.042969 369.855469 473.894531 370.429688 473.628906 L 378.0625 470.128906 C 379.160156 469.625 380.222656 469.359375 381.25 469.359375 C 384.519531 469.359375 387.476563 472.03125 390.328125 478.273438 L 396.640625 492.023438 C 400.726563 500.933594 401.398438 506.605469 396.234375 508.972656 L 376.828125 517.863281 "/>
<path style=" stroke:none;fill-rule:nonzero;fill:rgb(3.898621%,7.798767%,14.099121%);fill-opacity:1;" d="M 431.898438 486.738281 C 428.40625 486.738281 424.070313 483.453125 418.203125 475.5625 L 402.910156 455.015625 C 394.921875 444.28125 394.289063 438.707031 398.332031 435.703125 L 413.28125 424.578125 L 421.144531 433.605469 C 419.515625 433.605469 418.175781 433.757813 416.339844 435.117188 L 409.535156 440.183594 C 408.285156 441.113281 408.238281 442.355469 410.039063 444.765625 L 430.074219 471.695313 C 431.265625 473.300781 432.199219 473.976563 433.054688 473.976563 C 433.484375 473.976563 433.898438 473.804688 434.3125 473.492188 L 439.6875 469.496094 C 443.503906 466.664063 443.71875 465.65625 444.015625 463.378906 L 450.730469 474.097656 L 435.394531 485.507813 C 434.316406 486.308594 433.160156 486.738281 431.898438 486.738281 "/>
<path style=" stroke:none;fill-rule:nonzero;fill:rgb(3.898621%,7.798767%,14.099121%);fill-opacity:1;" d="M 456.226563 469.371094 C 454.976563 467.210938 453.652344 465.257813 449.566406 460.976563 L 421.460938 431.480469 C 417.382813 427.199219 415.492188 425.785156 413.398438 424.425781 L 423.367188 414.921875 C 424.621094 417.082031 425.941406 419.035156 430.027344 423.320313 L 458.40625 453.089844 L 465.570313 446.269531 C 466.550781 445.332031 468.035156 443.378906 467.847656 441.28125 L 475.605469 450.902344 L 456.226563 469.371094 "/>
<path style=" stroke:none;fill-rule:nonzero;fill:rgb(3.898621%,7.798767%,14.099121%);fill-opacity:1;" d="M 483.65625 438.03125 C 479.945313 438.03125 474.976563 435.476563 468.476563 430.484375 L 442.945313 410.855469 C 438.253906 407.246094 436.167969 406.136719 433.890625 405.121094 L 442.285156 394.195313 C 443.851563 396.140625 445.464844 397.859375 450.152344 401.46875 L 478.152344 422.984375 C 480.078125 424.464844 481.535156 425.199219 482.667969 425.199219 C 483.4375 425.199219 484.054688 424.859375 484.570313 424.191406 L 490.363281 416.648438 C 492.371094 414.03125 491.984375 413.429688 487.601563 410.0625 L 460.296875 389.074219 C 454.761719 384.816406 453.671875 384.160156 450.738281 383.195313 L 455.292969 377.265625 C 456.984375 379.847656 457.894531 380.738281 463.429688 384.988281 L 488.574219 404.328125 C 499.804688 412.960938 502.621094 417.566406 498.511719 422.914063 L 488.933594 435.378906 C 487.570313 437.152344 485.828125 438.03125 483.65625 438.03125 "/>
<path style=" stroke:none;fill-rule:nonzero;fill:rgb(3.898621%,7.798767%,14.099121%);fill-opacity:1;" d="M 510.757813 405.246094 C 508.886719 403.601563 507.007813 402.179688 501.777344 399.414063 L 465.730469 380.40625 C 460.492188 377.644531 458.253906 376.90625 455.839844 376.285156 L 467.695313 353.804688 C 469.222656 350.898438 471.324219 349.730469 473.882813 349.730469 C 476.429688 349.730469 479.433594 350.890625 482.769531 352.652344 L 489.042969 355.953125 C 495.988281 359.625 496.0625 362.40625 494.648438 366.539063 L 494.820313 366.628906 C 496.898438 364.28125 498.371094 363.019531 500.4375 363.019531 C 501.863281 363.019531 503.566406 363.617188 505.945313 364.871094 L 515.042969 369.671875 C 521.730469 373.199219 525.664063 376.976563 522.613281 382.765625 L 510.757813 405.246094 M 497.433594 374.175781 C 496.804688 374.175781 496.457031 374.554688 496.089844 375.25 L 492.875 381.34375 L 507.636719 389.128906 L 510.847656 383.035156 C 511.550781 381.703125 511.324219 381.089844 508.660156 379.6875 L 500.085938 375.160156 C 498.8125 374.488281 498.007813 374.175781 497.433594 374.175781 M 475.464844 362.59375 C 474.835938 362.59375 474.488281 362.96875 474.121094 363.667969 L 470.90625 369.761719 L 483.777344 376.546875 L 486.988281 370.453125 C 487.691406 369.121094 487.46875 368.507813 484.804688 367.105469 L 478.117188 363.578125 C 476.84375 362.90625 476.035156 362.59375 475.464844 362.59375 "/>
<path style=" stroke:none;fill-rule:nonzero;fill:rgb(3.898621%,7.798767%,14.099121%);fill-opacity:1;" d="M 40.535156 291.359375 L 25.054688 280.109375 L 9.566406 291.359375 L 15.480469 273.164063 L 0 261.902344 L 19.144531 261.902344 L 25.054688 243.707031 L 30.96875 261.902344 L 50.113281 261.902344 L 34.621094 273.164063 L 40.535156 291.359375 "/>
<g clip-path="url(#clip3)" clip-rule="nonzero">
<path style=" stroke:none;fill-rule:nonzero;fill:rgb(3.898621%,7.798767%,14.099121%);fill-opacity:1;" d="M 500.390625 268.121094 L 504.910156 249.519531 L 488.617188 239.476563 L 507.699219 238.027344 L 512.226563 219.425781 L 519.496094 237.128906 L 538.585938 235.679688 L 523.996094 248.070313 L 531.269531 265.773438 L 514.980469 255.730469 L 500.390625 268.121094 "/>
</g>
<path style=" stroke:none;fill-rule:nonzero;fill:rgb(3.898621%,7.798767%,14.099121%);fill-opacity:1;" d="M 523.601563 334.640625 L 510.210938 320.972656 L 493.066406 329.476563 L 501.9375 312.519531 L 488.546875 298.839844 L 507.421875 302.035156 L 516.285156 285.070313 L 519.085938 304.007813 L 537.957031 307.199219 L 520.8125 315.707031 L 523.601563 334.640625 "/>
<path style=" stroke:none;fill-rule:nonzero;fill:rgb(3.898621%,7.798767%,14.099121%);fill-opacity:1;" d="M 88.332031 182.292969 L 83.707031 173.8125 L 90.773438 171.886719 C 90.773438 171.886719 91.066406 166.144531 90.015625 163.542969 C 90.671875 163.410156 102.332031 161.832031 102.332031 161.832031 L 103.914063 170.625 L 97.195313 171.371094 L 97.710938 179.851563 L 88.332031 182.292969 "/>
<path style=" stroke:none;fill-rule:nonzero;fill:rgb(3.898621%,7.798767%,14.099121%);fill-opacity:1;" d="M 106.960938 130.003906 L 115.953125 129.230469 L 115.953125 121.394531 L 128.3125 121.941406 L 128.417969 130.902344 L 120.578125 130.644531 L 120.835938 138.480469 L 109.917969 138.738281 L 106.960938 130.003906 "/>
<path style=" stroke:none;fill-rule:nonzero;fill:rgb(3.898621%,7.798767%,14.099121%);fill-opacity:1;" d="M 388.839844 108.417969 C 389.351563 108.289063 398.730469 104.949219 398.730469 104.949219 L 403.613281 112.273438 L 414.40625 112.015625 L 416.71875 122.035156 L 404.257813 122.421875 L 402.585938 114.714844 L 392.308594 114.84375 L 388.839844 108.417969 "/>
<path style=" stroke:none;fill-rule:nonzero;fill:rgb(3.898621%,7.798767%,14.099121%);fill-opacity:1;" d="M 501.230469 161.003906 L 503.070313 148.582031 L 512.269531 148.121094 L 511.808594 158.242188 L 501.230469 161.003906 "/>
<path style=" stroke:none;fill-rule:nonzero;fill:rgb(3.898621%,7.798767%,14.099121%);fill-opacity:1;" d="M 152.878906 27.609375 C 152.878906 27.609375 151.554688 20.359375 152.613281 20.625 C 152.964844 20.710938 158.289063 20.800781 159.25 20.800781 C 159.25 20.800781 159.339844 22.546875 159.6875 23.070313 C 160.035156 23.59375 180.554688 45.683594 184.65625 50.574219 L 185.355469 62.273438 C 185.355469 62.273438 161.257813 32.675781 155.058594 28.222656 C 155.058594 28.222656 153.574219 27.609375 152.441406 27.609375 "/>
<path style=" stroke:none;fill-rule:nonzero;fill:rgb(3.898621%,7.798767%,14.099121%);fill-opacity:1;" d="M 271.707031 9.972656 C 272.015625 9.789063 305.84375 1.679688 308.988281 0.457031 C 312.132813 -0.765625 315.972656 0.542969 309.773438 3.164063 C 303.574219 5.78125 280.4375 12.59375 280.089844 12.765625 C 279.738281 12.941406 266.207031 13.203125 271.707031 9.972656 "/>
<path style=" stroke:none;fill-rule:nonzero;fill:rgb(3.898621%,7.798767%,14.099121%);fill-opacity:1;" d="M 354.304688 13.203125 C 352.121094 11.195313 353.691406 6.828125 353.691406 6.828125 C 353.691406 6.828125 341.730469 15.824219 343.5625 17.308594 C 345.394531 18.789063 346.359375 23.769531 346.359375 23.769531 C 346.269531 24.640625 342.429688 34.246094 342.078125 36.339844 C 341.730469 38.4375 340.332031 45.683594 338.5 47.34375 C 337.050781 48.652344 328.003906 45.558594 323.5625 43.808594 C 325.609375 28.875 315.625 20.710938 315.625 20.710938 L 308.640625 30.054688 C 308.640625 30.054688 312.042969 31.277344 314.3125 35.554688 C 315.222656 37.265625 315.636719 39.871094 315.839844 42.371094 C 312.859375 42.265625 308.957031 42.1875 304.933594 42.136719 C 305.535156 29.832031 294.144531 19.839844 294.144531 19.839844 L 289.257813 29.703125 C 289.257813 29.703125 292.226563 30.230469 294.496094 34.507813 C 295.492188 36.386719 295.898438 39.34375 296.078125 42.054688 C 290.273438 42.015625 285.625 42.015625 285.152344 42.015625 L 284.921875 42 C 287.398438 27.390625 275.109375 18.792969 275.109375 18.792969 L 270.222656 28.65625 C 270.222656 28.65625 273.191406 29.183594 275.460938 33.460938 C 276.3125 35.0625 276.734375 37.453125 276.949219 39.808594 C 269.089844 39.203125 232.316406 40.398438 224.660156 40.660156 C 224.984375 35.453125 215.566406 16.871094 215.566406 16.871094 L 209.542969 16.261719 L 210.152344 24.992188 C 220.28125 29.878906 217.75 39.484375 217.574219 40.355469 C 217.398438 41.230469 211.027344 47.777344 203.078125 49.613281 C 195.136719 51.445313 191.292969 43.324219 191.292969 43.324219 C 191.117188 49.175781 189.722656 62.273438 205.089844 60.964844 C 214.554688 60.15625 219.773438 52.726563 222.394531 47.136719 C 223.339844 48.714844 225.027344 51.113281 227.355469 52.84375 C 231.105469 55.636719 257.015625 49.324219 295.71875 53.015625 C 328.832031 56.175781 327.933594 60.964844 337.363281 59.652344 C 346.792969 58.34375 349.328125 34.507813 350.808594 30.230469 C 352.292969 25.949219 355.089844 22.546875 359.019531 20.976563 C 362.945313 19.402344 356.484375 15.210938 354.304688 13.203125 "/>
<path style=" stroke:none;fill-rule:nonzero;fill:rgb(3.898621%,7.798767%,14.099121%);fill-opacity:1;" d="M 166.480469 61.660156 C 165.882813 60.964844 152.554688 46.515625 146.941406 39.996094 L 146.941406 30.929688 C 138.820313 32.761719 131.3125 28.746094 131.3125 28.746094 C 131.3125 28.746094 127.558594 35.640625 131.050781 38.347656 C 132.753906 39.671875 136.582031 40.84375 140.054688 41.699219 L 158.101563 62.359375 L 158.164063 62.457031 L 145.730469 72.753906 C 138.324219 68.914063 125.519531 67.714844 125.519531 67.714844 L 129.59375 75.976563 C 129.59375 75.976563 140.53125 74.8125 145.417969 78.070313 C 150.304688 81.328125 146.792969 95.109375 145.535156 98.433594 C 144.5 101.164063 137.390625 113.5625 130.175781 115.773438 C 122.960938 117.984375 115.746094 115.191406 115.746094 115.191406 L 115.976563 116.472656 C 128.429688 120.429688 138.320313 117.402344 148.558594 111.117188 C 157.449219 105.660156 155.375 88.195313 151.703125 79.417969 L 167.296875 72.949219 L 167.1875 72.773438 C 167.46875 72.65625 167.683594 72.425781 167.761719 72.019531 C 168.109375 70.15625 167.179688 62.476563 166.480469 61.660156 "/>
<path style=" stroke:none;fill-rule:nonzero;fill:rgb(3.898621%,7.798767%,14.099121%);fill-opacity:1;" d="M 370.824219 27.449219 C 370.824219 27.449219 373.035156 21.164063 375.480469 19.535156 C 377.925781 17.90625 381.644531 16.160156 381.644531 16.160156 C 381.644531 16.160156 379.320313 24.191406 377.691406 29.777344 C 376.0625 35.359375 368.496094 55.492188 366.984375 57.585938 C 365.472656 59.683594 355.347656 65.035156 355.347656 65.035156 C 355.347656 65.035156 360.699219 52.933594 361.632813 50.371094 C 362.5625 47.8125 370.824219 27.449219 370.824219 27.449219 "/>
<path style=" stroke:none;fill-rule:nonzero;fill:rgb(3.898621%,7.798767%,14.099121%);fill-opacity:1;" d="M 47.933594 128.203125 C 47.464844 131.089844 42.945313 132.800781 40.335938 133.273438 C 38.894531 133.53125 37.03125 133.597656 35.753906 132.785156 C 34.242188 131.828125 32.410156 129.265625 32.570313 127.507813 C 32.769531 125.308594 38.21875 121.683594 40.226563 121.15625 C 44.222656 120.109375 48.632813 123.914063 47.933594 128.203125 "/>
<path style=" stroke:none;fill-rule:nonzero;fill:rgb(3.898621%,7.798767%,14.099121%);fill-opacity:1;" d="M 110.195313 111.40625 C 110.195313 111.40625 107.304688 118.425781 99.183594 111.265625 C 91.0625 104.109375 62.292969 84.425781 62.292969 84.425781 C 62.292969 84.425781 58.988281 78.78125 64.496094 80.847656 C 70 82.910156 96.292969 102.597656 96.292969 102.597656 C 96.292969 102.597656 100.007813 105.210938 102.625 102.730469 C 105.238281 100.253906 117.214844 89.382813 117.214844 89.382813 C 117.214844 89.382813 121.347656 85.113281 115.703125 84.839844 C 110.058594 84.5625 104.414063 84.839844 104.414063 84.839844 L 100.144531 76.992188 C 100.144531 76.992188 113.222656 78.367188 115.5625 78.507813 C 117.902344 78.644531 121.757813 81.398438 122.585938 83.046875 C 123.410156 84.699219 127.265625 90.757813 127.265625 90.757813 C 127.265625 90.757813 130.019531 94.199219 126.988281 96.675781 C 123.960938 99.152344 110.195313 111.40625 110.195313 111.40625 "/>
<path style=" stroke:none;fill-rule:nonzero;fill:rgb(3.898621%,7.798767%,14.099121%);fill-opacity:1;" d="M 467.449219 133.375 C 467.449219 133.375 487.667969 173.082031 489.304688 183.558594 C 490.941406 194.035156 495.199219 191.417969 496.507813 190.433594 C 497.816406 189.453125 501.707031 183.449219 503.019531 181.8125 C 504.328125 180.175781 513.945313 182.769531 515.253906 182.441406 C 515.253906 182.441406 508.292969 192.070313 505.019531 194.363281 C 501.746094 196.65625 500.109375 196.328125 493.558594 196.328125 C 487.011719 196.328125 477.515625 195.019531 477.515625 195.019531 C 477.515625 195.019531 470.347656 161.378906 450.292969 133.628906 C 450.292969 133.628906 485.738281 114.832031 487.753906 113.191406 C 489.773438 111.554688 488.890625 108.652344 488.261719 107.515625 C 487.628906 106.382813 505.039063 106.886719 505.039063 106.886719 L 504.53125 109.03125 L 467.449219 133.375 "/>
<path style=" stroke:none;fill-rule:nonzero;fill:rgb(3.898621%,7.798767%,14.099121%);fill-opacity:1;" d="M 436.796875 99.695313 C 436.796875 99.695313 433.644531 103.734375 433.644531 104.109375 C 433.644531 104.488281 434.523438 106.382813 435.789063 107.640625 C 437.050781 108.902344 444.871094 115.464844 445.753906 117.355469 C 446.128906 118.164063 448.402344 119.375 450.925781 118.113281 C 453.992188 116.578125 457.988281 108.652344 456.980469 99.570313 C 456.980469 99.570313 464.925781 98.308594 466.941406 97.046875 C 466.941406 97.046875 467.703125 107.515625 465.933594 111.554688 C 464.167969 115.589844 457.988281 122.527344 453.953125 123.03125 C 449.914063 123.535156 444.238281 125.679688 442.472656 125.429688 C 440.707031 125.175781 435.789063 121.140625 433.769531 119.121094 C 431.75 117.101563 420.019531 110.542969 424.6875 105.75 C 429.355469 100.957031 435.660156 98.433594 435.660156 98.433594 L 436.671875 99.191406 "/>
<path style=" stroke:none;fill-rule:nonzero;fill:rgb(3.898621%,7.798767%,14.099121%);fill-opacity:1;" d="M 448.152344 63.621094 C 437.933594 61.222656 415.355469 58.953125 407.785156 70.808594 C 400.21875 82.664063 407.910156 87.210938 414.597656 89.730469 C 421.285156 92.253906 421.535156 93.890625 418.257813 94.902344 C 414.976563 95.910156 397.945313 94.902344 390.125 88.597656 C 381.648438 81.757813 373.730469 72.703125 382.9375 65.511719 C 392.144531 58.320313 403.242188 49.113281 414.851563 52.773438 C 414.851563 52.773438 411.875 50.652344 407.398438 50.023438 C 410.40625 40.691406 433.519531 46.339844 433.519531 46.339844 C 433.519531 46.339844 421.410156 42.050781 413.210938 43.1875 C 407.503906 43.976563 404.980469 47.695313 403.96875 49.886719 C 402.929688 49.945313 401.84375 50.089844 400.722656 50.375 C 392.777344 52.394531 374.332031 64.65625 371.054688 70.964844 C 367.773438 77.273438 371.632813 84.820313 375.621094 89.984375 C 379.910156 95.535156 388.71875 99.523438 397.824219 101.585938 C 412.832031 104.992188 441.71875 94.269531 427.714844 84.179688 C 413.714844 74.089844 409.679688 76.359375 413.335938 72.195313 C 417.695313 67.238281 430.996094 66.394531 436.039063 67.53125 C 441.085938 68.664063 450.296875 71.566406 447.394531 77.242188 L 454.582031 71.691406 C 454.582031 71.691406 458.367188 66.019531 448.152344 63.621094 "/>
<path style=" stroke:none;fill-rule:nonzero;fill:rgb(3.898621%,7.798767%,14.099121%);fill-opacity:1;" d="M 476.699219 85.15625 C 476.699219 85.15625 467.761719 85.683594 471.703125 93.304688 C 471.703125 93.304688 470.917969 87.785156 476.699219 85.15625 "/>
<path style=" stroke:none;fill-rule:nonzero;fill:rgb(3.898621%,7.798767%,14.099121%);fill-opacity:1;" d="M 501.398438 135.613281 L 527.941406 147.964844 C 527.941406 147.964844 533.988281 148.226563 531.882813 146.648438 C 529.78125 145.074219 506.917969 135.613281 506.917969 135.613281 L 501.398438 135.613281 "/>
<path style=" stroke:none;fill-rule:nonzero;fill:rgb(3.898621%,7.798767%,14.099121%);fill-opacity:1;" d="M 66.132813 130.65625 C 67.308594 127.363281 69.675781 120.835938 78.046875 119.222656 C 86.421875 117.613281 83.757813 125.765625 83.757813 125.765625 L 69.816406 149.214844 C 68.6875 150.609375 66.667969 149.175781 66.667969 149.175781 C 66.667969 149.175781 64.617188 134.890625 66.132813 130.65625 Z M 64.492188 159.734375 C 71.808594 162.074219 78.050781 155.679688 78.050781 155.679688 C 78.050781 155.679688 88.550781 138.121094 91.488281 133.878906 C 94.425781 129.632813 92.410156 125.144531 92.410156 125.144531 L 84.644531 114.234375 C 83.152344 112.53125 75.601563 110.148438 65.632813 113.472656 C 55.746094 116.765625 57.15625 131.894531 58.28125 135.652344 C 59.800781 140.722656 63.097656 149.339844 65.632813 151.746094 C 67.03125 153.078125 63.207031 154.785156 61.578125 154.535156 C 59.929688 154.28125 54.730469 153.523438 51.691406 152.128906 C 49.757813 151.242188 44.71875 149.59375 44.71875 149.59375 C 44.71875 149.59375 45.023438 152.882813 44.59375 168.984375 C 44.164063 185.089844 62.84375 183.8125 63.859375 182.671875 C 64.871094 181.53125 68.308594 171.527344 69.941406 177.730469 C 71.574219 183.929688 64.664063 191.730469 55.851563 194.667969 C 47.039063 197.605469 32.351563 180.960938 32.351563 180.960938 C 32.351563 180.960938 30.066406 180.304688 31.046875 181.613281 C 32.023438 182.917969 40.511719 199.890625 55.851563 202.175781 C 71.195313 204.460938 78.703125 184.875 79.027344 181.285156 C 79.351563 177.695313 77.070313 171.820313 70.214844 166.925781 C 63.359375 162.027344 60.054688 166.957031 60.054688 166.957031 C 60.054688 166.957031 59.042969 171.519531 56.832031 174.105469 C 52.589844 179.066406 52.261719 170.1875 52.261719 170.1875 L 52.589844 156.480469 C 52.589844 156.480469 55.171875 156.753906 64.492188 159.734375 "/>
<path style=" stroke:none;fill-rule:nonzero;fill:rgb(3.898621%,7.798767%,14.099121%);fill-opacity:1;" d="M 26.679688 167.777344 C 26.679688 167.777344 29.667969 175.546875 34.050781 169.96875 C 34.050781 169.96875 29.46875 171.761719 26.679688 167.777344 "/>
<path style=" stroke:none;fill-rule:nonzero;fill:rgb(3.898621%,7.798767%,14.099121%);fill-opacity:1;" d="M 90.707031 70.976563 L 89.226563 70.378906 C 89.226563 70.378906 95.355469 49.265625 97.679688 45.480469 C 100.007813 41.695313 100.640625 42.890625 97.046875 51.058594 C 93.453125 59.226563 90.707031 70.976563 90.707031 70.976563 "/>
<path style=" stroke:none;fill-rule:nonzero;fill:rgb(3.898621%,7.798767%,14.099121%);fill-opacity:1;" d="M 110.140625 49.265625 C 110.140625 49.265625 112.925781 57.632813 114.519531 55.242188 C 116.113281 52.851563 115.316406 48.070313 115.316406 48.070313 C 115.316406 48.070313 118.902344 48.867188 119.699219 47.671875 C 120.496094 46.476563 118.304688 41.101563 118.304688 41.101563 C 118.304688 41.101563 123.671875 46.597656 121.492188 49.863281 C 120.296875 51.65625 116.515625 50.460938 116.515625 50.460938 C 116.515625 50.460938 117.707031 55.640625 115.316406 57.828125 C 112.929688 60.019531 109.941406 54.644531 110.140625 49.265625 "/>
<path style=" stroke:none;fill-rule:nonzero;fill:rgb(3.898621%,7.798767%,14.099121%);fill-opacity:1;" d="M 193 7.4375 C 193 7.4375 194.195313 13.015625 198.378906 12.417969 C 202.558594 11.820313 201.011719 7.007813 201.011719 7.007813 C 201.011719 7.007813 205.148438 8.632813 207.140625 7.039063 C 209.132813 5.445313 207.285156 1.882813 206.488281 1.882813 C 205.691406 1.882813 214.96875 3.652344 209.730469 9.230469 C 207.074219 12.054688 202.359375 9.429688 202.359375 9.429688 C 202.359375 9.429688 201.164063 15.804688 197.382813 16.398438 C 193.597656 16.996094 192.203125 11.621094 193 7.4375 "/>
<path style=" stroke:none;fill-rule:nonzero;fill:rgb(3.898621%,7.798767%,14.099121%);fill-opacity:1;" d="M 247.757813 2.449219 C 247.757813 2.449219 239.429688 11.679688 241.558594 13.746094 C 243.691406 15.8125 245.691406 13.164063 246.144531 12.324219 C 246.59375 11.488281 250.53125 6.066406 252.726563 8.777344 C 254.921875 11.488281 247.886719 19.941406 243.046875 19.363281 C 238.203125 18.78125 236.140625 12.132813 239.882813 8.519531 C 243.625 4.902344 247.757813 2.449219 247.757813 2.449219 "/>
<path style=" stroke:none;fill-rule:nonzero;fill:rgb(3.898621%,7.798767%,14.099121%);fill-opacity:1;" d="M 256.644531 57.996094 C 256.644531 57.996094 262.949219 65.597656 273.257813 65.183594 C 283.566406 64.773438 288.929688 60.648438 288.929688 60.648438 C 288.929688 60.648438 290.402344 66.1875 292.523438 66.1875 C 294.640625 66.1875 296.527344 63.300781 296.527344 63.300781 C 296.527344 63.300781 297.117188 66.421875 300.59375 66.421875 C 304.070313 66.421875 306.308594 60 306.308594 60 C 306.308594 60 300.417969 67.128906 297.058594 60.414063 C 297.058594 60.414063 291.167969 67.246094 290.519531 57.527344 C 290.519531 57.527344 269.015625 67.246094 256.644531 57.996094 "/>
<path style=" stroke:none;fill-rule:nonzero;fill:rgb(100%,100%,100%);fill-opacity:1;" d="M 266.417969 233.804688 C 242.839844 233.804688 223.726563 250.824219 223.726563 271.816406 C 223.726563 292.808594 242.839844 309.824219 266.417969 309.824219 C 289.996094 309.824219 309.109375 292.808594 309.109375 271.816406 C 309.109375 250.824219 289.996094 233.804688 266.417969 233.804688 "/>
<path style=" stroke:none;fill-rule:nonzero;fill:rgb(100%,100%,100%);fill-opacity:1;" d="M 321.304688 337.65625 C 313.472656 328.867188 296.761719 322.792969 277.40625 322.792969 C 252.769531 322.792969 232.429688 332.632813 229.222656 345.390625 C 241.097656 350.769531 254.363281 353.785156 268.371094 353.785156 C 288.097656 353.785156 306.351563 347.800781 321.304688 337.65625 "/>
<path style=" stroke:none;fill-rule:nonzero;fill:rgb(100%,100%,100%);fill-opacity:1;" d="M 323.015625 277.785156 C 315.132813 300.023438 318.300781 321.4375 330.089844 325.617188 C 331.648438 326.171875 333.285156 326.382813 334.964844 326.304688 C 350.472656 310.605469 359.996094 289.445313 359.996094 266.140625 C 359.996094 258.742188 359.023438 251.558594 357.21875 244.691406 C 345.601563 242.085938 330.589844 256.421875 323.015625 277.785156 "/>
<path style=" stroke:none;fill-rule:nonzero;fill:rgb(100%,100%,100%);fill-opacity:1;" d="M 268.371094 178.5 C 267.414063 178.5 266.464844 178.542969 265.511719 178.570313 C 265.363281 178.765625 265.210938 178.960938 265.078125 179.164063 C 257.660156 190.449219 269.070313 211.046875 290.5625 225.167969 C 312.054688 239.292969 339.671875 236.144531 343.292969 229.457031 C 345.144531 226.039063 345.558594 222.011719 344.707031 217.679688 C 328.292969 194.070313 300.238281 178.5 268.371094 178.5 "/>
<path style=" stroke:none;fill-rule:nonzero;fill:rgb(100%,100%,100%);fill-opacity:1;" d="M 178.328125 249.992188 C 188.171875 254.960938 210.261719 249.558594 227.609375 232.992188 C 246.386719 215.058594 253.539063 193.460938 244.140625 183.617188 C 243.601563 183.054688 243.015625 182.550781 242.394531 182.097656 C 209.714844 191.324219 184.65625 217.5 178.328125 249.992188 "/>
<path style=" stroke:none;fill-rule:nonzero;fill:rgb(100%,100%,100%);fill-opacity:1;" d="M 218.285156 339.519531 C 223.921875 328.226563 223.832031 310.789063 214.363281 292.75 C 204.328125 273.632813 188.765625 261.585938 176.816406 263.570313 C 176.789063 264.429688 176.746094 265.28125 176.746094 266.140625 C 176.746094 296.859375 193.28125 323.867188 218.285156 339.519531 "/>
<path style=" stroke:none;fill-rule:nonzero;fill:rgb(58.399963%,59.199524%,60.398865%);fill-opacity:1;" d="M 338.402344 219.449219 L 340.8125 213.414063 L 341.476563 213.679688 L 339.0625 219.714844 L 338.402344 219.449219 "/>
<path style=" stroke:none;fill-rule:nonzero;fill:rgb(58.399963%,59.199524%,60.398865%);fill-opacity:1;" d="M 185.089844 275.03125 L 193.535156 235.683594 L 194.234375 235.832031 L 185.785156 275.179688 L 185.089844 275.03125 "/>
<path style=" stroke:none;fill-rule:nonzero;fill:rgb(58.399963%,59.199524%,60.398865%);fill-opacity:1;" d="M 295.21875 349.75 L 304.394531 335.507813 L 304.992188 335.890625 L 295.820313 350.136719 L 295.21875 349.75 "/>
<path style=" stroke:none;fill-rule:nonzero;fill:rgb(58.399963%,59.199524%,60.398865%);fill-opacity:1;" d="M 354.625 258.335938 L 359.214844 257.851563 L 359.289063 258.5625 L 354.699219 259.046875 L 354.625 258.335938 "/>
<path style=" stroke:none;fill-rule:nonzero;fill:rgb(58.399963%,59.199524%,60.398865%);fill-opacity:1;" d="M 206.074219 295.289063 L 232.386719 285.636719 L 232.632813 286.304688 L 206.320313 295.960938 L 206.074219 295.289063 "/>
<path style=" stroke:none;fill-rule:nonzero;fill:rgb(58.399963%,59.199524%,60.398865%);fill-opacity:1;" d="M 267.996094 305.023438 L 296.964844 277.503906 L 297.457031 278.019531 L 268.488281 305.539063 L 267.996094 305.023438 "/>
<path style=" stroke:none;fill-rule:nonzero;fill:rgb(58.399963%,59.199524%,60.398865%);fill-opacity:1;" d="M 328.238281 281.925781 L 328.945313 281.808594 L 333.53125 309.570313 L 332.828125 309.6875 L 328.238281 281.925781 "/>
<path style=" stroke:none;fill-rule:nonzero;fill:rgb(58.399963%,59.199524%,60.398865%);fill-opacity:1;" d="M 269.636719 330.984375 L 269.742188 330.277344 L 304.746094 335.585938 L 304.636719 336.296875 L 269.636719 330.984375 "/>
<path style=" stroke:none;fill-rule:nonzero;fill:rgb(58.399963%,59.199524%,60.398865%);fill-opacity:1;" d="M 304.453125 335.4375 L 332.9375 309.605469 L 333.417969 310.132813 L 304.929688 335.964844 L 304.453125 335.4375 "/>
<path style=" stroke:none;fill-rule:nonzero;fill:rgb(58.399963%,59.199524%,60.398865%);fill-opacity:1;" d="M 333.09375 309.523438 L 349.992188 305.417969 L 350.164063 306.113281 L 333.261719 310.214844 L 333.09375 309.523438 "/>
<path style=" stroke:none;fill-rule:nonzero;fill:rgb(58.399963%,59.199524%,60.398865%);fill-opacity:1;" d="M 210.457031 324.097656 L 206.109375 295.558594 L 185.457031 275.859375 C 184.941406 276.4375 183.6875 277.839844 182.417969 279.296875 C 180.777344 281.148438 179.03125 283.273438 179.019531 283.425781 L 178.339844 283.203125 C 178.566406 282.632813 180.199219 280.769531 181.878906 278.828125 C 183.542969 276.921875 185.171875 275.109375 185.171875 275.109375 L 185.417969 274.839844 L 206.773438 295.207031 L 211.109375 323.644531 L 242.679688 341.101563 L 269.554688 330.398438 L 267.660156 305.746094 L 232.105469 286.394531 L 239.855469 251.28125 L 222.9375 226.628906 L 234.914063 195.34375 L 278.300781 192.417969 L 298.832031 219.464844 L 338.964844 218.980469 L 355.328125 258.546875 L 328.707031 282.722656 L 296.742188 278.332031 L 281.789063 251.320313 L 240.964844 251.5625 L 240.957031 250.851563 L 282.207031 250.605469 L 297.191406 277.675781 L 328.472656 281.96875 L 354.480469 258.351563 L 338.496094 219.699219 L 298.480469 220.183594 L 277.96875 193.152344 L 235.417969 196.023438 L 223.738281 226.535156 L 240.617188 251.132813 L 232.917969 286.027344 L 268.339844 305.304688 L 270.304688 330.863281 L 242.625 341.890625 L 210.457031 324.097656 "/>
<path style=" stroke:none;fill-rule:nonzero;fill:rgb(58.399963%,59.199524%,60.398865%);fill-opacity:1;" d="M 193.050781 236.144531 L 223.226563 226.003906 L 223.449219 226.679688 L 193.277344 236.816406 L 193.050781 236.144531 "/>
<path style=" stroke:none;fill-rule:nonzero;fill:rgb(58.399963%,59.199524%,60.398865%);fill-opacity:1;" d="M 277.671875 192.507813 L 291.429688 181.160156 L 291.882813 181.714844 L 278.121094 193.0625 L 277.671875 192.507813 "/>
<path style=" stroke:none;fill-rule:nonzero;fill:rgb(58.399963%,59.199524%,60.398865%);fill-opacity:1;" d="M 281.925781 251.523438 L 298.582031 219.898438 L 299.214844 220.230469 L 282.558594 251.855469 L 281.925781 251.523438 "/>
<path style=" stroke:none;fill-rule:nonzero;fill:rgb(58.399963%,59.199524%,60.398865%);fill-opacity:1;" d="M 215.113281 195.3125 L 215.148438 194.601563 L 234.945313 195.566406 L 234.910156 196.28125 L 215.113281 195.3125 "/>
<path style=" stroke:none;fill-rule:nonzero;fill:rgb(58.399963%,59.199524%,60.398865%);fill-opacity:1;" d="M 190.878906 219.636719 L 191.585938 219.53125 L 194 235.703125 L 193.292969 235.8125 L 190.878906 219.636719 "/>
<path style=" stroke:none;fill-rule:nonzero;fill:rgb(58.399963%,59.199524%,60.398865%);fill-opacity:1;" d="M 199.90625 324.238281 L 210.769531 323.757813 L 210.800781 324.46875 L 199.9375 324.953125 L 199.90625 324.238281 "/>
<path style=" stroke:none;fill-rule:nonzero;fill:rgb(58.399963%,59.199524%,60.398865%);fill-opacity:1;" d="M 242.316406 341.621094 L 242.984375 341.371094 L 246.605469 351.027344 L 245.9375 351.277344 L 242.316406 341.621094 "/>
<path style=" stroke:none;fill-rule:nonzero;fill:rgb(3.898621%,7.798767%,14.099121%);fill-opacity:1;" d="M 266.417969 313.980469 C 240.585938 313.980469 219.570313 295.066406 219.570313 271.816406 C 219.570313 248.5625 240.585938 229.648438 266.417969 229.648438 C 292.253906 229.648438 313.265625 248.5625 313.265625 271.816406 C 313.265625 295.066406 292.253906 313.980469 266.417969 313.980469 Z M 319.097656 276.398438 C 326.648438 255.097656 341.175781 240.21875 354.421875 240.21875 C 354.929688 240.21875 355.4375 240.246094 355.9375 240.289063 C 354.179688 234.832031 351.875 229.601563 349.089844 224.65625 C 348.789063 227.050781 348.089844 229.328125 346.949219 231.433594 C 343.816406 237.222656 333.277344 239.28125 324.460938 239.28125 C 316.992188 239.28125 302.363281 237.898438 288.28125 228.640625 C 277.332031 221.449219 268.480469 212.382813 263.34375 203.117188 C 258.261719 193.945313 257.296875 185.433594 260.503906 178.84375 C 255.984375 179.210938 251.5625 179.894531 247.253906 180.867188 C 258.292969 192.632813 251.109375 216.289063 230.480469 235.996094 C 217.800781 248.105469 200.800781 255.933594 187.164063 255.933594 C 183.523438 255.933594 180.300781 255.355469 177.609375 254.242188 C 177.371094 255.925781 177.1875 257.617188 177.050781 259.328125 C 177.835938 259.234375 178.632813 259.1875 179.445313 259.1875 C 192.808594 259.1875 207.960938 271.601563 218.042969 290.820313 C 228.769531 311.246094 227.933594 329.769531 221.875 341.65625 C 223.042969 342.3125 224.222656 342.953125 225.421875 343.558594 C 229.710938 329.222656 251 318.636719 277.40625 318.636719 C 298.382813 318.636719 316.121094 325.316406 324.691406 335.246094 C 326.851563 333.632813 328.9375 331.929688 330.9375 330.140625 C 330.179688 329.988281 329.429688 329.792969 328.699219 329.535156 C 314.535156 324.511719 310.320313 301.171875 319.097656 276.398438 "/>
<path style=" stroke:none;fill-rule:nonzero;fill:rgb(100%,100%,100%);fill-opacity:1;" d="M 219.210938 271.8125 C 219.21875 248.335938 240.414063 229.332031 266.417969 229.289063 C 292.417969 229.332031 313.617188 248.335938 313.625 271.8125 C 313.617188 295.292969 292.417969 314.292969 266.417969 314.339844 L 266.417969 313.621094 C 292.082031 313.621094 312.863281 294.839844 312.910156 271.8125 C 312.863281 248.789063 292.082031 230.007813 266.417969 230.003906 C 240.753906 230.007813 219.972656 248.789063 219.925781 271.8125 C 219.972656 294.839844 240.753906 313.621094 266.417969 313.621094 L 266.417969 314.339844 C 240.414063 314.292969 219.21875 295.292969 219.210938 271.8125 Z M 225.203125 343.046875 C 229.886719 328.65625 251.164063 318.296875 277.40625 318.28125 C 298.277344 318.285156 315.980469 324.855469 324.742188 334.761719 C 326.613281 333.351563 328.429688 331.878906 330.179688 330.335938 C 329.636719 330.207031 329.105469 330.054688 328.578125 329.871094 C 319.1875 326.523438 314.164063 315.410156 314.167969 301.308594 C 314.167969 293.628906 315.652344 285.039063 318.761719 276.28125 C 326.351563 254.90625 340.898438 239.894531 354.417969 239.863281 C 354.761719 239.863281 355.097656 239.871094 355.433594 239.894531 C 353.808594 234.972656 351.75 230.246094 349.285156 225.746094 C 348.921875 227.804688 348.253906 229.765625 347.261719 231.605469 C 343.941406 237.632813 333.324219 239.613281 324.460938 239.636719 C 316.949219 239.636719 302.25 238.25 288.082031 228.941406 C 277.09375 221.71875 268.203125 212.621094 263.03125 203.289063 C 259.886719 197.613281 258.292969 192.167969 258.292969 187.246094 C 258.292969 184.382813 258.832031 181.695313 259.921875 179.253906 C 255.839844 179.609375 251.835938 180.226563 247.925781 181.082031 C 251.207031 184.8125 252.769531 189.648438 252.765625 195.082031 C 252.761719 207.339844 244.878906 222.722656 230.722656 236.253906 C 217.980469 248.417969 200.933594 256.28125 187.164063 256.289063 C 183.671875 256.285156 180.550781 255.765625 177.898438 254.742188 C 177.710938 256.128906 177.5625 257.523438 177.441406 258.925781 C 178.097656 258.863281 178.769531 258.828125 179.445313 258.828125 C 193.035156 258.851563 208.230469 271.371094 218.359375 290.652344 C 224.230469 301.839844 226.660156 312.472656 226.660156 321.773438 C 226.660156 329.382813 225.035156 336.101563 222.347656 341.511719 C 223.289063 342.039063 224.242188 342.554688 225.203125 343.046875 Z M 225.257813 343.875 C 224.054688 343.265625 222.871094 342.625 221.699219 341.960938 L 221.398438 341.792969 L 221.554688 341.492188 C 224.28125 336.144531 225.945313 329.421875 225.945313 321.773438 C 225.945313 312.59375 223.550781 302.078125 217.726563 290.980469 C 207.6875 271.832031 192.582031 259.523438 179.445313 259.542969 C 178.648438 259.542969 177.863281 259.589844 177.089844 259.679688 L 176.65625 259.730469 L 176.695313 259.300781 C 176.835938 257.582031 177.015625 255.882813 177.257813 254.191406 L 177.320313 253.738281 L 177.746094 253.910156 C 180.382813 255.003906 183.5625 255.574219 187.164063 255.574219 C 200.664063 255.578125 217.617188 247.796875 230.230469 235.738281 C 244.296875 222.308594 252.058594 207.035156 252.054688 195.082031 C 252.050781 189.558594 250.410156 184.757813 246.992188 181.109375 L 246.566406 180.65625 L 247.175781 180.515625 C 251.5 179.542969 255.941406 178.855469 260.476563 178.488281 L 261.101563 178.433594 L 260.824219 178.996094 C 259.613281 181.484375 259.007813 184.253906 259.007813 187.246094 C 259.007813 192.011719 260.550781 197.347656 263.65625 202.941406 C 268.753906 212.144531 277.566406 221.179688 288.472656 228.34375 C 302.472656 237.546875 317.03125 238.921875 324.460938 238.921875 C 333.226563 238.945313 343.6875 236.808594 346.632813 231.265625 C 347.753906 229.195313 348.441406 226.96875 348.734375 224.613281 L 348.867188 223.539063 L 349.402344 224.480469 C 352.195313 229.449219 354.507813 234.699219 356.277344 240.179688 L 356.441406 240.691406 L 355.902344 240.644531 C 355.414063 240.601563 354.917969 240.578125 354.417969 240.578125 C 341.445313 240.542969 326.941406 255.285156 319.433594 276.519531 C 316.347656 285.207031 314.878906 293.71875 314.878906 301.308594 C 314.878906 315.273438 319.859375 326.035156 328.816406 329.195313 C 329.527344 329.449219 330.257813 329.636719 331.003906 329.789063 L 331.707031 329.925781 L 331.175781 330.402344 C 329.167969 332.199219 327.074219 333.910156 324.902344 335.53125 L 324.636719 335.730469 L 324.421875 335.480469 C 315.964844 325.664063 298.304688 318.988281 277.40625 318.992188 C 251.082031 318.980469 229.9375 329.585938 225.761719 343.660156 L 225.636719 344.070313 L 225.257813 343.875 "/>
<path style=" stroke:none;fill-rule:nonzero;fill:rgb(3.898621%,7.798767%,14.099121%);fill-opacity:1;" d="M 266.417969 309.824219 C 242.839844 309.824219 223.726563 292.808594 223.726563 271.816406 C 223.726563 250.824219 242.839844 233.804688 266.417969 233.804688 C 289.996094 233.804688 309.109375 250.824219 309.109375 271.816406 C 309.109375 292.808594 289.996094 309.824219 266.417969 309.824219 Z M 266.417969 229.648438 C 240.585938 229.648438 219.570313 248.5625 219.570313 271.816406 C 219.570313 295.066406 240.585938 313.980469 266.417969 313.980469 C 292.253906 313.980469 313.265625 295.066406 313.265625 271.816406 C 313.265625 248.5625 292.253906 229.648438 266.417969 229.648438 "/>
<path style=" stroke:none;fill-rule:nonzero;fill:rgb(3.898621%,7.798767%,14.099121%);fill-opacity:1;" d="M 277.40625 318.636719 C 251 318.636719 229.710938 329.222656 225.421875 343.558594 C 226.671875 344.199219 227.9375 344.808594 229.222656 345.390625 C 232.429688 332.632813 252.769531 322.792969 277.40625 322.792969 C 296.761719 322.792969 313.472656 328.867188 321.304688 337.65625 C 322.453125 336.878906 323.582031 336.074219 324.691406 335.246094 C 316.121094 325.316406 298.382813 318.636719 277.40625 318.636719 "/>
<path style=" stroke:none;fill-rule:nonzero;fill:rgb(3.898621%,7.798767%,14.099121%);fill-opacity:1;" d="M 334.964844 326.304688 C 333.285156 326.382813 331.648438 326.171875 330.089844 325.617188 C 318.300781 321.4375 315.132813 300.023438 323.015625 277.785156 C 330.589844 256.421875 345.601563 242.085938 357.21875 244.691406 C 356.828125 243.210938 356.40625 241.742188 355.9375 240.289063 C 355.4375 240.246094 354.929688 240.21875 354.421875 240.21875 C 341.175781 240.21875 326.648438 255.097656 319.097656 276.398438 C 310.320313 301.171875 314.535156 324.511719 328.699219 329.535156 C 329.429688 329.792969 330.179688 329.988281 330.9375 330.140625 C 332.324219 328.902344 333.664063 327.621094 334.964844 326.304688 "/>
<path style=" stroke:none;fill-rule:nonzero;fill:rgb(3.898621%,7.798767%,14.099121%);fill-opacity:1;" d="M 263.34375 203.117188 C 268.480469 212.382813 277.332031 221.449219 288.28125 228.640625 C 302.363281 237.898438 316.992188 239.28125 324.460938 239.28125 C 333.277344 239.28125 343.816406 237.222656 346.949219 231.433594 C 348.089844 229.328125 348.789063 227.050781 349.089844 224.65625 C 347.742188 222.261719 346.277344 219.9375 344.707031 217.679688 C 345.558594 222.011719 345.144531 226.039063 343.292969 229.457031 C 339.671875 236.144531 312.054688 239.292969 290.5625 225.167969 C 269.070313 211.046875 257.660156 190.449219 265.078125 179.164063 C 265.210938 178.960938 265.363281 178.765625 265.511719 178.570313 C 263.832031 178.617188 262.160156 178.710938 260.503906 178.84375 C 257.296875 185.433594 258.261719 193.945313 263.34375 203.117188 "/>
<path style=" stroke:none;fill-rule:nonzero;fill:rgb(3.898621%,7.798767%,14.099121%);fill-opacity:1;" d="M 230.480469 235.996094 C 251.109375 216.289063 258.292969 192.632813 247.253906 180.867188 C 245.617188 181.234375 243.996094 181.644531 242.394531 182.097656 C 243.015625 182.550781 243.601563 183.054688 244.140625 183.617188 C 253.539063 193.460938 246.386719 215.058594 227.609375 232.992188 C 210.261719 249.558594 188.171875 254.960938 178.328125 249.992188 C 178.050781 251.398438 177.8125 252.816406 177.609375 254.242188 C 180.300781 255.355469 183.523438 255.933594 187.164063 255.933594 C 200.800781 255.933594 217.800781 248.105469 230.480469 235.996094 "/>
<path style=" stroke:none;fill-rule:nonzero;fill:rgb(3.898621%,7.798767%,14.099121%);fill-opacity:1;" d="M 218.042969 290.820313 C 207.960938 271.601563 192.808594 259.1875 179.445313 259.1875 C 178.632813 259.1875 177.835938 259.234375 177.050781 259.328125 C 176.9375 260.734375 176.859375 262.148438 176.816406 263.570313 C 188.765625 261.585938 204.328125 273.632813 214.363281 292.75 C 223.832031 310.789063 223.921875 328.226563 218.285156 339.519531 C 219.464844 340.257813 220.660156 340.96875 221.875 341.65625 C 227.933594 329.769531 228.769531 311.246094 218.042969 290.820313 "/>
<path style=" stroke:none;fill-rule:nonzero;fill:rgb(58.399963%,59.199524%,60.398865%);fill-opacity:1;" d="M 177.105469 266.140625 C 177.105469 290.242188 187.3125 312.058594 203.828125 327.855469 C 220.34375 343.652344 243.164063 353.425781 268.371094 353.425781 C 293.578125 353.425781 316.394531 343.652344 332.910156 327.855469 C 349.425781 312.058594 359.636719 290.242188 359.636719 266.140625 C 359.636719 242.042969 349.425781 220.226563 332.910156 204.429688 C 316.394531 188.632813 293.578125 178.855469 268.371094 178.855469 C 243.164063 178.855469 220.34375 188.632813 203.828125 204.429688 C 187.3125 220.226563 177.105469 242.042969 177.105469 266.140625 Z M 203.335938 328.371094 C 186.691406 312.453125 176.390625 290.445313 176.390625 266.140625 C 176.390625 241.839844 186.691406 219.832031 203.335938 203.910156 C 219.980469 187.988281 242.976563 178.140625 268.371094 178.140625 C 293.761719 178.140625 316.757813 187.988281 333.402344 203.910156 C 350.050781 219.832031 360.351563 241.839844 360.351563 266.140625 C 360.351563 290.445313 350.050781 312.453125 333.402344 328.371094 C 316.757813 344.292969 293.761719 354.140625 268.371094 354.140625 C 242.976563 354.140625 219.980469 344.292969 203.335938 328.371094 "/>
</g>
</svg>
