<svg xmlns="http://www.w3.org/2000/svg" width="181.66034mm" height="235.54114mm" viewBox="0 0 181.66034 235.54114"><defs><clipPath id="a" clipPathUnits="userSpaceOnUse"><path d="M504.926 581.25h70.984v67.754h-70.984Z"/></clipPath></defs><g clip-path="url(#a)" style="stroke-width:.0699729" transform="matrix(3.62998 0 0 -3.62998 -1870.868 2351.632)"><path d="M564.652 637.957s-5.398 5.129-20.293 7a3.942 3.942 0 0 0-7.882 0c-14.899-1.871-20.297-7-20.297-7-5.992-40.719 24.238-55.008 24.238-55.008s30.227 14.289 24.234 55.008" style="fill:#c3b295;fill-opacity:1;fill-rule:nonzero;stroke:none;stroke-width:.0699729"/><path d="M542.781 644.074a2.608 2.608 0 0 0-3.558-1.211c-1.227.61-1.875 2.168-1.125 3.606.547 1.043 2.101 1.832 3.554 1.054a2.62 2.62 0 0 0 1.129-3.449" style="fill:#fff;fill-opacity:1;fill-rule:nonzero;stroke:none;stroke-width:.0699729"/><path d="M542.77 644.449c.148.465.179.934.058 1.43-.027-.035-.055-.051-.055-.066.04-.387.032-.774-.054-1.153-.016-.062.031-.14.051-.211m-4.5 1.957c-.368-.383-.489-1.578-.192-1.836.039.071.063.149.113.207.141.157.176.325.161.532-.008.195.003.402.058.589.063.211.02.364-.14.508m4.449-.476c-.008.086.011.179-.016.254-.183.515-.555.875-1.008 1.164-.113.07-.203.047-.242-.043.184-.309.356-.594.524-.879a.225.225 0 0 1 .074-.067c.207-.136.418-.269.668-.429m-2.641 1.457c-.176.211-.273.242-.535.144-.406-.152-.766-.371-1.031-.726-.184-.246-.184-.297.015-.512.297.109.578.207.86.316a.501.501 0 0 1 .179.129c.172.207.336.426.512.649m1.227-4.422c.121.035.234.051.336.094.41.179.707.488.929.875.114.203.094.406.039.617-.238-.074-.461-.141-.683-.211-.031-.012-.059-.047-.082-.078a30.527 30.527 0 0 1-.574-.739c-.032-.046-.075-.109-.067-.156.02-.129.063-.254.102-.402m-2.867 1.937c-.125-.175-.325-.355-.254-.593.144-.461.363-.887.871-1.071.425-.16.375-.175.695.184.066.074.063.129.016.211-.149.273-.282.558-.422.84-.02.031-.043.07-.074.082-.27.117-.543.23-.832.347m3.406 1.344c-.008.063.004.172-.039.246a8.674 8.674 0 0 1-.434.629.261.261 0 0 1-.152.098c-.293.035-.586.062-.883.086a.28.28 0 0 1-.18-.071 6.96 6.96 0 0 1-.472-.558c-.036-.047-.032-.153 0-.211.121-.238.25-.473.39-.699a.264.264 0 0 1 .168-.11c.34-.039.68-.066 1.02-.09a.22.22 0 0 1 .164.075c.137.183.262.375.418.605m-.11-1.965c-.004.082.008.164-.015.231-.102.265-.215.527-.317.797-.035.093-.093.129-.187.136-.324.024-.649.059-.973.078a.253.253 0 0 1-.191-.093 11.067 11.067 0 0 1-.535-.75.297.297 0 0 1-.024-.231c.125-.269.262-.531.406-.789a.214.214 0 0 1 .145-.094c.305-.027.613-.046.918-.058.055-.004.125.012.156.047.207.234.406.476.617.726m1.047-.207a2.608 2.608 0 0 0-3.558-1.211c-1.227.61-1.875 2.168-1.125 3.606.547 1.043 2.101 1.832 3.554 1.054a2.62 2.62 0 0 0 1.129-3.449" style="fill:#c3b295;fill-opacity:1;fill-rule:nonzero;stroke:none;stroke-width:.0699729"/><path d="M559.789 633.172h-38.746l.199 3.746h-.117v.859l.719.008v.426s.094.281.422.59c0 0 .414-.285.414-.613v-.415h.679v-.96h-.129l.172-2.426 15.348 1.222v3.649l1.051.195 2.269-.176v-3.578l15.813-.656v2.488h1.906M521.047 631.441s-4.656-28.039 19.371-42.191c24.023 14.152 19.371 42.191 19.371 42.191" style="fill:#92204c;fill-opacity:1;fill-rule:nonzero;stroke:none;stroke-width:.0699729"/><path d="m540.238 600.848.895.699s.242 1.941.547 2.836l-.785.722s.753 4.981 1.98 7.84h.156s-1.679-6.027-1.593-7.687l.46-.457s.938 1.679 2.184 2.094c0 0 .324-1.2-.133-1.856-.457-.656-.719-.937-.719-.937l-.589-.153.043.5.304.043s.524.613.61.766c.09.152.047.808.047.808s-1.727-1.222-1.813-3.125l-.176-1.636-1.398-1.028-1.395 1.028-.175 1.636c-.09 1.903-1.813 3.125-1.813 3.125s-.043-.656.043-.808c.086-.153.613-.766.613-.766l.305-.043.043-.5-.59.153s-.262.281-.719.937c-.461.656-.132 1.856-.132 1.856 1.242-.415 2.183-2.094 2.183-2.094l.461.457c.086 1.66-1.598 7.687-1.598 7.687h.161c1.226-2.859 1.98-7.84 1.98-7.84l-.785-.722c.305-.895.547-2.836.547-2.836" style="fill:#c3b295;fill-opacity:1;fill-rule:nonzero;stroke:none;stroke-width:.0699729"/><path d="M539.633 601.797h1.195l-.57-.574M539.813 603.188h.851v.542s-.152.508-.406.77c0 0-.445-.457-.445-.816M526.711 601.223h11.844v.574H526.71ZM541.961 601.223h11.969v.574H541.96ZM545.75 613.184c-.219 0-.785.207-.785.207v1.32c0 .437-.328.602-.621.602-.297 0-.559-.211-.559-.625v-1.09l-.859.09v1.386c0 .403-.309.535-.582.535a.535.535 0 0 1-.547-.546v-1.149h-.859v1.098c0 .453-.368.636-.629.64-.262-.004-.629-.187-.629-.64v-1.098h-.864v1.149a.534.534 0 0 1-.543.546c-.273 0-.582-.132-.582-.535v-1.386l-.859-.09v1.09c0 .414-.262.625-.559.625-.293 0-.621-.165-.621-.602v-1.32s-.566-.207-.789-.207c-.215 0-.207.121-.207.121l.797.82v1.406c1.82.657 4.469.586 4.856.571.382.015 3.035.086 4.851-.571v-1.406l.801-.82s.008-.121-.211-.121m.82.054c-.242.262-.996 1.063-.996 1.063v2.051s-.324.414-.609 0v-.317s-.137-.168-.262 0v.445c0 .364-.625.34-.625.055v-.281s-.129-.191-.203 0v.496c0 .266-.559.301-.559 0v-.367c0-.129-.328-.129-.328-.02v.543c0 .274-.547.254-.547 0v-.488c0-.121-.281-.121-.281 0v.609c0 .196-.527.254-.527 0v-.547c0-.171-.27-.128-.27-.007v.515c0 .325-.59.344-.59.071v-.543c0-.11-.273-.196-.273 0v.566c0 .262-.383.242-.383 0v-.566c0-.196-.273-.11-.273 0v.543c0 .273-.59.254-.59-.071v-.515c0-.121-.274-.164-.274.007v.547c0 .254-.523.196-.523 0v-.609c0-.121-.285-.121-.285 0v.488c0 .254-.543.274-.543 0v-.543c0-.109-.328-.109-.328.02v.367c0 .301-.559.266-.559 0v-.496c-.074-.191-.207 0-.207 0v.281c0 .285-.621.309-.621-.055v-.445c-.125-.168-.262 0-.262 0v.317c-.285.414-.613 0-.613 0v-2.051s-.754-.801-.992-1.063c-.242-.261.055-.468.055-.468h.992l.929.347v1.531c0 .383.481.305.481 0v-1.464l1.562.242v1.484c0 .238.422.336.422.012v-1.465l1.629.109v1.446c0 .133.383.183.383 0v-1.446l1.625-.109v1.465c0 .324.426.226.426-.012v-1.484l1.562-.242v1.464c0 .305.481.383.481 0v-1.531l.929-.347h.993s.297.207.054.468" style="fill:#c3b295;fill-opacity:1;fill-rule:nonzero;stroke:none;stroke-width:.0699729"/><path d="M545.375 612.465s-.73.301-2.133.515l-.008-.453c1.106-.156 1.707-.347 1.707-.347l.719-10.504h.457M540.258 613.184h-.035a20.73 20.73 0 0 1-2.364-.121l.125-.446c.606.059 1.313.106 2.118.11h.281c.82-.004 1.543-.051 2.156-.114l.121.446c-.68.078-1.48.129-2.402.125M537.215 612.977c-1.387-.215-2.11-.512-2.11-.512l-.742-10.789h.457l.723 10.504s.586.187 1.672.343M542.422 618.395h-.359v-.364h-3.407v.364h-.363v.48l.961.227v.941c0 .543 1.043.816 1.043.816h.121s1.043-.273 1.043-.816v-.941l.961-.227zm-.418 1.066s.059 1.519-1.477 1.824v1.473h-.339v-1.473c-1.532-.305-1.481-1.824-1.481-1.824l-.852-.262v-1.176h.426v-.699h.133s.031.25.293.25c.266 0 .254-.25.254-.25h.195s-.011.324.305.324.309-.269.309-.269h.226c0 .129.055.269.359.269.309 0 .364-.14.364-.269h.23s-.011.269.305.269.305-.324.305-.324h.195s-.012.25.25.25c.266 0 .297-.25.297-.25h.133v.699h.421v1.176M528.664 626.43l-.324.961-.332-.961zm-.613 1.789h.59l1.074-2.969h-.641l-.222.641h-1.032l-.218-.641h-.625M530.086 628.199h.621v-2.39h1.211v-.559h-1.832M533.086 628.199h.652l.508-1.941.547 1.949h.539l.551-1.949.5 1.941h.64l-.855-2.969h-.566l-.551 1.879-.547-1.879h-.563M538.59 626.43l-.324.961-.328-.961zm-.61 1.789h.59l1.071-2.969H539l-.223.641h-1.027l-.219-.641h-.625M540.016 628.199h.617v-1.183h.984v1.183h.621v-2.949h-.621v1.199h-.984v-1.199h-.617M543.457 627.648v-1.847h.344c.469 0 .789.324.789.91v.023c0 .586-.32.914-.789.914zm-.621.551h.969c.867 0 1.425-.59 1.425-1.453v-.039c0-.863-.558-1.457-1.425-1.457h-.969M547.016 626.43l-.325.961-.328-.961zm-.61 1.789h.586l1.074-2.969h-.64l-.223.641h-1.031l-.215-.641h-.625M549.398 628.199h1.926v-.558h-1.308v-.664h1.152v-.559h-1.152v-1.168h-.618M551.648 626.703v.039c0 .895.563 1.5 1.356 1.5.445 0 .73-.16.961-.39l-.371-.473c-.18.18-.367.293-.614.293-.398 0-.695-.367-.695-.938v-.015c0-.586.309-.942.703-.942.242 0 .418.11.617.309l.375-.438c-.269-.273-.558-.441-1.015-.441-.785 0-1.317.594-1.317 1.496M533.996 597.91l-.18.535-.179-.535zm-.336.996h.324l.59-1.652h-.351l-.125.355h-.563l-.121-.355h-.344M535.793 597.938h-.297v-.387h.305c.152 0 .25.066.25.195 0 .117-.086.192-.258.192m.187.476c0 .117-.085.18-.23.18h-.254v-.371h.238c.149 0 .246.062.246.187zm-.816.481h.613c.18 0 .336-.051.426-.141a.39.39 0 0 0 .113-.281v-.008c0-.192-.109-.297-.222-.36.176-.066.293-.175.293-.39v-.012c0-.297-.239-.453-.598-.453h-.625M536.996 597.891v1.004h.34v-1.008c0-.231.109-.348.289-.348.176 0 .285.113.285.34v1.016h.34v-.997c0-.453-.25-.671-.629-.671s-.625.218-.625.664M540.195 598.586v-1.027h.188c.258 0 .433.183.433.507v.012c0 .328-.175.508-.433.508zm-.34.309h.532c.476 0 .785-.329.785-.809v-.023c0-.481-.309-.813-.785-.813h-.532M541.824 598.895h.34v-.661h.539v.661h.344v-1.641h-.344v.668h-.539v-.668h-.34M544.563 597.91l-.18.535-.18-.535zm-.336.996h.324l.59-1.652h-.356l-.121.355h-.566l-.118-.355h-.343M546.359 597.938h-.3v-.387h.304c.157 0 .25.066.25.195 0 .117-.086.192-.254.192m.184.476c0 .117-.082.18-.23.18h-.254v-.371h.238c.148 0 .246.062.246.187zm-.813.481h.61c.183 0 .336-.051.43-.141a.403.403 0 0 0 .109-.281v-.008a.386.386 0 0 0-.223-.36c.176-.066.293-.175.293-.39v-.012c0-.297-.238-.453-.594-.453h-.625M547.594 597.254h.34v1.64h-.34ZM538.758 595.84l-.211-.063-.039.192.312.105h.16v-1.359h-.222M539.914 595.629c0 .152-.09.258-.234.258-.145 0-.231-.11-.231-.258 0-.156.09-.25.235-.25.14 0 .23.105.23.25m.008-.313a.355.355 0 0 0-.281-.125c-.231 0-.411.149-.411.422v.008c0 .27.188.465.446.465a.42.42 0 0 0 .32-.125c.094-.094.156-.242.156-.52v-.011c0-.469-.199-.735-.523-.735a.555.555 0 0 0-.367.133l.113.18c.078-.07.16-.11.258-.11.191 0 .285.2.289.418M540.984 595.699v.004c0 .113-.086.195-.207.195-.117 0-.207-.078-.207-.195v-.004a.2.2 0 0 1 .207-.203c.118 0 .207.082.207.203m.032-.605v.004c0 .132-.102.215-.239.215-.136 0-.242-.083-.242-.215v-.004c0-.121.098-.211.242-.211.149 0 .239.09.239.211m-.696-.016v.008c0 .164.086.269.219.328a.337.337 0 0 0-.18.301v.008c0 .211.176.359.418.359.243 0 .418-.148.418-.359v-.008a.33.33 0 0 0-.179-.301c.132-.062.222-.16.222-.324v-.008c0-.238-.199-.387-.461-.387-.261 0-.457.153-.457.383M542 595.195v.543l-.383-.543zm0-.187h-.598l-.031.164.641.898h.199v-.875h.168v-.187h-.168v-.293H542" style="fill:#c3b295;fill-opacity:1;fill-rule:nonzero;stroke:none;stroke-width:.0699729"/></g></svg>