<?xml version="1.0" encoding="UTF-8"?>
<!DOCTYPE svg PUBLIC "-//W3C//DTD SVG 1.1//EN" "http://www.w3.org/Graphics/SVG/1.1/DTD/svg11.dtd">
<!-- Creator: CorelDRAW 2019 (64-Bit) -->
<svg xmlns="http://www.w3.org/2000/svg" xml:space="preserve" width="143.54mm" height="192.436mm" version="1.1" style="shape-rendering:geometricPrecision; text-rendering:geometricPrecision; image-rendering:optimizeQuality; fill-rule:evenodd; clip-rule:evenodd"
viewBox="0 30 135 135"
 xmlns:xlink="http://www.w3.org/1999/xlink"
 xmlns:xodm="http://www.corel.com/coreldraw/odm/2003">
 <defs>
  <style type="text/css">
   <![CDATA[
    .str0 {stroke:#231F20;stroke-width:0.0789;stroke-miterlimit:4}
    .fil2 {fill:none}
    .fil0 {fill:#231F20}
    .fil4 {fill:#E31736}
    .fil3 {fill:#F58024}
    .fil1 {fill:white}
   ]]>
  </style>
 </defs>
 <g id="Layer_x0020_1">
  <metadata id="CorelCorpID_0Corel-Layer"/>
  <g id="_826688912">
   <path class="fil0" d="M69.5793 186.9299c-31.393,-10.5677 -53.0825,-32.4921 -53.0972,-57.9812l0 -57.6894 16.7046 -16.7073c-2.1452,-9.8281 -6.3331,-17.8396 -10.7185,-20.7119 -4.5974,-3.128 -13.6155,-1.227 -22.0041,-10.7475 -0.2393,-0.3337 -0.4416,-0.6064 -0.4634,-1.0284 -0.0097,-0.1778 0.0872,-0.4349 0.2793,-0.57 0.184,-0.1338 0.3749,-0.161 0.558,-0.1624 0.2339,0.0014 0.4824,0.0481 0.7917,0.1428 3.5891,1.0855 8.545,2.2996 10.6358,2.2918 0.3591,0.0078 0.6258,-0.0455 0.7197,-0.0818 0.0077,-0.1792 -0.3637,-0.8986 -1.027,-1.8438 -0.6741,-0.9998 -1.6185,-2.3347 -2.6467,-4.0513 -2.0527,-3.4318 -4.4431,-8.3959 -5.7702,-15.3661 -0.0588,-0.3155 -0.1191,-0.6765 -0.1191,-1.031 0.0016,-0.2986 0.0335,-0.6064 0.2165,-0.8985 0.1782,-0.3052 0.5652,-0.5064 0.9496,-0.4935 0.5717,0.0883 0.6873,0.3792 1.0201,0.6947 0.282,0.3246 0.561,0.7076 0.7502,1.04 11.1754,19.4875 21.4857,23.1011 29.8586,29.1909 1.2802,0.9388 2.2673,1.3271 2.9281,1.3218 0.874,-0.0078 1.4507,-0.5895 1.933,-2.0983 0.4508,-1.4751 0.6608,-3.6955 0.7353,-6.4288l0 -0.0649c0.0022,-0.4246 0.0564,-0.757 0.2138,-1.0413 0.144,-0.2819 0.4864,-0.487 0.7886,-0.4779 0.6093,0.0402 0.9885,0.4363 1.3148,0.8466 2.5838,3.8071 3.3273,7.1961 3.3243,10.0242 -0.0057,3.5578 -1.1485,6.282 -1.123,7.7531 -0.0132,0.8947 0.5091,2.0893 1.2943,3.2929l10.6135 -10.6137 11.4946 1.6763 11.4974 -1.6763 10.6144 10.6163c0.7822,-1.2062 1.304,-2.4008 1.2944,-3.2955 0.0228,-1.4712 -1.1209,-4.1954 -1.1275,-7.7531 0,-2.8281 0.741,-6.2171 3.3364,-10.0319 0.3125,-0.4026 0.6934,-0.8012 1.3062,-0.8388 0.2987,-0.0091 0.6416,0.196 0.7863,0.4804 0.1552,0.2818 0.2088,0.6142 0.2108,1.0401l0 0.0389c0.076,2.7385 0.2875,4.9732 0.7435,6.4535 0.4794,1.5088 1.0571,2.0905 1.9309,2.0931 0.6569,0.0104 1.6434,-0.3779 2.9262,-1.3167 8.3711,-6.0898 18.9459,-9.7748 30.1186,-29.2623 0.3844,-0.6375 0.7869,-1.066 1.3906,-1.0972 0.6791,0.013 0.9595,0.6791 0.9595,1.2673 0,0.1753 -0.0182,0.3597 -0.0531,0.5636 -1.3233,6.9559 -3.6488,11.9212 -5.6381,15.3557 -1.9744,3.3409 -3.6111,5.4639 -3.5482,5.9301 0.0196,0.0078 0.0493,0.0169 0.0852,0.0259 0.1313,0.0363 0.3564,0.0571 0.6381,0.0571 2.0926,0.0078 7.0463,-1.2063 10.6378,-2.2918 0.3078,-0.0947 0.5558,-0.1428 0.7896,-0.1428 0.1804,0 0.3714,0.0286 0.5556,0.1624 0.1936,0.1376 0.2884,0.3922 0.2793,0.5713 -0.0222,0.4194 -0.2235,0.6934 -0.4817,1.0504 -8.3648,9.497 -17.3887,7.596 -21.9836,10.724 -4.3854,2.8723 -8.5731,10.8838 -10.7164,20.7119l16.7029 16.7073 0 57.6894c-0.0117,25.4891 -21.7031,47.4135 -53.0997,57.9812l-0.1557 0.0493 -0.1553 -0.0493z"/>
   <path class="fil1" d="M136.5587 23.2641c-0.0428,-0.0701 -0.1689,-0.0896 -0.3584,-0.0155 -5.9651,2.3463 -15.3873,4.4343 -12.6225,0.6271 2.888,-3.981 8.2052,-10.3592 10.4165,-19.9886 0.0403,-0.1948 0.0156,-0.2519 -0.0377,-0.2701 -0.0663,-0.0351 -0.1505,0.0649 -0.209,0.1792 -11.1467,21.5325 -22.7151,23.5906 -31.9687,31.6541 -2.381,2.0763 -5.9382,-2.2308 -5.4562,-10.3047 0.0339,-0.5505 -0.1192,-0.5544 -0.1192,-0.5544 0,0 -0.3186,-0.1324 -0.5053,0.3999 -3.2684,9.3295 0.3577,12.825 0.2157,16.7607 -0.0578,1.6646 -1.75,4.9796 -3.4252,7.7688l-12.6613 -12.6601 -10.0897 1.4712 -10.09 -1.4712 -12.6641 12.6601c-1.6735,-2.7892 -3.4237,-6.1042 -3.4237,-7.7688 0,-3.0241 4.1149,-7.6792 0.1293,-17.0151 -0.2172,-0.5168 -0.5027,-0.3999 -0.5027,-0.3999 0,0 -0.1765,0.0051 -0.1177,0.5544 0.9667,9.1296 -2.9945,12.6355 -5.3713,10.5591 -9.2582,-8.0635 -21.3219,-11.3876 -32.4643,-32.9227 -0.0579,-0.1168 -0.1488,-0.2155 -0.216,-0.1818 -0.0487,0.0169 -0.0727,0.0779 -0.0362,0.2701 2.2095,9.6307 8.0233,17.2787 10.9133,21.2598 2.7649,3.8072 -6.9504,1.6141 -12.9157,-0.7322 -0.1871,-0.0702 -0.3139,-0.0533 -0.3586,0.0168 -0.043,0.0728 -0.003,0.1883 0.1386,0.3091 9.9577,8.0855 15.2438,5.1381 20.7637,8.27 5.2614,2.9787 10.5096,11.1344 13.2332,24.1139l-16.2576 16.2578 0 54.7654c0,22.5111 20.0492,41.9938 49.2399,51.4026 29.1917,-9.4093 49.2402,-28.8914 49.2402,-51.4026l0 -54.7654 -16.2582 -16.2578c2.7253,-12.9795 7.9683,-21.1352 13.2332,-24.1139 5.5195,-3.1319 10.513,-0.0857 20.4683,-8.1687 0.1416,-0.1182 0.1805,-0.2363 0.1377,-0.3065z"/>
   <path class="fil2 str0" d="M136.5587 23.2641c-0.0428,-0.0701 -0.1689,-0.0896 -0.3584,-0.0155 -5.9651,2.3463 -15.3873,4.4343 -12.6225,0.6271 2.888,-3.981 8.2052,-10.3592 10.4165,-19.9886 0.0403,-0.1948 0.0156,-0.2519 -0.0377,-0.2701 -0.0663,-0.0351 -0.1505,0.0649 -0.209,0.1792 -11.1467,21.5325 -22.7151,23.5906 -31.9687,31.6541 -2.381,2.0763 -5.9382,-2.2308 -5.4562,-10.3047 0.0339,-0.5505 -0.1192,-0.5544 -0.1192,-0.5544 0,0 -0.3186,-0.1324 -0.5053,0.3999 -3.2684,9.3295 0.3577,12.825 0.2157,16.7607 -0.0578,1.6646 -1.75,4.9796 -3.4252,7.7688"/>
   <polyline class="fil2 str0" points="92.4886,49.5205 79.8274,36.8604 69.7376,38.3315 59.6476,36.8604 46.9835,49.5205 "/>
   <path class="fil2 str0" d="M46.9835 49.5205c-1.6735,-2.7892 -3.4237,-6.1042 -3.4237,-7.7688 0,-3.0241 4.1149,-7.6792 0.1293,-17.0151 -0.2172,-0.5168 -0.5027,-0.3999 -0.5027,-0.3999 0,0 -0.1765,0.0051 -0.1177,0.5544 0.9667,9.1296 -2.9945,12.6355 -5.3713,10.5591 -9.2582,-8.0635 -21.3219,-11.3876 -32.4643,-32.9227 -0.0579,-0.1168 -0.1488,-0.2155 -0.216,-0.1818 -0.0487,0.0169 -0.0727,0.0779 -0.0362,0.2701 2.2095,9.6307 8.0233,17.2787 10.9133,21.2598 2.7649,3.8072 -6.9504,1.6141 -12.9157,-0.7322 -0.1871,-0.0702 -0.3139,-0.0533 -0.3586,0.0168 -0.043,0.0728 -0.003,0.1883 0.1386,0.3091 9.9577,8.0855 15.2438,5.1381 20.7637,8.27 5.2614,2.9787 10.5096,11.1344 13.2332,24.1139"/>
   <polyline class="fil2 str0" points="36.7553,55.8531 20.4977,72.1109 20.4977,126.8763 "/>
   <path class="fil2 str0" d="M20.4977 126.8763c0,22.5111 20.0492,41.9938 49.2399,51.4026 29.1917,-9.4093 49.2402,-28.8914 49.2402,-51.4026"/>
   <polyline class="fil2 str0" points="118.9778,126.8763 118.9778,72.1109 102.7196,55.8531 "/>
   <path class="fil2 str0" d="M102.7196 55.8531c2.7253,-12.9795 7.9683,-21.1352 13.2332,-24.1139 5.5195,-3.1319 10.513,-0.0857 20.4683,-8.1687 0.1416,-0.1182 0.1805,-0.2363 0.1377,-0.3065"/>
   <path class="fil3" d="M37.3682 58.4111l-14.5657 14.6519 0 53.5323c0,11.7588 5.6772,22.6553 15.3474,31.6005 12.2172,-16.6817 9.7202,-28.5044 -1.9144,-46.4639 -7.9633,-12.302 -8.4811,-35.5226 1.222,-52.9307l-0.0893 -0.3901z"/>
   <path class="fil3" d="M116.6725 87.7259c-12.6118,28.0965 -33.6115,25.1314 -13.4811,68.6687 8.5268,-8.5861 13.4811,-18.8145 13.4811,-29.7988l0 -38.8699z"/>
   <path class="fil4" d="M116.6725 73.063l-14.4672 -14.55 -10.9665 -6.9786 -12.2077 -12.2107 -9.2942 1.3647 -9.2925 -1.3647 -12.2112 12.2107c-14.0311,14.5016 -17.9543,42.8859 -7.3415,58.7916 12.6585,18.9861 14.0057,34.1015 0.9876,51.0659 7.5673,6.0195 17.0534,10.9771 27.8576,14.4835 11.7522,-3.8143 21.9508,-9.346 29.8074,-16.0925 -25.3079,-53.7377 6.8732,-45.0128 17.1281,-86.7199z"/>
   <path class="fil0" d="M54.9736 152.5495l0.4738 -0.4895c-0.0066,-0.0095 1.766,-1.8198 3.551,-5.1622 1.788,-3.3395 3.5733,-8.1673 3.5733,-14.1312l0 -41.9967 -7.9274 0 -2.0175 -11.5837 -0.0991 -0.5702 38.9115 0 -2.1186 12.1539 -7.7198 -0.004 0 36.3717c-0.4596,21.3553 -21.0423,27.8369 -21.0784,27.8506l-0.1832 0.0532 -5.3657 -2.492z"/>
   <path class="fil1" d="M55.6395 81.2367l1.1282 6.9113 8.7149 0 0 44.6182c0,10.731 -5.268,17.4551 -7.0296,18.9632l1.163 0.3768 0.9855 0.322c0.8425,-0.322 17.9565,-6.9955 17.9565,-25.2978l0 -38.9824 8.647 0 1.124 -6.9113 -32.6894 0z"/>
   <path class="fil1" d="M44.8606 72.0197l0 -1.5968c0.549,-0.0593 0.9764,-0.5275 0.9764,-1.3731l0 -5.3455 2.0574 0 0 5.0864c0.001,2.1349 -1.2579,3.1817 -3.0338,3.2291z"/>
   <polygon class="fil1" points="49.1198,71.7832 49.1198,63.7043 52.9453,63.7043 52.9453,65.2523 51.1806,65.2523 51.1806,66.9338 52.6951,66.9338 52.6951,68.4493 51.1806,68.4493 51.1806,70.2322 52.9453,70.2322 52.9453,71.7832 "/>
   <path class="fil1" d="M53.6401 72.0197l0 -1.5968c0.5473,-0.0593 0.9729,-0.5275 0.9729,-1.3731l0 -5.3455 2.0597 0 0 5.0864c0.0005,2.1349 -1.2548,3.1817 -3.0326,3.2291z"/>
   <path class="fil1" d="M60.5185 71.9147c-1.4659,0 -2.6207,-0.9307 -2.6207,-2.5473l0 -5.6631 2.0608 0 0 5.6357c0,0.5752 0.2566,0.8233 0.6349,0.8233 0.3933,0 0.6215,-0.2592 0.6215,-0.8365l0 -5.6225 1.9081 0 0 5.6504c0,1.6293 -1.1418,2.56 -2.6045,2.56z"/>
   <path class="fil1" d="M69.4718 71.9147c-1.4638,0 -2.6166,-0.9307 -2.6166,-2.5473l0 -5.6631 2.0557 0 0 5.6357c0,0.5752 0.2617,0.8233 0.6369,0.8233 0.3922,0 0.6224,-0.2592 0.6224,-0.8365l0 -5.6225 1.9126 0 0 5.6504c0,1.6293 -1.1441,2.56 -2.611,2.56z"/>
   <path class="fil1" d="M77.3807 71.7832l-2.0486 -3.8635c-0.1968,-0.3763 -0.3313,-0.7648 -0.3313,-0.7648l-0.0227 0c0,0 0.0432,0.4026 0.0432,0.8246l0 3.8036 -1.7135 0 0 -8.0789 1.7327 0 1.8199 3.3807c0.2069,0.3762 0.3422,0.7405 0.3422,0.7405l0.0205 0c0,0 -0.0428,-0.3855 -0.0428,-0.774l0 -3.3472 1.7291 0 0 8.0789 -1.5288 0z"/>
   <polygon class="fil1" points="80.4133,71.7828 82.4706,71.7828 82.4706,63.7034 80.4133,63.7034 "/>
   <polygon class="fil1" points="86.7701,65.2523 86.7701,71.7832 84.7145,71.7832 84.7145,65.2523 83.56,65.2523 83.56,63.7043 87.9231,63.7043 87.9231,65.2523 "/>
   <polygon class="fil1" points="88.9918,71.7832 88.9918,63.7043 92.8177,63.7043 92.8177,65.2523 91.0485,65.2523 91.0485,66.9338 92.5681,66.9338 92.5681,68.4493 91.0485,68.4493 91.0485,70.2322 92.8177,70.2322 92.8177,71.7832 "/>
   <path class="fil1" d="M96.3818 71.9009c-0.965,0 -1.7264,-0.1755 -2.2788,-0.4822l0 -7.3512c0.5721,-0.2851 1.2594,-0.4828 2.1734,-0.4828 2.5168,0 3.3447,1.8711 3.3447,4.1586 -0.0006,2.2205 -0.7873,4.1576 -3.2393,4.1576zm0.0204 -6.7869l0 0c-0.105,0 -0.1898,0.0095 -0.2703,0.0334l0 5.1213c0.0704,0.0233 0.1892,0.0463 0.2978,0.0463 0.8134,0 1.1335,-0.5859 1.1335,-2.631 0,-1.8761 -0.3002,-2.57 -1.161,-2.57z"/>
   <polygon class="fil1" points="82.4939,55.7233 77.9944,51.7746 77.0656,55.3934 73.8214,49.9918 71.9869,58.6074 66.5177,48.5167 56.7833,54.6546 59.723,48.4479 53.4058,50.049 62.1957,41.4245 69.7369,42.5113 77.2787,41.4245 91.2688,55.1584 81.9056,51.0137 86.2123,57.4777 "/>
   <polygon class="fil1" points="60.7137,162.073 60.6959,162.073 59.4889,162.7009 59.2479,161.4856 60.9268,160.6365 62.1461,160.6365 62.1461,167.5493 60.7137,167.5493 "/>
   <path class="fil1" d="M64.1602 166.3797c0.1937,0.0298 0.3511,0.0232 0.6421,0 0.454,-0.0198 0.9115,-0.1705 1.2564,-0.422 0.4159,-0.3014 0.6884,-0.7604 0.7965,-1.2808l-0.0179 -0.0101c-0.2971,0.3221 -0.7036,0.5026 -1.2878,0.5026 -1.0671,0 -1.9608,-0.8089 -1.9608,-2.1602 0,-1.3518 0.9906,-2.4889 2.3813,-2.4889 1.6235,0 2.3896,1.3602 2.3896,2.9748 0,1.448 -0.417,2.4908 -1.0982,3.1822 -0.6,0.6047 -1.4401,0.9252 -2.4271,0.9692 -0.2454,0.0204 -0.5,0.0117 -0.6741,0l0 -1.2669zm1.7616 -4.6806l0 0c-0.4985,0 -0.8679,0.4869 -0.8679,1.2147 0,0.5955 0.3024,1.1068 0.8963,1.1068 0.4194,0 0.6912,-0.2049 0.8349,-0.447 0.0521,-0.107 0.07,-0.2166 0.07,-0.4189 0.0096,-0.734 -0.2537,-1.4562 -0.9223,-1.4562l-0.0111 0 0 0.0005z"/>
   <path class="fil1" d="M71.9302 160.5204c1.481,0 2.0906,0.9322 2.0906,1.7732 0,0.5995 -0.29,1.1823 -0.9246,1.5222l0 0.0365c0.6234,0.2525 1.1657,0.8246 1.1657,1.7098 0,1.2568 -0.9617,2.1055 -2.429,2.1055 -1.6048,0 -2.3439,-0.9891 -2.3439,-1.9249 0,-0.8303 0.4394,-1.4079 1.126,-1.7326l0 -0.0193c-0.6095,-0.3555 -0.9099,-0.9174 -0.9099,-1.5252 0,-1.1696 0.9613,-1.9446 2.2159,-1.9446l0.0092 0 0 -0.0005zm-0.0286 6.0296l0 0c0.5144,0 0.8649,-0.3733 0.8649,-0.8591 0,-0.6097 -0.4189,-0.9699 -0.9953,-1.1396 -0.4801,0.1495 -0.7646,0.5299 -0.7646,1.029 -0.0098,0.5018 0.3427,0.9709 0.8833,0.9709l0.0117 0 0 -0.0011zm-0.0207 -4.9336l0 0c-0.5052,0 -0.7578,0.3693 -0.7578,0.7964 0,0.4681 0.3785,0.7624 0.8836,0.9332 0.3409,-0.1039 0.643,-0.4457 0.643,-0.8714 0,-0.4327 -0.2246,-0.8582 -0.7598,-0.8582l-0.009 0z"/>
   <path class="fil1" d="M74.976 167.5493l0 -0.9789 0.8074 -0.7967c1.3893,-1.3609 2.0582,-2.1385 2.067,-2.9475 0,-0.562 -0.2994,-1.0093 -1.0297,-1.0093 -0.5418,0 -1.0191,0.2966 -1.3517,0.5651l-0.4145 -1.1489c0.4662,-0.3967 1.2138,-0.7121 2.0574,-0.7121 1.4409,0 2.218,0.9125 2.218,2.1673 0,1.1641 -0.7583,2.0872 -1.6825,2.9789l-0.5817 0.5366 0 0.0152 2.3921 0 0 1.331 -4.4817 0 0 -0.0005z"/>
  </g>
 </g>
</svg>
