<?xml version="1.0" encoding="UTF-8"?>
<svg version="1.1" viewBox="260 200 1000 1000" width="1280" height="1280" xmlns="http://www.w3.org/2000/svg">
<path transform="translate(410,241)" d="m0 0h739v801l-2 20-5 21-8 20-8 14-12 16-15 15-16 11-16 8-18 6-21 3h-497l-21-3-21-7-15-8-12-9-10-9-8-8-11-15-9-16-7-18-5-21-1-7-1-17z" fill="#fff"/>
<path transform="translate(542,356)" d="m0 0h475v631l-3 13-7 14-8 10-8 7-12 7-12 4-6 1h-363l-13-3-14-7-10-8-9-11-6-12-4-16z" fill="#102647"/>
<path transform="translate(559,373)" d="m0 0h441v173h-441z" fill="#fff"/>
<path transform="translate(410,241)" d="m0 0h739v801l-2 20-5 21-8 20-8 14-12 16-15 15-16 11-16 8-18 6-21 3h-497l-21-3-21-7-15-8-12-9-10-9-8-8-11-15-9-16-7-18-5-21-1-7-1-17zm22 22v786l3 18 5 17 8 16 7 11 9 11 8 8 14 10 16 8 12 4 12 2h507l15-3 14-5 16-9 13-11 7-7 11-15 8-15 7-21 3-18v-787z" fill="#172C4C"/>
<path transform="translate(812,563)" d="m0 0h64v463h-64z" fill="#fff"/>
<path transform="translate(683,563)" d="m0 0h64v463h-64z" fill="#fff"/>
<path transform="translate(941,563)" d="m0 0h59v423l-4 13-7 11-9 8-12 6-8 2h-19z" fill="#fff"/>
<path transform="translate(559,563)" d="m0 0h59v463h-19l-13-4-11-7-8-9-6-12-2-8z" fill="#fff"/>
<path transform="translate(503,506)" d="m0 0h9l8 4 6 7 4 10 1 5v50h-3l-2-9-4-1h-67l-4 2-2 8h-3v-51l4-12 5-6 8-3 9 1 6 4 5 8 2 5 4-11 7-8z" fill="#102647"/>
<path transform="translate(1028,654)" d="m0 0h3l2 10 4 1h68l4-4 1-6h4v32l-47 20-10 4h-2v2l9 3 45 19 5 3v31h-4l-2-8-5-2h-65l-5 3-2 7h-3v-42h3l3 9 5 2h63l-74-31 1-5 31-13 40-17h-61l-5 1-3 11h-3z" fill="#102647"/>
<path transform="translate(805,1060)" d="m0 0h12l8 5 6 8 4 9 2 11v13l-3 14-6 11-7 6-4 2h-12l-8-5-6-7-4-9-2-9v-18l3-13 5-9 8-7z" fill="#102647"/>
<path transform="translate(1028,778)" d="m0 0h3l3 6 6 4 50 20 24 10 1 5-44 19-31 13-5 3h-2l-2 7h-3v-42h3l2 9 4 1 14-5h2v-29l-10-3-9-1-3 9h-3z" fill="#102647"/>
<path transform="translate(909,404)" d="m0 0 5 1v5l-1 2 6 16v3l12-9 2-6h5l1 5-3 1-1 18 11-5h2l1-4 4-1 2 2v4l-5 1-3 10-5 10-5 4-11 4-5 1h-20l-12-3-8-5-3-3-6-16v-2l-5-1v-5l5-1 2 2v3l6 2 5 2 1-17h-2l-1-4 1-2h5l3 7 11 8 2-9 3-8-1-7z" fill="#102647"/>
<path transform="translate(778,475)" d="m0 0 5 1v5h-2l7 18v3l12-9 2-6 3-1 3 2-1 5h-2v9l-1 9 11-5h2l1-4 5-1 1 5-2 2h-3l-3 9-4 10-8 6-9 3-6 1h-18l-12-3-8-4-4-5-6-15v-2l-5-1v-5l5-1 2 2v3l9 3 2 1 1-17h-2l-1-4 3-3 4 2 2 6 11 8 2-9 3-8-1-7z" fill="#102647"/>
<path transform="translate(646,404)" d="m0 0 5 1 1 3-1 6 5 14v3l6-4 6-5 2-6h5l1 5-3 1 1 17 9-4h2l1-4 4-1 2 1v5l-5 1-3 10-4 9-6 5-11 4-5 1h-20l-11-3-8-4-4-5-6-16-5-3 1-4 4-1 2 2v3l9 3 4 2-1-17-3-3 2-4 5 1 2 6 11 8 3-11 3-9-1-1v-5z" fill="#102647"/>
<path transform="translate(809,269)" d="m0 0h26l9 11 26 32 5 6v-41l-1-3-9-2v-3h26v3l-8 2-1 78-4 1-11-13-8-10-14-17-9-11-10-12v-2h-2l1 51 2 5 9 4v2h-28l1-3 7-2 2-3v-62l-4-5-5-3z" fill="#102647"/>
<path transform="translate(742,1060)" d="m0 0h14l8 4 7 8 4 11v18l-4 11-6 9-7 7-16 8-11 3h-6v-3l11-4 9-6 7-11 2-7-4 1h-10l-10-5-4-6-2-7v-10l4-11 5-5 6-4z" fill="#102647"/>
<path transform="translate(906,269)" d="m0 0h63l-1 4-16 27-13 21-15 25 22-1 10-3 7-6 5-11 2-4h2v10l-2 19h-71l2-5 17-28 16-26 11-18-23 2-7 4-6 9-3 6h-3l2-23z" fill="#102647"/>
<path transform="translate(446,594)" d="m0 0h3l2 8 5 1 53 1 10 3 6 4 4 5 4 10 1 5v10l-2 10-5 10-8 7-6 2-56 1-6 1-2 9h-3v-43h3l2 9 3 2h58l8-3 5-5 2-8-2-12-3-5-10-5-6-1h-48l-6 2-2 4-1 6h-3z" fill="#102647"/>
<path transform="translate(444,788)" d="m0 0h30v3l-11 6-9 8-5 10v11l4 7 6 5 13 4 10 1h14l14-2 10-4 5-5 3-5 1-8-3-10-5-7-13-9-4-2v-3h29l-1 4-3 2 1 9 3 7 1 6v10l-2 10-4 10-9 10-9 6-13 4h-17l-13-4-10-7-7-8-5-12-1-5v-19l5-12v-6l-5-2z" fill="#102647"/>
<path transform="translate(759,267)" d="m0 0h4l16 38 15 35 3 5 5 2v3h-39l1-3 8-2-1-8-3-10h-28l-3 10-1 7 3 2 6 1v3h-25l1-3 5-3 3-4 17-42 12-30z" fill="#102647"/>
<path transform="translate(1019,267)" d="m0 0 4 1 23 54 8 18 4 6 4 1v3h-39v-3l9-2-1-8-3-7v-3l-28 1-4 11v5l2 2 7 2v2h-25v-3l6-3 7-14 16-40 9-22z" fill="#102647"/>
<path transform="translate(534,267)" d="m0 0h4l18 42 13 31 3 4v2l6 2v2h-39v-3l7-1 1-1-1-9-3-8-28-1-3 10-1 7 3 2 6 1v3h-24v-3l6-2 2-5 12-29 17-42z" fill="#102647"/>
<path transform="translate(503,691)" d="m0 0 11 1 17 3v74h-3l-3-9-2-1h-69l-4 4-1 6h-3v-44h3l2 9 2 2h72l1-2v-17l-4-9-4-5-15-9z" fill="#102647"/>
<path transform="translate(1028,508)" d="m0 0h3l3 8 5 2h63l6-2 2-8h4v44h-4l-2-10-4-2h-68l-3 3v15l3 9 7 8 14 8v3l-9-1-20-4z" fill="#102647"/>
<path transform="translate(588,269)" d="m0 0h42v3l-9 2-2 4v67l6 1h8l9-2 8-6 4-5 5-10h4l-2 14-3 13h-70v-3l8-2 2-4v-63l-2-4-8-2z" fill="#102647"/>
<path transform="translate(1028,598)" d="m0 0h3l2 10 4 1h68l4-4 1-7h4v44h-4l-2-9-6-2h-62l-6 2-2 5-1 5h-3z" fill="#102647"/>
<path transform="translate(779,392)" d="m0 0h2l8 25 28 1-4 4-17 12 1 8 6 18-1 2-19-14-5-1-13 10-8 5 3-11 4-13v-4l-17-12-4-4 28-1z" fill="#102647"/>
<path transform="translate(670,269)" d="m0 0h42v3l-9 2-2 5v61l2 5 9 2v3h-42v-3l8-2 2-3v-65l-2-3-8-2z" fill="#102647"/>
<path transform="translate(866,1060)" d="m0 0h5l1 71 4 3 7 1v3h-43v-3l10-2 3-5v-52l-2-3-7 1-4 1 1-4z" fill="#102647"/>
<path transform="translate(701,1060)" d="m0 0h5l1 71 4 3 7 1v3h-43v-3l10-2 3-5v-52l-2-3-7 1-4 1 1-4z" fill="#102647"/>
<path transform="translate(808,1063)" d="m0 0h6l3 4 2 12v39l-2 14-3 4h-6l-3-4-2-9v-48l2-8z" fill="#fff"/>
<path transform="translate(501,528)" d="m0 0h15l6 3 4 4 1 3v10l-4 3h-35v-10l4-8 6-4z" fill="#fff"/>
<path transform="translate(771,515)" d="m0 0h18l12 3 6 4-1 5-7 4-9 2h-20l-12-3-5-4 1-5 7-4z" fill="#fff"/>
<path transform="translate(903,444)" d="m0 0h16l13 3 6 4-1 5-4 3-11 3h-22l-13-4-3-3 1-5 8-4z" fill="#fff"/>
<path transform="translate(640,444)" d="m0 0h16l13 3 6 4-1 5-4 3-11 3h-22l-13-4-3-3 1-5 8-4z" fill="#fff"/>
<path transform="translate(461,531)" d="m0 0h11l7 3 4 5 1 4v8h-32l-3-5 1-8 5-5z" fill="#fff"/>
<path transform="translate(745,1063)" d="m0 0h7l3 3 2 8v27l-3 3-7-1-4-5-2-15v-9l2-9z" fill="#fff"/>
<path transform="translate(1058,801)" d="m0 0 29 11 1 2-29 12h-1z" fill="#fff"/>
<path transform="translate(753,293)" d="m0 0 3 4 9 22v3h-23l6-17z" fill="#fff"/>
<path transform="translate(1013,293)" d="m0 0 2 3 10 24v2h-23l3-9 7-19z" fill="#fff"/>
<path transform="translate(528,293)" d="m0 0 2 1 11 27v1h-23l1-6z" fill="#fff"/>
</svg>
