<?xml version="1.0" encoding="UTF-8"?>
<svg version="1.1" viewBox="180 180 1200 1200" width="1280" height="1280" xmlns="http://www.w3.org/2000/svg">
<path transform="translate(753,459)" d="m0 0h49l26 3 29 6 26 8 21 8 29 14 18 11 16 11 14 11 10 9 8 7 17 17 9 11 12 15 10 15 9 15 8 15v2h268l12 2 13 5 10 7 9 9 8 14 4 14v20l-4 13-6 11-9 10-67 67-8 7-86 86-12 9-15 7-16 4h-102l-2 5-8 15-16 24-11 14-12 14-25 25-11 9-16 12-15 10-21 12-23 11-27 10-30 8-30 5-25 2h-27l-24-2-30-5-27-7-25-9-20-9-21-11-19-12-19-14-15-13-15-14-13-14-9-11-12-16-12-19-10-18v-2h-104l-15-4-10-4-12-8-10-9-62-62-8-7-94-94-7-12-4-13-1-14 3-16 8-16 7-8 9-8 12-6 10-3 8-1 268-1 12-22 16-24 11-14 12-14 23-23 11-9 18-14 19-12 16-9 25-12 24-9 29-8 28-5z" fill="#FEFEFE"/>
<path transform="translate(755,532)" d="m0 0h45l23 3 25 6 23 8 29 14 19 12 14 11 14 12 16 16 11 14 11 15 11 19 11 23 7 20 5 18 4 23 2 26v13l-2 26-4 22-6 22-8 21-9 19-12 20-12 16-11 13-9 10-8 7-10 9-16 12-18 11-21 11-23 9-26 7-26 4-13 1h-27l-27-3-23-5-17-5-24-10-21-11-21-14-11-9-10-9-8-7-12-13-13-17-10-15-9-16-9-19-7-20-5-18-4-22-2-22v-24l2-22 5-26 8-26 11-25 10-18 11-16 11-14 11-12 15-15 14-11 14-10 17-10 25-12 20-7 18-5 23-4z"/>
<path transform="translate(754,506)" d="m0 0h48l23 3 27 6 24 8 18 8 25 13 12 8 14 10 14 12 12 11 8 8 9 11 10 12 10 15 9 15 8 16 8 18 1 5h295l7 2 4 5v9l-4 6-29 29-9 4h-5l1 5-2 7-5 6-8 7-11 11-9 6-7 2-4 11-9 10-8 7-11 11-10 5h-4v8l-4 6-17 16-9 9-10 5h-132l-3 9-9 20-11 20-13 19-13 16-9 10-17 17-11 9-19 14-22 13-25 12-22 8-23 6-23 4-22 2h-29l-22-2-27-5-24-7-25-10-22-11-19-12-12-9-11-9-10-9-19-19-11-14-11-15-9-15-12-23-7-17v-2h-131l-8-4-10-9-13-13-7-6-2-4v-8l-7-1-9-6-24-24-4-6-2-7-9-3-13-11-18-18-1-2v-10l-8-1-8-5-29-29-2-4v-8l3-5 3-2 5-1h294l1-5 9-21 10-19 14-21 10-13 12-14 17-17 11-9 17-13 21-13 17-9 27-11 24-7 25-5zm1 26-27 4-20 5-18 6-18 8-23 12-16 11-14 11-12 11-15 15-11 14-10 14-9 15-8 15-10 25-7 24-4 22-2 22v24l2 22 5 26 6 20 6 16 12 25 12 19 13 17 10 11 7 8 13 12 14 11 18 12 16 9 19 9 19 7 28 7 21 3 12 1h27l21-2 22-4 22-6 25-10 23-12 18-12 14-11 12-11 6-5 7-8 9-10 14-19 14-24 10-22 8-24 5-22 3-21 1-17v-13l-2-26-4-23-7-25-9-22-10-20-12-19-11-14-11-13-16-16-11-9-13-10-21-13-27-13-30-10-24-5-17-2z"/>
<path transform="translate(753,459)" d="m0 0h49l26 3 29 6 26 8 21 8 29 14 18 11 16 11 14 11 10 9 8 7 17 17 9 11 12 15 10 15 9 15 8 15v2h268l12 2 13 5 10 7 9 9 8 14 4 14v20l-4 13-6 11-9 10-67 67-8 7-86 86-12 9-15 7-16 4h-102l-2 5-8 15-16 24-11 14-12 14-25 25-11 9-16 12-15 10-21 12-23 11-27 10-30 8-30 5-25 2h-27l-24-2-30-5-27-7-25-9-20-9-21-11-19-12-19-14-15-13-15-14-13-14-9-11-12-16-12-19-10-18v-2h-104l-15-4-10-4-12-8-10-9-62-62-8-7-94-94-7-12-4-13-1-14 3-16 8-16 7-8 9-8 12-6 10-3 8-1 268-1 12-22 16-24 11-14 12-14 23-23 11-9 18-14 19-12 16-9 25-12 24-9 29-8 28-5zm4 20-26 3-29 6-26 8-24 10-20 10-21 13-19 14-14 12-15 14-12 13-11 14-11 15-13 21-12 24v2h-286l-11 4-10 8-6 9-4 11v15l4 11 6 9 20 20 8 7 110 110 8 7 21 21 14 8 9 3 6 1h113l1 5 11 21 12 19 12 16 11 13 9 10 15 15 11 9 14 11 18 12 21 12 19 9 27 10 26 7 30 5 30 2 30-1 30-4 25-6 19-6 16-6 24-11 19-11 12-8 16-12 13-11 13-12 8-8 7-8 13-16 16-24 10-18 6-12v-2h112l15-4 11-6 12-11 43-43 8-7 110-110 5-9 2-8v-13l-4-12-6-8-7-7-11-5-4-1-284-1-11-23-14-23-12-16-9-11-11-12-19-19-11-9-13-10-15-10-21-12-21-10-21-8-24-7-25-5-27-3z" fill="#020202"/>
<path transform="translate(771,642)" d="m0 0h14l17 2 19 5 15 6 13 7 14 10 12 11 10 11 9 13 9 17 7 21 3 15 1 10v17l-3 21-5 17-7 16-10 16-9 11-15 15-14 10-16 9-19 7-18 4-8 1h-24l-19-3-24-8-17-9-16-12-11-10-9-11-9-13-8-15-7-21-3-14-1-9v-22l3-19 5-17 7-16 10-16 11-13 12-12 15-11 19-10 21-7 15-3z"/>
<path transform="translate(757,518)" d="m0 0h42l23 3 23 5 30 10 20 9 18 10 15 10 13 10 13 11 20 20 11 14 11 15 9 15 10 19 8 20 6 18 6 26 3 23v44l-3 23-5 23-9 27-8 18-11 21-10 15-9 12-11 13-14 15-10 9-14 11-14 10-19 11-16 8-20 8-26 8-27 5-23 2h-22l-23-2-22-4-23-6-19-7-20-9-18-10-19-13-11-9-14-12-12-12-18-22-14-21-12-22-10-25-6-19-5-22-3-22-1-15v-17l2-25 4-23 7-25 7-19 12-25 12-20 13-17 11-13 22-22 14-11 14-10 15-9 21-11 26-10 26-7 24-4zm-2 14-27 4-20 5-18 6-18 8-23 12-16 11-14 11-12 11-15 15-11 14-10 14-9 15-8 15-10 25-7 24-4 22-2 22v24l2 22 5 26 6 20 6 16 12 25 12 19 13 17 10 11 7 8 13 12 14 11 18 12 16 9 19 9 19 7 28 7 21 3 12 1h27l21-2 22-4 22-6 25-10 23-12 18-12 14-11 12-11 6-5 7-8 9-10 14-19 14-24 10-22 8-24 5-22 3-21 1-17v-13l-2-26-4-23-7-25-9-22-10-20-12-19-11-14-11-13-16-16-11-9-13-10-21-13-27-13-30-10-24-5-17-2z" fill="#FEFEFE"/>
<path transform="translate(771,642)" d="m0 0h14l17 2 19 5 15 6 13 7 14 10 12 11 10 11 9 13 9 17 7 21 3 15 1 10v17l-3 21-5 17-7 16-10 16-9 11-15 15-14 10-16 9-19 7-18 4-8 1h-24l-19-3-24-8-17-9-16-12-11-10-9-11-9-13-8-15-7-21-3-14-1-9v-22l3-19 5-17 7-16 10-16 11-13 12-12 15-11 19-10 21-7 15-3zm2 14-18 2-16 4-16 7-14 8-10 8-10 9-10 12-8 13-8 17-4 13-3 19v20l3 19 5 16 8 16 7 11 9 11 10 10 15 11 15 8 17 6 14 3 8 1h22l18-3 21-7 18-10 10-8 10-9 8-9 10-15 9-19 5-18 2-17v-14l-3-21-5-16-8-17-9-13-12-14-12-10-14-9-15-7-16-5-11-2-12-1z" fill="#FEFEFE"/>
<path transform="translate(1038,696)" d="m0 0h286l2 2-1 4-14 14-7 8-5 4-7 2h-245l-2-5z" fill="#FEFEFE"/>
<path transform="translate(233,696)" d="m0 0h284l-1 7-6 26-1 1h-244l-8-3-26-26 1-4z" fill="#FEFEFE"/>
<path transform="translate(1049,740)" d="m0 0h227l4 3v5l-22 22-7 3h-200l-1-1-2-31z" fill="#FEFEFE"/>
<path transform="translate(281,740)" d="m0 0h226l1 3-3 30h-199l-8-4-21-21v-5z" fill="#FEFEFE"/>
<path transform="translate(684,722)" d="m0 0h1l1 105 23 13 29 16 27 15 13 7 26-14 23-13 24-13 18-10h2v-106l3 3 6 12 6 20 2 18-1 18-5 21-8 18-9 13-9 10-8 8-14 10-17 8-17 5-14 2h-16l-14-2-20-6-17-9-12-9-8-7-9-11-9-14-6-13-5-17-2-15v-14l3-19 6-18 6-11z" fill="#FEFEFE"/>
<path transform="translate(1051,784)" d="m0 0h183l2 2v5l-25 25-6 2h-157l1-15 1-18z" fill="#FEFEFE"/>
<path transform="translate(323,784)" d="m0 0h182l2 21 1 13h-156l-8-4-23-23v-5z" fill="#FEFEFE"/>
<path transform="translate(902,589)" d="m0 0 7 6 41 41 4 9-1 10-6 7-4 2h-10l2 9-3 9-8 7-6 2-9-1-8-4-10-9-38-38 6-7z" fill="#FDFDFD"/>
<path transform="translate(797,717)" d="m0 0h38v121l-36 20h-2z" fill="#FEFEFE"/>
<path transform="translate(721,717)" d="m0 0h38v141l-6-2-27-15-5-3z" fill="#FEFEFE"/>
<path transform="translate(764,669)" d="m0 0h28l18 4 13 5 15 8 14 11 9 9 1 3h-168l2-4 11-11 14-10 16-8 16-5z" fill="#FEFEFE"/>
<path transform="translate(1046,829)" d="m0 0h143l3 4-2 5-11 11-8 7-4 4-3 1h-126l4-16z" fill="#FEFEFE"/>
<path transform="translate(368,829)" d="m0 0h142l8 32h-125l-6-4-9-9-8-7-5-6 2-5z" fill="#FEFEFE"/>
<path transform="translate(948,810)" d="m0 0h13l12 4 10 6 7 8 3 8v9l-5 14-12 29-6-1-41-17-14-6 3-9 12-29 6-9 5-4z" fill="#FEFEFE"/>
<path transform="translate(656,880)" d="m0 0 4 2 11 9 14 12 10 8 4 8-1 9-5 7-5 3-7 1 1 2v9l-5 8-6 5-6 2-8-1-8-4-10-9-11-9-13-11 1-4 13-15 9-11 12-14z" fill="#FEFEFE"/>
<path transform="translate(652,601)" d="m0 0 9 1 9 4v4l-14 14-6-1h-9l-10 5-7 8-3 7v9l5 10 7 6 8 3h7l10-5 7-7 4-10-1-10-1-4 16-16 3 3 4 10v10l-4 12-7 11-12 13-12 9-12 5h-14l-10-4-10-9-6-8-3-8v-13l4-11 9-13 13-13 12-8 8-3z" fill="#FEFEFE"/>
<path transform="translate(785,553)" d="m0 0 10 1 11 2-1 11-6 33 1 8 4 5 10 4 9 1 8-2 5-5 4-18 5-27 1-2 13 2 9 2-9 48-4 8-7 6-10 3h-18l-19-4-12-5-10-9-3-7v-11l8-43z" fill="#FEFEFE"/>
<path transform="translate(797,933)" d="m0 0h25l6 3 4 5 2 6v7l-3 7-4 4 5 5 2 7 2 14 1 5-17 1-2-3-2-15-3-4h-25l1 6v17l-2 1h-14l-1-2-3-53v-9z" fill="#FEFEFE"/>
<path transform="translate(906,873)" d="m0 0 9 3 57 23-2 4-10 10-14-5-18 18 1 5 3 7-1 4-11 11-3-4-16-39-8-19 1-5z" fill="#FDFDFD"/>
<path transform="translate(706,920)" d="m0 0 8 1 46 15 1 3-3 10-9-2-28-9h-2l-4 12 10 2 26 9-2 9-2 3-35-11-4 10v3l37 12-2 9-2 4-41-13-12-4-1-4 18-55z" fill="#FEFEFE"/>
<path transform="translate(701,568)" d="m0 0h2l9 29 6 21v3l50-14 4 12v2l-29 9-41 12h-2l-19-64v-4z" fill="#FEFEFE"/>
<path transform="translate(880,900)" d="m0 0h3l5 9v2l-17 10v3l15 27 8 14-1 3-11 6h-3l-14-25-10-17v-2l-18 10h-3l-5-9v-2l27-15 21-12z" fill="#FEFEFE"/>
<path transform="translate(620,813)" d="m0 0h3l5 12v4l-40 17-7 2 6 16 7 16-1 4-11 4-6-13-15-36 4-3 41-17z" fill="#FEFEFE"/>
<path transform="translate(949,827)" d="m0 0h9l10 4 6 4 4 6v9l-7 17-3 1-34-14-1-2 7-17 5-6z"/>
<path transform="translate(643,858)" d="m0 0 5 5 6 9-19 14-18 13-15 11-4-2-7-10v-2l18-13 19-14z" fill="#FEFEFE"/>
<path transform="translate(889,633)" d="m0 0 7 6 18 18 1 2v7l-5 4h-6l-10-9-16-16 6-7z"/>
<path transform="translate(908,614)" d="m0 0 4 2 18 18 3 5-1 6-4 3-7-1-22-22 2-4z"/>
<path transform="translate(644,920)" d="m0 0 4 1 15 13 3 3v6l-5 5h-6l-15-13-4-3 2-5z"/>
<path transform="translate(791,946)" d="m0 0h21l4 4v7l-4 4-9 1h-16v-15z"/>
<path transform="translate(661,900)" d="m0 0 4 2 14 12 2 2v6l-4 4h-6l-14-12-4-3 2-4z"/>
<path transform="translate(911,892)" d="m0 0 5 1 18 8-2 4-10 10-2-1-9-20z"/>
</svg>
