<?xml version="1.0" encoding="UTF-8"?>
<svg version="1.1" viewBox="250 250 1000 1000" width="1280" height="1280" xmlns="http://www.w3.org/2000/svg">
<path transform="translate(774,248)" d="m0 0 6 1 22 12 40 20 36 16 29 12 37 14 34 12 39 12 44 12 49 11 33 6 44 6 32 3 6 2 2 51 1 35v91l-2 51-4 53-5 44-6 40-8 42-8 34-10 35-12 36-13 33-11 24-10 20-14 24-12 19-14 20-9 12-11 14-11 13-9 10-7 8-7 7-7 8-10 10-8 7-7 7-8 7-14 12-16 13-20 15-17 12-21 14-24 15-23 13-24 13-28 14-29 13-12 5-5-1-25-11-30-14-31-16-24-14-20-12-33-22-18-13-13-10-16-13-13-11-12-11-8-7-33-33-7-8-12-14-13-16-14-19-20-30-13-22-15-28-12-27-12-31-12-36-8-28-8-32-8-40-7-44-5-42-4-49-2-40-1-38v-59l1-44 2-51 1-9 27-3 34-4 43-7 47-10 46-12 43-13 41-14 39-15 33-14 33-15 29-14 22-12z" fill="#024A7D"/>
<path transform="translate(1198,578)" d="m0 0h2v25l-3 46-4 41-6 45-8 44-7 31-8 31-12 38-10 27-11 26-13 27-13 23-15 24-12 17-13 17-13 16-12 14-15 16-24 24-8 7-11 10-11 9-16 13-19 14-17 12-23 15-25 15-25 14-33 17-36 16-5-1-29-13-40-20-23-13-20-12-22-14-17-12-19-14-14-11-11-9-14-12-13-12-12-11-15-15-7-8-12-13-9-11v-4l44-29 34-23 43-29 44-29 43-29 44-29 43-29 44-29 43-29 44-29 43-29 44-29 43-29 44-29 43-29 44-29z" fill="#47A0CE"/>
<path transform="translate(774,278)" d="m0 0 5 1 37 19 28 13 32 14 35 14 30 11 41 14 44 13-1 3-44 29-43 29-44 29-43 29-44 29-43 29-44 29-43 29-44 29-43 29-44 29-43 29-44 29-43 29-35 23h-2l-8-36-8-47-6-47-4-47-2-35-1-28v-102l2-56 1-1 48-6 40-7 42-9 39-10 44-13 45-15 45-17 38-16 28-13 25-12z" fill="#47A0CE"/>
<path transform="translate(1198,578)" d="m0 0h2v25l-3 46-4 41-6 45-8 44-7 31-8 31-12 38-10 27-11 26-13 27-13 23-15 24-12 17-13 17-13 16-12 14-15 16-24 24-8 7-11 10-11 9-16 13-19 14-17 12-23 15-25 15-25 14-33 17-36 16-5-1-29-13-40-20-23-13-20-12-22-14-17-12-19-14-14-11-11-9-14-12-13-12-12-11-15-15-7-8-12-13-9-11v-4l44-29 34-23 43-29 44-29 43-29 44-29 43-29 44-29 43-29 44-29 43-29 44-29 43-29 44-29 43-29 44-29zm-22 40-44 29-43 29-44 29-34 23-43 29-44 29-43 29-44 29-43 29-44 29-43 29-44 29-43 29-44 29-43 29-8 5 2 4 14 15 26 26 8 7 15 13 16 13 20 15 20 14 20 13 28 17 24 13 27 14 28 13 7-1 28-13 26-13 23-13 27-16 30-20 18-13 18-14 13-11 11-9 16-15 15-14 15-16 11-12 9-11 13-16 13-18 15-23 9-15 12-22 13-27 13-33 12-36 8-28 10-42 8-44 6-44 4-39 2-33z" fill="#FDFDFD"/>
<path transform="translate(774,278)" d="m0 0 5 1 37 19 28 13 32 14 35 14 30 11 41 14 44 13-1 3-44 29-43 29-44 29-43 29-44 29-43 29-44 29-43 29-44 29-43 29-44 29-43 29-44 29-43 29-35 23h-2l-8-36-8-47-6-47-4-47-2-35-1-28v-102l2-56 1-1 48-6 40-7 42-9 39-10 44-13 45-15 45-17 38-16 28-13 25-12zm1 23-27 14-28 13-29 13-39 16-44 16-52 17-47 13-42 10-41 8-39 6-14 2-1 1-1 30v115l2 44 4 50 6 50 7 42 3 14 5-2 43-29 44-29 43-29 44-29 43-29 44-29 43-29 44-29 23-16 44-29 43-29 44-29 43-29 35-23-2-2-50-17-39-15-31-13-29-13-29-14-22-11z" fill="#FDFDFD"/>
<path transform="translate(629,742)" d="m0 0h9l10 4 7 6 11 15 15 23 5 11 1 11-4 11-9 10-12 9-42 28-11 5-7 2h-7l-9-3-8-6-9-11-19-29-4-9-1-4v-10l4-10 7-8 12-9 42-28 12-6z" fill="#FDFDFD"/>
<path transform="translate(509,823)" d="m0 0h8l7 3 7 6 6 9 2 5v11l-3 5 4-1h9l7 4 7 8 5 10 1 3v10l-4 8-9 8-42 28-34 23-4-1-29-43-26-39v-2l44-29 11-8 17-11 12-6z" fill="#FDFDFD"/>
<path transform="translate(1093,429)" d="m0 0h9l9 4 7 7 10 15 3 8v8l-5 9 5-2 8 1 6 4 7 8 8 12-2 4-21 14-4-5-7-9v-2l-3-1h-8l-39 26 2 5 11 17-5 5-18 12-5-5-28-42-25-37 5-5 72-48z" fill="#FDFDFD"/>
<path transform="translate(955,519)" d="m0 0 5 1 27 15 23 13 27 15 19 11-5 5-12 8-7 5-6-1-12-7-4 1-44 29-1 1 1 11 1 9-11 8-15 10h-1l-6-43-8-62v-9l14-10z" fill="#FDFDFD"/>
<path transform="translate(891,562)" d="m0 0 2 3 14 106v5l-29 19-14-7-24-14-25-14-36-21 5-5 20-13 5 2 23 13 24 14 20 12h1l-11-78v-5z" fill="#FDFDFD"/>
<path transform="translate(679,705)" d="m0 0 4 5 15 22 23 34v2l54-36 4 4 11 17-5 5-72 48-4-4-12-18-29-43-12-18v-3z" fill="#FDFDFD"/>
<path transform="translate(624,774)" d="m0 0h6l6 4 6 7 10 15 2 5v7l-4 6-39 26-2 1h-9l-6-5-14-21-2-5 1-9 5-6 33-22z" fill="#024B7D"/>
<path transform="translate(768,645)" d="m0 0 4 4 24 36 29 43v3l-21 14-3 1-8-12-29-43-10-15-9-13 2-4z" fill="#FDFDFD"/>
<path transform="translate(1090,460)" d="m0 0h6l7 8 2 4v6l-5 5-38 26h-3l-12-18v-3l39-26z" fill="#034C7F"/>
<path transform="translate(528,882)" d="m0 0 5 1 4 5v5l-5 5-31 21-12 8-5-5-4-6v-3l45-30z" fill="#054E80"/>
<path transform="translate(503,853)" d="m0 0h6l4 4 1 7-5 5-21 14-19 13-4-2-6-9 2-4 18-12z" fill="#044D80"/>
<path transform="translate(954,550)" d="m0 0 5 1 24 14 8 5-5 4-24 16h-2z" fill="#054E81"/>
</svg>
