<?xml version="1.0" encoding="UTF-8"?>
<svg version="1.1" viewBox="270 200 1050 1050" width="1280" height="1280" xmlns="http://www.w3.org/2000/svg">
<path transform="translate(783,212)" d="m0 0 6 2 18 10 28 14 31 13 38 13 37 10 35 7 34 5 34 3 23 1h34l37-2 35-4 29-5 9-2h4l7 19 9 29 9 38 6 35 4 32 2 24 1 20v53l-2 33-4 37-6 38-8 38-11 41-12 36-10 27-11 25-12 25-5 10h146v188l-282 1-17 17-7 8-15 14-12 12-8 7-13 12-11 9-11 10-14 11-17 14-32 24-17 12-39 26-21 13-16 9-6-1-22-13-19-12-24-16-20-14-19-14-13-10-14-11-16-13-13-11-14-12-12-11-8-7-16-15-37-37v-2h-260v-188l123-1-10-19-14-31-12-31-12-36-8-28-8-33-7-36-5-35-3-31-2-40v-32l2-39 4-38 6-37 8-36 8-28 9-26 2-3 48 8 28 3 37 2h34l37-2 35-4 36-6 38-9 36-11 29-11 25-11 23-11z" fill="#fff"/>
<path transform="translate(783,306)" d="m0 0 5 1 18 10 23 11 30 12 33 11 30 8 35 7 34 5 32 3 19 1h54l31-2 27-3 5 18 5 26 4 29 2 23 1 21v42l-2 34-4 37-8 47-9 38-8 29-11 33-11 27-12 26-12 23-8 14h-151l-24-13-19-12-17-12-14-11-10-9-8-7-9-9-9-11-8-11-6-10v-2h-2l-1 13h-3l-9-14-8-19-4-15-2-11v-6l-14-2-8-2-13-21-4-8h22l-2-8-6-7-8-5 2-5-1-10-7-14-5-7 1-7v-12l-4-12-9-13-25-25-14-11-14-9-19-10-23-9-13-4-8 11-5 10-4 24-5 17-17 26-15 25-2 4 1 7 8 4 3 1 18 1 6 2h4l2-4 1-7h2l9 16 1 5-12-5-12-1h-5l3 6v12l-4 12 9 1 12 5 12 7 3 4v2l-9-1-20-4-13-2 1 10 4 3 12 4 5 5-1 6-7 6-7 10-4 9-1 4v13l3 6 7 4 13 2h22l29-1 32-3 13-3 15-8 14-10 11-9 1 2-14 27-10 24-6 18-5 21-1 7-1 19-7-6-4-9-2-8-25 10-23 12-14 10-8 7h-140l-8-13-15-29-9-19-12-30-12-36-11-42-7-33-6-38-4-38-1-15v-72l3-34 4-28 6-29 3-11 40 4 18 1h55l31-2 35-4 35-6 34-8 30-9 28-10 30-13 24-12z" fill="#05306E"/>
<path transform="translate(284,848)" d="m0 0h1023v166h-1023z" fill="#BE2227"/>
<path transform="translate(783,212)" d="m0 0 6 2 18 10 28 14 31 13 38 13 37 10 35 7 34 5 34 3 23 1h34l37-2 35-4 29-5 9-2h4l7 19 9 29 9 38 6 35 4 32 2 24 1 20v53l-2 33-4 37-6 38-8 38-11 41-12 36-10 27-11 25-12 25-5 10h-74l7-14 10-19 11-23 12-30 12-36 8-29 8-34 6-32 5-37 3-35 1-25v-31l-2-37-4-35-6-33-7-26v-3l-16 3-30 3-17 1h-61l-39-3-30-4-33-6-36-9-37-12-27-11-24-11-22-12-5-3-5 2-26 14-26 12-26 10-30 10-40 10-33 6-30 4-22 2-18 1h-59l-39-3-24-3-7 25-6 32-4 32-2 26v68l3 38 5 38 8 42 11 44 11 35 10 27 12 27 16 32 6 10v2h-73l-5-8-13-27-13-31-11-30-9-28-9-33-9-41-6-37-4-34-2-27-1-25v-32l2-39 4-38 6-37 8-36 8-28 9-26 2-3 48 8 28 3 37 2h34l37-2 35-4 36-6 38-9 36-11 29-11 25-11 23-11z" fill="#05306E"/>
<path transform="translate(678,367)" d="m0 0 18 1 21 5 32 7 48 7 19 5 16 8 11 8 13 12 11 12 11 16 8 14 6 17 2 9v22l7 1 4 4 1 3 1 16 5 21 3 16-1 14-2 7 5 2 6 5 10 14 10 18 13 27 11 27 10 24 12 26 13 25 16 27 18 27 14 19 2 4h-117l-24-13-19-12-17-12-14-11-10-9-8-7-9-9-9-11-8-11-6-10v-2h-2l-1 13h-3l-9-14-8-19-4-15-2-11v-6l-14-2-8-2-13-21-4-8h22l-2-8-6-7-8-5 2-5-1-10-7-14-5-7 1-7v-12l-4-12-9-13-25-25-14-11-14-9-19-10-23-9-13-4-8 11-5 10-4 24-5 17-17 26-15 25-2 4 1 7 8 4 3 1 18 1 6 2h4l2-4 1-7h2l9 16 1 5-12-5-12-1h-5l3 6v12l-4 12 9 1 12 5 12 7 3 4v2l-9-1-20-4-13-2 1 10 4 3 12 4 5 5-1 6-7 6-7 10-4 9-1 4v13l3 6 7 4 13 2h22l29-1 32-3 13-3 15-8 14-10 11-9 1 2-14 27-10 24-6 18-5 21-1 7-1 19-7-6-4-9-2-8-25 10-23 12-14 10-8 7h-9l6-8 11-10 14-10 16-9 15-7 17-6 3-5 5-12 2-8v-14l-3-5-8-2h-18l-33 2h-34l-17-3-7-4-4-6-2-9v-10l3-10 3-7 1-5v-12l-6-7-2-8v-14l3-7 5-10 1-3v-9l-3-5-15-3-8-5-3-7 1-8 7-14 14-20 11-16 5-12 5-20 3-16 5-12 7-8-1-5-3-6v-11l4-6 5-4 4-1-4-16v-8l3-8 5-4 6-4 9-12 8-10 9-6 11-4z" fill="#010000"/>
<path transform="translate(618,476)" d="m0 0 24 8 20 9 18 10 12 9 13 11 23 23 9 14 3 10v12l-1 7 9 14 4 11-1 9v2l9 7 5 7v6l-21 1 13 22 3 5 8 2 14 3 5 25 5 15 8 16 6 9h1l2-13h2l8 14 13 16 11 12 14 13 14 11 15 11 17 11 21 12 11 6v1h-312l4-5 15-11 16-9 19-9 17-6 3 12 5 8 3 3 1-18 4-21 7-22 8-20 12-25 5-10-12 10-18 12-13 6-18 3-24 2-29 1h-22l-13-2-7-4-3-4-1-3v-13l3-10 7-10 4-5 5-4 1-6-4-4-14-5-3-3v-10l13 1 29 6-4-6-17-9-9-3-6-1 1-6 2-6v-12l-2-6 11-1 12 3 5 3-4-10-5-8v-2h-2v7l-3 5-7-1-3-1-18-1-9-4-4-4 1-7 9-16 14-22 10-15 6-21 3-20 6-12z" fill="#FDC285"/>
<path transform="translate(533,1025)" d="m0 0h97l11 10 25 20 20 15 18 13 27 18 21 13 26 15 4 2 6-1 22-12 26-16 31-21 18-13 13-10 14-11 11-9 13-11 3-2h97l-6 7-11 11-7 8-15 14-12 12-8 7-13 12-11 9-11 10-14 11-17 14-32 24-17 12-39 26-21 13-16 9-6-1-22-13-19-12-24-16-20-14-19-14-13-10-14-11-16-13-13-11-14-12-12-11-8-7-16-15-37-37z" fill="#05306E"/>
<path transform="translate(638,409)" d="m0 0h11l17 4 22 8 33 16 23 12 24 14 18 10 28 17 16 9 19 11 16 8 13 5 5 1h7l5-2 3-4 5 25 3 23v17l-2 5-4 3h-13l-12-4 4 16 4 14-1 3-15-15-8-7-14-13-17-13-17-12-24-14-29-15-24-12-64-29-42-18-11-5-3-7v-7l4-6 8-6 5-1-5-12v-10l3-5 5-3z" fill="#fff"/>
<path transform="translate(646,1025)" d="m0 0h276l-5 5-9 8-17 13-21 16-19 13-18 12-19 12-19 11-9 5-6-1-26-15-25-16-19-13-18-13-16-12-14-11-11-9z" fill="#FEC386"/>
<path transform="translate(1e3 863)" d="m0 0h18l13 3 11 6 10 9 7 11 5 14 2 12v20l-3 16-5 13-8 11-8 7-12 6-14 3h-13l-14-3-14-7-7-6-7-10-5-11-3-13-1-8v-15l2-14 5-15 7-11 7-7 12-7 9-3z" fill="#FEFDFC"/>
<path transform="translate(1208,863)" d="m0 0h19l12 3 10 5 10 9 6 8 4 8 4 14 1 6v25l-3 14-5 12-7 10-9 8-12 6-14 3h-13l-14-3-14-7-10-10-6-10-5-16-1-5v-29l4-16 7-14 7-8 10-7 10-4z" fill="#FEFDFC"/>
<path transform="translate(475,863)" d="m0 0h18l12 3 12 6 7 6 7 10 4 8 4 14 1 7v23l-4 18-7 14-9 10-9 6-10 4-10 2h-13l-14-3-12-6-9-8-7-11-5-13-2-10-1-18 2-17 4-13 6-11 9-10 10-6 11-4z" fill="#FEFDFC"/>
<path transform="translate(680,863)" d="m0 0h18l12 3 11 6 10 9 6 10 5 13 2 10 1 16-2 19-5 15-6 10-6 7-10 7-14 5-7 1h-13l-16-4-11-6-9-9-6-10-4-10-3-15v-23l3-15 5-13 10-13 10-7 13-5z" fill="#FEFDFC"/>
<path transform="translate(887,863)" d="m0 0h19l13 4 9 6 7 8 5 10 2 8-24 5-4-11-4-5-10-4h-7l-10 3-6 5-6 11-3 16v19l3 16 5 10 5 5 6 3h15l10-6 5-9 2-5 9 1 14 3 1 4-5 12-9 10-8 6-10 4-12 2h-13l-13-3-11-6-6-5-7-10-5-11-3-12-1-7v-23l3-15 5-12 6-9 8-8 16-8z" fill="#FEFDFC"/>
<path transform="translate(365,863)" d="m0 0h18l13 4 11 8 7 10 4 11v3l-23 5-4-11-4-5-10-4h-7l-9 3-7 6-5 10-3 14v23l3 15 5 10 6 5 5 2h14l10-6 6-12 2-3 21 5 2 2-4 11-6 9-9 8-10 5-14 3h-13l-16-4-9-6-5-4-7-10-5-12-3-12-1-9v-17l3-17 5-13 7-10 7-7 10-6z" fill="#FEFDFC"/>
<path transform="translate(1213,883)" d="m0 0h8l10 3 8 7 5 10 3 15v21l-3 15-6 11-8 6-5 2h-15l-10-5-6-7-4-10-2-10v-25l3-14 6-10 7-6z" fill="#BE2227"/>
<path transform="translate(1e3 883)" d="m0 0h8l9 3 8 6 6 12 2 8 1 9v14l-2 14-4 11-9 10-7 3h-16l-8-4-7-8-4-9-2-9v-29l3-12 4-8 5-5 8-5z" fill="#BE2227"/>
<path transform="translate(480,883)" d="m0 0h8l9 3 6 4 6 10 3 9 1 6v27l-3 13-5 9-8 7-5 2h-15l-10-5-6-8-4-10-2-14v-16l3-17 6-11 7-6z" fill="#BE2227"/>
<path transform="translate(685,883)" d="m0 0h8l9 3 7 6 6 12 2 8 1 9v15l-2 14-5 12-5 6-10 5h-15l-8-4-7-8-4-9-2-10v-27l3-13 4-8 4-5 9-5z" fill="#BE2227"/>
<path transform="translate(1081,866)" d="m0 0h26v104h48v21h-73l-1-1z" fill="#FEFDFB"/>
<path transform="translate(555,866)" d="m0 0h26v104h47v21h-73z" fill="#FEFDFB"/>
<path transform="translate(618,503)" d="m0 0h18l11 3 11 6 12 12-1 2-4-2h-10l-1 8h-9l-6-2-3 4-5 18-6-2-10-9-5-8-2-6v-14l2-7z" fill="#030000"/>
<path transform="translate(795,591)" d="m0 0 2 3 27 67-1 3-25-25-2 16h-1l-6-25-7-19-7-13-2-4 5 2 7 3 7-1z" fill="#FEFEFE"/>
<path transform="translate(688,607)" d="m0 0h16l4 2-18 20-7 8-9 10-5 6v-3l3-7 1-5v-8l-5-10-4-3 1-3 12-5z" fill="#070101"/>
<path transform="translate(769,922)" d="m0 0h48v16h-48l-1-1v-14z" fill="#FEFAF5"/>
<path transform="translate(917,742)" d="m0 0 7 4 11 9 15 14 11 12 11 14 10 13 2 5-9-5-11-9-10-9-14-14-11-14-10-15z" fill="#fff"/>
</svg>
