<?xml version="1.0" encoding="UTF-8"?>
<svg version="1.1" viewBox="210 180 1050 1050" width="1280" height="1280" xmlns="http://www.w3.org/2000/svg">
<path transform="translate(729,201)" d="m0 0h33l32 2 32 4 31 6 28 7 37 12 32 13 33 16 24 14 19 12 17 12 13 10 16 13 10 9 8 7 7 7 8 7 12 13 13 14 9 11 14 18 12 17 13 20 15 26 15 30 13 32 12 36 7 26 7 36 4 30 2 27v50l-3 36-5 33-7 32-9 31-11 31-13 30-12 24-14 24-10 16-14 20-10 13-9 11-12 14-11 12-27 27-8 7-13 11-17 13-15 11-15 10-25 15-26 14-29 13-29 11-29 9-32 8-35 6-25 3-38 2h-17l-38-2-32-4-28-5-36-9-36-12-27-11-28-13-22-12-26-16-17-12-21-16-13-11-14-12-33-33-7-8-11-13-13-17-13-18-11-17-9-15-12-22-14-29-13-33-10-31-8-32-5-26-4-31-2-25v-54l3-35 5-32 6-28 8-29 12-35 13-30 15-30 16-27 10-15 12-17 11-14 9-11 9-10 7-8 16-17 15-14 11-10 11-9 18-14 20-14 19-12 21-12 23-12 27-12 24-9 24-8 30-8 36-7 32-4z" fill="#fff"/>
<path transform="translate(722,364)" d="m0 0h47l28 3 31 6 24 7 20 7 29 13 20 11 19 12 19 14 13 11 20 18 7 8 7 7 9 11 14 18 11 17 10 17 10 19 11 26 9 27 6 24 5 31 2 24v36l-3 32-6 31-6 22-7 21-10 23-8 16-11 20-10 15-14 19-11 13-11 12-19 19-11 9-15 12-24 16-21 12-27 13-27 10-25 7-31 6-30 3h-41l-30-3-31-6-28-8-26-10-25-12-20-11-15-10-15-11-16-13-12-11-21-21-9-11-12-15-14-21-11-19-9-17-11-26-9-27-6-24-4-23-3-31v-38l3-31 4-23 6-24 10-30 12-27 11-21 12-19 10-14 10-13 13-15 15-16 8-7 11-10 17-13 14-10 18-11 22-12 25-11 33-11 25-6 24-4z" fill="#1D3C8D"/>
<path transform="translate(729,201)" d="m0 0h33l32 2 32 4 31 6 28 7 37 12 32 13 33 16 24 14 19 12 17 12 13 10 16 13 10 9 8 7 7 7 8 7 12 13 13 14 9 11 14 18 12 17 13 20 15 26 15 30 13 32 12 36 7 26 7 36 4 30 2 27v50l-3 36-5 33-7 32-9 31-11 31-13 30-12 24-14 24-10 16-14 20-10 13-9 11-12 14-11 12-27 27-8 7-13 11-17 13-15 11-15 10-25 15-26 14-29 13-29 11-29 9-32 8-35 6-25 3-38 2h-17l-38-2-32-4-28-5-36-9-36-12-27-11-28-13-22-12-26-16-17-12-21-16-13-11-14-12-33-33-7-8-11-13-13-17-13-18-11-17-9-15-12-22-14-29-13-33-10-31-8-32-5-26-4-31-2-25v-54l3-35 5-32 6-28 8-29 12-35 13-30 15-30 16-27 10-15 12-17 11-14 9-11 9-10 7-8 16-17 15-14 11-10 11-9 18-14 20-14 19-12 21-12 23-12 27-12 24-9 24-8 30-8 36-7 32-4zm7 29-35 2-32 4-31 6-34 9-32 11-26 11-27 13-23 13-23 15-17 12-14 11-13 11-20 18-20 20-7 8-13 15-10 13-13 18-10 15-12 20-12 22-11 23-11 28-11 33-7 28-5 26-4 30-2 27v42l3 36 5 32 6 27 8 29 11 31 11 25 10 21 13 23 12 19 14 20 10 13 9 11 12 14 16 17 12 12 8 7 10 9 11 9 18 14 27 18 20 12 27 14 21 10 26 10 27 9 31 8 31 6 33 4 13 1h59l32-3 36-6 40-10 38-13 28-12 30-15 22-13 21-14 15-11 14-11 13-11 10-9 13-12 11-11 7-8 10-11 9-11 14-18 18-27 12-20 13-24 13-29 10-27 8-25 8-32 6-35 3-28 1-18v-36l-2-29-4-31-6-30-8-30-10-30-12-29-12-25-13-23-12-19-11-16-13-17-9-11-12-14-14-15-16-16-8-7-15-13-17-13-15-11-20-13-22-13-27-14-28-12-28-10-27-8-30-7-31-5-30-3-23-1z" fill="#1D3C8D"/>
<path transform="translate(729,201)" d="m0 0h33l32 2 32 4 31 6 28 7 37 12 32 13 33 16 24 14 19 12 17 12 13 10 16 13 10 9 8 7 7 7 8 7 12 13 13 14 9 11 14 18 12 17 13 20 15 26 15 30 13 32 12 36 7 26 7 36 4 30 2 27v50l-3 36-5 33-7 32-9 31-11 31-13 30-12 24-14 24-10 16-14 20-10 13-9 11-12 14-11 12-27 27-8 7-13 11-17 13-15 11-15 10-25 15-26 14-29 13-29 11-29 9-32 8-35 6-25 3-38 2h-17l-38-2-32-4-28-5-36-9-36-12-27-11-28-13-22-12-26-16-17-12-21-16-13-11-14-12-33-33-7-8-11-13-13-17-13-18-11-17-9-15-12-22-14-29-13-33-10-31-8-32-5-26-4-31-2-25v-54l3-35 5-32 6-28 8-29 12-35 13-30 15-30 16-27 10-15 12-17 11-14 9-11 9-10 7-8 16-17 15-14 11-10 11-9 18-14 20-14 19-12 21-12 23-12 27-12 24-9 24-8 30-8 36-7 32-4zm-12 15-34 3-37 6-30 7-33 10-31 12-24 11-20 10-24 14-17 11-17 12-17 13-13 11-10 9-8 7-26 26-7 8-12 14-10 13-13 18-10 15-12 20-10 18-12 24-10 24-9 25-8 26-7 30-5 28-3 25-2 34v25l2 35 4 31 7 36 8 30 11 32 11 26 12 25 12 22 13 21 11 16 14 19 11 13 9 11 16 17 19 19 8 7 14 12 14 11 18 13 18 12 20 12 24 13 28 13 23 9 33 11 36 9 35 6 28 3 15 1h51l35-3 33-5 31-7 31-9 28-10 25-11 23-11 23-13 24-15 18-13 13-10 11-9 14-12 15-14 17-17 7-8 13-15 11-14 13-18 12-18 12-20 13-24 13-28 12-31 9-29 7-28 5-27 4-32 2-37v-18l-2-37-4-32-7-36-7-26-12-36-11-26-12-25-13-24-14-22-14-20-10-13-9-11-11-13-14-15-21-21-8-7-14-12-17-13-18-13-17-11-15-9-22-12-27-13-27-11-30-10-30-8-31-6-29-4-25-2z" fill="#fff"/>
<path transform="translate(439,952)" d="m0 0h18l12 4 10 7 8 8 6 10 3 7 1 5v16l-4 12-7 11-4 5-10 8-12 6-9 2h-12l-12-3-10-6-10-9-7-11-4-12v-17l5-14 8-11 7-7 11-7z" fill="#1D3C8D"/>
<path transform="translate(1084,429)" d="m0 0h13l13 4 9 6 6 5 7 10 5 11 2 16-2 12-6 12-9 10-8 6-12 6-7 2-11 1-13-2-12-6-9-8-7-10-5-12-1-5v-15l3-10 5-9 9-10 10-7 11-5z" fill="#1D3C8D"/>
<path transform="translate(1125,755)" d="m0 0h13l8 4 5 6 2 4 9-8 5-2h12l11 4 7 7 4 8 1 3v18l-11 51-1 2-8-1-84-18-2-1 1-9 10-46 5-12 7-7z" fill="#1D3C8D"/>
<path transform="translate(996,321)" d="m0 0 24 18 16 13 10 8 6 9 2 4 1 10-3 10-6 8-9 6-13 2 1 4v8l-4 11-10 16-2 5-4-2-14-11-6-5 3-7 8-13 1-3v-8l-5-6-10-8-5 5-16 20-5-2-12-10-7-5 2-4 10-13 44-56z" fill="#1D3C8D"/>
<path transform="translate(482,334)" d="m0 0h15l9 5 6 7 4 9v13l-1 2 13 2 10 7 17 17-13 11-9 7-5-2-14-14-4-2h-7l-9 6-6 5 2 4 11 14 6 7v3l-10 8-11 9h-3l-11-14-26-32-11-14-9-11-2-4 14-12 14-11 16-13 8-5z" fill="#1D3C8D"/>
<path transform="translate(533,1017)" d="m0 0 5 2 28 15 21 12 7 6 5 8 1 3v14l-5 10-4 5-9 5-8 1 3 7v11l-4 12-5 12-1 4-5-1-22-12 4-13 4-10v-8l-4-5-15-8-14 26-4 2-24-13 2-6 14-26 10-18 16-29z" fill="#1D3C8D"/>
<path transform="translate(804,251)" d="m0 0 12 2 65 14 1 4-4 19-1 2-12-2-37-8-2 11 25 5 18 4 1 3-4 18-1 2-8-1-33-7h-3l-2 9 5 2 42 9 2 1-1 9-3 14-5 1-74-16-1-4 19-88z" fill="#1D3C8D"/>
<path transform="translate(1203,636)" d="m0 0h2l6 77v4l-2 1-94 7-1-4-5-66v-10l20-2 5 1 3 40v9l12-1-3-34v-11l18-2h5l3 38v7l11-1-2-31-1-20z" fill="#1D3C8D"/>
<path transform="translate(797,1079)" d="m0 0h11l1 10v15l-48 3-1 11 33-2h13l1 23-30 2h-15v12l47-3h5l1 12v13l-43 3-38 2-5-77-1-19 4-1z" fill="#1D3C8D"/>
<path transform="translate(287,635)" d="m0 0 87 7 8 1v13l-5 62-1 5-25-2 4-50h-11l-3 37-1 7-20-1-3-1 1-18 2-25 1-2h-7l-5-1-4 51h-11l-12-1-2-1 1-19 5-61z" fill="#1D3C8D"/>
<path transform="translate(398,844)" d="m0 0 3 1 24 48 2 8v10l-4 11-7 8-5 4-9 4-4 1h-12l-10-4-9-8-8-14-6-11-19 9-7 3-10-19-3-6v-2l23-12 60-30z" fill="#1D3C8D"/>
<path transform="translate(619,264)" d="m0 0 2 2 15 39 7 18 2 9v10l-3 10-7 9-10 7-14 6-12 3h-14l-10-4-8-7-7-11-19-49-3-10 24-10h4l11 27 10 26 5 8 5 3 9-1 6-4 2-5-1-8-6-17-15-38 1-3z" fill="#1D3C8D"/>
<path transform="translate(1087,855)" d="m0 0 5 2 29 16 21 12 9 7 6 8 3 8v14l-3 10-7 14-8 10-8 7-11 4h-11l-10-3-19-10-21-12-18-10 6-12 8-14 4 1 24 13 23 13 8 3h6l6-4 3-6v-7l-4-6-13-8-29-16-13-8 2-5z" fill="#1D3C8D"/>
<path transform="translate(749,247)" d="m0 0h4l1 12v11l-12 15-10 13-14 18-4 6 4-1 42-3 2 21v4l-19 2-55 4h-12l-2-20 1-4 10-13 13-16 11-14 5-6-23 1-18 1-1-11v-14l36-3z" fill="#1D3C8D"/>
<path transform="translate(349,750)" d="m0 0h12l10 4 8 8 7 14 2 9v20l-4 10-7 8-10 5-4-1-4-21v-6l5-3 1-2v-10l-3-6-4-1-3 2-2 7-2 26-3 12-4 6-7 6-10 3h-9l-9-3-6-4-7-8-6-13-3-13v-17l4-13 7-9 12-6h4l3 13 3 16-8 4-2 4v9l3 7 4 3 6-1 2-6 3-28 3-11 6-9 8-4z" fill="#1D3C8D"/>
<path transform="translate(389,430)" d="m0 0h13l13 4 2 1-1 4-14 21-12-1-7 4-4 8 1 9 6 9 11 8 7 3 10 1 8-4 4-6 1-5-3-8-4-6 16-24 6 4 7 9 4 10 1 13-2 11-6 12-8 10-11 8-11 4h-20l-11-4-11-6-11-10-7-11-3-8-1-6v-10l3-12 7-13 10-11 10-6z" fill="#1D3C8D"/>
<path transform="translate(942,1026)" d="m0 0h11l11 4 6 4 5 4 5 7-4 3-20 11-4-2-5-3-7-1-7 3-3 1-2 4-1 3v11l5 12 6 8 6 5 5 2 9-1 6-4 2-4v-14l8-5 16-9h2l3 7 1 5v13l-3 10-6 10-7 7-14 8-10 3h-17l-12-4-11-8-8-9-8-16-2-7v-20l4-11 8-11 12-9 11-5z" fill="#1D3C8D"/>
<path transform="translate(554,593)" d="m0 0 2 2 12 37v2h44l-5 5-19 14-10 7 3 12 9 27-1 3-18-13-15-11-5 2-18 13-13 9-1-2 12-36-1-5-14-10-18-13v-2l43-1z" fill="#fff"/>
<path transform="translate(626,1065)" d="m0 0 10 1 72 16-1 8-4 17-27-6-1 9-13 59-1 2-20-4-9-2 2-12 13-59-9-1-17-4 4-21z" fill="#1D3C8D"/>
<path transform="translate(745,423)" d="m0 0 2 2 12 37v2h44l-5 5-18 13-11 8 3 12 9 27-1 3-19-14-14-10-4 1-18 13-14 10-1-2 12-37-1-4-18-13-15-11v-1h44l3-11z" fill="#fff"/>
<path transform="translate(754,888)" d="m0 0 2 3 12 37 44 1-4 4-14 10-15 11h-2l5 17 8 24-1 2-18-13-15-11-5 1-19 14-12 9-1-3 12-37-1-3-17-12-16-12v-1h44l2-9 10-31z" fill="#fff"/>
<path transform="translate(941,596)" d="m0 0 2 2 12 37v3h44l-5 5-17 12-12 9 3 11 9 28v2l-5-2-13-10-14-10-4-2-19 14-15 11-1-2 12-37 1-4-4-2-14-10-17-12v-1h44l3-11z" fill="#fff"/>
<path transform="translate(1e3 978)" d="m0 0 7 6 43 43 4-2 26-26 4 2 14 14-1 4-48 48-4-1-66-66 6-7z" fill="#1D3C8D"/>
<path transform="translate(926,286)" d="m0 0 6 2 20 9 1 4-16 34-13 28-11 23-27-12 3-9 13-27 13-28z" fill="#1D3C8D"/>
<path transform="translate(802,680)" d="m0 0 2 2 9 28 32 1-4 4-17 12-4 3 3 11 6 18-1 2-14-10-11-8-11 7-13 10-3 1 3-11 6-20-18-13-7-5v-1l32-1z" fill="#fff"/>
<path transform="translate(1090,457)" d="m0 0h10l8 5 4 7 1 7-4 10-7 7-10 6-9 3-9-1-6-4-5-8v-9l4-8 7-7 10-6z" fill="#fff"/>
<path transform="translate(448,979)" d="m0 0h10l7 4 4 5 1 3v10l-5 10-9 9-9 5-10 1-7-3-6-7-1-2v-11l4-8 6-7 10-7z" fill="#fff"/>
<path transform="translate(547,1052)" d="m0 0 5 1 14 8 4 6-1 6-5 5-9-1-16-9z" fill="#fff"/>
<path transform="translate(1e3 358)" d="m0 0 7 4 11 10 1 2v6l-5 6-4 1-7-3-14-11 6-9z" fill="#fff"/>
<path transform="translate(480,363)" d="m0 0h6l5 5 1 6-4 6-14 11-5-5-7-8 2-4 13-10z" fill="#fff"/>
<path transform="translate(390,882)" d="m0 0 3 3 7 14v7l-6 5h-7l-5-4-8-15v-2z" fill="#fff"/>
<path transform="translate(1165,788)" d="m0 0h7l5 4 1 2-1 11-3 13-8-1-9-2 1-11 3-12z" fill="#fff"/>
<path transform="translate(1132,784)" d="m0 0h6l4 3v10l-3 13-11-1-3-1 1-9 3-11z" fill="#fff"/>
</svg>
