<?xml version="1.0" encoding="utf-8"?>
<!-- Generator: Adobe Illustrator 26.0.3, SVG Export Plug-In . SVG Version: 6.00 Build 0)  -->
<svg version="1.0" id="Layer_1" xmlns="http://www.w3.org/2000/svg" xmlns:xlink="http://www.w3.org/1999/xlink" x="0px" y="0px"
	 viewBox="0 0 1280 1000" style="enable-background:new 0 0 1280 1000;" xml:space="preserve">
<style type="text/css">
	.st0{fill-rule:evenodd;clip-rule:evenodd;fill:#231F20;}
	.st1{fill:#231F20;}
	.st2{fill:#ED3037;}
</style>
<g>
	<path class="st0" d="M705.8,329.1c0,46.5,0,93.1,0,139.6c0,3.7-0.3,5.6-1.9,9c-7.5,16-19.2,22.9-30.3,33.3l36.1,88.7
		c-8.6,4.1-17.1,7.3-26,10.1l-26.2-59c-1.9-2.4-4.4-8.2-4.8-4v70.4h-27.9v-333C656.1,282.2,699.2,292.5,705.8,329.1L705.8,329.1z
		 M651.9,314.2c0,58.8,0,117.7,0,176.5c9.9-0.9,23.7-15.3,24.7-25.9c0-43.6,0-87.1,0-130.7C677,324,671.4,314.9,651.9,314.2
		L651.9,314.2z"/>
	<path class="st0" d="M604,562.2l-26.9,0.1v-39.1v-22.8v-37.7l-30.9,0.5c2.2,17.7,16.8,37.9,27.5,50.9l-15.5,28.5
		c-32.2-30.7-40.7-65-40.7-94.5c0-55.8,37.3-97.1,86.4-121.2L604,562.2L604,562.2z M548.1,435.3h29.7V378
		C559.7,391.9,551.9,412.2,548.1,435.3L548.1,435.3z"/>
	<path class="st0" d="M608.5,614.3c-79.9-13.3-141-82.7-141-166.4c3.6-75.7,60.4-143.8,141-161.5v29.4
		C543.7,329.1,500.8,383,500.8,448c-4.4,71.4,46.3,124.3,107.7,137.3V614.3L608.5,614.3z"/>
	<path class="st0" d="M726.5,305.8c81,62.6,102.2,185.3,27,241l0.1,20l-27.1,25.7V305.8L726.5,305.8z M756.4,499.5
		c13.3-20.3,18.7-30.9,18.7-55s-9.3-40.1-18.7-57.2V499.5L756.4,499.5z"/>
	<path class="st1" d="M844.8,86.6c-160.9,65.3-347.8,25.9-411,0L304.2,217.7c0,0,51.5,50.1,59.5,202
		c10.1,190.8,47.1,252.8,62.3,284.8s71.1,156.4,210.9,208.9h5.3C782,861,837.9,736.6,853.1,704.6c15.2-32,52.1-94,62.3-284.8
		c8.1-151.9,60.4-203.7,60.4-203.7S849.1,84.8,844.8,86.6z M896.4,419.7c-10.1,190.8-47.1,252.8-62.3,284.8s-53.9,124.1-193.8,191.7
		h-1.7C498.8,828.6,460,736.5,444.8,704.5c-15.2-32-52.1-94-62.3-284.8C374.6,267.9,325,219.1,325,219.1l114.6-111.8
		c0,0,64.4,25.1,137.7,29.5s134.5,1.7,134.5,1.7s83.4-8.3,130.5-32c2.1-1.1,111.8,110.2,111.8,110.2v2.4
		C954.1,219.1,904.5,267.9,896.4,419.7z"/>
	<path class="st2" d="M459.1,493.7c-16.5,27.5-31.9,53-45.4,75.4c14.2,71.7,32.7,104.1,42.1,124.1c10.9,23.1,34.9,79.1,104.2,132.8
		l114.1-197.2c-12,2.5-24.5,3.8-37.3,3.8C551,632.6,478.9,573.5,459.1,493.7z"/>
	<path class="st2" d="M811,392.3l104.6-180.8c-30.4-30.6-83.3-83.7-84.7-83c-44.5,22.4-123.2,30.2-123.2,30.2s-19.6,0.9-49.6,0.8
		c-19.4,32.7-42.3,71.3-66.7,112.3c14.5-3.7,29.7-5.7,45.4-5.7C718.1,266.1,787,319.1,811,392.3z"/>
</g>
</svg>
