<?xml version="1.0" encoding="UTF-8"?>
<svg version="1.1" viewBox="200 160 1100 1100" width="1280" height="1280" xmlns="http://www.w3.org/2000/svg">
<path transform="translate(419,401)" d="m0 0h672v639l-3 19-6 18-7 13-9 12-9 10-12 10-15 9-19 9-18 6-22 5-31 4-43 4-23 4-21 6-16 7-15 8-16 12-10 9-8 7-11 12-11 14-10 12-4-2-14-17-9-11-21-21-13-10-18-11-17-8-20-6-20-4-39-4-36-4-25-5-24-8-16-8-12-7-9-7-10-9-8-9-9-14-7-15-4-14-2-14z" fill="#BE0811"/>
<path transform="translate(419,401)" d="m0 0h672v639l-3 19-6 18-7 13-9 12-9 10-12 10-15 9-19 9-18 6-22 5-31 4-43 4-23 4-21 6-16 7-15 8-16 12-10 9-8 7-11 12-11 14-10 12-4-2-14-17-9-11-21-21-13-10-18-11-17-8-20-6-20-4-39-4-36-4-25-5-24-8-16-8-12-7-9-7-10-9-8-9-9-14-7-15-4-14-2-14zm21 21v617l2 14 5 15 8 14 8 10 8 8 14 10 23 11 19 6 20 4 75 8 25 5 17 5 21 9 20 12 14 11 12 11 15 15 8 10h2l9-11 7-7 5-6 8-7 13-11 15-10 16-9 20-8 17-5 21-4 39-4 36-4 20-4 17-5 18-8 14-8 13-11 9-10 8-13 6-16 2-10 1-11v-613z" fill="#AC9F72"/>
<path transform="translate(710,619)" d="m0 0h90v529l-16 12-10 8-13 12-5 5-4-2-9-9-8-7-14-11-11-8z" fill="#FDFDFD"/>
<path transform="translate(530,619)" d="m0 0h90v498l-24-2-40-4-22-4-4-1z" fill="#FDFDFD"/>
<path transform="translate(890,619)" d="m0 0h90v486l-9 3-25 4-52 5h-4z" fill="#FDFDFD"/>
<path transform="translate(754,147)" d="m0 0 2 1 20 64 68 1-13 13-8 7-13 12-8 7-6 5 14 63v3l-5-2-28-16-22-13-14 8-23 13-17 10h-2l2-11 12-50v-5l-8-8-8-7-13-12-8-7-10-9v-1h68l3-11z" fill="#AC9F72"/>
<path transform="translate(908,472)" d="m0 0h55l10 3 6 4 6 8 2 7v28l-4 11-5 6-12 6-5 1h-32v33h-21z" fill="#FDFDFD"/>
<path transform="translate(530,472)" d="m0 0h74v19h-52v24h48v19l-1 1h-47v25h52v19h-74z" fill="#FDFDFD"/>
<path transform="translate(681,471)" d="m0 0h18v108h-18l-1-4-10 5h-15l-9-4-6-7-3-7-1-5v-34l3-10 4-6 5-4 8-3h14l9 3 1 1z" fill="#FDFDFD"/>
<path transform="translate(738,498)" d="m0 0h14l10 3 7 5 5 10 1 4v27h-43l2 13 3 3 7 2 12-1 10-4 3 1 5 12-12 6-9 2h-15l-10-3-8-6-5-8-1-4v-38l3-10 5-7 8-5z" fill="#FDFDFD"/>
<path transform="translate(807,472)" d="m0 0h21l1 88 48 1v18h-70z" fill="#FDFDFD"/>
<path transform="translate(929,489)" d="m0 0h19l12 2 5 5 1 3v19l-3 5-3 3-6 2h-25z" fill="#BE0811"/>
<path transform="translate(662,517)" d="m0 0h11l6 4 2 2v34l-6 5-5 2-9-1-5-5-2-5v-26l3-6z" fill="#BE0811"/>
<path transform="translate(742,513)" d="m0 0 9 1 5 5 2 6v8h-26v-10l3-6 4-3z" fill="#BF0811"/>
</svg>
