<?xml version="1.0" encoding="UTF-8"?>
<svg version="1.1" viewBox="380 370 750 750" width="1280" height="1280" xmlns="http://www.w3.org/2000/svg">
<path transform="translate(522,345)" d="m0 0h7l43 43 15 11 16 8 15 5 15 3h28l16-3 17-6 15-8 13-10 16-15 23-23 7 6 32 32 15 11 16 8 15 5 15 3h28l16-3 17-6 15-8 13-10 13-12 31-31h7l13 21 14 23 7 10 9 10 13 9 14 6 13 3 55 1 1 3 3 58v67l-2 34-5 46-7 41-8 36-8 29-12 37-11 28-12 27-17 34-14 24-15 24-12 17-14 19-13 16-9 11-10 11-7 8-16 17-12 12-8 7-15 14-11 9-13 11-16 12-18 13-30 20-20 12-25 14-21 11-6-2-22-12-20-11-23-14-28-19-18-13-14-11-17-14-10-9-8-7-12-11-29-29-7-8-9-10-9-11-13-16-14-19-22-33-13-22-10-18-16-32-14-33-13-36-9-30-10-40-7-38-5-36-3-33-2-44v-32l2-49 2-30 55-1 16-4 16-8 9-7 9-9 15-24 17-28z" fill="#FDFDFD"/>
<path transform="translate(760,416)" d="m0 0 4 2 10 9 16 11 16 9 21 8 20 5 17 2h22l17-2 21-5 20-8 17-9 14-10 12-11 3-1 10 14 11 12 17 13 17 9 21 7 21 3 8 1 1 5 1 34v17l-1 33-3 39-5 38-5 28-8 36-9 31-10 30-12 30-12 26-2 4-4-2-8-8-8-7-17-16-60-56-13-12-76-71-13-12-61-57-13-12-76-71-13-12-16-15-12-11v-1l29-2 20-4 18-6 21-10 12-8 14-11z" fill="#BE0811"/>
<path transform="translate(427,559)" d="m0 0 8 6 11 11 8 7 7 7 8 7 17 16 75 70 13 12 61 57 13 12 76 71 13 12 61 57 13 12 76 71 12 11-2 4-13 12-11 9-16 13-19 14-16 11-17 11-20 12-23 13-16-8-27-16-27-18-18-13-14-11-11-9-13-11-24-22-21-21-7-8-10-11-9-11-12-15-14-19-16-24-15-25-13-24-14-29-11-27-12-34-9-31-8-33-6-32-5-37-3-35z" fill="#BE0811"/>
<path transform="translate(522,345)" d="m0 0h7l43 43 15 11 16 8 15 5 15 3h28l16-3 17-6 15-8 13-10 16-15 23-23 7 6 32 32 15 11 16 8 15 5 15 3h28l16-3 17-6 15-8 13-10 13-12 31-31h7l13 21 14 23 7 10 9 10 13 9 14 6 13 3 55 1 1 3 3 58v67l-2 34-5 46-7 41-8 36-8 29-12 37-11 28-12 27-17 34-14 24-15 24-12 17-14 19-13 16-9 11-10 11-7 8-16 17-12 12-8 7-15 14-11 9-13 11-16 12-18 13-30 20-20 12-25 14-21 11-6-2-22-12-20-11-23-14-28-19-18-13-14-11-17-14-10-9-8-7-12-11-29-29-7-8-9-10-9-11-13-16-14-19-22-33-13-22-10-18-16-32-14-33-13-36-9-30-10-40-7-38-5-36-3-33-2-44v-32l2-49 2-30 55-1 16-4 16-8 9-7 9-9 15-24 17-28zm6 32-17 28-10 13-9 9-13 9-14 7-16 5-14 2-31 1-2 40v62l2 35 4 39 6 38 7 33 8 31 11 35 11 29 13 30 16 32 14 24 11 18 15 22 14 19 13 16 9 11 10 11 7 8 7 7 7 8 9 9 8 7 7 7 8 7 14 12 16 13 19 14 17 12 15 10 21 13 25 14 13 7 6-1 21-11 27-16 23-15 20-14 17-13 16-13 14-12 12-11 8-7 27-27 7-8 9-10 9-11 13-16 14-19 18-27 15-25 13-24 11-22 13-30 11-30 10-31 9-35 7-34 6-39 4-41 1-17 1-35v-15l-1-36-2-28-30-1-14-2-16-5-16-8-11-8-8-7-11-14-13-22-5-7-7 6-23 23-15 11-19 10-21 7-15 3-9 1h-20l-20-3-17-5-18-8-14-9-10-8-13-12-11-11-4 2-21 21-13 10-16 9-14 6-17 5-20 3h-20l-20-3-17-5-18-8-14-9-10-8-12-11-17-17z" fill="#010000"/>
<path transform="translate(706,599)" d="m0 0 5 1 8 8 8 7 17 16 29 27 1 6-2 4-3 2 1 14 12 102 4 16 5 13-2 7-5-1-10-10-8-7-17-16-15-14-8-7v-5l3-3 9-1-2-14-12-11-29-27-2 2-2 9 2 6-1 7-4 1-12-11-13-12-1-4 3-4 11-2 8-16 15-33 7-16v-11l-3-13v-7z" fill="#010000"/>
<path transform="translate(583,490)" d="m0 0 15 1 12 4 11 7 8 9 8 15 4 13 2 11-2 5-4 2h-8l-10-3-4-5-5-19-6-8-4-2h-7l-5 3h-2l-4 10-1 26 1 21 3 17 5 10 6 4h10l6-4 2-4 1-6v-13l3-5 7-3h11l4 3 1 6-6 16-6 11-8 9-11 7-16 4h-14l-16-4-10-6-9-8-7-11-5-12-3-13-1-9v-16l2-14 5-16 5-9 8-10 10-7 12-5z" fill="#020000"/>
<path transform="translate(853,736)" d="m0 0 5 1 7 7 8 7 7 7 8 7 8 8 8 7 7 7 1 5-2 4-7 3-1 2v97l3 12 5 11v8l-3 3-5-1-8-8-8-7-8-8-8-7-7-7-8-7-6-6-1-5 2-4 7-3 1-2v-98l-3-11-5-11v-8z"/>
<path transform="translate(723,642)" d="m0 0 2 2 2 11 7 59v8l-5-3-11-11-8-7-7-7-2-1 1-6 15-33z" fill="#FDFDFD"/>
<path transform="translate(655,615)" d="m0 0h8l6 4 3 6-1 9-7 6-7 1-8-4-3-6v-7l4-6z" fill="#030000"/>
<path transform="translate(508,478)" d="m0 0h8l6 4 3 7-1 7-5 6-5 2-8-1-5-4-2-4v-8l4-6z" fill="#030000"/>
<path transform="translate(817,763)" d="m0 0 8 2 5 5 1 3v7l-3 5-5 4h-9l-6-4-3-6 1-8 5-6z" fill="#040000"/>
<path transform="translate(938,880)" d="m0 0h9l6 4 3 6-1 8-5 6-2 1h-10l-5-3-3-5v-8l3-5z" fill="#040000"/>
</svg>
