<?xml version="1.0" encoding="UTF-8"?>
<svg version="1.1" viewBox="260 200 1000 1000" width="1280" height="1280" xmlns="http://www.w3.org/2000/svg">
<path transform="translate(776,270)" d="m0 0 6 1 26 15 27 14 25 12 30 12 36 12 34 9 36 7 29 4 36 3h47l29-3 35-6 28-6h5l4 43 2 36v80l-2 40-4 40-6 36-9 39-8 30-12 38-14 38-11 26-11 24-18 36-14 24-12 20-18 27-13 18-13 17-9 11-11 13-9 10-7 8-8 8-7 8-9 9-8 7-7 7-8 7-14 12-14 11-20 15-30 20-22 13-27 14-21 10-35 14-6-1-30-12-28-13-28-15-23-14-19-13-18-13-16-13-11-9-14-12-17-16-30-30-7-8-9-10-9-11-13-16-13-18-12-17-12-19-13-22-12-22-13-25-14-31-9-22-5-11-14-39-11-35-10-38-8-37-6-35-5-38-3-32-2-37v-63l2-46 1-10 16 1 48 6 26 2h65l35-3 34-5 38-8 32-9 35-12 29-12 33-16 22-12z" fill="#FEFEFE"/>
<path transform="translate(776,270)" d="m0 0 6 1 26 15 27 14 25 12 30 12 36 12 34 9 36 7-1 3-19 13-34 24-20 14-17 12-20 14-34 24-20 14-34 24-20 14-34 24-20 14-34 24-20 14-34 24-20 14-34 24-20 14-34 24-20 14-17 12-20 14-34 24-20 14-11 8h-2l-15-40-11-34-10-36-9-39-7-38-6-45-3-32-2-37v-63l2-46 1-10 16 1 48 6 26 2h65l35-3 34-5 38-8 32-9 35-12 29-12 33-16 22-12z" fill="#233876"/>
<path transform="translate(1199,603)" d="m0 0h2l-1 11-9 40-9 34-12 38-14 38-11 26-11 24-18 36-14 24-12 20-18 27-13 18-13 17-9 11-11 13-9 10-7 8-8 8-7 8-9 9-8 7-7 7-8 7-14 12-14 11-20 15-30 20-22 13-27 14-21 10-35 14-6-1-30-12-28-13-28-15-23-14-19-13-18-13-16-13-11-9-14-12v-4l51-36 20-14 34-24 20-14 34-24 20-14 34-24 20-14 34-24 20-14 34-24 20-14 34-24 20-14 34-24 20-14 34-24 20-14 17-12 20-14 34-24 20-14 17-12z" fill="#233876"/>
<path transform="translate(779,577)" d="m0 0 4 1 12 17 98 140 5 7-1 4-16 11-17 12-7-1-115-47 2 4 16 23 42 60v4l-15 11-16 11-6 4-4-2-16-23-12-17-84-120-3-4v-2l16-11 20-14 25 10 37 15 49 20 11 4-11-15-11-16-28-40-12-17 1-4 19-13z" fill="#CE142D"/>
<path transform="translate(572,733)" d="m0 0h26l20 4 2 1-1 10-7 36-11-1-9-1h-13l-16 3-16 8-8 7h-2l-2 4-7 10-4 10-2 11v12l4 16 6 11 9 11 10 8 13 6 11 2h10l14-3 16-8 8-7h2l2-4 6-8 5-11 5-19 2-9 45 9 2 1-1 10-5 19-6 16-8 14-8 10-11 11-15 11-16 9-21 7-14 2h-15l-18-3-15-5-15-8-14-11-9-9-10-13-8-14-5-11-4-13-2-13v-18l3-17 7-19 9-16 11-13 9-9 16-11 14-7 19-6z" fill="#CE142D"/>
<path transform="translate(1067,372)" d="m0 0 5 5 13 18 11 16-4 4-16 11-20 14-7 5 7 11 4 6 5-2 40-28 4-2 11 15 11 16 5 8-9 7-23 16-14 10v3l11 15 11 16 14 20 12 17-4 4-16 11-19 13h-2l-11-16-105-150 2-4 19-13 18-13 16-11 20-14z" fill="#CE142D"/>
<path transform="translate(951,575)" d="m0 0 3 1 16 23 28 40 13 19-1 3-15 10-4-3-5 10-7 7-8 4-4 1h-15l-11-4-8-6-7-8-5-10-2-6v-15l4-11 9-10 8-4 7-2h7l-16-23-2-5z" fill="#CE142D"/>
<path transform="translate(1021,564)" d="m0 0 12 1 12 5 10 9 5 7-1 3-19 13-20 14-4 3h-2l4 4 3 1h8l10-5 5-7 2-7 16-3h4l-1 11-4 10-9 10-8 6-9 4-4 1h-13l-11-4-6-4-5-5-6-8-4-9-1-4v-13l4-12 7-9 8-6 8-4z" fill="#CE142D"/>
<path transform="translate(723,819)" d="m0 0 9 1 6 3 7 8 1 3v12l-4 8-9 6-3 1h-8l-8-3-7-8-2-5v-10l4-8 7-6z" fill="#CE142D"/>
<path transform="translate(1163,507)" d="m0 0h10l8 4 6 8 1 3v11l-4 8-6 5-5 2h-11l-8-4-6-8-1-3v-11l3-6 5-5 5-3z" fill="#CE142D"/>
<path transform="translate(911,688)" d="m0 0 11 2 8 7 3 6v12l-4 8-9 6-3 1h-9l-8-4-6-7-2-5v-10l4-8 6-5z" fill="#CE142D"/>
<path transform="translate(952,631)" d="m0 0h11l7 4 6 8 2 5v8l-4 8-7 5-3 1h-7l-10-5-6-9-1-2v-11l5-8z" fill="#FEFEFE"/>
<path transform="translate(1019,583)" d="m0 0h9l5 2-4 4-16 11-7 5h-2v-7l4-8 8-6z" fill="#FEFEFE"/>
</svg>
