<?xml version="1.0" encoding="UTF-8"?>
<svg version="1.1" viewBox="200 180 1050 1050" width="1280" height="1280" xmlns="http://www.w3.org/2000/svg">
<path transform="translate(743,196)" d="m0 0 7 6 11 12 16 16 8 7 14 12 20 15 15 10 19 11 17 9 19 8 27 9 27 6 24 3h49l31-4 28-6 24-7 20-7 23-7h1v592l-3 27-5 28-7 27-9 26-9 20-12 23-14 21-10 13-11 13-16 17-16 16-8 7-14 12-17 13-17 12-21 13-22 12-27 13-38 12-25 7-21 6-21 9-18 11-14 10-15 14-9 9-4-2-8-8-7-8-9-8-15-10-16-8-26-11-21-6-31-9-24-8-25-12-21-11-22-13-18-13-13-10-11-9-10-9-8-7-30-30-9-11-12-15-10-15-9-15-8-15-11-26-9-28-6-25-4-23-3-28v-592l29 11 31 10 30 7 25 4 27 2h19l26-2 24-4 23-6 20-7 21-9 21-11 22-14 14-10 16-13 11-9 8-8 8-7 10-10 7-8z"/>
<path transform="translate(613,665)" d="m0 0h90v536l-5-1-27-11-18-6-26-7-13-4-1-1z" fill="#FDC903"/>
<path transform="translate(785,665)" d="m0 0h90v506l-29 9-29 8-19 7-13 6z" fill="#FDC903"/>
<path transform="translate(441,665)" d="m0 0h90v466l-11-7-18-14-13-11-20-18-15-15-7-8-6-7z" fill="#FDC903"/>
<path transform="translate(957,665)" d="m0 0h89l1 1v384l-9 11-9 9-7 8-13 12-12 11-14 11-17 13-9 5z" fill="#FDC903"/>
<path transform="translate(468,512)" d="m0 0 2 2 10 30v3h36l-1 3-17 12-10 7 11 35-5-2-24-18-5 2-18 13-8 5 2-9 8-26-28-20v-2l36-1z" fill="#FDC903"/>
<path transform="translate(687,513)" d="m0 0h2l11 33 36 1v2l-17 12-11 8 2 9 8 24-1 2-17-12-11-8-4 2-19 13-7 5-1-2 10-31-1-3-14-10-12-9-1-2h37l2-9z" fill="#FDC903"/>
<path transform="translate(907,512)" d="m0 0 2 2 10 31v2h36v2l-28 20 5 17 5 15-1 3-18-13-10-7-7 4-18 13-4 3-2-1 10-30-1-5-19-14-7-5v-2l36-1z" fill="#FDC903"/>
<path transform="translate(797,512)" d="m0 0 2 2 10 31v2h37l-5 5-19 14-4 3 2 10 7 22-1 3-18-13-10-7-11 7-18 13-1-2 10-31-1-3-17-12-10-7v-2h37l2-9z" fill="#FDC903"/>
<path transform="translate(1017,513)" d="m0 0h2l10 32v2h37l-5 5-18 13-5 4 2 10 8 25-4-2-17-12-8-6-5 2-13 10-11 8-2-1 10-32v-2l-18-13-10-7v-2h37l2-9z" fill="#FDC903"/>
<path transform="translate(633,408)" d="m0 0 2 3 10 31 36 1-5 5-17 12-5 4h-2l11 33-1 3-19-14-8-6-4 1-17 12-8 6h-2l1-7 9-28-4-2-14-10-11-8v-1l36-1z" fill="#FDC903"/>
<path transform="translate(578,512)" d="m0 0 2 3 10 31 36 1v2l-28 20 3 12 7 21-1 2-17-12-11-8-7 4-18 13-5 3 1-7 9-28-17-12-11-8v-2l36-1 10-32z" fill="#FDC903"/>
<path transform="translate(852,408)" d="m0 0 2 1 10 32v2h36l-5 5-18 13-4 3 1 8 8 25-1 3-19-14-8-6-5 2-17 12-9 6 2-10 7-22-1-5-17-12-10-7v-1h37l1-5z" fill="#FDC903"/>
<path transform="translate(962,408)" d="m0 0 2 3 10 31 36 1-5 5-17 12-6 4 2 9 8 24-1 3-18-13-10-7-5 2-13 10-11 8-1-4 9-29v-3l-18-13-10-7v-1h37l2-9z" fill="#FDC903"/>
<path transform="translate(523,408)" d="m0 0 2 2 10 32 37 1-5 4-16 12-7 5h-2l11 33-1 3-19-14-8-6-4 1-18 13-9 6 2-9 7-23-1-5-17-12-10-7v-1h37l3-11z" fill="#FDC903"/>
<path transform="translate(742,408)" d="m0 0 2 1 10 32v2h37l-4 4-17 12-7 5 1 7 8 25v3l-5-2-13-10-10-7-5 2-19 14-7 4 3-11 8-25-4-2-14-10-11-8v-1l36-1z" fill="#FDC903"/>
</svg>
