<?xml version="1.0" encoding="UTF-8"?>
<svg version="1.1" viewBox="380 380 750 750" width="1280" height="1280" xmlns="http://www.w3.org/2000/svg">
<path transform="translate(432,377)" d="m0 0h649v639l-4 14-7 13-12 13-11 8-16 9-21 8-22 6-22 4-26 3-43 2-27 4-23 6-21 8-23 12-17 12-12 11-13 12-3 3-4-2-16-15-7-7-15-11-15-9-21-10-21-7-24-5-27-3-33-1-28-3-26-5-24-7-18-8-12-7-10-8-11-11-8-13-5-16-1-8z" fill="#4998CA"/>
<path transform="translate(432,377)" d="m0 0h649v639l-4 14-7 13-12 13-11 8-16 9-21 8-22 6-22 4-26 3-43 2-27 4-23 6-21 8-23 12-17 12-12 11-13 12-3 3-4-2-16-15-7-7-15-11-15-9-21-10-21-7-24-5-27-3-33-1-28-3-26-5-24-7-18-8-12-7-10-8-11-11-8-13-5-16-1-8zm23 22v614l4 11 6 9 9 9 11 7 14 7 21 7 24 5 23 3 14 1 32 1 26 3 27 6 21 7 20 9 16 9 14 10 11 9 8 7 4-2 11-9 13-10 20-12 17-8 22-8 24-6 26-4 12-1 29-1 29-3 26-5 21-6 18-8 12-8 8-7 7-10 4-12v-614z" fill="#112A3C"/>
<path transform="translate(714,572)" d="m0 0h86v507l-8 5-15 9-16 12-5 2-12-10-17-11-13-7z" fill="#FEFEFE"/>
<path transform="translate(540,572)" d="m0 0h87v481l-50-2-27-3-10-2z" fill="#FEFEFE"/>
<path transform="translate(887,572)" d="m0 0h86v474l-8 2-25 3-30 1-23 1z" fill="#FEFEFE"/>
<path transform="translate(497,445)" d="m0 0h55l11 3 8 6 4 6 1 3v12l-5 10-7 5-7 3 10 11 9 11 7 8v1h-24l-14-19-6-8-22-1v28h-20z" fill="#FEFEFE"/>
<path transform="translate(629,445)" d="m0 0h23l28 52 13 24 1 3h-22l-8-15h-48l-8 15h-21l8-16 30-56z" fill="#FEFEFE"/>
<path transform="translate(827,445)" d="m0 0h17l8 8 8 7 37 37 1-52h17v79h-14l-16-16-8-7-13-13-8-7-11-11-1 54h-17z" fill="#FEFEFE"/>
<path transform="translate(971,443)" d="m0 0h23l17 3 2 1-1 16-16-3h-25l-12 4-5 6-3 10v9l3 10 5 6 11 4h23l4-1 1-25h17v38l-8 3-12 2h-26l-16-4-9-5-5-4-6-9-3-11v-17l3-10 6-9 8-7 12-5z" fill="#FEFEFE"/>
<path transform="translate(733,443)" d="m0 0h22l15 3 2 1-2 15-9-1-6-1h-20l-10 3-5 3-4 7-1 4v15l4 10 5 4 10 3h22l14-3 2 10-1 5-13 4-6 1h-20l-16-4-10-6-7-8-4-9-1-4v-21l4-11 6-8 9-6 10-4z" fill="#FEFEFE"/>
<path transform="translate(787,445)" d="m0 0h19v79h-19z" fill="#FEFEFE"/>
<path transform="translate(517,459)" d="m0 0h29l8 4 2 4v7l-3 5-5 3-4 1h-27z" fill="#4998CA"/>
<path transform="translate(640,458)" d="m0 0 2 1 13 28 2 4v3h-34l2-6 13-26z" fill="#4998CA"/>
</svg>
