<?xml version="1.0" encoding="UTF-8"?>
<svg version="1.1" viewBox="300 260 900 900" width="1280" height="1280" xmlns="http://www.w3.org/2000/svg">
<path transform="translate(533,251)" d="m0 0 12 5 26 12 25 8 26 6 29 5 37 4 31 2 36 1h18l36-1 42-3 39-5 30-6 25-7 19-7 29-14 4 2 19 19 8 7 48 48 8 7 47 47 8 7 6 7-15 30-11 26-10 28-10 34-9 40-6 35-5 42-3 43-3 40-4 34-7 43-9 41-10 36-13 38-12 29-15 32-12 22-14 23-11 16-14 19-9 11-11 13-11 12-24 24-11 9-9 8-20 15-18 12-15 9-22 12-28 12-7 2-24-10-19-9-21-12-24-16-21-16-14-12-12-11-26-26-9-11-11-13-12-16-20-30-14-24-15-29-14-32-11-30-10-31-10-38-8-39-6-39-4-38-5-72-5-42-6-35-8-36-8-29-11-33-11-26-17-35 6-7 13-13 8-7 47-47 8-7 47-47 8-7z" fill="#FEFEFE"/>
<path transform="translate(986,298)" d="m0 0 4 2 9 9 8 7 47 47 8 7 28 28-2 5-30 52-28 48-15 26-14 24-15 26-9 16h-2l-7-21-12-25-11-18-11-14-9-10-7-8-11-10-17-13-18-11-15-8-23-9-21-6-24-4-11-1h-28l-24 3-14 2 24-42 28-48 11-19 50-2 37-3 37-5 34-7 25-7 19-7z" fill="#E2211C"/>
<path transform="translate(533,251)" d="m0 0 12 5 26 12 25 8 26 6 29 5 37 4 31 2 36 1h18l36-1 42-3 39-5 30-6 25-7 19-7 29-14 4 2 19 19 8 7 48 48 8 7 47 47 8 7 6 7-15 30-11 26-10 28-10 34-9 40-6 35-5 42-3 43-3 40-4 34-7 43-9 41-10 36-13 38-12 29-15 32-12 22-14 23-11 16-14 19-9 11-11 13-11 12-24 24-11 9-9 8-20 15-18 12-15 9-22 12-28 12-7 2-24-10-19-9-21-12-24-16-21-16-14-12-12-11-26-26-9-11-11-13-12-16-20-30-14-24-15-29-14-32-11-30-10-31-10-38-8-39-6-39-4-38-5-72-5-42-6-35-8-36-8-29-11-33-11-26-17-35 6-7 13-13 8-7 47-47 8-7 47-47 8-7zm4 23-21 21-8 7-48 48-8 7-41 41 9 19 11 25 12 34 8 28 8 33 7 38 5 36 4 46 3 46 5 44 6 37 9 41 10 36 13 38 13 31 14 29 12 22 13 21 11 16 12 16 13 16 9 10 7 8 23 23 11 9 9 8 20 15 20 13 19 11 22 11 15 6 9-3 18-8 23-12 22-14 19-14 11-9 13-11 15-14 14-14 7-8 12-14 13-17 12-17 11-17 11-19 14-26 13-29 12-31 12-37 8-30 8-38 6-37 4-34 3-40 3-43 5-42 6-35 8-37 10-35 9-27 11-27 12-25-1-4-32-32-8-7-47-47-8-7-29-29-6 1-19 9-30 10-36 8-35 5-31 3-38 2h-66l-38-2-40-4-36-6-26-6-30-10-22-10z" fill="#020000"/>
<path transform="translate(551,718)" d="m0 0 2 1 6 18 9 20 9 16 11 16 9 11 11 12 9 9 14 11 14 10 16 9 21 10 24 8 23 5 18 2h34l23-3 12-2-8 15-10 17-14 24-15 26-14 24-15 26-14 24-15 26-14 24-10 17-2 1-10-8-14-12-29-29-9-11-11-13-13-18-12-18-9-15-10-18-8-16-10-21-13-33-11-33-10-37-5-23 1-5 15-26 14-24z" fill="#E2211C"/>
<path transform="translate(756,460)" d="m0 0h19l19 2 23 5 12 5 8 6 6 9 3 12v206l-3 13-6 10-4 5-15 12 16 34 15 33 8 18-21 10-10 3-10-22-20-46-6-14v-3h-2l1 2v91l-1 1-9 1h-23z" fill="#030000"/>
<path transform="translate(865,489)" d="m0 0 5 2 14 10 13 11 16 16 13 17 11 18 10 21 7 21 4 18 2 15v35l-4 20-6 16-9 16-11 13-9 9-14 10-8 4-1 39-7 7-13 10-11 7h-2z"/>
<path transform="translate(732,520)" d="m0 0h5v274l-17-4-15-6-1-1v-110h-41l5 19 8 16 7 11 1 2v49l-5-2-15-13-9-10-11-16-9-17-6-17-4-18-1-9v-22l3-20 6-20 9-19 8-12 9-11 15-15 15-11 19-10 17-6z"/>
<path transform="translate(734,462)" d="m0 0h3v37l-22 6-16 6-21 11-16 12-12 11-11 12-11 16-11 21-8 24-4 24v29l3 20 5 18 9 21 9 15 9 12 9 10 11 11 16 12 18 10 17 7 17 5 9 2v37l-10-1-21-5-21-8-16-8-15-9-12-9-14-12-10-10-9-11-11-15-10-18-8-18-6-18-5-24-2-24 1-25 4-24 6-20 8-20 11-20 10-14 9-11 12-13 8-7 14-11 16-10 17-9 21-8 19-5z" fill="#010000"/>
<path transform="translate(788,499)" d="m0 0 10 1 15 4v196l-8 8-13 8-3 1-1-2z" fill="#FEFEFE"/>
<path transform="translate(898,570)" d="m0 0 4 5 9 17 6 16 5 20 2 16v24l-3 17-5 12-6 10-7 7-5 2z" fill="#FEFEFE"/>
<path transform="translate(702,574)" d="m0 0h2v66h-41l1-8 6-18 9-16 11-13z" fill="#FEFEFE"/>
</svg>
