<?xml version="1.0" encoding="UTF-8"?>
<svg version="1.1" viewBox="250 220 950 950" width="1280" height="1280" xmlns="http://www.w3.org/2000/svg">
<path transform="translate(328,237)" d="m0 0h840l-1 4-14 9-10 10-9 14-4 10-3 9-1 9-1 150-43 43-1 577-19 6-311 89-9-1-207-59-55-16-63-18-3-2-1-576-38-38-4-5-1-148-2-13-5-15-6-10-8-10-11-10-10-6z"/>
<path transform="translate(723,497)" d="m0 0 4 1 8 5 3 12-36 12-24 5-6 2-13 15-8 10-4 15-4 20 11-19 16-17 7-8 4-4 36-10 15-4 4 1 6 7-1 11-26 14-10 6-22 5h-2l-2 5-15 24-8 13-2 7 9-10 14-13 11-9 12-9 2-1 30-3h6l4 10v9l-2 9-12 3-29 6-12 14-9 10-4 7-3 8 7-6 11-9 11-10 36-9 6 4 2 15-18 4-17 7-7 7-9 11 15-7 18-4h18l-1 12 2 18-2 2h-6l-13-12-3-2-9 2-5 3 5 2 10 9 11 9 3 1 3-1h17l6 1 11-10 8-7 4-3 4-1-7-4-7-1-11 9-5 5h-6l-2-2 2-22-1-8h18l18 4 15 7-13-15-3-3-20-8-15-3 2-15 7-4 34 9 11 9 10 9 8 7v-3l-4-9-12-14-10-11-1-2-39-8-3-2-1-7v-11l4-9 16 1 20 2 6 4 13 11 11 9 17 17-3-10-11-17-12-19v-2l-20-4-7-3-24-13-9-5-1-4v-7l6-8 8 1 44 12 5 3 8 8 7 8 10 11 11 19-4-19-4-16-9-11-9-10-4-5-26-5-37-12-2-1 3-12 9-6 16 3 36 8 18 8 19 11 15 10 20 11 12 9 14 8 20 8 10 6v3l-7 1-25 12-4-1-1-2 24-10v-3l-5-4-30-15-10-6-1 2 1 6-7-6-10-9-8-7-20-12-10-5-11-1v2l6 2 14 12 10 9 8 7 14 12 12 11 11 9 5 6 4 7-1 11-1 10 9 8 16 36 4 5 10 8v11l2 7 12 12-4 7-8 7 6 8 5 10 3 12 1 7v8l-6-5-3-1-1 5-5 13 1 18 13 3-1-6v-12l1-3h2v22l17 4 23 6v1l-10-1-30-6v8h-1v-9l-12-2 1 11-9-2-5-3-4-4-1 22 5 1 7 3 1-9 11 3 7 3v12l9 3 2 2-6-1-5-2v224l-19 6-63 18-4 1-1-1v-190l14-12 10-9 4-3v-2l-11-5-15 15h-2l-3-9v-3l-6 5-8 10-6 25-4-1-3-1-17 12-4 3-5-1-4-2-5 1-8 6-4 14-22 5h-4l-2 4-4 5-10-3-4-1-10 1-6-1-10 4-4-2-4-5v-2l-9-1-17-4-4-14-10-7-5 1-4 2-4-1-17-12-4-2-3 2h-3l-6-25-12-14-1-1-5 12-7-6-10-10-9 4h-2l2 5 14 12 12 11v191l-50-14-37-11-1-224-9 2 4-3 5-2 1-11 17-6h2l1 8 11-5 1-21h-2l-2 4-3 3-9 3h-3l2-12-12 3-2 16h-1v-16l-36 8h-5l4-2 33-9h4v-21h3l1 2v17l11-3 2-11v-6l-7-17h-2l-6 5v-11l3-14 4-10 8-9-5-5-7-8 2-4 10-10 1-3 1-15 13-11 17-38 9-8-1-9-1-12 6-10 12-11 8-7 14-12 12-11 11-9 13-12 7-4h-10l-12 6-22 14-10 10-8 7-3 2v-8l-14 8-30 15-2 5 25 10-2 3-5-1-26-12h-6l4-5 14-7 16-6 15-9 12-9 19-10 14-10 22-12 14-6z" fill="#FECA03"/>
<path transform="translate(328,237)" d="m0 0h840l-1 4-14 9-10 10-9 14-4 10-3 9-1 9-1 150-43 43-1 577-19 6-311 89-9-1-207-59-55-16-63-18-3-2-1-576-38-38-4-5-1-148-2-13-5-15-6-10-8-10-11-10-10-6zm61 29 3 9 3 7 3 15 1 109 1 35 42 42 1 567 8 3 293 84h7l301-86 1-1 1-567 42-42 1-135 2-17 6-18 2-5z" fill="#FECA03"/>
<path transform="translate(547,722)" d="m0 0 4 2 13 16 4 5 1 17-1 10v11l7 7h44l19 4 1-5 10-13 3-3 17-3 7 1 18 6 6 9 6 10-1 5-5 10v22l4 2 10 8 7 2 5 8 8 9-1 10-3 3-5 1h-12l-3 11-3 13-2 21-3-4-6-21-1-5v-15l9-1-21-9-15-8-5-4-23 1-11 3-3 5 4-1h14l1 7-10 4-1 1 26 2 12 3-1 8-5 5-15 6h-2v2l5 2 21 14 5-2 4-10 3-11h1l1 14 3 9 4 5 10 1 10-4 9-3h45l10 3 10 4 10-1 5-7 2-9 1-13h1l4 16 3 6 2 2 5-1 14-10 9-6-8-4-9-3-4-4-1-9 12-3 25-2-4-3-6-2v-6l1-1h13l5 1-2-4-15-4-20-1-10 7-28 13-3 1 9 1v10l-3 17-6 18h-1l-3-24-5-19v-2h-13l-5-2-3-5v-7l10-11 3-7 7-1 12-10h2v-19l-3-10-4-6 2-4 10-16 10-4 12-4 16 2 6 2 11 13 3 5-1 2 13-3 6-2 11-8 14-7 5-3-1 11-2 9 17-1 7-8-1-16v-17l2-5 13-16 5-6 4 2 6 8 4 10 3 16v8l-6-5-3-1-1 5-5 13 1 18 13 3-1-6v-12l1-3h2v22l17 4 23 6v1l-10-1-30-6v8h-1v-9l-12-2 1 11-9-2-5-3-4-4-1 22 5 1 7 3 1-9 11 3 7 3v12l9 3 2 2-6-1-5-2v224l-19 6-63 18-4 1-1-1v-190l14-12 10-9 4-3v-2l-11-5-15 15h-2l-3-9v-3l-6 5-8 10-6 25-4-1-3-1-17 12-4 3-5-1-4-2-5 1-8 6-4 14-22 5h-4l-2 4-4 5-10-3-4-1-10 1-6-1-10 4-4-2-4-5v-2l-9-1-17-4-4-14-10-7-5 1-4 2-4-1-17-12-4-2-3 2h-3l-6-25-12-14-1-1-5 12-7-6-10-10-9 4h-2l2 5 14 12 12 11v191l-50-14-37-11-1-224-9 2 4-3 5-2 1-11 17-6h2l1 8 11-5 1-21h-2l-2 4-3 3-9 3h-3l2-12-12 3-2 16h-1v-16l-36 8h-5l4-2 33-9h4v-21h3l1 2v17l11-3 2-11v-6l-7-17h-2l-6 5v-11l3-14 4-10z" fill="#FAFAFA"/>
<path transform="translate(405,277)" d="m0 0h685l-2 11-2 18-1 80h-674l-1-77-2-20z" fill="#FECA03"/>
<path transform="translate(603,821)" d="m0 0h4l6 9 4 5 9-1 12-2h24l23 1-1 5h-21l-15-1 7 8 3 4-2 1-14 1-8-10-1-1h-11l4 7-5-1-7-3h-8l-9 2 2 17-13 8-12 7 6-2 7-4h2l3 5 11 9 14 13v191l-50-14-37-11v-225l12-5 18-6h2l1 11 6-9h7l2 4 2 12 13-6 8-2-2-1-5-13v-2z" fill="#FDA217"/>
<path transform="translate(890,821)" d="m0 0 10 1 1 4-5 11-2 1 9 3 12 6 2-7 2-10h8l6 9 1-10 6 1 25 9v225l-19 6-63 18-4 1-1-1v-190l14-12 10-9 5-5 5 2 7 3-9-6-13-7 1-13 1-7-16-1-11 4-2-1 5-6h-12l-7 8-2 3-16-1 2-4 7-7 1-2-17 1h-22l-1-4 1-1 22-1h25l17 3h6l8-9z" fill="#FDA117"/>
<path transform="translate(704,957)" d="m0 0 12 2 8 8v2l12-5 15 1 9-1 11 4 7-8 13-3v157l-41 12-8-1-35-10-3-2z" fill="#FEA217"/>
<path transform="translate(879,396)" d="m0 0h86l1 1v168l-1 7-14-8-22-9-11-6-13-10-23-13-4-3v-126z" fill="#FECA03"/>
<path transform="translate(531,396)" d="m0 0h86l1 1v126l-9 6-18 10-15 11-16 8-22 9-6 5h-2v-175z" fill="#FECA03"/>
<path transform="translate(706,797)" d="m0 0 1 3v24l1 1 12-1 16 8 13 2 13-3 14-7 12 1 1-1v-26l3 3 4 8 1 5v14l-1 5-14 11-7 1-3 7-9 10v7l3 5 4 1 13 1 5 16 2 11 1 13 1 3 6-20 3-23h-14v-1l13-4 25-12 8-6 20 1 15 4 2 5h-18v6l7 2 3 4-26 2-12 2 2 9 5 4 14 5 2 2-5 4-11 7-10 7-4-1-4-5-4-14-3 17-6 8-10 1-10-4-10-3h-45l-11 4-8 3-10-1-5-6-3-9-1-11-5 16-5 5-6-2-9-7-13-8v-2l9-4 10-4 3-6 1-5-12-2-8-1-19-1 4-4 7-2v-7l-18 1 1-4 5-3 8-2 23-1 8 6 25 12 13 4v1h-14l1 15 5 20 3 8 3-24 4-14 2-5 17-2 2-2 1-10-10-11-3-6-7-2-13-10-1-4v-18z"/>
<path transform="translate(328,237)" d="m0 0h840l-1 4-14 9-10 10-9 14-4 10-3 9-1 9-1 150-43 43-1 577-19 6-311 89-9-1-207-59-55-16-63-18-3-2-1-576-38-38-4-5-1-148-2-13-5-15-6-10-8-10-11-10-10-6zm7 3 3 3 11 9 8 9 7 11 5 12 3 11 1 9 1 148 42 42 1 576 55 16 207 59 66 19 10-1 83-24 238-68 2-1 1-575 7-8 36-36 1-149 2-12 6-17 8-12 9-10 7-6 6-4v-1z" fill="#0C0C0C"/>
<path transform="translate(705,396)" d="m0 0h86l1 1v90l-2 1-19-4h-46l-21 4v-91z" fill="#FECA03"/>
<path transform="translate(947,722)" d="m0 0 4 2 6 8 4 10 3 16v8l-6-5-3-1-1 5-5 13 1 18 13 3-1-6v-12l1-3h2v22l17 4 23 6v1l-10-1-30-6v8h-1v-9l-12-2 1 11-9-2-5-3-4-4-1 22 5 1 7 3 1-9 11 3 7 3v12l9 3 2 2-6-1-25-9-11-4v12l-4-5-3-4v-2h-8l-2 16-2 2-14-7-9-2 4-3 4-10v-3l-19-2h-17l-36 3h-12l-1-4 1-2 28-2h7l3-12 1-3-43 9-5-1-1-1v-5l25-5 45-8 12-9 14-7 5-3-1 11-2 9 17-1 7-8-1-16v-17l2-5 13-16z" fill="#ccc"/>
<path transform="translate(654,640)" d="m0 0 2 2 7 18 9 19 10 16 13 13 8 7 11 9 2 1h7l1-2-12-25-5-6 9 3 6 7 12 20 4 4 6 1h8l8-2 15-25 5-5 7-3 2 1-5 5-8 16-4 9v2h7l7-4 14-13 8-7 7-8 10-17 10-21 6-15 2 3 1 6v14l-4 13-6 11-1 4 2 1h7l6-4 3-3-1 9-7 8h-2l-4 16-2 5-7 6-15 3h-14l-3 2 1 7 4 2-15 3-13 7-9 20h-1l1-9 4-15 14-7 6-2 5 1-2-4v-6l1-2-8 5-7 3-6-1-4-3-5 2-8 5h-12l-11-7-4 2-5 2-6-1-11-6-1 9-1 1h6l18 8 2 3 4 18-1 4-9-20-13-7-15-3 4-1v-9l-4-1h-12l-15-3-8-7-5-17v-3l-5-2-4-5-1-9 6 5 3 1h7l2-4-7-11-4-12-1-11 2-12z"/>
<path transform="translate(547,722)" d="m0 0 4 2 13 16 4 5 1 17-1 10v11l7 7h44l15 3h5v2l12 1 33 6 3 1v5l-2 2-13-2-29-6-2-1 5 14 4 1 28 2v5l-1 1h-11l-37-3h-17l-9 1h-9l5 12v3l3 1-4 2-9 3-9 4-2-7-2-9-7-1-2 5-4 6h-1v-13l-39 14-3-1 9-4 1-11 17-6h2l1 8 11-5 1-21h-2l-2 4-3 3-9 3h-3l2-12-12 3-2 16h-1v-16l-36 8h-5l4-2 33-9h4v-21h3l1 2v17l11-3 2-11v-6l-7-17h-2l-6 5v-11l3-14 4-10z" fill="#ccc"/>
<path transform="translate(669,770)" d="m0 0 7 1 18 6 6 9 6 10-1 5-5 10v22l4 2 10 8 7 2 5 8 8 9-1 10-3 3-5 1h-12l-3 11-3 13-2 21-3-4-6-21-1-5v-15l9-1-21-9-15-8-4-3v-2l12-1 2-4-11 1h-9l-10-10v-2h36l1-4h-47l-17 3-5-1-8-10-1-4 5-1h17l37 3h11l1-5-28-1-5-2-4-12v-2l26 5 15 3 4-1 1-5-14-2-34-6-1-5 11-14 3-3z" fill="#FBFBFB"/>
<path transform="translate(823,770)" d="m0 0 16 2 6 2 11 13 3 5-1 2-49 9h-3l2 6 9-1 33-7h5l-2 10-2 5-7 1-28 1v6l48-4h17l8 1-1 5-9 10-12-1-11-2h-25l-22 1v3h39l-2 4-7 7-2 1h-21l1 3 15 1-4 5-15 8-21 9 9 1v10l-3 17-6 18h-1l-3-24-5-19v-2h-13l-5-2-3-5v-7l10-11 3-7 7-1 12-10h2v-19l-3-10-4-6 2-4 10-16 10-4z" fill="#FBFBFA"/>
<path transform="translate(775,291)" d="m0 0 10 1 8 4 7 9 4 11 1 7v13l-2 12-6 12-7 6-5 2-9 1-10-3-8-7-5-9-2-8v-24l4-12 4-6 8-7z"/>
<path transform="translate(605,616)" d="m0 0 1 2-11 37-6 12-4 20-1 57 6 20v12l3 15h-18l-8-8v-11l1-16-2-26-4-20v-9l6-27 14-34 13-13 7-8z"/>
<path transform="translate(890,616)" d="m0 0 7 6 9 10 8 8 12 29 5 19 3 14v8l-4 19-2 20v17l1 16-8 9h-17l1-9 1-11v-7l6-19-1-57-4-20-6-13-11-37z"/>
<path transform="translate(697,293)" d="m0 0h33l6 3 5 6 2 8v7l-3 9-5 6-5 3 6 8 11 22v2h-14l-10-20-6-9-8-2v31h-12z"/>
<path transform="translate(606,641)" d="m0 0 3 4 18 36-1 5-7 13-5 17 1 9 6 17v20l16 27 1 5-10-1-9-2-10-8-2-13-3-23-6-20-2-24v-7l10-24 1-4v-16z"/>
<path transform="translate(889,641)" d="m0 0 1 3-1 6v19l8 20 3 7-1 22-1 9-6 18-4 33-2 5-10 8-18 3 1-5 16-27v-20l7-20-1-10-6-16-6-12 1-5z"/>
<path transform="translate(813,293)" d="m0 0h12l11 23 10 22 1-45h11v74h-12l-8-16-13-28-1 44h-11z"/>
<path transform="translate(890,821)" d="m0 0 10 1 1 4-5 11-2 1 9 3 12 6 2-7 2-10h8l6 9 1-10 6 1 6 3-2 27-1 2 2 1-5-1-11-5h-2l-5 19h-4l-8-5-13-7 1-13 1-7-16-1-11 4-2-1 5-6h-12l-7 8-2 3-16-1 2-4 7-7 1-2-17 1h-22l-1-4 1-1 22-1h25l17 3h6l8-9z" fill="#ccc"/>
<path transform="translate(603,821)" d="m0 0h4l6 9 4 5 9-1 12-2h24l23 1-1 5h-21l-15-1 7 8 3 4-2 1-14 1-8-10-1-1h-11l4 7-5-1-7-3h-8l-9 2 2 17-13 8-10 6h-2l-5-17v-4l-15 7-3-1 1-1-2-22v-6l10-4h2l1 11 6-9h7l2 4 2 12 13-6 8-2-2-1-5-13v-2z" fill="#CECAC5"/>
<path transform="translate(892,291)" d="m0 0 11 1 6 3 7 8 3 9v2l-8 2h-4l-3-6v-2l-5-2h-9l-5 3-4 8-1 5v15l3 10 2 5 5 2h10l7-5 1-9h-13v-13h24l1 1v29l-8 7-9 4-10 1-10-3-9-8-5-12-2-10v-13l2-10 4-10 8-8 6-3z"/>
<path transform="translate(929,293)" d="m0 0h42v13h-30v16h28v13h-28v19h31v13h-43z"/>
<path transform="translate(616,291)" d="m0 0 10 1 6 4 5 6 2 7v5l-1 1h-11l-3-8-4-2-8 1-3 3 1 6 4 3 16 6 7 6 3 7 1 10-2 9-4 7-6 4-9 2-9-1-8-4-5-7-3-11v-3l3-1h9l3 9 3 3 6 1 7-3 2-3v-7l-5-4-16-6-5-4-4-7-1-4v-9l3-8 4-5 6-3z"/>
<path transform="translate(999,291)" d="m0 0 10 1 6 4 5 6 2 6v6l-1 1h-10l-4-8-4-2-8 1-2 2v7l10 5 10 4 7 6 3 6 1 4v9l-3 10-5 5-4 3-9 2-9-1-6-3-6-7-4-13v-2l3-1h9l3 9 4 3 5 1 8-2 1-4v-7l-3-3-15-6-6-4-5-6-2-7v-7l3-8 6-7 4-2z"/>
<path transform="translate(469,293)" d="m0 0h11v29h22v-29h12v74h-12v-32h-22v32h-11z"/>
<path transform="translate(525,293)" d="m0 0h41v13h-30v16h28v13h-28v19h31v13h-42z"/>
<path transform="translate(530,584)" d="m0 0 5 5 8 7 23 12 4 2-1 5-13 25-6 8-10 11-8 5h-2z" fill="#FEC904"/>
<path transform="translate(947,722)" d="m0 0 4 2 6 8 4 10 3 16v8l-6-5-3-1-1 5-5 13 1 18-16-4-13-1 6-8 1-1-1-16v-17l2-5 13-16z" fill="#FBFBFB"/>
<path transform="translate(547,722)" d="m0 0 4 2 13 16 4 5 1 17-1 10v11l6 6v2l-14 1-11 3h-3l1-17-7-17h-2l-6 5v-11l3-14 4-10z" fill="#FBFBFB"/>
<path transform="translate(964,585)" d="m0 0h1v79l-9-5-8-8-7-9-15-29v-3l15-8 10-5 9-7z" fill="#FECB03"/>
<path transform="translate(906,771)" d="m0 0h1l-1 11-2 9h30l29 8-1-6v-12l1-3h2v22l17 4 23 6v1l-10-1-30-6v8h-1v-9l-17-3-14-3h-18l-5 5-6 16-12-1 9-19 1-2-33 2-5 5-8 9-3 4h-2l3-12 1-3-43 9-5-1-1-1v-5l25-5 45-8 12-9 14-7z" fill="#CCCBCA"/>
<path transform="translate(531,778)" d="m0 0 3 3v17l26-7 15-1h44l15 3h5v2l12 1 33 6 3 1v5l-2 2-13-2-29-6-2-1 4 12v3l-4-2-12-14-5-2-21-1-8-1 3 8 6 12-1 1-11 1-7-16-3-3v-2h-21l-28 6-2 16h-1v-16l-36 8h-5l4-2 33-9h4v-21z" fill="#CDCAC7"/>
<path transform="translate(1029,293)" d="m0 0h44v13h-16v61h-12v-61h-16z"/>
<path transform="translate(646,293)" d="m0 0h44v13h-16v61h-12v-61h-16z"/>
<path transform="translate(418,293)" d="m0 0h44v13h-16v61h-12v-61h-16z"/>
<path transform="translate(773,305)" d="m0 0h10l5 4 3 5 2 10v10l-2 11-4 7-5 3h-9l-6-5-4-9v-22l3-8z" fill="#FECA03"/>
<path transform="translate(625,839)" d="m0 0h8l7 8 2 3 25-2h11l-1 4-1 1-36 2-11 3-5 1-19 5h-4l-1 2-24 12-3-1 25-15-2-16-4-1 8-2 6-1h8l9 4 1-1-2-5z" fill="#FAFAFA"/>
<path transform="translate(861,581)" d="m0 0 3 3 19 32 2 4-5 27-4 7-7 9-5 2h-3l-1-6v-13l5-3 4-14v-7l-8-39z"/>
<path transform="translate(633,582)" d="m0 0h1l-1 10-6 30v7l4 14 5 4-1 18-6-1-5-5-7-9-3-13-3-18 19-32z"/>
<path transform="translate(915,796)" d="m0 0h18l17 4 2 4 1 8-9-2-5-3-4-4-1 21-11-3-16-2-3-1 1-5 5-12z" fill="#FBFBFB"/>
<path transform="translate(723,888)" d="m0 0h1l1 12 8-2h30l8 2 1-12 5 5 4 8 3 12-17-4-7-1h-24l-16 3-8 2 2-10 6-12z" fill="#F9F7F3"/>
<path transform="translate(561,796)" d="m0 0h19l5 5 5 10 1 7-25 4-4 1v-21h-2l-2 4-3 3-9 3h-3l2-12 6-2z" fill="#FBFBFB"/>
<path transform="translate(890,796)" d="m0 0h12l-2 6-8 15-10-1h-28l2-5 11-13 2-1z" fill="#FBFBFB"/>
<path transform="translate(595,796)" d="m0 0 29 1 5 2 9 10 4 5v2h-38l-9-16z" fill="#FBFBFB"/>
<path transform="translate(934,829)" d="m0 0 6 1 6 3-2 27-3 1-4-2-7-9-2-1v4l-5-1-7-4 3-18h8l6 9z"/>
<path transform="translate(863,839)" d="m0 0 12 1-3 6 11-4 16 2-1 14-1 4-9-2-31-8-2-1 1-4z" fill="#FBFBFB"/>
<path transform="translate(560,828)" d="m0 0h2l1 11 6-9h7l2 4 2 13-12 6-2-3-7 8-4 2h-3l-2-22v-6z"/>
<path transform="translate(856,688)" d="m0 0 3 3 5 11v27l-13 8-3 2h-17l5-5 11-8 8-13z"/>
<path transform="translate(825,696)" d="m0 0 6 1 4 2-1 8-3 13-13 9-13 2-6-6 2-4 4-5 5 2h6l4-4v-7l-2-4z" fill="#F8F8F8"/>
<path transform="translate(667,696)" d="m0 0 5 1 5 5-1 4-1 6 4 6h6l6-2 4 6 2 1-2 4-5 4-12-2-13-9-4-17v-4z" fill="#F7F7F7"/>
<path transform="translate(899,845)" d="m0 0 9 3 6 10 1-6 6 1 6 3-5 20h-4l-8-5-13-7 1-13z"/>
<path transform="translate(638,688)" d="m0 0h1l1 23 10 16 15 11v1h-17l-16-10v-27z"/>
<path transform="translate(596,845)" d="m0 0h1l2 17-13 8-10 6h-2l-5-17 1-5 7-3h4l1 6 4-5 2-4z"/>
<path transform="translate(902,823)" d="m0 0 17 1 12 3 3 1v13l-4-5-3-4v-2h-8l-2 16-2 2-14-7-9-2 4-3 5-12z" fill="#FBFBFB"/>
<path transform="translate(584,823)" d="m0 0h10l5 11v3l3 1-4 2-9 3-9 4-2-7-2-9-7-1-2 5-4 6h-1v-14l6-2z" fill="#FAFAFA"/>
<path transform="translate(816,848)" d="m0 0h22v2h17l42 12v2l5 2 8 4 9 6 3 3-6-2-16-8-6-2v-2l-17-4-24-6-36-2-2-4z" fill="#CCCBCA"/>
<path transform="translate(667,848)" d="m0 0h11l-1 4-1 1-36 2-11 3-5 1-19 5h-4l-1 2-24 12-3-1 15-9 14-8 39-10z" fill="#ccc"/>
<path transform="translate(709,306)" d="m0 0h18l4 5v7l-3 5-3 1h-16z" fill="#FECA03"/>
<path transform="translate(821,764)" d="m0 0 8 1 20 6 3 5 6 12-1 2-13-16-17-3-7 1-18 6-8 13-2 2 2-11 4-8z"/>
<path transform="translate(670,764)" d="m0 0 7 1 21 9 4 8 2 11-4-5-6-10-21-7-16 2-6 2-10 12-3 3 2-6 6-12 8-3z"/>
<path transform="translate(691,750)" d="m0 0 7 1 17 12 3 5 4 14-1 3-11-18-11-8-6-2-35 2 3-2z"/>
<path transform="translate(799,750)" d="m0 0 10 1 29 7v1l-38-2-12 8h-2l-2 5-9 15-1-3 5-17 7-6 12-8z"/>
<path transform="translate(906,771)" d="m0 0h1l-1 11-3 9h-26v-2l11-8 14-7z" fill="#FAFAFA"/>
<path transform="translate(589,771)" d="m0 0 7 4 15 8 7 6v2h-25l-2-6-2-9z" fill="#FAFAFA"/>
<path transform="translate(581,796)" d="m0 0h13l10 19-1 2-11 1-7-16-4-5z"/>
<path transform="translate(603,821)" d="m0 0h4l10 15-8 2h-8l-2-1-5-13v-2z"/>
<path transform="translate(903,796)" d="m0 0h12l-5 6-6 16-12-1 9-19z"/>
<path transform="translate(890,821)" d="m0 0 10 1 1 4-5 11-6 2-11-2 2-4 7-9z"/>
<path transform="translate(815,666)" d="m0 0 1 2-5 11v11l-14 11-7 7 1-9 11-11 1-7 9-11z" fill="#010000"/>
<path transform="translate(680,666)" d="m0 0 5 5 8 10v8l4 2 8 8v8l-5-5-13-11-2-1v-11l-5-11z" fill="#010000"/>
<path transform="translate(947,820)" d="m0 0 11 3 7 3v12l-17-7-2-1z" fill="#FEA316"/>
<path transform="translate(637,837)" d="m0 0 5 1 2 1v-2l4 1 10 10-2 2-14 1-8-10-2-3z"/>
<path transform="translate(849,837)" d="m0 0h3v2l5-2 6 1-2 4-7 9-16-1 2-4z"/>
<path transform="translate(547,820)" d="m0 0h2l1 9-18 8h-2v-11z" fill="#FEA316"/>
<path transform="translate(530,668)" d="m0 0 4 2 1 2v19l-4 6h-1z" fill="#FEBF09"/>
<path transform="translate(629,799)" d="m0 0 10 1 3 3 3 10v3l-4-2-12-14z"/>
<path transform="translate(963,669)" d="m0 0h2v27l-4-4-1-12 1-9z" fill="#FEC406"/>
<path transform="translate(864,798)" d="m0 0 3 1-11 13-3 4h-2l3-12 2-4z"/>
<path transform="translate(531,778)" d="m0 0 3 3v11l-1 7h-3v-20z" fill="#FEA216"/>
<path transform="translate(963,778)" d="m0 0h2v22h-2l-1-7v-12z" fill="#FEA216"/>
<path transform="translate(587,847)" d="m0 0 1 3-5 9-2-2v-7z" fill="#F2F2F2"/>
<path transform="translate(618,840)" d="m0 0 4 1 4 6-5-1-9-4v-1z"/>
<path transform="translate(909,849)" d="m0 0 6 2v7l-2 1-4-7z" fill="#F3F3F3"/>
<path transform="translate(928,849)" d="m0 0 3 1 6 8-6-2-4-3z" fill="#FEA217"/>
<path transform="translate(875,841)" d="m0 0h6l1 2-10 4-2-1z"/>
<path transform="translate(580,875)" d="m0 0h2l-2 4-4 4-1-5z"/>
</svg>
