<?xml version="1.0" encoding="UTF-8"?>
<svg version="1.1" viewBox="160 130 1150 1150" width="1280" height="1280" xmlns="http://www.w3.org/2000/svg">
<path transform="translate(737,158)" d="m0 0 39 1 33 3 33 5 36 8 35 10 28 10 31 13 36 18 27 16 24 16 19 14 14 11 14 12 10 9 12 11 21 21 7 8 9 10 9 11 14 18 12 17 10 15 11 18 9 16 12 23 9 19 11 27 12 36 7 25 7 31 6 39 3 36v57l-3 36-5 33-6 29-9 34-12 35-12 29-14 29-10 19-12 20-16 24-14 19-11 14-12 14-18 20-24 24-8 7-10 9-14 11-15 12-20 14-17 11-22 13-28 15-31 14-35 13-29 9-28 7-38 7-34 4-37 2h-22l-37-2-34-4-33-6-36-9-29-9-34-13-26-12-24-12-27-16-20-13-17-12-13-10-11-9-13-11-24-22-14-14-7-8-11-12-9-11-12-15-13-18-14-21-12-20-10-18-8-15-14-31-11-29-10-31-9-36-6-33-4-32-2-31v-41l2-31 4-32 6-33 8-32 9-29 11-30 12-27 16-32 13-22 14-22 11-15 9-12 11-14 12-14 24-26 10-10 8-7 13-12 11-9 15-12 19-14 26-17 24-14 27-14 24-11 31-12 34-11 32-8 31-6 30-4 25-2z" fill="#FBF8F0"/>
<path transform="translate(737,158)" d="m0 0 39 1 33 3 33 5 36 8 35 10 28 10 31 13 36 18 27 16 24 16 19 14 14 11 14 12 10 9 12 11 21 21 7 8 9 10 9 11 14 18 12 17 10 15 11 18 9 16 12 23 9 19 11 27 12 36 7 25 7 31 6 39 3 36v57l-3 36-5 33-6 29-9 34-12 35-12 29-14 29-10 19-12 20-16 24-14 19-11 14-12 14-18 20-24 24-8 7-10 9-14 11-15 12-20 14-17 11-22 13-28 15-31 14-35 13-29 9-28 7-38 7-34 4-37 2h-22l-37-2-34-4-33-6-36-9-29-9-34-13-26-12-24-12-27-16-20-13-17-12-13-10-11-9-13-11-24-22-14-14-7-8-11-12-9-11-12-15-13-18-14-21-12-20-10-18-8-15-14-31-11-29-10-31-9-36-6-33-4-32-2-31v-41l2-31 4-32 6-33 8-32 9-29 11-30 12-27 16-32 13-22 14-22 11-15 9-12 11-14 12-14 24-26 10-10 8-7 13-12 11-9 15-12 19-14 26-17 24-14 27-14 24-11 31-12 34-11 32-8 31-6 30-4 25-2zm-21 70-33 3-32 5-31 7-27 8-28 10-28 12-26 13-27 16-15 10-14 10-13 10-11 9-14 12-17 16-11 11-7 8-10 11-22 28-14 20-13 21-12 22-8 16-8 17-12 31-10 32-8 34-5 31-3 31-1 25v14l2 37 4 32 6 31 8 30 11 33 12 29 11 23 13 23 13 21 14 20 14 18 12 14 9 10 11 12 14 14 8 7 10 9 14 11 18 14 21 14 25 15 27 14 24 11 27 10 25 8 32 8 27 5 33 4 14 1h54l33-3 32-5 30-7 31-9 27-10 23-10 19-9 23-13 18-11 19-13 21-16 13-11 20-18 22-22 7-8 12-14 13-17 13-18 12-19 11-19 12-23 11-24 11-29 9-29 8-34 5-30 3-29 1-18v-35l-2-30-4-30-6-31-8-30-10-30-11-27-14-29-14-25-14-22-13-18-11-14-11-13-18-20-21-21-8-7-14-12-17-13-18-13-22-14-21-12-30-15-27-11-35-12-36-9-27-5-33-4-15-1z" fill="#A61B1F"/>
<path transform="translate(465,388)" d="m0 0h138l1 493 2 17 5 19 6 15 8 15 12 16 8 9 8 7 15 11 21 11 18 6 15 3 9 1h23l19-3 17-5 18-8 14-9 10-8 10-9 12-14 11-18 7-16 6-21 2-14 1-498h138v486l-3 24-5 24-7 23-11 26-11 21-16 24-11 14-12 13-18 18-11 9-19 14-24 14-23 11-25 9-24 6-24 4-10 1h-46l-24-3-23-5-20-6-22-9-17-8-22-13-14-10-10-8-14-12-18-18-9-11-10-13-11-17-9-16-11-23-8-22-7-28-4-26-1-13z" fill="#A61B1F"/>
</svg>
