<?xml version="1.0" encoding="UTF-8"?>
<svg version="1.1" viewBox="135 110 750 750" width="1280" height="1280" xmlns="http://www.w3.org/2000/svg">
<path transform="translate(333,115)" d="m0 0 12 5 18 8 17 5 13 2h31l17-3 34-9 17-3 10-1h29l22 3 27 7 21 5 8 1h30l18-3 18-6 23-11 2 1-7 18-4 16-2 17v18l3 17 6 17 13 27 8 21 4 17 1 8v28l-4 18-6 16-9 17-9 12-11 12-3 2 32 1 8 16 9 13 11 12 8 8 17 13 15 10 19 11 9 5v10l-3 26-7 36-8 28-8 23-9 21-12 25-16 27-13 19-13 17-9 11-12 14-15 16-19 19-8 7-11 10-11 9-16 13-19 14-20 14-21 13-21 12-19 10-5-1-25-13-25-15-15-10-20-14-13-10-14-11-14-12-11-10-8-7-32-32-7-8-11-13-13-17-12-17-12-19-9-16-10-19-13-31-9-27-7-27-5-26-4-36 1-3 23-13 21-14 14-11 13-12 10-12 9-14 6-12 31-1-13-13-11-16-8-15-6-17-3-13-1-9v-16l3-21 6-20 11-24 9-20 5-17 1-6v-30l-3-17-5-16-4-10z" fill="#FEFEFE"/>
<path transform="translate(339,438)" d="m0 0 36 8 137 31h9l127-29 44-10 3 1 9 13 11 12 4 5 8 7 15 12 21 13 8 5-3 23-5 24-7 24-8 22-9 20-11 22-12 20-13 19-12 16-13 16-10 11-7 8-28 28-8 7-13 11-14 11-16 12-27 18-20 12-18 10-16-8-22-13-24-16-19-14-16-13-11-9-26-24-10-10-7-8-11-12-9-11-13-17-14-20-13-22-12-23-10-22-9-25-7-26-5-28-1-14 18-10 17-12 14-12 12-12 13-17z" fill="#003389"/>
<path transform="translate(370,493)" d="m0 0h133l1 1v61h-24l1 132 5 10 10 5h40l8-3 5-6 3-9 1-129h-24v-62h133l1 1v61h-27v151l-7 7-8 7-37 37-8 7-8 8h-104l-38-38-8-7-22-22v-150h-26z" fill="#FEFEFE"/>
<path transform="translate(379,197)" d="m0 0h23l19 3 20 6 18 8 16 9 12 9 11 9 15 14 2 3 4-2 14-14 11-9 14-10 17-10 19-8 23-6 13-2h23l-2 12v15l3 11 6 12 12 18 6 12 4 16v16l-3 15-5 12-7 9-7 7-12 7-16 5-7 1h-20l-16-3-14-5-14-7-6-4 3 21 5 15 8 16 9 12 7 7 2 1v2l-71 16-8-1-66-15 1-3 7-6 10-14 8-16 5-16 1-5v-13l-14 8-15 6-12 3-7 1h-21l-14-3-12-5-9-6-5-4-9-12-5-13-2-9v-23l3-12 9-17 12-18 5-12 2-10-1-15z" fill="#DC020A"/>
<path transform="translate(333,115)" d="m0 0 12 5 18 8 17 5 13 2h31l17-3 34-9 17-3 10-1h29l22 3 27 7 21 5 8 1h30l18-3 18-6 23-11 2 1-7 18-4 16-2 17v18l3 17 6 17 13 27 8 21 4 17 1 8v28l-4 18-6 16-9 17-9 12-11 12-3 2 32 1 8 16 9 13 11 12 8 8 17 13 15 10 19 11 9 5v10l-3 26-7 36-8 28-8 23-9 21-12 25-16 27-13 19-13 17-9 11-12 14-15 16-19 19-8 7-11 10-11 9-16 13-19 14-20 14-21 13-21 12-19 10-5-1-25-13-25-15-15-10-20-14-13-10-14-11-14-12-11-10-8-7-32-32-7-8-11-13-13-17-12-17-12-19-9-16-10-19-13-31-9-27-7-27-5-26-4-36 1-3 23-13 21-14 14-11 13-12 10-12 9-14 6-12 31-1-13-13-11-16-8-15-6-17-3-13-1-9v-16l3-21 6-20 11-24 9-20 5-17 1-6v-30l-3-17-5-16-4-10zm169 19-22 4-38 9-19 3h-27l-21-3-14-4h-3l2 16v30l-4 20-7 19-14 30-7 21-3 16v18l3 17 7 19 9 16 10 13 10 10 5 2-1 13-9 8-29 1-8 15-10 14-14 15-11 9-15 11-31 19v12l4 29 7 31 12 36 9 21 9 19 12 21 14 22 13 17 10 13 12 14 12 13 30 30 8 7 14 12 17 13 20 15 24 16 21 13 23 13 5 2 20-11 23-14 24-16 14-10 17-13 16-13 14-12 16-15 21-21 7-8 13-15 10-13 13-18 11-17 10-17 13-25 10-24 11-33 7-30 4-27 1-17-27-16-17-12-14-12-11-11-10-13-9-16-2-3-28-1-10-8v-13l4-2 10-9 10-13 9-16 6-15 4-17 1-16-2-17-4-15-6-15-13-28-6-16-4-18-1-11v-13l2-26-17 4-20 3h-28l-24-4-37-9-17-3z" fill="#013489"/>
<path transform="translate(496,147)" d="m0 0h41l19 3 22 6 20 8 16 8 12 7v2l-25 5-17 5-24 10-22 12-21 14-9-5-15-10-29-15-25-9-21-5-12-2 5-5 23-12 24-9 24-6z" fill="#DC020A"/>
<path transform="translate(658,412)" d="m0 0 7 6 2 2 14 1 5 7v2l-118 27-49 11-10-1-110-25-52-12 1-4 3-5 14-1 8-7 10 1 127 29 8 1 114-26z" fill="#DC020A"/>
<path transform="translate(597,249)" d="m0 0 16 2 12 6 10 10 5 10 2 8v12l-4 13-7 9-8 7-8 4-6 2h-19l-11-4-10-7-7-9-5-12v-18l4-10 6-9 8-7 11-5z" fill="#FEFEFE"/>
<path transform="translate(431,249)" d="m0 0 16 2 12 6 6 5 7 10 4 13v12l-4 13-7 9-8 7-8 4-6 2h-19l-11-4-10-7-7-9-4-9-1-4v-16l4-11 6-9 8-7 11-5z" fill="#FEFEFE"/>
</svg>
