<?xml version="1.0" encoding="utf-8"?>
<!-- Generator: Adobe Illustrator 25.0.1, SVG Export Plug-In . SVG Version: 6.00 Build 0)  -->
<svg version="1.0" id="katman_1" xmlns="http://www.w3.org/2000/svg" xmlns:xlink="http://www.w3.org/1999/xlink" x="0px" y="0px"
	 viewBox="50 20 135 135" style="enable-background:new 0 0 234 169.1;" xml:space="preserve">
<style type="text/css">
	.st0{fill:#FFB300;}
	.st1{fill:#8E001C;}
	.st2{fill:#1D1D1B;}
	.st3{fill:#BDBBBB;}
</style>
<g id="Layer_2">
	<g id="LOGO">
		<path d="M115.8,154.1c-12.5-7.4-23.4-17.3-31.9-29.1c-7.7-10.6-13.3-22.7-16.4-35.5l-0.3-1.1l-1-4.9c-2.2-12.2-2.2-24.7,0.1-36.9
			l0.4-2l2-0.4c0.1,0,13.1-2.8,24.6-9.2c16.4-9.2,21.9-15,22-15.1l2.2-2.4l2.2,2.4c0,0,5.6,5.9,21.9,15.1
			c11.5,6.5,24.4,9.2,24.6,9.2l2,0.4l0.4,2c2.3,12.2,2.3,24.7,0.1,36.9l-0.3,1.7l-1,4.2c-3.1,12.8-8.7,24.8-16.5,35.5
			c-8.5,11.8-19.4,21.7-31.9,29.1l-1.5,0.9L115.8,154.1z"/>
		<path class="st0" d="M165.8,46.7c0,0-13.5-2.8-25.6-9.6c-17.4-9.8-22.9-15.7-22.9-15.7s-5.5,6-22.9,15.7
			c-12.1,6.8-25.6,9.6-25.6,9.6c-2.5,13.1-2.2,26.5,0.6,39.5h95.7C168,73.2,168.2,59.8,165.8,46.7"/>
		<path class="st1" d="M117.3,152.4c25.2-15,41.8-38.6,47.6-64.8H69.7C75.5,113.8,92.1,137.4,117.3,152.4"/>
		<path class="st2" d="M83.1,104.5c0-3.2,0-3.8,0-4.5c0-0.7-0.2-1.1-0.9-1.2c-0.3,0-0.5-0.1-0.8-0.1c-0.2,0-0.4,0-0.4-0.2
			c0-0.2,0.1-0.2,0.5-0.2c1.1,0,2.5,0.1,2.9,0.1c0.7,0,2.3-0.1,3-0.1c1.4-0.1,2.7,0.2,3.9,0.9c0.9,0.7,1.4,1.8,1.4,2.9
			c0,1.6-0.7,3-2.8,4.8c1.9,2.4,3.4,4.3,4.6,5.6c0.6,0.7,1.5,1.3,2.4,1.4c0.2,0,0.4,0.1,0.6,0.1c0.2,0,0.3,0.1,0.3,0.2
			s-0.1,0.2-0.4,0.2h-2c-0.8,0.1-1.6-0.1-2.3-0.4c-0.9-0.5-1.7-1.5-2.9-3.1c-0.8-1.2-1.8-2.6-2.1-2.9c-0.1-0.1-0.2-0.2-0.4-0.1h-1.9
			c-0.1,0-0.2,0-0.2,0.2v0.3c0,2,0,3.7,0.1,4.6c0.1,0.6,0.2,1.1,0.8,1.2c0.3,0,0.7,0.1,1,0.1c0.2,0,0.2,0.1,0.2,0.2
			s-0.1,0.2-0.4,0.2c-1.2,0-2.8-0.1-3.1-0.1c-0.3,0-1.7,0.1-2.6,0.1c-0.3,0-0.4-0.1-0.4-0.2s0.1-0.2,0.3-0.2c0.3,0,0.5,0,0.8-0.1
			c0.4-0.1,0.5-0.6,0.6-1.2c0.1-0.9,0.1-2.6,0.1-4.5L83.1,104.5z M85.6,106.1c0,0.2,0,0.3,0.2,0.4c0.5,0.2,1.1,0.2,1.6,0.2
			c0.5,0.1,1.1-0.1,1.5-0.4c0.9-0.8,1.4-2,1.3-3.2c0-3-2-3.9-3.3-3.9c-0.4,0-0.8,0-1.1,0.1c-0.1,0-0.2,0.1-0.2,0.3V106.1z"/>
		<path class="st2" d="M96.9,106.3c0-3.6,2.4-8.4,8.8-8.4c5.3,0,8.6,3.1,8.6,8s-3.4,8.7-8.8,8.7C99.4,114.7,96.9,110.1,96.9,106.3
			 M111.4,106.7c0-4.8-2.8-7.7-6.3-7.7c-2.5,0-5.2,1.4-5.2,6.7c0,4.4,2.5,8,6.5,8C107.9,113.6,111.3,112.9,111.4,106.7"/>
		<path class="st2" d="M117.7,98.5c0.1-0.4,0.2-0.6,0.4-0.6c0.2,0,0.3,0.1,0.6,0.7l5.8,11.9l5.8-12c0.2-0.3,0.3-0.5,0.5-0.5
			s0.3,0.2,0.4,0.7l2,13.1c0.2,1.3,0.4,2,1,2.1c0.4,0.1,0.9,0.2,1.3,0.2c0.2,0,0.3,0,0.3,0.1c0,0.1-0.3,0.2-0.6,0.2
			c-0.5,0-3.5,0-4.3-0.1c-0.5,0-0.6-0.1-0.6-0.2c0-0.1,0.1-0.2,0.2-0.2s0.2-0.3,0.1-0.9l-1.3-9.3h-0.1l-4.7,9.5
			c-0.5,1-0.6,1.2-0.8,1.2s-0.4-0.4-0.7-1.1c-0.5-1-2.2-4.2-2.5-4.8c-0.2-0.5-1.5-3-2.2-4.6h-0.1l-1.1,8.3c0,0.3-0.1,0.7-0.1,1
			c0,0.4,0.3,0.6,0.6,0.7c0.3,0.1,0.6,0.1,0.9,0.1c0.2,0,0.3,0,0.3,0.1c0,0.1-0.2,0.2-0.5,0.2c-0.9,0-1.9-0.1-2.2-0.1
			s-1.4,0.1-2.1,0.1c-0.2,0-0.4,0-0.4-0.2c0-0.2,0.1-0.1,0.3-0.1c0.2,0,0.4,0,0.6-0.1c0.6-0.1,0.8-1,0.9-1.6L117.7,98.5z"/>
		<path class="st2" d="M141,108.9c-0.1,0-0.1,0-0.2,0.2l-1.2,2.9c-0.2,0.4-0.3,0.9-0.3,1.3c0,0.4,0.2,0.7,0.8,0.7h0.3
			c0.3,0,0.3,0,0.3,0.2s-0.1,0.2-0.4,0.2c-0.7,0-1.6-0.1-2.3-0.1c-0.2,0-1.4,0.1-2.5,0.1c-0.3,0-0.4,0-0.4-0.2s0.1-0.2,0.3-0.2
			c0.2,0,0.4,0,0.7,0c1-0.1,1.4-0.8,1.8-1.9l5.4-13.2c0.3-0.6,0.4-0.8,0.6-0.8c0.2,0,0.3,0.2,0.5,0.7c0.5,1.2,3.9,9.7,5.3,12.9
			c0.8,1.9,1.4,2.2,1.9,2.3c0.3,0.1,0.6,0.1,0.9,0.1c0.2,0,0.3,0,0.3,0.2s-0.2,0.2-1,0.2c-0.8,0-2.3,0-4,0c-0.4,0-0.6,0-0.6-0.2
			c0-0.2,0.1-0.2,0.3-0.2c0.2-0.1,0.3-0.3,0.2-0.5c0,0,0,0,0,0l-1.7-4.4c0-0.1-0.1-0.2-0.2-0.1L141,108.9z M145.4,107.9
			c0.1,0,0.1-0.1,0.1-0.1l-1.9-5.2c0-0.1,0-0.2-0.1-0.2s-0.1,0.1-0.1,0.2l-2,5.2c0,0.1,0,0.1,0.1,0.1L145.4,107.9z"/>
		<path class="st0" d="M83.7,104c0-3.2,0-3.8,0-4.5s-0.2-1.1-0.9-1.2c-0.3,0-0.5-0.1-0.8-0.1c-0.2,0-0.4,0-0.4-0.2
			c0-0.2,0.2-0.2,0.5-0.2c1.1,0,2.5,0.1,2.9,0.1c0.7,0,2.3-0.1,3-0.1c1.4-0.1,2.7,0.2,3.9,0.9c0.9,0.7,1.4,1.8,1.4,2.9
			c0,1.6-0.7,3-2.8,4.8c1.9,2.4,3.4,4.3,4.6,5.6c0.6,0.7,1.5,1.3,2.4,1.5c0.2,0,0.4,0.1,0.6,0.1c0.2,0,0.3,0.1,0.3,0.2
			c0,0.1-0.1,0.2-0.4,0.2h-2c-0.8,0.1-1.6-0.1-2.3-0.4c-0.9-0.5-1.7-1.5-2.9-3.1c-0.8-1.2-1.8-2.6-2.1-2.9c-0.1-0.1-0.2-0.2-0.4-0.1
			l-1.9,0c-0.1,0-0.2,0-0.2,0.2v0.3c0,2,0,3.7,0.1,4.6c0.1,0.6,0.2,1.1,0.8,1.2c0.3,0,0.7,0.1,1,0.1c0.2,0,0.3,0.1,0.3,0.2
			c0,0.1-0.1,0.2-0.4,0.2c-1.2,0-2.8-0.1-3.1-0.1c-0.3,0-1.7,0.1-2.6,0.1c-0.3,0-0.4-0.1-0.4-0.2c0-0.1,0.1-0.2,0.3-0.2
			c0.3,0,0.5,0,0.8-0.1c0.4-0.1,0.5-0.6,0.6-1.2c0.1-0.9,0.1-2.6,0.1-4.5L83.7,104z M86.2,105.6c0,0.2,0,0.3,0.2,0.4
			c0.5,0.2,1.1,0.2,1.6,0.2c0.5,0.1,1.1-0.1,1.5-0.4c0.6-0.5,1.3-1.4,1.3-3.2c0-3-2-3.9-3.3-3.9c-0.4,0-0.8,0-1.1,0.1
			c-0.1,0-0.2,0.1-0.2,0.3V105.6z"/>
		<path class="st0" d="M97.5,105.9c0-3.6,2.4-8.4,8.8-8.4c5.3,0,8.6,3.1,8.6,8c0,4.9-3.4,8.7-8.8,8.7
			C99.9,114.2,97.5,109.6,97.5,105.9 M111.9,106.3c0-4.8-2.8-7.7-6.3-7.7c-2.5,0-5.2,1.4-5.2,6.7c0,4.4,2.5,8,6.5,8
			C108.5,113.1,111.9,112.4,111.9,106.3"/>
		<path class="st0" d="M118.2,98c0.1-0.4,0.2-0.6,0.4-0.6c0.2,0,0.3,0.1,0.6,0.7L125,110l5.8-12c0.2-0.3,0.3-0.5,0.5-0.5
			s0.3,0.2,0.4,0.7l1.9,13.1c0.2,1.3,0.4,2,1,2.2c0.4,0.1,0.9,0.2,1.3,0.2c0.2,0,0.3,0,0.3,0.1c0,0.1-0.3,0.2-0.6,0.2
			c-0.5,0-3.5,0-4.3-0.1c-0.5,0-0.6-0.1-0.6-0.2c0-0.1,0.1-0.2,0.2-0.2s0.2-0.3,0.1-0.9l-1.3-9.3h-0.1l-4.6,9.5
			c-0.5,1-0.6,1.2-0.8,1.2c-0.2,0-0.4-0.4-0.7-1.1c-0.5-1-2.2-4.2-2.5-4.8c-0.2-0.5-1.5-3-2.2-4.6h-0.1l-1.1,8.3
			c0,0.3-0.1,0.7-0.1,1c0,0.4,0.3,0.6,0.6,0.7c0.3,0.1,0.6,0.1,0.9,0.1c0.2,0,0.3,0,0.3,0.1c0,0.1-0.2,0.2-0.5,0.2
			c-0.9,0-1.9-0.1-2.2-0.1c-0.4,0-1.4,0.1-2.1,0.1c-0.2,0-0.4,0-0.4-0.2c0-0.2,0.1-0.1,0.3-0.1c0.2,0,0.4,0,0.6-0.1
			c0.6-0.1,0.8-1,0.9-1.6L118.2,98z"/>
		<path class="st0" d="M141.6,108.5c-0.1,0-0.1,0-0.2,0.2l-1.2,2.9c-0.2,0.4-0.3,0.9-0.3,1.3c0,0.4,0.2,0.7,0.8,0.7h0.3
			c0.3,0,0.3,0,0.3,0.2c0,0.1-0.1,0.2-0.4,0.2c-0.7,0-1.6-0.1-2.3-0.1c-0.2,0-1.4,0.1-2.5,0.1c-0.3,0-0.4,0-0.4-0.2s0.1-0.2,0.3-0.2
			c0.2,0,0.4,0,0.7,0c1-0.1,1.4-0.8,1.8-1.9l5.4-13.3c0.3-0.6,0.4-0.8,0.6-0.8s0.3,0.2,0.5,0.7c0.5,1.2,3.9,9.7,5.3,12.9
			c0.8,1.9,1.4,2.2,1.9,2.3c0.3,0.1,0.6,0.1,0.9,0.1c0.2,0,0.3,0,0.3,0.2s-0.2,0.2-1,0.2s-2.3,0-4,0c-0.4,0-0.6,0-0.6-0.2
			s0.1-0.2,0.3-0.2c0.2-0.1,0.3-0.3,0.2-0.5c0,0,0,0,0,0l-1.7-4.4c0-0.1-0.1-0.2-0.2-0.1L141.6,108.5z M146,107.4
			c0.1,0,0.1-0.1,0.1-0.1l-1.9-5.2c0-0.1,0-0.2-0.1-0.2c-0.1,0-0.1,0.1-0.1,0.2l-2,5.2c0,0.1,0,0.1,0.1,0.1L146,107.4z"/>
		<path d="M109.7,126.8c0,1.2,1,2.3,2.2,2.3c0,0,0.1,0,0.1,0c0.6,0,1.1-0.2,1.5-0.5c0,0,0.1-0.1,0.1-0.1c0-0.1,0-0.1-0.1-0.1
			c0,0,0,0,0,0c0,0-0.1,0.1-0.2,0.1c-0.3,0.1-0.5,0.2-0.8,0.1c-0.4,0-1.5-0.4-1.5-2.2c0-1,0.6-1.7,1.4-1.7c0.8,0,1.8,0.9,1.8,3
			c0,2.2-1.2,4.2-3,5.4c-0.1,0-0.1,0.1-0.1,0.2c0,0.1,0,0.1,0.1,0.1c0.1,0,0.1,0,0.2,0c1.4-0.7,4.3-2.7,4.3-6c0-1.8-1-3.2-2.9-3.2
			c-1.5-0.1-2.8,1-3,2.5C109.7,126.6,109.7,126.7,109.7,126.8"/>
		<path d="M103.5,126.2c0,0.1,0,0.1,0.1,0.1c0.1,0,0.1,0,0.2,0c0.4-0.2,0.9-0.4,1.3-0.6c0.2,0,0.2,0.1,0.2,0.4v1.5v1.9
			c0,1.1,0,2.1-0.1,2.6c0,0.4-0.1,0.5-0.5,0.6c-0.3,0-0.6,0.1-0.9,0.1c0,0-0.1,0-0.1,0.1c0,0.1,0.1,0.1,0.2,0.1c0.7,0,1.7,0,2,0
			c0.3,0,1.1,0,1.9,0c0.1,0,0.2,0,0.2-0.1c0-0.1,0-0.1-0.1-0.1c0,0,0,0,0,0c-0.3,0-0.5,0-0.8-0.1c-0.4-0.1-0.4-0.3-0.5-0.6
			c0-0.5,0-1.5,0-2.6v-2.2c0-1.8,0.1-2.9,0.1-3c0-0.1,0-0.2-0.1-0.2c-0.1,0-0.2,0.1-0.3,0.1c-0.4,0.3-2.6,1.8-2.7,1.8
			C103.5,126.1,103.5,126.2,103.5,126.2"/>
		<path d="M116.6,132.9c0,0.1,0.1,0.2,0.2,0.2h4.5c0.7,0,0.9,0,1-0.4c0.1-0.5,0.3-1.1,0.3-1.6c0-0.1,0-0.2-0.1-0.2
			c-0.1,0-0.1,0-0.1,0.2c-0.1,0.6-0.7,1-1.3,1c-0.4,0.1-1.8,0.1-2,0.1h-0.8c-0.1,0-0.1,0,0-0.1c1.5-1.2,4-3.2,4-5.5
			c0-1.4-0.8-2.5-2.9-2.5c-0.7,0-1.4,0.1-2.1,0.4c-0.1,0.1-0.1,0.1-0.1,0.2c0,0.3,0.1,1.3,0.1,1.4c0,0.1,0,0.2,0.1,0.2
			c0.1,0,0.1-0.1,0.1-0.2c0-0.4,0.2-0.8,0.5-1.1c0.3-0.3,0.8-0.5,1.2-0.4c0.6,0,1.6,0.4,1.6,2.2c0,2.5-2.3,4.3-3.9,5.8
			C116.7,132.8,116.6,132.9,116.6,132.9"/>
		<path d="M124,126.2c0,0.1,0,0.2,0.1,0.2c0.1,0,0.1-0.1,0.1-0.2c0-0.3,0.2-0.5,0.4-0.7c0.3-0.2,0.7-0.2,1.1-0.2h3
			c-1.4,2.3-2.5,4.7-3.4,7.3c0,0.2-0.1,0.3-0.1,0.5c0,0.1,0,0.1,0.2,0.1c0.5,0,1.5-0.5,1.5-0.7c0-0.1,0-0.3,0-0.4
			c0.6-2.6,1.6-5.2,2.9-7.5c0-0.1,0.1-0.1,0.1-0.2c0-0.1-0.1-0.1-0.3-0.1h-3.7c-0.5,0-1,0-1.6-0.1c-0.1,0-0.1,0-0.1,0.2
			C124.2,124.5,124,125.8,124,126.2"/>
		<path class="st3" d="M110.1,126.5c0,1.2,1,2.2,2.2,2.3c0.1,0,0.1,0,0.2,0c0.6,0,1.1-0.2,1.5-0.5c0,0,0.1-0.1,0.1-0.1
			c0-0.1,0-0.1-0.1-0.1c0,0,0,0,0,0c0,0-0.1,0.1-0.2,0.1c-0.3,0.1-0.5,0.2-0.8,0.1c-0.4,0-1.5-0.4-1.5-2.2c0-1,0.6-1.7,1.4-1.7
			c0.8,0,1.8,0.9,1.8,3c0,2.2-1.2,4.2-3,5.4c-0.1,0-0.1,0.1-0.1,0.2c0,0.1,0,0.1,0.1,0.1c0.1,0,0.1,0,0.2,0c1.4-0.7,4.3-2.7,4.3-6
			c0-1.8-1-3.2-2.9-3.2c-1.5-0.1-2.8,1-3,2.5C110.1,126.3,110.1,126.4,110.1,126.5"/>
		<path class="st3" d="M103.8,125.8c0,0.1,0,0.1,0.1,0.1c0.1,0,0.1,0,0.2,0c0.4-0.2,0.9-0.4,1.3-0.6c0.2,0,0.2,0.1,0.2,0.4v1.5v1.9
			c0,1.1,0,2.1-0.1,2.6c0,0.4-0.1,0.5-0.5,0.6c-0.3,0-0.6,0.1-0.9,0.1c0,0-0.1,0-0.1,0.1s0.1,0.1,0.2,0.1c0.7,0,1.7,0,2,0
			c0.3,0,1.1,0,1.9,0c0.1,0,0.2,0,0.2-0.1c0-0.1,0-0.1-0.1-0.1c0,0,0,0,0,0c-0.3,0-0.5,0-0.8-0.1c-0.4-0.1-0.4-0.3-0.5-0.6
			c0-0.5,0-1.5,0-2.6v-2.2c0-1.8,0.1-2.9,0.1-3s0-0.2-0.1-0.2c-0.1,0-0.2,0.1-0.3,0.2c-0.4,0.3-2.6,1.8-2.7,1.8
			C103.9,125.8,103.8,125.8,103.8,125.8"/>
		<path class="st3" d="M117,132.5c0,0.1,0.1,0.2,0.2,0.2h4.5c0.7,0,0.9,0,1-0.4c0.1-0.5,0.3-1.1,0.3-1.6c0-0.1,0-0.2-0.1-0.2
			c-0.1,0-0.1,0-0.1,0.2c-0.1,0.6-0.7,1-1.3,1c-0.4,0.1-1.8,0.1-2,0.1h-0.8c-0.1,0-0.1,0,0-0.1c1.5-1.2,4-3.2,4-5.5
			c0-1.4-0.9-2.5-2.9-2.5c-0.7,0-1.4,0.1-2.1,0.4c-0.1,0.1-0.1,0.1-0.1,0.2c0,0.3,0.1,1.3,0.1,1.4c0,0.1,0,0.2,0.1,0.2
			s0.1-0.1,0.1-0.2c0-0.4,0.2-0.8,0.5-1.1c0.3-0.3,0.8-0.5,1.2-0.4c0.6,0,1.6,0.4,1.6,2.2c0,2.5-2.3,4.3-3.9,5.8
			C117.1,132.4,117,132.5,117,132.5"/>
		<path class="st3" d="M124.3,125.9c0,0.1,0,0.2,0.1,0.2c0.1,0,0.1-0.1,0.1-0.2c0-0.3,0.2-0.5,0.4-0.7c0.3-0.2,0.7-0.2,1.1-0.2h3
			c-1.4,2.3-2.5,4.8-3.4,7.3c0,0.2-0.1,0.3-0.1,0.5c0,0.1,0,0.1,0.2,0.1c0.5,0,1.5-0.5,1.5-0.7c0-0.1,0-0.3,0-0.4
			c0.6-2.6,1.6-5.2,2.9-7.5c0-0.1,0.1-0.1,0.1-0.2c0-0.1-0.1-0.1-0.3-0.1h-3.7c-0.5,0-1.1,0-1.6-0.1c-0.1,0-0.1,0-0.1,0.2
			C124.5,124.1,124.3,125.5,124.3,125.9"/>
		<path d="M156.5,78.1l-0.9-1.1c-1.4-1.6-4.4-5.8-4.4-5.8c0-13.3-2.4-15.8-4.8-17.9c-2.2-1.8-5.6-2.8-9.3-3.4
			c-1.1-0.2-2.3-0.2-3.4-0.2c-1.2,0-2.5,0.1-3.7,0.1c-1,0.1-18.4,0.8-23.9-0.2c-2.4-0.4-5.8,0.1-7.8,0.3c-0.9,0.1-5.9,0.9-6.5,0
			c-0.1-0.3-0.1-0.7-0.1-1c0.1-0.7,0.4-1.6-0.2-2.3c-0.7-1-1.6-2.2-2-2.2c-0.6,0.4-1.2,0.8-1.7,1.3c-0.5,0.7-0.7,1.5-0.6,2.3
			c0,0.6,0,0.5-0.1,0.5c-0.1,0-3.3,0.1-4.1,0.1c0-0.6-0.2-1.3-0.6-1.8c-0.3-0.7-0.5-1.4-0.6-2.2c0,0-1.2,2-1.5,2.5
			c-0.5,0.6-0.9,1.2-1.1,1.9c-0.1,0.3-0.1,0.6-0.1,0.9c0,0.3,0,0.5-0.1,0.8c-0.6,0.4-1,1.1-1,1.8c0,0.3,0,0.6,0.1,0.9
			c0.1,0.2,0.1,0.5,0.1,0.7l-0.2,0.1c-0.5,0.4-1.3,0.8-1.2,1.7c0,0.9,0.3,1.8,0.8,2.5c0.1,0.2,0.2,0.4,0.4,0.6
			c0.2,0.4,0.3,0.9,0.3,1.3c0.1,0.7-0.5,1.4-0.1,1.8c0.6,0.6,2,0.6,2.7,0.6h1c0.2,0,0.4,0,0.6,0c1.2,0.2,2.4,0.4,3.6,0.4
			c1.6,0.1,3.2,0.3,4.7,0.7c3,0.9,5.9,2.1,8.6,3.6l0.5,0.2c1.1,0.6,1.3,0.5,1.8,2c0.5,1.5-0.4,13.2-0.6,14.4c-0.3,1.9-0.9,3.1-2,3.5
			c-1.1,0.5-2,1.4-2.5,2.6c-0.2,0.3-0.1,0.7-0.4,1.1c0,0-0.4,0.5-0.3,0.6c0.1,0.1,1.5-0.2,1.5-0.2c0.5,0,0,0.3,0.4,0.3
			c1.4,0.1,2.8-0.2,4-0.8c0.6,0,0.2,0.8,0.8,0.7c1.7-0.3,1.9-1.6,2.1-2.9c0.4-2.1,0.3-2.5,0.5-2.7s1,0.1,1.2-0.1
			c0.1-1,0.1-2.1,0.1-3.1c0.2-2.1,0.6-4.2,1.3-6.2v-0.1c0.1-0.4,0.3-0.9,0.5-1.5c0.6-1.5,1.2-3.2,1.1-4.7c0.4,0,0.8,0.2,1.1,0.6
			c0.1,0.1,0.1,0.2,0.2,0.4c0.7,1.1,1,1.4,1.5,1.4h0.1c0.7-0.2,1.1-0.8,1.5-1.6c0.4-0.8,0.8-1.6,1.5-1.8h0.1
			c0.9,0.1,1.7,0.6,2.2,1.3c1.2,1.9,2.3,0.6,2.4,0.4c0.1-0.2,1.1-1.8,1.4-2.2s0.5-0.5,0.5-0.5l0,0c0.6,0.1,3.2,3.2,4.1,3
			c0.9-0.2,1.9-3.5,2.5-3.5h0.1c0.2,0.3,0.5,0.6,0.6,0.9c0.7,1,0.8,1.7,1.4,1.7c0.2,0,0.5-0.1,0.7-0.6c0-0.1,0.3-0.6,0.3-0.7
			c0,0,0.5,1.6,1.6,0.2c0,0,0,0,0-0.1l0,0l0,0l0,0l0,0c0.1-0.4,2.2,1.7,3.2,2.5c1,0.8,1.6,1.6,1.7,1.6c2.1,1.9,4.8,4.3,5.3,6.9
			c0.3,1.6,0.2,3.2-0.2,4.8c0,0.2-0.1,0.4-0.2,0.6c-0.2,0.1-0.4,0.1-0.6,0.1h-0.4c-0.7,0-1.2,0.8-1.6,1.5c-0.2,0.3-0.5,0.6-0.6,0.8
			s0.1,0.6,0.2,0.7c0.6,0.2,1.2,0.3,1.8,0.4c0.1,0,0.2,0,0.3,0c0.3,0.1,0.7,0.2,1,0.2c1.2,0,2.6-0.5,3-1.3c0.7-1.4,1.2-2.8,1.6-4.3
			l0.1-0.5c0.1-0.3,0.2-0.7,0.4-1c0.5-1.3,1.4-2.7,1-4c-0.3-0.7-0.8-1.4-1.3-1.9c-0.4-0.5-1.8-2.4-2.3-3.1c1.4,1.3,5.1,3.3,6.1,5.6
			c0.3,0.8,0,4.1-0.1,5.1c0,0.4,0,0.8-0.1,1.3c0,1.4-0.4,1.6-1.8,1.8c-1.2,0.1-1.7,1.9-2,2.8c0,0,0,0.1,0,0.1l-0.1,0.4l0.5,0.1
			l0.6,0.1c1.1,0.3,2.2,0.6,3.3,0.7c1,0.1,1.9-0.2,2.6-0.9c0.7-0.7,1-2.1,1.2-3.3c0.1-0.5,0.6-2.1,0.8-2.6
			C157.4,81.6,158.5,80.2,156.5,78.1 M79.4,60.5C79,60.8,78.9,60,78.9,60c-0.1-0.3-0.1-0.6,0-0.7c0.3,0.2,0.7,0.2,0.8,0.4
			C79.8,60,79.7,60.3,79.4,60.5"/>
		<path class="st3" d="M102.4,90.5C102.4,90.5,102.3,90.5,102.4,90.5l-0.2-0.2c0,0,0-0.1,0-0.1l0.1-0.1c0,0,0.1,0,0.1,0l0.1,0.2
			C102.5,90.3,102.5,90.4,102.4,90.5L102.4,90.5z"/>
		<path class="st3" d="M79.6,56.3L79.6,56.3z"/>
		<path class="st3" d="M134.6,70.3c-0.1,0-0.2,0.1-0.3,0.1c0.1,0,0.2,0.1,0.2,0.1C134.5,70.4,134.5,70.4,134.6,70.3"/>
		<path d="M133.9,70.4c-0.1-0.1-0.2-0.1-0.3-0.2c0,0-0.1,0-0.1,0c0,0-0.1,0-0.1,0h-0.1v0c0-0.1,0.1-0.1,0.2-0.1c0,0,0.1,0,0.1,0
			C133.8,70.1,133.9,70.2,133.9,70.4L133.9,70.4L133.9,70.4z"/>
		<path d="M132.4,70.1c0-0.1,0.1-0.1,0.2-0.1h0.2h0.1h0l-0.1,0.1l0,0h-0.1L132.4,70.1L132.4,70.1L132.4,70.1z"/>
		<path d="M132.8,70C132.8,70,132.8,70,132.8,70L132.8,70C132.7,70.1,132.7,70.1,132.8,70c-0.2,0-0.2,0-0.3,0.1
			C132.5,70.1,132.5,69.9,132.8,70"/>
		<path d="M135.5,89.4c-1.8,0-2-2.9-2.1-3.4c-0.4-0.1-0.9-0.3-1.2-0.6l-0.1,0c0,0.2,0,0.4,0,0.6c0,0.2,0.1,1.2,0.1,1.4l0,0
			c0.1,0.6-0.1,1.2-0.6,1.5c-0.2,0.1-0.5,0.2-0.7,0.2c-0.2,0-0.4,0-0.6-0.1h-0.1h-0.1l-0.7-0.1h0c-0.4,0-1.4,0.1-1.6,0.1h-0.1
			c-0.4,0-0.8-0.2-1.1-0.5c-0.3-0.3-0.3-0.8-0.1-1.1l0.1-0.1l0.1-0.1c0.1-0.1,0.3-0.2,0.5-0.2c0.2-0.1,0.6-0.3,1.1-0.6
			c-0.5-0.9-2.5-4-0.7-4.9c0.8-0.4,1.7-0.7,2.6-0.9c0-0.1,0-0.1,0-0.2c0-0.2,0-0.3,0-0.5c-0.2,0.1-0.5,0.2-0.8,0.2
			c-0.1,0-0.1,0-0.2,0c-0.6-0.2-1.1-0.6-1.5-1.1c-0.1-0.2-0.6-1.1-1.1-2c-0.5,0-1,0-1.5-0.1c-0.1,0-0.3-0.1-1.1-0.8
			c-0.3-0.2-0.4-0.5-0.4-0.8c0-0.3,0.2-0.5,0.4-0.6h0c0.1-0.2,0.4-0.3,0.6-0.4h0.1h0.1c0.2,0,0.4,0.1,0.5,0.2c0-0.1,0-0.2,0.1-0.3
			c0.2-0.3,0.5-0.5,0.8-0.5c0.2,0,0.5,0.1,0.7,0.2h0l0,0c0.1,0,0.1,0,0.1,0c0.2,0.1,0.4,0.1,0.6,0.2c0.2,0.1,0.4,0.2,0.8,0.9
			l0.7,0.6c0.2-0.4,0.4-0.8,0.8-1.1c0.2-0.1,0.4-0.2,0.6-0.3l0.2,0c0.1-0.1,0.2-0.2,0.3-0.2l0-0.1c-0.1-0.1-0.2-0.3-0.3-0.5
			c-0.2-0.3-0.3-0.7-0.2-1.1v-0.1c0-0.7,0.9-1.3,0.9-1.3c0.1-0.1,0.2-0.1,0.3-0.2c0.2-0.3,0.4-0.5,0.7-0.7c0.2-0.2,0.4-0.3,0.6-0.4
			c0.2-0.4,0.7-0.6,1.2-0.6c0.2,0,0.8,0,1,0.1c0.4,0.1,0.7,0.3,0.9,0.7c0.4,0.1,0.7,0.5,0.7,0.9L137,71c0.2,0.2,0.3,0.5,0.4,0.7
			c0.2,0.4,0.2,0.8,0.2,1.2c0,0.5-0.1,1-0.4,1.4c0,0.1,0,0.1-0.1,0.2c0.5,0.4,0.9,1.1,1,1.8c0.1,0.2,0.3,1.2,0.5,1.8
			c0.1,0.6,0.1,1.2-0.1,1.8V80l-0.1,0.1c-0.1,0.1-0.4,0.5-0.5,0.6c-0.2,0.2-0.4,0.4-0.7,0.4c0.1,0.3,0.1,0.6,0.2,0.9
			c0.4,0.6,0.7,1.3,0.8,2c0,0.2-0.1,0.4-0.1,0.6c0.1,0.3,0.1,0.5,0.1,0.8c0.3,0.3,0.5,0.7,0.7,1c0,0,0,0.1,0,0.1
			c1.1,2.3-1.6,2.5-1.8,2.5c-0.5,0.3-1.1,0.4-1.6,0.4"/>
		<path class="st3" d="M135.3,69.9c-0.2,0-0.7-0.1-0.9-0.1c-0.8,0-0.4,0.4-0.4,0.4c-0.3,0-0.6,0.1-0.9,0.3c-0.3,0.2-0.7,0.8-0.7,0.8
			c-0.1,0-0.2,0.1-0.3,0.2c-0.3,0.1-0.5,0.4-0.5,0.7c-0.1,0.2,0,0.5,0.1,0.7c0.2,0.3,0.4,0.6,0.4,0.6c0,0.1,0,0.2,0,0.3
			c-0.1,0.2-0.2,0.5-0.2,0.5c-0.2,0.1-0.3,0.2-0.5,0.3c-0.1,0.1-0.7,0.2-0.8,0.3c-0.4,0.3-0.6,0.7-0.7,1.2c-0.2,0.2-0.3,0.3-0.4,0.6
			l-1.4-1.5c0,0-0.2-0.6-0.4-0.7c-0.1,0-0.7-0.2-0.8-0.3c-0.5-0.2-0.6,0-0.5,0.1c0.1,0.1,0.3,0.3,0.5,0.3c0.1,0,0.1,0.6-1.2,0.4
			c0,0-0.4-0.2-0.6-0.3c-0.6-0.2-0.5,0.4-0.4,0.5c0.3,0.3,0.5,0.5,0.8,0.7c0.1,0,1.7,0.1,1.7,0.1s1.1,2.1,1.3,2.3
			c0.3,0.3,0.6,0.6,1,0.8c0.6,0,1.1-0.4,1.4-0.9l0.1,2.7c-1,0.2-2,0.5-3,0.9c-1,0.7,0.7,3.6,1.3,4.4c0.2,0.3,0,0.3,0,0.3
			s-1.8,1-1.8,1.1c-0.1,0-0.2,0-0.3,0.1c0,0-0.1,0.1,0,0.2c0.2,0.1,0.4,0.2,0.6,0.3c0.2,0,1.5-0.1,1.8-0.1c0.3,0,0.7,0.1,0.8,0.1
			c0.2,0,0.6,0.2,0.9,0c0.3-0.2,0.3-0.5,0.2-0.8c0-0.3-0.1-1.5-0.1-1.5s0-1.4-0.1-1.5c0.3,0.1,0.7,0.1,1,0.1
			c0.2-0.1,0.4,0.2,0.4,0.2s0.6,0.5,0.8,0.4s0.3-0.1,0.4-0.5c0.1-0.1,0.2-0.1,0.2,0.2s-0.2,3.7,1.4,3.6c0.6,0,1.1-0.2,1.6-0.5
			c0.1,0.2,0.4,0.3,0.7,0.2c1-0.4,0.5-1.3,0.4-1.4c-0.1-0.1-0.5-1.1-0.8-1.2c0-0.4,0-0.8-0.1-1.2c0.1-0.2,0.2-0.4,0.2-0.6
			c-0.1-0.6-0.4-1.2-0.8-1.6c-0.1-0.7-0.3-1.5-0.6-2.2c0.2,0.1,0.5,0.2,0.8,0.2c0.2,0,0.3-0.1,0.4-0.2c0.1-0.1,0.5-0.6,0.5-0.6
			c0.2-0.4,0.2-0.9,0.1-1.4c-0.2-0.7-0.5-1.8-0.5-1.8s-0.2-1.1-0.7-1.3c-0.2-0.1-0.4-0.2-0.6-0.2c0,0-0.2-0.2,0-0.3
			c0.1-0.1,0.3-0.2,0.4-0.3c0.1-0.1,0.1-0.3,0.2-0.4c0,0,0.3-0.2,0.3-1.1c0.1-0.3,0-0.6-0.1-0.9c0-0.2-0.1-0.3-0.2-0.4l-0.3-0.4
			c0,0,0-0.5-0.2-0.5c-0.1,0-0.2-0.1-0.4-0.1C135.8,70.3,135.8,69.9,135.3,69.9"/>
		<path d="M135.6,72.5C135.6,72.4,135.6,72.4,135.6,72.5L135.6,72.5L135.6,72.5c-0.1,0-0.2,0-0.3,0c-0.1,0-0.2,0-0.2-0.1
			c0,0.1,0.1,0.2,0.2,0.3c0,0,0,0,0,0C135.5,72.7,135.6,72.6,135.6,72.5L135.6,72.5L135.6,72.5z"/>
		<path d="M128.7,87c-0.6-0.8-1.8-1.1-2.7-0.5l-0.1-0.1c-0.2-0.2-0.8-0.5-1.1-0.7c-0.2-0.3-0.5-0.5-0.8-0.7
			c-0.5-0.3-1.1-0.5-1.7-0.6c0-0.6-0.1-1.2-0.3-1.8c0.1-0.6,0.1-1.3,0.1-2c0.4,0.1,0.9,0.1,1.3,0.2c0.2,0,0.4,0,0.6-0.1
			c0.5-0.1,1-0.4,1.4-0.8l0.1-0.1v-0.1c0.1-0.6,0-1.2-0.3-1.8c-0.6-0.8-1.2-1.5-1.9-2.1c0-0.3,0-0.6,0-0.6c0-0.3-0.1-0.6-0.3-0.8
			c-0.3-0.3-0.6-0.7-0.9-1c-0.2-0.1-0.5-0.2-0.7-0.2c-0.1,0-0.2,0-0.2,0c-0.7,0.1-0.6,1.1-0.6,1.2c-0.1,0-0.2-0.1-0.3-0.1
			c-0.2-0.2-0.5-0.4-0.9-0.5c-0.2-0.2-0.5-0.2-0.7-0.2h-0.1c-0.4,0-0.4,0.1-0.6,0.2c-0.3,0.1-0.6,0.3-0.8,0.5
			c-0.2,0.1-0.4,0.3-0.6,0.6c-0.3,0.2-0.4,0.5-0.6,0.8l-0.1,0.2c-0.2,0.4-0.3,0.8-0.2,1.3c0,0,0,0,0,0c-0.5,0.1-0.9,0.4-1.2,0.8
			c-0.1,0.3-0.3,0.6-0.4,0.9c-0.2,0-2,0.2-1.9,1.1c0,0.3,0.2,0.5,0.4,0.7c-0.1,0.3-0.1,0.6,0,0.8c0.1,0.2,0.3,0.4,0.5,0.5
			c0.1,0.2,0.2,0.5,0.3,0.6c0.2,0.2,0.3,0.4,0.5,0.5c-0.4,0.1-0.7,0.3-1.1,0.5c-0.8,0.4-1.1,1.4-0.7,2.1c0,0,0,0.1,0.1,0.1
			c0.6,0.8,1.3,1.5,2,2.1c-0.1,0.1-1.3,2.4,0.7,2.5c0.5,0.8,2.1-0.3,2.1-0.4c0.1,0,2.3,0,1.7-1.6c0.1,0,0.9-0.2,0.9-0.2
			c0.3,0.2,0.7,0.3,1.1,0.4c0.1,0,0.4,0,0.5,0c0.3,0,0.7,0,1,0l0.2,0c0.3,0.4,0.6,0.8,1,1.1c0.5,0.3,1.8,0.8,2.2,1
			c0.4,0.4,1,0.7,1.5,0.8c1.8,0,1.3-1.6,1.3-1.8c0.1-0.4,0.4-2.3-0.1-3"/>
		<path class="st3" d="M122.3,78.2c-0.3-0.2-0.7-0.3-1.1-0.3c-0.1-0.1-0.3-0.2-0.4-0.2c0,0,0.4-0.3,0.4-0.6
			c-0.3-1.6-0.8-1.7-0.8-1.7c-0.1-0.2-0.4-0.4-0.6-0.4c-0.1-0.3-0.7-0.4-0.7-0.4c-0.1-0.1-0.3-0.2-0.4-0.2c-0.1,0-0.3,0.1-0.4,0.2
			c-0.3,0-0.5,0.1-0.7,0.4c-0.2,0.1-0.4,0.3-0.5,0.5c0,0-0.2,0.1-0.4,0.6c-0.2,0.3-0.3,0.7-0.2,1c0.1,0.2,0.2,0.4,0.3,0.6
			c-0.1,0.1-0.3,0.2-0.4,0.2c-0.2,0.1-0.8,0.1-1,0.6c-0.2,0.4-0.4,0.9-0.5,1.4c-0.1-0.1-0.2-0.1-0.3-0.1c-0.3,0-0.7,0-1,0.1
			c-0.1,0.1-0.4,0.1-0.4,0.2c0,0.3,0.6,0.2,0.6,0.2l-0.1,0.7c0,0-0.2,0.2-0.2,0.3c0,0.1,0.1,0.1,0.2,0.1c0.1,0,0.2-0.2,0.2-0.2
			c0,0.4,0.1,0.8,0.3,1.1c0.2,0.2,0.4,0.4,0.7,0.5c0.1,0,0.3,0,0.4,0c0.3-0.1,0.5-0.3,0.6-0.5c0-0.1,0.1-0.5,0.1-0.5
			s0.2-0.6,0.2-0.6s0.1,0.1,0.1,0.1v1.3c-0.2,0.4-0.4,0.8-0.5,1.2c-0.9,0-1.7,0.2-2.4,0.6c-0.8,0.6-0.5,1.1-0.4,1.3
			c0.2,0.3,2.6,2.7,2.7,2.7s0,0.2-0.1,0.2h-0.3c0,0-0.4-0.1-0.5,0c-0.2,0.4,0.2,0.3,0.3,0.4s-0.3-0.1-0.4,0.1
			c-0.1,0.2,0,0.5,0.2,0.7c0.1,0.1,0.4,0.1,0.4,0.1c0.1,0,0.1,0.2,0.3,0.2c0.4,0.2,1.4-0.6,1.5-0.6c0.4,0.2,0.9,0,1-0.5
			c0-0.2,0-0.4-0.1-0.6c-0.1-0.2-0.2-0.4-0.4-0.5l0.5-0.1c0,0,0,0,0.2,0c0.3,0.1,0.5,0.1,0.8,0.2c0.2,0,0.8-0.3,0.9-0.2
			c0.3,0.1,0.6,0.3,0.9,0.3c0.4,0,0.9,0,1.3,0c0.2,0,0.7-0.2,0.7-0.2c0.2,0.5,0.6,1,1,1.3c0.6,0.3,2.3,1.1,2.3,1.1s0.7,0.7,1.1,0.7
			c0.3,0,0.5-0.2,0.5-0.5c0-0.3,0-0.6,0.1-0.8c0.1-0.4,0.2-0.9,0.2-1.4c0-0.3,0.1-1.3-0.8-1.5c-0.2,0-0.5-0.1-0.5-0.1
			s-0.1,0.3-0.1,0.2c0-0.1-0.2-0.2-0.3-0.2c-0.1,0-0.2,0.2-0.2,0.3c0,0.1,0.1,0.5,0.1,0.5s-0.8-0.6-1-0.8c-0.2-0.2-1.1-0.7-1.1-0.7
			c-0.2-0.2-0.4-0.4-0.6-0.6c-0.6-0.4-1.3-0.6-2.1-0.7c0-0.8-0.1-1.6-0.3-2.4c0.1-0.8,0.1-1.6,0.1-2.4c-0.1-0.2,0.3-0.4,0.4-0.4
			c0.7,0.2,1.4,0.2,2,0.2c0,0,0.8-0.2,1-0.5c0.1-0.4,0-0.9-0.2-1.2c-0.6-0.8-1.3-1.5-2.1-2.2c0-0.3,0.1-1,0.1-1c0-0.1,0-0.2-0.1-0.2
			c-0.1-0.1-0.7-0.8-0.8-0.8c-0.1-0.1-0.3-0.1-0.5-0.1c-0.1,0-0.1,0.3,0,0.3c0.1,0.1,0.3,0.2,0.3,0.2l0.1,0.3c0,0-0.1,0.1-0.1,0.1
			c0,0.1,0,0.3,0,0.4c0.1,0,0.1,0.1,0.2,0.1c0,0-0.1,0.3-0.3,0.3c-0.1-0.2-0.3-0.7-0.5-0.5c-0.1,0.1-0.1,0.2-0.1,0.4
			c0.1,0.3,0.2,0.6,0.4,0.9c0.1,0.1,0.1,0.1,0.2,0.2C121.7,77.2,122.1,77.7,122.3,78.2"/>
		<path d="M132.3,70.3c-0.4,0-0.7-0.3-0.7-0.6c0-0.1-0.3-0.6-0.5-1.1c-1.1-2.7-1-1.7-0.9-2.1c0.2-0.8,1.2-0.8,2-0.8h0.4
			c0.4,0,0.7,0.1,1,0.4c0.3,0.4,0.5,0.8,0.5,1.3c-0.2,0.8-0.5,1.5-0.9,2.3l0,0C132.8,70.3,132.4,70.3,132.3,70.3"/>
		<path class="st3" d="M87.2,57.1c-0.6-0.7-1-1.8-0.6-2c0.4-0.2,0.7,0.1,1,0.2c0.2,0.1,0.5,0.1,0.5-0.4s0-0.7-0.1-1
			c-0.1-0.9-0.5-1.8-1-2.5c-0.7-0.7-2.5-1.5-3.7-0.7c-0.4,0.3-0.7,0.6-0.8,1.1c-0.1,0.2,0.1,0.4,0.1,0.6c-0.4,1.1-1.1,2.1-1.9,3
			c0,0,2.6,0.3,6.3,3c0.3,0.2-0.3,1.6-0.5,1.5s0.4-1.1,0-1.3c-1.3-0.7-2.6-1.2-4-1.5c-0.3-0.1-1.2,0.5-1.4,0.2
			c-0.4-0.4-0.9-0.7-1.4-0.9c0,0,0.2,0.1,0.2,0.5c0.1,1.1-1.8,0-0.2,1.6c0.5,0.5,0.9,0.8,1.3,0.7c0.5,0,0.3,0.1,0.3,0.2l0.3,0.7
			c0.1,0.1,0.1,0.1,0.1,0l0.1-0.7c0-0.1,0.2-0.2,0.3-0.2c0,0,2.5,0.1,3,0.1s0.5,0.2,0.5,0.2c0.1,0.3,0.1,0.6-0.2,0.8
			c-0.3,0.2-1.1-0.3-1.6,0.2c-0.5,0.4-1.2,0.6-1.8,0.7c-0.1,0-0.3-0.1-0.3-0.2l-0.3-0.7c0-0.1-0.1-0.1-0.1,0l-0.1,0.9
			c0,0.1,0,0.3-0.1,0.3s-0.1-0.1-0.2-0.2l0,0c0-0.1-0.1-0.1-0.2-0.1c0,0-0.1,0-0.1,0.1l-0.2,0.2c0,0.1-0.1,0.1-0.2,0.1
			c0,0,0,0-0.1-0.1l-0.1-0.1c0-0.1-0.1-0.1-0.2-0.1c0,0,0,0-0.1,0.1l-0.1,0.2c-0.1,0.1-0.2,0.1-0.2,0v-0.1c0-0.1-0.1-0.1-0.2,0
			c-0.1,0.1-0.1,0.1-0.1,0l-0.2,0.2c-0.1,0.1-0.3,0.2-0.3,0.4s0.2,0.2,1,0.4c0.9,0.2,4.9-1.5,6.2-1.2c1.5,0.3,2-0.9,2.1-2.5
			c0-0.1,0-0.2,0-0.3c-0.3-0.4-0.6-0.8-0.9-1.2"/>
		<path class="st3" d="M150.9,88.7c-0.1,0.2-0.6,0.3-0.8,0.4c-0.3,0.1-0.7,0.3-0.6,0.6c0,0.4,0,0.9,0,1.3c0.1,0.1,0.5,0.3,0.6,0.1
			s0-0.9,0.1-1.4c0-0.1,0.1-0.4,0.2-0.5C150.6,89.1,151,88.9,150.9,88.7"/>
		<path class="st3" d="M112.1,69.2c0.4,0,1-0.1,1.2,0c0.3,0.3,0.4,0.6,0.5,1c-0.3,0.7-0.7,1.4-1.1,2c-0.1,0.1-0.2,0.3-0.4,0.1
			c-0.2-0.9-0.4-1.8-0.5-2.8C111.7,69.5,111.7,69.3,112.1,69.2"/>
		<path class="st3" d="M156.1,78.9c-0.6-0.8-2-2.2-2.5-2.9c-0.7-0.9-4.1-4.9-4.1-4.9s-1-6-1.4-7.4c-0.3-0.9-1-7.2-5.9-10.7
			c0.3-0.4,3.5,2.1,4.6,4c2.1,3.5,3,12.7,3,12.7s1.3-14.1-6.1-17c-5.3-2.2-8-1.9-8-1.9c-2.2,1.4-2.8,4.3-1.5,6.4
			c0.4,0.8,5.3,8.2,5.6,8.9c2.8,5.2,11.5,11.2,13.2,12.9c0.1,0.1,1.6,1.1,1.7,2.2c0,0.2-2.1-1.2-2-0.9c0.2,2.7,0.1,5.5-0.1,8.2
			c0,0.7-0.1,0.7-0.5,0.9s-0.8-0.2-1.1,0.4s-0.2,1.3,0.5,1.3c0.7,0,1.8,0.4,2.4-2.2s2.1-7.2,2.6-8.9
			C156.7,79.6,156.4,79.1,156.1,78.9"/>
		<path class="st3" d="M81.7,47.1c0.3,0.7,0.4,1.5,0.6,2.2c0,0.5-0.2,0.5-0.2,0.5l-1.7,0.8c0.2-0.3,0.4-0.6,0.6-1
			C81.3,48.8,81.5,48,81.7,47.1"/>
		<path class="st3" d="M142.5,87.7c-0.1,0-0.3,0-0.3,0.1c-0.1,0.3-0.2,0.7-0.2,1.1c0.1,0.2,0.4,0.2,0.6,0.1c0.4-0.1,1.1-0.7,0.9-0.9
			C143.1,87.9,142.8,87.8,142.5,87.7"/>
		<path class="st3" d="M141.8,87.3c-0.2,0-0.3,0.1-0.5,0.2c-0.2,0.2-0.4,0.5-0.4,0.9c0,0.2,0.3,0.5,0.5,0.3
			C141.5,88.5,142.2,87.3,141.8,87.3"/>
		<path class="st3" d="M78.1,56c-0.4,0.6,0.7,1.2,1,0.8c0.1-0.3,0-0.7-0.4-0.9C78.6,55.8,78.3,55.9,78.1,56"/>
		<path class="st3" d="M98.1,89.7c0,0-0.6,1.3-0.7,1.4c0,0.1,0,0.2,0.1,0.2c0.2,0,0.3,0,0.5-0.1c0.3-0.5,0.6-1,0.8-1.6
			C98.6,89.5,98.3,89.5,98.1,89.7"/>
		<path class="st3" d="M148.3,80.1c0.3-1.2-0.7-1.3-1.1,0.2c-0.1,0.5-1.6,5.9-1.8,7.3c0,0.1,0,0.1,0.1,0
			C145.6,88.2,148.2,80.7,148.3,80.1"/>
		<path class="st3" d="M100.2,50.8c-2.7,0.5-5.5,0.7-8.2,0.4c-1.6-0.2-1.6-1.2-1.4-2c-1.5,1.4-2.2,0.9-2.3,0.7c0-0.2,0.5,0,0.9-0.4
			c0.5-0.7,0.6-1.6,0.3-2.4c-0.3-0.7,0-0.5,0-0.5c0.6,0.1,1,0.5,1.2,1.1c0.2-1-1.1-2.2-1.5-1.9c-0.7,0.4-1.2,1.2-1.2,2.1
			c0.1,1.3,0.1,2-0.4,1.9c-2.8-0.1-6-0.5-7.8,1.3c0,0,2.1-1.4,3.8-1.3c1.6,0.2,5,0.5,5.2,4.5c0,0.6,0,1.3,0,1.9
			c0,0.6-0.5,0.2-0.5,0.4c0,1.1,0.8,0.9,0.7,1.9c-0.3,3.9-2.1,3.8-2.1,3.8s2.2,0.3,3.3-3.3c0,2.1-0.2,2.6-1.1,3.4
			c1.2,0,2.4-0.7,3-1.7c0.4,1,1.1,1.7,2,2.2c-0.5-1-0.6-2.2-0.3-3.3c0.4,2.5,1,3.3,2.2,3.9c-1-0.9-1.5-2.3-1.2-3.6
			c0.2,1.7,2.2,3.2,2.2,3.2c-0.5-0.9-0.8-1.8-0.8-2.8c0.8,1.8,1.8,2,1.8,2c-0.9-1-1.4-2.1-1.6-3.4c0,0,1,1.3,1.8,1.3
			c-0.6-0.8-1.6-1.8-1.8-3.2c0.6,0.8,1.1,1.4,1.8,1.4c-0.7-0.9-1.2-2-1.3-3.2c0.7,0.9,0.6,1.2,1.9,1.5c-0.6-0.7-0.8-1.6-0.6-2.5
			c0.5,0.6,1.3,1,2.2,1.1c-0.5-0.6-0.8-1.3-0.8-2c0.7,0.4,1.5,0.5,2.3,0.5c-0.4-0.4-0.6-1-0.5-1.6c0.7,0.1,1.4,0.1,2.1,0
			c-0.5-0.3-0.9-0.8-0.8-0.7c0.4,0.1,1-0.2,1.8-0.3c0.5-0.1,1-0.2,1.5-0.1C104.1,50.4,102.1,50.4,100.2,50.8"/>
		<path class="st3" d="M126.5,67c0,0-1.6-0.1-1.8,0.4s0.8,3.2,0.9,3.6c0.2,0.5,0.8-0.7,0.8-0.7c0.3-0.7,0.6-1.4,0.8-2.1
			C127.2,67.9,127.2,67,126.5,67"/>
		<path class="st3" d="M120,67.3c0,0-1.6-0.1-1.8,0.4c0.1,1.1,0.3,2.2,0.7,3.2c0.2,0.5,0.5-0.2,0.5-0.2c0.2-0.3,1.5-2,1.5-2.2
			S120.7,67.3,120,67.3"/>
		<path class="st3" d="M131.7,50.8c-0.5,0-4.9,0.5-7.8,0.5c-2.3,0-4.8-0.1-6.1-0.1c-0.1,0-0.3,0-0.4,0l0,0c-1.9-0.1-8.2-0.2-8.2-0.2
			c-0.5-0.1-6.8,1.5-7.7,8.6c-0.6,4.3-0.3,5.7,0.7,7.8c0.6,1.2,1.8,3.5,1.7,5.2c0,0.7-1.3-3.1-1.3-2.7c0,5.5-0.3,11.1-1,16.6
			c-0.5,2.5-1,1.3-1.6,2.3c-0.1,0.2-1.4,2.5-1.4,2.5c0,0,0.7-0.1,1.3-0.1s1.4-2.1,1.9-2.1c0.1,0-0.6,1.6-0.5,1.6
			c0.5-0.1,1.4-0.4,1.4,0.1c0.2,0.1,0.4,0,0.5-0.2c0.2-0.2,0.9-3.4,1.3-5.1c0.1-0.3,0.8-0.1,1,0c0.4-0.8-0.2-3.4,0.9-7.1
			c1.1-3.7,2.3-6.8,1.8-7.7c-0.1-0.1-2,2.5-2,2.3c-0.1-0.3,6.2-11,5-16.5c0-0.2-0.1-0.4-0.1-0.6c0-0.2,0.7,0.3,1.6,0.5
			c1.2,0.4,2.2,0.6,2.6,1.9c0.4,2.7,1.6,6.4,4.2,6.7c-1.1-1-2.6-6.3-2.4-8.5c0.7,3.6,2.9,8.7,4.7,8.5c-0.4-0.6-1.9-3.8-1.9-5.9
			c0.6,1.6,2.2,5.4,3.3,5.4c3,0.1,3.8-1.3,6.1-1.8c5-1.1,6.3,0.8,7.1,1.2c-0.6-0.6-2.7-4.3-4.1-7.1c-1.1-2.3,0.8-4.5,4-5.9
			C136.9,50.7,132.7,50.8,131.7,50.8"/>
		<path class="st3" d="M132.5,66.2c0,0-1.6-0.1-1.8,0.4c-0.1,0.5,1,2.5,1.4,3c0.3,0.4,0.5-0.3,0.5-0.3c0.3-0.6,0.6-1.3,0.8-2
			C133.5,67.1,133.3,66.2,132.5,66.2"/>
		<path class="st3" d="M116.5,64.8c-0.8-0.3-1.8-1.9-2-2.6c-0.3-0.7-0.8-2.8-0.5-3.5c0.2,1,0.6,2.1,1,3.1
			C115.3,62.8,115.9,63.8,116.5,64.8"/>
		<path d="M133.5,85.9c-0.3-0.3-0.8-0.6-1.2-0.7c-0.3,0-0.4,0-0.4,0.3c0,0.3,0,0.5,0,0.8c0.1,0.5,0.1,0.3,0.5,0.3c0.3,0,0.6,0,0.9,0
			c0.3,0,0.3,0,0.3-0.3C133.6,86.1,133.7,85.9,133.5,85.9"/>
		<path d="M83.2,52.3c0,0,0.5-0.9,1.1-1.1c0.5-0.1,0.9,0.1,1.6,0.6c0.7,0.5,1.1,1.2,1.8,1c0.2-0.1-0.5,0.8-1.2,0.6
			c-0.2-0.1-1.2-1.8-2.2-1.8C84,51.8,83.6,52,83.2,52.3"/>
		<path d="M85.1,51.5c-0.5-0.2-1,0-1.3,0.3c0.2-0.6,1.2-0.2,1.6,0c0.4,0.3,0.6,0.7,0.8,1.1c-0.3-0.3-0.6-0.5-1-0.6
			c-0.6-0.1-0.7,0.8-0.7,0.8l-0.3,0.4c0,0,0,0.1,0.5,0.1c0.8,0,1.6,0,2.4-0.2C87.4,53.2,86,51.8,85.1,51.5 M85.3,53.4
			c-0.2,0-0.3-0.2-0.3-0.4c0-0.1,0.1-0.2,0.3-0.3c0.2,0,0.3,0.2,0.3,0.4C85.6,53.2,85.4,53.3,85.3,53.4"/>
		<path d="M93.9,56.6c0,0,0.3,1,0.6,1.2c0.3,0.2,1.1-1,1.1-1c-0.2,0.7-0.6,1.3-1,1.8C94.1,58.2,94,57.9,93.9,56.6"/>
		<path d="M95,57.7c0.2,0.4,0.4,0.8,0.8,1.1c0.3,0.2,1-0.9,1-0.9c-0.2,0.6-0.6,1.2-0.9,1.8C95.2,59.2,94.9,58.4,95,57.7"/>
		<path d="M92.4,59.3c0,0,0.6,1,0.9,1.2c0.6,0.2,0.6-1.3,0.6-1.3s0.2,1.6-0.4,2.2C93,61.1,92.7,60.9,92.4,59.3"/>
		<path d="M93.8,58.7c0.1,0.4,0.3,0.8,0.6,1.1c0.3,0.2,0.9-1.4,0.9-1.4c-0.1,0.8-0.3,1.6-0.7,2.4C94.1,60.2,93.8,59.5,93.8,58.7"/>
		<path d="M94.9,59.4c0.2,0.4,0.5,0.8,0.9,1c0.3,0.1,0.6-1.2,0.6-1.2s0.1,1.6-0.3,2C95.4,60.9,95,60.2,94.9,59.4"/>
		<path d="M95.3,55.6c0,0,0.5,1.2,0.9,1.4c0.4,0.2,0.9-1.1,0.9-1.1s-0.3,1.4-0.9,1.9C95.7,57.4,95.6,57.1,95.3,55.6"/>
		<path d="M94.3,54.5c0,0,0.3,0.9,0.6,1.1c0.3,0.2,0.8-1.1,0.8-1.1c-0.1,0.7-0.4,1.4-0.8,2.1C94.6,56.3,94.5,55.9,94.3,54.5"/>
		<path d="M96.2,54.2c0.1,0.4,0.3,0.7,0.5,1c0.3,0.2,0.7-0.5,0.7-0.5s-0.2,1.1-0.6,1.2C96.6,55.7,96.4,55.4,96.2,54.2"/>
		<path d="M97.6,53.3c0,0,0.2,0.7,0.4,0.9s0.6-0.5,0.6-0.5c0,0.5-0.3,0.9-0.6,1.2C97.6,54.4,97.5,53.9,97.6,53.3"/>
		<path d="M98.9,52.2c0,0,0.2,0.7,0.4,0.9c0.2,0.2,0.6-0.5,0.6-0.5s-0.1,1-0.6,1.1C99,53.2,98.9,52.7,98.9,52.2"/>
		<path d="M92.7,57.5c0,0,0.5,0.8,0.7,0.9c0.2,0.1,0.7-0.9,0.7-0.9s-0.2,1.2-0.7,1.5C93,58.6,92.8,58.1,92.7,57.5"/>
		<path d="M95.6,53.4c0,0,0.2,0.7,0.4,0.9c0.2,0.1,0.6-0.6,0.6-0.6s-0.1,1-0.5,1.3C95.6,54.6,95.4,54,95.6,53.4"/>
		<path d="M107.3,51.7c0,0,2.8-1.1,3.5,3.5c0.3-1.6-0.1-3.7-1.2-4.3C108.4,50.3,107.3,51.7,107.3,51.7"/>
		<path d="M85,49.6c2.9,0.3,5.2,2.6,5.5,5.6c0.3-1-0.8-4.1-2.1-4.9c-0.1-0.1-0.7-0.4-0.3-1.3C87,48.8,86,49,85,49.6"/>
		<path d="M137.5,85.6c0,0,0,2.2-0.5,2.7h0.3c0.2-0.3,0.3-0.7,0.3-1c0.1-0.5,0.1-1,0.1-1.5L137.5,85.6z"/>
		<path d="M134.7,70.7c0,0.1,0,0.2,0,0.3c0,0-0.1,0.2,0.2,0.4c0.2,0.1,0.3,0.2,0.4,0.4l0,0.1c0,0.1,0,0.2,0,0.2c0,0,0,0.1-0.1,0.1
			c0,0-0.1,0.1,0,0.1l0,0c0,0.1,0.1,0.2,0.2,0.3c0,0,0.1,0.1,0,0.3v0.1c-0.1,0.3,0,0.9,0.1,0.8c0.1,0,0.1-0.6,0.2-0.6
			c0.1-0.2,0.1-0.4,0.1-0.6c0-0.1,0-0.1-0.1-0.1c-0.1-0.1-0.2-0.2-0.2-0.2l0-0.1l0.1-0.1c0-0.1,0-0.3,0-0.4
			c-0.1-0.2-0.3-0.4-0.5-0.5c-0.1,0-0.2-0.1-0.2-0.2c0-0.1,0-0.1,0-0.1c0-0.1,0-0.2,0-0.3c-0.3-0.4-0.7-0.6-1.1-0.6l-0.3,0.3
			C133.6,70.3,134.1,70,134.7,70.7"/>
		<path d="M132.5,71.5c0.2,0,0.3,0.3,0.3,0.3s0,0.1-0.1,0c-0.1-0.1-0.2-0.2-0.3-0.2s-0.2,0.1-0.2,0.1S132.3,71.5,132.5,71.5"/>
		<path d="M133.9,71.1c0.1,0,0.2,0.1,0.2,0.3C134,71.2,133.9,71.2,133.9,71.1c-0.2,0.1-0.2,0.1-0.3,0.1
			C133.6,71.1,133.6,71,133.9,71.1"/>
		<path d="M136.5,81l-0.2-0.7l-0.1-0.3l-1.4-2.5l-0.1-0.1c-0.1-0.1-0.1-0.1-0.2-0.2c0,0,0-0.1,0-0.1c0.5,0,1-0.1,1.5-0.2
			c0.4,0.6,0.9,1.1,1.5,1.5c-0.4-0.7-0.8-1.3-1.3-2c0.1-0.3,0.1-0.5,0.1-0.8c-0.1-0.2-0.3-0.4-0.6-0.5l0,0c0,0,0-0.1-0.1-0.1l0,0
			c-0.1-0.2-0.2-0.3-0.2-0.4l0.6,0.2h0.1l0.2-0.2l-1.1-0.4c-0.1,0-0.2-0.2-0.2-0.4c0-0.2,0.8-0.9,0.6-0.9c-0.3-0.1-1,0.7-1,0.9
			c0,0.2,0.1,0.4,0.2,0.6c-0.1,0.1-0.1,0.1-0.1,0.2c-1.4,0.1-1.9,0.6-1.9,0.8c0.5-0.2,1-0.4,1.5-0.5c-0.3,0.2,0.2,0.7,0.2,0.7
			c-0.1-0.1-0.2-0.1-0.3,0c-0.3,0.2,0,0.6,0,0.7c-0.1,0-0.2,0-0.2,0.1c-0.1,0.2,0.1,0.5,0.3,0.7c0.2,0.2-0.3,0.1-1.5-0.8
			c0,0.8,1.4,1.3,1.9,1.4C134.6,77.6,136.4,80.9,136.5,81 M134.2,76.6c0.1-0.1,0.3,0.1,0.4,0.1c0.1-0.1-0.5-0.7-0.3-0.8
			c0.2-0.1,0.4,0.3,0.5,0.2c0.1-0.1,0.1-0.1,0-0.2c-0.1-0.1-0.2-0.4-0.2-0.4s-0.3-0.4-0.1-0.5c0.2-0.1,0.3,0.2,0.4,0.3
			c0,0,0.3,0.6,0.4,0.5s-0.2-0.9-0.2-0.9s-0.2-0.3-0.1-0.3c0.1-0.1,0.2,0,0.4,0.2c0.2,0.4,0.4,0.7,0.7,1c0-0.1,0-0.3-0.1-0.4
			c0.1,0.1,0.3,0.1,0.3,0.3c0,0.2,0,0.4-0.1,0.6c-0.5,0.4-1.1,0.6-1.8,0.6C134.3,76.9,134,76.7,134.2,76.6"/>
		<path d="M130.9,80.9l-0.2,0.1l-0.3,0.2c0,0.1,1.2,2.9,2.3,3.8v-0.1C131.9,83.7,131.2,82.4,130.9,80.9"/>
		<path d="M135.2,82.3c-0.7,0.1-1.2,2.4-1.2,2.4c0.2-0.2,0.2,0.2,0.2,0.2s0.6-1.9,1-2.1c0.4-0.1,0.8-0.2,1.2-0.1
			C136.1,82.4,135.6,82.3,135.2,82.3"/>
		<path d="M129.8,78.7c0-0.7-0.1-1.5-0.2-2.2l-0.1,0.1l-0.2-0.1C129.4,77.3,129.6,78,129.8,78.7"/>
		<path d="M130.3,77l0.2,1.8l0.3-0.2l-0.1-1.3c0,0,0.1,0.1,0.2,0c0.1-0.1-0.2-0.3-0.3-0.6c0-0.3,0.3-0.5,0.2-0.6
			c0,0-0.1,0.1-0.1,0.1c0-0.2,0-0.5,0.1-0.6c0.1-0.2,0.2-0.4,0.3-0.6c-0.4,0.2-0.7,0.5-0.7,0.9l0,0.6c0,0.1-0.1,0.2-0.1,0.3
			C130.3,76.8,130.3,76.9,130.3,77"/>
		<path d="M129.6,82.6c-0.1,0.5,1.8,2.2,1.8,2.2l0.5-0.2C131.1,84,130.3,83.3,129.6,82.6"/>
		<path d="M131.1,74.7c0.5,0.1,0.9,0.4,1.3,0.6c0.1-0.2-0.7-0.7-1.1-0.8c-0.2,0-0.3,0-0.3,0.1C131.1,74.7,131.1,74.7,131.1,74.7"/>
		<path d="M114.2,80.6c0.2,0,0.6-0.4,0.5-0.5c-0.1,0-0.2,0.2-0.5,0.2c-0.1,0-0.2,0-0.4,0l0,0c0,0.1-0.3,0.1-0.3,0.1v0.2l0.3-0.1
			C113.9,80.6,114,80.7,114.2,80.6"/>
		<path d="M120.5,75.7c0.2-0.2-0.2-0.5-0.2-0.5c0,0,0.3,0.4,0.1,0.3c-0.2-0.3-1-0.6-1.1-0.6c0,0,0.1-0.2,0.6,0.2
			c0-0.1-0.2-0.3-0.6-0.3c0-0.1,0-0.1-0.1-0.1l0,0l0,0c0,0,0.1,0.1,0,0.1c-0.1,0-0.1-0.1-0.1-0.2s-0.2,0-0.1,0.1
			c0.1,0.1,0.1,0,0.1,0.1c0,0,0,0,0,0c-0.1,0-0.1,0-0.2,0c-0.1,0-0.2,0-0.3,0c0,0-0.1,0,0,0l0.1-0.1c0.2-0.1-0.1-0.3-0.2,0
			c0,0,0,0.1-0.1,0.1c-0.1,0,0-0.2,0-0.2l0,0c0,0-0.1,0.1-0.1,0.1c0,0.1-0.5,0-0.6,0.3c0.3-0.3,0.5-0.2,0.5-0.1s-0.4,0.3-0.6,0.4
			s-0.3,0.3-0.4,0.3s-0.1-0.1,0-0.3c-0.2,0.2-0.2,0.4-0.1,0.5c-0.1,0.3-0.1,0.6,0.1,0.8c0.3,0.3,0.6,0.6,0.9,0.8
			c0.1,0-0.8-0.8-0.8-1.1c-0.1-0.8,0.9-1.4,1.2-1.5c0.1,0.1,0.2,0.1,0.2,0.1c0.2,0,0.3-0.1,0.3-0.1c0.3,0,1.5,0.4,1.4,1.4
			c0,0.3-0.2,0.6-0.1,0.7s0.1-0.1,0.2-0.4C120.6,76.4,120.6,76.1,120.5,75.7"/>
		<path d="M114.3,84.5c1.2-0.1,3.4,3.6,3.4,3.6c0.1,0.1,0.2-0.1,0.2-0.1C117.9,87.9,116,83.9,114.3,84.5"/>
		<path d="M116,78.4c-0.3,0,0,3.4,0,3.4l0.3-0.3c0-0.2-0.1-1.2-0.1-1.3c0.6,0,1.1-0.2,1.5-0.6c-0.3,0.1-0.7,0.1-1,0.1
			c-0.4-0.1-0.5-0.2-0.5-0.3C116.2,79.2,116.1,78.4,116,78.4"/>
		<path d="M115.8,83.7l-0.2,0.2c1.6,0.9,2.6,4.1,2.7,4.1l0,0l0.5,0.2C118.8,88.2,117.5,84.4,115.8,83.7"/>
		<path d="M119.7,88c0.1,0.1,0.5-0.1,0.5-0.1l0,0c0-1,0.4-2.1,1.2-2.8C121.4,85.1,120,85.4,119.7,88"/>
		<path d="M126.5,87.7l-0.3-0.2c0.1,0.3,0.1,0.7,0.1,1c0,0,0,0.1,0,0.1c0,0,0,0,0,0l0,0.6c0.1-0.2,0.2-0.3,0.3-0.4l0,0
			c0.1-0.1,0.1-0.1,0-0.4C126.5,88.3,126.4,87.7,126.5,87.7"/>
		<path d="M121.5,78.3c-0.1,0.3-0.2,0.6-0.2,0.9c0,0.3-0.2,0.5-0.5,0.5c0,0-0.1,0-0.1,0c-0.3,0-0.6-0.1-0.8-0.2
			c0.2,0.4,1.2,0.6,1.4,1c0,0.2,0.1,0.3,0.1,0.5h0.2v-0.7l0.2-0.1C121.8,78.8,121.6,78.3,121.5,78.3"/>
		<path d="M117.5,77.7c-0.3,0-0.6,0-0.9,0.1l-0.6,0.1l0.2,0.1c0.4-0.1,0.9-0.1,1.3-0.2h0.2c0.4,0.1,1,0.3,1,0.2
			c-0.3-0.2-0.6-0.3-0.9-0.4L117.5,77.7"/>
		<path d="M121.4,77.9L121.4,77.9L121.4,77.9L121.4,77.9L121.4,77.9l-0.2-0.1H120c-0.4,0.1-0.8,0.2-1.1,0.4c0.1,0.1,0.7-0.2,1.1-0.3
			c0.4,0,0.9,0,1.3,0.1"/>
		<path d="M123.7,79.9c-0.2-0.2-1.5-1.8-1.5-1.8c0,0-0.1-0.1-0.1-0.1c0,0-0.2,0-0.2,0c0.4,0.6,0.8,1.1,1.4,1.6
			C123.5,79.8,123.7,79.9,123.7,79.9"/>
		<path d="M115.5,88.5l0.2,0.3c0.1-0.2,0.2-0.4,0.4-0.6c0.3-0.2,0.6-0.3,1-0.4C116.5,87.7,115.8,88,115.5,88.5"/>
		<path d="M115.1,82c0.2,0,0.2-0.1,0.2-0.3l0,0c0.1-0.1,0.2-0.3,0.2-0.4c0.1,0.4,0.3,1.2,0.1,1.4l-0.2,0.2l0.2-0.1
			c0.2-0.1,0.2-0.3,0.2-0.5c0-0.1-0.3-1.4-0.3-1.4v-0.1c0-0.2-0.1-0.3-0.1-0.4c-0.1-0.2-0.3-0.3-0.5-0.3c0,0,0.6,0.4,0.6,0.8
			c-0.1,0.4-0.2,0.5-0.2,0.5l-0.1-0.1v0.3c0,0.1-0.1,0.2-0.1,0.2c-0.2,0-0.4,0.3-0.7,0.3s-0.4-0.3-0.5-0.4s0.1-0.3,0.1-0.3
			c0-0.1,0-0.1-0.1-0.1c-0.1,0-0.2,0.2-0.2,0.2s-0.1,0.4,0.1,0.5c0.4,0.2,0.2,0.2,0.6,0.4C114.8,82.4,114.8,82,115.1,82"/>
	</g>
</g>
</svg>
