<?xml version="1.0" encoding="utf-8"?>
<!-- Generator: Adobe Illustrator 26.0.3, SVG Export Plug-In . SVG Version: 6.00 Build 0)  -->
<svg version="1.0" id="Layer_1" xmlns="http://www.w3.org/2000/svg" xmlns:xlink="http://www.w3.org/1999/xlink" x="0px" y="0px"
	 viewBox="150 60 700 700" style="enable-background:new 0 0 1032.1 814.2;" xml:space="preserve">
<style type="text/css">
	.st0{fill:#272F5E;}
	.st1{fill:#FFFFFF;}
	.st2{fill:#FFFFFF;stroke:#000000;stroke-miterlimit:10;}
	.st3{fill:#CF3927;}
	.st4{fill:#C83B1B;}
</style>
<path class="st0" d="M778.2,517.7V122.3c0,0-3-22.2-43.7-35.7c-14.7-4.9-35.4-9.1-58.3-12.8c-42.1-7.9-101.6-16.7-160.4-16.7
	c0,0,0,0,0,0l0,0l0,0c-58.8,0-118.3,8.7-160.4,16.7c-22.9,3.7-43.6,7.9-58.3,12.8c-40.7,13.5-43.7,35.7-43.7,35.7v395.4
	c0,0-0.8,40.9,41.8,74.3c42.5,33.4,220.7,165,220.7,165s178.2-131.6,220.7-165C779,558.6,778.2,517.7,778.2,517.7z"/>
<path class="st1" d="M614.5,166.7c-10.5,6-32.8,2.1-32.8,2.1s-6.8,15.7-24.2,19.6c-17.5,3.9-30.7-10-30.7-10v73.6L667,144.5
	c-7-1.4-14.6-2.8-22.6-4.1c-5.4-1-11.1-2-17.1-3.1C628.1,144.7,627.7,159.2,614.5,166.7z"/>
<polygon class="st1" points="291.8,107.9 297.9,126.5 317.5,126.5 301.6,138 307.7,156.7 291.8,145.1 276,156.7 282,138 
	266.2,126.5 285.8,126.5 "/>
<polygon class="st1" points="288.8,262.9 294.9,281.5 314.5,281.5 298.6,293 304.7,311.7 288.8,300.1 273,311.7 279,293 
	263.2,281.5 282.8,281.5 "/>
<polygon class="st1" points="291.8,443.7 297.9,462.4 317.5,462.4 301.6,473.9 307.7,492.5 291.8,481 276,492.5 282,473.9 
	266.2,462.4 285.8,462.4 "/>
<polygon class="st1" points="442.1,334.5 448.2,353.1 467.8,353.1 451.9,364.7 458,383.3 442.1,371.8 426.3,383.3 432.3,364.7 
	416.5,353.1 436.1,353.1 "/>
<polygon class="st1" points="583.1,234.4 589.2,253.1 608.8,253.1 592.9,264.6 599,283.3 583.1,271.7 567.2,283.3 573.3,264.6 
	557.4,253.1 577,253.1 "/>
<polygon class="st1" points="720.9,108.9 726.9,127.5 746.5,127.5 730.7,139 736.7,157.7 720.9,146.1 705,157.7 711.1,139 
	695.2,127.5 714.8,127.5 "/>
<polygon class="st1" points="508.9,80.9 514.9,99.5 534.5,99.5 518.7,111 524.7,129.7 508.9,118.1 493,129.7 499.1,111 483.2,99.5 
	502.8,99.5 "/>
<path class="st1" d="M456.6,188.8c-21.4-2.1-31.7-21-31.7-21S407,181,390.3,166c-10.2-9.1-14.5-17.9-15.9-23.3
	c-13,2.4-24.5,5-33.3,8c-5.8,1.9-10.6,4-14.6,6.3v248.8l32.7-25.1c0.2-38.3-15.2-55.4-15.2-55.4c29.8-34.2,26.8-87.7,26.8-87.7
	c-0.6-12.7-3.6-21.8-6.3-27.5c0,0,0,0,0,0c-2.6-6.9-0.2-10.7,2.2-12.7l0,0c8.3-4,12.1,0.6,12.1,0.6l8.9-6.8c8.2-5,9.3-1.4,9.3-1.4
	l6.4-7.1c0,0,6.8-5.7,12.1,0c5.3,5.7-0.4,13.9-0.4,13.9l-5.3,7.8c0,0-4.6,12.8,1.8,21c6.4,8.2,17.1,10.7,17.1,10.7
	s7.8-14.4,13.5-23.9c9.3-15.3,21.7-9.3,21.7-9.3s-8,37.1-14.3,53.1c-5.3,13.4-21,24.2-21,24.2s2.1,17.8-6.1,30.7
	s-20.3,24.6-20.3,24.6l5.4,7.7l83.4-63.9V182C491.1,182,478,190.9,456.6,188.8z"/>
<path class="st3" d="M619.3,652c0.6-0.4,1.1-0.8,1.7-1.3h-1.7V652z"/>
<path class="st3" d="M696.1,594.6c0.2-0.1,0.4-0.3,0.6-0.4h-0.6V594.6z"/>
<path class="st3" d="M480.8,383.4v319.4c0.1,0.1,0.2,0.1,0.3,0.2V383.2L480.8,383.4z"/>
<path class="st4" d="M696.1,218.2v376h0.6c12.9-9.7,21.4-16,22.4-16.8c37.2-29.2,38.4-64.7,38.4-68.1v-0.3V171L696.1,218.2z"/>
<path class="st1" d="M696.1,218.2l-76.8,58.9v373.6h1.7c28.3-21.2,56.3-42.1,75.1-56.2v-0.4V218.2L696.1,218.2z"/>
<path class="st4" d="M619.3,277.1l-61.4,47.1v373.7c17.9-13.4,39.7-29.7,61.4-45.9v-1.3V277.1z"/>
<path class="st1" d="M557.9,697.9V324.2L481,383.2V703c20.8,15.6,35,26.2,35,26.2S533.4,716.2,557.9,697.9z"/>
<path class="st4" d="M419.3,430.5v226.3c22.2,16.6,44.1,33,61.4,45.9V383.4L419.3,430.5z"/>
<path class="st1" d="M342.5,599.4c20.4,15.3,48.9,36.6,76.8,57.4V430.5l-76.8,58.9V599.4z"/>
<path class="st4" d="M313,577.3c1.3,1,12.7,9.6,29.5,22.2v-110l-61.4,47.1C286.3,549,295.8,563.8,313,577.3z"/>
</svg>
