<?xml version="1.0" encoding="UTF-8"?>
<svg version="1.1" viewBox="250 250 1000 1000" width="1280" height="1280" xmlns="http://www.w3.org/2000/svg">
<path transform="translate(903,245)" d="m0 0 11 7 20 12 15 8 23 9 17 5 21 4 30 3h54l25-4 19-5 20-7 4 1 11 16 13 18 13 19 4 5-2 5-14 19-13 21-8 15-10 24-6 18-5 21-3 20-1 11v35l3 26 6 29 8 26 11 27 9 19 12 21 16 24 10 13 11 13 14 15 6 6-1 4-12 16-29 29-3 4-1 65-3 30-5 29-6 24-10 30-12 27-11 20-14 21-10 13-11 13-11 12-12 12-11 9-12 10-17 12-21 13-27 14-20 9-27 10-27 8-30 7-36 6-42 4-14 13-11 9-14 12-17 13-16 12-5-1-19-14-14-11-11-9-13-11-14-12-1-1-42-4-36-6-30-7-30-9-26-10-20-9-25-13-21-13-19-14-11-9-10-9-12-11-14-15-11-14-11-15-12-19-14-27-10-25-8-25-7-31-4-28-2-24-1-62-33-33-7-8-8-8 2-4 9-9 7-8 10-11 13-17 14-21 11-19 10-19 11-26 10-31 6-28 3-24v-44l-4-28-6-23-7-20-8-18-10-19-9-14-10-14-8-11 2-5 11-15 14-20 12-17 3-4 6 1 24 8 23 5 16 2h49l32-3 25-5 27-9 25-12 18-11 12-8 5 2 21 14 17 10 27 13 24 8 22 5 15 2 14 1h19l22-2 21-4 23-7 23-10 17-9 19-12z" fill="#D0B32B"/>
<path transform="translate(358,791)" d="m0 0h784l2 21v39l-2 25-4 26-6 26-9 27-9 20-9 17-14 21-8 10-12 14-14 14-11 9-17 13-16 10-16 9-25 12-24 9-29 9-36 8-33 5-32 3h-136l-40-4-35-6-26-6-29-9-24-9-29-14-19-11-17-12-10-8-14-12-14-14-9-11-10-13-11-17-14-27-9-24-7-24-5-25-3-25-1-16v-38z" fill="#2F3B7D"/>
<path transform="translate(595,313)" d="m0 0 5 2 29 15 19 8 27 9 27 6 24 3h47l24-3 23-5 20-6 24-9 30-15 8-5 6 2 16 8 21 9 22 7 27 6 22 3 30 2h44l26-3 10-2 4 1-18 35-11 28-7 24-5 24-3 24-1 16v20l2 27 5 31 7 28 10 30 8 20v3h-734l1-6 10-25 8-24 6-24 5-29 2-21v-39l-3-26-5-25-7-24-8-21-12-25-11-20v-1l11 1 29 3h46l29-2 28-4 25-6 23-8 20-9z" fill="#AB1A34"/>
<path transform="translate(595,320)" d="m0 0 6 1 18 10 24 11 30 10 26 6 21 3 26 2 1 83v107l-1 96h-353l1-6 10-26 8-28 6-29 3-24 1-15v-28l-2-24-5-30-7-26-8-22-8-18-9-19 33 2h25l26-1 31-3 27-5 27-8 20-8z" fill="#AB1A34"/>
<path transform="translate(903,245)" d="m0 0 11 7 20 12 15 8 23 9 17 5 21 4 30 3h54l25-4 19-5 20-7 4 1 11 16 13 18 13 19 4 5-2 5-14 19-13 21-8 15-10 24-6 18-5 21-3 20-1 11v35l3 26 6 29 8 26 11 27 9 19 12 21 16 24 10 13 11 13 14 15 6 6-1 4-12 16-29 29-3 4-1 65-3 30-5 29-6 24-10 30-12 27-11 20-14 21-10 13-11 13-11 12-12 12-11 9-12 10-17 12-21 13-27 14-20 9-27 10-27 8-30 7-36 6-42 4-14 13-11 9-14 12-17 13-16 12-5-1-19-14-14-11-11-9-13-11-14-12-1-1-42-4-36-6-30-7-30-9-26-10-20-9-25-13-21-13-19-14-11-9-10-9-12-11-14-15-11-14-11-15-12-19-14-27-10-25-8-25-7-31-4-28-2-24-1-62-33-33-7-8-8-8 2-4 9-9 7-8 10-11 13-17 14-21 11-19 10-19 11-26 10-31 6-28 3-24v-44l-4-28-6-23-7-20-8-18-10-19-9-14-10-14-8-11 2-5 11-15 14-20 12-17 3-4 6 1 24 8 23 5 16 2h49l32-3 25-5 27-9 25-12 18-11 12-8 5 2 21 14 17 10 27 13 24 8 22 5 15 2 14 1h19l22-2 21-4 23-7 23-10 17-9 19-12zm-307 28-16 10-21 11-26 10-24 6-25 4-28 2h-46l-23-3-25-6-10-3-5 1-14 18-9 12 1 4 11 16 9 15 12 23 10 25 7 24 5 25 2 17v48l-3 24-6 29-8 26-9 24-14 29-10 18-13 20-11 15-8 10-12 14-4 5 9 9 7 8 24 24-1 25v38l2 27 5 33 8 32 8 23 11 25 12 22 10 15 12 16 12 14 23 23 11 9 16 12 17 11 21 12 25 12 26 10 25 8 24 6 25 5 38 5 30 2 10 8 11 10 11 9 17 14 13 10 4 3 4-1 16-13 14-11 10-9 11-9 11-10 2-1 30-2 32-4 36-7 29-8 29-10 23-10 24-12 21-13 14-10 14-11 12-11 8-7 7-7 7-8 13-16 11-16 12-20 13-27 9-25 6-20 6-29 4-33 1-16v-38l-1-13v-12l40-40-1-4-7-7-9-11-13-17-10-15-12-20-12-23-9-20-9-24-8-29-5-26-2-17-1-16v-20l2-25 4-24 7-26 10-26 8-17 12-21 11-16 4-7-14-19-10-13-7 1-21 6-23 4-10 1h-48l-27-2-26-4-23-6-19-7-25-12-20-12-5 2-19 12-18 10-23 10-25 8-24 5-16 2-17 1h-13l-26-2-23-4-24-7-16-6-20-9-21-12-15-10z" fill="#09090A"/>
<path transform="translate(902,321)" d="m0 0 6 1 22 11 12 5v311l-39 1h-116l-35-1v-285l29-2 30-5 24-6 25-9 25-12z" fill="#AB1A34"/>
<path transform="translate(736,851)" d="m0 0h27l19 4 15 6 14 8 10 8 8 7 11 14 8 14 5 12 4 14 2 15v13l-2 16-5 17-8 16-7 11-11 12-10 9-14 9-13 6-17 5-14 2h-17l-14-2-17-5-16-8-12-8-13-12-9-11-9-15-6-15-3-12-1-7v-29l4-18 6-15 8-14 9-11 12-12 13-9 16-8 16-5z" fill="#09090A"/>
<path transform="translate(468,797)" d="m0 0h112l1 1v316l-8-1-33-11-27-12-17-9-19-12-9-7-1-1v-263z" fill="#792947"/>
<path transform="translate(920,797)" d="m0 0h113v264l-9 7-19 12-27 14-27 11-28 9h-4v-316z" fill="#792947"/>
<path transform="translate(806,797)" d="m0 0h113v318l-24 6-34 6-36 4-19 1v-79l16-12 11-11 9-13 8-16 5-15 2-10 1-10v-13l-3-19-6-18-8-15-9-12-7-8-14-11-5-3z" fill="#2F3B7D"/>
<path transform="translate(365,797)" d="m0 0h102v264l-6-4-13-11-21-21-11-14-10-14-9-15-8-16-8-19-7-21-6-26-4-28-1-11v-56z" fill="#2F3B7D"/>
<path transform="translate(1033,797)" d="m0 0h102l2 8v56l-3 27-5 26-7 25-10 25-8 16-8 14-12 17-9 11-9 10-16 16-11 9-6 4z" fill="#2F3B7D"/>
<path transform="translate(595,313)" d="m0 0 5 2 29 15 19 8 27 9 27 6 24 3h47l24-3 23-5 20-6 24-9 30-15 8-5 6 2 16 8 21 9 22 7 27 6 22 3 30 2h44l26-3 10-2 4 1-18 35-11 28-7 24-5 24-3 24-1 16v20l2 27 5 31 7 28 10 30 8 20v3h-734l1-6 10-25 8-24 6-24 5-29 2-21v-39l-3-26-5-25-7-24-8-21-12-25-11-20v-1l11 1 29 3h46l29-2 28-4 25-6 23-8 20-9zm0 7-27 13-25 9-27 7-26 4-23 2-26 1h-25l-26-2h-7l9 19 9 20 10 30 6 26 4 29 1 15v28l-2 24-4 26-6 26-7 23-10 26v3h353l1-96v-107l-1-83-34-3-23-4-23-6-28-10-27-13-12-7zm307 1-27 14-17 8-30 10-27 6-20 3-29 2v285l35 1h271l49-1-1-5-9-25-7-23-6-27-4-27-1-12v-44l3-26 5-25 7-25 10-26 13-27v-3l-17 2h-62l-19-1-29-4-26-6-27-9-29-14z" fill="#09090B"/>
<path transform="translate(358,791)" d="m0 0h784l2 21v39l-2 25-4 26-6 26-9 27-9 20-9 17-14 21-8 10-12 14-14 14-11 9-17 13-16 10-16 9-25 12-24 9-29 9-36 8-33 5-32 3h-136l-40-4-35-6-26-6-29-9-24-9-29-14-19-11-17-12-10-8-14-12-14-14-9-11-10-13-11-17-14-27-9-24-7-24-5-25-3-25-1-16v-38zm7 6-2 8v56l3 27 5 26 7 25 10 25 8 16 8 14 12 17 9 11 9 10 18 18 14 11 14 10 20 12 19 10 24 10 33 11 29 7 27 5 32 4 26 2h120l36-3 33-5 29-6 28-8 23-8 23-10 25-13 24-16 14-11 13-12 15-15 11-14 10-14 9-15 8-16 8-19 7-21 6-26 4-28 1-11v-56l-2-8z" fill="#09090A"/>
<path transform="translate(903,321)" d="m0 0 5 1 22 11 12 5v311h-39z" fill="#F1CF31"/>
<path transform="translate(902,321)" d="m0 0h1v329h-39v-309l19-10z" fill="#AB1A34"/>
<path transform="translate(942,338)" d="m0 0 26 8 13 3v301h-39z" fill="#AB1A34"/>
<path transform="translate(981,350)" d="m0 0 9 1 29 4 1 1v293h-39z" fill="#F1CF31"/>
<path transform="translate(862,341)" d="m0 0h2v308h-38l-1-295 33-11z" fill="#F1CF31"/>
<path transform="translate(520,348)" d="m0 0h6v98h-109l-4-15-7-24-8-21-12-25-3-7 33 2h25l26-1 31-3z" fill="#FDFDFD"/>
<path transform="translate(420,553)" d="m0 0h106v95h-133l3-10 9-24 8-29 6-31z" fill="#FDFDFD"/>
<path transform="translate(634,553)" d="m0 0h112v95h-112z" fill="#FEFEFE"/>
<path transform="translate(634,339)" d="m0 0 39 13 26 6 21 3 26 2v83h-112z" fill="#FDFDFD"/>
<path transform="translate(781,362)" d="m0 0h6v287h-35v-285z" fill="#F0CF31"/>
<path transform="translate(1117,354)" d="m0 0v3l-14 29-10 27-7 26-4 21-3 26v44l3 27 6 31 7 25 9 26 3 7v3h-49v-292l42-1z" fill="#F0CE31"/>
<path transform="translate(805,1053)" d="m0 0h1v79h-112v-78l5 2 14 6 19 5 9 1h17l19-3 17-6z" fill="#792947"/>
<path transform="translate(833,673)" d="m0 0h54l10 3 6 4 5 6 3 7v14l-4 8-3 4 6 5 5 10v15l-3 9-9 10-8 4-10 2h-52z" fill="#09090A"/>
<path transform="translate(694,797)" d="m0 0h112v69l-5-2-16-7-16-4-6-1h-27l-19 4-19 8-4 2z" fill="#792947"/>
<path transform="translate(768,955)" d="m0 0 10 1 8 5 6 8 3 10-1 10-5 10-6 7-13 10-13 8-13 6-21 6-21 3h-17l-13-13-9-13-4-8 14-2 12-5 10-9 4-5 9 3 9 2h7l10-3 10-7 6-8 4-10 7-4z" fill="#D0B32B"/>
<path transform="translate(760,899)" d="m0 0h8l17 4 18 8 11 7 11 9 10 10 10 14 7 15v9l-4 16-3 8-3-3-6-8-9-6-7-2h-20l-2-10-4-8-7-7-8-4-4-1h-11l-12 5h-3l-7-7-4-8-1-4v-15l4-10 7-8 7-3z" fill="#D0B32B"/>
<path transform="translate(735,858)" d="m0 0 4 1-5 9-1 4v11l4 10 5 7-5 5-5 10-2 7v14l4 11 4 6 7 7-1 7-6 8-9 6-5 2h-11l-10-4-9-8-6-10-4-13-1-5v-26l4-22 5-20 9-6 16-7z" fill="#D0B32B"/>
<path transform="translate(810,984)" d="m0 0 10 1 8 4 7 8 3 7v7l-7 11-11 12-7 7-15 10-14 6-14 4-7 1h-27l-17-4-15-6-10-6 2-2 24-3 20-5 15-6 15-9 13-10 8-8 5-8 3-8 5-2z" fill="#D0B32B"/>
<path transform="translate(737,671)" d="m0 0h11l12 3 9 6 7 7 4 8-16 8-5 1-4-6-8-4h-9l-8 4-5 6-4 10-1 5v12l3 10 6 8 6 3 9 1 9-3 6-7 1-2 6 2 12 7 1 2-6 10-8 7-9 4-10 2h-9l-13-3-10-6-7-7-7-14-3-13v-17l4-16 6-11 9-9 12-6z" fill="#09090A"/>
<path transform="translate(585,673)" d="m0 0h72v22h-50v16h29v22h-29v40l-1 1h-21z" fill="#09090A"/>
<path transform="translate(750,857)" d="m0 0 16 1 19 5 16 8 11 7 13 12 11 14 8 16 5 14 2 11v7l-4-5-7-10-9-10-8-8-14-10-19-9-16-5-14-1-11 2-5-5-3-4-2-6v-8l3-8 5-6z" fill="#D0B32B"/>
<path transform="translate(683,882)" d="m0 0 1 4-4 18-2 14v21l3 17 5 12 7 10 1 4-9 10-12 6-4 1h-14l-4-10-3-16v-26l3-15 5-14 8-15 8-10 8-9z" fill="#D0B32B"/>
<path transform="translate(854,729)" d="m0 0h27l7 2 4 6v9l-4 5-5 2h-29z" fill="#D0B32B"/>
<path transform="translate(855,694)" d="m0 0h28l5 3 1 1v8l-3 3-2 1h-29z" fill="#D0B32B"/>
</svg>
