<?xml version="1.0" encoding="UTF-8"?>
<svg version="1.1" viewBox="200 240 1050 1050" width="1280" height="1280" xmlns="http://www.w3.org/2000/svg">
<path transform="translate(739,506)" d="m0 0h22l30 2 29 4 28 6 27 8 20 7 23 10 17 8 23 13 24 16 17 13 11 9 12 11 8 7 14 14 7 8 12 14 15 20 10 15 12 20 12 23 8 17 11 29 9 31 6 29 4 32 1 14v42l-3 32-5 29-8 32-10 29-9 21-12 25-13 22-10 15-13 18-11 13-9 11-29 29-11 9-13 11-18 13-22 14-22 12-27 13-27 10-26 8-27 6-24 4-19 2-25 1h-16l-25-1-26-3-32-6-29-8-26-9-25-11-22-11-17-10-21-14-16-12-11-9-14-12-26-26-9-11-8-9-14-19-10-15-9-15-12-22-11-24-9-24-8-26-6-26-5-32-2-24v-42l3-32 5-30 7-28 10-30 11-26 14-28 14-23 12-17 12-16 13-15 12-13 16-16 8-7 13-11 20-15 20-13 19-11 21-11 26-11 19-7 28-8 28-6 28-4z" fill="#2A4A91"/>
<path transform="translate(739,506)" d="m0 0h22l30 2 29 4 28 6 27 8 20 7 23 10 17 8 23 13 24 16 17 13 11 9 12 11 8 7 14 14 7 8 12 14 15 20 10 15 12 20 12 23 8 17 11 29 9 31 6 29 4 32 1 14v42l-3 32-5 29-8 32-10 29-9 21-12 25-13 22-10 15-13 18-11 13-9 11-29 29-11 9-13 11-18 13-22 14-22 12-27 13-27 10-26 8-27 6-24 4-19 2-25 1h-16l-25-1-26-3-32-6-29-8-26-9-25-11-22-11-17-10-21-14-16-12-11-9-14-12-26-26-9-11-8-9-14-19-10-15-9-15-12-22-11-24-9-24-8-26-6-26-5-32-2-24v-42l3-32 5-30 7-28 10-30 11-26 14-28 14-23 12-17 12-16 13-15 12-13 16-16 8-7 13-11 20-15 20-13 19-11 21-11 26-11 19-7 28-8 28-6 28-4zm166 108-27 27-7 8-22 22-7 8-14 14-7-1-22-6-24-4-10-1h-32l-25 3-26 6-9 3h-5l-7-8-16-16-7-8-16-16-7-8-16-16-5-6-6 2-19 12-17 12-16 13-10 9-8 7-13 13-7 8-13 16-12 17-13 21-12 23-11 27-8 26-6 27-3 21-1 11v52l4 31 6 27 10 30 9 20 12 23 12 19 13 18 14 17 5 6 7-6 27-27 7-8 7-7-6-7-11-12-12-16-9-15-11-21-8-21-6-20-4-19-2-15v-41l3-25 6-27 5-16v-3l8 7 24 24-1 8-3 16-1 9v39l4 26 6 22 8 21 8 16 6 11 8 12 9 12 12 14 12 12 11 9 13 10 18 11 16 8 17 7 15 5h2v57h65l1-1v-49h15l21-3h5l31 31 7 8 39 39 7 8 2 2 6-1 24-12 18-11 17-12 16-13 10-9 12-11 12-13 14-17 12-17 13-21 12-22 9-20 9-25 6-22 5-25 3-28v-46l-3-27-5-26-6-22-8-23-11-25-12-22-16-24-10-13-11-13-11-12-13-13-8-7-16-13-18-13-21-13z" fill="#E9BC2D"/>
<path transform="translate(906,629)" d="m0 0 5 1 19 12 21 16 15 13 22 22 9 11 11 14 14 21 12 21 9 19 9 24 7 23 6 29 3 25 1 27-1 24-3 25-6 29-8 26-10 25-12 24-13 21-13 18-7 9-4-2-31-31 1-4 15-20 12-18 10-18 8-17 9-27 5-23 3-29v-31l-3-27-6-27-6-20-11-27-13-25-11-17-12-16-12-14-14-14-11-9-9-7-4 2-33 33-7 8v3l14 11 13 12 9 9 11 14 7 10-2 4-14 12-10 9-8 6-8-12-11-14-14-14-13-10-8-5-15 16-9 9-7 8-12 12-7 8-11 11-7 8-12 12-7 8h-3l-28-28-7-8-27-27-7-8-22-22-9 6-13 11-15 15-12 16-11 19-8 19-6 23-2 13-1 12v18l3 24 6 21 8 18 9 15 13 16 12 12 17 13 13 8 15 8 25 10v-158h109v33h-67v41h66l1 1v36l-1 1h-66v53l21-1 25-5 19-7 17-8 18-11 13-10 12-11 8-8 7 6 26 26-2 5-15 15-11 9-17 12-16 9-19 9-24 8-23 5-14 2-13 1h-12v49h-42v-54l-12-3-20-7-25-12-17-11-12-9-14-12-12-12-9-11-11-15-12-21-10-23-7-25-4-24-1-13v-18l2-20 4-20 8-24 10-21 10-16 12-16 9-10 7-8 7-7 8-7 14-11-6-7-11-11-7-8-20-20-6 4-12 11-8 7-10 10-7 8-13 16-11 16-9 15-11 21-10 26-7 26-4 22-3 31v23l2 21 5 25 7 23 8 19 8 16 9 16 12 17 9 11 4 5-2 4-7 8-20 20-5-4-13-17-14-21-9-16-8-16-8-19-8-24-6-26-3-19-2-24v-28l2-24 5-30 7-26 8-23 9-20 12-23 12-19 12-16 9-11 9-10 12-13 10-9 14-12 19-14 19-12 4 1 10 10 7 8 17 17 7 8 18 18 7 8 7 7 11-3 21-6 21-4 23-2h14l22 2 25 5 20 6 5 2 4-1 12-13 16-16 7-8 19-19 7-8z" fill="#E9BC2E"/>
<path transform="translate(742,193)" d="m0 0h16l1 1v11h13v16l-1 1h-12l1 9 10 6 1 1 12 1 8 5 1 2 10-3 9 1 6 4 5 6 12-1 8 3 7 8 2 7h12l7 4 4 5 2 5v8l8 1 4 2 4-1 4-3 3-1h10l8 4 5 7 11-1 8 3 6 7 2 5v4l2-1h8l8 4 5 6 2 6v6l-1 2h7l6 3 6 7 2 6-1 9-1 2 5 1 5 4 4 8v10l-4 8 5 2 6 9v15l4 5 1 2v11l-2 7 2 4v11l-6 10-8 6-5 2h-11l-7-1-10 4h-13l-1 6-4 5-5 2h-3v6l-4 4 2 11-9 5h-2l1 7-5 5-6-1-26-11-33-11-28-7-29-5-31-3h-49l-32 3-29 5-28 7-36 12-25 11-6-1-3-3 1-8-6-2-5-3 2-12-4-3-1-5-8-4-3-3-1-7h-14l-9-4-7 1h-11l-10-5-6-7-3-6-1-7 3-10-2-5v-10l3-6 2-2v-14l3-6 5-5 3-1-4-7v-12l5-8 8-5-1-4v-7l3-7 5-5 6-3h6v-9l4-8 6-5 5-2h8l2 1 1-8 7-8 8-3 10 1 2 1 2-5 7-6 3-1h10l8 4 3 1 7-3h5v-8l4-8 5-4 4-2h12l4-10 7-6 6-2 10 1 3 1 2-5 6-5 7-2 8 1 6 2 7-6 3-1 11-1 9-6h3v-10h-12l-1-1v-16h13v-11zm51 58m-1 1m29 8m26 17m-135 7-17 4-16 7-14 10-7 6-9 11-7 11-5 10 1 2 14-6 17-5 17-3 11-1h24l15 1v-8l-2-5v-8l2-5v-13l-3-8zm55 0-3 8v14l2 5-1 10-1 2v8l15-1h23l24 3 19 5 15 6h2l-3-9-9-14-11-12-9-8-15-9-17-6-10-2zm129 12m-6 6m30 6m26 17m-37 15-5 11 5 4h2l2 5 3 10 24 7 12 5 6 3-2-6-9-12-10-10-14-10-12-7zm-319 0-16 9-13 10-11 11-9 14 1 2 10-6 21-7 11-3 2-9 4-6 5-3-3-9zm272 4m108 2v1h9v-1z" fill="#E9BC2E"/>
<path transform="translate(733,568)" d="m0 0h34l31 3 31 6 25 7 25 9 28 13 21 12 15 10 19 14 15 13 15 14 15 16 9 11 12 16 10 15 11 19 8 15 11 26 9 27 6 24 5 32 1 11 1 28-1 24-3 26-6 29-6 21-9 25-9 20-12 23-13 20-11 15-8 10-12 14-23 23-11 9-15 12-24 16-21 12-23 11-24 9-23 7-27 6-21 3-28 2h-20l-28-2-26-4-26-6-20-6-28-11-28-14-21-13-17-12-16-13-10-9-12-11-15-16-9-11-15-20-12-19-12-22-8-17-11-29-7-25-5-25-3-24-1-14v-32l3-32 6-31 7-25 10-27 14-29 13-22 11-16 10-13 12-14 12-13 11-11 8-7 16-13 18-13 25-15 19-10 24-10 30-10 25-6 26-4zm172 46-27 27-7 8-22 22-7 8-14 14-7-1-22-6-24-4-10-1h-32l-25 3-26 6-9 3h-5l-7-8-16-16-7-8-16-16-7-8-16-16-5-6-6 2-19 12-17 12-16 13-10 9-8 7-13 13-7 8-13 16-12 17-13 21-12 23-11 27-8 26-6 27-3 21-1 11v52l4 31 6 27 10 30 9 20 12 23 12 19 13 18 14 17 5 6 7-6 27-27 7-8 7-7-6-7-11-12-12-16-9-15-11-21-8-21-6-20-4-19-2-15v-41l3-25 6-27 5-16v-3l8 7 24 24-1 8-3 16-1 9v39l4 26 6 22 8 21 8 16 6 11 8 12 9 12 12 14 12 12 11 9 13 10 18 11 16 8 17 7 15 5h2v57h65l1-1v-49h15l21-3h5l31 31 7 8 39 39 7 8 2 2 6-1 24-12 18-11 17-12 16-13 10-9 12-11 12-13 14-17 12-17 13-21 12-22 9-20 9-25 6-22 5-25 3-28v-46l-3-27-5-26-6-22-8-23-11-25-12-22-16-24-10-13-11-13-11-12-13-13-8-7-16-13-18-13-21-13z" fill="#FEFEFE"/>
<path transform="translate(915,700)" d="m0 0 4 1 15 13 10 10 9 11 10 13 10 15 10 18 10 21 8 21 8 30 4 27 1 16v15l-2 27-4 23-7 24-9 21-9 17-3 2-7-8-27-27-7-8-28-28-7-8-27-27-7-8-28-28-7-8-27-27-7-8-10-10 6-7 12-13 11-11 7-8 13-13 9 6 13 12 10 12 11 17 5 9v2l9-7 10-9 11-9 11-10 11-9-1-4-12-18-8-10-9-10-4-5-8-7-10-9 6-8z" fill="#FEFEFE"/>
<path transform="translate(739,506)" d="m0 0h22l30 2 29 4 28 6 27 8 20 7 23 10 17 8 23 13 24 16 17 13 11 9 12 11 8 7 14 14 7 8 12 14 15 20 10 15 12 20 12 23 8 17 11 29 9 31 6 29 4 32 1 14v42l-3 32-5 29-8 32-10 29-9 21-12 25-13 22-10 15-13 18-11 13-9 11-29 29-11 9-13 11-18 13-22 14-22 12-27 13-27 10-26 8-27 6-24 4-19 2-25 1h-16l-25-1-26-3-32-6-29-8-26-9-25-11-22-11-17-10-21-14-16-12-11-9-14-12-26-26-9-11-8-9-14-19-10-15-9-15-12-22-11-24-9-24-8-26-6-26-5-32-2-24v-42l3-32 5-30 7-28 10-30 11-26 14-28 14-23 12-17 12-16 13-15 12-13 16-16 8-7 13-11 20-15 20-13 19-11 21-11 26-11 19-7 28-8 28-6 28-4zm-10 12-32 3-28 5-28 7-30 10-26 11-20 10-22 13-15 10-19 14-14 12-8 7-13 12-7 7-7 8-9 10-11 14-11 15-13 20-14 25-13 28-10 28-7 23-7 34-3 22-2 30v21l2 31 5 33 7 30 12 36 11 25 11 22 12 20 13 19 10 13 9 11 9 10 7 8 18 18 8 7 13 11 19 14 20 13 21 12 24 12 25 10 24 8 32 8 32 5 22 2h48l30-3 28-5 28-7 27-9 26-11 24-12 17-10 21-14 12-9 10-8 13-11 16-15 9-9 7-8 12-14 15-20 13-20 11-19 9-17 12-28 11-33 6-24 5-28 3-30v-48l-3-30-5-28-7-28-11-32-11-25-14-27-12-19-14-20-13-16-12-14-27-27-11-9-12-10-18-13-19-12-18-10-16-8-15-7-29-11-28-8-29-6-31-4-14-1z" fill="#2B4B91"/>
<path transform="translate(724,557)" d="m0 0h51l27 3 31 6 31 9 28 11 30 15 21 13 17 12 16 13 14 12 20 20 9 11 11 13 12 17 13 21 12 23 8 17 10 28 7 25 6 31 3 31v38l-3 30-4 23-6 24-10 30-11 25-12 23-12 19-12 17-13 16-11 12-9 10-17 16-11 9-20 15-22 14-24 13-20 9-27 10-25 7-25 5-23 3-13 1h-43l-29-3-31-6-25-7-25-9-20-9-25-13-19-12-18-13-13-11-11-9-23-23-9-11-10-12-13-18-15-25-11-21-10-24-10-30-7-30-4-28-1-11v-50l3-27 6-31 7-24 9-25 9-20 12-23 12-19 10-14 11-14 12-14 26-26 11-9 15-12 21-14 17-10 21-11 24-10 30-10 25-6 24-4zm9 11-31 3-27 5-26 7-28 10-26 12-18 10-19 12-21 16-13 11-13 12-11 11-7 8-11 13-13 18-12 19-10 18-11 23-10 27-7 25-6 31-3 32v32l3 31 4 23 6 24 8 24 11 26 13 25 14 22 16 21 12 14 15 16 15 14 14 11 13 10 17 11 19 11 22 11 23 9 21 7 25 6 23 4 18 2 18 1h20l28-2 26-4 26-6 33-11 25-11 21-11 19-12 14-10 14-11 14-12 23-23 9-11 10-12 13-19 11-18 14-27 10-25 8-25 6-26 4-27 1-10 1-28-1-24-3-26-5-26-8-28-7-19-11-25-12-22-13-20-14-19-13-15-14-15-16-15-11-9-16-12-15-10-19-11-15-8-26-11-30-10-26-6-25-4-23-2z" fill="#2A4A91"/>
<path transform="translate(737,459)" d="m0 0h26l32 2 30 4 29 6 26 7 27 9 29 12 6 4-1 3-6 2-11 4 3 12v5l2 2-1 4-6-1-24-10-36-12-34-8-35-5-30-2h-26l-30 2-29 4-28 6-25 7-26 9-23 10-5-1 1-5h2l-1-5 3-12-11-4-7-3 2-4 25-11 31-11 25-7 34-7 31-4z" fill="#E9BD2F"/>
<path transform="translate(742,193)" d="m0 0h16l1 1v11h13v16l-1 1h-12l1 9 10 6 1 1 12 1 8 5 1 2 10-3 9 1 6 4 5 6 12-1 8 3 7 8 2 7h12l7 4 4 5 2 5v8l8 1 4 2 4-1 4-3 3-1h10l8 4 5 7 11-1 8 3 6 7 2 5v4l2-1h8l8 4 5 6 2 6v6l-1 2h7l6 3 6 7 2 6-1 9-1 2 5 1 5 4 4 8v10l-4 8 5 2 6 9v15l4 5 1 2v11l-2 7 2 4v11l-6 10-8 6-5 2h-11l-7-1-10 4h-13l-1 6-4 5-5 2h-3v6l-4 4 2 11-9 5h-2l1 7-5 5-6-1-26-11-33-11-28-7-29-5-31-3h-49l-32 3-29 5-28 7-36 12-25 11-6-1-3-3 1-8-6-2-5-3 2-12-4-3-1-5-8-4-3-3-1-7h-14l-9-4-7 1h-11l-10-5-6-7-3-6-1-7 3-10-2-5v-10l3-6 2-2v-14l3-6 5-5 3-1-4-7v-12l5-8 8-5-1-4v-7l3-7 5-5 6-3h6v-9l4-8 6-5 5-2h8l2 1 1-8 7-8 8-3 10 1 2 1 2-5 7-6 3-1h10l8 4 3 1 7-3h5v-8l4-8 5-4 4-2h12l4-10 7-6 6-2 10 1 3 1 2-5 6-5 7-2 8 1 6 2 7-6 3-1 11-1 9-6h3v-10h-12l-1-1v-16h13v-11zm3 4v11h-13v10h13l-1 16-9 4-5 4h-8l-8 3-5 6v2l-7-5-9-1-7 3-4 5-2 5-5-2-3-1h-7l-6 3-4 5-2 5 1 8-10-4-9 2-5 5-3 7 2 10-3-1h-7l-7 4h-4l-5-5-3-1h-9l-6 4-4 6v4l-7-4h-8l-6 3-4 5-2 8v4l-5-2h-9l-6 4-3 4-1 3v8l2 5-9-1-7 3-5 6-1 2v9l3 6-9 3-5 5-2 4v8l4 6 4 5-6 1-7 6-2 5 1 9 2 4-4 2-3 4-1 8 3 8v4l-3 7 2 9 7 8 6 3 8 1 10-3 6 4 7 2h9l7-1-1 9 4 4h7l23-10 30-11 32-9 29-6 28-4 23-2h57l31 3 30 5 30 7 26 8 25 9 23 10 7-1 3-4v-6l-1-3 13 2 9-2 7-4 6 2h11l7-4 5-5 3-5 1-7-4-9 4-10-2-9-5-5 2-11-3-8-7-5-5-2 7-8 1-7-3-8-5-4-8-3 3-7-1-9-4-6-6-3h-11l2-4v-8l-4-7-7-4h-9l-4 2-1-10-4-6-4-3-3-1h-8l-6 3-6-10-5-3-6-1-7 2-7 6-7-5h-10l-2 1 2-5v-8l-4-7-8-4h-7l-6 3-1-10-4-6-6-4h-10l-7 4-1-6-5-6-4-2h-9l-7 4h-2l-6-7-5-2h-10l-8-6-7-2v-16h13v-9l-1-1h-12v-11zm-8 262-31 2-31 4-34 7-31 9-25 9-25 11-2 4 12 5 6 2-3 12 1 5-3 1 1 5 6-1 24-10 36-12 29-7 31-5 20-2 19-1h26l30 2 35 5 34 8 36 12 26 11 5-1-1-4-1-3-3-15 11-4 7-3-2-4-25-11-28-10-29-8-28-6-26-4-21-2-20-1z" fill="#2D4D92"/>
<path transform="translate(717,280)" d="m0 0h20l2 10v18l-1 2v9l1 2v17l-1 3v9l4 5 6 3-1 2-10 3-4 5-2 6-10 5-3 5v15l3 5 4 3 13 3-3 9-5 5-5 3h-10l-8-4-5-7-1-12-3-6-8-4-9 1-6 4-3 7 1 16-3 6-6 5-4 2h-10l-7-4-6-8 3-2 10-5 3-4v-13l-4-8-4-3-10-2-4-6-5-3v-8l4-17 6-15 7-13 8-10 8-9 12-9 12-7 17-6zm-5 4-17 4-16 7-14 10-7 6-9 11-7 11-5 10 1 2 14-6 17-5 17-3 11-1h24l15 1v-8l-2-5v-8l2-5v-13l-3-8z" fill="#C52A45"/>
<path transform="translate(763,280)" d="m0 0h21l16 3 14 5 12 6 12 9 13 13 10 15 7 16 5 18 1 11-6 4-4 6-10 2-5 5-3 9v7l3 6 8 5 5 2-2 5-5 5-6 3h-8l-8-4-5-6-2-5 1-7v-10l-4-6-6-3h-8l-7 4-3 5-1 13-5 7-8 4h-9l-8-4-5-8-1-6 12-2 6-4 2-4v-15l-4-6-9-4-3-8-5-4-9-3 5-4 4-4 1-2v-8l-1-2v-18l1-3v-7l-2-5v-14l2-5zm4 4-3 8v14l2 5-1 10-1 2v8l15-1h23l24 3 19 5 15 6h2l-3-9-9-14-11-12-9-8-15-9-17-6-10-2z" fill="#C52A45"/>
<path transform="translate(590,336)" d="m0 0 5 2 2 8 5 5v3l-9 4-3 3-1 3v10l3 5 8 5-2 12-7 6-2 4v7l3 10 6 5 3 1h7l6-1v10l-6 9-6 3-8 1-8-3-5-5-4-10-6-4-7-1-8 3-4 5-1 3v7l3 6v10l-4 6-6 5-3 1h-9l-6-2 3-3 6-4 3-4v-10l-4-9-5-5-3-1 1-15 3-17 5-16 6-12 9-12 8-8 14-10 16-9zm0 4-16 9-13 10-11 11-9 14 1 2 10-6 21-7 11-3 2-9 4-6 5-3-3-9z" fill="#C52A45"/>
<path transform="translate(907,336)" d="m0 0 6 2 16 9 13 10 10 10 9 14 5 11 5 18 3 22v4l-7 4-5 10-1 8 3 6 6 5 4 3-5 2h-10l-6-3-6-7-2-6 1-6 3-6v-7l-3-6-6-4-7-1-8 3-4 5-3 8-6 5-2 1h-12l-8-5-4-7v-10l13 1 6-3 4-6 2-7-1-9-5-6-3-2-2-9-1-3 10-6 2-4v-10l-3-5-6-4-5-2 6-7 2-9zm2 4-5 11 5 4h2l2 5 3 10 24 7 12 5 6 3-2-6-9-12-10-10-14-10-12-7z" fill="#C52A45"/>
<path transform="translate(591,911)" d="m0 0 7 6 7 8 52 52 7 8 25 25v33l-13-5-18-10-12-9-10-9-5-4-7-8-11-15-7-12-7-17-6-21-2-15z" fill="#FEFEFE"/>
<path transform="translate(734,735)" d="m0 0h19l23 3 21 5-6 7-15 16-8 8-7 8-11 11-7-6-44-44 1-2 26-5z" fill="#2A4A91"/>
<path transform="translate(717,280)" d="m0 0h20l2 10v18l-1 2v9l1 2v17l-1 3v9l4 5 6 3-1 2-10 3-4 5-2 6-10 5-3 5v15l3 5 4 3 13 3-3 9-5 5-5 3h-10l-8-4-5-7-1-12-3-6-8-4-9 1-6 4-3 7 1 16-3 6-6 5-4 2h-10l-7-4-6-8 3-2 10-5 3-4v-13l-4-8-4-3-10-2-4-6-5-3v-8l4-17 6-15 7-13 8-10 8-9 12-9 12-7 17-6zm-5 4-17 4-16 7-14 10-7 6-9 11-7 11-5 10 1 2 14-6 17-5 17-3 11-1h24l15 1v-8l-2-5v-8l2-5v-13l-3-8zm-20 48-20 3-18 5-16 7-3 2-4 14-1 11 7 7 1 2 9 2 6 5 4 10v12l-4 7-10 6 4 5 6 2 8-1 6-4 3-6-1-7v-10l4-8 6-4 3-1h10l8 4 4 6 1 3v10l4 6 5 3 7 1 7-3 5-5v-3l-11-3-5-5-3-7v-12l3-8 5-4 6-3 4-8 5-4 2-2-4-6-1-9 2-8-1-1-9-1z" fill="#2C4C92"/>
<path transform="translate(763,280)" d="m0 0h21l16 3 14 5 12 6 12 9 13 13 10 15 7 16 5 18 1 11-6 4-4 6-10 2-5 5-3 9v7l3 6 8 5 5 2-2 5-5 5-6 3h-8l-8-4-5-6-2-5 1-7v-10l-4-6-6-3h-8l-7 4-3 5-1 13-5 7-8 4h-9l-8-4-5-8-1-6 12-2 6-4 2-4v-15l-4-6-9-4-3-8-5-4-9-3 5-4 4-4 1-2v-8l-1-2v-18l1-3v-7l-2-5v-14l2-5zm4 4-3 8v14l2 5-1 10-1 2v8l15-1h23l24 3 19 5 15 6h2l-3-9-9-14-11-12-9-8-15-9-17-6-10-2zm5 48-8 1 2 9-1 9-4 7 6 4 4 6 1 3 8 4 4 5 2 6v11l-3 8-6 5-11 3 4 7 5 3h11l6-4 2-3 1-12 4-8 8-5h12l8 5 3 5 1 4v7l-1 9 4 7 5 3h11l6-4 1-3-10-5-4-7v-13l3-8 4-5 9-3 4-2 4-5 3-2-1-10-5-16-15-7-21-6-19-3z" fill="#2C4C92"/>
<path transform="translate(590,336)" d="m0 0 5 2 2 8 5 5v3l-9 4-3 3-1 3v10l3 5 8 5-2 12-7 6-2 4v7l3 10 6 5 3 1h7l6-1v10l-6 9-6 3-8 1-8-3-5-5-4-10-6-4-7-1-8 3-4 5-1 3v7l3 6v10l-4 6-6 5-3 1h-9l-6-2 3-3 6-4 3-4v-10l-4-9-5-5-3-1 1-15 3-17 5-16 6-12 9-12 8-8 14-10 16-9zm0 4-16 9-13 10-11 11-9 14 1 2 10-6 21-7 11-3 2-9 4-6 5-3-3-9zm-10 33-21 6-14 7-7 5-5 17-3 19v6l6 5 5 9 1 4v10l-4 7-2 2 7-1 5-4 3-7-1-5-3-7 1-10 4-6 5-4 3-1h10l8 4 5 8 3 7 7 3 9-1 7-6 2-7-14-1-6-4-5-10-1-4v-8l4-8 5-4 1-9-6-4-4-8z" fill="#2A4A91"/>
<path transform="translate(907,336)" d="m0 0 6 2 16 9 13 10 10 10 9 14 5 11 5 18 3 22v4l-7 4-5 10-1 8 3 6 6 5 4 3-5 2h-10l-6-3-6-7-2-6 1-6 3-6v-7l-3-6-6-4-7-1-8 3-4 5-3 8-6 5-2 1h-12l-8-5-4-7v-10l13 1 6-3 4-6 2-7-1-9-5-6-3-2-2-9-1-3 10-6 2-4v-10l-3-5-6-4-5-2 6-7 2-9zm2 4-5 11 5 4h2l2 5 3 10 24 7 12 5 6 3-2-6-9-12-10-10-14-10-12-7zm6 33-4 8-7 5 1 8 6 4 3 6v13l-4 9-5 5-7 2h-9l1 6 4 5 7 3 9-1 5-3 4-10 4-5 7-3h9l8 4 4 5 2 7-1 8-3 5 1 8 6 7 8 2-6-9v-12l6-12 6-5-2-19-4-16-3-7-10-7-11-5-20-6z" fill="#2B4B91"/>
<path transform="translate(749,464)" d="m0 0 20 7 14 5-3 3-28 10-7-1-27-10-1-2z" fill="#C52A45"/>
<path transform="translate(732,747)" d="m0 0h28l14 2-2 4-9 10-9 9-3 4-4-1-20-20-4-6 1-1z" fill="#FEFEFE"/>
<path transform="translate(987,442)" d="m0 0h8l8 5 3 6v8l-3 6-5 4-2 1h-10l-6-4-3-4-1-3v-8l4-7z" fill="#FEFEFE"/>
<path transform="translate(615,390)" d="m0 0h11l6 4 3 5 1 8-4 8-5 4-9 1-8-4-4-6-1-7 3-8z" fill="#FEFEFE"/>
<path transform="translate(877,389)" d="m0 0 8 1 6 4 3 5v11l-4 6-5 3-7 1-8-3-4-5-2-5 1-9 5-6z" fill="#FEFEFE"/>
<path transform="translate(745,374)" d="m0 0h10l6 4 4 7v7l-3 6-5 4-2 1h-10l-6-4-4-6v-9l4-6z" fill="#FEFEFE"/>
<path transform="translate(506,442)" d="m0 0 8 1 6 4 3 6v9l-3 5-4 4-3 1h-9l-6-4-3-3-1-3v-10l4-6 4-3z" fill="#FEFEFE"/>
<path transform="translate(857,479)" d="m0 0 5 1 11 8 13 9v1l-25 3h-8l-23-16-1-3z" fill="#2A4A91"/>
<path transform="translate(640,479)" d="m0 0 31 3-1 3-16 11-7 5-17-1-16-2 4-4z" fill="#2A4A91"/>
<path transform="translate(690,423)" d="m0 0 4 1 5 6 11 6-1 4-32 4h-5l1-5 5-4 5-8 1-3z" fill="#2A4A91"/>
<path transform="translate(807,423)" d="m0 0 8 1 7 11 6 5-1 4-19-2-17-2-1-4 9-5 5-5z" fill="#2A4A91"/>
<path transform="translate(748,413)" d="m0 0h4l4 11 6 7 6 4-1 3h-34v-4l7-5 6-10z" fill="#2A4A91"/>
<path transform="translate(871,428)" d="m0 0 4 1 2 13 6 10 2 3-1 2-10-2-23-6-1-4 10-4 7-6z" fill="#2A4A91"/>
<path transform="translate(626,428)" d="m0 0h3l5 8 6 5 9 4v4l-31 8h-2l-1-4 6-7 3-9 1-8z" fill="#2A4A91"/>
<path transform="translate(924,454)" d="m0 0 10 4 5 12 3 4-1 4-9-3-26-10 1-4 12-4z" fill="#2A4A91"/>
<path transform="translate(575,454)" d="m0 0 11 5 7 2v4l-28 11-6 2-1-4 5-8 3-8z" fill="#2A4A91"/>
<path transform="translate(749,464)" d="m0 0 20 7 14 5-3 3-28 10-7-1-27-10-1-2zm-1 3-24 9 3 3 22 8 10-3 16-6v-2l-24-9z" fill="#2A4A91"/>
<path transform="translate(504,440)" d="m0 0h10l7 4 4 5 1 3v10l-3 6-6 5-6 2-8-1-7-4-4-6-1-10 4-8 6-5zm2 2-7 3-4 5-1 2v10l3 5 5 4 2 1h9l5-3 4-4 1-3v-9l-4-7-5-3z" fill="#2A4A91"/>
<path transform="translate(745,371)" d="m0 0h10l8 5 4 7v11l-4 6-5 4-6 2-8-1-7-4-4-7-1-8 3-8 7-6zm0 3-6 4-4 6v9l4 6 6 4h10l6-4 3-4 1-3v-7l-4-7-6-4z" fill="#2A4A91"/>
<path transform="translate(876,387)" d="m0 0h7l8 4 4 5 2 5v7l-3 7-7 6-3 1h-9l-8-4-4-6-1-3v-9l3-6 6-5zm1 2-8 4-4 5-1 9 4 8 6 4 6 1 7-2 5-5 2-3v-11l-4-6-5-3z" fill="#2A4A91"/>
<path transform="translate(986,440)" d="m0 0h10l7 4 4 5 1 3v11l-4 6-5 4-6 2-8-1-5-3-5-6-2-9 3-9 7-6zm1 2-7 4-4 7v8l3 6 5 4 2 1h10l6-4 3-4 1-3v-8l-4-7-7-4z" fill="#2A4A91"/>
<path transform="translate(589,499)" d="m0 0 7 1 4 5-1 7-4 4h-7l-5-5v-6l4-5z" fill="#FEFEFE"/>
<path transform="translate(693,471)" d="m0 0 7 1 4 4v7l-5 5h-6l-5-4-1-6 3-5z" fill="#FEFEFE"/>
<path transform="translate(504,409)" d="m0 0 6 1 4 5v6l-5 5h-7l-4-4-1-7 4-5z" fill="#FEFEFE"/>
<path transform="translate(511,379)" d="m0 0 6 1 4 5v6l-5 5h-7l-4-4-1-7 4-5z" fill="#FEFEFE"/>
<path transform="translate(600,360)" d="m0 0 7 1 4 4v7l-5 5h-6l-5-4-1-6 3-5z" fill="#FEFEFE"/>
<path transform="translate(774,249)" d="m0 0 7 1 4 4v7l-4 4-7 1-5-4-1-7 4-5z" fill="#FEFEFE"/>
<path transform="translate(906,499)" d="m0 0 7 1 3 3 1 7-4 5-2 1h-6l-5-5v-7z" fill="#FEFEFE"/>
<path transform="translate(802,471)" d="m0 0 7 1 3 4 1 4-2 5-4 3h-6l-5-5v-7l3-4z" fill="#FEFEFE"/>
<path transform="translate(887,330)" d="m0 0 7 1 4 4v7l-5 5h-6l-5-4-1-5 3-6z" fill="#FEFEFE"/>
<path transform="translate(748,275)" d="m0 0 6 1 4 4v7l-5 5h-6l-5-4-1-6 3-5z" fill="#FEFEFE"/>
<path transform="translate(720,249)" d="m0 0h6l5 4 1 6-4 6-7 1-5-3-1-2v-7z" fill="#FEFEFE"/>
<path transform="translate(895,360)" d="m0 0 6 1 4 4v7l-5 5h-6l-5-4-1-6 3-5z" fill="#FEFEFE"/>
<path transform="translate(972,353)" d="m0 0 7 1 4 4v6l-2 4-4 2-7-1-4-5 1-7z" fill="#FEFEFE"/>
<path transform="translate(748,336)" d="m0 0 6 1 4 4v7l-5 5h-6l-5-4-1-6 4-6z" fill="#FEFEFE"/>
<path transform="translate(566,312)" d="m0 0h7l5 5v6l-4 5-6 1-6-4-1-7 2-4z" fill="#FEFEFE"/>
<path transform="translate(854,281)" d="m0 0h6l5 5v7l-6 5-7-1-3-3-1-6 3-5z" fill="#FEFEFE"/>
<path transform="translate(640,281)" d="m0 0h6l5 5v7l-4 4-6 1-5-3-2-4 1-6z" fill="#FEFEFE"/>
<path transform="translate(801,254)" d="m0 0h6l5 4 1 6-4 6-7 1-4-2-2-3v-7z" fill="#FEFEFE"/>
<path transform="translate(692,254)" d="m0 0h7l5 5v6l-4 5-6 1-5-3-2-3 1-7z" fill="#FEFEFE"/>
<path transform="translate(873,304)" d="m0 0h7l5 5v6l-4 5-5 1-6-3-2-4 1-6z" fill="#FEFEFE"/>
<path transform="translate(903,301)" d="m0 0 6 2 3 4v6l-5 5h-7l-4-4-1-6 3-5z" fill="#FEFEFE"/>
<path transform="translate(594,301)" d="m0 0 6 1 4 4 1 5-3 5-3 2h-6l-5-5v-7l4-4z" fill="#FEFEFE"/>
<path transform="translate(990,410)" d="m0 0h8l4 4 1 6-3 5-2 1h-8l-4-5v-6z" fill="#FEFEFE"/>
<path transform="translate(986,379)" d="m0 0 5 1 4 4 1 6-5 6h-7l-5-5v-6l4-5z" fill="#FEFEFE"/>
<path transform="translate(828,264)" d="m0 0h6l5 4v8l-4 4-6 1-5-3-1-2v-8z" fill="#FEFEFE"/>
<path transform="translate(665,264)" d="m0 0h7l5 5v7l-4 4-6 1-5-3-2-4 1-6z" fill="#FEFEFE"/>
<path transform="translate(615,388)" d="m0 0h11l8 5 4 8v7l-4 8-4 4-6 2h-7l-8-4-5-6-1-3v-8l4-8zm0 2-7 5-3 8 2 9 4 5 7 3 9-1 6-5 3-7-1-8-4-6-5-3z" fill="#2A4A91"/>
<path transform="translate(522,353)" d="m0 0h6l5 5v7l-3 4-7 1-5-3-1-2v-7z" fill="#FEFEFE"/>
<path transform="translate(951,330)" d="m0 0h7l5 5v6l-4 5h-8l-4-4-1-6 3-5z" fill="#FEFEFE"/>
<path transform="translate(608,330)" d="m0 0 6 1 4 4v7l-5 5h-6l-5-5v-7l3-4z" fill="#FEFEFE"/>
<path transform="translate(927,312)" d="m0 0h7l4 4 1 5-3 6-4 2-6-1-4-4v-7z" fill="#FEFEFE"/>
<path transform="translate(746,306)" d="m0 0h7l5 5v7l-4 4-5 1-6-3-2-7 3-5z" fill="#FEFEFE"/>
<path transform="translate(620,304)" d="m0 0h7l4 4 1 5-3 6-7 2-5-3-2-2v-7z" fill="#FEFEFE"/>
<path transform="translate(541,330)" d="m0 0h8l4 4v8l-4 4h-8l-4-4v-8z" fill="#FEFEFE"/>
<path transform="translate(543,327)" d="m0 0 7 1 5 5 1 2v6l-4 6-4 2h-6l-6-4-2-5 1-7 5-5zm-2 3-4 4v8l4 4h8l4-4v-8l-4-4z" fill="#2A4A91"/>
<path transform="translate(621,301)" d="m0 0 7 1 5 5 1 2-1 9-5 4-2 1h-6l-6-4-2-5 1-7 5-5zm-1 3-5 5v7l4 4 5 1 6-3 2-7-3-5-2-2z" fill="#2A4A91"/>
<path transform="translate(929,309)" d="m0 0 7 1 5 5 1 8-4 6-4 2-9-1-4-5-1-7 3-6zm-2 3-5 5v7l4 4 6 1 5-3 2-7-3-5-2-2z" fill="#2A4A91"/>
<path transform="translate(952,327)" d="m0 0 8 1 5 5 1 6-3 7-6 3-8-1-4-4-1-9 3-5zm-1 3-4 4-1 6 3 5 2 1h8l4-5v-6l-5-5z" fill="#2A4A91"/>
<path transform="translate(830,261)" d="m0 0 7 2 4 4 1 2-1 9-4 4-9 1-5-3-3-5 1-8 5-5zm-2 3-5 4v8l4 4 6 1 5-3 1-2v-8l-5-4z" fill="#2A4A91"/>
<path transform="translate(667,261)" d="m0 0 7 1 5 5 1 7-3 6-5 3h-7l-6-5-1-2v-7l4-6zm-2 3-4 4-1 6 3 5 4 2 6-1 4-4v-7l-5-5z" fill="#2A4A91"/>
<path transform="translate(992,407)" d="m0 0 7 1 5 4 1 9-3 5-5 3-8-1-5-5-1-6 3-7zm-2 3-4 5v6l4 5h8l4-4 1-6-3-5-2-1z" fill="#2A4A91"/>
<path transform="translate(520,351)" d="m0 0h9l5 5 1 2v7l-5 6-2 1h-8l-5-4-2-5 1-6 4-5zm2 2-5 5v7l4 4 6 1 5-3 1-2v-7l-5-5z" fill="#2A4A91"/>
<path transform="translate(984,377)" d="m0 0 9 1 5 6v7l-3 5-6 3-7-1-5-6v-9l5-5zm2 2-5 3-2 3v6l5 5h7l5-6-1-6-4-4z" fill="#2A4A91"/>
<path transform="translate(893,358)" d="m0 0h7l6 4 2 5-1 7-5 5-6 1-7-3-3-5 1-9zm2 2-5 3-2 4 1 6 5 4h6l5-5v-7l-4-4z" fill="#2A4A91"/>
<path transform="translate(606,328)" d="m0 0h8l6 5 1 8-3 5-4 3h-8l-6-5-1-8 3-5zm2 2-5 3-1 2v7l5 5h6l5-5v-7l-4-4z" fill="#2A4A91"/>
<path transform="translate(901,299)" d="m0 0h6l5 3 2 3v9l-5 6-7 1-6-3-3-4v-8l5-6zm2 2-6 3-2 4 1 6 4 4h7l5-5v-6l-4-5z" fill="#2A4A91"/>
<path transform="translate(562,510)" d="m0 0 6 1 5 2-1 9-1 4-6-2-5-3 1-7z" fill="#C52B46"/>
<path transform="translate(568,309)" d="m0 0 7 1 5 6 1 5-3 7-5 3h-7l-6-5-1-2v-7l4-6zm-2 3-4 4-1 6 3 5 4 2 6-1 4-5v-6l-5-5z" fill="#2A4A91"/>
<path transform="translate(637,279)" d="m0 0h9l6 5 1 8-4 6-3 2h-8l-6-5-1-8 3-6zm3 2-5 4-1 6 4 6 7 1 4-2 2-3v-7l-5-5z" fill="#2A4A91"/>
<path transform="translate(774,247)" d="m0 0h8l5 4 1 2v9l-4 5-2 1h-9l-5-4-1-2v-8l3-5zm0 2-5 4-1 7 4 5 7 1 5-3 1-2v-7l-4-4z" fill="#2A4A91"/>
<path transform="translate(934,510)" d="m0 0h4l2 10-10 6-2-4-2-9z" fill="#C52A45"/>
<path transform="translate(886,328)" d="m0 0h8l5 4 2 5-1 6-4 5-2 1h-9l-5-5-1-2v-7l5-6zm1 2-5 5-1 5 3 5 3 2h6l5-5v-7l-4-4z" fill="#2A4A91"/>
<path transform="translate(875,301)" d="m0 0 7 1 5 6v8l-5 6-2 1-9-1-5-6v-8l4-5zm-2 3-4 4-1 6 3 5 6 2 5-2 3-4v-6l-5-5z" fill="#2A4A91"/>
<path transform="translate(592,299)" d="m0 0h7l6 5 1 2v7l-4 6-8 2-6-3-3-4v-9l5-5zm2 2-4 2-2 3v7l5 5h6l5-4 1-6-3-5-4-2z" fill="#2A4A91"/>
<path transform="translate(852,279)" d="m0 0h9l5 4 2 5-1 6-4 5-3 1h-7l-6-5-1-2v-7l3-5zm2 2-5 4-1 6 3 5 4 2 6-1 4-4v-7l-5-5z" fill="#2A4A91"/>
<path transform="translate(800,252)" d="m0 0h9l5 5 1 2v7l-5 6-2 1h-7l-5-3-3-6 1-6 4-5zm1 2-5 5v7l4 4 6 1 5-3 2-4-1-6-5-4z" fill="#2A4A91"/>
<path transform="translate(905,497)" d="m0 0h7l6 5 1 2v7l-4 6-2 1h-9l-5-4-2-7 3-7zm1 2-6 5v7l5 5h6l5-4 1-6-3-5-4-2z" fill="#2A4A91"/>
<path transform="translate(800,469)" d="m0 0h8l6 5 1 8-3 5-4 3h-8l-6-5-1-8 3-5zm2 2-5 3-1 2v7l5 5h6l5-4 1-5-3-6-3-2z" fill="#2A4A91"/>
<path transform="translate(746,273)" d="m0 0h8l5 4 2 5-1 6-4 5-2 1h-9l-5-5-1-2 1-9zm2 2-5 3-2 4 1 6 5 4h6l5-5v-7l-4-4z" fill="#2A4A91"/>
<path transform="translate(695,251)" d="m0 0 7 2 4 5v9l-5 5-2 1h-7l-6-5-1-2v-8l4-5zm-3 3-5 6 1 7 3 3 7 1 5-4 1-2v-6l-5-5z" fill="#2A4A91"/>
<path transform="translate(588,497)" d="m0 0h7l5 3 2 4v8l-4 5-2 1h-9l-5-4-1-2v-9l5-5zm1 2-5 4-1 2v6l5 5h7l4-4 1-7-4-5z" fill="#2A4A91"/>
<path transform="translate(970,351)" d="m0 0h9l5 4 1 2v9l-5 5-2 1h-7l-5-3-2-4v-7l3-5zm2 2-5 4-1 7 4 5 7 1 4-2 2-4v-6l-4-4z" fill="#2A4A91"/>
<path transform="translate(692,469)" d="m0 0h8l5 4 2 5-1 6-4 5-2 1h-8l-5-3-2-4v-7l5-6zm1 2-5 4-1 6 3 5 3 2h6l5-5v-7l-4-4z" fill="#2A4A91"/>
<path transform="translate(502,407)" d="m0 0h7l5 3 2 4v8l-4 5-5 2-6-1-5-4-1-2v-8l5-6zm2 2-5 3-2 3 1 7 4 4h7l5-5v-6l-4-5z" fill="#2A4A91"/>
<path transform="translate(719,247)" d="m0 0h8l6 5 1 2v7l-5 6-2 1h-8l-5-4-2-5 1-6 4-5zm1 2-5 5v7l4 4 6 1 5-3 2-4-1-6-5-4z" fill="#2A4A91"/>
<path transform="translate(509,377)" d="m0 0h7l5 3 2 4v8l-4 5-5 2-6-1-5-4-1-2v-8l5-6zm2 2-5 3-2 3 1 7 4 4h7l5-5v-6l-4-5z" fill="#2A4A91"/>
<path transform="translate(599,358)" d="m0 0h8l5 4 2 5-1 6-4 5-2 1h-8l-4-2-3-5v-7l5-6zm1 2-5 4-1 6 3 5 3 2h6l5-5v-7l-4-4z" fill="#2A4A91"/>
<path transform="translate(748,303)" d="m0 0 6 1 5 5 1 2-1 9-4 4-8 1-5-3-3-5v-6l4-6zm-2 3-4 4-1 5 3 6 7 2 5-3 2-2v-7l-5-5z" fill="#2A4A91"/>
<path transform="translate(808,427)" d="m0 0 5 1 7 11-15-1-6-1 5-5z" fill="#C52D44"/>
<path transform="translate(688,427)" d="m0 0 4 1 9 8v1l-14 2h-7l7-11z" fill="#C52A45"/>
<path transform="translate(746,334)" d="m0 0h7l6 5 1 2v7l-3 5-3 2h-9l-5-5-1-2 1-9zm2 2-5 3-2 4 1 6 5 4h6l5-5v-7l-4-4z" fill="#2A4A91"/>
<path transform="translate(923,459)" d="m0 0 5 1 3 1 4 9-1 2-19-8 1-2z" fill="#C52A45"/>
<path transform="translate(870,437)" d="m0 0h2l4 11 1 3-8-1-11-3 5-4z" fill="#C52A45"/>
<path transform="translate(628,436)" d="m0 0 7 6 6 4-2 2-12 3-4-1 4-9z" fill="#C52A45"/>
<path transform="translate(574,459)" d="m0 0 5 1 6 3-2 2-15 6-3-1 4-9z" fill="#C52B46"/>
<path transform="translate(749,421)" d="m0 0 3 3 6 8 1 2h-19l6-7z" fill="#C52A45"/>
<path transform="translate(539,666)" d="m0 0 2 1-32 32v-3l9-9 7-8 13-12z" fill="#F6E6B2"/>
</svg>
